<svg width="1024" height="1024" viewBox="0 0 1024 1024" fill="none" xmlns="http://www.w3.org/2000/svg">
<path d="M331.556 380C328.144 398.685 322.632 416.85 318.114 435.282C316.409 442.235 312.235 451.665 313.431 458.845" stroke="black" stroke-opacity="0.5" stroke-width="3" stroke-linecap="round"/>
<path d="M307.994 441.626C315.467 438.263 323.214 436.281 330.65 432.563" stroke="black" stroke-opacity="0.5" stroke-width="3" stroke-linecap="round"/>
<path d="M336.088 419.875C334.188 429.376 329.225 438.957 326.22 448.171C323.604 456.188 320.699 464.205 318.869 472.439" stroke="black" stroke-opacity="0.5" stroke-width="3" stroke-linecap="round"/>
<path d="M350.588 433.469C347.035 437.669 341.108 445.803 341.274 451.444C341.315 452.837 342.757 457.52 345.15 455.925C351.466 451.714 360.295 433.631 348.775 430.751" stroke="black" stroke-opacity="0.5" stroke-width="3" stroke-linecap="round"/>
<path d="M368.713 421.688C365.581 423.428 364.907 434.624 364.383 437.497C362.877 445.761 361.084 455.755 362.571 464.182C363.062 466.967 366.147 460.903 366.296 460.456C368.002 455.338 367.619 449.454 370.073 444.546C371.084 442.523 375.274 460.662 376.517 458.845C379.351 454.703 380.041 449.129 382.458 444.697C384.986 440.062 387.996 435.705 391.37 431.657" stroke="black" stroke-opacity="0.5" stroke-width="3" stroke-linecap="round"/>
<path d="M437.589 428.032C429.335 428.032 425.854 439.946 424.146 446.459C422.433 452.991 422.476 458.661 429.433 454.313" stroke="black" stroke-opacity="0.5" stroke-width="3" stroke-linecap="round"/>
<path d="M439.402 457.032C442.448 460.459 443.116 451.597 443.379 449.379C444.348 441.196 444.42 432.912 445.343 424.709C445.527 423.074 445.472 416.056 447.91 415.244C447.983 415.219 452.089 444.608 452.089 449.782" stroke="black" stroke-opacity="0.5" stroke-width="3" stroke-linecap="round"/>
<path d="M439.402 444.345C443.203 444.133 446.182 441.475 449.572 440.015C452.775 438.635 456.445 438.118 459.339 436.188" stroke="black" stroke-opacity="0.5" stroke-width="3" stroke-linecap="round"/>
<path d="M458.433 450.688C458.618 453.646 459.23 450.735 459.289 449.379C459.549 443.396 458.836 437.435 458.836 431.455C458.836 427.658 458.166 421.454 459.843 417.862C460.743 415.933 462.931 429.983 463.015 430.801C463.619 436.723 464.368 442.962 467.294 448.272C468.547 450.546 468.363 448.246 468.553 447.013C469.516 440.756 471.399 434.57 472.933 428.435C473.649 425.571 474.01 422.338 475.652 419.875" stroke="black" stroke-opacity="0.5" stroke-width="3" stroke-linecap="round"/>
<path d="M532.746 414.438C527.52 433.254 526.566 452.753 521.871 471.532" stroke="black" stroke-opacity="0.5" stroke-width="3" stroke-linecap="round"/>
<path d="M597.091 424.407C592.736 425.164 588.502 427.93 584.554 429.794C581.898 431.049 576.662 432.738 575.542 435.987C574.414 439.258 583.916 441.949 583.346 443.942C582.277 447.684 562.653 466.18 562.653 457.939" stroke="black" stroke-opacity="0.5" stroke-width="3" stroke-linecap="round"/>
<path d="M595.279 429.844C594.916 435.637 586.357 455.089 593.466 458.643C595.96 459.89 600.93 455.484 601.622 453.407" stroke="black" stroke-opacity="0.5" stroke-width="3" stroke-linecap="round"/>
<path d="M604.341 438.001C607.658 437.586 611.792 432.798 615.216 431.657" stroke="black" stroke-opacity="0.5" stroke-width="3" stroke-linecap="round"/>
<path d="M610.685 435.282C607.064 436.087 606.532 452.476 609.074 455.018C610.886 456.83 617.699 452.278 619.748 451.595" stroke="black" stroke-opacity="0.5" stroke-width="3" stroke-linecap="round"/>
<path d="M611.591 447.97C615.613 444.35 621.316 440.388 626.091 438.001" stroke="black" stroke-opacity="0.5" stroke-width="3" stroke-linecap="round"/>
<path d="M626.091 430.751C632.416 430.048 640.158 426.017 646.029 423.501" stroke="black" stroke-opacity="0.5" stroke-width="3" stroke-linecap="round"/>
<path d="M629.716 423.501C626.903 426.627 620.723 456.483 623.574 457.737C626.433 458.995 635.187 453.308 636.06 450.688" stroke="black" stroke-opacity="0.5" stroke-width="3" stroke-linecap="round"/>
<path d="M625.185 447.063C625.853 441.722 644.698 441.145 648.748 437.094" stroke="black" stroke-opacity="0.5" stroke-width="3" stroke-linecap="round"/>
<path d="M653.279 428.032C648.791 434.315 649.32 443.905 648.345 451.192C647.775 455.453 646.029 463.88 646.029 463.88C646.029 463.88 645.469 432.46 651.92 418.718C652.603 417.262 654.946 410.327 657.357 410.863C660.124 411.478 660.048 415.766 659.522 417.711C658.187 422.651 656.285 431.657 649.654 431.657" stroke="black" stroke-opacity="0.5" stroke-width="3" stroke-linecap="round"/>
<path d="M291.681 476.97C289.276 482.982 288.403 489.752 287.351 496.102C286.719 499.92 285.418 505.101 286.294 509.042C286.67 510.737 288.789 506.582 289.717 505.114C294.564 497.454 299.576 489.663 304.872 482.307C309.921 475.294 295.825 514.673 301.297 507.984C306.168 502.031 305.423 492.783 309.806 486.939" stroke="black" stroke-opacity="0.5" stroke-width="3" stroke-linecap="round"/>
<path d="M324.306 479.689C323.039 487.923 318.269 496.094 315.395 503.856C314.909 505.168 312.525 511.66 312.525 511.408" stroke="black" stroke-opacity="0.5" stroke-width="3" stroke-linecap="round"/>
<path d="M310.712 496.001C315.384 494.564 321.226 494.189 326.119 494.189" stroke="black" stroke-opacity="0.5" stroke-width="3" stroke-linecap="round"/>
<path d="M333.369 485.126C328.913 486.116 327.212 500.552 327.025 504.158C326.947 505.661 326.119 511.685 326.119 511.408" stroke="black" stroke-opacity="0.5" stroke-width="3" stroke-linecap="round"/>
<path d="M354.213 482.408C350.022 482.408 345.841 482.177 341.727 483.112C336.352 484.334 334.937 501.149 333.923 505.366C333.396 507.557 329.789 519.564 334.728 519.564C339.342 519.564 344.465 517.376 348.775 515.939" stroke="black" stroke-opacity="0.5" stroke-width="3" stroke-linecap="round"/>
<path d="M346.963 500.533C341.857 501.667 336.463 501.616 331.556 503.252" stroke="black" stroke-opacity="0.5" stroke-width="3" stroke-linecap="round"/>
<path d="M357.838 505.97C357.838 498.795 362.542 490.897 365.592 484.623C365.776 484.242 368.315 478.071 368.763 479.789C370.213 485.345 370.092 491.194 371.482 496.757C371.911 498.472 372.194 499.134 372.691 500.734C372.907 501.43 372.553 503.079 373.244 502.849C374.029 502.587 376.582 495.788 376.819 495.196C379.506 488.479 380.077 481.078 382.106 474.15C382.668 472.232 383.119 467.954 385.026 467.001" stroke="black" stroke-opacity="0.5" stroke-width="3" stroke-linecap="round"/>
<path d="M426.714 479.689C425.114 480.222 424.688 483.177 424.297 484.421C421.794 492.398 419.863 500.531 417.651 508.588C416.324 513.424 414.026 528.204 414.026 523.189" stroke="black" stroke-opacity="0.5" stroke-width="3" stroke-linecap="round"/>
<path d="M452.089 483.314C449.953 494.967 444.839 506.739 444.839 518.658" stroke="black" stroke-opacity="0.5" stroke-width="3" stroke-linecap="round"/>
<path d="M459.339 498.72C457.715 498.883 449.471 503.549 449.471 505.568C449.471 508.95 456.84 511.737 458.433 514.127" stroke="black" stroke-opacity="0.5" stroke-width="3" stroke-linecap="round"/>
<path d="M462.058 512.314C462.058 508.532 462.623 505.148 463.417 501.439C463.787 499.715 463.92 496.623 464.978 495.095C464.984 495.087 466.566 503.156 466.69 503.805C467.172 506.319 469.54 522.743 473.135 515.939C476.011 510.494 478.953 504.952 481.996 499.627" stroke="black" stroke-opacity="0.5" stroke-width="3" stroke-linecap="round"/>
<path d="M488.34 502.345C486.761 505.216 482.53 511.183 485.268 514.529C488.443 518.41 489.872 512.247 490.605 510.049C492.775 503.539 489.124 498.843 483.808 504.158" stroke="black" stroke-opacity="0.5" stroke-width="3" stroke-linecap="round"/>
<path d="M498.309 497.814C498.309 504.999 498.858 511.55 501.883 518.104C502.93 520.373 503.033 513.355 504.25 511.106C508.252 503.708 507.11 517.201 510.241 512.818C515.831 504.991 518.673 494.669 525.496 487.845" stroke="black" stroke-opacity="0.5" stroke-width="3" stroke-linecap="round"/>
<path d="M548.153 511.408C551.31 511.057 555.422 498.756 557.014 496.203C558.22 494.27 560.442 488.068 561.747 492.779C562.483 495.438 562.964 498.154 563.559 500.835C564.119 503.355 565.722 496.14 566.983 493.887C568.062 491.961 569.818 488.255 570.809 492.276C572.485 499.071 572.622 506.251 572.622 513.22" stroke="black" stroke-opacity="0.5" stroke-width="3" stroke-linecap="round"/>
<path d="M579.872 489.658C582.975 492.761 586.912 499.711 591.653 497.814" stroke="black" stroke-opacity="0.5" stroke-width="3" stroke-linecap="round"/>
<path d="M594.372 488.751C590.459 490.056 586.749 505.171 585.712 508.387C583.506 515.231 580.778 523.132 580.778 530.439" stroke="black" stroke-opacity="0.5" stroke-width="3" stroke-linecap="round"/>
<path d="M343.338 532.252C343.183 535.194 341.986 537.854 341.022 540.61C338.39 548.128 336.915 555.867 335.383 563.669C335.145 564.882 332.463 583.929 332.463 574.846" stroke="black" stroke-opacity="0.5" stroke-width="3" stroke-linecap="round"/>
<path d="M340.619 544.94C340.927 542.475 343.434 547.351 343.539 547.558C345.472 551.379 348.292 556.442 348.373 560.85C348.476 566.514 340.85 574.994 336.994 577.565" stroke="black" stroke-opacity="0.5" stroke-width="3" stroke-linecap="round"/>
<path d="M356.932 551.283C356.519 556.645 354.743 561.98 353.508 567.193C352.406 571.845 352.501 562.555 352.4 561.252" stroke="black" stroke-opacity="0.5" stroke-width="3" stroke-linecap="round"/>
<path d="M358.744 547.658C368.426 547.658 361.141 556.861 357.435 559.893C351.7 564.585 368.713 568.485 368.713 574.846" stroke="black" stroke-opacity="0.5" stroke-width="3" stroke-linecap="round"/>
<path d="M369.619 547.658C376.945 546.844 383.953 548.894 391.37 550.377" stroke="black" stroke-opacity="0.5" stroke-width="3" stroke-linecap="round"/>
<path d="M372.338 547.658C369.89 549.019 369.812 560.871 371.986 562.561C374.523 564.535 379.69 564.374 382.307 563.065" stroke="black" stroke-opacity="0.5" stroke-width="3" stroke-linecap="round"/>
<path d="M364.182 558.534C370.3 556.494 379.393 558.534 385.932 558.534" stroke="black" stroke-opacity="0.5" stroke-width="3" stroke-linecap="round"/>
<path d="M389.557 565.784C389.557 569.653 389.539 566.961 390.061 564.726C391.485 558.622 393.281 553.205 396.304 547.709C400.097 540.812 400.141 555.041 400.432 557.527C401.062 562.898 401.741 567.798 400.432 573.034" stroke="black" stroke-opacity="0.5" stroke-width="3" stroke-linecap="round"/>
<path d="M387.745 564.877C392.79 562.074 396.448 562.159 402.245 562.159" stroke="black" stroke-opacity="0.5" stroke-width="3" stroke-linecap="round"/>
<path d="M407.682 573.034C407.721 573.687 408.459 576.648 408.589 574.443C408.797 570.907 407.991 568.19 407.833 564.726C407.624 560.109 409.261 556.19 412.012 552.592C413.987 550.01 415.062 560.14 415.335 561.504C415.789 563.774 416.092 569.111 418.608 565.179C419.36 564.004 423.777 554.902 424.901 559.339C426.44 565.407 425.419 572.993 424.499 579.126C424.208 581.064 424.901 579.422 424.901 578.471" stroke="black" stroke-opacity="0.5" stroke-width="3" stroke-linecap="round"/>
<path d="M441.214 554.908C438.286 555.071 434.44 556.481 432.705 558.987C430.354 562.382 439.661 567.05 441.516 568.905C450.55 577.939 427.739 577.565 423.995 577.565" stroke="black" stroke-opacity="0.5" stroke-width="3" stroke-linecap="round"/>
<path d="M477.465 544.94C477.465 554.579 475.426 566.401 477.515 575.803C478.111 578.485 478.87 570.477 479.478 567.798C479.619 567.177 480.94 558.825 481.996 558.936C483.433 559.088 488.812 569.986 489.246 569.66C490.644 568.612 490.871 562.809 491.26 561.252C492.187 557.544 493.346 553.944 494.683 550.377" stroke="black" stroke-opacity="0.5" stroke-width="3" stroke-linecap="round"/>
<path d="M501.027 545.846C498.91 552.669 495.673 562.491 497.402 569.409" stroke="black" stroke-opacity="0.5" stroke-width="3" stroke-linecap="round"/>
<path d="M509.184 546.752C508.944 549.51 502.033 570.818 506.666 570.818C508.709 570.818 510.558 568.706 512.859 568.553C515.359 568.386 517.636 568.202 520.059 567.596" stroke="black" stroke-opacity="0.5" stroke-width="3" stroke-linecap="round"/>
<path d="M524.59 546.752C524.079 552.892 522 561.023 523.734 567.093C524.002 568.031 539.628 562.522 541.809 562.159" stroke="black" stroke-opacity="0.5" stroke-width="3" stroke-linecap="round"/>
<path d="M573.528 542.221C572.384 550.233 569.886 557.933 568.997 566.086C568.548 570.201 568.091 582.611 568.091 578.471" stroke="black" stroke-opacity="0.5" stroke-width="3" stroke-linecap="round"/>
<path d="M564.466 564.877C569.84 564.877 571.498 566.627 576.247 563.065" stroke="black" stroke-opacity="0.5" stroke-width="3" stroke-linecap="round"/>
<path d="M578.06 551.283C578.06 560.124 576.247 568.839 576.247 577.565" stroke="black" stroke-opacity="0.5" stroke-width="3" stroke-linecap="round"/>
<path d="M588.028 562.159C582.559 564.346 582.094 580.68 590.193 572.581C594.689 568.085 589.517 557.045 584.403 562.159" stroke="black" stroke-opacity="0.5" stroke-width="3" stroke-linecap="round"/>
<path d="M600.716 554.002C599.439 555.919 596.395 572.64 597.595 572.983C600.944 573.94 608.386 572.29 611.591 571.221" stroke="black" stroke-opacity="0.5" stroke-width="3" stroke-linecap="round"/>
<path d="M612.498 544.033C612.329 554.674 608.872 586.394 608.872 575.752" stroke="black" stroke-opacity="0.5" stroke-width="3" stroke-linecap="round"/>
<path d="M614.31 548.565C617.154 548.881 622.054 558.673 621.359 561.454C619.752 567.881 611.566 574.863 606.154 578.471" stroke="black" stroke-opacity="0.5" stroke-width="3" stroke-linecap="round"/>
<path d="M645.123 547.658C644.389 557.195 642.303 567.244 640.592 576.659" stroke="black" stroke-opacity="0.5" stroke-width="3" stroke-linecap="round"/>
<path d="M645.123 543.127C646.355 546.138 648.47 554.872 651.467 556.52C653.473 557.623 656.457 551.198 656.904 549.974C659.963 541.604 657.38 552.302 656.703 555.211C654.322 565.437 650.621 575.421 648.748 585.721" stroke="black" stroke-opacity="0.5" stroke-width="3" stroke-linecap="round"/>
<path d="M657.811 554.002C658.721 550.359 676.423 552.19 679.561 552.19" stroke="black" stroke-opacity="0.5" stroke-width="3" stroke-linecap="round"/>
<path d="M668.686 552.19C667.542 555.366 662.108 562.029 666.873 564.676C671.532 567.264 678.145 563.625 683.186 563.065" stroke="black" stroke-opacity="0.5" stroke-width="3" stroke-linecap="round"/>
<path d="M665.967 557.627C670.501 557.627 674.309 556.901 678.655 555.815" stroke="black" stroke-opacity="0.5" stroke-width="3" stroke-linecap="round"/>
<path d="M526.403 583.909C523.937 595.687 521.408 607.438 518.901 619.203C518.562 620.794 519.191 627.466 517.34 624.691" stroke="black" stroke-opacity="0.5" stroke-width="3" stroke-linecap="round"/>
<path d="M519.153 614.722C522.752 614.722 535.89 614.778 537.278 612.003" stroke="black" stroke-opacity="0.5" stroke-width="3" stroke-linecap="round"/>
<path d="M535.465 605.659C533.412 606.686 535.055 615.575 534.962 617.491C534.78 621.256 535.432 625.732 534.559 629.222" stroke="black" stroke-opacity="0.5" stroke-width="3" stroke-linecap="round"/>
<path d="M549.965 610.19C544.235 611.337 539.115 629.302 545.535 626.805C552.083 624.259 555.349 610.35 548.153 607.472" stroke="black" stroke-opacity="0.5" stroke-width="3" stroke-linecap="round"/>
<path d="M575.341 604.753C570.613 604.753 567.261 606.513 562.653 607.925C555.958 609.977 552.407 611.704 559.229 615.829C561.283 617.071 565.036 618.586 563.006 621.519C562.098 622.829 558.339 626.938 557.216 624.691" stroke="black" stroke-opacity="0.5" stroke-width="3" stroke-linecap="round"/>
<path d="M570.81 612.003C580.835 610.332 590.191 605.659 600.716 605.659" stroke="black" stroke-opacity="0.5" stroke-width="3" stroke-linecap="round"/>
<path d="M592.56 605.659C587.164 611.623 585.31 622.197 585.31 630.128" stroke="black" stroke-opacity="0.5" stroke-width="3" stroke-linecap="round"/>
<path d="M601.622 631.034C598.719 624.26 602.272 617.247 604.341 610.694C604.464 610.306 608.212 597.73 610.182 600.826C611.27 602.536 611.236 605.734 611.692 607.623C612.751 612.009 614.485 616.139 615.72 620.461C616.358 622.697 616.123 625.107 616.123 627.409" stroke="black" stroke-opacity="0.5" stroke-width="3" stroke-linecap="round"/>
<path d="M606.154 619.253C611.374 619.004 616.402 616.534 621.56 616.534" stroke="black" stroke-opacity="0.5" stroke-width="3" stroke-linecap="round"/>
<path d="M637.873 606.565C634.075 607.236 626.522 607.943 624.682 612.204C623.357 615.272 626.495 620.484 628.76 622.324C632.633 625.472 637.307 617.499 633.342 615.829C632.892 615.64 629.148 615.467 629.918 616.333C632.278 618.988 640.449 615.009 643.008 614.369C651.193 612.323 639.015 631.507 640.592 634.66" stroke="black" stroke-opacity="0.5" stroke-width="3" stroke-linecap="round"/>
<path d="M651.467 606.565C657.41 604.018 664.235 602.694 670.498 601.128" stroke="black" stroke-opacity="0.5" stroke-width="3" stroke-linecap="round"/>
<path d="M655.998 603.847C653.977 609.91 651.243 617.597 652.423 624.086C652.556 624.817 663.255 620.52 665.061 620.159" stroke="black" stroke-opacity="0.5" stroke-width="3" stroke-linecap="round"/>
<path d="M651.467 614.722C660.447 614.722 669.004 611.097 677.748 611.097" stroke="black" stroke-opacity="0.5" stroke-width="3" stroke-linecap="round"/>
<path d="M722.024 567.993C723.616 563.75 735.123 569.325 736.827 571.165C740.622 575.263 738.441 579.519 735.669 583.651C730.381 591.53 724.086 599.63 717.644 606.61C712.136 612.577 705.34 611.913 699.368 616.226C696.355 618.402 696.529 620.196 697.555 623.275" stroke="black" stroke-opacity="0.5" stroke-width="3" stroke-linecap="round"/>
<path d="M688.493 644.119C686.882 642.048 691.22 639.092 692.823 640.695C695.219 643.091 687.71 644.119 686.68 644.119" stroke="black" stroke-opacity="0.5" stroke-width="3" stroke-linecap="round"/>
</svg>
