<svg width="1024" height="1024" viewBox="0 0 1024 1024" fill="none" xmlns="http://www.w3.org/2000/svg">
<path d="M348.909 483.091V468.091H350.529V469.824H350.727C350.851 469.634 351.021 469.393 351.239 469.099C351.461 468.801 351.779 468.536 352.19 468.304C352.607 468.067 353.171 467.949 353.881 467.949C354.799 467.949 355.609 468.179 356.31 468.638C357.011 469.097 357.557 469.748 357.95 470.591C358.343 471.434 358.54 472.428 358.54 473.574C358.54 474.729 358.343 475.731 357.95 476.578C357.557 477.421 357.013 478.074 356.317 478.538C355.621 478.998 354.818 479.227 353.909 479.227C353.208 479.227 352.647 479.111 352.226 478.879C351.805 478.643 351.48 478.375 351.253 478.077C351.026 477.774 350.851 477.523 350.727 477.324H350.585V483.091H348.909ZM350.557 473.545C350.557 474.369 350.678 475.096 350.919 475.726C351.161 476.351 351.513 476.841 351.977 477.196C352.441 477.546 353.01 477.722 353.682 477.722C354.383 477.722 354.967 477.537 355.436 477.168C355.91 476.794 356.265 476.292 356.502 475.662C356.743 475.027 356.864 474.322 356.864 473.545C356.864 472.778 356.745 472.087 356.509 471.472C356.277 470.851 355.924 470.361 355.45 470.001C354.982 469.637 354.392 469.455 353.682 469.455C353 469.455 352.427 469.627 351.963 469.973C351.499 470.314 351.149 470.792 350.912 471.408C350.675 472.018 350.557 472.731 350.557 473.545ZM362.773 464.455V479H361.097V464.455H362.773ZM370.417 479.227C369.366 479.227 368.459 478.995 367.696 478.531C366.939 478.062 366.354 477.409 365.942 476.571C365.535 475.728 365.331 474.748 365.331 473.631C365.331 472.513 365.535 471.528 365.942 470.676C366.354 469.819 366.927 469.152 367.661 468.673C368.4 468.19 369.261 467.949 370.246 467.949C370.814 467.949 371.375 468.044 371.929 468.233C372.483 468.422 372.988 468.73 373.442 469.156C373.897 469.578 374.259 470.136 374.529 470.832C374.799 471.528 374.934 472.385 374.934 473.403V474.114H366.525V472.665H373.229C373.229 472.049 373.106 471.5 372.86 471.017C372.618 470.534 372.273 470.153 371.823 469.874C371.378 469.594 370.852 469.455 370.246 469.455C369.579 469.455 369.001 469.62 368.513 469.952C368.03 470.278 367.659 470.705 367.398 471.23C367.138 471.756 367.008 472.319 367.008 472.92V473.886C367.008 474.71 367.15 475.409 367.434 475.982C367.723 476.55 368.123 476.983 368.634 477.281C369.145 477.575 369.74 477.722 370.417 477.722C370.857 477.722 371.255 477.66 371.61 477.537C371.97 477.409 372.28 477.22 372.54 476.969C372.801 476.713 373.002 476.396 373.144 476.017L374.763 476.472C374.593 477.021 374.306 477.504 373.904 477.92C373.501 478.332 373.004 478.654 372.412 478.886C371.821 479.114 371.155 479.227 370.417 479.227ZM380.694 479.256C380.002 479.256 379.375 479.125 378.812 478.865C378.248 478.6 377.801 478.219 377.469 477.722C377.138 477.22 376.972 476.614 376.972 475.903C376.972 475.278 377.095 474.772 377.341 474.384C377.588 473.991 377.917 473.683 378.329 473.46C378.741 473.238 379.195 473.072 379.692 472.963C380.194 472.849 380.698 472.759 381.205 472.693C381.868 472.608 382.405 472.544 382.817 472.501C383.234 472.454 383.537 472.376 383.726 472.267C383.92 472.158 384.018 471.969 384.018 471.699V471.642C384.018 470.941 383.826 470.397 383.442 470.009C383.063 469.62 382.488 469.426 381.716 469.426C380.916 469.426 380.289 469.601 379.834 469.952C379.38 470.302 379.06 470.676 378.875 471.074L377.285 470.506C377.569 469.843 377.947 469.327 378.421 468.957C378.899 468.583 379.42 468.323 379.983 468.176C380.552 468.025 381.11 467.949 381.66 467.949C382.01 467.949 382.412 467.991 382.867 468.077C383.326 468.157 383.769 468.325 384.195 468.581C384.626 468.837 384.983 469.223 385.268 469.739C385.552 470.255 385.694 470.946 385.694 471.812V479H384.018V477.523H383.932C383.819 477.759 383.629 478.013 383.364 478.283C383.099 478.553 382.746 478.782 382.306 478.972C381.866 479.161 381.328 479.256 380.694 479.256ZM380.949 477.75C381.612 477.75 382.171 477.62 382.625 477.359C383.085 477.099 383.43 476.763 383.662 476.351C383.899 475.939 384.018 475.506 384.018 475.051V473.517C383.947 473.602 383.79 473.68 383.549 473.751C383.312 473.818 383.037 473.877 382.725 473.929C382.417 473.976 382.116 474.019 381.823 474.057C381.534 474.09 381.3 474.118 381.12 474.142C380.684 474.199 380.277 474.291 379.898 474.419C379.524 474.542 379.221 474.729 378.989 474.98C378.762 475.226 378.648 475.562 378.648 475.989C378.648 476.571 378.864 477.011 379.295 477.31C379.73 477.603 380.282 477.75 380.949 477.75ZM396.48 470.534L394.975 470.96C394.88 470.709 394.74 470.465 394.556 470.229C394.376 469.987 394.129 469.788 393.817 469.632C393.504 469.476 393.104 469.398 392.617 469.398C391.949 469.398 391.393 469.552 390.948 469.859C390.507 470.162 390.287 470.548 390.287 471.017C390.287 471.434 390.439 471.763 390.742 472.004C391.045 472.246 391.518 472.447 392.162 472.608L393.781 473.006C394.757 473.242 395.484 473.605 395.962 474.092C396.44 474.575 396.679 475.198 396.679 475.96C396.679 476.585 396.499 477.144 396.139 477.636C395.784 478.129 395.287 478.517 394.648 478.801C394.009 479.085 393.265 479.227 392.418 479.227C391.305 479.227 390.384 478.986 389.655 478.503C388.926 478.02 388.464 477.314 388.27 476.386L389.861 475.989C390.012 476.576 390.299 477.016 390.72 477.31C391.146 477.603 391.703 477.75 392.389 477.75C393.171 477.75 393.791 477.584 394.25 477.253C394.714 476.917 394.946 476.514 394.946 476.045C394.946 475.667 394.814 475.349 394.548 475.094C394.283 474.833 393.876 474.639 393.327 474.511L391.509 474.085C390.51 473.848 389.776 473.482 389.307 472.984C388.843 472.482 388.611 471.855 388.611 471.102C388.611 470.487 388.784 469.942 389.129 469.469C389.48 468.995 389.956 468.624 390.557 468.354C391.163 468.084 391.85 467.949 392.617 467.949C393.696 467.949 394.544 468.186 395.159 468.659C395.779 469.133 396.22 469.758 396.48 470.534ZM403.776 479.227C402.725 479.227 401.818 478.995 401.056 478.531C400.298 478.062 399.714 477.409 399.302 476.571C398.894 475.728 398.691 474.748 398.691 473.631C398.691 472.513 398.894 471.528 399.302 470.676C399.714 469.819 400.286 469.152 401.02 468.673C401.759 468.19 402.621 467.949 403.606 467.949C404.174 467.949 404.735 468.044 405.289 468.233C405.843 468.422 406.347 468.73 406.802 469.156C407.256 469.578 407.618 470.136 407.888 470.832C408.158 471.528 408.293 472.385 408.293 473.403V474.114H399.884V472.665H406.589C406.589 472.049 406.465 471.5 406.219 471.017C405.978 470.534 405.632 470.153 405.182 469.874C404.737 469.594 404.212 469.455 403.606 469.455C402.938 469.455 402.36 469.62 401.873 469.952C401.39 470.278 401.018 470.705 400.758 471.23C400.497 471.756 400.367 472.319 400.367 472.92V473.886C400.367 474.71 400.509 475.409 400.793 475.982C401.082 476.55 401.482 476.983 401.993 477.281C402.505 477.575 403.099 477.722 403.776 477.722C404.216 477.722 404.614 477.66 404.969 477.537C405.329 477.409 405.639 477.22 405.9 476.969C406.16 476.713 406.361 476.396 406.503 476.017L408.123 476.472C407.952 477.021 407.666 477.504 407.263 477.92C406.861 478.332 406.364 478.654 405.772 478.886C405.18 479.114 404.515 479.227 403.776 479.227ZM418.939 479L415.616 468.091H417.377L419.735 476.443H419.848L422.178 468.091H423.968L426.269 476.415H426.383L428.741 468.091H430.502L427.178 479H425.53L423.144 470.619H422.973L420.587 479H418.939ZM432.718 479V468.091H434.337V469.739H434.451C434.65 469.199 435.009 468.761 435.53 468.425C436.051 468.089 436.638 467.92 437.292 467.92C437.415 467.92 437.569 467.923 437.753 467.928C437.938 467.932 438.078 467.939 438.172 467.949V469.653C438.116 469.639 437.985 469.618 437.782 469.589C437.583 469.556 437.372 469.54 437.15 469.54C436.619 469.54 436.146 469.651 435.729 469.874C435.317 470.091 434.991 470.394 434.749 470.783C434.512 471.166 434.394 471.604 434.394 472.097V479H432.718ZM440.159 479V468.091H441.835V479H440.159ZM441.011 466.273C440.685 466.273 440.403 466.161 440.166 465.939C439.934 465.716 439.818 465.449 439.818 465.136C439.818 464.824 439.934 464.556 440.166 464.334C440.403 464.111 440.685 464 441.011 464C441.338 464 441.618 464.111 441.85 464.334C442.086 464.556 442.205 464.824 442.205 465.136C442.205 465.449 442.086 465.716 441.85 465.939C441.618 466.161 441.338 466.273 441.011 466.273ZM449.65 468.091V469.511H443.996V468.091H449.65ZM445.644 465.477H447.32V475.875C447.32 476.348 447.389 476.704 447.526 476.94C447.668 477.172 447.848 477.329 448.066 477.409C448.288 477.485 448.523 477.523 448.769 477.523C448.954 477.523 449.105 477.513 449.223 477.494C449.342 477.471 449.437 477.452 449.508 477.438L449.848 478.943C449.735 478.986 449.576 479.028 449.373 479.071C449.169 479.118 448.911 479.142 448.598 479.142C448.125 479.142 447.661 479.04 447.206 478.837C446.757 478.633 446.383 478.323 446.084 477.906C445.791 477.49 445.644 476.964 445.644 476.33V465.477ZM456.628 479.227C455.576 479.227 454.67 478.995 453.907 478.531C453.15 478.062 452.565 477.409 452.153 476.571C451.746 475.728 451.542 474.748 451.542 473.631C451.542 472.513 451.746 471.528 452.153 470.676C452.565 469.819 453.138 469.152 453.872 468.673C454.611 468.19 455.472 467.949 456.457 467.949C457.025 467.949 457.586 468.044 458.14 468.233C458.694 468.422 459.199 468.73 459.653 469.156C460.108 469.578 460.47 470.136 460.74 470.832C461.01 471.528 461.145 472.385 461.145 473.403V474.114H452.736V472.665H459.44C459.44 472.049 459.317 471.5 459.071 471.017C458.829 470.534 458.484 470.153 458.034 469.874C457.589 469.594 457.063 469.455 456.457 469.455C455.79 469.455 455.212 469.62 454.724 469.952C454.241 470.278 453.87 470.705 453.609 471.23C453.349 471.756 453.219 472.319 453.219 472.92V473.886C453.219 474.71 453.361 475.409 453.645 475.982C453.933 476.55 454.334 476.983 454.845 477.281C455.356 477.575 455.951 477.722 456.628 477.722C457.068 477.722 457.466 477.66 457.821 477.537C458.181 477.409 458.491 477.22 458.751 476.969C459.012 476.713 459.213 476.396 459.355 476.017L460.974 476.472C460.804 477.021 460.517 477.504 460.115 477.92C459.712 478.332 459.215 478.654 458.623 478.886C458.031 479.114 457.366 479.227 456.628 479.227ZM470.399 483.091C470.115 483.091 469.862 483.067 469.639 483.02C469.416 482.977 469.263 482.935 469.177 482.892L469.603 481.415C470.011 481.519 470.371 481.557 470.683 481.528C470.996 481.5 471.272 481.36 471.514 481.109C471.76 480.863 471.985 480.463 472.189 479.909L472.501 479.057L468.467 468.091H470.285L473.297 476.784H473.41L476.422 468.091H478.24L473.609 480.591C473.401 481.154 473.143 481.621 472.835 481.99C472.527 482.364 472.17 482.641 471.763 482.821C471.36 483.001 470.906 483.091 470.399 483.091ZM484.493 479.227C483.509 479.227 482.644 478.993 481.901 478.524C481.162 478.055 480.585 477.4 480.168 476.557C479.756 475.714 479.55 474.729 479.55 473.602C479.55 472.466 479.756 471.474 480.168 470.626C480.585 469.779 481.162 469.121 481.901 468.652C482.644 468.183 483.509 467.949 484.493 467.949C485.478 467.949 486.34 468.183 487.079 468.652C487.822 469.121 488.4 469.779 488.812 470.626C489.228 471.474 489.437 472.466 489.437 473.602C489.437 474.729 489.228 475.714 488.812 476.557C488.4 477.4 487.822 478.055 487.079 478.524C486.34 478.993 485.478 479.227 484.493 479.227ZM484.493 477.722C485.241 477.722 485.857 477.53 486.34 477.146C486.823 476.763 487.18 476.259 487.412 475.634C487.644 475.009 487.76 474.331 487.76 473.602C487.76 472.873 487.644 472.194 487.412 471.564C487.18 470.934 486.823 470.425 486.34 470.037C485.857 469.649 485.241 469.455 484.493 469.455C483.745 469.455 483.13 469.649 482.647 470.037C482.164 470.425 481.806 470.934 481.574 471.564C481.342 472.194 481.226 472.873 481.226 473.602C481.226 474.331 481.342 475.009 481.574 475.634C481.806 476.259 482.164 476.763 482.647 477.146C483.13 477.53 483.745 477.722 484.493 477.722ZM498.87 474.54V468.091H500.546V479H498.87V477.153H498.757C498.501 477.707 498.103 478.179 497.563 478.567C497.024 478.95 496.342 479.142 495.518 479.142C494.836 479.142 494.23 478.993 493.7 478.695C493.169 478.392 492.753 477.937 492.45 477.331C492.147 476.72 491.995 475.951 491.995 475.023V468.091H493.671V474.909C493.671 475.705 493.894 476.339 494.339 476.812C494.789 477.286 495.362 477.523 496.058 477.523C496.474 477.523 496.898 477.416 497.329 477.203C497.765 476.99 498.129 476.663 498.423 476.223C498.721 475.783 498.87 475.222 498.87 474.54ZM503.616 479V468.091H505.236V469.739H505.349C505.548 469.199 505.908 468.761 506.429 468.425C506.95 468.089 507.537 467.92 508.19 467.92C508.313 467.92 508.467 467.923 508.652 467.928C508.836 467.932 508.976 467.939 509.071 467.949V469.653C509.014 469.639 508.884 469.618 508.68 469.589C508.481 469.556 508.271 469.54 508.048 469.54C507.518 469.54 507.044 469.651 506.628 469.874C506.216 470.091 505.889 470.394 505.647 470.783C505.411 471.166 505.292 471.604 505.292 472.097V479H503.616ZM518.359 472.438V479H516.683V468.091H518.302V469.795H518.444C518.7 469.241 519.088 468.796 519.609 468.46C520.13 468.119 520.802 467.949 521.626 467.949C522.364 467.949 523.011 468.1 523.565 468.403C524.119 468.702 524.55 469.156 524.857 469.767C525.165 470.373 525.319 471.14 525.319 472.068V479H523.643V472.182C523.643 471.325 523.42 470.657 522.975 470.179C522.53 469.696 521.919 469.455 521.143 469.455C520.608 469.455 520.13 469.571 519.708 469.803C519.292 470.035 518.962 470.373 518.721 470.818C518.48 471.263 518.359 471.803 518.359 472.438ZM531.592 479.256C530.901 479.256 530.273 479.125 529.71 478.865C529.147 478.6 528.699 478.219 528.368 477.722C528.036 477.22 527.871 476.614 527.871 475.903C527.871 475.278 527.994 474.772 528.24 474.384C528.486 473.991 528.815 473.683 529.227 473.46C529.639 473.238 530.094 473.072 530.591 472.963C531.093 472.849 531.597 472.759 532.103 472.693C532.766 472.608 533.304 472.544 533.716 472.501C534.132 472.454 534.435 472.376 534.625 472.267C534.819 472.158 534.916 471.969 534.916 471.699V471.642C534.916 470.941 534.724 470.397 534.341 470.009C533.962 469.62 533.387 469.426 532.615 469.426C531.815 469.426 531.187 469.601 530.733 469.952C530.278 470.302 529.959 470.676 529.774 471.074L528.183 470.506C528.467 469.843 528.846 469.327 529.319 468.957C529.798 468.583 530.318 468.323 530.882 468.176C531.45 468.025 532.009 467.949 532.558 467.949C532.908 467.949 533.311 467.991 533.765 468.077C534.225 468.157 534.667 468.325 535.094 468.581C535.524 468.837 535.882 469.223 536.166 469.739C536.45 470.255 536.592 470.946 536.592 471.812V479H534.916V477.523H534.831C534.717 477.759 534.528 478.013 534.263 478.283C533.997 478.553 533.645 478.782 533.204 478.972C532.764 479.161 532.227 479.256 531.592 479.256ZM531.848 477.75C532.511 477.75 533.069 477.62 533.524 477.359C533.983 477.099 534.329 476.763 534.561 476.351C534.798 475.939 534.916 475.506 534.916 475.051V473.517C534.845 473.602 534.689 473.68 534.447 473.751C534.21 473.818 533.936 473.877 533.623 473.929C533.316 473.976 533.015 474.019 532.721 474.057C532.433 474.09 532.198 474.118 532.018 474.142C531.583 474.199 531.175 474.291 530.797 474.419C530.423 474.542 530.12 474.729 529.888 474.98C529.66 475.226 529.547 475.562 529.547 475.989C529.547 476.571 529.762 477.011 530.193 477.31C530.629 477.603 531.18 477.75 531.848 477.75ZM539.651 479V468.091H541.271V469.795H541.413C541.64 469.213 542.007 468.761 542.514 468.439C543.02 468.112 543.629 467.949 544.339 467.949C545.059 467.949 545.658 468.112 546.136 468.439C546.619 468.761 546.995 469.213 547.265 469.795H547.379C547.658 469.232 548.077 468.785 548.636 468.453C549.194 468.117 549.864 467.949 550.646 467.949C551.621 467.949 552.419 468.254 553.039 468.865C553.659 469.471 553.97 470.416 553.97 471.699V479H552.293V471.699C552.293 470.894 552.073 470.319 551.633 469.973C551.193 469.627 550.674 469.455 550.078 469.455C549.31 469.455 548.716 469.687 548.295 470.151C547.873 470.61 547.663 471.192 547.663 471.898V479H545.958V471.528C545.958 470.908 545.757 470.409 545.355 470.03C544.952 469.646 544.434 469.455 543.799 469.455C543.364 469.455 542.956 469.571 542.578 469.803C542.203 470.035 541.9 470.357 541.668 470.768C541.441 471.176 541.328 471.647 541.328 472.182V479H539.651ZM561.608 479.227C560.557 479.227 559.65 478.995 558.888 478.531C558.13 478.062 557.546 477.409 557.134 476.571C556.726 475.728 556.523 474.748 556.523 473.631C556.523 472.513 556.726 471.528 557.134 470.676C557.546 469.819 558.118 469.152 558.852 468.673C559.591 468.19 560.453 467.949 561.438 467.949C562.006 467.949 562.567 468.044 563.121 468.233C563.675 468.422 564.179 468.73 564.634 469.156C565.088 469.578 565.45 470.136 565.72 470.832C565.99 471.528 566.125 472.385 566.125 473.403V474.114H557.716V472.665H564.421C564.421 472.049 564.297 471.5 564.051 471.017C563.81 470.534 563.464 470.153 563.014 469.874C562.569 469.594 562.044 469.455 561.438 469.455C560.77 469.455 560.192 469.62 559.705 469.952C559.222 470.278 558.85 470.705 558.59 471.23C558.329 471.756 558.199 472.319 558.199 472.92V473.886C558.199 474.71 558.341 475.409 558.625 475.982C558.914 476.55 559.314 476.983 559.825 477.281C560.337 477.575 560.931 477.722 561.608 477.722C562.048 477.722 562.446 477.66 562.801 477.537C563.161 477.409 563.471 477.22 563.732 476.969C563.992 476.713 564.193 476.396 564.335 476.017L565.955 476.472C565.784 477.021 565.498 477.504 565.095 477.92C564.693 478.332 564.196 478.654 563.604 478.886C563.012 479.114 562.347 479.227 561.608 479.227ZM575.976 472.438V479H574.3V464.455H575.976V469.795H576.118C576.374 469.232 576.757 468.785 577.269 468.453C577.785 468.117 578.471 467.949 579.328 467.949C580.072 467.949 580.723 468.098 581.281 468.396C581.84 468.69 582.273 469.142 582.581 469.753C582.894 470.359 583.05 471.131 583.05 472.068V479H581.374V472.182C581.374 471.315 581.149 470.645 580.699 470.172C580.254 469.694 579.636 469.455 578.845 469.455C578.296 469.455 577.804 469.571 577.368 469.803C576.937 470.035 576.596 470.373 576.345 470.818C576.099 471.263 575.976 471.803 575.976 472.438ZM590.69 479.227C589.639 479.227 588.732 478.995 587.97 478.531C587.212 478.062 586.628 477.409 586.216 476.571C585.808 475.728 585.605 474.748 585.605 473.631C585.605 472.513 585.808 471.528 586.216 470.676C586.628 469.819 587.201 469.152 587.934 468.673C588.673 468.19 589.535 467.949 590.52 467.949C591.088 467.949 591.649 468.044 592.203 468.233C592.757 468.422 593.261 468.73 593.716 469.156C594.17 469.578 594.532 470.136 594.802 470.832C595.072 471.528 595.207 472.385 595.207 473.403V474.114H586.798V472.665H593.503C593.503 472.049 593.38 471.5 593.133 471.017C592.892 470.534 592.546 470.153 592.096 469.874C591.651 469.594 591.126 469.455 590.52 469.455C589.852 469.455 589.274 469.62 588.787 469.952C588.304 470.278 587.932 470.705 587.672 471.23C587.411 471.756 587.281 472.319 587.281 472.92V473.886C587.281 474.71 587.423 475.409 587.707 475.982C587.996 476.55 588.396 476.983 588.907 477.281C589.419 477.575 590.013 477.722 590.69 477.722C591.13 477.722 591.528 477.66 591.883 477.537C592.243 477.409 592.553 477.22 592.814 476.969C593.074 476.713 593.275 476.396 593.417 476.017L595.037 476.472C594.866 477.021 594.58 477.504 594.177 477.92C593.775 478.332 593.278 478.654 592.686 478.886C592.094 479.114 591.429 479.227 590.69 479.227ZM597.757 479V468.091H599.376V469.739H599.49C599.689 469.199 600.049 468.761 600.569 468.425C601.09 468.089 601.677 467.92 602.331 467.92C602.454 467.92 602.608 467.923 602.792 467.928C602.977 467.932 603.117 467.939 603.211 467.949V469.653C603.155 469.639 603.024 469.618 602.821 469.589C602.622 469.556 602.411 469.54 602.189 469.54C601.658 469.54 601.185 469.651 600.768 469.874C600.356 470.091 600.03 470.394 599.788 470.783C599.551 471.166 599.433 471.604 599.433 472.097V479H597.757ZM609.44 479.227C608.389 479.227 607.482 478.995 606.72 478.531C605.962 478.062 605.378 477.409 604.966 476.571C604.558 475.728 604.355 474.748 604.355 473.631C604.355 472.513 604.558 471.528 604.966 470.676C605.378 469.819 605.951 469.152 606.684 468.673C607.423 468.19 608.285 467.949 609.27 467.949C609.838 467.949 610.399 468.044 610.953 468.233C611.507 468.422 612.011 468.73 612.466 469.156C612.92 469.578 613.282 470.136 613.552 470.832C613.822 471.528 613.957 472.385 613.957 473.403V474.114H605.548V472.665H612.253C612.253 472.049 612.13 471.5 611.883 471.017C611.642 470.534 611.296 470.153 610.846 469.874C610.401 469.594 609.876 469.455 609.27 469.455C608.602 469.455 608.024 469.62 607.537 469.952C607.054 470.278 606.682 470.705 606.422 471.23C606.161 471.756 606.031 472.319 606.031 472.92V473.886C606.031 474.71 606.173 475.409 606.457 475.982C606.746 476.55 607.146 476.983 607.657 477.281C608.169 477.575 608.763 477.722 609.44 477.722C609.88 477.722 610.278 477.66 610.633 477.537C610.993 477.409 611.303 477.22 611.564 476.969C611.824 476.713 612.025 476.396 612.167 476.017L613.787 476.472C613.616 477.021 613.33 477.504 612.927 477.92C612.525 478.332 612.028 478.654 611.436 478.886C610.844 479.114 610.179 479.227 609.44 479.227ZM617.728 479.114C617.378 479.114 617.077 478.988 616.826 478.737C616.576 478.486 616.45 478.186 616.45 477.835C616.45 477.485 616.576 477.184 616.826 476.933C617.077 476.682 617.378 476.557 617.728 476.557C618.079 476.557 618.38 476.682 618.63 476.933C618.881 477.184 619.007 477.485 619.007 477.835C619.007 478.067 618.948 478.28 618.829 478.474C618.716 478.669 618.562 478.825 618.368 478.943C618.178 479.057 617.965 479.114 617.728 479.114ZM617.728 471.017C617.378 471.017 617.077 470.892 616.826 470.641C616.576 470.39 616.45 470.089 616.45 469.739C616.45 469.388 616.576 469.088 616.826 468.837C617.077 468.586 617.378 468.46 617.728 468.46C618.079 468.46 618.38 468.586 618.63 468.837C618.881 469.088 619.007 469.388 619.007 469.739C619.007 469.971 618.948 470.184 618.829 470.378C618.716 470.572 618.562 470.728 618.368 470.847C618.178 470.96 617.965 471.017 617.728 471.017Z" fill="black"/>
<path d="M154 564.689C264.687 564.689 375.373 564.689 486.06 564.689C535.683 564.689 585.307 564.689 634.931 564.689C650.148 564.689 663.49 564.049 678.236 560.604C689.977 557.86 702.219 558.871 714.105 556.682C729.971 553.759 746.294 557.335 762.231 557.335C780.588 557.335 798.945 557.335 817.302 557.335C835.046 557.335 852.544 558.806 870.248 558.806" stroke="black" stroke-opacity="0.5" stroke-width="3" stroke-linecap="round"/>
</svg>
