<svg width="1024" height="1024" viewBox="0 0 1024 1024" fill="none" xmlns="http://www.w3.org/2000/svg">
<path d="M382.653 418.227C381.744 418.227 380.942 417.998 380.246 417.538C379.55 417.074 379.005 416.421 378.612 415.578C378.219 414.731 378.023 413.729 378.023 412.574C378.023 411.428 378.219 410.434 378.612 409.591C379.005 408.748 379.552 408.097 380.253 407.638C380.954 407.179 381.763 406.949 382.682 406.949C383.392 406.949 383.953 407.067 384.365 407.304C384.782 407.536 385.099 407.801 385.317 408.099C385.539 408.393 385.712 408.634 385.835 408.824H385.977V403.455H387.653V418H386.034V416.324H385.835C385.712 416.523 385.537 416.774 385.31 417.077C385.082 417.375 384.758 417.643 384.337 417.879C383.915 418.111 383.354 418.227 382.653 418.227ZM382.881 416.722C383.553 416.722 384.121 416.546 384.585 416.196C385.049 415.841 385.402 415.351 385.643 414.726C385.885 414.096 386.006 413.369 386.006 412.545C386.006 411.731 385.887 411.018 385.651 410.408C385.414 409.792 385.063 409.314 384.599 408.973C384.135 408.627 383.563 408.455 382.881 408.455C382.17 408.455 381.579 408.637 381.105 409.001C380.636 409.361 380.284 409.851 380.047 410.472C379.815 411.087 379.699 411.778 379.699 412.545C379.699 413.322 379.817 414.027 380.054 414.662C380.295 415.292 380.651 415.794 381.119 416.168C381.593 416.537 382.18 416.722 382.881 416.722ZM390.956 418V407.091H392.575V408.739H392.689C392.888 408.199 393.248 407.761 393.768 407.425C394.289 407.089 394.876 406.92 395.53 406.92C395.653 406.92 395.807 406.923 395.991 406.928C396.176 406.932 396.316 406.939 396.411 406.949V408.653C396.354 408.639 396.223 408.618 396.02 408.589C395.821 408.556 395.61 408.54 395.388 408.54C394.857 408.54 394.384 408.651 393.967 408.874C393.555 409.091 393.229 409.394 392.987 409.783C392.75 410.166 392.632 410.604 392.632 411.097V418H390.956ZM402.639 418.227C401.588 418.227 400.681 417.995 399.919 417.531C399.161 417.062 398.577 416.409 398.165 415.571C397.758 414.728 397.554 413.748 397.554 412.631C397.554 411.513 397.758 410.528 398.165 409.676C398.577 408.819 399.15 408.152 399.884 407.673C400.622 407.19 401.484 406.949 402.469 406.949C403.037 406.949 403.598 407.044 404.152 407.233C404.706 407.422 405.21 407.73 405.665 408.156C406.119 408.578 406.482 409.136 406.751 409.832C407.021 410.528 407.156 411.385 407.156 412.403V413.114H398.747V411.665H405.452C405.452 411.049 405.329 410.5 405.082 410.017C404.841 409.534 404.495 409.153 404.045 408.874C403.6 408.594 403.075 408.455 402.469 408.455C401.801 408.455 401.223 408.62 400.736 408.952C400.253 409.278 399.881 409.705 399.621 410.23C399.36 410.756 399.23 411.319 399.23 411.92V412.886C399.23 413.71 399.372 414.409 399.656 414.982C399.945 415.55 400.345 415.983 400.857 416.281C401.368 416.575 401.962 416.722 402.639 416.722C403.08 416.722 403.477 416.66 403.832 416.537C404.192 416.409 404.502 416.22 404.763 415.969C405.023 415.713 405.224 415.396 405.366 415.017L406.986 415.472C406.815 416.021 406.529 416.504 406.126 416.92C405.724 417.332 405.227 417.654 404.635 417.886C404.043 418.114 403.378 418.227 402.639 418.227ZM412.916 418.256C412.225 418.256 411.598 418.125 411.034 417.865C410.471 417.6 410.023 417.219 409.692 416.722C409.36 416.22 409.195 415.614 409.195 414.903C409.195 414.278 409.318 413.772 409.564 413.384C409.81 412.991 410.139 412.683 410.551 412.46C410.963 412.238 411.418 412.072 411.915 411.963C412.417 411.849 412.921 411.759 413.428 411.693C414.09 411.608 414.628 411.544 415.04 411.501C415.456 411.454 415.759 411.376 415.949 411.267C416.143 411.158 416.24 410.969 416.24 410.699V410.642C416.24 409.941 416.048 409.397 415.665 409.009C415.286 408.62 414.711 408.426 413.939 408.426C413.139 408.426 412.511 408.601 412.057 408.952C411.602 409.302 411.283 409.676 411.098 410.074L409.507 409.506C409.791 408.843 410.17 408.327 410.643 407.957C411.122 407.583 411.643 407.323 412.206 407.176C412.774 407.025 413.333 406.949 413.882 406.949C414.232 406.949 414.635 406.991 415.089 407.077C415.549 407.157 415.991 407.325 416.418 407.581C416.848 407.837 417.206 408.223 417.49 408.739C417.774 409.255 417.916 409.946 417.916 410.812V418H416.24V416.523H416.155C416.041 416.759 415.852 417.013 415.587 417.283C415.321 417.553 414.969 417.782 414.528 417.972C414.088 418.161 413.551 418.256 412.916 418.256ZM413.172 416.75C413.835 416.75 414.393 416.62 414.848 416.359C415.307 416.099 415.653 415.763 415.885 415.351C416.122 414.939 416.24 414.506 416.24 414.051V412.517C416.169 412.602 416.013 412.68 415.771 412.751C415.535 412.818 415.26 412.877 414.947 412.929C414.64 412.976 414.339 413.019 414.045 413.057C413.757 413.09 413.522 413.118 413.342 413.142C412.907 413.199 412.5 413.291 412.121 413.419C411.747 413.542 411.444 413.729 411.212 413.98C410.984 414.226 410.871 414.562 410.871 414.989C410.871 415.571 411.086 416.011 411.517 416.31C411.953 416.603 412.504 416.75 413.172 416.75ZM420.975 418V407.091H422.595V408.795H422.737C422.964 408.213 423.331 407.761 423.838 407.439C424.344 407.112 424.953 406.949 425.663 406.949C426.383 406.949 426.982 407.112 427.46 407.439C427.943 407.761 428.319 408.213 428.589 408.795H428.703C428.982 408.232 429.401 407.785 429.96 407.453C430.519 407.117 431.189 406.949 431.97 406.949C432.945 406.949 433.743 407.254 434.363 407.865C434.984 408.471 435.294 409.416 435.294 410.699V418H433.618V410.699C433.618 409.894 433.397 409.319 432.957 408.973C432.517 408.627 431.998 408.455 431.402 408.455C430.635 408.455 430.04 408.687 429.619 409.151C429.198 409.61 428.987 410.192 428.987 410.898V418H427.282V410.528C427.282 409.908 427.081 409.409 426.679 409.03C426.276 408.646 425.758 408.455 425.123 408.455C424.688 408.455 424.28 408.571 423.902 408.803C423.528 409.035 423.225 409.357 422.993 409.768C422.765 410.176 422.652 410.647 422.652 411.182V418H420.975ZM450.858 413.54V407.091H452.534V418H450.858V416.153H450.745C450.489 416.707 450.091 417.179 449.551 417.567C449.012 417.95 448.33 418.142 447.506 418.142C446.824 418.142 446.218 417.993 445.688 417.695C445.158 417.392 444.741 416.937 444.438 416.331C444.135 415.72 443.983 414.951 443.983 414.023V407.091H445.659V413.909C445.659 414.705 445.882 415.339 446.327 415.812C446.777 416.286 447.35 416.523 448.046 416.523C448.462 416.523 448.886 416.416 449.317 416.203C449.753 415.99 450.117 415.663 450.411 415.223C450.709 414.783 450.858 414.222 450.858 413.54ZM455.604 422.091V407.091H457.224V408.824H457.423C457.546 408.634 457.716 408.393 457.934 408.099C458.156 407.801 458.474 407.536 458.886 407.304C459.302 407.067 459.866 406.949 460.576 406.949C461.495 406.949 462.304 407.179 463.005 407.638C463.706 408.097 464.253 408.748 464.646 409.591C465.039 410.434 465.235 411.428 465.235 412.574C465.235 413.729 465.039 414.731 464.646 415.578C464.253 416.421 463.708 417.074 463.012 417.538C462.316 417.998 461.513 418.227 460.604 418.227C459.904 418.227 459.343 418.111 458.921 417.879C458.5 417.643 458.175 417.375 457.948 417.077C457.721 416.774 457.546 416.523 457.423 416.324H457.281V422.091H455.604ZM457.252 412.545C457.252 413.369 457.373 414.096 457.614 414.726C457.856 415.351 458.209 415.841 458.673 416.196C459.137 416.546 459.705 416.722 460.377 416.722C461.078 416.722 461.663 416.537 462.131 416.168C462.605 415.794 462.96 415.292 463.197 414.662C463.438 414.027 463.559 413.322 463.559 412.545C463.559 411.778 463.441 411.087 463.204 410.472C462.972 409.851 462.619 409.361 462.146 409.001C461.677 408.637 461.087 408.455 460.377 408.455C459.695 408.455 459.122 408.627 458.658 408.973C458.194 409.314 457.844 409.792 457.607 410.408C457.371 411.018 457.252 411.731 457.252 412.545ZM476.627 418.256C475.936 418.256 475.308 418.125 474.745 417.865C474.182 417.6 473.734 417.219 473.403 416.722C473.071 416.22 472.906 415.614 472.906 414.903C472.906 414.278 473.029 413.772 473.275 413.384C473.521 412.991 473.85 412.683 474.262 412.46C474.674 412.238 475.129 412.072 475.626 411.963C476.128 411.849 476.632 411.759 477.138 411.693C477.801 411.608 478.339 411.544 478.751 411.501C479.167 411.454 479.47 411.376 479.66 411.267C479.854 411.158 479.951 410.969 479.951 410.699V410.642C479.951 409.941 479.759 409.397 479.376 409.009C478.997 408.62 478.422 408.426 477.65 408.426C476.85 408.426 476.222 408.601 475.768 408.952C475.313 409.302 474.994 409.676 474.809 410.074L473.218 409.506C473.502 408.843 473.881 408.327 474.354 407.957C474.833 407.583 475.353 407.323 475.917 407.176C476.485 407.025 477.044 406.949 477.593 406.949C477.943 406.949 478.346 406.991 478.8 407.077C479.26 407.157 479.702 407.325 480.129 407.581C480.559 407.837 480.917 408.223 481.201 408.739C481.485 409.255 481.627 409.946 481.627 410.812V418H479.951V416.523H479.866C479.752 416.759 479.563 417.013 479.298 417.283C479.032 417.553 478.68 417.782 478.239 417.972C477.799 418.161 477.262 418.256 476.627 418.256ZM476.883 416.75C477.546 416.75 478.104 416.62 478.559 416.359C479.018 416.099 479.364 415.763 479.596 415.351C479.833 414.939 479.951 414.506 479.951 414.051V412.517C479.88 412.602 479.724 412.68 479.482 412.751C479.246 412.818 478.971 412.877 478.658 412.929C478.351 412.976 478.05 413.019 477.756 413.057C477.468 413.09 477.233 413.118 477.053 413.142C476.618 413.199 476.21 413.291 475.832 413.419C475.458 413.542 475.155 413.729 474.923 413.98C474.695 414.226 474.582 414.562 474.582 414.989C474.582 415.571 474.797 416.011 475.228 416.31C475.664 416.603 476.215 416.75 476.883 416.75ZM486.363 411.438V418H484.686V407.091H486.306V408.795H486.448C486.703 408.241 487.092 407.796 487.613 407.46C488.133 407.119 488.806 406.949 489.63 406.949C490.368 406.949 491.015 407.1 491.569 407.403C492.123 407.702 492.553 408.156 492.861 408.767C493.169 409.373 493.323 410.14 493.323 411.068V418H491.647V411.182C491.647 410.325 491.424 409.657 490.979 409.179C490.534 408.696 489.923 408.455 489.147 408.455C488.612 408.455 488.133 408.571 487.712 408.803C487.295 409.035 486.966 409.373 486.725 409.818C486.483 410.263 486.363 410.803 486.363 411.438ZM506.585 418.227C505.533 418.227 504.627 417.995 503.864 417.531C503.107 417.062 502.522 416.409 502.11 415.571C501.703 414.728 501.499 413.748 501.499 412.631C501.499 411.513 501.703 410.528 502.11 409.676C502.522 408.819 503.095 408.152 503.829 407.673C504.567 407.19 505.429 406.949 506.414 406.949C506.982 406.949 507.543 407.044 508.097 407.233C508.651 407.422 509.156 407.73 509.61 408.156C510.065 408.578 510.427 409.136 510.697 409.832C510.967 410.528 511.102 411.385 511.102 412.403V413.114H502.692V411.665H509.397C509.397 411.049 509.274 410.5 509.028 410.017C508.786 409.534 508.441 409.153 507.991 408.874C507.546 408.594 507.02 408.455 506.414 408.455C505.746 408.455 505.169 408.62 504.681 408.952C504.198 409.278 503.826 409.705 503.566 410.23C503.306 410.756 503.175 411.319 503.175 411.92V412.886C503.175 413.71 503.317 414.409 503.602 414.982C503.89 415.55 504.29 415.983 504.802 416.281C505.313 416.575 505.907 416.722 506.585 416.722C507.025 416.722 507.423 416.66 507.778 416.537C508.138 416.409 508.448 416.22 508.708 415.969C508.969 415.713 509.17 415.396 509.312 415.017L510.931 415.472C510.761 416.021 510.474 416.504 510.072 416.92C509.669 417.332 509.172 417.654 508.58 417.886C507.988 418.114 507.323 418.227 506.585 418.227ZM515.327 403.455V418H513.651V403.455H515.327ZM522.971 418.227C521.92 418.227 521.013 417.995 520.251 417.531C519.493 417.062 518.909 416.409 518.497 415.571C518.09 414.728 517.886 413.748 517.886 412.631C517.886 411.513 518.09 410.528 518.497 409.676C518.909 408.819 519.482 408.152 520.216 407.673C520.954 407.19 521.816 406.949 522.801 406.949C523.369 406.949 523.93 407.044 524.484 407.233C525.038 407.422 525.542 407.73 525.997 408.156C526.451 408.578 526.814 409.136 527.083 409.832C527.353 410.528 527.488 411.385 527.488 412.403V413.114H519.079V411.665H525.784C525.784 411.049 525.661 410.5 525.414 410.017C525.173 409.534 524.827 409.153 524.377 408.874C523.932 408.594 523.407 408.455 522.801 408.455C522.133 408.455 521.556 408.62 521.068 408.952C520.585 409.278 520.213 409.705 519.953 410.23C519.692 410.756 519.562 411.319 519.562 411.92V412.886C519.562 413.71 519.704 414.409 519.988 414.982C520.277 415.55 520.677 415.983 521.189 416.281C521.7 416.575 522.294 416.722 522.971 416.722C523.412 416.722 523.809 416.66 524.164 416.537C524.524 416.409 524.834 416.22 525.095 415.969C525.355 415.713 525.556 415.396 525.699 415.017L527.318 415.472C527.147 416.021 526.861 416.504 526.458 416.92C526.056 417.332 525.559 417.654 524.967 417.886C524.375 418.114 523.71 418.227 522.971 418.227ZM534.47 418.227C533.447 418.227 532.566 417.986 531.828 417.503C531.089 417.02 530.521 416.355 530.123 415.507C529.725 414.66 529.527 413.691 529.527 412.602C529.527 411.494 529.73 410.517 530.137 409.669C530.549 408.817 531.122 408.152 531.856 407.673C532.595 407.19 533.457 406.949 534.441 406.949C535.208 406.949 535.9 407.091 536.515 407.375C537.131 407.659 537.635 408.057 538.028 408.568C538.421 409.08 538.665 409.676 538.76 410.358H537.083C536.956 409.861 536.672 409.42 536.231 409.037C535.796 408.649 535.208 408.455 534.47 408.455C533.816 408.455 533.243 408.625 532.751 408.966C532.263 409.302 531.882 409.778 531.608 410.393C531.338 411.004 531.203 411.722 531.203 412.545C531.203 413.388 531.335 414.122 531.6 414.747C531.87 415.372 532.249 415.857 532.737 416.203C533.229 416.549 533.807 416.722 534.47 416.722C534.905 416.722 535.301 416.646 535.656 416.494C536.011 416.343 536.312 416.125 536.558 415.841C536.804 415.557 536.979 415.216 537.083 414.818H538.76C538.665 415.462 538.431 416.042 538.056 416.558C537.687 417.07 537.197 417.477 536.586 417.78C535.98 418.078 535.275 418.227 534.47 418.227ZM545.954 407.091V408.511H540.301V407.091H545.954ZM541.949 404.477H543.625V414.875C543.625 415.348 543.693 415.704 543.831 415.94C543.973 416.172 544.153 416.329 544.37 416.409C544.593 416.485 544.827 416.523 545.074 416.523C545.258 416.523 545.41 416.513 545.528 416.494C545.646 416.471 545.741 416.452 545.812 416.438L546.153 417.943C546.039 417.986 545.881 418.028 545.677 418.071C545.474 418.118 545.216 418.142 544.903 418.142C544.43 418.142 543.966 418.04 543.511 417.837C543.061 417.633 542.687 417.323 542.389 416.906C542.095 416.49 541.949 415.964 541.949 415.33V404.477ZM548.475 418V407.091H550.152V418H548.475ZM549.328 405.273C549.001 405.273 548.719 405.161 548.483 404.939C548.251 404.716 548.135 404.449 548.135 404.136C548.135 403.824 548.251 403.556 548.483 403.334C548.719 403.111 549.001 403 549.328 403C549.654 403 549.934 403.111 550.166 403.334C550.403 403.556 550.521 403.824 550.521 404.136C550.521 404.449 550.403 404.716 550.166 404.939C549.934 405.161 549.654 405.273 549.328 405.273ZM557.653 418.227C556.669 418.227 555.804 417.993 555.061 417.524C554.322 417.055 553.745 416.4 553.328 415.557C552.916 414.714 552.71 413.729 552.71 412.602C552.71 411.466 552.916 410.474 553.328 409.626C553.745 408.779 554.322 408.121 555.061 407.652C555.804 407.183 556.669 406.949 557.653 406.949C558.638 406.949 559.5 407.183 560.239 407.652C560.982 408.121 561.56 408.779 561.972 409.626C562.388 410.474 562.597 411.466 562.597 412.602C562.597 413.729 562.388 414.714 561.972 415.557C561.56 416.4 560.982 417.055 560.239 417.524C559.5 417.993 558.638 418.227 557.653 418.227ZM557.653 416.722C558.402 416.722 559.017 416.53 559.5 416.146C559.983 415.763 560.34 415.259 560.572 414.634C560.804 414.009 560.92 413.331 560.92 412.602C560.92 411.873 560.804 411.194 560.572 410.564C560.34 409.934 559.983 409.425 559.5 409.037C559.017 408.649 558.402 408.455 557.653 408.455C556.905 408.455 556.29 408.649 555.807 409.037C555.324 409.425 554.966 409.934 554.734 410.564C554.502 411.194 554.386 411.873 554.386 412.602C554.386 413.331 554.502 414.009 554.734 414.634C554.966 415.259 555.324 415.763 555.807 416.146C556.29 416.53 556.905 416.722 557.653 416.722ZM566.831 411.438V418H565.155V407.091H566.775V408.795H566.917C567.172 408.241 567.56 407.796 568.081 407.46C568.602 407.119 569.275 406.949 570.098 406.949C570.837 406.949 571.483 407.1 572.037 407.403C572.591 407.702 573.022 408.156 573.33 408.767C573.638 409.373 573.792 410.14 573.792 411.068V418H572.115V411.182C572.115 410.325 571.893 409.657 571.448 409.179C571.003 408.696 570.392 408.455 569.615 408.455C569.08 408.455 568.602 408.571 568.181 408.803C567.764 409.035 567.435 409.373 567.194 409.818C566.952 410.263 566.831 410.803 566.831 411.438ZM582.707 418V403.455H584.383V408.824H584.525C584.648 408.634 584.818 408.393 585.036 408.099C585.259 407.801 585.576 407.536 585.988 407.304C586.405 407.067 586.968 406.949 587.678 406.949C588.597 406.949 589.406 407.179 590.107 407.638C590.808 408.097 591.355 408.748 591.748 409.591C592.141 410.434 592.337 411.428 592.337 412.574C592.337 413.729 592.141 414.731 591.748 415.578C591.355 416.421 590.81 417.074 590.114 417.538C589.418 417.998 588.616 418.227 587.707 418.227C587.006 418.227 586.445 418.111 586.023 417.879C585.602 417.643 585.278 417.375 585.05 417.077C584.823 416.774 584.648 416.523 584.525 416.324H584.326V418H582.707ZM584.354 412.545C584.354 413.369 584.475 414.096 584.717 414.726C584.958 415.351 585.311 415.841 585.775 416.196C586.239 416.546 586.807 416.722 587.479 416.722C588.18 416.722 588.765 416.537 589.234 416.168C589.707 415.794 590.062 415.292 590.299 414.662C590.54 414.027 590.661 413.322 590.661 412.545C590.661 411.778 590.543 411.087 590.306 410.472C590.074 409.851 589.721 409.361 589.248 409.001C588.779 408.637 588.19 408.455 587.479 408.455C586.798 408.455 586.225 408.627 585.761 408.973C585.297 409.314 584.946 409.792 584.71 410.408C584.473 411.018 584.354 411.731 584.354 412.545ZM599.333 418.227C598.348 418.227 597.484 417.993 596.741 417.524C596.002 417.055 595.424 416.4 595.008 415.557C594.596 414.714 594.39 413.729 594.39 412.602C594.39 411.466 594.596 410.474 595.008 409.626C595.424 408.779 596.002 408.121 596.741 407.652C597.484 407.183 598.348 406.949 599.333 406.949C600.318 406.949 601.18 407.183 601.918 407.652C602.662 408.121 603.239 408.779 603.651 409.626C604.068 410.474 604.276 411.466 604.276 412.602C604.276 413.729 604.068 414.714 603.651 415.557C603.239 416.4 602.662 417.055 601.918 417.524C601.18 417.993 600.318 418.227 599.333 418.227ZM599.333 416.722C600.081 416.722 600.697 416.53 601.18 416.146C601.663 415.763 602.02 415.259 602.252 414.634C602.484 414.009 602.6 413.331 602.6 412.602C602.6 411.873 602.484 411.194 602.252 410.564C602.02 409.934 601.663 409.425 601.18 409.037C600.697 408.649 600.081 408.455 599.333 408.455C598.585 408.455 597.969 408.649 597.487 409.037C597.004 409.425 596.646 409.934 596.414 410.564C596.182 411.194 596.066 411.873 596.066 412.602C596.066 413.331 596.182 414.009 596.414 414.634C596.646 415.259 597.004 415.763 597.487 416.146C597.969 416.53 598.585 416.722 599.333 416.722ZM611.267 418.227C610.282 418.227 609.418 417.993 608.674 417.524C607.936 417.055 607.358 416.4 606.941 415.557C606.529 414.714 606.324 413.729 606.324 412.602C606.324 411.466 606.529 410.474 606.941 409.626C607.358 408.779 607.936 408.121 608.674 407.652C609.418 407.183 610.282 406.949 611.267 406.949C612.252 406.949 613.113 407.183 613.852 407.652C614.595 408.121 615.173 408.779 615.585 409.626C616.002 410.474 616.21 411.466 616.21 412.602C616.21 413.729 616.002 414.714 615.585 415.557C615.173 416.4 614.595 417.055 613.852 417.524C613.113 417.993 612.252 418.227 611.267 418.227ZM611.267 416.722C612.015 416.722 612.63 416.53 613.113 416.146C613.596 415.763 613.954 415.259 614.186 414.634C614.418 414.009 614.534 413.331 614.534 412.602C614.534 411.873 614.418 411.194 614.186 410.564C613.954 409.934 613.596 409.425 613.113 409.037C612.63 408.649 612.015 408.455 611.267 408.455C610.519 408.455 609.903 408.649 609.42 409.037C608.937 409.425 608.58 409.934 608.348 410.564C608.116 411.194 608 411.873 608 412.602C608 413.331 608.116 414.009 608.348 414.634C608.58 415.259 608.937 415.763 609.42 416.146C609.903 416.53 610.519 416.722 611.267 416.722ZM623.513 407.091V408.511H617.859V407.091H623.513ZM619.507 404.477H621.183V414.875C621.183 415.348 621.252 415.704 621.389 415.94C621.531 416.172 621.711 416.329 621.929 416.409C622.152 416.485 622.386 416.523 622.632 416.523C622.817 416.523 622.968 416.513 623.087 416.494C623.205 416.471 623.3 416.452 623.371 416.438L623.712 417.943C623.598 417.986 623.439 418.028 623.236 418.071C623.032 418.118 622.774 418.142 622.462 418.142C621.988 418.142 621.524 418.04 621.07 417.837C620.62 417.633 620.246 417.323 619.947 416.906C619.654 416.49 619.507 415.964 619.507 415.33V404.477ZM627.945 411.438V418H626.268V403.455H627.945V408.795H628.087C628.342 408.232 628.726 407.785 629.237 407.453C629.753 407.117 630.44 406.949 631.297 406.949C632.04 406.949 632.691 407.098 633.25 407.396C633.809 407.69 634.242 408.142 634.55 408.753C634.862 409.359 635.018 410.131 635.018 411.068V418H633.342V411.182C633.342 410.315 633.117 409.645 632.668 409.172C632.223 408.694 631.605 408.455 630.814 408.455C630.265 408.455 629.772 408.571 629.337 408.803C628.906 409.035 628.565 409.373 628.314 409.818C628.068 410.263 627.945 410.803 627.945 411.438ZM640.272 413.909V413.824C640.282 412.92 640.377 412.2 640.556 411.665C640.736 411.13 640.992 410.696 641.324 410.365C641.655 410.034 642.053 409.728 642.517 409.449C642.796 409.278 643.047 409.077 643.27 408.845C643.492 408.608 643.667 408.336 643.795 408.028C643.928 407.721 643.994 407.38 643.994 407.006C643.994 406.542 643.885 406.139 643.667 405.798C643.449 405.457 643.158 405.195 642.794 405.01C642.429 404.825 642.024 404.733 641.579 404.733C641.191 404.733 640.817 404.813 640.457 404.974C640.097 405.135 639.797 405.389 639.555 405.734C639.314 406.08 639.174 406.532 639.136 407.091H637.346C637.384 406.286 637.592 405.597 637.971 405.024C638.355 404.451 638.859 404.013 639.484 403.71C640.114 403.407 640.812 403.256 641.579 403.256C642.413 403.256 643.137 403.421 643.752 403.753C644.373 404.084 644.851 404.539 645.187 405.116C645.528 405.694 645.699 406.352 645.699 407.091C645.699 407.612 645.618 408.083 645.457 408.504C645.301 408.926 645.074 409.302 644.775 409.634C644.482 409.965 644.127 410.259 643.71 410.514C643.293 410.775 642.959 411.049 642.708 411.338C642.458 411.622 642.275 411.961 642.162 412.354C642.048 412.747 641.986 413.237 641.977 413.824V413.909H640.272ZM641.181 418.114C640.831 418.114 640.53 417.988 640.279 417.737C640.029 417.486 639.903 417.186 639.903 416.835C639.903 416.485 640.029 416.184 640.279 415.933C640.53 415.682 640.831 415.557 641.181 415.557C641.532 415.557 641.833 415.682 642.083 415.933C642.334 416.184 642.46 416.485 642.46 416.835C642.46 417.067 642.401 417.28 642.282 417.474C642.169 417.669 642.015 417.825 641.821 417.943C641.631 418.057 641.418 418.114 641.181 418.114Z" fill="black"/>
<path d="M382.006 484C362.254 485.975 342.744 486.304 322.743 486.304C309.746 486.304 310.583 486.669 310.583 499.104C310.583 509.568 308.439 522.545 312.375 532.384C315.183 539.403 312.825 539.296 322.103 539.296C329.508 539.296 381.073 543.978 381.878 536.736C383.581 521.407 386.614 506.377 386.614 490.912" stroke="black" stroke-opacity="0.5" stroke-width="3" stroke-linecap="round"/>
<path d="M663.233 479.52C642.991 479.52 622.85 477.216 602.561 477.216C589.51 477.216 584.256 477.094 581.569 491.68C579.092 505.13 580.289 519.371 580.289 533.024C580.289 541.104 583.78 539.423 590.913 539.423C608.104 539.423 636.526 545.541 651.713 536.608C658.38 532.686 654.017 505.757 654.017 499.36C654.017 488.907 654.017 478.453 654.017 468" stroke="black" stroke-opacity="0.5" stroke-width="3" stroke-linecap="round"/>
<path d="M424.614 523.091C424.33 523.091 424.076 523.067 423.854 523.02C423.631 522.977 423.477 522.935 423.392 522.892L423.818 521.415C424.225 521.519 424.585 521.557 424.898 521.528C425.21 521.5 425.487 521.36 425.729 521.109C425.975 520.863 426.2 520.463 426.403 519.909L426.716 519.057L422.682 508.091H424.5L427.511 516.784H427.625L430.636 508.091H432.455L427.824 520.591C427.616 521.154 427.357 521.621 427.05 521.99C426.742 522.364 426.384 522.641 425.977 522.821C425.575 523.001 425.12 523.091 424.614 523.091ZM438.85 519.227C437.799 519.227 436.892 518.995 436.13 518.531C435.372 518.062 434.788 517.409 434.376 516.571C433.969 515.728 433.765 514.748 433.765 513.631C433.765 512.513 433.969 511.528 434.376 510.676C434.788 509.819 435.361 509.152 436.094 508.673C436.833 508.19 437.695 507.949 438.68 507.949C439.248 507.949 439.809 508.044 440.363 508.233C440.917 508.422 441.421 508.73 441.876 509.156C442.33 509.578 442.692 510.136 442.962 510.832C443.232 511.528 443.367 512.385 443.367 513.403V514.114H434.958V512.665H441.663C441.663 512.049 441.54 511.5 441.293 511.017C441.052 510.534 440.706 510.153 440.256 509.874C439.811 509.594 439.286 509.455 438.68 509.455C438.012 509.455 437.434 509.62 436.947 509.952C436.464 510.278 436.092 510.705 435.832 511.23C435.571 511.756 435.441 512.319 435.441 512.92V513.886C435.441 514.71 435.583 515.409 435.867 515.982C436.156 516.55 436.556 516.983 437.067 517.281C437.579 517.575 438.173 517.722 438.85 517.722C439.29 517.722 439.688 517.66 440.043 517.537C440.403 517.409 440.713 517.22 440.974 516.969C441.234 516.713 441.435 516.396 441.577 516.017L443.197 516.472C443.026 517.021 442.74 517.504 442.337 517.92C441.935 518.332 441.438 518.654 440.846 518.886C440.254 519.114 439.589 519.227 438.85 519.227ZM453.644 510.534L452.138 510.96C452.044 510.709 451.904 510.465 451.719 510.229C451.54 509.987 451.293 509.788 450.981 509.632C450.668 509.476 450.268 509.398 449.781 509.398C449.113 509.398 448.557 509.552 448.112 509.859C447.671 510.162 447.451 510.548 447.451 511.017C447.451 511.434 447.603 511.763 447.906 512.004C448.209 512.246 448.682 512.447 449.326 512.608L450.945 513.006C451.921 513.242 452.647 513.605 453.126 514.092C453.604 514.575 453.843 515.198 453.843 515.96C453.843 516.585 453.663 517.144 453.303 517.636C452.948 518.129 452.451 518.517 451.812 518.801C451.173 519.085 450.429 519.227 449.582 519.227C448.469 519.227 447.548 518.986 446.819 518.503C446.09 518.02 445.628 517.314 445.434 516.386L447.025 515.989C447.176 516.576 447.463 517.016 447.884 517.31C448.31 517.603 448.867 517.75 449.553 517.75C450.335 517.75 450.955 517.584 451.414 517.253C451.878 516.917 452.11 516.514 452.11 516.045C452.11 515.667 451.978 515.349 451.712 515.094C451.447 514.833 451.04 514.639 450.491 514.511L448.673 514.085C447.674 513.848 446.94 513.482 446.471 512.984C446.007 512.482 445.775 511.855 445.775 511.102C445.775 510.487 445.948 509.942 446.293 509.469C446.644 508.995 447.12 508.624 447.721 508.354C448.327 508.084 449.013 507.949 449.781 507.949C450.86 507.949 451.708 508.186 452.323 508.659C452.943 509.133 453.384 509.758 453.644 510.534Z" fill="black"/>
<path d="M693.21 512.438V519H691.534V508.091H693.153V509.795H693.295C693.551 509.241 693.939 508.796 694.46 508.46C694.981 508.119 695.653 507.949 696.477 507.949C697.216 507.949 697.862 508.1 698.416 508.403C698.97 508.702 699.401 509.156 699.709 509.767C700.017 510.373 700.17 511.14 700.17 512.068V519H698.494V512.182C698.494 511.325 698.272 510.657 697.827 510.179C697.382 509.696 696.771 509.455 695.994 509.455C695.459 509.455 694.981 509.571 694.56 509.803C694.143 510.035 693.814 510.373 693.572 510.818C693.331 511.263 693.21 511.803 693.21 512.438ZM707.665 519.227C706.68 519.227 705.816 518.993 705.073 518.524C704.334 518.055 703.757 517.4 703.34 516.557C702.928 515.714 702.722 514.729 702.722 513.602C702.722 512.466 702.928 511.474 703.34 510.626C703.757 509.779 704.334 509.121 705.073 508.652C705.816 508.183 706.68 507.949 707.665 507.949C708.65 507.949 709.512 508.183 710.25 508.652C710.994 509.121 711.571 509.779 711.983 510.626C712.4 511.474 712.608 512.466 712.608 513.602C712.608 514.729 712.4 515.714 711.983 516.557C711.571 517.4 710.994 518.055 710.25 518.524C709.512 518.993 708.65 519.227 707.665 519.227ZM707.665 517.722C708.413 517.722 709.029 517.53 709.512 517.146C709.995 516.763 710.352 516.259 710.584 515.634C710.816 515.009 710.932 514.331 710.932 513.602C710.932 512.873 710.816 512.194 710.584 511.564C710.352 510.934 709.995 510.425 709.512 510.037C709.029 509.649 708.413 509.455 707.665 509.455C706.917 509.455 706.301 509.649 705.819 510.037C705.336 510.425 704.978 510.934 704.746 511.564C704.514 512.194 704.398 512.873 704.398 513.602C704.398 514.331 704.514 515.009 704.746 515.634C704.978 516.259 705.336 516.763 705.819 517.146C706.301 517.53 706.917 517.722 707.665 517.722Z" fill="black"/>
</svg>
