<svg width="1024" height="1024" viewBox="0 0 1024 1024" fill="none" xmlns="http://www.w3.org/2000/svg">
<g clip-path="url(#clip0_27_69)">
<path d="M759.339 701.872C759.339 707.066 752.408 714.84 752.757 705.773C752.872 702.779 756.566 699.404 755.926 700.897C755.188 702.619 752.824 704.066 754.951 704.066" stroke="black" stroke-opacity="0.5" stroke-width="3" stroke-linecap="round"/>
<path d="M801.028 756.725C790.877 756.725 807.611 730.171 807.611 756.725" stroke="black" stroke-opacity="0.5" stroke-width="3" stroke-linecap="round"/>
<path d="M748.369 712.843C736.109 750.985 724.444 789.96 717.895 829.253C716.51 837.565 717.896 866.308 708.875 870.819" stroke="black" stroke-opacity="0.5" stroke-width="3" stroke-linecap="round"/>
<path d="M803.222 763.307C803.222 779.558 803.364 795.815 803.222 812.065C803.046 832.109 798.834 851.919 798.834 871.916C798.834 889.378 794.445 906.313 794.445 923.478" stroke="black" stroke-opacity="0.5" stroke-width="3" stroke-linecap="round"/>
<path d="M792.252 958.583C792.252 962.224 793.344 964.085 792.252 967.36" stroke="black" stroke-opacity="0.5" stroke-width="3" stroke-linecap="round"/>
<path d="M713.264 925.672V936.642" stroke="black" stroke-opacity="0.5" stroke-width="3" stroke-linecap="round"/>
<path d="M820.775 682.125C839.654 682.125 860.666 682.324 877.822 690.902" stroke="black" stroke-opacity="0.5" stroke-width="3" stroke-linecap="round"/>
<path d="M801.029 647.02C799.398 630.717 785.67 613.28 785.67 596.555" stroke="black" stroke-opacity="0.5" stroke-width="3" stroke-linecap="round"/>
<path d="M639.97 978.473C636.167 982.698 634.511 985.355 639.235 989.22C645.823 994.609 651.502 988.76 657.421 985.086C662.848 981.718 672.39 979.382 670.463 971.034C668.271 961.533 657.723 961.158 649.155 960.379C635.529 959.141 610.156 953.844 601.21 966.901C596.147 974.289 585.7 986.135 589.086 996.292C592.37 1006.15 609.843 1004.94 617.375 1006.58C623.671 1007.95 628.542 1009.89 635.01 1009.89" stroke="black" stroke-opacity="0.5" stroke-width="3" stroke-linecap="round"/>
<path d="M646.584 990.046C657.417 988.692 666.117 974.126 672.852 990.965C677.121 1001.64 661.377 1014.85 651.544 1014.85" stroke="black" stroke-opacity="0.5" stroke-width="3" stroke-linecap="round"/>
<path d="M635.01 1013.19C638.051 1013.19 645.317 1013.97 646.583 1016.5" stroke="black" stroke-opacity="0.5" stroke-width="3" stroke-linecap="round"/>
<path d="M668.076 976.82C675.774 976.82 679.649 984.675 679.649 991.699" stroke="black" stroke-opacity="0.5" stroke-width="3" stroke-linecap="round"/>
<path d="M218.389 971.86C208.622 980.651 189.151 980.404 177.241 979.576C159.449 978.338 141.867 972.868 124.98 967.452C104.694 960.945 82.7698 952.736 67.2074 937.509C46.4603 917.21 56.2461 887.866 71.3406 867.337C100.103 828.221 140.754 809.478 187.712 801.023C220.377 795.142 255.136 792.654 270.283 827.751C283.694 858.824 279.982 889.97 262.66 918.588C248.139 942.579 228.873 969.28 205.163 985.086" stroke="black" stroke-opacity="0.5" stroke-width="3" stroke-linecap="round"/>
<path d="M130.766 932.182C131.343 926.996 135.721 922.083 138.482 917.854C146.541 905.504 155.742 893.888 164.015 881.666C179.14 859.322 200.233 841.474 218.206 821.505C226.973 811.763 232.186 814.672 245.301 820.587C261.314 827.809 260.404 836.023 246.862 846.396C236.314 854.475 224.495 862.15 212.235 867.337C212.187 867.358 199.285 872.28 199.285 870.644C199.285 866.691 208.924 873.357 209.296 873.675C214.295 877.933 219.308 883.884 219.308 890.85C219.308 898.383 214.188 903.396 208.745 907.75C196.357 917.661 183.078 927.098 169.159 934.754C152.855 943.721 139.528 944.71 122.5 937.142" stroke="black" stroke-opacity="0.5" stroke-width="3" stroke-linecap="round"/>
<path d="M220.041 948.715C230.436 927.924 246.047 909.839 258.066 889.932C263.843 880.364 269.894 867.45 277.905 859.438" stroke="black" stroke-opacity="0.5" stroke-width="3" stroke-linecap="round"/>
<path d="M340.731 1006.58C340.731 993.687 325.938 979.613 318.871 969.84C309.954 957.508 304.453 947.063 292.051 938.795C283.555 933.131 273.205 932.182 263.027 932.182" stroke="black" stroke-opacity="0.5" stroke-width="3" stroke-linecap="round"/>
<path d="M125.806 970.207C118.894 976.427 110.717 978.483 102.292 981.78C94.0074 985.022 87.0426 989.67 79.5141 994.271C72.6482 998.467 70.3315 1012 64.6348 1014.85" stroke="black" stroke-opacity="0.5" stroke-width="3" stroke-linecap="round"/>
<path d="M344.036 882.584C325.822 882.584 318.322 857.624 323.738 843.732C333.56 818.536 353.882 803.796 379.489 814.8C389.236 818.989 401.045 824.405 401.625 836.568C402.316 851.078 392.178 867.082 383.714 878.267C374.536 890.395 358.274 890.85 344.036 890.85" stroke="black" stroke-opacity="0.5" stroke-width="3" stroke-linecap="round"/>
<path d="M378.754 826.373H380.407" stroke="black" stroke-opacity="0.5" stroke-width="3" stroke-linecap="round"/>
<path d="M372.143 839.599C372.428 841.886 375.281 842.299 377.102 842.906" stroke="black" stroke-opacity="0.5" stroke-width="3" stroke-linecap="round"/>
<path d="M358.916 828.026C355.215 832.189 354.017 837.764 352.303 842.906" stroke="black" stroke-opacity="0.5" stroke-width="3" stroke-linecap="round"/>
<path d="M370.488 814.8C368.309 817.252 367.182 823.059 367.182 826.373" stroke="black" stroke-opacity="0.5" stroke-width="3" stroke-linecap="round"/>
<path d="M548.321 740.466C544.144 749.341 539.19 739.647 538.493 733.026C537.905 727.441 544.618 718.883 550.341 723.565C559.138 730.763 553.113 739.723 545.014 743.772" stroke="black" stroke-opacity="0.5" stroke-width="3" stroke-linecap="round"/>
<path d="M543.361 745.425C536.48 752.306 540.294 760.638 535.83 767.652C533.514 771.291 531.126 780.217 534.727 783.818C540.394 789.484 540.5 782.687 541.616 777.664C542.029 775.805 547.891 767.498 549.974 771.143C552.869 776.209 551.887 782.792 556.22 787.124C561.547 792.451 560.755 781.439 562.374 780.144C564.108 778.756 559.335 766.341 558.608 763.979C556.754 757.953 559.894 751.479 559.894 745.425" stroke="black" stroke-opacity="0.5" stroke-width="3" stroke-linecap="round"/>
<path d="M533.44 786.757C529.078 784.447 521.666 781.115 524.806 775.184C527.185 770.692 533.703 775.709 535.093 778.49" stroke="black" stroke-opacity="0.5" stroke-width="3" stroke-linecap="round"/>
<path d="M546.667 780.144C536.017 780.144 548.638 783.45 553.28 783.45" stroke="black" stroke-opacity="0.5" stroke-width="3" stroke-linecap="round"/>
<path d="M530.135 717.32C522.624 717.32 516.703 708.847 526.829 718.973" stroke="black" stroke-opacity="0.5" stroke-width="3" stroke-linecap="round"/>
<path d="M518.562 725.586C517.579 726.446 511.395 725.309 515.255 727.239" stroke="black" stroke-opacity="0.5" stroke-width="3" stroke-linecap="round"/>
<path d="M362.223 409.751C357.709 428.371 360.569 449.911 360.569 468.901C360.569 497.723 360.217 526.435 359.283 555.238C358.585 576.797 364.201 600.229 358.916 621.369" stroke="black" stroke-opacity="0.5" stroke-width="3" stroke-linecap="round"/>
<path d="M357.262 632.941C396.694 632.941 436.449 631.288 476.021 631.288C518.832 631.288 561.472 634.659 604.149 636.156C611.201 636.403 618.21 637.901 625.182 637.901C631.15 637.901 637.449 635.887 643.276 636.615C657.21 638.357 672.305 642.861 686.261 642.861" stroke="black" stroke-opacity="0.5" stroke-width="3" stroke-linecap="round"/>
<path d="M687.916 641.208C688.811 625.988 691.694 610.625 690.855 595.1C689.102 562.664 680.794 531.253 677.629 499.027C675.438 476.724 675.736 457.246 677.629 434.917C678.256 427.52 676.039 405.095 681.303 399.831" stroke="black" stroke-opacity="0.5" stroke-width="3" stroke-linecap="round"/>
<path d="M681.302 381.645C660.937 380.852 641.379 375.428 621.417 371.726C591.925 366.256 562.525 365.84 532.692 368.511C498.505 371.573 464.305 371.459 430.098 373.471C418.502 374.153 408.232 379.882 396.941 381.278C385.983 382.632 375.142 383.779 364.243 385.687C360.027 386.425 355.833 385.905 352.303 388.258" stroke="black" stroke-opacity="0.5" stroke-width="3" stroke-linecap="round"/>
<path d="M360.57 404.791C357.106 403.492 354.126 401.073 351.11 399.005C337.241 389.495 323.327 380.013 309.135 370.991C282.424 354.011 254.665 338.767 227.941 321.76C185.771 294.925 142.492 267.344 103.396 236.066C81.859 218.837 58.1804 206.43 33.3157 194.827C25.7784 191.309 15.9997 185.869 10.0781 179.947" stroke="black" stroke-opacity="0.5" stroke-width="3" stroke-linecap="round"/>
<path d="M689.568 637.901C699.787 646.262 713.26 652.043 724.287 659.394" stroke="black" stroke-opacity="0.5" stroke-width="3" stroke-linecap="round"/>
<path d="M383.715 398.178C369.023 455.315 371.768 516.169 383.715 573.516C385.029 579.819 385.369 585.861 385.369 592.253C385.369 592.576 387.227 589.935 387.481 589.681C392.551 584.611 397.426 579.912 401.81 574.159C410.491 562.764 417.838 550.464 426.517 539.073C428.017 537.103 434.444 527.316 437.63 527.316C445.546 527.316 454.823 541.81 459.398 546.972C463.836 551.978 467.003 558.434 471.706 563.137C473.247 564.678 477.484 569.161 479.605 569.75C483.615 570.864 490.038 529.607 490.443 526.949C496.502 487.131 493.613 446.886 494.484 406.812C494.632 400.017 497.791 393.234 497.791 386.605" stroke="black" stroke-opacity="0.5" stroke-width="3" stroke-linecap="round"/>
<path d="M517.63 363.459C517.63 373.716 517.898 383.767 519.283 393.953C521.686 411.623 520.81 428.368 521.304 446.123C521.995 471 516.02 494.692 514.69 519.417C513.779 536.38 516.141 554.046 513.405 570.852C512.416 576.923 509.363 582.876 509.363 589.038C509.363 593.627 512.737 585.937 516.344 582.241C531.012 567.21 543.498 550.325 554.736 532.643C560.875 522.985 568.469 512.669 577.882 505.824C582.935 502.149 620.014 550.921 625.826 558.361C630.135 563.876 634.629 568.206 640.706 571.679C645.789 574.584 646.187 577.156 646.952 571.036C653.299 520.256 649.803 469.025 653.197 418.109C654.269 402.03 654.85 386.175 654.85 370.073" stroke="black" stroke-opacity="0.5" stroke-width="3" stroke-linecap="round"/>
<path d="M396.94 379.992C392.792 385.062 392.318 391.216 391.888 397.443C391.123 408.54 387.926 419.427 387.112 430.417C386.554 437.95 384.872 444.607 382.979 451.909C381.032 459.42 382.817 467.413 382.152 475.055C380.312 496.223 389.143 516.95 381.326 537.052C379.724 541.17 378.878 553.477 381.234 557.718C384.437 563.484 386.504 547.744 387.112 544.4C388.61 536.162 389.714 530.405 394.368 523.091C396.81 519.254 405.445 504.085 409.339 513.172C409.859 514.384 413.265 526.067 413.473 520.887C413.667 516.023 414.271 512.047 415.493 507.293C417.69 498.753 417.076 489.466 419.718 481.209C422.432 472.729 422.984 500.093 429.638 506.008C432.198 508.283 436.917 483.047 439.925 481.209C444.844 478.203 440.959 507.293 451.498 507.293C458.857 507.293 460.316 484.784 462.703 494.067C465.112 503.434 464.903 511.693 469.316 520.52C470.988 523.864 478.089 536.156 472.99 538.705" stroke="black" stroke-opacity="0.5" stroke-width="3" stroke-linecap="round"/>
<path d="M477.951 548.625C477.951 519.358 481.258 490.313 481.258 461.002C481.258 446.274 482.252 427.507 486.585 413.425C490.674 400.134 489.524 385.69 489.524 371.726" stroke="black" stroke-opacity="0.5" stroke-width="3" stroke-linecap="round"/>
<path d="M532.508 368.419C529.35 378.684 530.356 391.024 530.947 401.668C531.784 416.744 532.508 431.516 532.508 446.674C532.508 466.289 533.152 484.789 528.375 503.895C525.651 514.792 524.795 526.113 522.221 537.052C520.438 544.631 517.629 552.367 517.629 560.198" stroke="black" stroke-opacity="0.5" stroke-width="3" stroke-linecap="round"/>
<path d="M517.629 560.198C522.888 559.541 529.747 540.73 534.529 537.052C542.211 531.143 549.295 522.101 556.481 515.468C567.235 505.54 580.191 485.801 596.986 485.801" stroke="black" stroke-opacity="0.5" stroke-width="3" stroke-linecap="round"/>
<path d="M596.986 487.454C607.792 498.26 615.522 513.677 624.265 526.306C627.639 531.179 629.932 536.696 633.358 541.645C636.621 546.358 641.43 549.696 643.278 555.238" stroke="black" stroke-opacity="0.5" stroke-width="3" stroke-linecap="round"/>
<path d="M644.931 558.545C644.931 533.062 643.277 507.223 643.277 481.668C643.277 468.51 640.957 452.817 645.757 440.336C649.381 430.916 647.065 414.41 646.584 404.791C646.104 395.194 644.676 382.282 648.237 373.379" stroke="black" stroke-opacity="0.5" stroke-width="3" stroke-linecap="round"/>
<path d="M405.207 424.63C413.387 424.63 421.174 423.429 429.271 422.15C439.375 420.555 451.155 415.794 461.418 416.364C466.333 416.637 457.386 435.979 448.192 435.468C445.915 435.342 440.427 429.799 439.099 428.029C435.909 423.776 431.5 435.33 430.006 437.489C425.011 444.704 415.131 431.246 411.82 429.59" stroke="black" stroke-opacity="0.5" stroke-width="3" stroke-linecap="round"/>
<path d="M570.534 426.284C565.531 425.728 568.206 420.833 571.269 423.896C574.136 426.763 567.315 429.765 565.574 426.284" stroke="black" stroke-opacity="0.5" stroke-width="3" stroke-linecap="round"/>
<path d="M606.905 422.977C602.856 422.977 602.184 422.766 606.905 420.405C613.368 417.174 608.145 422.15 606.905 424.63" stroke="black" stroke-opacity="0.5" stroke-width="3" stroke-linecap="round"/>
<path d="M613.518 424.63C613.518 433.33 618.477 440.177 618.477 449.429" stroke="black" stroke-opacity="0.5" stroke-width="3" stroke-linecap="round"/>
<path d="M565.573 432.897C560.914 438.72 564.25 452.076 560.613 459.349" stroke="black" stroke-opacity="0.5" stroke-width="3" stroke-linecap="round"/>
<path d="M555.654 469.268V472.575" stroke="black" stroke-opacity="0.5" stroke-width="3" stroke-linecap="round"/>
<path d="M618.479 464.309C618.749 467.015 619.504 469.781 621.785 470.922" stroke="black" stroke-opacity="0.5" stroke-width="3" stroke-linecap="round"/>
<path d="M592.025 404.791C597.788 404.151 606.878 397.864 611.865 394.872" stroke="black" stroke-opacity="0.5" stroke-width="3" stroke-linecap="round"/>
<path d="M573.84 411.404C568.499 406.597 561.367 404.116 555.654 399.831" stroke="black" stroke-opacity="0.5" stroke-width="3" stroke-linecap="round"/>
<path d="M408.513 596.57C404.478 596.936 385.814 608.563 388.123 609.428C392.898 611.219 400.584 609.796 405.574 609.796C415.922 609.796 426.27 609.796 436.618 609.796C439.162 609.796 445.13 612.178 447.181 611.357C449.382 610.477 439.113 603.289 438.639 602.815C433.378 597.554 438.697 597.2 428.903 598.958C420.074 600.542 410.839 599.876 401.9 599.876" stroke="black" stroke-opacity="0.5" stroke-width="3" stroke-linecap="round"/>
<path d="M383.714 604.836C383.714 625.216 382.061 645.518 382.061 666.007C382.061 670.991 383.714 675.762 383.714 680.886C383.714 691.239 406.37 685.846 414.024 685.846C420.955 685.846 445.348 689.859 446.63 681.529C449.1 665.472 451.004 649.133 453.151 633.033C454.355 624.003 458.111 615.662 458.111 606.489" stroke="black" stroke-opacity="0.5" stroke-width="3" stroke-linecap="round"/>
<path d="M580.453 604.836C587.873 627.92 584.005 650.103 583.76 673.906C583.745 675.296 582.339 685.701 584.127 687.132C586.622 689.128 605.203 684.741 608.375 684.56C621.933 683.785 635.579 684.193 649.155 684.193C650.9 684.193 656.449 685.165 657.789 683.825C660.165 681.449 656.964 671.906 656.503 669.497C654.237 657.629 652.24 645.125 651.635 633.033C651.135 623.021 650.288 613.835 648.145 604.193C647.391 600.798 596.737 604.836 587.893 604.836C584.127 604.836 580.361 604.836 576.596 604.836C573.975 604.836 580.309 601.131 582.015 599.141C584.173 596.623 592.215 593.263 595.333 593.263" stroke="black" stroke-opacity="0.5" stroke-width="3" stroke-linecap="round"/>
<path d="M595.332 593.263C608.32 593.263 620.746 591.61 633.357 591.61" stroke="black" stroke-opacity="0.5" stroke-width="3" stroke-linecap="round"/>
<path d="M633.357 591.61C638.352 593.681 643.048 596.926 648.237 598.223" stroke="black" stroke-opacity="0.5" stroke-width="3" stroke-linecap="round"/>
<path d="M229.961 679.233C233.878 699.799 232.848 719.23 233.635 740.036C234.37 759.471 236.574 778.821 236.574 798.268" stroke="black" stroke-opacity="0.5" stroke-width="3" stroke-linecap="round"/>
<path d="M229.961 680.886C273.203 680.886 316.4 682.539 359.65 682.539C374.855 682.539 390.296 681.21 405.207 684.193" stroke="black" stroke-opacity="0.5" stroke-width="3" stroke-linecap="round"/>
<path d="M405.207 684.193C410.956 691.22 410.557 703.064 412.004 711.563C415.446 731.785 421.481 751.858 426.607 771.724C431.549 790.874 426.699 810.299 426.699 829.772C426.699 855.782 431.28 881.966 424.219 907.383C422.384 913.991 421.739 920.384 421.739 927.222C421.739 933.707 427.05 946.388 424.679 952.021C422.427 957.368 421.618 957.907 416.045 959.002C398.975 962.355 382.837 970.748 365.896 974.8C357.957 976.698 350.673 978.473 342.383 978.473" stroke="black" stroke-opacity="0.5" stroke-width="3" stroke-linecap="round"/>
<path d="M226.654 675.926C233.131 674.749 239.44 669.412 245.575 666.925C255.83 662.768 266.228 660.426 276.803 657.373C287.723 654.221 296.094 648.096 307.664 646.167" stroke="black" stroke-opacity="0.5" stroke-width="3" stroke-linecap="round"/>
<path d="M309.318 646.167C327.198 646.167 345.078 646.167 362.958 646.167C368.033 646.167 385.043 643.863 387.022 647.821" stroke="black" stroke-opacity="0.5" stroke-width="3" stroke-linecap="round"/>
<path d="M387.021 647.821C396.228 653.958 404.551 659.984 410.902 669.221C413.515 673.022 414.827 678.482 418.433 680.886" stroke="black" stroke-opacity="0.5" stroke-width="3" stroke-linecap="round"/>
<path d="M572.186 679.233C569.264 680.903 573.629 695.44 573.931 697.235C577.375 717.682 581.358 738.081 584.402 758.589C588.689 787.472 587.066 817.083 587.066 846.212C587.066 869.953 583.689 893.876 580.085 917.303C578.6 926.96 576.578 939.061 577.146 948.715C577.254 950.549 639.903 948.715 653.196 948.715" stroke="black" stroke-opacity="0.5" stroke-width="3" stroke-linecap="round"/>
<path d="M575.492 679.233C596.968 673.506 622.988 677.58 645.113 677.58C655.553 677.58 665.993 677.58 676.433 677.58C686.843 677.58 697.252 677.58 707.661 677.58C713.638 677.58 718.308 680.886 724.286 680.886" stroke="black" stroke-opacity="0.5" stroke-width="3" stroke-linecap="round"/>
<path d="M577.146 677.579C582.985 668.092 595.642 664.379 605.344 660.955C610.334 659.194 620.896 657.865 623.438 652.781" stroke="black" stroke-opacity="0.5" stroke-width="3" stroke-linecap="round"/>
<path d="M623.438 652.781C645.929 652.781 667.885 649.474 690.395 649.474C702.243 649.474 714.091 649.474 725.94 649.474" stroke="black" stroke-opacity="0.5" stroke-width="3" stroke-linecap="round"/>
<path d="M1051.16 693.096C1028.59 625.401 957.832 578.009 888.793 571.688C774.331 561.209 701.946 670.638 711.801 776.228C715.748 818.524 735.8 862.362 774.455 883.496C824.231 910.71 896.318 919.772 951.081 906.168C1006.34 892.441 1052.94 859.527 1086.02 813.284C1117.57 769.167 1120.56 725.299 1114.79 673.349" stroke="black" stroke-opacity="0.5" stroke-width="3" stroke-linecap="round"/>
<path d="M677.996 378.339C711.52 352.085 748.823 330.703 784.54 307.616C807.837 292.557 828.686 275.158 850.67 258.385C868.849 244.516 888.45 231.591 908.167 219.993C922.356 211.646 936.29 201.374 951.06 194.184C975.951 182.066 1003.43 178.423 1028.95 168.466C1036.2 165.636 1042.42 161.522 1046.67 155.148" stroke="black" stroke-opacity="0.5" stroke-width="3" stroke-linecap="round"/>
<path d="M353.955 626.328C347.926 629.165 343.668 631.769 338.157 636.064C315.985 653.345 291.519 667.727 268.353 683.641C237.977 704.508 207.622 725.644 176.137 744.812C135.12 769.784 91.7057 790.434 50.6731 815.351C11.8671 838.917 -26.8156 862.841 -64.9635 887.452C-76 894.572 -87.5739 903.304 -99.0391 909.036" stroke="black" stroke-opacity="0.5" stroke-width="3" stroke-linecap="round"/>
<path d="M245.278 138.091V139.511H239.625V138.091H245.278ZM241.273 135.477H242.949V145.875C242.949 146.348 243.018 146.704 243.155 146.94C243.297 147.172 243.477 147.329 243.695 147.409C243.917 147.485 244.152 147.523 244.398 147.523C244.582 147.523 244.734 147.513 244.852 147.494C244.971 147.471 245.065 147.452 245.136 147.438L245.477 148.943C245.364 148.986 245.205 149.028 245.001 149.071C244.798 149.118 244.54 149.142 244.227 149.142C243.754 149.142 243.29 149.04 242.835 148.837C242.385 148.633 242.011 148.323 241.713 147.906C241.42 147.49 241.273 146.964 241.273 146.33V135.477ZM249.71 142.438V149H248.034V134.455H249.71V139.795H249.852C250.108 139.232 250.491 138.785 251.003 138.453C251.519 138.117 252.205 137.949 253.062 137.949C253.806 137.949 254.457 138.098 255.016 138.396C255.574 138.69 256.008 139.142 256.315 139.753C256.628 140.359 256.784 141.131 256.784 142.068V149H255.108V142.182C255.108 141.315 254.883 140.645 254.433 140.172C253.988 139.694 253.37 139.455 252.58 139.455C252.03 139.455 251.538 139.571 251.102 139.803C250.671 140.035 250.33 140.373 250.08 140.818C249.833 141.263 249.71 141.803 249.71 142.438ZM264.424 149.227C263.373 149.227 262.467 148.995 261.704 148.531C260.947 148.062 260.362 147.409 259.95 146.571C259.543 145.728 259.339 144.748 259.339 143.631C259.339 142.513 259.543 141.528 259.95 140.676C260.362 139.819 260.935 139.152 261.669 138.673C262.407 138.19 263.269 137.949 264.254 137.949C264.822 137.949 265.383 138.044 265.937 138.233C266.491 138.422 266.995 138.73 267.45 139.156C267.904 139.578 268.267 140.136 268.537 140.832C268.806 141.528 268.941 142.385 268.941 143.403V144.114H260.532V142.665H267.237C267.237 142.049 267.114 141.5 266.868 141.017C266.626 140.534 266.28 140.153 265.831 139.874C265.386 139.594 264.86 139.455 264.254 139.455C263.586 139.455 263.009 139.62 262.521 139.952C262.038 140.278 261.666 140.705 261.406 141.23C261.145 141.756 261.015 142.319 261.015 142.92V143.886C261.015 144.71 261.157 145.409 261.441 145.982C261.73 146.55 262.13 146.983 262.642 147.281C263.153 147.575 263.747 147.722 264.424 147.722C264.865 147.722 265.262 147.66 265.618 147.537C265.977 147.409 266.288 147.22 266.548 146.969C266.808 146.713 267.01 146.396 267.152 146.017L268.771 146.472C268.6 147.021 268.314 147.504 267.912 147.92C267.509 148.332 267.012 148.654 266.42 148.886C265.828 149.114 265.163 149.227 264.424 149.227ZM277.343 149V134.455H282.258C283.399 134.455 284.332 134.661 285.056 135.072C285.786 135.48 286.325 136.031 286.676 136.727C287.026 137.423 287.201 138.2 287.201 139.057C287.201 139.914 287.026 140.693 286.676 141.393C286.33 142.094 285.795 142.653 285.071 143.07C284.346 143.482 283.418 143.688 282.287 143.688H278.764V142.125H282.23C283.011 142.125 283.638 141.99 284.112 141.72C284.585 141.45 284.929 141.086 285.142 140.626C285.359 140.162 285.468 139.639 285.468 139.057C285.468 138.474 285.359 137.954 285.142 137.494C284.929 137.035 284.583 136.675 284.105 136.415C283.627 136.15 282.992 136.017 282.201 136.017H279.105V149H277.343ZM294.268 149.227C293.217 149.227 292.31 148.995 291.548 148.531C290.79 148.062 290.206 147.409 289.794 146.571C289.386 145.728 289.183 144.748 289.183 143.631C289.183 142.513 289.386 141.528 289.794 140.676C290.206 139.819 290.779 139.152 291.512 138.673C292.251 138.19 293.113 137.949 294.098 137.949C294.666 137.949 295.227 138.044 295.781 138.233C296.335 138.422 296.839 138.73 297.294 139.156C297.748 139.578 298.11 140.136 298.38 140.832C298.65 141.528 298.785 142.385 298.785 143.403V144.114H290.376V142.665H297.081C297.081 142.049 296.958 141.5 296.711 141.017C296.47 140.534 296.124 140.153 295.674 139.874C295.229 139.594 294.704 139.455 294.098 139.455C293.43 139.455 292.852 139.62 292.365 139.952C291.882 140.278 291.51 140.705 291.25 141.23C290.989 141.756 290.859 142.319 290.859 142.92V143.886C290.859 144.71 291.001 145.409 291.285 145.982C291.574 146.55 291.974 146.983 292.485 147.281C292.997 147.575 293.591 147.722 294.268 147.722C294.708 147.722 295.106 147.66 295.461 147.537C295.821 147.409 296.131 147.22 296.392 146.969C296.652 146.713 296.853 146.396 296.995 146.017L298.615 146.472C298.444 147.021 298.158 147.504 297.755 147.92C297.353 148.332 296.856 148.654 296.264 148.886C295.672 149.114 295.007 149.227 294.268 149.227ZM305.767 149.227C304.782 149.227 303.918 148.993 303.174 148.524C302.436 148.055 301.858 147.4 301.441 146.557C301.029 145.714 300.824 144.729 300.824 143.602C300.824 142.466 301.029 141.474 301.441 140.626C301.858 139.779 302.436 139.121 303.174 138.652C303.918 138.183 304.782 137.949 305.767 137.949C306.752 137.949 307.613 138.183 308.352 138.652C309.095 139.121 309.673 139.779 310.085 140.626C310.502 141.474 310.71 142.466 310.71 143.602C310.71 144.729 310.502 145.714 310.085 146.557C309.673 147.4 309.095 148.055 308.352 148.524C307.613 148.993 306.752 149.227 305.767 149.227ZM305.767 147.722C306.515 147.722 307.13 147.53 307.613 147.146C308.096 146.763 308.454 146.259 308.686 145.634C308.918 145.009 309.034 144.331 309.034 143.602C309.034 142.873 308.918 142.194 308.686 141.564C308.454 140.934 308.096 140.425 307.613 140.037C307.13 139.649 306.515 139.455 305.767 139.455C305.019 139.455 304.403 139.649 303.92 140.037C303.437 140.425 303.08 140.934 302.848 141.564C302.616 142.194 302.5 142.873 302.5 143.602C302.5 144.331 302.616 145.009 302.848 145.634C303.08 146.259 303.437 146.763 303.92 147.146C304.403 147.53 305.019 147.722 305.767 147.722ZM313.268 153.091V138.091H314.888V139.824H315.087C315.21 139.634 315.38 139.393 315.598 139.099C315.821 138.801 316.138 138.536 316.55 138.304C316.966 138.067 317.53 137.949 318.24 137.949C319.159 137.949 319.968 138.179 320.669 138.638C321.37 139.097 321.917 139.748 322.31 140.591C322.703 141.434 322.899 142.428 322.899 143.574C322.899 144.729 322.703 145.731 322.31 146.578C321.917 147.421 321.372 148.074 320.676 148.538C319.98 148.998 319.178 149.227 318.268 149.227C317.568 149.227 317.007 149.111 316.585 148.879C316.164 148.643 315.839 148.375 315.612 148.077C315.385 147.774 315.21 147.523 315.087 147.324H314.945V153.091H313.268ZM314.916 143.545C314.916 144.369 315.037 145.096 315.278 145.726C315.52 146.351 315.873 146.841 316.337 147.196C316.801 147.546 317.369 147.722 318.041 147.722C318.742 147.722 319.327 147.537 319.795 147.168C320.269 146.794 320.624 146.292 320.861 145.662C321.102 145.027 321.223 144.322 321.223 143.545C321.223 142.778 321.105 142.087 320.868 141.472C320.636 140.851 320.283 140.361 319.81 140.001C319.341 139.637 318.751 139.455 318.041 139.455C317.359 139.455 316.786 139.627 316.322 139.973C315.858 140.314 315.508 140.792 315.271 141.408C315.035 142.018 314.916 142.731 314.916 143.545ZM327.132 134.455V149H325.456V134.455H327.132ZM334.776 149.227C333.725 149.227 332.818 148.995 332.056 148.531C331.298 148.062 330.713 147.409 330.301 146.571C329.894 145.728 329.691 144.748 329.691 143.631C329.691 142.513 329.894 141.528 330.301 140.676C330.713 139.819 331.286 139.152 332.02 138.673C332.759 138.19 333.621 137.949 334.605 137.949C335.174 137.949 335.735 138.044 336.289 138.233C336.843 138.422 337.347 138.73 337.801 139.156C338.256 139.578 338.618 140.136 338.888 140.832C339.158 141.528 339.293 142.385 339.293 143.403V144.114H330.884V142.665H337.588C337.588 142.049 337.465 141.5 337.219 141.017C336.978 140.534 336.632 140.153 336.182 139.874C335.737 139.594 335.212 139.455 334.605 139.455C333.938 139.455 333.36 139.62 332.873 139.952C332.39 140.278 332.018 140.705 331.757 141.23C331.497 141.756 331.367 142.319 331.367 142.92V143.886C331.367 144.71 331.509 145.409 331.793 145.982C332.082 146.55 332.482 146.983 332.993 147.281C333.505 147.575 334.099 147.722 334.776 147.722C335.216 147.722 335.614 147.66 335.969 147.537C336.329 147.409 336.639 147.22 336.9 146.969C337.16 146.713 337.361 146.396 337.503 146.017L339.123 146.472C338.952 147.021 338.666 147.504 338.263 147.92C337.861 148.332 337.364 148.654 336.772 148.886C336.18 149.114 335.515 149.227 334.776 149.227ZM352.042 149.227C350.99 149.227 350.084 148.995 349.321 148.531C348.564 148.062 347.979 147.409 347.567 146.571C347.16 145.728 346.956 144.748 346.956 143.631C346.956 142.513 347.16 141.528 347.567 140.676C347.979 139.819 348.552 139.152 349.286 138.673C350.025 138.19 350.886 137.949 351.871 137.949C352.439 137.949 353 138.044 353.554 138.233C354.108 138.422 354.613 138.73 355.067 139.156C355.522 139.578 355.884 140.136 356.154 140.832C356.424 141.528 356.559 142.385 356.559 143.403V144.114H348.15V142.665H354.854C354.854 142.049 354.731 141.5 354.485 141.017C354.243 140.534 353.898 140.153 353.448 139.874C353.003 139.594 352.477 139.455 351.871 139.455C351.203 139.455 350.626 139.62 350.138 139.952C349.655 140.278 349.283 140.705 349.023 141.23C348.763 141.756 348.632 142.319 348.632 142.92V143.886C348.632 144.71 348.775 145.409 349.059 145.982C349.347 146.55 349.748 146.983 350.259 147.281C350.77 147.575 351.364 147.722 352.042 147.722C352.482 147.722 352.88 147.66 353.235 147.537C353.595 147.409 353.905 147.22 354.165 146.969C354.426 146.713 354.627 146.396 354.769 146.017L356.388 146.472C356.218 147.021 355.931 147.504 355.529 147.92C355.126 148.332 354.629 148.654 354.037 148.886C353.445 149.114 352.78 149.227 352.042 149.227ZM359.856 153.091C359.572 153.091 359.318 153.067 359.096 153.02C358.873 152.977 358.719 152.935 358.634 152.892L359.06 151.415C359.468 151.519 359.827 151.557 360.14 151.528C360.452 151.5 360.729 151.36 360.971 151.109C361.217 150.863 361.442 150.463 361.646 149.909L361.958 149.057L357.924 138.091H359.742L362.754 146.784H362.867L365.879 138.091H367.697L363.066 150.591C362.858 151.154 362.6 151.621 362.292 151.99C361.984 152.364 361.627 152.641 361.219 152.821C360.817 153.001 360.362 153.091 359.856 153.091ZM374.092 149.227C373.041 149.227 372.134 148.995 371.372 148.531C370.615 148.062 370.03 147.409 369.618 146.571C369.211 145.728 369.007 144.748 369.007 143.631C369.007 142.513 369.211 141.528 369.618 140.676C370.03 139.819 370.603 139.152 371.337 138.673C372.075 138.19 372.937 137.949 373.922 137.949C374.49 137.949 375.051 138.044 375.605 138.233C376.159 138.422 376.663 138.73 377.118 139.156C377.572 139.578 377.935 140.136 378.205 140.832C378.474 141.528 378.609 142.385 378.609 143.403V144.114H370.2V142.665H376.905C376.905 142.049 376.782 141.5 376.536 141.017C376.294 140.534 375.948 140.153 375.499 139.874C375.054 139.594 374.528 139.455 373.922 139.455C373.254 139.455 372.677 139.62 372.189 139.952C371.706 140.278 371.334 140.705 371.074 141.23C370.813 141.756 370.683 142.319 370.683 142.92V143.886C370.683 144.71 370.825 145.409 371.109 145.982C371.398 146.55 371.798 146.983 372.31 147.281C372.821 147.575 373.415 147.722 374.092 147.722C374.533 147.722 374.93 147.66 375.286 147.537C375.645 147.409 375.955 147.22 376.216 146.969C376.476 146.713 376.678 146.396 376.82 146.017L378.439 146.472C378.268 147.021 377.982 147.504 377.58 147.92C377.177 148.332 376.68 148.654 376.088 148.886C375.496 149.114 374.831 149.227 374.092 149.227ZM391.528 138.091V139.511H385.875V138.091H391.528ZM387.523 135.477H389.199V145.875C389.199 146.348 389.268 146.704 389.405 146.94C389.547 147.172 389.727 147.329 389.945 147.409C390.167 147.485 390.402 147.523 390.648 147.523C390.832 147.523 390.984 147.513 391.102 147.494C391.221 147.471 391.315 147.452 391.386 147.438L391.727 148.943C391.614 148.986 391.455 149.028 391.251 149.071C391.048 149.118 390.79 149.142 390.477 149.142C390.004 149.142 389.54 149.04 389.085 148.837C388.635 148.633 388.261 148.323 387.963 147.906C387.67 147.49 387.523 146.964 387.523 146.33V135.477ZM395.96 142.438V149H394.284V134.455H395.96V139.795H396.102C396.358 139.232 396.741 138.785 397.253 138.453C397.769 138.117 398.455 137.949 399.312 137.949C400.056 137.949 400.707 138.098 401.266 138.396C401.824 138.69 402.258 139.142 402.565 139.753C402.878 140.359 403.034 141.131 403.034 142.068V149H401.358V142.182C401.358 141.315 401.133 140.645 400.683 140.172C400.238 139.694 399.62 139.455 398.83 139.455C398.28 139.455 397.788 139.571 397.352 139.803C396.921 140.035 396.58 140.373 396.33 140.818C396.083 141.263 395.96 141.803 395.96 142.438ZM410.674 149.227C409.623 149.227 408.717 148.995 407.954 148.531C407.197 148.062 406.612 147.409 406.2 146.571C405.793 145.728 405.589 144.748 405.589 143.631C405.589 142.513 405.793 141.528 406.2 140.676C406.612 139.819 407.185 139.152 407.919 138.673C408.657 138.19 409.519 137.949 410.504 137.949C411.072 137.949 411.633 138.044 412.187 138.233C412.741 138.422 413.245 138.73 413.7 139.156C414.154 139.578 414.517 140.136 414.787 140.832C415.056 141.528 415.191 142.385 415.191 143.403V144.114H406.782V142.665H413.487C413.487 142.049 413.364 141.5 413.118 141.017C412.876 140.534 412.53 140.153 412.081 139.874C411.636 139.594 411.11 139.455 410.504 139.455C409.836 139.455 409.259 139.62 408.771 139.952C408.288 140.278 407.916 140.705 407.656 141.23C407.395 141.756 407.265 142.319 407.265 142.92V143.886C407.265 144.71 407.407 145.409 407.691 145.982C407.98 146.55 408.38 146.983 408.892 147.281C409.403 147.575 409.997 147.722 410.674 147.722C411.115 147.722 411.512 147.66 411.868 147.537C412.227 147.409 412.538 147.22 412.798 146.969C413.058 146.713 413.26 146.396 413.402 146.017L415.021 146.472C414.85 147.021 414.564 147.504 414.162 147.92C413.759 148.332 413.262 148.654 412.67 148.886C412.078 149.114 411.413 149.227 410.674 149.227ZM423.593 149V134.455H425.27V139.824H425.412C425.535 139.634 425.705 139.393 425.923 139.099C426.145 138.801 426.463 138.536 426.875 138.304C427.291 138.067 427.855 137.949 428.565 137.949C429.484 137.949 430.293 138.179 430.994 138.638C431.695 139.097 432.242 139.748 432.635 140.591C433.028 141.434 433.224 142.428 433.224 143.574C433.224 144.729 433.028 145.731 432.635 146.578C432.242 147.421 431.697 148.074 431.001 148.538C430.305 148.998 429.502 149.227 428.593 149.227C427.893 149.227 427.332 149.111 426.91 148.879C426.489 148.643 426.164 148.375 425.937 148.077C425.71 147.774 425.535 147.523 425.412 147.324H425.213V149H423.593ZM425.241 143.545C425.241 144.369 425.362 145.096 425.603 145.726C425.845 146.351 426.198 146.841 426.662 147.196C427.126 147.546 427.694 147.722 428.366 147.722C429.067 147.722 429.652 147.537 430.12 147.168C430.594 146.794 430.949 146.292 431.186 145.662C431.427 145.027 431.548 144.322 431.548 143.545C431.548 142.778 431.43 142.087 431.193 141.472C430.961 140.851 430.608 140.361 430.135 140.001C429.666 139.637 429.076 139.455 428.366 139.455C427.684 139.455 427.111 139.627 426.647 139.973C426.183 140.314 425.833 140.792 425.596 141.408C425.359 142.018 425.241 142.731 425.241 143.545ZM440.22 149.227C439.235 149.227 438.371 148.993 437.627 148.524C436.889 148.055 436.311 147.4 435.895 146.557C435.483 145.714 435.277 144.729 435.277 143.602C435.277 142.466 435.483 141.474 435.895 140.626C436.311 139.779 436.889 139.121 437.627 138.652C438.371 138.183 439.235 137.949 440.22 137.949C441.205 137.949 442.066 138.183 442.805 138.652C443.548 139.121 444.126 139.779 444.538 140.626C444.955 141.474 445.163 142.466 445.163 143.602C445.163 144.729 444.955 145.714 444.538 146.557C444.126 147.4 443.548 148.055 442.805 148.524C442.066 148.993 441.205 149.227 440.22 149.227ZM440.22 147.722C440.968 147.722 441.583 147.53 442.066 147.146C442.549 146.763 442.907 146.259 443.139 145.634C443.371 145.009 443.487 144.331 443.487 143.602C443.487 142.873 443.371 142.194 443.139 141.564C442.907 140.934 442.549 140.425 442.066 140.037C441.583 139.649 440.968 139.455 440.22 139.455C439.472 139.455 438.856 139.649 438.373 140.037C437.89 140.425 437.533 140.934 437.301 141.564C437.069 142.194 436.953 142.873 436.953 143.602C436.953 144.331 437.069 145.009 437.301 145.634C437.533 146.259 437.89 146.763 438.373 147.146C438.856 147.53 439.472 147.722 440.22 147.722ZM452.153 149.227C451.169 149.227 450.304 148.993 449.561 148.524C448.822 148.055 448.245 147.4 447.828 146.557C447.416 145.714 447.21 144.729 447.21 143.602C447.21 142.466 447.416 141.474 447.828 140.626C448.245 139.779 448.822 139.121 449.561 138.652C450.304 138.183 451.169 137.949 452.153 137.949C453.138 137.949 454 138.183 454.739 138.652C455.482 139.121 456.06 139.779 456.472 140.626C456.888 141.474 457.097 142.466 457.097 143.602C457.097 144.729 456.888 145.714 456.472 146.557C456.06 147.4 455.482 148.055 454.739 148.524C454 148.993 453.138 149.227 452.153 149.227ZM452.153 147.722C452.902 147.722 453.517 147.53 454 147.146C454.483 146.763 454.84 146.259 455.072 145.634C455.304 145.009 455.42 144.331 455.42 143.602C455.42 142.873 455.304 142.194 455.072 141.564C454.84 140.934 454.483 140.425 454 140.037C453.517 139.649 452.902 139.455 452.153 139.455C451.405 139.455 450.79 139.649 450.307 140.037C449.824 140.425 449.466 140.934 449.234 141.564C449.002 142.194 448.886 142.873 448.886 143.602C448.886 144.331 449.002 145.009 449.234 145.634C449.466 146.259 449.824 146.763 450.307 147.146C450.79 147.53 451.405 147.722 452.153 147.722ZM464.4 138.091V139.511H458.746V138.091H464.4ZM460.394 135.477H462.07V145.875C462.07 146.348 462.139 146.704 462.276 146.94C462.418 147.172 462.598 147.329 462.816 147.409C463.038 147.485 463.273 147.523 463.519 147.523C463.703 147.523 463.855 147.513 463.973 147.494C464.092 147.471 464.186 147.452 464.257 147.438L464.598 148.943C464.485 148.986 464.326 149.028 464.123 149.071C463.919 149.118 463.661 149.142 463.348 149.142C462.875 149.142 462.411 149.04 461.956 148.837C461.507 148.633 461.132 148.323 460.834 147.906C460.541 147.49 460.394 146.964 460.394 146.33V135.477ZM468.831 142.438V149H467.155V134.455H468.831V139.795H468.973C469.229 139.232 469.613 138.785 470.124 138.453C470.64 138.117 471.327 137.949 472.184 137.949C472.927 137.949 473.578 138.098 474.137 138.396C474.695 138.69 475.129 139.142 475.436 139.753C475.749 140.359 475.905 141.131 475.905 142.068V149H474.229V142.182C474.229 141.315 474.004 140.645 473.554 140.172C473.109 139.694 472.491 139.455 471.701 139.455C471.151 139.455 470.659 139.571 470.223 139.803C469.792 140.035 469.452 140.373 469.201 140.818C468.954 141.263 468.831 141.803 468.831 142.438ZM486.699 140.534L485.193 140.96C485.098 140.709 484.959 140.465 484.774 140.229C484.594 139.987 484.348 139.788 484.036 139.632C483.723 139.476 483.323 139.398 482.835 139.398C482.168 139.398 481.611 139.552 481.166 139.859C480.726 140.162 480.506 140.548 480.506 141.017C480.506 141.434 480.657 141.763 480.96 142.004C481.263 142.246 481.737 142.447 482.381 142.608L484 143.006C484.975 143.242 485.702 143.605 486.18 144.092C486.659 144.575 486.898 145.198 486.898 145.96C486.898 146.585 486.718 147.144 486.358 147.636C486.003 148.129 485.506 148.517 484.866 148.801C484.227 149.085 483.484 149.227 482.636 149.227C481.524 149.227 480.603 148.986 479.874 148.503C479.144 148.02 478.683 147.314 478.489 146.386L480.08 145.989C480.231 146.576 480.518 147.016 480.939 147.31C481.365 147.603 481.921 147.75 482.608 147.75C483.389 147.75 484.009 147.584 484.469 147.253C484.933 146.917 485.165 146.514 485.165 146.045C485.165 145.667 485.032 145.349 484.767 145.094C484.502 144.833 484.095 144.639 483.545 144.511L481.727 144.085C480.728 143.848 479.994 143.482 479.526 142.984C479.062 142.482 478.83 141.855 478.83 141.102C478.83 140.487 479.002 139.942 479.348 139.469C479.698 138.995 480.174 138.624 480.776 138.354C481.382 138.084 482.068 137.949 482.835 137.949C483.915 137.949 484.762 138.186 485.378 138.659C485.998 139.133 486.438 139.758 486.699 140.534ZM497.517 149L494.194 138.091H495.955L498.313 146.443H498.426L500.756 138.091H502.546L504.847 146.415H504.961L507.319 138.091H509.08L505.756 149H504.108L501.722 140.619H501.551L499.165 149H497.517ZM514.506 149.256C513.815 149.256 513.187 149.125 512.624 148.865C512.06 148.6 511.613 148.219 511.282 147.722C510.95 147.22 510.784 146.614 510.784 145.903C510.784 145.278 510.908 144.772 511.154 144.384C511.4 143.991 511.729 143.683 512.141 143.46C512.553 143.238 513.007 143.072 513.505 142.963C514.007 142.849 514.511 142.759 515.017 142.693C515.68 142.608 516.218 142.544 516.63 142.501C517.046 142.454 517.349 142.376 517.539 142.267C517.733 142.158 517.83 141.969 517.83 141.699V141.642C517.83 140.941 517.638 140.397 517.255 140.009C516.876 139.62 516.301 139.426 515.529 139.426C514.729 139.426 514.101 139.601 513.647 139.952C513.192 140.302 512.873 140.676 512.688 141.074L511.097 140.506C511.381 139.843 511.76 139.327 512.233 138.957C512.712 138.583 513.232 138.323 513.796 138.176C514.364 138.025 514.923 137.949 515.472 137.949C515.822 137.949 516.225 137.991 516.679 138.077C517.139 138.157 517.581 138.325 518.007 138.581C518.438 138.837 518.796 139.223 519.08 139.739C519.364 140.255 519.506 140.946 519.506 141.812V149H517.83V147.523H517.745C517.631 147.759 517.442 148.013 517.176 148.283C516.911 148.553 516.559 148.782 516.118 148.972C515.678 149.161 515.141 149.256 514.506 149.256ZM514.762 147.75C515.425 147.75 515.983 147.62 516.438 147.359C516.897 147.099 517.243 146.763 517.475 146.351C517.712 145.939 517.83 145.506 517.83 145.051V143.517C517.759 143.602 517.603 143.68 517.361 143.751C517.124 143.818 516.85 143.877 516.537 143.929C516.23 143.976 515.929 144.019 515.635 144.057C515.346 144.09 515.112 144.118 514.932 144.142C514.497 144.199 514.089 144.291 513.711 144.419C513.337 144.542 513.033 144.729 512.801 144.98C512.574 145.226 512.461 145.562 512.461 145.989C512.461 146.571 512.676 147.011 513.107 147.31C513.542 147.603 514.094 147.75 514.762 147.75ZM522.565 149V138.091H524.185V139.739H524.298C524.497 139.199 524.857 138.761 525.378 138.425C525.899 138.089 526.486 137.92 527.139 137.92C527.262 137.92 527.416 137.923 527.601 137.928C527.786 137.932 527.925 137.939 528.02 137.949V139.653C527.963 139.639 527.833 139.618 527.629 139.589C527.43 139.556 527.22 139.54 526.997 139.54C526.467 139.54 525.993 139.651 525.577 139.874C525.165 140.091 524.838 140.394 524.597 140.783C524.36 141.166 524.241 141.604 524.241 142.097V149H522.565ZM530.007 149V138.091H531.683V149H530.007ZM530.859 136.273C530.532 136.273 530.251 136.161 530.014 135.939C529.782 135.716 529.666 135.449 529.666 135.136C529.666 134.824 529.782 134.556 530.014 134.334C530.251 134.111 530.532 134 530.859 134C531.186 134 531.465 134.111 531.697 134.334C531.934 134.556 532.052 134.824 532.052 135.136C532.052 135.449 531.934 135.716 531.697 135.939C531.465 136.161 531.186 136.273 530.859 136.273ZM536.429 134.455V149H534.753V134.455H536.429ZM540.578 153.091C540.294 153.091 540.041 153.067 539.819 153.02C539.596 152.977 539.442 152.935 539.357 152.892L539.783 151.415C540.19 151.519 540.55 151.557 540.863 151.528C541.175 151.5 541.452 151.36 541.694 151.109C541.94 150.863 542.165 150.463 542.368 149.909L542.681 149.057L538.647 138.091H540.465L543.476 146.784H543.59L546.601 138.091H548.419L543.789 150.591C543.58 151.154 543.322 151.621 543.015 151.99C542.707 152.364 542.349 152.641 541.942 152.821C541.54 153.001 541.085 153.091 540.578 153.091ZM551.17 149.114C550.819 149.114 550.519 148.988 550.268 148.737C550.017 148.486 549.891 148.186 549.891 147.835C549.891 147.485 550.017 147.184 550.268 146.933C550.519 146.682 550.819 146.557 551.17 146.557C551.52 146.557 551.821 146.682 552.072 146.933C552.323 147.184 552.448 147.485 552.448 147.835C552.448 148.067 552.389 148.28 552.271 148.474C552.157 148.669 552.003 148.825 551.809 148.943C551.62 149.057 551.406 149.114 551.17 149.114ZM562.757 142.438V149H561.081V138.091H562.7V139.795H562.842C563.098 139.241 563.486 138.796 564.007 138.46C564.528 138.119 565.2 137.949 566.024 137.949C566.763 137.949 567.409 138.1 567.963 138.403C568.517 138.702 568.948 139.156 569.256 139.767C569.563 140.373 569.717 141.14 569.717 142.068V149H568.041V142.182C568.041 141.325 567.819 140.657 567.374 140.179C566.929 139.696 566.318 139.455 565.541 139.455C565.006 139.455 564.528 139.571 564.107 139.803C563.69 140.035 563.361 140.373 563.119 140.818C562.878 141.263 562.757 141.803 562.757 142.438ZM577.212 149.227C576.227 149.227 575.363 148.993 574.62 148.524C573.881 148.055 573.303 147.4 572.887 146.557C572.475 145.714 572.269 144.729 572.269 143.602C572.269 142.466 572.475 141.474 572.887 140.626C573.303 139.779 573.881 139.121 574.62 138.652C575.363 138.183 576.227 137.949 577.212 137.949C578.197 137.949 579.059 138.183 579.797 138.652C580.541 139.121 581.118 139.779 581.53 140.626C581.947 141.474 582.155 142.466 582.155 143.602C582.155 144.729 581.947 145.714 581.53 146.557C581.118 147.4 580.541 148.055 579.797 148.524C579.059 148.993 578.197 149.227 577.212 149.227ZM577.212 147.722C577.96 147.722 578.576 147.53 579.059 147.146C579.542 146.763 579.899 146.259 580.131 145.634C580.363 145.009 580.479 144.331 580.479 143.602C580.479 142.873 580.363 142.194 580.131 141.564C579.899 140.934 579.542 140.425 579.059 140.037C578.576 139.649 577.96 139.455 577.212 139.455C576.464 139.455 575.848 139.649 575.365 140.037C574.882 140.425 574.525 140.934 574.293 141.564C574.061 142.194 573.945 142.873 573.945 143.602C573.945 144.331 574.061 145.009 574.293 145.634C574.525 146.259 574.882 146.763 575.365 147.146C575.848 147.53 576.464 147.722 577.212 147.722ZM584.941 149V134.455H586.617V139.824H586.759C586.882 139.634 587.053 139.393 587.271 139.099C587.493 138.801 587.81 138.536 588.222 138.304C588.639 138.067 589.202 137.949 589.913 137.949C590.831 137.949 591.641 138.179 592.342 138.638C593.042 139.097 593.589 139.748 593.982 140.591C594.375 141.434 594.572 142.428 594.572 143.574C594.572 144.729 594.375 145.731 593.982 146.578C593.589 147.421 593.045 148.074 592.349 148.538C591.653 148.998 590.85 149.227 589.941 149.227C589.24 149.227 588.679 149.111 588.258 148.879C587.836 148.643 587.512 148.375 587.285 148.077C587.058 147.774 586.882 147.523 586.759 147.324H586.56V149H584.941ZM586.589 143.545C586.589 144.369 586.71 145.096 586.951 145.726C587.192 146.351 587.545 146.841 588.009 147.196C588.473 147.546 589.041 147.722 589.714 147.722C590.415 147.722 590.999 147.537 591.468 147.168C591.942 146.794 592.297 146.292 592.533 145.662C592.775 145.027 592.896 144.322 592.896 143.545C592.896 142.778 592.777 142.087 592.54 141.472C592.308 140.851 591.956 140.361 591.482 140.001C591.013 139.637 590.424 139.455 589.714 139.455C589.032 139.455 588.459 139.627 587.995 139.973C587.531 140.314 587.181 140.792 586.944 141.408C586.707 142.018 586.589 142.731 586.589 143.545ZM601.567 149.227C600.583 149.227 599.719 148.993 598.975 148.524C598.237 148.055 597.659 147.4 597.242 146.557C596.83 145.714 596.624 144.729 596.624 143.602C596.624 142.466 596.83 141.474 597.242 140.626C597.659 139.779 598.237 139.121 598.975 138.652C599.719 138.183 600.583 137.949 601.567 137.949C602.552 137.949 603.414 138.183 604.153 138.652C604.896 139.121 605.474 139.779 605.886 140.626C606.302 141.474 606.511 142.466 606.511 143.602C606.511 144.729 606.302 145.714 605.886 146.557C605.474 147.4 604.896 148.055 604.153 148.524C603.414 148.993 602.552 149.227 601.567 149.227ZM601.567 147.722C602.316 147.722 602.931 147.53 603.414 147.146C603.897 146.763 604.254 146.259 604.487 145.634C604.719 145.009 604.835 144.331 604.835 143.602C604.835 142.873 604.719 142.194 604.487 141.564C604.254 140.934 603.897 140.425 603.414 140.037C602.931 139.649 602.316 139.455 601.567 139.455C600.819 139.455 600.204 139.649 599.721 140.037C599.238 140.425 598.88 140.934 598.648 141.564C598.416 142.194 598.3 142.873 598.3 143.602C598.3 144.331 598.416 145.009 598.648 145.634C598.88 146.259 599.238 146.763 599.721 147.146C600.204 147.53 600.819 147.722 601.567 147.722ZM613.189 149.227C612.279 149.227 611.477 148.998 610.781 148.538C610.085 148.074 609.54 147.421 609.147 146.578C608.754 145.731 608.558 144.729 608.558 143.574C608.558 142.428 608.754 141.434 609.147 140.591C609.54 139.748 610.087 139.097 610.788 138.638C611.489 138.179 612.298 137.949 613.217 137.949C613.927 137.949 614.488 138.067 614.9 138.304C615.317 138.536 615.634 138.801 615.852 139.099C616.074 139.393 616.247 139.634 616.37 139.824H616.512V134.455H618.189V149H616.569V147.324H616.37C616.247 147.523 616.072 147.774 615.845 148.077C615.618 148.375 615.293 148.643 614.872 148.879C614.45 149.111 613.889 149.227 613.189 149.227ZM613.416 147.722C614.088 147.722 614.656 147.546 615.12 147.196C615.584 146.841 615.937 146.351 616.179 145.726C616.42 145.096 616.541 144.369 616.541 143.545C616.541 142.731 616.422 142.018 616.186 141.408C615.949 140.792 615.599 140.314 615.135 139.973C614.671 139.627 614.098 139.455 613.416 139.455C612.706 139.455 612.114 139.637 611.64 140.001C611.172 140.361 610.819 140.851 610.582 141.472C610.35 142.087 610.234 142.778 610.234 143.545C610.234 144.322 610.352 145.027 610.589 145.662C610.831 146.292 611.186 146.794 611.654 147.168C612.128 147.537 612.715 147.722 613.416 147.722ZM622.571 153.091C622.287 153.091 622.033 153.067 621.811 153.02C621.588 152.977 621.434 152.935 621.349 152.892L621.775 151.415C622.182 151.519 622.542 151.557 622.855 151.528C623.167 151.5 623.444 151.36 623.686 151.109C623.932 150.863 624.157 150.463 624.36 149.909L624.673 149.057L620.639 138.091H622.457L625.468 146.784H625.582L628.593 138.091H630.412L625.781 150.591C625.573 151.154 625.315 151.621 625.007 151.99C624.699 152.364 624.342 152.641 623.934 152.821C623.532 153.001 623.077 153.091 622.571 153.091ZM642.368 149.227C641.459 149.227 640.657 148.998 639.961 148.538C639.265 148.074 638.72 147.421 638.327 146.578C637.934 145.731 637.738 144.729 637.738 143.574C637.738 142.428 637.934 141.434 638.327 140.591C638.72 139.748 639.267 139.097 639.968 138.638C640.668 138.179 641.478 137.949 642.397 137.949C643.107 137.949 643.668 138.067 644.08 138.304C644.497 138.536 644.814 138.801 645.032 139.099C645.254 139.393 645.427 139.634 645.55 139.824H645.692V134.455H647.368V149H645.749V147.324H645.55C645.427 147.523 645.252 147.774 645.025 148.077C644.797 148.375 644.473 148.643 644.051 148.879C643.63 149.111 643.069 149.227 642.368 149.227ZM642.596 147.722C643.268 147.722 643.836 147.546 644.3 147.196C644.764 146.841 645.117 146.351 645.358 145.726C645.6 145.096 645.721 144.369 645.721 143.545C645.721 142.731 645.602 142.018 645.365 141.408C645.129 140.792 644.778 140.314 644.314 139.973C643.85 139.627 643.277 139.455 642.596 139.455C641.885 139.455 641.293 139.637 640.82 140.001C640.351 140.361 639.998 140.851 639.762 141.472C639.53 142.087 639.414 142.778 639.414 143.545C639.414 144.322 639.532 145.027 639.769 145.662C640.01 146.292 640.365 146.794 640.834 147.168C641.308 147.537 641.895 147.722 642.596 147.722ZM653.881 149.256C653.19 149.256 652.562 149.125 651.999 148.865C651.435 148.6 650.988 148.219 650.657 147.722C650.325 147.22 650.159 146.614 650.159 145.903C650.159 145.278 650.283 144.772 650.529 144.384C650.775 143.991 651.104 143.683 651.516 143.46C651.928 143.238 652.382 143.072 652.88 142.963C653.382 142.849 653.886 142.759 654.392 142.693C655.055 142.608 655.593 142.544 656.005 142.501C656.421 142.454 656.724 142.376 656.914 142.267C657.108 142.158 657.205 141.969 657.205 141.699V141.642C657.205 140.941 657.013 140.397 656.63 140.009C656.251 139.62 655.676 139.426 654.904 139.426C654.104 139.426 653.476 139.601 653.022 139.952C652.567 140.302 652.248 140.676 652.063 141.074L650.472 140.506C650.756 139.843 651.135 139.327 651.608 138.957C652.087 138.583 652.607 138.323 653.171 138.176C653.739 138.025 654.298 137.949 654.847 137.949C655.197 137.949 655.6 137.991 656.054 138.077C656.514 138.157 656.956 138.325 657.382 138.581C657.813 138.837 658.171 139.223 658.455 139.739C658.739 140.255 658.881 140.946 658.881 141.812V149H657.205V147.523H657.12C657.006 147.759 656.817 148.013 656.551 148.283C656.286 148.553 655.934 148.782 655.493 148.972C655.053 149.161 654.516 149.256 653.881 149.256ZM654.137 147.75C654.8 147.75 655.358 147.62 655.813 147.359C656.272 147.099 656.618 146.763 656.85 146.351C657.087 145.939 657.205 145.506 657.205 145.051V143.517C657.134 143.602 656.978 143.68 656.736 143.751C656.499 143.818 656.225 143.877 655.912 143.929C655.605 143.976 655.304 144.019 655.01 144.057C654.721 144.09 654.487 144.118 654.307 144.142C653.872 144.199 653.464 144.291 653.086 144.419C652.712 144.542 652.408 144.729 652.176 144.98C651.949 145.226 651.836 145.562 651.836 145.989C651.836 146.571 652.051 147.011 652.482 147.31C652.917 147.603 653.469 147.75 654.137 147.75ZM661.94 149V138.091H663.56V139.739H663.673C663.872 139.199 664.232 138.761 664.753 138.425C665.274 138.089 665.861 137.92 666.514 137.92C666.637 137.92 666.791 137.923 666.976 137.928C667.161 137.932 667.3 137.939 667.395 137.949V139.653C667.338 139.639 667.208 139.618 667.004 139.589C666.805 139.556 666.595 139.54 666.372 139.54C665.842 139.54 665.368 139.651 664.952 139.874C664.54 140.091 664.213 140.394 663.972 140.783C663.735 141.166 663.616 141.604 663.616 142.097V149H661.94ZM673.624 149.227C672.572 149.227 671.666 148.995 670.903 148.531C670.146 148.062 669.561 147.409 669.149 146.571C668.742 145.728 668.538 144.748 668.538 143.631C668.538 142.513 668.742 141.528 669.149 140.676C669.561 139.819 670.134 139.152 670.868 138.673C671.607 138.19 672.468 137.949 673.453 137.949C674.021 137.949 674.582 138.044 675.136 138.233C675.69 138.422 676.195 138.73 676.649 139.156C677.104 139.578 677.466 140.136 677.736 140.832C678.006 141.528 678.141 142.385 678.141 143.403V144.114H669.732V142.665H676.436C676.436 142.049 676.313 141.5 676.067 141.017C675.825 140.534 675.48 140.153 675.03 139.874C674.585 139.594 674.059 139.455 673.453 139.455C672.786 139.455 672.208 139.62 671.72 139.952C671.237 140.278 670.866 140.705 670.605 141.23C670.345 141.756 670.214 142.319 670.214 142.92V143.886C670.214 144.71 670.357 145.409 670.641 145.982C670.929 146.55 671.33 146.983 671.841 147.281C672.352 147.575 672.946 147.722 673.624 147.722C674.064 147.722 674.462 147.66 674.817 147.537C675.177 147.409 675.487 147.22 675.747 146.969C676.008 146.713 676.209 146.396 676.351 146.017L677.97 146.472C677.8 147.021 677.513 147.504 677.111 147.92C676.708 148.332 676.211 148.654 675.619 148.886C675.027 149.114 674.362 149.227 673.624 149.227ZM688.418 140.534L686.912 140.96C686.817 140.709 686.678 140.465 686.493 140.229C686.313 139.987 686.067 139.788 685.754 139.632C685.442 139.476 685.042 139.398 684.554 139.398C683.886 139.398 683.33 139.552 682.885 139.859C682.445 140.162 682.224 140.548 682.224 141.017C682.224 141.434 682.376 141.763 682.679 142.004C682.982 142.246 683.455 142.447 684.099 142.608L685.719 143.006C686.694 143.242 687.421 143.605 687.899 144.092C688.377 144.575 688.616 145.198 688.616 145.96C688.616 146.585 688.437 147.144 688.077 147.636C687.722 148.129 687.224 148.517 686.585 148.801C685.946 149.085 685.203 149.227 684.355 149.227C683.242 149.227 682.321 148.986 681.592 148.503C680.863 148.02 680.402 147.314 680.207 146.386L681.798 145.989C681.95 146.576 682.236 147.016 682.658 147.31C683.084 147.603 683.64 147.75 684.327 147.75C685.108 147.75 685.728 147.584 686.188 147.253C686.652 146.917 686.884 146.514 686.884 146.045C686.884 145.667 686.751 145.349 686.486 145.094C686.221 144.833 685.813 144.639 685.264 144.511L683.446 144.085C682.447 143.848 681.713 143.482 681.244 142.984C680.78 142.482 680.548 141.855 680.548 141.102C680.548 140.487 680.721 139.942 681.067 139.469C681.417 138.995 681.893 138.624 682.494 138.354C683.1 138.084 683.787 137.949 684.554 137.949C685.634 137.949 686.481 138.186 687.097 138.659C687.717 139.133 688.157 139.758 688.418 140.534ZM704.492 140.534L702.986 140.96C702.891 140.709 702.752 140.465 702.567 140.229C702.387 139.987 702.141 139.788 701.828 139.632C701.516 139.476 701.116 139.398 700.628 139.398C699.961 139.398 699.404 139.552 698.959 139.859C698.519 140.162 698.299 140.548 698.299 141.017C698.299 141.434 698.45 141.763 698.753 142.004C699.056 142.246 699.53 142.447 700.174 142.608L701.793 143.006C702.768 143.242 703.495 143.605 703.973 144.092C704.452 144.575 704.691 145.198 704.691 145.96C704.691 146.585 704.511 147.144 704.151 147.636C703.796 148.129 703.299 148.517 702.659 148.801C702.02 149.085 701.277 149.227 700.429 149.227C699.317 149.227 698.396 148.986 697.667 148.503C696.937 148.02 696.476 147.314 696.282 146.386L697.873 145.989C698.024 146.576 698.31 147.016 698.732 147.31C699.158 147.603 699.714 147.75 700.401 147.75C701.182 147.75 701.802 147.584 702.262 147.253C702.726 146.917 702.958 146.514 702.958 146.045C702.958 145.667 702.825 145.349 702.56 145.094C702.295 144.833 701.888 144.639 701.338 144.511L699.52 144.085C698.521 143.848 697.787 143.482 697.319 142.984C696.855 142.482 696.623 141.855 696.623 141.102C696.623 140.487 696.795 139.942 697.141 139.469C697.491 138.995 697.967 138.624 698.569 138.354C699.175 138.084 699.861 137.949 700.628 137.949C701.708 137.949 702.555 138.186 703.171 138.659C703.791 139.133 704.231 139.758 704.492 140.534ZM711.958 138.091V139.511H706.305V138.091H711.958ZM707.952 135.477H709.629V145.875C709.629 146.348 709.697 146.704 709.835 146.94C709.977 147.172 710.156 147.329 710.374 147.409C710.597 147.485 710.831 147.523 711.077 147.523C711.262 147.523 711.414 147.513 711.532 147.494C711.65 147.471 711.745 147.452 711.816 147.438L712.157 148.943C712.043 148.986 711.885 149.028 711.681 149.071C711.478 149.118 711.219 149.142 710.907 149.142C710.433 149.142 709.969 149.04 709.515 148.837C709.065 148.633 708.691 148.323 708.393 147.906C708.099 147.49 707.952 146.964 707.952 146.33V135.477ZM718.936 149.227C717.885 149.227 716.978 148.995 716.216 148.531C715.458 148.062 714.874 147.409 714.462 146.571C714.054 145.728 713.851 144.748 713.851 143.631C713.851 142.513 714.054 141.528 714.462 140.676C714.874 139.819 715.446 139.152 716.18 138.673C716.919 138.19 717.781 137.949 718.766 137.949C719.334 137.949 719.895 138.044 720.449 138.233C721.003 138.422 721.507 138.73 721.962 139.156C722.416 139.578 722.778 140.136 723.048 140.832C723.318 141.528 723.453 142.385 723.453 143.403V144.114H715.044V142.665H721.749C721.749 142.049 721.625 141.5 721.379 141.017C721.138 140.534 720.792 140.153 720.342 139.874C719.897 139.594 719.372 139.455 718.766 139.455C718.098 139.455 717.52 139.62 717.033 139.952C716.55 140.278 716.178 140.705 715.918 141.23C715.657 141.756 715.527 142.319 715.527 142.92V143.886C715.527 144.71 715.669 145.409 715.953 145.982C716.242 146.55 716.642 146.983 717.153 147.281C717.665 147.575 718.259 147.722 718.936 147.722C719.376 147.722 719.774 147.66 720.129 147.537C720.489 147.409 720.799 147.22 721.06 146.969C721.32 146.713 721.521 146.396 721.663 146.017L723.283 146.472C723.112 147.021 722.826 147.504 722.423 147.92C722.021 148.332 721.524 148.654 720.932 148.886C720.34 149.114 719.675 149.227 718.936 149.227ZM726.003 153.091V138.091H727.622V139.824H727.821C727.944 139.634 728.115 139.393 728.332 139.099C728.555 138.801 728.872 138.536 729.284 138.304C729.701 138.067 730.264 137.949 730.974 137.949C731.893 137.949 732.703 138.179 733.403 138.638C734.104 139.097 734.651 139.748 735.044 140.591C735.437 141.434 735.634 142.428 735.634 143.574C735.634 144.729 735.437 145.731 735.044 146.578C734.651 147.421 734.107 148.074 733.411 148.538C732.714 148.998 731.912 149.227 731.003 149.227C730.302 149.227 729.741 149.111 729.32 148.879C728.898 148.643 728.574 148.375 728.347 148.077C728.119 147.774 727.944 147.523 727.821 147.324H727.679V153.091H726.003ZM727.651 143.545C727.651 144.369 727.771 145.096 728.013 145.726C728.254 146.351 728.607 146.841 729.071 147.196C729.535 147.546 730.103 147.722 730.776 147.722C731.476 147.722 732.061 147.537 732.53 147.168C733.003 146.794 733.358 146.292 733.595 145.662C733.837 145.027 733.957 144.322 733.957 143.545C733.957 142.778 733.839 142.087 733.602 141.472C733.37 140.851 733.018 140.361 732.544 140.001C732.075 139.637 731.486 139.455 730.776 139.455C730.094 139.455 729.521 139.627 729.057 139.973C728.593 140.314 728.242 140.792 728.006 141.408C727.769 142.018 727.651 142.731 727.651 143.545ZM748.56 138.091V139.511H742.906V138.091H748.56ZM744.554 135.477H746.23V145.875C746.23 146.348 746.299 146.704 746.436 146.94C746.578 147.172 746.758 147.329 746.976 147.409C747.198 147.485 747.433 147.523 747.679 147.523C747.864 147.523 748.015 147.513 748.134 147.494C748.252 147.471 748.347 147.452 748.418 147.438L748.759 148.943C748.645 148.986 748.486 149.028 748.283 149.071C748.079 149.118 747.821 149.142 747.509 149.142C747.035 149.142 746.571 149.04 746.116 148.837C745.667 148.633 745.293 148.323 744.994 147.906C744.701 147.49 744.554 146.964 744.554 146.33V135.477ZM755.396 149.227C754.411 149.227 753.547 148.993 752.803 148.524C752.065 148.055 751.487 147.4 751.07 146.557C750.658 145.714 750.452 144.729 750.452 143.602C750.452 142.466 750.658 141.474 751.07 140.626C751.487 139.779 752.065 139.121 752.803 138.652C753.547 138.183 754.411 137.949 755.396 137.949C756.38 137.949 757.242 138.183 757.981 138.652C758.724 139.121 759.302 139.779 759.714 140.626C760.13 141.474 760.339 142.466 760.339 143.602C760.339 144.729 760.13 145.714 759.714 146.557C759.302 147.4 758.724 148.055 757.981 148.524C757.242 148.993 756.38 149.227 755.396 149.227ZM755.396 147.722C756.144 147.722 756.759 147.53 757.242 147.146C757.725 146.763 758.083 146.259 758.315 145.634C758.547 145.009 758.663 144.331 758.663 143.602C758.663 142.873 758.547 142.194 758.315 141.564C758.083 140.934 757.725 140.425 757.242 140.037C756.759 139.649 756.144 139.455 755.396 139.455C754.647 139.455 754.032 139.649 753.549 140.037C753.066 140.425 752.709 140.934 752.477 141.564C752.245 142.194 752.129 142.873 752.129 143.602C752.129 144.331 752.245 145.009 752.477 145.634C752.709 146.259 753.066 146.763 753.549 147.146C754.032 147.53 754.647 147.722 755.396 147.722ZM768.522 149V138.091H770.199V149H768.522ZM769.375 136.273C769.048 136.273 768.766 136.161 768.529 135.939C768.297 135.716 768.181 135.449 768.181 135.136C768.181 134.824 768.297 134.556 768.529 134.334C768.766 134.111 769.048 134 769.375 134C769.701 134 769.981 134.111 770.213 134.334C770.449 134.556 770.568 134.824 770.568 135.136C770.568 135.449 770.449 135.716 770.213 135.939C769.981 136.161 769.701 136.273 769.375 136.273ZM778.013 138.091V139.511H772.359V138.091H778.013ZM774.007 135.477H775.683V145.875C775.683 146.348 775.752 146.704 775.889 146.94C776.031 147.172 776.211 147.329 776.429 147.409C776.652 147.485 776.886 147.523 777.132 147.523C777.317 147.523 777.468 147.513 777.587 147.494C777.705 147.471 777.8 147.452 777.871 147.438L778.212 148.943C778.098 148.986 777.939 149.028 777.736 149.071C777.532 149.118 777.274 149.142 776.962 149.142C776.488 149.142 776.024 149.04 775.57 148.837C775.12 148.633 774.746 148.323 774.447 147.906C774.154 147.49 774.007 146.964 774.007 146.33V135.477ZM781.756 149.114C781.405 149.114 781.105 148.988 780.854 148.737C780.603 148.486 780.477 148.186 780.477 147.835C780.477 147.485 780.603 147.184 780.854 146.933C781.105 146.682 781.405 146.557 781.756 146.557C782.106 146.557 782.407 146.682 782.658 146.933C782.909 147.184 783.034 147.485 783.034 147.835C783.034 148.067 782.975 148.28 782.857 148.474C782.743 148.669 782.589 148.825 782.395 148.943C782.205 149.057 781.992 149.114 781.756 149.114Z" fill="black"/>
</g>
<defs>
<clipPath id="clip0_27_69">
<rect width="1024" height="1024" fill="white"/>
</clipPath>
</defs>
</svg>
