<svg width="1024" height="1024" viewBox="0 0 1024 1024" fill="none" xmlns="http://www.w3.org/2000/svg">
<path d="M319.602 167.53C270.08 167.53 220.559 167.53 171.038 167.53C155.47 167.53 140.047 169.901 124.589 171.647C113.914 172.852 95.8906 174.522 91.2073 186.324C85.8076 199.931 90.5212 217.878 89.5964 232.146C88.7782 244.77 87.8605 258.94 91.6548 271.166C100.223 298.774 130.534 295.988 155.376 299.537C187.795 304.168 220.874 303.965 253.553 304.548C287.029 305.146 320.489 307.395 353.968 307.681C422.185 308.264 490.556 307.974 558.735 309.202C626.187 310.418 693.542 312.105 760.997 308.934C788.572 307.638 815.347 301.237 842.975 301.237C850.209 301.237 857.369 300.685 864.454 299.268C880.006 296.158 888.689 282.002 897.121 269.824C911.348 249.274 919.61 213.578 914.035 189.188C908.553 165.203 886.001 170.752 865.886 170.752C827.336 170.752 789.334 169.212 750.794 167.888C733.079 167.279 715.341 168.025 697.634 167.351C679.972 166.678 662.648 164.308 644.92 164.308C535.363 164.308 425.798 162.697 316.38 162.697" stroke="black" stroke-opacity="0.5" stroke-width="3" stroke-linecap="round"/>
<path d="M158.034 227.727C158.034 229.261 157.757 230.587 157.203 231.705C156.649 232.822 155.889 233.684 154.923 234.29C153.957 234.896 152.854 235.199 151.614 235.199C150.373 235.199 149.27 234.896 148.304 234.29C147.338 233.684 146.578 232.822 146.024 231.705C145.47 230.587 145.193 229.261 145.193 227.727C145.193 226.193 145.47 224.867 146.024 223.75C146.578 222.633 147.338 221.771 148.304 221.165C149.27 220.559 150.373 220.256 151.614 220.256C152.854 220.256 153.957 220.559 154.923 221.165C155.889 221.771 156.649 222.633 157.203 223.75C157.757 224.867 158.034 226.193 158.034 227.727ZM156.33 227.727C156.33 226.468 156.119 225.405 155.697 224.538C155.281 223.672 154.715 223.016 154 222.571C153.29 222.126 152.494 221.903 151.614 221.903C150.733 221.903 149.935 222.126 149.22 222.571C148.51 223.016 147.944 223.672 147.523 224.538C147.106 225.405 146.898 226.468 146.898 227.727C146.898 228.987 147.106 230.05 147.523 230.916C147.944 231.783 148.51 232.438 149.22 232.884C149.935 233.329 150.733 233.551 151.614 233.551C152.494 233.551 153.29 233.329 154 232.884C154.715 232.438 155.281 231.783 155.697 230.916C156.119 230.05 156.33 228.987 156.33 227.727ZM162.445 228.438V235H160.768V220.455H162.445V225.795H162.587C162.842 225.232 163.226 224.785 163.737 224.453C164.253 224.117 164.94 223.949 165.797 223.949C166.54 223.949 167.191 224.098 167.75 224.396C168.309 224.69 168.742 225.142 169.05 225.753C169.362 226.359 169.518 227.131 169.518 228.068V235H167.842V228.182C167.842 227.315 167.617 226.645 167.168 226.172C166.723 225.694 166.105 225.455 165.314 225.455C164.765 225.455 164.272 225.571 163.837 225.803C163.406 226.035 163.065 226.373 162.814 226.818C162.568 227.263 162.445 227.803 162.445 228.438ZM185.937 226.534L184.431 226.96C184.337 226.709 184.197 226.465 184.012 226.229C183.833 225.987 183.586 225.788 183.274 225.632C182.961 225.476 182.561 225.398 182.074 225.398C181.406 225.398 180.85 225.552 180.404 225.859C179.964 226.162 179.744 226.548 179.744 227.017C179.744 227.434 179.895 227.763 180.199 228.004C180.502 228.246 180.975 228.447 181.619 228.608L183.238 229.006C184.214 229.242 184.94 229.605 185.419 230.092C185.897 230.575 186.136 231.198 186.136 231.96C186.136 232.585 185.956 233.144 185.596 233.636C185.241 234.129 184.744 234.517 184.105 234.801C183.466 235.085 182.722 235.227 181.875 235.227C180.762 235.227 179.841 234.986 179.112 234.503C178.383 234.02 177.921 233.314 177.727 232.386L179.318 231.989C179.469 232.576 179.756 233.016 180.177 233.31C180.603 233.603 181.16 233.75 181.846 233.75C182.627 233.75 183.248 233.584 183.707 233.253C184.171 232.917 184.403 232.514 184.403 232.045C184.403 231.667 184.27 231.349 184.005 231.094C183.74 230.833 183.333 230.639 182.784 230.511L180.966 230.085C179.967 229.848 179.233 229.482 178.764 228.984C178.3 228.482 178.068 227.855 178.068 227.102C178.068 226.487 178.241 225.942 178.586 225.469C178.937 224.995 179.413 224.624 180.014 224.354C180.62 224.084 181.306 223.949 182.074 223.949C183.153 223.949 184.001 224.186 184.616 224.659C185.236 225.133 185.677 225.758 185.937 226.534ZM193.091 235.227C192.106 235.227 191.242 234.993 190.499 234.524C189.76 234.055 189.182 233.4 188.766 232.557C188.354 231.714 188.148 230.729 188.148 229.602C188.148 228.466 188.354 227.474 188.766 226.626C189.182 225.779 189.76 225.121 190.499 224.652C191.242 224.183 192.106 223.949 193.091 223.949C194.076 223.949 194.938 224.183 195.676 224.652C196.42 225.121 196.997 225.779 197.409 226.626C197.826 227.474 198.034 228.466 198.034 229.602C198.034 230.729 197.826 231.714 197.409 232.557C196.997 233.4 196.42 234.055 195.676 234.524C194.938 234.993 194.076 235.227 193.091 235.227ZM193.091 233.722C193.839 233.722 194.455 233.53 194.938 233.146C195.42 232.763 195.778 232.259 196.01 231.634C196.242 231.009 196.358 230.331 196.358 229.602C196.358 228.873 196.242 228.194 196.01 227.564C195.778 226.934 195.42 226.425 194.938 226.037C194.455 225.649 193.839 225.455 193.091 225.455C192.343 225.455 191.727 225.649 191.244 226.037C190.761 226.425 190.404 226.934 190.172 227.564C189.94 228.194 189.824 228.873 189.824 229.602C189.824 230.331 189.94 231.009 190.172 231.634C190.404 232.259 190.761 232.763 191.244 233.146C191.727 233.53 192.343 233.722 193.091 233.722ZM200.593 235V224.091H202.212V225.739H202.326C202.525 225.199 202.884 224.761 203.405 224.425C203.926 224.089 204.513 223.92 205.167 223.92C205.29 223.92 205.444 223.923 205.628 223.928C205.813 223.932 205.953 223.939 206.047 223.949V225.653C205.99 225.639 205.86 225.618 205.657 225.589C205.458 225.556 205.247 225.54 205.025 225.54C204.494 225.54 204.021 225.651 203.604 225.874C203.192 226.091 202.865 226.394 202.624 226.783C202.387 227.166 202.269 227.604 202.269 228.097V235H200.593ZM208.034 235V224.091H209.653V225.739H209.767C209.966 225.199 210.326 224.761 210.847 224.425C211.367 224.089 211.955 223.92 212.608 223.92C212.731 223.92 212.885 223.923 213.07 223.928C213.254 223.932 213.394 223.939 213.489 223.949V225.653C213.432 225.639 213.302 225.618 213.098 225.589C212.899 225.556 212.688 225.54 212.466 225.54C211.936 225.54 211.462 225.651 211.045 225.874C210.634 226.091 210.307 226.394 210.065 226.783C209.829 227.166 209.71 227.604 209.71 228.097V235H208.034ZM216.887 239.091C216.603 239.091 216.35 239.067 216.127 239.02C215.905 238.977 215.751 238.935 215.665 238.892L216.092 237.415C216.499 237.519 216.859 237.557 217.171 237.528C217.484 237.5 217.761 237.36 218.002 237.109C218.248 236.863 218.473 236.463 218.677 235.909L218.989 235.057L214.955 224.091H216.773L219.785 232.784H219.898L222.91 224.091H224.728L220.097 236.591C219.889 237.154 219.631 237.621 219.323 237.99C219.015 238.364 218.658 238.641 218.251 238.821C217.848 239.001 217.394 239.091 216.887 239.091ZM228.757 233.011L228.643 233.778C228.563 234.318 228.44 234.896 228.274 235.511C228.113 236.127 227.945 236.707 227.77 237.251C227.594 237.796 227.45 238.229 227.336 238.551H226.058C226.119 238.248 226.2 237.848 226.299 237.351C226.399 236.854 226.498 236.297 226.598 235.682C226.702 235.071 226.787 234.446 226.853 233.807L226.939 233.011H228.757ZM239.476 220.455V235H237.714V220.455H239.476ZM248.405 235V224.091H250.025V225.795H250.167C250.394 225.213 250.761 224.761 251.267 224.439C251.774 224.112 252.382 223.949 253.093 223.949C253.812 223.949 254.411 224.112 254.89 224.439C255.373 224.761 255.749 225.213 256.019 225.795H256.132C256.412 225.232 256.831 224.785 257.39 224.453C257.948 224.117 258.618 223.949 259.4 223.949C260.375 223.949 261.173 224.254 261.793 224.865C262.413 225.471 262.723 226.416 262.723 227.699V235H261.047V227.699C261.047 226.894 260.827 226.319 260.387 225.973C259.946 225.627 259.428 225.455 258.831 225.455C258.064 225.455 257.47 225.687 257.049 226.151C256.627 226.61 256.417 227.192 256.417 227.898V235H254.712V227.528C254.712 226.908 254.511 226.409 254.108 226.03C253.706 225.646 253.187 225.455 252.553 225.455C252.117 225.455 251.71 225.571 251.331 225.803C250.957 226.035 250.654 226.357 250.422 226.768C250.195 227.176 250.081 227.647 250.081 228.182V235H248.405ZM272.663 230.54V224.091H274.339V235H272.663V233.153H272.549C272.294 233.707 271.896 234.179 271.356 234.567C270.816 234.95 270.135 235.142 269.311 235.142C268.629 235.142 268.023 234.993 267.493 234.695C266.962 234.392 266.546 233.937 266.243 233.331C265.94 232.72 265.788 231.951 265.788 231.023V224.091H267.464V230.909C267.464 231.705 267.687 232.339 268.132 232.812C268.582 233.286 269.154 233.523 269.85 233.523C270.267 233.523 270.691 233.416 271.122 233.203C271.557 232.99 271.922 232.663 272.216 232.223C272.514 231.783 272.663 231.222 272.663 230.54ZM285.136 226.534L283.631 226.96C283.536 226.709 283.396 226.465 283.212 226.229C283.032 225.987 282.786 225.788 282.473 225.632C282.161 225.476 281.76 225.398 281.273 225.398C280.605 225.398 280.049 225.552 279.604 225.859C279.163 226.162 278.943 226.548 278.943 227.017C278.943 227.434 279.095 227.763 279.398 228.004C279.701 228.246 280.174 228.447 280.818 228.608L282.438 229.006C283.413 229.242 284.14 229.605 284.618 230.092C285.096 230.575 285.335 231.198 285.335 231.96C285.335 232.585 285.155 233.144 284.795 233.636C284.44 234.129 283.943 234.517 283.304 234.801C282.665 235.085 281.921 235.227 281.074 235.227C279.961 235.227 279.04 234.986 278.311 234.503C277.582 234.02 277.12 233.314 276.926 232.386L278.517 231.989C278.669 232.576 278.955 233.016 279.376 233.31C279.803 233.603 280.359 233.75 281.045 233.75C281.827 233.75 282.447 233.584 282.906 233.253C283.37 232.917 283.602 232.514 283.602 232.045C283.602 231.667 283.47 231.349 283.205 231.094C282.939 230.833 282.532 230.639 281.983 230.511L280.165 230.085C279.166 229.848 278.432 229.482 277.963 228.984C277.499 228.482 277.267 227.855 277.267 227.102C277.267 226.487 277.44 225.942 277.786 225.469C278.136 224.995 278.612 224.624 279.213 224.354C279.819 224.084 280.506 223.949 281.273 223.949C282.352 223.949 283.2 224.186 283.815 224.659C284.436 225.133 284.876 225.758 285.136 226.534ZM292.603 224.091V225.511H286.949V224.091H292.603ZM288.597 221.477H290.273V231.875C290.273 232.348 290.342 232.704 290.479 232.94C290.621 233.172 290.801 233.329 291.019 233.409C291.241 233.485 291.476 233.523 291.722 233.523C291.907 233.523 292.058 233.513 292.176 233.494C292.295 233.471 292.39 233.452 292.461 233.438L292.801 234.943C292.688 234.986 292.529 235.028 292.326 235.071C292.122 235.118 291.864 235.142 291.551 235.142C291.078 235.142 290.614 235.04 290.159 234.837C289.71 234.633 289.336 234.323 289.037 233.906C288.744 233.49 288.597 232.964 288.597 232.33V221.477ZM302.425 228.438V235H300.749V220.455H302.425V225.795H302.567C302.823 225.232 303.206 224.785 303.718 224.453C304.234 224.117 304.92 223.949 305.777 223.949C306.521 223.949 307.172 224.098 307.73 224.396C308.289 224.69 308.722 225.142 309.03 225.753C309.343 226.359 309.499 227.131 309.499 228.068V235H307.823V228.182C307.823 227.315 307.598 226.645 307.148 226.172C306.703 225.694 306.085 225.455 305.294 225.455C304.745 225.455 304.253 225.571 303.817 225.803C303.386 226.035 303.045 226.373 302.794 226.818C302.548 227.263 302.425 227.803 302.425 228.438ZM315.776 235.256C315.084 235.256 314.457 235.125 313.893 234.865C313.33 234.6 312.883 234.219 312.551 233.722C312.22 233.22 312.054 232.614 312.054 231.903C312.054 231.278 312.177 230.772 312.423 230.384C312.67 229.991 312.999 229.683 313.411 229.46C313.822 229.238 314.277 229.072 314.774 228.963C315.276 228.849 315.78 228.759 316.287 228.693C316.95 228.608 317.487 228.544 317.899 228.501C318.316 228.454 318.619 228.376 318.808 228.267C319.002 228.158 319.099 227.969 319.099 227.699V227.642C319.099 226.941 318.908 226.397 318.524 226.009C318.145 225.62 317.57 225.426 316.798 225.426C315.998 225.426 315.371 225.601 314.916 225.952C314.462 226.302 314.142 226.676 313.957 227.074L312.366 226.506C312.651 225.843 313.029 225.327 313.503 224.957C313.981 224.583 314.502 224.323 315.065 224.176C315.634 224.025 316.192 223.949 316.741 223.949C317.092 223.949 317.494 223.991 317.949 224.077C318.408 224.157 318.851 224.325 319.277 224.581C319.708 224.837 320.065 225.223 320.349 225.739C320.634 226.255 320.776 226.946 320.776 227.812V235H319.099V233.523H319.014C318.901 233.759 318.711 234.013 318.446 234.283C318.181 234.553 317.828 234.782 317.388 234.972C316.947 235.161 316.41 235.256 315.776 235.256ZM316.031 233.75C316.694 233.75 317.253 233.62 317.707 233.359C318.167 233.099 318.512 232.763 318.744 232.351C318.981 231.939 319.099 231.506 319.099 231.051V229.517C319.028 229.602 318.872 229.68 318.631 229.751C318.394 229.818 318.119 229.877 317.807 229.929C317.499 229.976 317.198 230.019 316.905 230.057C316.616 230.09 316.382 230.118 316.202 230.142C315.766 230.199 315.359 230.291 314.98 230.419C314.606 230.542 314.303 230.729 314.071 230.98C313.844 231.226 313.73 231.562 313.73 231.989C313.73 232.571 313.946 233.011 314.376 233.31C314.812 233.603 315.364 233.75 316.031 233.75ZM332.365 224.091L328.331 235H326.626L322.592 224.091H324.41L327.422 232.784H327.535L330.547 224.091H332.365ZM338.76 235.227C337.709 235.227 336.802 234.995 336.04 234.531C335.283 234.062 334.698 233.409 334.286 232.571C333.879 231.728 333.675 230.748 333.675 229.631C333.675 228.513 333.879 227.528 334.286 226.676C334.698 225.819 335.271 225.152 336.005 224.673C336.743 224.19 337.605 223.949 338.59 223.949C339.158 223.949 339.719 224.044 340.273 224.233C340.827 224.422 341.331 224.73 341.786 225.156C342.24 225.578 342.603 226.136 342.873 226.832C343.142 227.528 343.277 228.385 343.277 229.403V230.114H334.868V228.665H341.573C341.573 228.049 341.45 227.5 341.203 227.017C340.962 226.534 340.616 226.153 340.167 225.874C339.721 225.594 339.196 225.455 338.59 225.455C337.922 225.455 337.345 225.62 336.857 225.952C336.374 226.278 336.002 226.705 335.742 227.23C335.481 227.756 335.351 228.319 335.351 228.92V229.886C335.351 230.71 335.493 231.409 335.777 231.982C336.066 232.55 336.466 232.983 336.978 233.281C337.489 233.575 338.083 233.722 338.76 233.722C339.201 233.722 339.598 233.66 339.953 233.537C340.313 233.409 340.623 233.22 340.884 232.969C341.144 232.713 341.346 232.396 341.488 232.017L343.107 232.472C342.936 233.021 342.65 233.504 342.248 233.92C341.845 234.332 341.348 234.654 340.756 234.886C340.164 235.114 339.499 235.227 338.76 235.227ZM351.452 235V224.091H353.071V225.795H353.213C353.441 225.213 353.808 224.761 354.314 224.439C354.821 224.112 355.429 223.949 356.14 223.949C356.859 223.949 357.458 224.112 357.936 224.439C358.419 224.761 358.796 225.213 359.066 225.795H359.179C359.459 225.232 359.878 224.785 360.436 224.453C360.995 224.117 361.665 223.949 362.446 223.949C363.422 223.949 364.22 224.254 364.84 224.865C365.46 225.471 365.77 226.416 365.77 227.699V235H364.094V227.699C364.094 226.894 363.874 226.319 363.434 225.973C362.993 225.627 362.475 225.455 361.878 225.455C361.111 225.455 360.517 225.687 360.096 226.151C359.674 226.61 359.463 227.192 359.463 227.898V235H357.759V227.528C357.759 226.908 357.558 226.409 357.155 226.03C356.753 225.646 356.234 225.455 355.6 225.455C355.164 225.455 354.757 225.571 354.378 225.803C354.004 226.035 353.701 226.357 353.469 226.768C353.242 227.176 353.128 227.647 353.128 228.182V235H351.452ZM368.835 235V224.091H370.511V235H368.835ZM369.687 222.273C369.36 222.273 369.079 222.161 368.842 221.939C368.61 221.716 368.494 221.449 368.494 221.136C368.494 220.824 368.61 220.556 368.842 220.334C369.079 220.111 369.36 220 369.687 220C370.014 220 370.293 220.111 370.525 220.334C370.762 220.556 370.88 220.824 370.88 221.136C370.88 221.449 370.762 221.716 370.525 221.939C370.293 222.161 370.014 222.273 369.687 222.273ZM381.308 226.534L379.803 226.96C379.708 226.709 379.568 226.465 379.384 226.229C379.204 225.987 378.957 225.788 378.645 225.632C378.332 225.476 377.932 225.398 377.445 225.398C376.777 225.398 376.221 225.552 375.776 225.859C375.335 226.162 375.115 226.548 375.115 227.017C375.115 227.434 375.267 227.763 375.57 228.004C375.873 228.246 376.346 228.447 376.99 228.608L378.609 229.006C379.585 229.242 380.312 229.605 380.79 230.092C381.268 230.575 381.507 231.198 381.507 231.96C381.507 232.585 381.327 233.144 380.967 233.636C380.612 234.129 380.115 234.517 379.476 234.801C378.837 235.085 378.093 235.227 377.246 235.227C376.133 235.227 375.212 234.986 374.483 234.503C373.754 234.02 373.292 233.314 373.098 232.386L374.689 231.989C374.84 232.576 375.127 233.016 375.548 233.31C375.974 233.603 376.531 233.75 377.217 233.75C377.999 233.75 378.619 233.584 379.078 233.253C379.542 232.917 379.774 232.514 379.774 232.045C379.774 231.667 379.642 231.349 379.376 231.094C379.111 230.833 378.704 230.639 378.155 230.511L376.337 230.085C375.338 229.848 374.604 229.482 374.135 228.984C373.671 228.482 373.439 227.855 373.439 227.102C373.439 226.487 373.612 225.942 373.957 225.469C374.308 224.995 374.784 224.624 375.385 224.354C375.991 224.084 376.678 223.949 377.445 223.949C378.524 223.949 379.372 224.186 379.987 224.659C380.607 225.133 381.048 225.758 381.308 226.534ZM391.757 226.534L390.252 226.96C390.157 226.709 390.017 226.465 389.833 226.229C389.653 225.987 389.407 225.788 389.094 225.632C388.782 225.476 388.382 225.398 387.894 225.398C387.226 225.398 386.67 225.552 386.225 225.859C385.784 226.162 385.564 226.548 385.564 227.017C385.564 227.434 385.716 227.763 386.019 228.004C386.322 228.246 386.795 228.447 387.439 228.608L389.059 229.006C390.034 229.242 390.761 229.605 391.239 230.092C391.717 230.575 391.956 231.198 391.956 231.96C391.956 232.585 391.776 233.144 391.417 233.636C391.061 234.129 390.564 234.517 389.925 234.801C389.286 235.085 388.542 235.227 387.695 235.227C386.582 235.227 385.661 234.986 384.932 234.503C384.203 234.02 383.741 233.314 383.547 232.386L385.138 231.989C385.29 232.576 385.576 233.016 385.998 233.31C386.424 233.603 386.98 233.75 387.667 233.75C388.448 233.75 389.068 233.584 389.527 233.253C389.991 232.917 390.223 232.514 390.223 232.045C390.223 231.667 390.091 231.349 389.826 231.094C389.56 230.833 389.153 230.639 388.604 230.511L386.786 230.085C385.787 229.848 385.053 229.482 384.584 228.984C384.12 228.482 383.888 227.855 383.888 227.102C383.888 226.487 384.061 225.942 384.407 225.469C384.757 224.995 385.233 224.624 385.834 224.354C386.44 224.084 387.127 223.949 387.894 223.949C388.973 223.949 389.821 224.186 390.436 224.659C391.057 225.133 391.497 225.758 391.757 226.534ZM394.479 239.091V224.091H396.099V225.824H396.298C396.421 225.634 396.591 225.393 396.809 225.099C397.031 224.801 397.349 224.536 397.761 224.304C398.177 224.067 398.741 223.949 399.451 223.949C400.37 223.949 401.179 224.179 401.88 224.638C402.581 225.097 403.128 225.748 403.521 226.591C403.914 227.434 404.11 228.428 404.11 229.574C404.11 230.729 403.914 231.731 403.521 232.578C403.128 233.421 402.583 234.074 401.887 234.538C401.191 234.998 400.388 235.227 399.479 235.227C398.779 235.227 398.218 235.111 397.796 234.879C397.375 234.643 397.05 234.375 396.823 234.077C396.596 233.774 396.421 233.523 396.298 233.324H396.156V239.091H394.479ZM396.127 229.545C396.127 230.369 396.248 231.096 396.489 231.726C396.731 232.351 397.084 232.841 397.548 233.196C398.012 233.546 398.58 233.722 399.252 233.722C399.953 233.722 400.538 233.537 401.006 233.168C401.48 232.794 401.835 232.292 402.072 231.662C402.313 231.027 402.434 230.322 402.434 229.545C402.434 228.778 402.316 228.087 402.079 227.472C401.847 226.851 401.494 226.361 401.021 226.001C400.552 225.637 399.962 225.455 399.252 225.455C398.57 225.455 397.997 225.627 397.533 225.973C397.069 226.314 396.719 226.792 396.482 227.408C396.246 228.018 396.127 228.731 396.127 229.545ZM411.099 235.227C410.114 235.227 409.25 234.993 408.506 234.524C407.768 234.055 407.19 233.4 406.773 232.557C406.362 231.714 406.156 230.729 406.156 229.602C406.156 228.466 406.362 227.474 406.773 226.626C407.19 225.779 407.768 225.121 408.506 224.652C409.25 224.183 410.114 223.949 411.099 223.949C412.084 223.949 412.945 224.183 413.684 224.652C414.427 225.121 415.005 225.779 415.417 226.626C415.834 227.474 416.042 228.466 416.042 229.602C416.042 230.729 415.834 231.714 415.417 232.557C415.005 233.4 414.427 234.055 413.684 234.524C412.945 234.993 412.084 235.227 411.099 235.227ZM411.099 233.722C411.847 233.722 412.462 233.53 412.945 233.146C413.428 232.763 413.786 232.259 414.018 231.634C414.25 231.009 414.366 230.331 414.366 229.602C414.366 228.873 414.25 228.194 414.018 227.564C413.786 226.934 413.428 226.425 412.945 226.037C412.462 225.649 411.847 225.455 411.099 225.455C410.351 225.455 409.735 225.649 409.252 226.037C408.769 226.425 408.412 226.934 408.18 227.564C407.948 228.194 407.832 228.873 407.832 229.602C407.832 230.331 407.948 231.009 408.18 231.634C408.412 232.259 408.769 232.763 409.252 233.146C409.735 233.53 410.351 233.722 411.099 233.722ZM420.163 231.023L420.135 228.949H420.475L425.248 224.091H427.322L422.237 229.233H422.095L420.163 231.023ZM418.6 235V220.455H420.277V235H418.6ZM425.532 235L421.271 229.602L422.464 228.438L427.663 235H425.532ZM433.604 235.227C432.553 235.227 431.646 234.995 430.884 234.531C430.126 234.062 429.542 233.409 429.13 232.571C428.722 231.728 428.519 230.748 428.519 229.631C428.519 228.513 428.722 227.528 429.13 226.676C429.542 225.819 430.114 225.152 430.848 224.673C431.587 224.19 432.449 223.949 433.434 223.949C434.002 223.949 434.563 224.044 435.117 224.233C435.671 224.422 436.175 224.73 436.63 225.156C437.084 225.578 437.446 226.136 437.716 226.832C437.986 227.528 438.121 228.385 438.121 229.403V230.114H429.712V228.665H436.417C436.417 228.049 436.293 227.5 436.047 227.017C435.806 226.534 435.46 226.153 435.01 225.874C434.565 225.594 434.04 225.455 433.434 225.455C432.766 225.455 432.188 225.62 431.701 225.952C431.218 226.278 430.846 226.705 430.586 227.23C430.325 227.756 430.195 228.319 430.195 228.92V229.886C430.195 230.71 430.337 231.409 430.621 231.982C430.91 232.55 431.31 232.983 431.821 233.281C432.333 233.575 432.927 233.722 433.604 233.722C434.044 233.722 434.442 233.66 434.797 233.537C435.157 233.409 435.467 233.22 435.728 232.969C435.988 232.713 436.189 232.396 436.331 232.017L437.951 232.472C437.78 233.021 437.494 233.504 437.091 233.92C436.689 234.332 436.192 234.654 435.6 234.886C435.008 235.114 434.343 235.227 433.604 235.227ZM441.892 235.114C441.542 235.114 441.241 234.988 440.99 234.737C440.739 234.486 440.614 234.186 440.614 233.835C440.614 233.485 440.739 233.184 440.99 232.933C441.241 232.682 441.542 232.557 441.892 232.557C442.243 232.557 442.543 232.682 442.794 232.933C443.045 233.184 443.171 233.485 443.171 233.835C443.171 234.067 443.112 234.28 442.993 234.474C442.88 234.669 442.726 234.825 442.532 234.943C442.342 235.057 442.129 235.114 441.892 235.114ZM454.673 235L450.696 220.455H452.485L455.525 232.301H455.667L458.764 220.455H460.752L463.849 232.301H463.991L467.031 220.455H468.821L464.843 235H463.025L459.815 223.409H459.701L456.491 235H454.673ZM472.464 228.438V235H470.788V220.455H472.464V225.795H472.606C472.862 225.232 473.245 224.785 473.757 224.453C474.273 224.117 474.959 223.949 475.816 223.949C476.56 223.949 477.211 224.098 477.77 224.396C478.328 224.69 478.761 225.142 479.069 225.753C479.382 226.359 479.538 227.131 479.538 228.068V235H477.862V228.182C477.862 227.315 477.637 226.645 477.187 226.172C476.742 225.694 476.124 225.455 475.333 225.455C474.784 225.455 474.292 225.571 473.856 225.803C473.425 226.035 473.084 226.373 472.833 226.818C472.587 227.263 472.464 227.803 472.464 228.438ZM483.293 239.091C483.009 239.091 482.756 239.067 482.533 239.02C482.311 238.977 482.157 238.935 482.072 238.892L482.498 237.415C482.905 237.519 483.265 237.557 483.577 237.528C483.89 237.5 484.167 237.36 484.408 237.109C484.655 236.863 484.879 236.463 485.083 235.909L485.396 235.057L481.362 224.091H483.18L486.191 232.784H486.305L489.316 224.091H491.134L486.504 236.591C486.295 237.154 486.037 237.621 485.729 237.99C485.422 238.364 485.064 238.641 484.657 238.821C484.254 239.001 483.8 239.091 483.293 239.091ZM503.091 235.227C502.182 235.227 501.379 234.998 500.683 234.538C499.987 234.074 499.443 233.421 499.05 232.578C498.657 231.731 498.46 230.729 498.46 229.574C498.46 228.428 498.657 227.434 499.05 226.591C499.443 225.748 499.99 225.097 500.69 224.638C501.391 224.179 502.201 223.949 503.119 223.949C503.83 223.949 504.391 224.067 504.803 224.304C505.219 224.536 505.536 224.801 505.754 225.099C505.977 225.393 506.15 225.634 506.273 225.824H506.415V220.455H508.091V235H506.472V233.324H506.273C506.15 233.523 505.974 233.774 505.747 234.077C505.52 234.375 505.196 234.643 504.774 234.879C504.353 235.111 503.792 235.227 503.091 235.227ZM503.318 233.722C503.991 233.722 504.559 233.546 505.023 233.196C505.487 232.841 505.839 232.351 506.081 231.726C506.322 231.096 506.443 230.369 506.443 229.545C506.443 228.731 506.325 228.018 506.088 227.408C505.851 226.792 505.501 226.314 505.037 225.973C504.573 225.627 504 225.455 503.318 225.455C502.608 225.455 502.016 225.637 501.543 226.001C501.074 226.361 500.721 226.851 500.484 227.472C500.252 228.087 500.136 228.778 500.136 229.545C500.136 230.322 500.255 231.027 500.491 231.662C500.733 232.292 501.088 232.794 501.557 233.168C502.03 233.537 502.617 233.722 503.318 233.722ZM515.825 235.227C514.84 235.227 513.976 234.993 513.233 234.524C512.494 234.055 511.917 233.4 511.5 232.557C511.088 231.714 510.882 230.729 510.882 229.602C510.882 228.466 511.088 227.474 511.5 226.626C511.917 225.779 512.494 225.121 513.233 224.652C513.976 224.183 514.84 223.949 515.825 223.949C516.81 223.949 517.672 224.183 518.411 224.652C519.154 225.121 519.732 225.779 520.143 226.626C520.56 227.474 520.768 228.466 520.768 229.602C520.768 230.729 520.56 231.714 520.143 232.557C519.732 233.4 519.154 234.055 518.411 234.524C517.672 234.993 516.81 235.227 515.825 235.227ZM515.825 233.722C516.573 233.722 517.189 233.53 517.672 233.146C518.155 232.763 518.512 232.259 518.744 231.634C518.976 231.009 519.092 230.331 519.092 229.602C519.092 228.873 518.976 228.194 518.744 227.564C518.512 226.934 518.155 226.425 517.672 226.037C517.189 225.649 516.573 225.455 515.825 225.455C515.077 225.455 514.462 225.649 513.979 226.037C513.496 226.425 513.138 226.934 512.906 227.564C512.674 228.194 512.558 228.873 512.558 229.602C512.558 230.331 512.674 231.009 512.906 231.634C513.138 232.259 513.496 232.763 513.979 233.146C514.462 233.53 515.077 233.722 515.825 233.722ZM525.003 228.438V235H523.327V224.091H524.946V225.795H525.088C525.344 225.241 525.732 224.796 526.253 224.46C526.774 224.119 527.446 223.949 528.27 223.949C529.009 223.949 529.655 224.1 530.209 224.403C530.763 224.702 531.194 225.156 531.502 225.767C531.81 226.373 531.963 227.14 531.963 228.068V235H530.287V228.182C530.287 227.325 530.065 226.657 529.62 226.179C529.175 225.696 528.564 225.455 527.787 225.455C527.252 225.455 526.774 225.571 526.353 225.803C525.936 226.035 525.607 226.373 525.365 226.818C525.124 227.263 525.003 227.803 525.003 228.438ZM536.504 220.455V221.733C536.504 222.121 536.433 222.536 536.29 222.976C536.153 223.411 535.95 223.835 535.68 224.247C535.415 224.654 535.093 225.009 534.714 225.312L533.805 224.574C534.103 224.148 534.361 223.705 534.579 223.246C534.801 222.782 534.913 222.287 534.913 221.761V220.455H536.504ZM543.755 224.091V225.511H538.102V224.091H543.755ZM539.749 221.477H541.425V231.875C541.425 232.348 541.494 232.704 541.631 232.94C541.773 233.172 541.953 233.329 542.171 233.409C542.394 233.485 542.628 233.523 542.874 233.523C543.059 233.523 543.21 233.513 543.329 233.494C543.447 233.471 543.542 233.452 543.613 233.438L543.954 234.943C543.84 234.986 543.682 235.028 543.478 235.071C543.274 235.118 543.016 235.142 542.704 235.142C542.23 235.142 541.766 235.04 541.312 234.837C540.862 234.633 540.488 234.323 540.19 233.906C539.896 233.49 539.749 232.964 539.749 232.33V221.477ZM552.981 239.091C552.697 239.091 552.443 239.067 552.221 239.02C551.998 238.977 551.844 238.935 551.759 238.892L552.185 237.415C552.593 237.519 552.952 237.557 553.265 237.528C553.577 237.5 553.854 237.36 554.096 237.109C554.342 236.863 554.567 236.463 554.771 235.909L555.083 235.057L551.049 224.091H552.867L555.879 232.784H555.992L559.004 224.091H560.822L556.191 236.591C555.983 237.154 555.725 237.621 555.417 237.99C555.109 238.364 554.752 238.641 554.344 238.821C553.942 239.001 553.487 239.091 552.981 239.091ZM567.075 235.227C566.09 235.227 565.226 234.993 564.483 234.524C563.744 234.055 563.167 233.4 562.75 232.557C562.338 231.714 562.132 230.729 562.132 229.602C562.132 228.466 562.338 227.474 562.75 226.626C563.167 225.779 563.744 225.121 564.483 224.652C565.226 224.183 566.09 223.949 567.075 223.949C568.06 223.949 568.922 224.183 569.661 224.652C570.404 225.121 570.982 225.779 571.393 226.626C571.81 227.474 572.018 228.466 572.018 229.602C572.018 230.729 571.81 231.714 571.393 232.557C570.982 233.4 570.404 234.055 569.661 234.524C568.922 234.993 568.06 235.227 567.075 235.227ZM567.075 233.722C567.823 233.722 568.439 233.53 568.922 233.146C569.405 232.763 569.762 232.259 569.994 231.634C570.226 231.009 570.342 230.331 570.342 229.602C570.342 228.873 570.226 228.194 569.994 227.564C569.762 226.934 569.405 226.425 568.922 226.037C568.439 225.649 567.823 225.455 567.075 225.455C566.327 225.455 565.712 225.649 565.229 226.037C564.746 226.425 564.388 226.934 564.156 227.564C563.924 228.194 563.808 228.873 563.808 229.602C563.808 230.331 563.924 231.009 564.156 231.634C564.388 232.259 564.746 232.763 565.229 233.146C565.712 233.53 566.327 233.722 567.075 233.722ZM581.452 230.54V224.091H583.128V235H581.452V233.153H581.338C581.083 233.707 580.685 234.179 580.145 234.567C579.605 234.95 578.924 235.142 578.1 235.142C577.418 235.142 576.812 234.993 576.282 234.695C575.751 234.392 575.335 233.937 575.032 233.331C574.729 232.72 574.577 231.951 574.577 231.023V224.091H576.253V230.909C576.253 231.705 576.476 232.339 576.921 232.812C577.371 233.286 577.944 233.523 578.64 233.523C579.056 233.523 579.48 233.416 579.911 233.203C580.346 232.99 580.711 232.663 581.005 232.223C581.303 231.783 581.452 231.222 581.452 230.54ZM596.681 224.091V225.511H590.8V224.091H596.681ZM592.562 235V222.585C592.562 221.96 592.709 221.439 593.002 221.023C593.296 220.606 593.677 220.294 594.146 220.085C594.614 219.877 595.109 219.773 595.63 219.773C596.042 219.773 596.378 219.806 596.638 219.872C596.899 219.938 597.093 220 597.221 220.057L596.738 221.506C596.653 221.477 596.534 221.442 596.383 221.399C596.236 221.357 596.042 221.335 595.8 221.335C595.246 221.335 594.846 221.475 594.6 221.754C594.359 222.034 594.238 222.443 594.238 222.983V235H592.562ZM603.013 235.227C602.028 235.227 601.164 234.993 600.42 234.524C599.682 234.055 599.104 233.4 598.688 232.557C598.276 231.714 598.07 230.729 598.07 229.602C598.07 228.466 598.276 227.474 598.688 226.626C599.104 225.779 599.682 225.121 600.42 224.652C601.164 224.183 602.028 223.949 603.013 223.949C603.998 223.949 604.859 224.183 605.598 224.652C606.341 225.121 606.919 225.779 607.331 226.626C607.748 227.474 607.956 228.466 607.956 229.602C607.956 230.729 607.748 231.714 607.331 232.557C606.919 233.4 606.341 234.055 605.598 234.524C604.859 234.993 603.998 235.227 603.013 235.227ZM603.013 233.722C603.761 233.722 604.376 233.53 604.859 233.146C605.342 232.763 605.7 232.259 605.932 231.634C606.164 231.009 606.28 230.331 606.28 229.602C606.28 228.873 606.164 228.194 605.932 227.564C605.7 226.934 605.342 226.425 604.859 226.037C604.376 225.649 603.761 225.455 603.013 225.455C602.265 225.455 601.649 225.649 601.166 226.037C600.683 226.425 600.326 226.934 600.094 227.564C599.862 228.194 599.746 228.873 599.746 229.602C599.746 230.331 599.862 231.009 600.094 231.634C600.326 232.259 600.683 232.763 601.166 233.146C601.649 233.53 602.265 233.722 603.013 233.722ZM612.191 220.455V235H610.515V220.455H612.191ZM616.937 220.455V235H615.261V220.455H616.937ZM624.439 235.227C623.454 235.227 622.59 234.993 621.846 234.524C621.108 234.055 620.53 233.4 620.113 232.557C619.701 231.714 619.495 230.729 619.495 229.602C619.495 228.466 619.701 227.474 620.113 226.626C620.53 225.779 621.108 225.121 621.846 224.652C622.59 224.183 623.454 223.949 624.439 223.949C625.423 223.949 626.285 224.183 627.024 224.652C627.767 225.121 628.345 225.779 628.757 226.626C629.173 227.474 629.382 228.466 629.382 229.602C629.382 230.729 629.173 231.714 628.757 232.557C628.345 233.4 627.767 234.055 627.024 234.524C626.285 234.993 625.423 235.227 624.439 235.227ZM624.439 233.722C625.187 233.722 625.802 233.53 626.285 233.146C626.768 232.763 627.126 232.259 627.358 231.634C627.59 231.009 627.706 230.331 627.706 229.602C627.706 228.873 627.59 228.194 627.358 227.564C627.126 226.934 626.768 226.425 626.285 226.037C625.802 225.649 625.187 225.455 624.439 225.455C623.69 225.455 623.075 225.649 622.592 226.037C622.109 226.425 621.752 226.934 621.52 227.564C621.288 228.194 621.172 228.873 621.172 229.602C621.172 230.331 621.288 231.009 621.52 231.634C621.752 232.259 622.109 232.763 622.592 233.146C623.075 233.53 623.69 233.722 624.439 233.722ZM634.041 235L630.717 224.091H632.478L634.836 232.443H634.95L637.279 224.091H639.069L641.37 232.415H641.484L643.842 224.091H645.603L642.279 235H640.632L638.245 226.619H638.075L635.689 235H634.041ZM653.444 235V224.091H655.064V225.795H655.206C655.433 225.213 655.8 224.761 656.306 224.439C656.813 224.112 657.422 223.949 658.132 223.949C658.851 223.949 659.45 224.112 659.929 224.439C660.412 224.761 660.788 225.213 661.058 225.795H661.172C661.451 225.232 661.87 224.785 662.429 224.453C662.987 224.117 663.657 223.949 664.439 223.949C665.414 223.949 666.212 224.254 666.832 224.865C667.452 225.471 667.762 226.416 667.762 227.699V235H666.086V227.699C666.086 226.894 665.866 226.319 665.426 225.973C664.985 225.627 664.467 225.455 663.87 225.455C663.103 225.455 662.509 225.687 662.088 226.151C661.666 226.61 661.456 227.192 661.456 227.898V235H659.751V227.528C659.751 226.908 659.55 226.409 659.147 226.03C658.745 225.646 658.226 225.455 657.592 225.455C657.156 225.455 656.749 225.571 656.37 225.803C655.996 226.035 655.693 226.357 655.461 226.768C655.234 227.176 655.12 227.647 655.12 228.182V235H653.444ZM675.401 235.227C674.35 235.227 673.443 234.995 672.681 234.531C671.923 234.062 671.338 233.409 670.926 232.571C670.519 231.728 670.316 230.748 670.316 229.631C670.316 228.513 670.519 227.528 670.926 226.676C671.338 225.819 671.911 225.152 672.645 224.673C673.384 224.19 674.246 223.949 675.23 223.949C675.799 223.949 676.36 224.044 676.914 224.233C677.468 224.422 677.972 224.73 678.426 225.156C678.881 225.578 679.243 226.136 679.513 226.832C679.783 227.528 679.918 228.385 679.918 229.403V230.114H671.509V228.665H678.213C678.213 228.049 678.09 227.5 677.844 227.017C677.603 226.534 677.257 226.153 676.807 225.874C676.362 225.594 675.837 225.455 675.23 225.455C674.563 225.455 673.985 225.62 673.498 225.952C673.015 226.278 672.643 226.705 672.382 227.23C672.122 227.756 671.992 228.319 671.992 228.92V229.886C671.992 230.71 672.134 231.409 672.418 231.982C672.707 232.55 673.107 232.983 673.618 233.281C674.13 233.575 674.724 233.722 675.401 233.722C675.841 233.722 676.239 233.66 676.594 233.537C676.954 233.409 677.264 233.22 677.525 232.969C677.785 232.713 677.986 232.396 678.128 232.017L679.748 232.472C679.577 233.021 679.291 233.504 678.888 233.92C678.486 234.332 677.989 234.654 677.397 234.886C676.805 235.114 676.14 235.227 675.401 235.227ZM688.093 235V224.091H689.769V235H688.093ZM688.945 222.273C688.618 222.273 688.337 222.161 688.1 221.939C687.868 221.716 687.752 221.449 687.752 221.136C687.752 220.824 687.868 220.556 688.1 220.334C688.337 220.111 688.618 220 688.945 220C689.272 220 689.551 220.111 689.783 220.334C690.02 220.556 690.138 220.824 690.138 221.136C690.138 221.449 690.02 221.716 689.783 221.939C689.551 222.161 689.272 222.273 688.945 222.273ZM694.515 228.438V235H692.839V224.091H694.458V225.795H694.6C694.856 225.241 695.244 224.796 695.765 224.46C696.286 224.119 696.958 223.949 697.782 223.949C698.521 223.949 699.167 224.1 699.721 224.403C700.275 224.702 700.706 225.156 701.013 225.767C701.321 226.373 701.475 227.14 701.475 228.068V235H699.799V228.182C699.799 227.325 699.576 226.657 699.131 226.179C698.686 225.696 698.076 225.455 697.299 225.455C696.764 225.455 696.286 225.571 695.864 225.803C695.448 226.035 695.119 226.373 694.877 226.818C694.636 227.263 694.515 227.803 694.515 228.438ZM709.282 224.091V225.511H703.629V224.091H709.282ZM705.277 221.477H706.953V231.875C706.953 232.348 707.021 232.704 707.159 232.94C707.301 233.172 707.481 233.329 707.699 233.409C707.921 233.485 708.155 233.523 708.402 233.523C708.586 233.523 708.738 233.513 708.856 233.494C708.975 233.471 709.069 233.452 709.14 233.438L709.481 234.943C709.368 234.986 709.209 235.028 709.005 235.071C708.802 235.118 708.544 235.142 708.231 235.142C707.758 235.142 707.294 235.04 706.839 234.837C706.389 234.633 706.015 234.323 705.717 233.906C705.423 233.49 705.277 232.964 705.277 232.33V221.477ZM716.118 235.227C715.133 235.227 714.269 234.993 713.526 234.524C712.787 234.055 712.21 233.4 711.793 232.557C711.381 231.714 711.175 230.729 711.175 229.602C711.175 228.466 711.381 227.474 711.793 226.626C712.21 225.779 712.787 225.121 713.526 224.652C714.269 224.183 715.133 223.949 716.118 223.949C717.103 223.949 717.965 224.183 718.703 224.652C719.447 225.121 720.025 225.779 720.436 226.626C720.853 227.474 721.061 228.466 721.061 229.602C721.061 230.729 720.853 231.714 720.436 232.557C720.025 233.4 719.447 234.055 718.703 234.524C717.965 234.993 717.103 235.227 716.118 235.227ZM716.118 233.722C716.866 233.722 717.482 233.53 717.965 233.146C718.448 232.763 718.805 232.259 719.037 231.634C719.269 231.009 719.385 230.331 719.385 229.602C719.385 228.873 719.269 228.194 719.037 227.564C718.805 226.934 718.448 226.425 717.965 226.037C717.482 225.649 716.866 225.455 716.118 225.455C715.37 225.455 714.755 225.649 714.272 226.037C713.789 226.425 713.431 226.934 713.199 227.564C712.967 228.194 712.851 228.873 712.851 229.602C712.851 230.331 712.967 231.009 713.199 231.634C713.431 232.259 713.789 232.763 714.272 233.146C714.755 233.53 715.37 233.722 716.118 233.722ZM733.989 224.091V225.511H728.336V224.091H733.989ZM729.984 221.477H731.66V231.875C731.66 232.348 731.728 232.704 731.866 232.94C732.008 233.172 732.188 233.329 732.406 233.409C732.628 233.485 732.862 233.523 733.109 233.523C733.293 233.523 733.445 233.513 733.563 233.494C733.682 233.471 733.776 233.452 733.847 233.438L734.188 234.943C734.075 234.986 733.916 235.028 733.712 235.071C733.509 235.118 733.251 235.142 732.938 235.142C732.465 235.142 732.001 235.04 731.546 234.837C731.096 234.633 730.722 234.323 730.424 233.906C730.13 233.49 729.984 232.964 729.984 232.33V221.477ZM738.421 228.438V235H736.745V220.455H738.421V225.795H738.563C738.819 225.232 739.202 224.785 739.714 224.453C740.23 224.117 740.916 223.949 741.773 223.949C742.517 223.949 743.168 224.098 743.727 224.396C744.285 224.69 744.719 225.142 745.026 225.753C745.339 226.359 745.495 227.131 745.495 228.068V235H743.819V228.182C743.819 227.315 743.594 226.645 743.144 226.172C742.699 225.694 742.081 225.455 741.29 225.455C740.741 225.455 740.249 225.571 739.813 225.803C739.382 226.035 739.041 226.373 738.79 226.818C738.544 227.263 738.421 227.803 738.421 228.438ZM753.135 235.227C752.084 235.227 751.177 234.995 750.415 234.531C749.658 234.062 749.073 233.409 748.661 232.571C748.254 231.728 748.05 230.748 748.05 229.631C748.05 228.513 748.254 227.528 748.661 226.676C749.073 225.819 749.646 225.152 750.38 224.673C751.118 224.19 751.98 223.949 752.965 223.949C753.533 223.949 754.094 224.044 754.648 224.233C755.202 224.422 755.706 224.73 756.161 225.156C756.615 225.578 756.978 226.136 757.248 226.832C757.517 227.528 757.652 228.385 757.652 229.403V230.114H749.243V228.665H755.948C755.948 228.049 755.825 227.5 755.578 227.017C755.337 226.534 754.991 226.153 754.542 225.874C754.096 225.594 753.571 225.455 752.965 225.455C752.297 225.455 751.72 225.62 751.232 225.952C750.749 226.278 750.377 226.705 750.117 227.23C749.856 227.756 749.726 228.319 749.726 228.92V229.886C749.726 230.71 749.868 231.409 750.152 231.982C750.441 232.55 750.841 232.983 751.353 233.281C751.864 233.575 752.458 233.722 753.135 233.722C753.576 233.722 753.973 233.66 754.328 233.537C754.688 233.409 754.998 233.22 755.259 232.969C755.519 232.713 755.721 232.396 755.863 232.017L757.482 232.472C757.311 233.021 757.025 233.504 756.623 233.92C756.22 234.332 755.723 234.654 755.131 234.886C754.539 235.114 753.874 235.227 753.135 235.227ZM770.259 235.227C769.274 235.227 768.41 234.993 767.667 234.524C766.928 234.055 766.35 233.4 765.934 232.557C765.522 231.714 765.316 230.729 765.316 229.602C765.316 228.466 765.522 227.474 765.934 226.626C766.35 225.779 766.928 225.121 767.667 224.652C768.41 224.183 769.274 223.949 770.259 223.949C771.244 223.949 772.105 224.183 772.844 224.652C773.587 225.121 774.165 225.779 774.577 226.626C774.994 227.474 775.202 228.466 775.202 229.602C775.202 230.729 774.994 231.714 774.577 232.557C774.165 233.4 773.587 234.055 772.844 234.524C772.105 234.993 771.244 235.227 770.259 235.227ZM770.259 233.722C771.007 233.722 771.623 233.53 772.105 233.146C772.588 232.763 772.946 232.259 773.178 231.634C773.41 231.009 773.526 230.331 773.526 229.602C773.526 228.873 773.41 228.194 773.178 227.564C772.946 226.934 772.588 226.425 772.105 226.037C771.623 225.649 771.007 225.455 770.259 225.455C769.511 225.455 768.895 225.649 768.412 226.037C767.929 226.425 767.572 226.934 767.34 227.564C767.108 228.194 766.992 228.873 766.992 229.602C766.992 230.331 767.108 231.009 767.34 231.634C767.572 232.259 767.929 232.763 768.412 233.146C768.895 233.53 769.511 233.722 770.259 233.722ZM782.505 224.091V225.511H776.852V224.091H782.505ZM778.499 221.477H780.175V231.875C780.175 232.348 780.244 232.704 780.381 232.94C780.523 233.172 780.703 233.329 780.921 233.409C781.144 233.485 781.378 233.523 781.624 233.523C781.809 233.523 781.96 233.513 782.079 233.494C782.197 233.471 782.292 233.452 782.363 233.438L782.704 234.943C782.59 234.986 782.432 235.028 782.228 235.071C782.024 235.118 781.766 235.142 781.454 235.142C780.98 235.142 780.516 235.04 780.062 234.837C779.612 234.633 779.238 234.323 778.94 233.906C778.646 233.49 778.499 232.964 778.499 232.33V221.477ZM786.937 228.438V235H785.261V220.455H786.937V225.795H787.079C787.335 225.232 787.718 224.785 788.229 224.453C788.746 224.117 789.432 223.949 790.289 223.949C791.032 223.949 791.683 224.098 792.242 224.396C792.801 224.69 793.234 225.142 793.542 225.753C793.854 226.359 794.011 227.131 794.011 228.068V235H792.335V228.182C792.335 227.315 792.11 226.645 791.66 226.172C791.215 225.694 790.597 225.455 789.806 225.455C789.257 225.455 788.764 225.571 788.329 225.803C787.898 226.035 787.557 226.373 787.306 226.818C787.06 227.263 786.937 227.803 786.937 228.438ZM801.651 235.227C800.6 235.227 799.693 234.995 798.931 234.531C798.173 234.062 797.588 233.409 797.176 232.571C796.769 231.728 796.566 230.748 796.566 229.631C796.566 228.513 796.769 227.528 797.176 226.676C797.588 225.819 798.161 225.152 798.895 224.673C799.634 224.19 800.496 223.949 801.48 223.949C802.049 223.949 802.61 224.044 803.164 224.233C803.718 224.422 804.222 224.73 804.676 225.156C805.131 225.578 805.493 226.136 805.763 226.832C806.033 227.528 806.168 228.385 806.168 229.403V230.114H797.759V228.665H804.463C804.463 228.049 804.34 227.5 804.094 227.017C803.853 226.534 803.507 226.153 803.057 225.874C802.612 225.594 802.087 225.455 801.48 225.455C800.813 225.455 800.235 225.62 799.748 225.952C799.265 226.278 798.893 226.705 798.632 227.23C798.372 227.756 798.242 228.319 798.242 228.92V229.886C798.242 230.71 798.384 231.409 798.668 231.982C798.957 232.55 799.357 232.983 799.868 233.281C800.38 233.575 800.974 233.722 801.651 233.722C802.091 233.722 802.489 233.66 802.844 233.537C803.204 233.409 803.514 233.22 803.775 232.969C804.035 232.713 804.236 232.396 804.378 232.017L805.998 232.472C805.827 233.021 805.541 233.504 805.138 233.92C804.736 234.332 804.239 234.654 803.647 234.886C803.055 235.114 802.39 235.227 801.651 235.227ZM808.718 235V224.091H810.337V225.739H810.451C810.65 225.199 811.009 224.761 811.53 224.425C812.051 224.089 812.638 223.92 813.292 223.92C813.415 223.92 813.569 223.923 813.753 223.928C813.938 223.932 814.078 223.939 814.172 223.949V225.653C814.115 225.639 813.985 225.618 813.782 225.589C813.583 225.556 813.372 225.54 813.15 225.54C812.619 225.54 812.146 225.651 811.729 225.874C811.317 226.091 810.99 226.394 810.749 226.783C810.512 227.166 810.394 227.604 810.394 228.097V235H808.718ZM821.784 235V224.091H823.403V225.739H823.517C823.716 225.199 824.076 224.761 824.597 224.425C825.117 224.089 825.705 223.92 826.358 223.92C826.481 223.92 826.635 223.923 826.82 223.928C827.004 223.932 827.144 223.939 827.239 223.949V225.653C827.182 225.639 827.052 225.618 826.848 225.589C826.649 225.556 826.438 225.54 826.216 225.54C825.686 225.54 825.212 225.651 824.795 225.874C824.384 226.091 824.057 226.394 823.815 226.783C823.579 227.166 823.46 227.604 823.46 228.097V235H821.784ZM833.325 235.227C832.34 235.227 831.476 234.993 830.733 234.524C829.994 234.055 829.417 233.4 829 232.557C828.588 231.714 828.382 230.729 828.382 229.602C828.382 228.466 828.588 227.474 829 226.626C829.417 225.779 829.994 225.121 830.733 224.652C831.476 224.183 832.34 223.949 833.325 223.949C834.31 223.949 835.172 224.183 835.911 224.652C836.654 225.121 837.232 225.779 837.643 226.626C838.06 227.474 838.268 228.466 838.268 229.602C838.268 230.729 838.06 231.714 837.643 232.557C837.232 233.4 836.654 234.055 835.911 234.524C835.172 234.993 834.31 235.227 833.325 235.227ZM833.325 233.722C834.073 233.722 834.689 233.53 835.172 233.146C835.655 232.763 836.012 232.259 836.244 231.634C836.476 231.009 836.592 230.331 836.592 229.602C836.592 228.873 836.476 228.194 836.244 227.564C836.012 226.934 835.655 226.425 835.172 226.037C834.689 225.649 834.073 225.455 833.325 225.455C832.577 225.455 831.962 225.649 831.479 226.037C830.996 226.425 830.638 226.934 830.406 227.564C830.174 228.194 830.058 228.873 830.058 229.602C830.058 230.331 830.174 231.009 830.406 231.634C830.638 232.259 830.996 232.763 831.479 233.146C831.962 233.53 832.577 233.722 833.325 233.722ZM845.259 235.227C844.274 235.227 843.41 234.993 842.667 234.524C841.928 234.055 841.35 233.4 840.934 232.557C840.522 231.714 840.316 230.729 840.316 229.602C840.316 228.466 840.522 227.474 840.934 226.626C841.35 225.779 841.928 225.121 842.667 224.652C843.41 224.183 844.274 223.949 845.259 223.949C846.244 223.949 847.105 224.183 847.844 224.652C848.587 225.121 849.165 225.779 849.577 226.626C849.994 227.474 850.202 228.466 850.202 229.602C850.202 230.729 849.994 231.714 849.577 232.557C849.165 233.4 848.587 234.055 847.844 234.524C847.105 234.993 846.244 235.227 845.259 235.227ZM845.259 233.722C846.007 233.722 846.623 233.53 847.105 233.146C847.588 232.763 847.946 232.259 848.178 231.634C848.41 231.009 848.526 230.331 848.526 229.602C848.526 228.873 848.41 228.194 848.178 227.564C847.946 226.934 847.588 226.425 847.105 226.037C846.623 225.649 846.007 225.455 845.259 225.455C844.511 225.455 843.895 225.649 843.412 226.037C842.929 226.425 842.572 226.934 842.34 227.564C842.108 228.194 841.992 228.873 841.992 229.602C841.992 230.331 842.108 231.009 842.34 231.634C842.572 232.259 842.929 232.763 843.412 233.146C843.895 233.53 844.511 233.722 845.259 233.722ZM852.761 235V224.091H854.38V225.795H854.522C854.749 225.213 855.116 224.761 855.623 224.439C856.129 224.112 856.738 223.949 857.448 223.949C858.168 223.949 858.767 224.112 859.245 224.439C859.728 224.761 860.104 225.213 860.374 225.795H860.488C860.767 225.232 861.186 224.785 861.745 224.453C862.304 224.117 862.974 223.949 863.755 223.949C864.73 223.949 865.528 224.254 866.148 224.865C866.769 225.471 867.079 226.416 867.079 227.699V235H865.403V227.699C865.403 226.894 865.183 226.319 864.742 225.973C864.302 225.627 863.783 225.455 863.187 225.455C862.42 225.455 861.826 225.687 861.404 226.151C860.983 226.61 860.772 227.192 860.772 227.898V235H859.067V227.528C859.067 226.908 858.866 226.409 858.464 226.03C858.061 225.646 857.543 225.455 856.908 225.455C856.473 225.455 856.066 225.571 855.687 225.803C855.313 226.035 855.01 226.357 854.778 226.768C854.55 227.176 854.437 227.647 854.437 228.182V235H852.761ZM872.331 230.909V230.824C872.34 229.92 872.435 229.2 872.615 228.665C872.795 228.13 873.051 227.696 873.382 227.365C873.714 227.034 874.111 226.728 874.575 226.449C874.855 226.278 875.106 226.077 875.328 225.845C875.551 225.608 875.726 225.336 875.854 225.028C875.986 224.721 876.053 224.38 876.053 224.006C876.053 223.542 875.944 223.139 875.726 222.798C875.508 222.457 875.217 222.195 874.852 222.01C874.488 221.825 874.083 221.733 873.638 221.733C873.25 221.733 872.875 221.813 872.516 221.974C872.156 222.135 871.855 222.389 871.614 222.734C871.372 223.08 871.232 223.532 871.195 224.091H869.405C869.443 223.286 869.651 222.597 870.03 222.024C870.413 221.451 870.918 221.013 871.543 220.71C872.172 220.407 872.871 220.256 873.638 220.256C874.471 220.256 875.196 220.421 875.811 220.753C876.431 221.084 876.91 221.539 877.246 222.116C877.587 222.694 877.757 223.352 877.757 224.091C877.757 224.612 877.677 225.083 877.516 225.504C877.359 225.926 877.132 226.302 876.834 226.634C876.54 226.965 876.185 227.259 875.768 227.514C875.352 227.775 875.018 228.049 874.767 228.338C874.516 228.622 874.334 228.961 874.22 229.354C874.107 229.747 874.045 230.237 874.036 230.824V230.909H872.331ZM873.24 235.114C872.89 235.114 872.589 234.988 872.338 234.737C872.087 234.486 871.962 234.186 871.962 233.835C871.962 233.485 872.087 233.184 872.338 232.933C872.589 232.682 872.89 232.557 873.24 232.557C873.59 232.557 873.891 232.682 874.142 232.933C874.393 233.184 874.518 233.485 874.518 233.835C874.518 234.067 874.459 234.28 874.341 234.474C874.227 234.669 874.073 234.825 873.879 234.943C873.69 235.057 873.477 235.114 873.24 235.114Z" fill="black"/>
</svg>
