<svg width="1024" height="1024" viewBox="0 0 1024 1024" fill="none" xmlns="http://www.w3.org/2000/svg">
<path d="M330.961 466.425C352.505 461.501 376.783 464.95 398.817 464.95" stroke="black" stroke-opacity="0.5" stroke-width="3" stroke-linecap="round"/>
<path d="M366.364 467.901C361.027 472.006 349.704 493.064 354.563 500.353" stroke="black" stroke-opacity="0.5" stroke-width="3" stroke-linecap="round"/>
<path d="M382.59 473.801C378.388 479.297 370.789 485.514 370.789 492.978" stroke="black" stroke-opacity="0.5" stroke-width="3" stroke-linecap="round"/>
<path d="M373.738 484.127C380.998 479.59 393.201 478.179 401.766 476.751" stroke="black" stroke-opacity="0.5" stroke-width="3" stroke-linecap="round"/>
<path d="M404.716 466.425C402.581 469.546 389.349 492.67 392.915 494.453" stroke="black" stroke-opacity="0.5" stroke-width="3" stroke-linecap="round"/>
<path d="M410.618 470.851C404.666 477.398 401.768 488.659 401.768 497.403" stroke="black" stroke-opacity="0.5" stroke-width="3" stroke-linecap="round"/>
<path d="M432.745 469.376C430.284 470.244 413.951 474.76 415.371 479.374C417.481 486.233 444.313 488.584 450.61 490.683C459.273 493.571 446.588 495.938 443.398 496.666C433.927 498.826 424.441 500.954 415.043 503.304" stroke="black" stroke-opacity="0.5" stroke-width="3" stroke-linecap="round"/>
<path d="M513.876 464.95C506.367 470.373 505.053 482.304 502.813 490.519C502.147 492.959 496.979 506.455 500.6 497.403" stroke="black" stroke-opacity="0.5" stroke-width="3" stroke-linecap="round"/>
<path d="M510.927 469.376C514.384 470.144 515.327 478.242 512.402 480.029C507.325 483.132 501.366 483.007 496.176 485.602" stroke="black" stroke-opacity="0.5" stroke-width="3" stroke-linecap="round"/>
<path d="M527.152 467.901C522.076 473.275 518.492 479.391 517.154 486.749C516.042 492.869 529.65 488.814 533.053 488.552" stroke="black" stroke-opacity="0.5" stroke-width="3" stroke-linecap="round"/>
<path d="M541.904 492.978C541.904 480.258 547.994 473.272 555.754 463.721C559.153 459.538 558.131 476.482 558.131 478.309C558.131 484.934 558.009 491.017 559.606 497.403" stroke="black" stroke-opacity="0.5" stroke-width="3" stroke-linecap="round"/>
<path d="M538.955 484.127C543.46 479.873 549.816 478.284 555.837 477.079C561.975 475.852 568.108 472.326 574.358 472.326" stroke="black" stroke-opacity="0.5" stroke-width="3" stroke-linecap="round"/>
<path d="M583.209 462C574.846 464.281 567.354 481.847 575.915 487.733C582.013 491.925 588.008 487.443 593.535 484.127" stroke="black" stroke-opacity="0.5" stroke-width="3" stroke-linecap="round"/>
<path d="M593.535 467.901C603.661 464.646 614.266 464.562 624.513 462" stroke="black" stroke-opacity="0.5" stroke-width="3" stroke-linecap="round"/>
<path d="M602.385 463.475C600.289 466.502 590.273 496.824 593.534 498.551C597.505 500.653 613.758 493.737 617.464 492.65C626.553 489.984 637.029 484.127 646.639 484.127" stroke="black" stroke-opacity="0.5" stroke-width="3" stroke-linecap="round"/>
<path d="M602.385 479.702C607.182 475.384 616.762 471.897 623.037 470.851" stroke="black" stroke-opacity="0.5" stroke-width="3" stroke-linecap="round"/>
<path d="M258.679 526.906C253.166 522.495 239.106 526.436 232.947 526.988C219.903 528.156 213.362 530.771 224.178 541.002C227.191 543.852 242.146 551.971 233.274 553.786C225.619 555.352 217.815 556.409 210 556.409" stroke="black" stroke-opacity="0.5" stroke-width="3" stroke-linecap="round"/>
<path d="M248.354 559.359C248.354 561.308 250.311 554.254 250.566 553.458C253.329 544.862 259.068 537.217 264.58 530.184C265.262 529.314 277.744 514.673 279.331 519.039C281.341 524.565 278.413 529.398 277.938 534.855C277.396 541.094 281.313 531.512 282.937 529.856C284.38 528.386 295.23 518.384 295.23 524.529C295.23 535.067 288.182 544.023 288.182 554.934" stroke="black" stroke-opacity="0.5" stroke-width="3" stroke-linecap="round"/>
<path d="M305.883 529.856C311.497 525.365 321.336 526.906 328.01 526.906" stroke="black" stroke-opacity="0.5" stroke-width="3" stroke-linecap="round"/>
<path d="M298.507 526.906C297.608 529.604 294.671 553.695 297.933 555.507C300.888 557.149 313.959 549.778 317.684 549.033" stroke="black" stroke-opacity="0.5" stroke-width="3" stroke-linecap="round"/>
<path d="M283.756 544.608C296.494 544.608 315.413 548.33 326.535 541.657" stroke="black" stroke-opacity="0.5" stroke-width="3" stroke-linecap="round"/>
<path d="M344.237 526.906C339.556 533.386 325.885 553.552 336.041 560.015C341.919 563.755 348.785 556.685 353.087 553.458" stroke="black" stroke-opacity="0.5" stroke-width="3" stroke-linecap="round"/>
<path d="M358.987 525.431C357.525 531.827 354.662 545.839 358.987 551.246C360.145 552.693 382.36 545.88 385.54 544.608" stroke="black" stroke-opacity="0.5" stroke-width="3" stroke-linecap="round"/>
<path d="M398.816 518.055C392.818 518.055 386.694 521.495 383.245 526.578C380.059 531.273 401.244 536.435 403.733 537.56C420.777 545.257 382.82 550.508 378.164 550.508" stroke="black" stroke-opacity="0.5" stroke-width="3" stroke-linecap="round"/>
<path d="M478.474 522.481C474.425 530.58 471.049 538.742 468.886 547.394C468.028 550.824 475.833 546.07 479.294 545.345C485.659 544.013 491.674 542.743 497.651 540.182" stroke="black" stroke-opacity="0.5" stroke-width="3" stroke-linecap="round"/>
<path d="M510.928 523.956C505.376 530.124 500.602 539.125 500.602 547.558" stroke="black" stroke-opacity="0.5" stroke-width="3" stroke-linecap="round"/>
<path d="M522.728 521.005C521.328 525.287 512.916 548.072 515.352 550.508" stroke="black" stroke-opacity="0.5" stroke-width="3" stroke-linecap="round"/>
<path d="M544.855 518.055C539.669 518.055 522.669 528.566 519.778 533.626C516.483 539.393 536.465 547.003 538.955 551.983" stroke="black" stroke-opacity="0.5" stroke-width="3" stroke-linecap="round"/>
<path d="M543.379 525.431C544.827 522.173 556.089 521.005 559.605 521.005" stroke="black" stroke-opacity="0.5" stroke-width="3" stroke-linecap="round"/>
<path d="M543.38 525.431C543.21 527.636 537.412 546.38 541.249 547.476C548.764 549.623 560.364 546.083 568.457 546.083" stroke="black" stroke-opacity="0.5" stroke-width="3" stroke-linecap="round"/>
<path d="M540.43 537.232C540.921 533.304 561.352 532.807 565.507 532.807" stroke="black" stroke-opacity="0.5" stroke-width="3" stroke-linecap="round"/>
<path d="M649.59 518.055C642.74 520.909 640.502 530.032 639.182 536.412C638.528 539.573 636.434 542.511 636.314 545.755C636.262 547.146 637.745 547.558 636.314 547.558" stroke="black" stroke-opacity="0.5" stroke-width="3" stroke-linecap="round"/>
<path d="M631.889 537.232C640.564 533.762 653.853 534.882 661.391 529.856" stroke="black" stroke-opacity="0.5" stroke-width="3" stroke-linecap="round"/>
<path d="M665.816 519.53C665.133 525.681 656.137 535.989 659.916 541.657" stroke="black" stroke-opacity="0.5" stroke-width="3" stroke-linecap="round"/>
<path d="M683.517 523.956C677.537 527.544 672.226 531.272 672.372 538.707C672.412 540.776 675.6 548.884 679.092 547.23C684.319 544.754 684.16 537.224 683.189 532.479C681.655 524.977 674.895 526.906 668.766 526.906" stroke="black" stroke-opacity="0.5" stroke-width="3" stroke-linecap="round"/>
<path d="M689.418 550.508C689.825 543.174 691.672 528.572 696.056 522.726C699.053 518.731 699.645 534.564 701.547 535.429C702.577 535.897 715.806 512.022 715.806 514.121C715.806 522.303 714.495 530.448 714.495 538.707" stroke="black" stroke-opacity="0.5" stroke-width="3" stroke-linecap="round"/>
<path d="M726.297 519.53C733.021 515.134 740.411 513.63 748.424 513.63" stroke="black" stroke-opacity="0.5" stroke-width="3" stroke-linecap="round"/>
<path d="M736.623 516.58C733.734 520.257 720.071 548.636 725.642 551.819C728.86 553.658 742.579 550.397 743.999 547.558" stroke="black" stroke-opacity="0.5" stroke-width="3" stroke-linecap="round"/>
<path d="M718.92 534.282C725.879 534.282 732.596 535.757 739.572 535.757" stroke="black" stroke-opacity="0.5" stroke-width="3" stroke-linecap="round"/>
<path d="M769.075 549.033C763.722 553.791 757.002 547.423 761.7 544.935C764.729 543.331 773.058 550.508 767.6 550.508" stroke="black" stroke-opacity="0.5" stroke-width="3" stroke-linecap="round"/>
<path d="M783.827 549.033C785.798 549.033 781.363 551.104 780.959 549.689C780.493 548.058 782.039 544.713 783.827 544.608C791.009 544.185 790.986 550.508 783.827 550.508" stroke="black" stroke-opacity="0.5" stroke-width="3" stroke-linecap="round"/>
<path d="M810.379 549.033C805.393 551.379 795.396 548.083 803.003 544.28C809.107 541.228 817.702 547.101 810.379 551.983" stroke="black" stroke-opacity="0.5" stroke-width="3" stroke-linecap="round"/>
</svg>
