<svg width="1024" height="1024" viewBox="0 0 1024 1024" fill="none" xmlns="http://www.w3.org/2000/svg">
<path d="M241.186 536.031C227.489 536.716 213.947 539.722 200.182 539.722C195.467 539.722 190.751 539.722 186.036 539.722C180.204 539.722 182.405 547.478 181.115 551.715C178.997 558.676 180.79 568.593 178.04 574.78C174.413 582.94 185.827 577.107 189.624 576.728C192.937 576.396 224.51 579.659 224.58 578.47C224.742 575.705 225.987 573.669 226.322 570.987C227.053 565.137 223.899 559.535 224.682 553.663C225.153 550.128 225.527 539.248 228.27 537.876" stroke="black" stroke-opacity="0.5" stroke-width="3" stroke-linecap="round"/>
<path d="M171.07 541.567C171.658 536.281 180.926 529.225 185.012 525.883C190.591 521.318 193.713 512.997 199.773 509.789C210.827 503.936 221.115 532.453 228.271 536.031" stroke="black" stroke-opacity="0.5" stroke-width="3" stroke-linecap="round"/>
<path d="M178.452 545.257C177.882 540.696 163.626 545.257 160 545.257" stroke="black" stroke-opacity="0.5" stroke-width="3" stroke-linecap="round"/>
<path d="M656.223 528.505C646.942 528.505 627.369 524.106 620.345 530.35C613.633 536.316 604.558 529.693 604.558 543.266C604.558 551.598 605.217 564.88 602.303 572.789C599.081 581.535 601.791 585.239 610.914 581.092C616.552 578.53 625.125 580.17 631.313 580.17C635.032 580.17 647.673 582.104 650.278 579.76C651.964 578.242 650.626 570.058 650.79 568.176C651.288 562.45 654.378 558.492 654.378 552.492C654.378 545.222 658.068 538.952 658.068 532.195" stroke="black" stroke-opacity="0.5" stroke-width="3" stroke-linecap="round"/>
<path d="M311.303 532.341C303.3 532.341 292.293 533.912 292.851 543.412C292.982 545.624 305.872 550.268 308.433 553.56C313.295 559.812 304.371 564.673 299.309 565.451C290.973 566.734 288.416 567.009 285.471 558.173" stroke="black" stroke-opacity="0.5" stroke-width="3" stroke-linecap="round"/>
<path d="M316.84 536.031C327.246 536.031 337.313 530.496 348.208 530.496" stroke="black" stroke-opacity="0.5" stroke-width="3" stroke-linecap="round"/>
<path d="M331.599 530.496C330.96 536.888 326.361 541.994 326.064 548.537C325.844 553.371 326.955 557.759 324.219 561.864" stroke="black" stroke-opacity="0.5" stroke-width="3" stroke-linecap="round"/>
<path d="M335.291 563.709C338.178 563.067 343.335 553.423 345.234 550.793C348.53 546.229 352.006 542.405 356.51 538.902C361.582 534.957 359.278 560.452 359.278 563.709" stroke="black" stroke-opacity="0.5" stroke-width="3" stroke-linecap="round"/>
<path d="M340.826 550.793C345.676 550.793 351.765 548.948 357.433 548.948" stroke="black" stroke-opacity="0.5" stroke-width="3" stroke-linecap="round"/>
<path d="M370.35 528.651C374.616 532.917 377.328 537.742 383.266 539.722" stroke="black" stroke-opacity="0.5" stroke-width="3" stroke-linecap="round"/>
<path d="M396.182 526.805C388.472 536.443 384.548 549.792 377.73 560.019" stroke="black" stroke-opacity="0.5" stroke-width="3" stroke-linecap="round"/>
<path d="M713.425 540.916C711.424 555.424 705.17 577.496 726.341 570.439" stroke="black" stroke-opacity="0.5" stroke-width="3" stroke-linecap="round"/>
<path d="M731.875 546.452C740.447 545.499 748.794 540.916 757.707 540.916" stroke="black" stroke-opacity="0.5" stroke-width="3" stroke-linecap="round"/>
<path d="M739.256 544.606C736.564 550.663 737.386 563.27 740.178 569.414C743.883 577.564 754.471 572.171 761.398 570.439" stroke="black" stroke-opacity="0.5" stroke-width="3" stroke-linecap="round"/>
<path d="M739.256 557.523C747.155 557.523 756.513 557.197 763.243 553.832" stroke="black" stroke-opacity="0.5" stroke-width="3" stroke-linecap="round"/>
<path d="M766.934 574.129C767.442 569.55 771.629 562.933 772.879 557.933C774.385 551.909 779.993 546.249 783.13 540.916C789.41 530.241 793.172 563.667 796.456 568.594" stroke="black" stroke-opacity="0.5" stroke-width="3" stroke-linecap="round"/>
<path d="M770.625 557.523C778.666 556.718 786.739 553.562 794.612 551.987" stroke="black" stroke-opacity="0.5" stroke-width="3" stroke-linecap="round"/>
<path d="M800.146 535.381C801.017 537.895 810.567 567.246 812.653 559.368C814.977 550.588 815.374 539.294 820.443 531.69" stroke="black" stroke-opacity="0.5" stroke-width="3" stroke-linecap="round"/>
<path d="M831.516 528C840.835 528 851.966 529.422 861.038 531.69" stroke="black" stroke-opacity="0.5" stroke-width="3" stroke-linecap="round"/>
<path d="M837.05 529.845C837.05 534.997 832.172 559.424 838.075 561.11C845.156 563.134 857.944 563.058 864.727 563.058" stroke="black" stroke-opacity="0.5" stroke-width="3" stroke-linecap="round"/>
<path d="M859.193 546.452C850.334 545.467 840.736 546.452 831.516 546.452" stroke="black" stroke-opacity="0.5" stroke-width="3" stroke-linecap="round"/>
<path d="M213.511 173.455H215.528L219.562 180.244H219.733L223.767 173.455H225.784L220.528 182.006V188H218.767V182.006L213.511 173.455ZM230.866 188.227C229.815 188.227 228.908 187.995 228.146 187.531C227.388 187.062 226.803 186.409 226.391 185.571C225.984 184.728 225.781 183.748 225.781 182.631C225.781 181.513 225.984 180.528 226.391 179.676C226.803 178.819 227.376 178.152 228.11 177.673C228.849 177.19 229.71 176.949 230.695 176.949C231.263 176.949 231.825 177.044 232.379 177.233C232.933 177.422 233.437 177.73 233.891 178.156C234.346 178.578 234.708 179.136 234.978 179.832C235.248 180.528 235.383 181.385 235.383 182.403V183.114H226.974V181.665H233.678C233.678 181.049 233.555 180.5 233.309 180.017C233.067 179.534 232.722 179.153 232.272 178.874C231.827 178.594 231.301 178.455 230.695 178.455C230.028 178.455 229.45 178.62 228.962 178.952C228.479 179.278 228.108 179.705 227.847 180.23C227.587 180.756 227.457 181.319 227.457 181.92V182.886C227.457 183.71 227.599 184.409 227.883 184.982C228.172 185.55 228.572 185.983 229.083 186.281C229.594 186.575 230.189 186.722 230.866 186.722C231.306 186.722 231.704 186.66 232.059 186.537C232.419 186.409 232.729 186.22 232.989 185.969C233.25 185.713 233.451 185.396 233.593 185.017L235.212 185.472C235.042 186.021 234.755 186.504 234.353 186.92C233.951 187.332 233.453 187.654 232.862 187.886C232.27 188.114 231.604 188.227 230.866 188.227ZM241.143 188.256C240.451 188.256 239.824 188.125 239.261 187.865C238.697 187.6 238.25 187.219 237.918 186.722C237.587 186.22 237.421 185.614 237.421 184.903C237.421 184.278 237.544 183.772 237.79 183.384C238.037 182.991 238.366 182.683 238.778 182.46C239.19 182.238 239.644 182.072 240.141 181.963C240.643 181.849 241.147 181.759 241.654 181.693C242.317 181.608 242.854 181.544 243.266 181.501C243.683 181.454 243.986 181.376 244.175 181.267C244.37 181.158 244.467 180.969 244.467 180.699V180.642C244.467 179.941 244.275 179.397 243.891 179.009C243.513 178.62 242.937 178.426 242.165 178.426C241.365 178.426 240.738 178.601 240.283 178.952C239.829 179.302 239.509 179.676 239.325 180.074L237.734 179.506C238.018 178.843 238.397 178.327 238.87 177.957C239.348 177.583 239.869 177.323 240.433 177.176C241.001 177.025 241.559 176.949 242.109 176.949C242.459 176.949 242.862 176.991 243.316 177.077C243.775 177.157 244.218 177.325 244.644 177.581C245.075 177.837 245.433 178.223 245.717 178.739C246.001 179.255 246.143 179.946 246.143 180.812V188H244.467V186.523H244.381C244.268 186.759 244.078 187.013 243.813 187.283C243.548 187.553 243.195 187.782 242.755 187.972C242.315 188.161 241.777 188.256 241.143 188.256ZM241.398 186.75C242.061 186.75 242.62 186.62 243.075 186.359C243.534 186.099 243.879 185.763 244.112 185.351C244.348 184.939 244.467 184.506 244.467 184.051V182.517C244.396 182.602 244.239 182.68 243.998 182.751C243.761 182.818 243.487 182.877 243.174 182.929C242.866 182.976 242.566 183.019 242.272 183.057C241.983 183.09 241.749 183.118 241.569 183.142C241.133 183.199 240.726 183.291 240.347 183.419C239.973 183.542 239.67 183.729 239.438 183.98C239.211 184.226 239.097 184.562 239.097 184.989C239.097 185.571 239.313 186.011 239.744 186.31C240.179 186.603 240.731 186.75 241.398 186.75ZM250.878 181.438V188H249.202V173.455H250.878V178.795H251.02C251.276 178.232 251.659 177.785 252.171 177.453C252.687 177.117 253.373 176.949 254.23 176.949C254.974 176.949 255.625 177.098 256.184 177.396C256.742 177.69 257.176 178.142 257.483 178.753C257.796 179.359 257.952 180.131 257.952 181.068V188H256.276V181.182C256.276 180.315 256.051 179.645 255.601 179.172C255.156 178.694 254.538 178.455 253.748 178.455C253.198 178.455 252.706 178.571 252.27 178.803C251.839 179.035 251.498 179.373 251.248 179.818C251.001 180.263 250.878 180.803 250.878 181.438ZM263.518 186.011L263.405 186.778C263.324 187.318 263.201 187.896 263.036 188.511C262.875 189.127 262.706 189.707 262.531 190.251C262.356 190.796 262.212 191.229 262.098 191.551H260.82C260.881 191.248 260.962 190.848 261.061 190.351C261.161 189.854 261.26 189.297 261.359 188.682C261.464 188.071 261.549 187.446 261.615 186.807L261.7 186.011H263.518ZM274.238 173.455V188H272.476V173.455H274.238ZM287.911 177.091V178.511H282.258V177.091H287.911ZM283.906 174.477H285.582V184.875C285.582 185.348 285.65 185.704 285.788 185.94C285.93 186.172 286.11 186.329 286.327 186.409C286.55 186.485 286.784 186.523 287.031 186.523C287.215 186.523 287.367 186.513 287.485 186.494C287.603 186.471 287.698 186.452 287.769 186.438L288.11 187.943C287.996 187.986 287.838 188.028 287.634 188.071C287.431 188.118 287.173 188.142 286.86 188.142C286.387 188.142 285.923 188.04 285.468 187.837C285.018 187.633 284.644 187.323 284.346 186.906C284.052 186.49 283.906 185.964 283.906 185.33V174.477ZM292.343 181.438V188H290.667V173.455H292.343V178.795H292.485C292.741 178.232 293.124 177.785 293.636 177.453C294.152 177.117 294.838 176.949 295.695 176.949C296.439 176.949 297.09 177.098 297.648 177.396C298.207 177.69 298.64 178.142 298.948 178.753C299.261 179.359 299.417 180.131 299.417 181.068V188H297.741V181.182C297.741 180.315 297.516 179.645 297.066 179.172C296.621 178.694 296.003 178.455 295.212 178.455C294.663 178.455 294.171 178.571 293.735 178.803C293.304 179.035 292.963 179.373 292.712 179.818C292.466 180.263 292.343 180.803 292.343 181.438ZM302.483 188V177.091H304.159V188H302.483ZM303.336 175.273C303.009 175.273 302.727 175.161 302.49 174.939C302.258 174.716 302.142 174.449 302.142 174.136C302.142 173.824 302.258 173.556 302.49 173.334C302.727 173.111 303.009 173 303.336 173C303.662 173 303.942 173.111 304.174 173.334C304.41 173.556 304.529 173.824 304.529 174.136C304.529 174.449 304.41 174.716 304.174 174.939C303.942 175.161 303.662 175.273 303.336 175.273ZM308.906 181.438V188H307.229V177.091H308.849V178.795H308.991C309.246 178.241 309.635 177.796 310.156 177.46C310.676 177.119 311.349 176.949 312.173 176.949C312.911 176.949 313.558 177.1 314.112 177.403C314.665 177.702 315.096 178.156 315.404 178.767C315.712 179.373 315.866 180.14 315.866 181.068V188H314.19V181.182C314.19 180.325 313.967 179.657 313.522 179.179C313.077 178.696 312.466 178.455 311.69 178.455C311.155 178.455 310.676 178.571 310.255 178.803C309.838 179.035 309.509 179.373 309.268 179.818C309.026 180.263 308.906 180.803 308.906 181.438ZM320.491 184.023L320.463 181.949H320.804L325.576 177.091H327.65L322.565 182.233H322.423L320.491 184.023ZM318.929 188V173.455H320.605V188H318.929ZM325.86 188L321.599 182.602L322.792 181.438L327.991 188H325.86ZM343.16 179.534L341.654 179.96C341.559 179.709 341.42 179.465 341.235 179.229C341.055 178.987 340.809 178.788 340.496 178.632C340.184 178.476 339.784 178.398 339.296 178.398C338.629 178.398 338.072 178.552 337.627 178.859C337.187 179.162 336.967 179.548 336.967 180.017C336.967 180.434 337.118 180.763 337.421 181.004C337.724 181.246 338.198 181.447 338.842 181.608L340.461 182.006C341.436 182.242 342.163 182.605 342.641 183.092C343.12 183.575 343.359 184.198 343.359 184.96C343.359 185.585 343.179 186.144 342.819 186.636C342.464 187.129 341.967 187.517 341.327 187.801C340.688 188.085 339.945 188.227 339.097 188.227C337.985 188.227 337.064 187.986 336.335 187.503C335.605 187.02 335.144 186.314 334.95 185.386L336.54 184.989C336.692 185.576 336.978 186.016 337.4 186.31C337.826 186.603 338.382 186.75 339.069 186.75C339.85 186.75 340.47 186.584 340.93 186.253C341.394 185.917 341.626 185.514 341.626 185.045C341.626 184.667 341.493 184.349 341.228 184.094C340.963 183.833 340.556 183.639 340.006 183.511L338.188 183.085C337.189 182.848 336.455 182.482 335.987 181.984C335.522 181.482 335.29 180.855 335.29 180.102C335.29 179.487 335.463 178.942 335.809 178.469C336.159 177.995 336.635 177.624 337.237 177.354C337.843 177.084 338.529 176.949 339.296 176.949C340.376 176.949 341.223 177.186 341.839 177.659C342.459 178.133 342.899 178.758 343.16 179.534ZM350.314 188.227C349.329 188.227 348.465 187.993 347.721 187.524C346.983 187.055 346.405 186.4 345.988 185.557C345.576 184.714 345.37 183.729 345.37 182.602C345.37 181.466 345.576 180.474 345.988 179.626C346.405 178.779 346.983 178.121 347.721 177.652C348.465 177.183 349.329 176.949 350.314 176.949C351.298 176.949 352.16 177.183 352.899 177.652C353.642 178.121 354.22 178.779 354.632 179.626C355.048 180.474 355.257 181.466 355.257 182.602C355.257 183.729 355.048 184.714 354.632 185.557C354.22 186.4 353.642 187.055 352.899 187.524C352.16 187.993 351.298 188.227 350.314 188.227ZM350.314 186.722C351.062 186.722 351.677 186.53 352.16 186.146C352.643 185.763 353.001 185.259 353.233 184.634C353.465 184.009 353.581 183.331 353.581 182.602C353.581 181.873 353.465 181.194 353.233 180.564C353.001 179.934 352.643 179.425 352.16 179.037C351.677 178.649 351.062 178.455 350.314 178.455C349.565 178.455 348.95 178.649 348.467 179.037C347.984 179.425 347.627 179.934 347.395 180.564C347.163 181.194 347.047 181.873 347.047 182.602C347.047 183.331 347.163 184.009 347.395 184.634C347.627 185.259 347.984 185.763 348.467 186.146C348.95 186.53 349.565 186.722 350.314 186.722ZM359.037 188.114C358.687 188.114 358.386 187.988 358.135 187.737C357.884 187.486 357.759 187.186 357.759 186.835C357.759 186.485 357.884 186.184 358.135 185.933C358.386 185.682 358.687 185.557 359.037 185.557C359.387 185.557 359.688 185.682 359.939 185.933C360.19 186.184 360.315 186.485 360.315 186.835C360.315 187.067 360.256 187.28 360.138 187.474C360.024 187.669 359.87 187.825 359.676 187.943C359.487 188.057 359.274 188.114 359.037 188.114Z" fill="black"/>
<path d="M432.575 460V449.091H434.194V450.795H434.336C434.564 450.213 434.931 449.761 435.437 449.439C435.944 449.112 436.552 448.949 437.263 448.949C437.982 448.949 438.581 449.112 439.059 449.439C439.542 449.761 439.919 450.213 440.189 450.795H440.302C440.582 450.232 441.001 449.785 441.559 449.453C442.118 449.117 442.788 448.949 443.569 448.949C444.545 448.949 445.343 449.254 445.963 449.865C446.583 450.471 446.893 451.416 446.893 452.699V460H445.217V452.699C445.217 451.894 444.997 451.319 444.557 450.973C444.116 450.627 443.598 450.455 443.001 450.455C442.234 450.455 441.64 450.687 441.219 451.151C440.797 451.61 440.586 452.192 440.586 452.898V460H438.882V452.528C438.882 451.908 438.681 451.409 438.278 451.03C437.876 450.646 437.357 450.455 436.723 450.455C436.287 450.455 435.88 450.571 435.501 450.803C435.127 451.035 434.824 451.357 434.592 451.768C434.365 452.176 434.251 452.647 434.251 453.182V460H432.575ZM453.168 460.256C452.477 460.256 451.849 460.125 451.286 459.865C450.723 459.6 450.275 459.219 449.944 458.722C449.612 458.22 449.447 457.614 449.447 456.903C449.447 456.278 449.57 455.772 449.816 455.384C450.062 454.991 450.391 454.683 450.803 454.46C451.215 454.238 451.67 454.072 452.167 453.963C452.669 453.849 453.173 453.759 453.68 453.693C454.342 453.608 454.88 453.544 455.292 453.501C455.708 453.454 456.011 453.376 456.201 453.267C456.395 453.158 456.492 452.969 456.492 452.699V452.642C456.492 451.941 456.3 451.397 455.917 451.009C455.538 450.62 454.963 450.426 454.191 450.426C453.391 450.426 452.763 450.601 452.309 450.952C451.854 451.302 451.535 451.676 451.35 452.074L449.759 451.506C450.043 450.843 450.422 450.327 450.895 449.957C451.374 449.583 451.894 449.323 452.458 449.176C453.026 449.025 453.585 448.949 454.134 448.949C454.484 448.949 454.887 448.991 455.341 449.077C455.801 449.157 456.243 449.325 456.67 449.581C457.1 449.837 457.458 450.223 457.742 450.739C458.026 451.255 458.168 451.946 458.168 452.812V460H456.492V458.523H456.407C456.293 458.759 456.104 459.013 455.839 459.283C455.573 459.553 455.221 459.782 454.78 459.972C454.34 460.161 453.803 460.256 453.168 460.256ZM453.424 458.75C454.087 458.75 454.645 458.62 455.1 458.359C455.559 458.099 455.905 457.763 456.137 457.351C456.374 456.939 456.492 456.506 456.492 456.051V454.517C456.421 454.602 456.265 454.68 456.023 454.751C455.787 454.818 455.512 454.877 455.199 454.929C454.892 454.976 454.591 455.019 454.297 455.057C454.009 455.09 453.774 455.118 453.594 455.142C453.159 455.199 452.751 455.291 452.373 455.419C451.999 455.542 451.696 455.729 451.464 455.98C451.236 456.226 451.123 456.562 451.123 456.989C451.123 457.571 451.338 458.011 451.769 458.31C452.205 458.603 452.756 458.75 453.424 458.75ZM462.79 456.023L462.762 453.949H463.102L467.875 449.091H469.949L464.864 454.233H464.722L462.79 456.023ZM461.227 460V445.455H462.904V460H461.227ZM468.159 460L463.898 454.602L465.091 453.438L470.29 460H468.159ZM476.231 460.227C475.18 460.227 474.273 459.995 473.511 459.531C472.753 459.062 472.169 458.409 471.757 457.571C471.349 456.728 471.146 455.748 471.146 454.631C471.146 453.513 471.349 452.528 471.757 451.676C472.169 450.819 472.741 450.152 473.475 449.673C474.214 449.19 475.076 448.949 476.061 448.949C476.629 448.949 477.19 449.044 477.744 449.233C478.298 449.422 478.802 449.73 479.257 450.156C479.711 450.578 480.073 451.136 480.343 451.832C480.613 452.528 480.748 453.385 480.748 454.403V455.114H472.339V453.665H479.044C479.044 453.049 478.92 452.5 478.674 452.017C478.433 451.534 478.087 451.153 477.637 450.874C477.192 450.594 476.667 450.455 476.061 450.455C475.393 450.455 474.815 450.62 474.328 450.952C473.845 451.278 473.473 451.705 473.213 452.23C472.952 452.756 472.822 453.319 472.822 453.92V454.886C472.822 455.71 472.964 456.409 473.248 456.982C473.537 457.55 473.937 457.983 474.448 458.281C474.96 458.575 475.554 458.722 476.231 458.722C476.671 458.722 477.069 458.66 477.424 458.537C477.784 458.409 478.094 458.22 478.355 457.969C478.615 457.713 478.816 457.396 478.958 457.017L480.578 457.472C480.407 458.021 480.121 458.504 479.718 458.92C479.316 459.332 478.819 459.654 478.227 459.886C477.635 460.114 476.97 460.227 476.231 460.227ZM493.667 449.091V450.511H488.014V449.091H493.667ZM489.661 446.477H491.338V456.875C491.338 457.348 491.406 457.704 491.544 457.94C491.686 458.172 491.865 458.329 492.083 458.409C492.306 458.485 492.54 458.523 492.786 458.523C492.971 458.523 493.123 458.513 493.241 458.494C493.359 458.471 493.454 458.452 493.525 458.438L493.866 459.943C493.752 459.986 493.594 460.028 493.39 460.071C493.186 460.118 492.928 460.142 492.616 460.142C492.142 460.142 491.678 460.04 491.224 459.837C490.774 459.633 490.4 459.323 490.102 458.906C489.808 458.49 489.661 457.964 489.661 457.33V446.477ZM498.099 453.438V460H496.423V445.455H498.099V450.795H498.241C498.497 450.232 498.88 449.785 499.392 449.453C499.908 449.117 500.594 448.949 501.451 448.949C502.195 448.949 502.846 449.098 503.404 449.396C503.963 449.69 504.396 450.142 504.704 450.753C505.017 451.359 505.173 452.131 505.173 453.068V460H503.497V453.182C503.497 452.315 503.272 451.645 502.822 451.172C502.377 450.694 501.759 450.455 500.968 450.455C500.419 450.455 499.927 450.571 499.491 450.803C499.06 451.035 498.719 451.373 498.468 451.818C498.222 452.263 498.099 452.803 498.099 453.438ZM512.813 460.227C511.762 460.227 510.855 459.995 510.093 459.531C509.335 459.062 508.751 458.409 508.339 457.571C507.931 456.728 507.728 455.748 507.728 454.631C507.728 453.513 507.931 452.528 508.339 451.676C508.751 450.819 509.323 450.152 510.057 449.673C510.796 449.19 511.658 448.949 512.643 448.949C513.211 448.949 513.772 449.044 514.326 449.233C514.88 449.422 515.384 449.73 515.839 450.156C516.293 450.578 516.655 451.136 516.925 451.832C517.195 452.528 517.33 453.385 517.33 454.403V455.114H508.921V453.665H515.626C515.626 453.049 515.502 452.5 515.256 452.017C515.015 451.534 514.669 451.153 514.219 450.874C513.774 450.594 513.249 450.455 512.643 450.455C511.975 450.455 511.397 450.62 510.91 450.952C510.427 451.278 510.055 451.705 509.795 452.23C509.534 452.756 509.404 453.319 509.404 453.92V454.886C509.404 455.71 509.546 456.409 509.83 456.982C510.119 457.55 510.519 457.983 511.03 458.281C511.542 458.575 512.136 458.722 512.813 458.722C513.253 458.722 513.651 458.66 514.006 458.537C514.366 458.409 514.676 458.22 514.937 457.969C515.197 457.713 515.398 457.396 515.54 457.017L517.16 457.472C516.989 458.021 516.703 458.504 516.3 458.92C515.898 459.332 515.401 459.654 514.809 459.886C514.217 460.114 513.552 460.227 512.813 460.227ZM529.937 460.227C528.914 460.227 528.033 459.986 527.295 459.503C526.556 459.02 525.988 458.355 525.59 457.507C525.192 456.66 524.993 455.691 524.993 454.602C524.993 453.494 525.197 452.517 525.604 451.669C526.016 450.817 526.589 450.152 527.323 449.673C528.062 449.19 528.923 448.949 529.908 448.949C530.675 448.949 531.367 449.091 531.982 449.375C532.598 449.659 533.102 450.057 533.495 450.568C533.888 451.08 534.132 451.676 534.226 452.358H532.55C532.422 451.861 532.138 451.42 531.698 451.037C531.262 450.649 530.675 450.455 529.937 450.455C529.283 450.455 528.71 450.625 528.218 450.966C527.73 451.302 527.349 451.778 527.074 452.393C526.805 453.004 526.67 453.722 526.67 454.545C526.67 455.388 526.802 456.122 527.067 456.747C527.337 457.372 527.716 457.857 528.204 458.203C528.696 458.549 529.274 458.722 529.937 458.722C530.372 458.722 530.768 458.646 531.123 458.494C531.478 458.343 531.778 458.125 532.025 457.841C532.271 457.557 532.446 457.216 532.55 456.818H534.226C534.132 457.462 533.897 458.042 533.523 458.558C533.154 459.07 532.664 459.477 532.053 459.78C531.447 460.078 530.742 460.227 529.937 460.227ZM538.353 453.438V460H536.677V445.455H538.353V450.795H538.495C538.751 450.232 539.134 449.785 539.645 449.453C540.162 449.117 540.848 448.949 541.705 448.949C542.448 448.949 543.099 449.098 543.658 449.396C544.217 449.69 544.65 450.142 544.958 450.753C545.27 451.359 545.427 452.131 545.427 453.068V460H543.751V453.182C543.751 452.315 543.526 451.645 543.076 451.172C542.631 450.694 542.013 450.455 541.222 450.455C540.673 450.455 540.18 450.571 539.745 450.803C539.314 451.035 538.973 451.373 538.722 451.818C538.476 452.263 538.353 452.803 538.353 453.438ZM552.925 460.227C551.94 460.227 551.076 459.993 550.333 459.524C549.594 459.055 549.016 458.4 548.6 457.557C548.188 456.714 547.982 455.729 547.982 454.602C547.982 453.466 548.188 452.474 548.6 451.626C549.016 450.779 549.594 450.121 550.333 449.652C551.076 449.183 551.94 448.949 552.925 448.949C553.91 448.949 554.771 449.183 555.51 449.652C556.253 450.121 556.831 450.779 557.243 451.626C557.66 452.474 557.868 453.466 557.868 454.602C557.868 455.729 557.66 456.714 557.243 457.557C556.831 458.4 556.253 459.055 555.51 459.524C554.771 459.993 553.91 460.227 552.925 460.227ZM552.925 458.722C553.673 458.722 554.289 458.53 554.771 458.146C555.254 457.763 555.612 457.259 555.844 456.634C556.076 456.009 556.192 455.331 556.192 454.602C556.192 453.873 556.076 453.194 555.844 452.564C555.612 451.934 555.254 451.425 554.771 451.037C554.289 450.649 553.673 450.455 552.925 450.455C552.177 450.455 551.561 450.649 551.078 451.037C550.595 451.425 550.238 451.934 550.006 452.564C549.774 453.194 549.658 453.873 549.658 454.602C549.658 455.331 549.774 456.009 550.006 456.634C550.238 457.259 550.595 457.763 551.078 458.146C551.561 458.53 552.177 458.722 552.925 458.722ZM560.427 460V449.091H562.103V460H560.427ZM561.279 447.273C560.952 447.273 560.671 447.161 560.434 446.939C560.202 446.716 560.086 446.449 560.086 446.136C560.086 445.824 560.202 445.556 560.434 445.334C560.671 445.111 560.952 445 561.279 445C561.606 445 561.885 445.111 562.117 445.334C562.354 445.556 562.472 445.824 562.472 446.136C562.472 446.449 562.354 446.716 562.117 446.939C561.885 447.161 561.606 447.273 561.279 447.273ZM569.605 460.227C568.582 460.227 567.701 459.986 566.963 459.503C566.224 459.02 565.656 458.355 565.258 457.507C564.86 456.66 564.661 455.691 564.661 454.602C564.661 453.494 564.865 452.517 565.272 451.669C565.684 450.817 566.257 450.152 566.991 449.673C567.73 449.19 568.591 448.949 569.576 448.949C570.343 448.949 571.035 449.091 571.65 449.375C572.266 449.659 572.77 450.057 573.163 450.568C573.556 451.08 573.8 451.676 573.894 452.358H572.218C572.09 451.861 571.806 451.42 571.366 451.037C570.93 450.649 570.343 450.455 569.605 450.455C568.951 450.455 568.378 450.625 567.886 450.966C567.398 451.302 567.017 451.778 566.742 452.393C566.472 453.004 566.338 453.722 566.338 454.545C566.338 455.388 566.47 456.122 566.735 456.747C567.005 457.372 567.384 457.857 567.872 458.203C568.364 458.549 568.942 458.722 569.605 458.722C570.04 458.722 570.436 458.646 570.791 458.494C571.146 458.343 571.446 458.125 571.693 457.841C571.939 457.557 572.114 457.216 572.218 456.818H573.894C573.8 457.462 573.565 458.042 573.191 458.558C572.822 459.07 572.332 459.477 571.721 459.78C571.115 460.078 570.41 460.227 569.605 460.227ZM580.919 460.227C579.867 460.227 578.961 459.995 578.198 459.531C577.441 459.062 576.856 458.409 576.444 457.571C576.037 456.728 575.833 455.748 575.833 454.631C575.833 453.513 576.037 452.528 576.444 451.676C576.856 450.819 577.429 450.152 578.163 449.673C578.901 449.19 579.763 448.949 580.748 448.949C581.316 448.949 581.877 449.044 582.431 449.233C582.985 449.422 583.49 449.73 583.944 450.156C584.399 450.578 584.761 451.136 585.031 451.832C585.301 452.528 585.436 453.385 585.436 454.403V455.114H577.026V453.665H583.731C583.731 453.049 583.608 452.5 583.362 452.017C583.12 451.534 582.775 451.153 582.325 450.874C581.88 450.594 581.354 450.455 580.748 450.455C580.08 450.455 579.503 450.62 579.015 450.952C578.532 451.278 578.16 451.705 577.9 452.23C577.64 452.756 577.509 453.319 577.509 453.92V454.886C577.509 455.71 577.651 456.409 577.936 456.982C578.224 457.55 578.624 457.983 579.136 458.281C579.647 458.575 580.241 458.722 580.919 458.722C581.359 458.722 581.757 458.66 582.112 458.537C582.472 458.409 582.782 458.22 583.042 457.969C583.302 457.713 583.504 457.396 583.646 457.017L585.265 457.472C585.095 458.021 584.808 458.504 584.406 458.92C584.003 459.332 583.506 459.654 582.914 459.886C582.322 460.114 581.657 460.227 580.919 460.227ZM589.207 460.114C588.856 460.114 588.556 459.988 588.305 459.737C588.054 459.486 587.928 459.186 587.928 458.835C587.928 458.485 588.054 458.184 588.305 457.933C588.556 457.682 588.856 457.557 589.207 457.557C589.557 457.557 589.858 457.682 590.109 457.933C590.36 458.184 590.485 458.485 590.485 458.835C590.485 459.067 590.426 459.28 590.308 459.474C590.194 459.669 590.04 459.825 589.846 459.943C589.657 460.057 589.444 460.114 589.207 460.114ZM589.207 452.017C588.856 452.017 588.556 451.892 588.305 451.641C588.054 451.39 587.928 451.089 587.928 450.739C587.928 450.388 588.054 450.088 588.305 449.837C588.556 449.586 588.856 449.46 589.207 449.46C589.557 449.46 589.858 449.586 590.109 449.837C590.36 450.088 590.485 450.388 590.485 450.739C590.485 450.971 590.426 451.184 590.308 451.378C590.194 451.572 590.04 451.728 589.846 451.847C589.657 451.96 589.444 452.017 589.207 452.017Z" fill="black"/>
</svg>
