<svg width="1024" height="1024" viewBox="0 0 1024 1024" fill="none" xmlns="http://www.w3.org/2000/svg">
<path d="M179.278 508.091V509.511H173.625V508.091H179.278ZM175.273 505.477H176.949V515.875C176.949 516.348 177.018 516.704 177.155 516.94C177.297 517.172 177.477 517.329 177.695 517.409C177.917 517.485 178.152 517.523 178.398 517.523C178.582 517.523 178.734 517.513 178.852 517.494C178.971 517.471 179.065 517.452 179.136 517.438L179.477 518.943C179.364 518.986 179.205 519.028 179.001 519.071C178.798 519.118 178.54 519.142 178.227 519.142C177.754 519.142 177.29 519.04 176.835 518.837C176.385 518.633 176.011 518.323 175.713 517.906C175.42 517.49 175.273 516.964 175.273 516.33V505.477ZM183.71 512.438V519H182.034V504.455H183.71V509.795H183.852C184.108 509.232 184.491 508.785 185.003 508.453C185.519 508.117 186.205 507.949 187.062 507.949C187.806 507.949 188.457 508.098 189.016 508.396C189.574 508.69 190.008 509.142 190.315 509.753C190.628 510.359 190.784 511.131 190.784 512.068V519H189.108V512.182C189.108 511.315 188.883 510.645 188.433 510.172C187.988 509.694 187.37 509.455 186.58 509.455C186.03 509.455 185.538 509.571 185.102 509.803C184.671 510.035 184.33 510.373 184.08 510.818C183.833 511.263 183.71 511.803 183.71 512.438ZM193.85 519V508.091H195.527V519H193.85ZM194.703 506.273C194.376 506.273 194.094 506.161 193.858 505.939C193.626 505.716 193.51 505.449 193.51 505.136C193.51 504.824 193.626 504.556 193.858 504.334C194.094 504.111 194.376 504 194.703 504C195.029 504 195.309 504.111 195.541 504.334C195.778 504.556 195.896 504.824 195.896 505.136C195.896 505.449 195.778 505.716 195.541 505.939C195.309 506.161 195.029 506.273 194.703 506.273ZM206.324 510.534L204.818 510.96C204.723 510.709 204.584 510.465 204.399 510.229C204.219 509.987 203.973 509.788 203.661 509.632C203.348 509.476 202.948 509.398 202.46 509.398C201.793 509.398 201.236 509.552 200.791 509.859C200.351 510.162 200.131 510.548 200.131 511.017C200.131 511.434 200.282 511.763 200.585 512.004C200.888 512.246 201.362 512.447 202.006 512.608L203.625 513.006C204.6 513.242 205.327 513.605 205.805 514.092C206.284 514.575 206.523 515.198 206.523 515.96C206.523 516.585 206.343 517.144 205.983 517.636C205.628 518.129 205.131 518.517 204.491 518.801C203.852 519.085 203.109 519.227 202.261 519.227C201.149 519.227 200.228 518.986 199.499 518.503C198.769 518.02 198.308 517.314 198.114 516.386L199.705 515.989C199.856 516.576 200.143 517.016 200.564 517.31C200.99 517.603 201.546 517.75 202.233 517.75C203.014 517.75 203.634 517.584 204.094 517.253C204.558 516.917 204.79 516.514 204.79 516.045C204.79 515.667 204.657 515.349 204.392 515.094C204.127 514.833 203.72 514.639 203.17 514.511L201.352 514.085C200.353 513.848 199.619 513.482 199.151 512.984C198.687 512.482 198.455 511.855 198.455 511.102C198.455 510.487 198.627 509.942 198.973 509.469C199.323 508.995 199.799 508.624 200.401 508.354C201.007 508.084 201.693 507.949 202.46 507.949C203.54 507.949 204.387 508.186 205.003 508.659C205.623 509.133 206.063 509.758 206.324 510.534ZM214.671 523.091V508.091H216.29V509.824H216.489C216.612 509.634 216.783 509.393 217 509.099C217.223 508.801 217.54 508.536 217.952 508.304C218.369 508.067 218.932 507.949 219.642 507.949C220.561 507.949 221.371 508.179 222.071 508.638C222.772 509.097 223.319 509.748 223.712 510.591C224.105 511.434 224.301 512.428 224.301 513.574C224.301 514.729 224.105 515.731 223.712 516.578C223.319 517.421 222.775 518.074 222.078 518.538C221.382 518.998 220.58 519.227 219.671 519.227C218.97 519.227 218.409 519.111 217.988 518.879C217.566 518.643 217.242 518.375 217.015 518.077C216.787 517.774 216.612 517.523 216.489 517.324H216.347V523.091H214.671ZM216.319 513.545C216.319 514.369 216.439 515.096 216.681 515.726C216.922 516.351 217.275 516.841 217.739 517.196C218.203 517.546 218.771 517.722 219.444 517.722C220.144 517.722 220.729 517.537 221.198 517.168C221.671 516.794 222.026 516.292 222.263 515.662C222.505 515.027 222.625 514.322 222.625 513.545C222.625 512.778 222.507 512.087 222.27 511.472C222.038 510.851 221.685 510.361 221.212 510.001C220.743 509.637 220.154 509.455 219.444 509.455C218.762 509.455 218.189 509.627 217.725 509.973C217.261 510.314 216.91 510.792 216.674 511.408C216.437 512.018 216.319 512.731 216.319 513.545ZM230.069 519.256C229.377 519.256 228.75 519.125 228.186 518.865C227.623 518.6 227.176 518.219 226.844 517.722C226.513 517.22 226.347 516.614 226.347 515.903C226.347 515.278 226.47 514.772 226.716 514.384C226.962 513.991 227.292 513.683 227.703 513.46C228.115 513.238 228.57 513.072 229.067 512.963C229.569 512.849 230.073 512.759 230.58 512.693C231.243 512.608 231.78 512.544 232.192 512.501C232.609 512.454 232.912 512.376 233.101 512.267C233.295 512.158 233.392 511.969 233.392 511.699V511.642C233.392 510.941 233.201 510.397 232.817 510.009C232.438 509.62 231.863 509.426 231.091 509.426C230.291 509.426 229.664 509.601 229.209 509.952C228.755 510.302 228.435 510.676 228.25 511.074L226.659 510.506C226.944 509.843 227.322 509.327 227.796 508.957C228.274 508.583 228.795 508.323 229.358 508.176C229.926 508.025 230.485 507.949 231.034 507.949C231.385 507.949 231.787 507.991 232.242 508.077C232.701 508.157 233.144 508.325 233.57 508.581C234.001 508.837 234.358 509.223 234.642 509.739C234.926 510.255 235.069 510.946 235.069 511.812V519H233.392V517.523H233.307C233.194 517.759 233.004 518.013 232.739 518.283C232.474 518.553 232.121 518.782 231.681 518.972C231.24 519.161 230.703 519.256 230.069 519.256ZM230.324 517.75C230.987 517.75 231.546 517.62 232 517.359C232.46 517.099 232.805 516.763 233.037 516.351C233.274 515.939 233.392 515.506 233.392 515.051V513.517C233.321 513.602 233.165 513.68 232.924 513.751C232.687 513.818 232.412 513.877 232.1 513.929C231.792 513.976 231.491 514.019 231.198 514.057C230.909 514.09 230.675 514.118 230.495 514.142C230.059 514.199 229.652 514.291 229.273 514.419C228.899 514.542 228.596 514.729 228.364 514.98C228.137 515.226 228.023 515.562 228.023 515.989C228.023 516.571 228.239 517.011 228.669 517.31C229.105 517.603 229.657 517.75 230.324 517.75ZM242.531 523.318C241.722 523.318 241.026 523.214 240.443 523.006C239.861 522.802 239.375 522.532 238.987 522.196C238.604 521.865 238.298 521.509 238.071 521.131L239.406 520.193C239.558 520.392 239.75 520.619 239.982 520.875C240.214 521.135 240.531 521.36 240.933 521.55C241.34 521.744 241.873 521.841 242.531 521.841C243.412 521.841 244.139 521.628 244.712 521.202C245.285 520.776 245.571 520.108 245.571 519.199V516.983H245.429C245.306 517.182 245.131 517.428 244.903 517.722C244.681 518.01 244.359 518.268 243.938 518.496C243.521 518.718 242.957 518.83 242.247 518.83C241.366 518.83 240.576 518.621 239.875 518.205C239.179 517.788 238.627 517.182 238.22 516.386C237.818 515.591 237.616 514.625 237.616 513.489C237.616 512.371 237.813 511.398 238.206 510.57C238.599 509.736 239.146 509.092 239.847 508.638C240.547 508.179 241.357 507.949 242.276 507.949C242.986 507.949 243.549 508.067 243.966 508.304C244.387 508.536 244.709 508.801 244.932 509.099C245.159 509.393 245.334 509.634 245.457 509.824H245.628V508.091H247.247V519.312C247.247 520.25 247.034 521.012 246.608 521.599C246.187 522.191 245.618 522.625 244.903 522.899C244.193 523.179 243.402 523.318 242.531 523.318ZM242.474 517.324C243.147 517.324 243.715 517.17 244.179 516.862C244.643 516.554 244.996 516.112 245.237 515.534C245.479 514.956 245.599 514.265 245.599 513.46C245.599 512.674 245.481 511.981 245.244 511.379C245.008 510.778 244.657 510.307 244.193 509.966C243.729 509.625 243.156 509.455 242.474 509.455C241.764 509.455 241.172 509.634 240.699 509.994C240.23 510.354 239.877 510.837 239.641 511.443C239.409 512.049 239.293 512.722 239.293 513.46C239.293 514.218 239.411 514.888 239.648 515.47C239.889 516.048 240.244 516.502 240.713 516.834C241.187 517.161 241.774 517.324 242.474 517.324ZM254.889 519.227C253.838 519.227 252.931 518.995 252.169 518.531C251.411 518.062 250.827 517.409 250.415 516.571C250.008 515.728 249.804 514.748 249.804 513.631C249.804 512.513 250.008 511.528 250.415 510.676C250.827 509.819 251.4 509.152 252.134 508.673C252.872 508.19 253.734 507.949 254.719 507.949C255.287 507.949 255.848 508.044 256.402 508.233C256.956 508.422 257.46 508.73 257.915 509.156C258.369 509.578 258.732 510.136 259.001 510.832C259.271 511.528 259.406 512.385 259.406 513.403V514.114H250.997V512.665H257.702C257.702 512.049 257.579 511.5 257.332 511.017C257.091 510.534 256.745 510.153 256.295 509.874C255.85 509.594 255.325 509.455 254.719 509.455C254.051 509.455 253.473 509.62 252.986 509.952C252.503 510.278 252.131 510.705 251.871 511.23C251.61 511.756 251.48 512.319 251.48 512.92V513.886C251.48 514.71 251.622 515.409 251.906 515.982C252.195 516.55 252.595 516.983 253.107 517.281C253.618 517.575 254.212 517.722 254.889 517.722C255.33 517.722 255.727 517.66 256.082 517.537C256.442 517.409 256.752 517.22 257.013 516.969C257.273 516.713 257.474 516.396 257.616 516.017L259.236 516.472C259.065 517.021 258.779 517.504 258.376 517.92C257.974 518.332 257.477 518.654 256.885 518.886C256.293 519.114 255.628 519.227 254.889 519.227ZM269.257 504.455V519H267.581V504.455H269.257ZM276.901 519.227C275.85 519.227 274.943 518.995 274.181 518.531C273.423 518.062 272.838 517.409 272.426 516.571C272.019 515.728 271.816 514.748 271.816 513.631C271.816 512.513 272.019 511.528 272.426 510.676C272.838 509.819 273.411 509.152 274.145 508.673C274.884 508.19 275.746 507.949 276.73 507.949C277.299 507.949 277.86 508.044 278.414 508.233C278.968 508.422 279.472 508.73 279.926 509.156C280.381 509.578 280.743 510.136 281.013 510.832C281.283 511.528 281.418 512.385 281.418 513.403V514.114H273.009V512.665H279.713C279.713 512.049 279.59 511.5 279.344 511.017C279.103 510.534 278.757 510.153 278.307 509.874C277.862 509.594 277.337 509.455 276.73 509.455C276.063 509.455 275.485 509.62 274.998 509.952C274.515 510.278 274.143 510.705 273.882 511.23C273.622 511.756 273.492 512.319 273.492 512.92V513.886C273.492 514.71 273.634 515.409 273.918 515.982C274.207 516.55 274.607 516.983 275.118 517.281C275.63 517.575 276.224 517.722 276.901 517.722C277.341 517.722 277.739 517.66 278.094 517.537C278.454 517.409 278.764 517.22 279.025 516.969C279.285 516.713 279.486 516.396 279.628 516.017L281.248 516.472C281.077 517.021 280.791 517.504 280.388 517.92C279.986 518.332 279.489 518.654 278.897 518.886C278.305 519.114 277.64 519.227 276.901 519.227ZM288.826 508.091V509.511H282.945V508.091H288.826ZM284.706 519V506.585C284.706 505.96 284.853 505.439 285.147 505.023C285.44 504.606 285.821 504.294 286.29 504.085C286.759 503.877 287.254 503.773 287.775 503.773C288.186 503.773 288.523 503.806 288.783 503.872C289.043 503.938 289.238 504 289.365 504.057L288.882 505.506C288.797 505.477 288.679 505.442 288.527 505.399C288.381 505.357 288.186 505.335 287.945 505.335C287.391 505.335 286.991 505.475 286.745 505.754C286.503 506.034 286.382 506.443 286.382 506.983V519H284.706ZM295.919 508.091V509.511H290.266V508.091H295.919ZM291.913 505.477H293.589V515.875C293.589 516.348 293.658 516.704 293.795 516.94C293.938 517.172 294.117 517.329 294.335 517.409C294.558 517.485 294.792 517.523 295.038 517.523C295.223 517.523 295.375 517.513 295.493 517.494C295.611 517.471 295.706 517.452 295.777 517.438L296.118 518.943C296.004 518.986 295.846 519.028 295.642 519.071C295.438 519.118 295.18 519.142 294.868 519.142C294.394 519.142 293.93 519.04 293.476 518.837C293.026 518.633 292.652 518.323 292.354 517.906C292.06 517.49 291.913 516.964 291.913 516.33V505.477ZM304.065 519V508.091H305.741V519H304.065ZM304.918 506.273C304.591 506.273 304.309 506.161 304.072 505.939C303.84 505.716 303.724 505.449 303.724 505.136C303.724 504.824 303.84 504.556 304.072 504.334C304.309 504.111 304.591 504 304.918 504C305.244 504 305.524 504.111 305.756 504.334C305.992 504.556 306.111 504.824 306.111 505.136C306.111 505.449 305.992 505.716 305.756 505.939C305.524 506.161 305.244 506.273 304.918 506.273ZM310.488 512.438V519H308.811V508.091H310.431V509.795H310.573C310.828 509.241 311.217 508.796 311.738 508.46C312.258 508.119 312.931 507.949 313.755 507.949C314.493 507.949 315.14 508.1 315.694 508.403C316.248 508.702 316.678 509.156 316.986 509.767C317.294 510.373 317.448 511.14 317.448 512.068V519H315.772V512.182C315.772 511.325 315.549 510.657 315.104 510.179C314.659 509.696 314.048 509.455 313.272 509.455C312.737 509.455 312.258 509.571 311.837 509.803C311.42 510.035 311.091 510.373 310.85 510.818C310.608 511.263 310.488 511.803 310.488 512.438ZM325.255 508.091V509.511H319.602V508.091H325.255ZM321.249 505.477H322.925V515.875C322.925 516.348 322.994 516.704 323.131 516.94C323.273 517.172 323.453 517.329 323.671 517.409C323.894 517.485 324.128 517.523 324.374 517.523C324.559 517.523 324.71 517.513 324.829 517.494C324.947 517.471 325.042 517.452 325.113 517.438L325.454 518.943C325.34 518.986 325.182 519.028 324.978 519.071C324.774 519.118 324.516 519.142 324.204 519.142C323.73 519.142 323.266 519.04 322.812 518.837C322.362 518.633 321.988 518.323 321.69 517.906C321.396 517.49 321.249 516.964 321.249 516.33V505.477ZM332.233 519.227C331.182 519.227 330.275 518.995 329.513 518.531C328.755 518.062 328.17 517.409 327.759 516.571C327.351 515.728 327.148 514.748 327.148 513.631C327.148 512.513 327.351 511.528 327.759 510.676C328.17 509.819 328.743 509.152 329.477 508.673C330.216 508.19 331.078 507.949 332.062 507.949C332.631 507.949 333.192 508.044 333.746 508.233C334.3 508.422 334.804 508.73 335.259 509.156C335.713 509.578 336.075 510.136 336.345 510.832C336.615 511.528 336.75 512.385 336.75 513.403V514.114H328.341V512.665H335.045C335.045 512.049 334.922 511.5 334.676 511.017C334.435 510.534 334.089 510.153 333.639 509.874C333.194 509.594 332.669 509.455 332.062 509.455C331.395 509.455 330.817 509.62 330.33 509.952C329.847 510.278 329.475 510.705 329.214 511.23C328.954 511.756 328.824 512.319 328.824 512.92V513.886C328.824 514.71 328.966 515.409 329.25 515.982C329.539 516.55 329.939 516.983 330.45 517.281C330.962 517.575 331.556 517.722 332.233 517.722C332.673 517.722 333.071 517.66 333.426 517.537C333.786 517.409 334.096 517.22 334.357 516.969C334.617 516.713 334.818 516.396 334.96 516.017L336.58 516.472C336.409 517.021 336.123 517.504 335.72 517.92C335.318 518.332 334.821 518.654 334.229 518.886C333.637 519.114 332.972 519.227 332.233 519.227ZM340.976 512.438V519H339.3V508.091H340.919V509.795H341.061C341.317 509.241 341.705 508.796 342.226 508.46C342.747 508.119 343.419 507.949 344.243 507.949C344.982 507.949 345.628 508.1 346.182 508.403C346.736 508.702 347.167 509.156 347.474 509.767C347.782 510.373 347.936 511.14 347.936 512.068V519H346.26V512.182C346.26 511.325 346.037 510.657 345.592 510.179C345.147 509.696 344.536 509.455 343.76 509.455C343.225 509.455 342.747 509.571 342.325 509.803C341.909 510.035 341.58 510.373 341.338 510.818C341.097 511.263 340.976 511.803 340.976 512.438ZM355.743 508.091V509.511H350.09V508.091H355.743ZM351.738 505.477H353.414V515.875C353.414 516.348 353.482 516.704 353.62 516.94C353.762 517.172 353.942 517.329 354.159 517.409C354.382 517.485 354.616 517.523 354.863 517.523C355.047 517.523 355.199 517.513 355.317 517.494C355.435 517.471 355.53 517.452 355.601 517.438L355.942 518.943C355.828 518.986 355.67 519.028 355.466 519.071C355.263 519.118 355.005 519.142 354.692 519.142C354.219 519.142 353.755 519.04 353.3 518.837C352.85 518.633 352.476 518.323 352.178 517.906C351.884 517.49 351.738 516.964 351.738 516.33V505.477ZM358.265 519V508.091H359.941V519H358.265ZM359.117 506.273C358.79 506.273 358.508 506.161 358.272 505.939C358.04 505.716 357.924 505.449 357.924 505.136C357.924 504.824 358.04 504.556 358.272 504.334C358.508 504.111 358.79 504 359.117 504C359.444 504 359.723 504.111 359.955 504.334C360.192 504.556 360.31 504.824 360.31 505.136C360.31 505.449 360.192 505.716 359.955 505.939C359.723 506.161 359.444 506.273 359.117 506.273ZM367.442 519.227C366.458 519.227 365.594 518.993 364.85 518.524C364.112 518.055 363.534 517.4 363.117 516.557C362.705 515.714 362.499 514.729 362.499 513.602C362.499 512.466 362.705 511.474 363.117 510.626C363.534 509.779 364.112 509.121 364.85 508.652C365.594 508.183 366.458 507.949 367.442 507.949C368.427 507.949 369.289 508.183 370.028 508.652C370.771 509.121 371.349 509.779 371.761 510.626C372.177 511.474 372.386 512.466 372.386 513.602C372.386 514.729 372.177 515.714 371.761 516.557C371.349 517.4 370.771 518.055 370.028 518.524C369.289 518.993 368.427 519.227 367.442 519.227ZM367.442 517.722C368.191 517.722 368.806 517.53 369.289 517.146C369.772 516.763 370.129 516.259 370.362 515.634C370.594 515.009 370.71 514.331 370.71 513.602C370.71 512.873 370.594 512.194 370.362 511.564C370.129 510.934 369.772 510.425 369.289 510.037C368.806 509.649 368.191 509.455 367.442 509.455C366.694 509.455 366.079 509.649 365.596 510.037C365.113 510.425 364.755 510.934 364.523 511.564C364.291 512.194 364.175 512.873 364.175 513.602C364.175 514.331 364.291 515.009 364.523 515.634C364.755 516.259 365.113 516.763 365.596 517.146C366.079 517.53 366.694 517.722 367.442 517.722ZM376.62 512.438V519H374.944V508.091H376.564V509.795H376.706C376.961 509.241 377.35 508.796 377.87 508.46C378.391 508.119 379.064 507.949 379.887 507.949C380.626 507.949 381.272 508.1 381.826 508.403C382.38 508.702 382.811 509.156 383.119 509.767C383.427 510.373 383.581 511.14 383.581 512.068V519H381.904V512.182C381.904 511.325 381.682 510.657 381.237 510.179C380.792 509.696 380.181 509.455 379.404 509.455C378.869 509.455 378.391 509.571 377.97 509.803C377.553 510.035 377.224 510.373 376.983 510.818C376.741 511.263 376.62 511.803 376.62 512.438ZM389.854 519.256C389.162 519.256 388.535 519.125 387.972 518.865C387.408 518.6 386.961 518.219 386.629 517.722C386.298 517.22 386.132 516.614 386.132 515.903C386.132 515.278 386.255 514.772 386.501 514.384C386.748 513.991 387.077 513.683 387.489 513.46C387.901 513.238 388.355 513.072 388.852 512.963C389.354 512.849 389.858 512.759 390.365 512.693C391.028 512.608 391.565 512.544 391.977 512.501C392.394 512.454 392.697 512.376 392.886 512.267C393.08 512.158 393.178 511.969 393.178 511.699V511.642C393.178 510.941 392.986 510.397 392.602 510.009C392.223 509.62 391.648 509.426 390.876 509.426C390.076 509.426 389.449 509.601 388.994 509.952C388.54 510.302 388.22 510.676 388.036 511.074L386.445 510.506C386.729 509.843 387.107 509.327 387.581 508.957C388.059 508.583 388.58 508.323 389.143 508.176C389.712 508.025 390.27 507.949 390.82 507.949C391.17 507.949 391.572 507.991 392.027 508.077C392.486 508.157 392.929 508.325 393.355 508.581C393.786 508.837 394.143 509.223 394.428 509.739C394.712 510.255 394.854 510.946 394.854 511.812V519H393.178V517.523H393.092C392.979 517.759 392.789 518.013 392.524 518.283C392.259 518.553 391.906 518.782 391.466 518.972C391.026 519.161 390.488 519.256 389.854 519.256ZM390.109 517.75C390.772 517.75 391.331 517.62 391.786 517.359C392.245 517.099 392.59 516.763 392.822 516.351C393.059 515.939 393.178 515.506 393.178 515.051V513.517C393.107 513.602 392.95 513.68 392.709 513.751C392.472 513.818 392.197 513.877 391.885 513.929C391.577 513.976 391.277 514.019 390.983 514.057C390.694 514.09 390.46 514.118 390.28 514.142C389.844 514.199 389.437 514.291 389.058 514.419C388.684 514.542 388.381 514.729 388.149 514.98C387.922 515.226 387.808 515.562 387.808 515.989C387.808 516.571 388.024 517.011 388.455 517.31C388.89 517.603 389.442 517.75 390.109 517.75ZM399.589 504.455V519H397.913V504.455H399.589ZM404.335 504.455V519H402.659V504.455H404.335ZM408.485 523.091C408.201 523.091 407.947 523.067 407.725 523.02C407.502 522.977 407.348 522.935 407.263 522.892L407.689 521.415C408.096 521.519 408.456 521.557 408.769 521.528C409.081 521.5 409.358 521.36 409.6 521.109C409.846 520.863 410.071 520.463 410.275 519.909L410.587 519.057L406.553 508.091H408.371L411.382 516.784H411.496L414.507 508.091H416.326L411.695 520.591C411.487 521.154 411.229 521.621 410.921 521.99C410.613 522.364 410.256 522.641 409.848 522.821C409.446 523.001 408.991 523.091 408.485 523.091ZM424.39 519V504.455H426.066V509.824H426.208C426.332 509.634 426.502 509.393 426.72 509.099C426.942 508.801 427.26 508.536 427.672 508.304C428.088 508.067 428.652 507.949 429.362 507.949C430.28 507.949 431.09 508.179 431.791 508.638C432.492 509.097 433.038 509.748 433.431 510.591C433.824 511.434 434.021 512.428 434.021 513.574C434.021 514.729 433.824 515.731 433.431 516.578C433.038 517.421 432.494 518.074 431.798 518.538C431.102 518.998 430.299 519.227 429.39 519.227C428.69 519.227 428.128 519.111 427.707 518.879C427.286 518.643 426.961 518.375 426.734 518.077C426.507 517.774 426.332 517.523 426.208 517.324H426.01V519H424.39ZM426.038 513.545C426.038 514.369 426.159 515.096 426.4 515.726C426.642 516.351 426.994 516.841 427.458 517.196C427.922 517.546 428.491 517.722 429.163 517.722C429.864 517.722 430.449 517.537 430.917 517.168C431.391 516.794 431.746 516.292 431.983 515.662C432.224 515.027 432.345 514.322 432.345 513.545C432.345 512.778 432.226 512.087 431.99 511.472C431.758 510.851 431.405 510.361 430.931 510.001C430.463 509.637 429.873 509.455 429.163 509.455C428.481 509.455 427.908 509.627 427.444 509.973C426.98 510.314 426.63 510.792 426.393 511.408C426.156 512.018 426.038 512.731 426.038 513.545ZM438.261 504.455V519H436.585V504.455H438.261ZM444.541 519.256C443.85 519.256 443.223 519.125 442.659 518.865C442.096 518.6 441.648 518.219 441.317 517.722C440.985 517.22 440.82 516.614 440.82 515.903C440.82 515.278 440.943 514.772 441.189 514.384C441.435 513.991 441.764 513.683 442.176 513.46C442.588 513.238 443.043 513.072 443.54 512.963C444.042 512.849 444.546 512.759 445.053 512.693C445.715 512.608 446.253 512.544 446.665 512.501C447.081 512.454 447.384 512.376 447.574 512.267C447.768 512.158 447.865 511.969 447.865 511.699V511.642C447.865 510.941 447.673 510.397 447.29 510.009C446.911 509.62 446.336 509.426 445.564 509.426C444.764 509.426 444.136 509.601 443.682 509.952C443.227 510.302 442.908 510.676 442.723 511.074L441.132 510.506C441.416 509.843 441.795 509.327 442.268 508.957C442.747 508.583 443.268 508.323 443.831 508.176C444.399 508.025 444.958 507.949 445.507 507.949C445.857 507.949 446.26 507.991 446.714 508.077C447.174 508.157 447.616 508.325 448.043 508.581C448.473 508.837 448.831 509.223 449.115 509.739C449.399 510.255 449.541 510.946 449.541 511.812V519H447.865V517.523H447.78C447.666 517.759 447.477 518.013 447.212 518.283C446.946 518.553 446.594 518.782 446.153 518.972C445.713 519.161 445.176 519.256 444.541 519.256ZM444.797 517.75C445.46 517.75 446.018 517.62 446.473 517.359C446.932 517.099 447.278 516.763 447.51 516.351C447.747 515.939 447.865 515.506 447.865 515.051V513.517C447.794 513.602 447.638 513.68 447.396 513.751C447.16 513.818 446.885 513.877 446.572 513.929C446.265 513.976 445.964 514.019 445.67 514.057C445.382 514.09 445.147 514.118 444.967 514.142C444.532 514.199 444.125 514.291 443.746 514.419C443.372 514.542 443.069 514.729 442.837 514.98C442.609 515.226 442.496 515.562 442.496 515.989C442.496 516.571 442.711 517.011 443.142 517.31C443.578 517.603 444.129 517.75 444.797 517.75ZM454.277 512.438V519H452.6V508.091H454.22V509.795H454.362C454.618 509.241 455.006 508.796 455.527 508.46C456.047 508.119 456.72 507.949 457.544 507.949C458.282 507.949 458.929 508.1 459.483 508.403C460.037 508.702 460.467 509.156 460.775 509.767C461.083 510.373 461.237 511.14 461.237 512.068V519H459.561V512.182C459.561 511.325 459.338 510.657 458.893 510.179C458.448 509.696 457.837 509.455 457.061 509.455C456.526 509.455 456.047 509.571 455.626 509.803C455.209 510.035 454.88 510.373 454.639 510.818C454.397 511.263 454.277 511.803 454.277 512.438ZM465.862 515.023L465.834 512.949H466.175L470.947 508.091H473.021L467.936 513.233H467.794L465.862 515.023ZM464.3 519V504.455H465.976V519H464.3ZM471.232 519L466.97 513.602L468.163 512.438L473.362 519H471.232ZM480.804 519V508.091H482.48V519H480.804ZM481.656 506.273C481.329 506.273 481.047 506.161 480.811 505.939C480.579 505.716 480.463 505.449 480.463 505.136C480.463 504.824 480.579 504.556 480.811 504.334C481.047 504.111 481.329 504 481.656 504C481.983 504 482.262 504.111 482.494 504.334C482.731 504.556 482.849 504.824 482.849 505.136C482.849 505.449 482.731 505.716 482.494 505.939C482.262 506.161 481.983 506.273 481.656 506.273ZM487.226 512.438V519H485.55V508.091H487.169V509.795H487.311C487.567 509.241 487.955 508.796 488.476 508.46C488.997 508.119 489.669 507.949 490.493 507.949C491.232 507.949 491.878 508.1 492.432 508.403C492.986 508.702 493.417 509.156 493.724 509.767C494.032 510.373 494.186 511.14 494.186 512.068V519H492.51V512.182C492.51 511.325 492.287 510.657 491.842 510.179C491.397 509.696 490.786 509.455 490.01 509.455C489.475 509.455 488.997 509.571 488.575 509.803C488.159 510.035 487.83 510.373 487.588 510.818C487.347 511.263 487.226 511.803 487.226 512.438ZM515.374 511.727C515.374 513.261 515.097 514.587 514.543 515.705C513.989 516.822 513.229 517.684 512.263 518.29C511.297 518.896 510.194 519.199 508.953 519.199C507.713 519.199 506.61 518.896 505.644 518.29C504.678 517.684 503.918 516.822 503.364 515.705C502.81 514.587 502.533 513.261 502.533 511.727C502.533 510.193 502.81 508.867 503.364 507.75C503.918 506.633 504.678 505.771 505.644 505.165C506.61 504.559 507.713 504.256 508.953 504.256C510.194 504.256 511.297 504.559 512.263 505.165C513.229 505.771 513.989 506.633 514.543 507.75C515.097 508.867 515.374 510.193 515.374 511.727ZM513.669 511.727C513.669 510.468 513.459 509.405 513.037 508.538C512.621 507.672 512.055 507.016 511.34 506.571C510.63 506.126 509.834 505.903 508.953 505.903C508.073 505.903 507.275 506.126 506.56 506.571C505.85 507.016 505.284 507.672 504.863 508.538C504.446 509.405 504.238 510.468 504.238 511.727C504.238 512.987 504.446 514.05 504.863 514.916C505.284 515.783 505.85 516.438 506.56 516.884C507.275 517.329 508.073 517.551 508.953 517.551C509.834 517.551 510.63 517.329 511.34 516.884C512.055 516.438 512.621 515.783 513.037 514.916C513.459 514.05 513.669 512.987 513.669 511.727ZM527.029 508.091L522.995 519H521.29L517.256 508.091H519.074L522.086 516.784H522.199L525.211 508.091H527.029ZM533.424 519.227C532.373 519.227 531.467 518.995 530.704 518.531C529.947 518.062 529.362 517.409 528.95 516.571C528.543 515.728 528.339 514.748 528.339 513.631C528.339 512.513 528.543 511.528 528.95 510.676C529.362 509.819 529.935 509.152 530.669 508.673C531.407 508.19 532.269 507.949 533.254 507.949C533.822 507.949 534.383 508.044 534.937 508.233C535.491 508.422 535.995 508.73 536.45 509.156C536.904 509.578 537.267 510.136 537.537 510.832C537.806 511.528 537.941 512.385 537.941 513.403V514.114H529.532V512.665H536.237C536.237 512.049 536.114 511.5 535.868 511.017C535.626 510.534 535.28 510.153 534.831 509.874C534.386 509.594 533.86 509.455 533.254 509.455C532.586 509.455 532.009 509.62 531.521 509.952C531.038 510.278 530.666 510.705 530.406 511.23C530.145 511.756 530.015 512.319 530.015 512.92V513.886C530.015 514.71 530.157 515.409 530.441 515.982C530.73 516.55 531.13 516.983 531.642 517.281C532.153 517.575 532.747 517.722 533.424 517.722C533.865 517.722 534.262 517.66 534.618 517.537C534.977 517.409 535.288 517.22 535.548 516.969C535.808 516.713 536.01 516.396 536.152 516.017L537.771 516.472C537.6 517.021 537.314 517.504 536.912 517.92C536.509 518.332 536.012 518.654 535.42 518.886C534.828 519.114 534.163 519.227 533.424 519.227ZM540.491 519V508.091H542.11V509.739H542.224C542.423 509.199 542.783 508.761 543.304 508.425C543.824 508.089 544.412 507.92 545.065 507.92C545.188 507.92 545.342 507.923 545.527 507.928C545.711 507.932 545.851 507.939 545.946 507.949V509.653C545.889 509.639 545.759 509.618 545.555 509.589C545.356 509.556 545.145 509.54 544.923 509.54C544.393 509.54 543.919 509.651 543.502 509.874C543.091 510.091 542.764 510.394 542.522 510.783C542.286 511.166 542.167 511.604 542.167 512.097V519H540.491ZM547.62 519V517.722L553.813 509.767V509.653H547.819V508.091H555.972V509.426L549.95 517.324V517.438H556.171V519H547.62ZM563.014 519.227C561.963 519.227 561.056 518.995 560.294 518.531C559.536 518.062 558.952 517.409 558.54 516.571C558.133 515.728 557.929 514.748 557.929 513.631C557.929 512.513 558.133 511.528 558.54 510.676C558.952 509.819 559.525 509.152 560.259 508.673C560.997 508.19 561.859 507.949 562.844 507.949C563.412 507.949 563.973 508.044 564.527 508.233C565.081 508.422 565.585 508.73 566.04 509.156C566.494 509.578 566.857 510.136 567.126 510.832C567.396 511.528 567.531 512.385 567.531 513.403V514.114H559.122V512.665H565.827C565.827 512.049 565.704 511.5 565.457 511.017C565.216 510.534 564.87 510.153 564.42 509.874C563.975 509.594 563.45 509.455 562.844 509.455C562.176 509.455 561.598 509.62 561.111 509.952C560.628 510.278 560.256 510.705 559.996 511.23C559.735 511.756 559.605 512.319 559.605 512.92V513.886C559.605 514.71 559.747 515.409 560.031 515.982C560.32 516.55 560.72 516.983 561.232 517.281C561.743 517.575 562.337 517.722 563.014 517.722C563.455 517.722 563.852 517.66 564.207 517.537C564.567 517.409 564.877 517.22 565.138 516.969C565.398 516.713 565.599 516.396 565.741 516.017L567.361 516.472C567.19 517.021 566.904 517.504 566.501 517.92C566.099 518.332 565.602 518.654 565.01 518.886C564.418 519.114 563.753 519.227 563.014 519.227ZM573.291 519.256C572.6 519.256 571.973 519.125 571.409 518.865C570.846 518.6 570.398 518.219 570.067 517.722C569.735 517.22 569.57 516.614 569.57 515.903C569.57 515.278 569.693 514.772 569.939 514.384C570.185 513.991 570.514 513.683 570.926 513.46C571.338 513.238 571.793 513.072 572.29 512.963C572.792 512.849 573.296 512.759 573.803 512.693C574.465 512.608 575.003 512.544 575.415 512.501C575.831 512.454 576.134 512.376 576.324 512.267C576.518 512.158 576.615 511.969 576.615 511.699V511.642C576.615 510.941 576.423 510.397 576.04 510.009C575.661 509.62 575.086 509.426 574.314 509.426C573.514 509.426 572.886 509.601 572.432 509.952C571.977 510.302 571.658 510.676 571.473 511.074L569.882 510.506C570.166 509.843 570.545 509.327 571.018 508.957C571.497 508.583 572.018 508.323 572.581 508.176C573.149 508.025 573.708 507.949 574.257 507.949C574.607 507.949 575.01 507.991 575.464 508.077C575.924 508.157 576.366 508.325 576.793 508.581C577.223 508.837 577.581 509.223 577.865 509.739C578.149 510.255 578.291 510.946 578.291 511.812V519H576.615V517.523H576.53C576.416 517.759 576.227 518.013 575.962 518.283C575.696 518.553 575.344 518.782 574.903 518.972C574.463 519.161 573.926 519.256 573.291 519.256ZM573.547 517.75C574.21 517.75 574.768 517.62 575.223 517.359C575.682 517.099 576.028 516.763 576.26 516.351C576.497 515.939 576.615 515.506 576.615 515.051V513.517C576.544 513.602 576.388 513.68 576.146 513.751C575.91 513.818 575.635 513.877 575.322 513.929C575.015 513.976 574.714 514.019 574.42 514.057C574.132 514.09 573.897 514.118 573.717 514.142C573.282 514.199 572.875 514.291 572.496 514.419C572.122 514.542 571.819 514.729 571.587 514.98C571.359 515.226 571.246 515.562 571.246 515.989C571.246 516.571 571.461 517.011 571.892 517.31C572.328 517.603 572.879 517.75 573.547 517.75ZM583.027 504.455V519H581.35V504.455H583.027ZM590.528 519.227C589.544 519.227 588.679 518.993 587.936 518.524C587.197 518.055 586.62 517.4 586.203 516.557C585.791 515.714 585.585 514.729 585.585 513.602C585.585 512.466 585.791 511.474 586.203 510.626C586.62 509.779 587.197 509.121 587.936 508.652C588.679 508.183 589.544 507.949 590.528 507.949C591.513 507.949 592.375 508.183 593.114 508.652C593.857 509.121 594.435 509.779 594.847 510.626C595.263 511.474 595.472 512.466 595.472 513.602C595.472 514.729 595.263 515.714 594.847 516.557C594.435 517.4 593.857 518.055 593.114 518.524C592.375 518.993 591.513 519.227 590.528 519.227ZM590.528 517.722C591.277 517.722 591.892 517.53 592.375 517.146C592.858 516.763 593.215 516.259 593.447 515.634C593.679 515.009 593.795 514.331 593.795 513.602C593.795 512.873 593.679 512.194 593.447 511.564C593.215 510.934 592.858 510.425 592.375 510.037C591.892 509.649 591.277 509.455 590.528 509.455C589.78 509.455 589.165 509.649 588.682 510.037C588.199 510.425 587.841 510.934 587.609 511.564C587.377 512.194 587.261 512.873 587.261 513.602C587.261 514.331 587.377 515.009 587.609 515.634C587.841 516.259 588.199 516.763 588.682 517.146C589.165 517.53 589.78 517.722 590.528 517.722ZM604.905 514.54V508.091H606.581V519H604.905V517.153H604.792C604.536 517.707 604.138 518.179 603.598 518.567C603.059 518.95 602.377 519.142 601.553 519.142C600.871 519.142 600.265 518.993 599.735 518.695C599.204 518.392 598.788 517.937 598.485 517.331C598.182 516.72 598.03 515.951 598.03 515.023V508.091H599.706V514.909C599.706 515.705 599.929 516.339 600.374 516.812C600.824 517.286 601.397 517.523 602.093 517.523C602.509 517.523 602.933 517.416 603.364 517.203C603.8 516.99 604.164 516.663 604.458 516.223C604.756 515.783 604.905 515.222 604.905 514.54ZM617.379 510.534L615.873 510.96C615.778 510.709 615.638 510.465 615.454 510.229C615.274 509.987 615.028 509.788 614.715 509.632C614.403 509.476 614.003 509.398 613.515 509.398C612.847 509.398 612.291 509.552 611.846 509.859C611.406 510.162 611.185 510.548 611.185 511.017C611.185 511.434 611.337 511.763 611.64 512.004C611.943 512.246 612.416 512.447 613.06 512.608L614.68 513.006C615.655 513.242 616.382 513.605 616.86 514.092C617.338 514.575 617.577 515.198 617.577 515.96C617.577 516.585 617.397 517.144 617.038 517.636C616.683 518.129 616.185 518.517 615.546 518.801C614.907 519.085 614.164 519.227 613.316 519.227C612.203 519.227 611.282 518.986 610.553 518.503C609.824 518.02 609.362 517.314 609.168 516.386L610.759 515.989C610.911 516.576 611.197 517.016 611.619 517.31C612.045 517.603 612.601 517.75 613.288 517.75C614.069 517.75 614.689 517.584 615.148 517.253C615.612 516.917 615.844 516.514 615.844 516.045C615.844 515.667 615.712 515.349 615.447 515.094C615.182 514.833 614.774 514.639 614.225 514.511L612.407 514.085C611.408 513.848 610.674 513.482 610.205 512.984C609.741 512.482 609.509 511.855 609.509 511.102C609.509 510.487 609.682 509.942 610.028 509.469C610.378 508.995 610.854 508.624 611.455 508.354C612.061 508.084 612.748 507.949 613.515 507.949C614.594 507.949 615.442 508.186 616.058 508.659C616.678 509.133 617.118 509.758 617.379 510.534ZM625.953 519V504.455H627.714V517.438H634.475V519H625.953ZM641.549 519.227C640.498 519.227 639.592 518.995 638.829 518.531C638.072 518.062 637.487 517.409 637.075 516.571C636.668 515.728 636.464 514.748 636.464 513.631C636.464 512.513 636.668 511.528 637.075 510.676C637.487 509.819 638.06 509.152 638.794 508.673C639.532 508.19 640.394 507.949 641.379 507.949C641.947 507.949 642.508 508.044 643.062 508.233C643.616 508.422 644.12 508.73 644.575 509.156C645.029 509.578 645.392 510.136 645.662 510.832C645.931 511.528 646.066 512.385 646.066 513.403V514.114H637.657V512.665H644.362C644.362 512.049 644.239 511.5 643.993 511.017C643.751 510.534 643.405 510.153 642.956 509.874C642.511 509.594 641.985 509.455 641.379 509.455C640.711 509.455 640.134 509.62 639.646 509.952C639.163 510.278 638.791 510.705 638.531 511.23C638.27 511.756 638.14 512.319 638.14 512.92V513.886C638.14 514.71 638.282 515.409 638.566 515.982C638.855 516.55 639.255 516.983 639.767 517.281C640.278 517.575 640.872 517.722 641.549 517.722C641.99 517.722 642.387 517.66 642.743 517.537C643.102 517.409 643.413 517.22 643.673 516.969C643.933 516.713 644.135 516.396 644.277 516.017L645.896 516.472C645.725 517.021 645.439 517.504 645.037 517.92C644.634 518.332 644.137 518.654 643.545 518.886C642.953 519.114 642.288 519.227 641.549 519.227ZM651.826 519.256C651.135 519.256 650.508 519.125 649.944 518.865C649.381 518.6 648.933 518.219 648.602 517.722C648.27 517.22 648.105 516.614 648.105 515.903C648.105 515.278 648.228 514.772 648.474 514.384C648.72 513.991 649.049 513.683 649.461 513.46C649.873 513.238 650.328 513.072 650.825 512.963C651.327 512.849 651.831 512.759 652.338 512.693C653.001 512.608 653.538 512.544 653.95 512.501C654.367 512.454 654.67 512.376 654.859 512.267C655.053 512.158 655.15 511.969 655.15 511.699V511.642C655.15 510.941 654.958 510.397 654.575 510.009C654.196 509.62 653.621 509.426 652.849 509.426C652.049 509.426 651.422 509.601 650.967 509.952C650.512 510.302 650.193 510.676 650.008 511.074L648.417 510.506C648.701 509.843 649.08 509.327 649.554 508.957C650.032 508.583 650.553 508.323 651.116 508.176C651.684 508.025 652.243 507.949 652.792 507.949C653.143 507.949 653.545 507.991 654 508.077C654.459 508.157 654.902 508.325 655.328 508.581C655.759 508.837 656.116 509.223 656.4 509.739C656.684 510.255 656.826 510.946 656.826 511.812V519H655.15V517.523H655.065C654.951 517.759 654.762 518.013 654.497 518.283C654.232 518.553 653.879 518.782 653.439 518.972C652.998 519.161 652.461 519.256 651.826 519.256ZM652.082 517.75C652.745 517.75 653.304 517.62 653.758 517.359C654.217 517.099 654.563 516.763 654.795 516.351C655.032 515.939 655.15 515.506 655.15 515.051V513.517C655.079 513.602 654.923 513.68 654.681 513.751C654.445 513.818 654.17 513.877 653.858 513.929C653.55 513.976 653.249 514.019 652.956 514.057C652.667 514.09 652.432 514.118 652.252 514.142C651.817 514.199 651.41 514.291 651.031 514.419C650.657 514.542 650.354 514.729 650.122 514.98C649.895 515.226 649.781 515.562 649.781 515.989C649.781 516.571 649.996 517.011 650.427 517.31C650.863 517.603 651.414 517.75 652.082 517.75ZM664.005 519.227C663.096 519.227 662.293 518.998 661.597 518.538C660.901 518.074 660.357 517.421 659.964 516.578C659.571 515.731 659.374 514.729 659.374 513.574C659.374 512.428 659.571 511.434 659.964 510.591C660.357 509.748 660.904 509.097 661.604 508.638C662.305 508.179 663.115 507.949 664.033 507.949C664.744 507.949 665.305 508.067 665.717 508.304C666.133 508.536 666.451 508.801 666.668 509.099C666.891 509.393 667.064 509.634 667.187 509.824H667.329V504.455H669.005V519H667.386V517.324H667.187C667.064 517.523 666.888 517.774 666.661 518.077C666.434 518.375 666.11 518.643 665.688 518.879C665.267 519.111 664.706 519.227 664.005 519.227ZM664.232 517.722C664.905 517.722 665.473 517.546 665.937 517.196C666.401 516.841 666.754 516.351 666.995 515.726C667.237 515.096 667.357 514.369 667.357 513.545C667.357 512.731 667.239 512.018 667.002 511.408C666.765 510.792 666.415 510.314 665.951 509.973C665.487 509.627 664.914 509.455 664.232 509.455C663.522 509.455 662.93 509.637 662.457 510.001C661.988 510.361 661.635 510.851 661.398 511.472C661.166 512.087 661.05 512.778 661.05 513.545C661.05 514.322 661.169 515.027 661.406 515.662C661.647 516.292 662.002 516.794 662.471 517.168C662.944 517.537 663.531 517.722 664.232 517.722ZM676.881 519.227C675.83 519.227 674.924 518.995 674.161 518.531C673.404 518.062 672.819 517.409 672.407 516.571C672 515.728 671.796 514.748 671.796 513.631C671.796 512.513 672 511.528 672.407 510.676C672.819 509.819 673.392 509.152 674.126 508.673C674.864 508.19 675.726 507.949 676.711 507.949C677.279 507.949 677.84 508.044 678.394 508.233C678.948 508.422 679.452 508.73 679.907 509.156C680.362 509.578 680.724 510.136 680.994 510.832C681.263 511.528 681.398 512.385 681.398 513.403V514.114H672.989V512.665H679.694C679.694 512.049 679.571 511.5 679.325 511.017C679.083 510.534 678.737 510.153 678.288 509.874C677.843 509.594 677.317 509.455 676.711 509.455C676.043 509.455 675.466 509.62 674.978 509.952C674.495 510.278 674.123 510.705 673.863 511.23C673.603 511.756 673.472 512.319 673.472 512.92V513.886C673.472 514.71 673.614 515.409 673.898 515.982C674.187 516.55 674.587 516.983 675.099 517.281C675.61 517.575 676.204 517.722 676.881 517.722C677.322 517.722 677.719 517.66 678.075 517.537C678.434 517.409 678.745 517.22 679.005 516.969C679.265 516.713 679.467 516.396 679.609 516.017L681.228 516.472C681.058 517.021 680.771 517.504 680.369 517.92C679.966 518.332 679.469 518.654 678.877 518.886C678.285 519.114 677.62 519.227 676.881 519.227ZM683.948 519V508.091H685.567V509.739H685.681C685.88 509.199 686.24 508.761 686.761 508.425C687.281 508.089 687.869 507.92 688.522 507.92C688.645 507.92 688.799 507.923 688.984 507.928C689.168 507.932 689.308 507.939 689.403 507.949V509.653C689.346 509.639 689.216 509.618 689.012 509.589C688.813 509.556 688.603 509.54 688.38 509.54C687.85 509.54 687.376 509.651 686.96 509.874C686.548 510.091 686.221 510.394 685.979 510.783C685.743 511.166 685.624 511.604 685.624 512.097V519H683.948ZM697.242 519V504.455H705.963V506.017H699.003V510.932H705.31V512.494H699.003V519H697.242ZM708.753 519V508.091H710.429V519H708.753ZM709.605 506.273C709.278 506.273 708.997 506.161 708.76 505.939C708.528 505.716 708.412 505.449 708.412 505.136C708.412 504.824 708.528 504.556 708.76 504.334C708.997 504.111 709.278 504 709.605 504C709.932 504 710.211 504.111 710.443 504.334C710.68 504.556 710.798 504.824 710.798 505.136C710.798 505.449 710.68 505.716 710.443 505.939C710.211 506.161 709.932 506.273 709.605 506.273ZM717.902 523.318C717.093 523.318 716.397 523.214 715.814 523.006C715.232 522.802 714.747 522.532 714.358 522.196C713.975 521.865 713.669 521.509 713.442 521.131L714.777 520.193C714.929 520.392 715.121 520.619 715.353 520.875C715.585 521.135 715.902 521.36 716.304 521.55C716.712 521.744 717.244 521.841 717.902 521.841C718.783 521.841 719.51 521.628 720.083 521.202C720.656 520.776 720.942 520.108 720.942 519.199V516.983H720.8C720.677 517.182 720.502 517.428 720.275 517.722C720.052 518.01 719.73 518.268 719.309 518.496C718.892 518.718 718.328 518.83 717.618 518.83C716.738 518.83 715.947 518.621 715.246 518.205C714.55 517.788 713.998 517.182 713.591 516.386C713.189 515.591 712.988 514.625 712.988 513.489C712.988 512.371 713.184 511.398 713.577 510.57C713.97 509.736 714.517 509.092 715.218 508.638C715.918 508.179 716.728 507.949 717.647 507.949C718.357 507.949 718.92 508.067 719.337 508.304C719.758 508.536 720.08 508.801 720.303 509.099C720.53 509.393 720.705 509.634 720.828 509.824H720.999V508.091H722.618V519.312C722.618 520.25 722.405 521.012 721.979 521.599C721.558 522.191 720.989 522.625 720.275 522.899C719.564 523.179 718.774 523.318 717.902 523.318ZM717.846 517.324C718.518 517.324 719.086 517.17 719.55 516.862C720.014 516.554 720.367 516.112 720.608 515.534C720.85 514.956 720.971 514.265 720.971 513.46C720.971 512.674 720.852 511.981 720.615 511.379C720.379 510.778 720.028 510.307 719.564 509.966C719.1 509.625 718.527 509.455 717.846 509.455C717.135 509.455 716.543 509.634 716.07 509.994C715.601 510.354 715.248 510.837 715.012 511.443C714.78 512.049 714.664 512.722 714.664 513.46C714.664 514.218 714.782 514.888 715.019 515.47C715.26 516.048 715.615 516.502 716.084 516.834C716.558 517.161 717.145 517.324 717.846 517.324ZM732.561 514.54V508.091H734.238V519H732.561V517.153H732.448C732.192 517.707 731.794 518.179 731.255 518.567C730.715 518.95 730.033 519.142 729.209 519.142C728.527 519.142 727.921 518.993 727.391 518.695C726.861 518.392 726.444 517.937 726.141 517.331C725.838 516.72 725.686 515.951 725.686 515.023V508.091H727.363V514.909C727.363 515.705 727.585 516.339 728.03 516.812C728.48 517.286 729.053 517.523 729.749 517.523C730.166 517.523 730.589 517.416 731.02 517.203C731.456 516.99 731.82 516.663 732.114 516.223C732.412 515.783 732.561 515.222 732.561 514.54ZM737.308 519V508.091H738.927V509.739H739.04C739.239 509.199 739.599 508.761 740.12 508.425C740.641 508.089 741.228 507.92 741.881 507.92C742.004 507.92 742.158 507.923 742.343 507.928C742.528 507.932 742.667 507.939 742.762 507.949V509.653C742.705 509.639 742.575 509.618 742.371 509.589C742.173 509.556 741.962 509.54 741.739 509.54C741.209 509.54 740.736 509.651 740.319 509.874C739.907 510.091 739.58 510.394 739.339 510.783C739.102 511.166 738.984 511.604 738.984 512.097V519H737.308ZM748.991 519.227C747.94 519.227 747.033 518.995 746.271 518.531C745.513 518.062 744.928 517.409 744.516 516.571C744.109 515.728 743.906 514.748 743.906 513.631C743.906 512.513 744.109 511.528 744.516 510.676C744.928 509.819 745.501 509.152 746.235 508.673C746.974 508.19 747.835 507.949 748.82 507.949C749.388 507.949 749.95 508.044 750.504 508.233C751.058 508.422 751.562 508.73 752.016 509.156C752.471 509.578 752.833 510.136 753.103 510.832C753.373 511.528 753.508 512.385 753.508 513.403V514.114H745.099V512.665H751.803C751.803 512.049 751.68 511.5 751.434 511.017C751.192 510.534 750.847 510.153 750.397 509.874C749.952 509.594 749.426 509.455 748.82 509.455C748.153 509.455 747.575 509.62 747.087 509.952C746.604 510.278 746.233 510.705 745.972 511.23C745.712 511.756 745.582 512.319 745.582 512.92V513.886C745.582 514.71 745.724 515.409 746.008 515.982C746.297 516.55 746.697 516.983 747.208 517.281C747.719 517.575 748.314 517.722 748.991 517.722C749.431 517.722 749.829 517.66 750.184 517.537C750.544 517.409 750.854 517.22 751.114 516.969C751.375 516.713 751.576 516.396 751.718 516.017L753.337 516.472C753.167 517.021 752.88 517.504 752.478 517.92C752.076 518.332 751.578 518.654 750.987 518.886C750.395 519.114 749.729 519.227 748.991 519.227ZM757.535 504.455V505.733C757.535 506.121 757.464 506.536 757.322 506.976C757.184 507.411 756.981 507.835 756.711 508.247C756.446 508.654 756.124 509.009 755.745 509.312L754.836 508.574C755.134 508.148 755.392 507.705 755.61 507.246C755.833 506.782 755.944 506.287 755.944 505.761V504.455H757.535ZM765.933 510.534L764.428 510.96C764.333 510.709 764.193 510.465 764.009 510.229C763.829 509.987 763.582 509.788 763.27 509.632C762.957 509.476 762.557 509.398 762.07 509.398C761.402 509.398 760.846 509.552 760.401 509.859C759.96 510.162 759.74 510.548 759.74 511.017C759.74 511.434 759.892 511.763 760.195 512.004C760.498 512.246 760.971 512.447 761.615 512.608L763.234 513.006C764.21 513.242 764.937 513.605 765.415 514.092C765.893 514.575 766.132 515.198 766.132 515.96C766.132 516.585 765.952 517.144 765.592 517.636C765.237 518.129 764.74 518.517 764.101 518.801C763.462 519.085 762.718 519.227 761.871 519.227C760.758 519.227 759.837 518.986 759.108 518.503C758.379 518.02 757.917 517.314 757.723 516.386L759.314 515.989C759.465 516.576 759.752 517.016 760.173 517.31C760.599 517.603 761.156 517.75 761.842 517.75C762.624 517.75 763.244 517.584 763.703 517.253C764.167 516.917 764.399 516.514 764.399 516.045C764.399 515.667 764.267 515.349 764.001 515.094C763.736 514.833 763.329 514.639 762.78 514.511L760.962 514.085C759.963 513.848 759.229 513.482 758.76 512.984C758.296 512.482 758.064 511.855 758.064 511.102C758.064 510.487 758.237 509.942 758.582 509.469C758.933 508.995 759.409 508.624 760.01 508.354C760.616 508.084 761.303 507.949 762.07 507.949C763.149 507.949 763.997 508.186 764.612 508.659C765.232 509.133 765.673 509.758 765.933 510.534ZM774.28 519V508.091H775.9V509.795H776.042C776.269 509.213 776.636 508.761 777.142 508.439C777.649 508.112 778.257 507.949 778.968 507.949C779.687 507.949 780.286 508.112 780.765 508.439C781.248 508.761 781.624 509.213 781.894 509.795H782.007C782.287 509.232 782.706 508.785 783.265 508.453C783.823 508.117 784.493 507.949 785.275 507.949C786.25 507.949 787.048 508.254 787.668 508.865C788.288 509.471 788.598 510.416 788.598 511.699V519H786.922V511.699C786.922 510.894 786.702 510.319 786.262 509.973C785.821 509.627 785.303 509.455 784.706 509.455C783.939 509.455 783.345 509.687 782.924 510.151C782.502 510.61 782.292 511.192 782.292 511.898V519H780.587V511.528C780.587 510.908 780.386 510.409 779.983 510.03C779.581 509.646 779.062 509.455 778.428 509.455C777.992 509.455 777.585 509.571 777.206 509.803C776.832 510.035 776.529 510.357 776.297 510.768C776.07 511.176 775.956 511.647 775.956 512.182V519H774.28ZM796.237 519.227C795.186 519.227 794.279 518.995 793.517 518.531C792.759 518.062 792.174 517.409 791.762 516.571C791.355 515.728 791.152 514.748 791.152 513.631C791.152 512.513 791.355 511.528 791.762 510.676C792.174 509.819 792.747 509.152 793.481 508.673C794.22 508.19 795.082 507.949 796.066 507.949C796.635 507.949 797.196 508.044 797.75 508.233C798.304 508.422 798.808 508.73 799.262 509.156C799.717 509.578 800.079 510.136 800.349 510.832C800.619 511.528 800.754 512.385 800.754 513.403V514.114H792.345V512.665H799.049C799.049 512.049 798.926 511.5 798.68 511.017C798.439 510.534 798.093 510.153 797.643 509.874C797.198 509.594 796.672 509.455 796.066 509.455C795.399 509.455 794.821 509.62 794.333 509.952C793.85 510.278 793.479 510.705 793.218 511.23C792.958 511.756 792.828 512.319 792.828 512.92V513.886C792.828 514.71 792.97 515.409 793.254 515.982C793.543 516.55 793.943 516.983 794.454 517.281C794.966 517.575 795.56 517.722 796.237 517.722C796.677 517.722 797.075 517.66 797.43 517.537C797.79 517.409 798.1 517.22 798.36 516.969C798.621 516.713 798.822 516.396 798.964 516.017L800.583 516.472C800.413 517.021 800.127 517.504 799.724 517.92C799.322 518.332 798.824 518.654 798.233 518.886C797.641 519.114 796.975 519.227 796.237 519.227ZM803.304 519V508.091H804.923V509.795H805.065C805.292 509.213 805.659 508.761 806.166 508.439C806.672 508.112 807.281 507.949 807.991 507.949C808.711 507.949 809.31 508.112 809.788 508.439C810.271 508.761 810.647 509.213 810.917 509.795H811.031C811.31 509.232 811.729 508.785 812.288 508.453C812.847 508.117 813.517 507.949 814.298 507.949C815.273 507.949 816.071 508.254 816.691 508.865C817.312 509.471 817.622 510.416 817.622 511.699V519H815.946V511.699C815.946 510.894 815.725 510.319 815.285 509.973C814.845 509.627 814.326 509.455 813.73 509.455C812.963 509.455 812.368 509.687 811.947 510.151C811.526 510.61 811.315 511.192 811.315 511.898V519H809.61V511.528C809.61 510.908 809.409 510.409 809.007 510.03C808.604 509.646 808.086 509.455 807.451 509.455C807.016 509.455 806.609 509.571 806.23 509.803C805.856 510.035 805.553 510.357 805.321 510.768C805.093 511.176 804.98 511.647 804.98 512.182V519H803.304ZM825.118 519.227C824.133 519.227 823.269 518.993 822.526 518.524C821.787 518.055 821.21 517.4 820.793 516.557C820.381 515.714 820.175 514.729 820.175 513.602C820.175 512.466 820.381 511.474 820.793 510.626C821.21 509.779 821.787 509.121 822.526 508.652C823.269 508.183 824.133 507.949 825.118 507.949C826.103 507.949 826.965 508.183 827.703 508.652C828.447 509.121 829.025 509.779 829.436 510.626C829.853 511.474 830.061 512.466 830.061 513.602C830.061 514.729 829.853 515.714 829.436 516.557C829.025 517.4 828.447 518.055 827.703 518.524C826.965 518.993 826.103 519.227 825.118 519.227ZM825.118 517.722C825.866 517.722 826.482 517.53 826.965 517.146C827.448 516.763 827.805 516.259 828.037 515.634C828.269 515.009 828.385 514.331 828.385 513.602C828.385 512.873 828.269 512.194 828.037 511.564C827.805 510.934 827.448 510.425 826.965 510.037C826.482 509.649 825.866 509.455 825.118 509.455C824.37 509.455 823.755 509.649 823.272 510.037C822.789 510.425 822.431 510.934 822.199 511.564C821.967 512.194 821.851 512.873 821.851 513.602C821.851 514.331 821.967 515.009 822.199 515.634C822.431 516.259 822.789 516.763 823.272 517.146C823.755 517.53 824.37 517.722 825.118 517.722ZM832.62 519V508.091H834.239V509.739H834.353C834.552 509.199 834.912 508.761 835.433 508.425C835.953 508.089 836.54 507.92 837.194 507.92C837.317 507.92 837.471 507.923 837.656 507.928C837.84 507.932 837.98 507.939 838.075 507.949V509.653C838.018 509.639 837.888 509.618 837.684 509.589C837.485 509.556 837.274 509.54 837.052 509.54C836.522 509.54 836.048 509.651 835.631 509.874C835.219 510.091 834.893 510.394 834.651 510.783C834.415 511.166 834.296 511.604 834.296 512.097V519H832.62ZM841.473 523.091C841.189 523.091 840.936 523.067 840.713 523.02C840.491 522.977 840.337 522.935 840.251 522.892L840.678 521.415C841.085 521.519 841.445 521.557 841.757 521.528C842.07 521.5 842.347 521.36 842.588 521.109C842.834 520.863 843.059 520.463 843.263 519.909L843.575 519.057L839.541 508.091H841.359L844.371 516.784H844.484L847.496 508.091H849.314L844.683 520.591C844.475 521.154 844.217 521.621 843.909 521.99C843.601 522.364 843.244 522.641 842.837 522.821C842.434 523.001 841.98 523.091 841.473 523.091Z" fill="black"/>
</svg>
