<svg width="1024" height="1024" viewBox="0 0 1024 1024" fill="none" xmlns="http://www.w3.org/2000/svg">
<g clip-path="url(#clip0_27_93)">
<path d="M63.3068 710.455H65.0682V720.085C65.0682 721.08 64.8338 721.967 64.3651 722.749C63.901 723.525 63.2453 724.138 62.3977 724.588C61.5502 725.033 60.5559 725.256 59.4148 725.256C58.2737 725.256 57.2794 725.033 56.4318 724.588C55.5843 724.138 54.9261 723.525 54.4574 722.749C53.9934 721.967 53.7614 721.08 53.7614 720.085V710.455H55.5227V719.943C55.5227 720.653 55.679 721.286 55.9915 721.839C56.304 722.389 56.7491 722.822 57.3267 723.139C57.9091 723.452 58.6051 723.608 59.4148 723.608C60.2244 723.608 60.9205 723.452 61.5028 723.139C62.0852 722.822 62.5303 722.389 62.8381 721.839C63.1506 721.286 63.3068 720.653 63.3068 719.943V710.455ZM72.7617 729.318C71.9521 729.318 71.256 729.214 70.6737 729.006C70.0913 728.802 69.6059 728.532 69.2177 728.196C68.8342 727.865 68.5288 727.509 68.3015 727.131L69.6367 726.193C69.7882 726.392 69.98 726.619 70.212 726.875C70.444 727.135 70.7612 727.36 71.1637 727.55C71.5709 727.744 72.1036 727.841 72.7617 727.841C73.6424 727.841 74.3692 727.628 74.9421 727.202C75.515 726.776 75.8015 726.108 75.8015 725.199V722.983H75.6594C75.5363 723.182 75.3612 723.428 75.1339 723.722C74.9113 724.01 74.5894 724.268 74.168 724.496C73.7513 724.718 73.1879 724.83 72.4776 724.83C71.5969 724.83 70.8062 724.621 70.1055 724.205C69.4094 723.788 68.8578 723.182 68.4506 722.386C68.0482 721.591 67.8469 720.625 67.8469 719.489C67.8469 718.371 68.0434 717.398 68.4364 716.57C68.8294 715.736 69.3763 715.092 70.0771 714.638C70.7778 714.179 71.5875 713.949 72.506 713.949C73.2163 713.949 73.7797 714.067 74.1964 714.304C74.6178 714.536 74.9397 714.801 75.1623 715.099C75.3896 715.393 75.5647 715.634 75.6879 715.824H75.8583V714.091H77.4776V725.312C77.4776 726.25 77.2646 727.012 76.8384 727.599C76.417 728.191 75.8488 728.625 75.1339 728.899C74.4237 729.179 73.6329 729.318 72.7617 729.318ZM72.7049 723.324C73.3772 723.324 73.9454 723.17 74.4094 722.862C74.8735 722.554 75.2262 722.112 75.4677 721.534C75.7092 720.956 75.8299 720.265 75.8299 719.46C75.8299 718.674 75.7115 717.981 75.4748 717.379C75.238 716.778 74.8877 716.307 74.4237 715.966C73.9596 715.625 73.3867 715.455 72.7049 715.455C71.9947 715.455 71.4028 715.634 70.9293 715.994C70.4606 716.354 70.1078 716.837 69.8711 717.443C69.6391 718.049 69.5231 718.722 69.5231 719.46C69.5231 720.218 69.6415 720.888 69.8782 721.47C70.1197 722.048 70.4748 722.502 70.9435 722.834C71.417 723.161 72.0041 723.324 72.7049 723.324ZM82.2219 718.438V725H80.5458V710.455H82.2219V715.795H82.364C82.6197 715.232 83.0032 714.785 83.5146 714.453C84.0307 714.117 84.7172 713.949 85.5742 713.949C86.3176 713.949 86.9686 714.098 87.5273 714.396C88.0861 714.69 88.5193 715.142 88.8271 715.753C89.1396 716.359 89.2958 717.131 89.2958 718.068V725H87.6197V718.182C87.6197 717.315 87.3948 716.645 86.945 716.172C86.4999 715.694 85.882 715.455 85.0913 715.455C84.542 715.455 84.0496 715.571 83.614 715.803C83.1831 716.035 82.8422 716.373 82.5913 716.818C82.3451 717.263 82.2219 717.803 82.2219 718.438ZM94.8622 723.011L94.7486 723.778C94.6681 724.318 94.545 724.896 94.3793 725.511C94.2183 726.127 94.0502 726.707 93.875 727.251C93.6998 727.796 93.5554 728.229 93.4418 728.551H92.1634C92.2249 728.248 92.3054 727.848 92.4048 727.351C92.5043 726.854 92.6037 726.297 92.7031 725.682C92.8073 725.071 92.8925 724.446 92.9588 723.807L93.044 723.011H94.8622ZM108.337 714.091V715.511H102.684V714.091H108.337ZM104.331 711.477H106.007V721.875C106.007 722.348 106.076 722.704 106.213 722.94C106.355 723.172 106.535 723.329 106.753 723.409C106.976 723.485 107.21 723.523 107.456 723.523C107.641 723.523 107.792 723.513 107.911 723.494C108.029 723.471 108.124 723.452 108.195 723.438L108.536 724.943C108.422 724.986 108.264 725.028 108.06 725.071C107.856 725.118 107.598 725.142 107.286 725.142C106.812 725.142 106.348 725.04 105.894 724.837C105.444 724.633 105.07 724.323 104.772 723.906C104.478 723.49 104.331 722.964 104.331 722.33V711.477ZM112.769 718.438V725H111.093V710.455H112.769V715.795H112.911C113.167 715.232 113.55 714.785 114.061 714.453C114.578 714.117 115.264 713.949 116.121 713.949C116.864 713.949 117.516 714.098 118.074 714.396C118.633 714.69 119.066 715.142 119.374 715.753C119.686 716.359 119.843 717.131 119.843 718.068V725H118.167V718.182C118.167 717.315 117.942 716.645 117.492 716.172C117.047 715.694 116.429 715.455 115.638 715.455C115.089 715.455 114.596 715.571 114.161 715.803C113.73 716.035 113.389 716.373 113.138 716.818C112.892 717.263 112.769 717.803 112.769 718.438ZM122.909 725V714.091H124.585V725H122.909ZM123.761 712.273C123.435 712.273 123.153 712.161 122.916 711.939C122.684 711.716 122.568 711.449 122.568 711.136C122.568 710.824 122.684 710.556 122.916 710.334C123.153 710.111 123.435 710 123.761 710C124.088 710 124.367 710.111 124.599 710.334C124.836 710.556 124.955 710.824 124.955 711.136C124.955 711.449 124.836 711.716 124.599 711.939C124.367 712.161 124.088 712.273 123.761 712.273ZM135.382 716.534L133.877 716.96C133.782 716.709 133.642 716.465 133.458 716.229C133.278 715.987 133.032 715.788 132.719 715.632C132.407 715.476 132.007 715.398 131.519 715.398C130.851 715.398 130.295 715.552 129.85 715.859C129.409 716.162 129.189 716.548 129.189 717.017C129.189 717.434 129.341 717.763 129.644 718.004C129.947 718.246 130.42 718.447 131.064 718.608L132.684 719.006C133.659 719.242 134.386 719.605 134.864 720.092C135.342 720.575 135.581 721.198 135.581 721.96C135.581 722.585 135.401 723.144 135.042 723.636C134.686 724.129 134.189 724.517 133.55 724.801C132.911 725.085 132.167 725.227 131.32 725.227C130.207 725.227 129.286 724.986 128.557 724.503C127.828 724.02 127.366 723.314 127.172 722.386L128.763 721.989C128.915 722.576 129.201 723.016 129.623 723.31C130.049 723.603 130.605 723.75 131.292 723.75C132.073 723.75 132.693 723.584 133.152 723.253C133.616 722.917 133.848 722.514 133.848 722.045C133.848 721.667 133.716 721.349 133.451 721.094C133.185 720.833 132.778 720.639 132.229 720.511L130.411 720.085C129.412 719.848 128.678 719.482 128.209 718.984C127.745 718.482 127.513 717.855 127.513 717.102C127.513 716.487 127.686 715.942 128.032 715.469C128.382 714.995 128.858 714.624 129.459 714.354C130.065 714.084 130.752 713.949 131.519 713.949C132.598 713.949 133.446 714.186 134.061 714.659C134.682 715.133 135.122 715.758 135.382 716.534ZM143.729 725V714.091H145.406V725H143.729ZM144.582 712.273C144.255 712.273 143.973 712.161 143.737 711.939C143.504 711.716 143.388 711.449 143.388 711.136C143.388 710.824 143.504 710.556 143.737 710.334C143.973 710.111 144.255 710 144.582 710C144.908 710 145.188 710.111 145.42 710.334C145.656 710.556 145.775 710.824 145.775 711.136C145.775 711.449 145.656 711.716 145.42 711.939C145.188 712.161 144.908 712.273 144.582 712.273ZM156.203 716.534L154.697 716.96C154.602 716.709 154.463 716.465 154.278 716.229C154.098 715.987 153.852 715.788 153.539 715.632C153.227 715.476 152.827 715.398 152.339 715.398C151.672 715.398 151.115 715.552 150.67 715.859C150.23 716.162 150.01 716.548 150.01 717.017C150.01 717.434 150.161 717.763 150.464 718.004C150.767 718.246 151.241 718.447 151.885 718.608L153.504 719.006C154.479 719.242 155.206 719.605 155.684 720.092C156.163 720.575 156.402 721.198 156.402 721.96C156.402 722.585 156.222 723.144 155.862 723.636C155.507 724.129 155.01 724.517 154.37 724.801C153.731 725.085 152.988 725.227 152.14 725.227C151.028 725.227 150.107 724.986 149.377 724.503C148.648 724.02 148.187 723.314 147.993 722.386L149.583 721.989C149.735 722.576 150.021 723.016 150.443 723.31C150.869 723.603 151.425 723.75 152.112 723.75C152.893 723.75 153.513 723.584 153.973 723.253C154.437 722.917 154.669 722.514 154.669 722.045C154.669 721.667 154.536 721.349 154.271 721.094C154.006 720.833 153.599 720.639 153.049 720.511L151.231 720.085C150.232 719.848 149.498 719.482 149.029 718.984C148.565 718.482 148.333 717.855 148.333 717.102C148.333 716.487 148.506 715.942 148.852 715.469C149.202 714.995 149.678 714.624 150.279 714.354C150.886 714.084 151.572 713.949 152.339 713.949C153.419 713.949 154.266 714.186 154.882 714.659C155.502 715.133 155.942 715.758 156.203 716.534ZM167.76 725.256C167.069 725.256 166.441 725.125 165.878 724.865C165.314 724.6 164.867 724.219 164.536 723.722C164.204 723.22 164.038 722.614 164.038 721.903C164.038 721.278 164.161 720.772 164.408 720.384C164.654 719.991 164.983 719.683 165.395 719.46C165.807 719.238 166.261 719.072 166.759 718.963C167.26 718.849 167.765 718.759 168.271 718.693C168.934 718.608 169.472 718.544 169.884 718.501C170.3 718.454 170.603 718.376 170.793 718.267C170.987 718.158 171.084 717.969 171.084 717.699V717.642C171.084 716.941 170.892 716.397 170.509 716.009C170.13 715.62 169.554 715.426 168.783 715.426C167.982 715.426 167.355 715.601 166.901 715.952C166.446 716.302 166.126 716.676 165.942 717.074L164.351 716.506C164.635 715.843 165.014 715.327 165.487 714.957C165.965 714.583 166.486 714.323 167.05 714.176C167.618 714.025 168.177 713.949 168.726 713.949C169.076 713.949 169.479 713.991 169.933 714.077C170.393 714.157 170.835 714.325 171.261 714.581C171.692 714.837 172.05 715.223 172.334 715.739C172.618 716.255 172.76 716.946 172.76 717.812V725H171.084V723.523H170.999C170.885 723.759 170.696 724.013 170.43 724.283C170.165 724.553 169.813 724.782 169.372 724.972C168.932 725.161 168.394 725.256 167.76 725.256ZM168.016 723.75C168.679 723.75 169.237 723.62 169.692 723.359C170.151 723.099 170.497 722.763 170.729 722.351C170.965 721.939 171.084 721.506 171.084 721.051V719.517C171.013 719.602 170.857 719.68 170.615 719.751C170.378 719.818 170.104 719.877 169.791 719.929C169.483 719.976 169.183 720.019 168.889 720.057C168.6 720.09 168.366 720.118 168.186 720.142C167.75 720.199 167.343 720.291 166.964 720.419C166.59 720.542 166.287 720.729 166.055 720.98C165.828 721.226 165.714 721.562 165.714 721.989C165.714 722.571 165.93 723.011 166.361 723.31C166.796 723.603 167.348 723.75 168.016 723.75ZM177.495 710.455V725H175.819V710.455H177.495ZM182.241 710.455V725H180.565V710.455H182.241ZM191.164 725V710.455H192.84V715.824H192.982C193.105 715.634 193.275 715.393 193.493 715.099C193.716 714.801 194.033 714.536 194.445 714.304C194.862 714.067 195.425 713.949 196.135 713.949C197.054 713.949 197.864 714.179 198.564 714.638C199.265 715.097 199.812 715.748 200.205 716.591C200.598 717.434 200.794 718.428 200.794 719.574C200.794 720.729 200.598 721.731 200.205 722.578C199.812 723.421 199.267 724.074 198.571 724.538C197.875 724.998 197.073 725.227 196.164 725.227C195.463 725.227 194.902 725.111 194.48 724.879C194.059 724.643 193.735 724.375 193.507 724.077C193.28 723.774 193.105 723.523 192.982 723.324H192.783V725H191.164ZM192.811 719.545C192.811 720.369 192.932 721.096 193.174 721.726C193.415 722.351 193.768 722.841 194.232 723.196C194.696 723.546 195.264 723.722 195.936 723.722C196.637 723.722 197.222 723.537 197.691 723.168C198.164 722.794 198.519 722.292 198.756 721.662C198.998 721.027 199.118 720.322 199.118 719.545C199.118 718.778 199 718.087 198.763 717.472C198.531 716.851 198.178 716.361 197.705 716.001C197.236 715.637 196.647 715.455 195.936 715.455C195.255 715.455 194.682 715.627 194.218 715.973C193.754 716.314 193.403 716.792 193.167 717.408C192.93 718.018 192.811 718.731 192.811 719.545ZM207.932 725.227C206.881 725.227 205.974 724.995 205.212 724.531C204.454 724.062 203.87 723.409 203.458 722.571C203.051 721.728 202.847 720.748 202.847 719.631C202.847 718.513 203.051 717.528 203.458 716.676C203.87 715.819 204.443 715.152 205.176 714.673C205.915 714.19 206.777 713.949 207.762 713.949C208.33 713.949 208.891 714.044 209.445 714.233C209.999 714.422 210.503 714.73 210.958 715.156C211.412 715.578 211.775 716.136 212.044 716.832C212.314 717.528 212.449 718.385 212.449 719.403V720.114H204.04V718.665H210.745C210.745 718.049 210.622 717.5 210.375 717.017C210.134 716.534 209.788 716.153 209.338 715.874C208.893 715.594 208.368 715.455 207.762 715.455C207.094 715.455 206.516 715.62 206.029 715.952C205.546 716.278 205.174 716.705 204.914 717.23C204.653 717.756 204.523 718.319 204.523 718.92V719.886C204.523 720.71 204.665 721.409 204.949 721.982C205.238 722.55 205.638 722.983 206.15 723.281C206.661 723.575 207.255 723.722 207.932 723.722C208.373 723.722 208.77 723.66 209.125 723.537C209.485 723.409 209.795 723.22 210.056 722.969C210.316 722.713 210.517 722.396 210.659 722.017L212.279 722.472C212.108 723.021 211.822 723.504 211.419 723.92C211.017 724.332 210.52 724.654 209.928 724.886C209.336 725.114 208.671 725.227 207.932 725.227ZM219.431 725.227C218.408 725.227 217.527 724.986 216.789 724.503C216.05 724.02 215.482 723.355 215.084 722.507C214.686 721.66 214.488 720.691 214.488 719.602C214.488 718.494 214.691 717.517 215.098 716.669C215.51 715.817 216.083 715.152 216.817 714.673C217.556 714.19 218.417 713.949 219.402 713.949C220.169 713.949 220.861 714.091 221.476 714.375C222.092 714.659 222.596 715.057 222.989 715.568C223.382 716.08 223.626 716.676 223.721 717.358H222.044C221.917 716.861 221.632 716.42 221.192 716.037C220.757 715.649 220.169 715.455 219.431 715.455C218.777 715.455 218.204 715.625 217.712 715.966C217.224 716.302 216.843 716.778 216.569 717.393C216.299 718.004 216.164 718.722 216.164 719.545C216.164 720.388 216.296 721.122 216.561 721.747C216.831 722.372 217.21 722.857 217.698 723.203C218.19 723.549 218.768 723.722 219.431 723.722C219.866 723.722 220.262 723.646 220.617 723.494C220.972 723.343 221.273 723.125 221.519 722.841C221.765 722.557 221.94 722.216 222.044 721.818H223.721C223.626 722.462 223.391 723.042 223.017 723.558C222.648 724.07 222.158 724.477 221.547 724.78C220.941 725.078 220.236 725.227 219.431 725.227ZM229.381 725.256C228.69 725.256 228.062 725.125 227.499 724.865C226.935 724.6 226.488 724.219 226.157 723.722C225.825 723.22 225.659 722.614 225.659 721.903C225.659 721.278 225.783 720.772 226.029 720.384C226.275 719.991 226.604 719.683 227.016 719.46C227.428 719.238 227.882 719.072 228.38 718.963C228.882 718.849 229.386 718.759 229.892 718.693C230.555 718.608 231.093 718.544 231.505 718.501C231.921 718.454 232.224 718.376 232.414 718.267C232.608 718.158 232.705 717.969 232.705 717.699V717.642C232.705 716.941 232.513 716.397 232.13 716.009C231.751 715.62 231.176 715.426 230.404 715.426C229.604 715.426 228.976 715.601 228.522 715.952C228.067 716.302 227.748 716.676 227.563 717.074L225.972 716.506C226.256 715.843 226.635 715.327 227.108 714.957C227.587 714.583 228.107 714.323 228.671 714.176C229.239 714.025 229.798 713.949 230.347 713.949C230.697 713.949 231.1 713.991 231.554 714.077C232.014 714.157 232.456 714.325 232.882 714.581C233.313 714.837 233.671 715.223 233.955 715.739C234.239 716.255 234.381 716.946 234.381 717.812V725H232.705V723.523H232.62C232.506 723.759 232.317 724.013 232.051 724.283C231.786 724.553 231.434 724.782 230.993 724.972C230.553 725.161 230.016 725.256 229.381 725.256ZM229.637 723.75C230.3 723.75 230.858 723.62 231.313 723.359C231.772 723.099 232.118 722.763 232.35 722.351C232.587 721.939 232.705 721.506 232.705 721.051V719.517C232.634 719.602 232.478 719.68 232.236 719.751C231.999 719.818 231.725 719.877 231.412 719.929C231.105 719.976 230.804 720.019 230.51 720.057C230.221 720.09 229.987 720.118 229.807 720.142C229.372 720.199 228.964 720.291 228.586 720.419C228.212 720.542 227.908 720.729 227.676 720.98C227.449 721.226 227.336 721.562 227.336 721.989C227.336 722.571 227.551 723.011 227.982 723.31C228.417 723.603 228.969 723.75 229.637 723.75ZM244.315 720.54V714.091H245.991V725H244.315V723.153H244.202C243.946 723.707 243.548 724.179 243.009 724.567C242.469 724.95 241.787 725.142 240.963 725.142C240.281 725.142 239.675 724.993 239.145 724.695C238.615 724.392 238.198 723.937 237.895 723.331C237.592 722.72 237.44 721.951 237.44 721.023V714.091H239.116V720.909C239.116 721.705 239.339 722.339 239.784 722.812C240.234 723.286 240.807 723.523 241.503 723.523C241.92 723.523 242.343 723.416 242.774 723.203C243.21 722.99 243.574 722.663 243.868 722.223C244.166 721.783 244.315 721.222 244.315 720.54ZM256.789 716.534L255.283 716.96C255.188 716.709 255.049 716.465 254.864 716.229C254.684 715.987 254.438 715.788 254.125 715.632C253.813 715.476 253.413 715.398 252.925 715.398C252.257 715.398 251.701 715.552 251.256 715.859C250.816 716.162 250.596 716.548 250.596 717.017C250.596 717.434 250.747 717.763 251.05 718.004C251.353 718.246 251.827 718.447 252.471 718.608L254.09 719.006C255.065 719.242 255.792 719.605 256.27 720.092C256.748 720.575 256.988 721.198 256.988 721.96C256.988 722.585 256.808 723.144 256.448 723.636C256.093 724.129 255.596 724.517 254.956 724.801C254.317 725.085 253.574 725.227 252.726 725.227C251.614 725.227 250.693 724.986 249.963 724.503C249.234 724.02 248.773 723.314 248.578 722.386L250.169 721.989C250.321 722.576 250.607 723.016 251.029 723.31C251.455 723.603 252.011 723.75 252.698 723.75C253.479 723.75 254.099 723.584 254.559 723.253C255.023 722.917 255.255 722.514 255.255 722.045C255.255 721.667 255.122 721.349 254.857 721.094C254.592 720.833 254.185 720.639 253.635 720.511L251.817 720.085C250.818 719.848 250.084 719.482 249.615 718.984C249.151 718.482 248.919 717.855 248.919 717.102C248.919 716.487 249.092 715.942 249.438 715.469C249.788 714.995 250.264 714.624 250.865 714.354C251.471 714.084 252.158 713.949 252.925 713.949C254.005 713.949 254.852 714.186 255.468 714.659C256.088 715.133 256.528 715.758 256.789 716.534ZM264.085 725.227C263.033 725.227 262.127 724.995 261.364 724.531C260.607 724.062 260.022 723.409 259.61 722.571C259.203 721.728 258.999 720.748 258.999 719.631C258.999 718.513 259.203 717.528 259.61 716.676C260.022 715.819 260.595 715.152 261.329 714.673C262.067 714.19 262.929 713.949 263.914 713.949C264.482 713.949 265.043 714.044 265.597 714.233C266.151 714.422 266.656 714.73 267.11 715.156C267.565 715.578 267.927 716.136 268.197 716.832C268.467 717.528 268.602 718.385 268.602 719.403V720.114H260.192V718.665H266.897C266.897 718.049 266.774 717.5 266.528 717.017C266.286 716.534 265.941 716.153 265.491 715.874C265.046 715.594 264.52 715.455 263.914 715.455C263.246 715.455 262.669 715.62 262.181 715.952C261.698 716.278 261.326 716.705 261.066 717.23C260.806 717.756 260.675 718.319 260.675 718.92V719.886C260.675 720.71 260.817 721.409 261.102 721.982C261.39 722.55 261.79 722.983 262.302 723.281C262.813 723.575 263.407 723.722 264.085 723.722C264.525 723.722 264.923 723.66 265.278 723.537C265.638 723.409 265.948 723.22 266.208 722.969C266.469 722.713 266.67 722.396 266.812 722.017L268.431 722.472C268.261 723.021 267.974 723.504 267.572 723.92C267.169 724.332 266.672 724.654 266.08 724.886C265.488 725.114 264.823 725.227 264.085 725.227ZM281.208 725.227C280.223 725.227 279.359 724.993 278.616 724.524C277.877 724.055 277.299 723.4 276.883 722.557C276.471 721.714 276.265 720.729 276.265 719.602C276.265 718.466 276.471 717.474 276.883 716.626C277.299 715.779 277.877 715.121 278.616 714.652C279.359 714.183 280.223 713.949 281.208 713.949C282.193 713.949 283.055 714.183 283.793 714.652C284.537 715.121 285.114 715.779 285.526 716.626C285.943 717.474 286.151 718.466 286.151 719.602C286.151 720.729 285.943 721.714 285.526 722.557C285.114 723.4 284.537 724.055 283.793 724.524C283.055 724.993 282.193 725.227 281.208 725.227ZM281.208 723.722C281.956 723.722 282.572 723.53 283.055 723.146C283.538 722.763 283.895 722.259 284.127 721.634C284.359 721.009 284.475 720.331 284.475 719.602C284.475 718.873 284.359 718.194 284.127 717.564C283.895 716.934 283.538 716.425 283.055 716.037C282.572 715.649 281.956 715.455 281.208 715.455C280.46 715.455 279.844 715.649 279.362 716.037C278.879 716.425 278.521 716.934 278.289 717.564C278.057 718.194 277.941 718.873 277.941 719.602C277.941 720.331 278.057 721.009 278.289 721.634C278.521 722.259 278.879 722.763 279.362 723.146C279.844 723.53 280.46 723.722 281.208 723.722ZM293.568 714.091V715.511H287.687V714.091H293.568ZM289.449 725V712.585C289.449 711.96 289.595 711.439 289.889 711.023C290.182 710.606 290.564 710.294 291.032 710.085C291.501 709.877 291.996 709.773 292.517 709.773C292.929 709.773 293.265 709.806 293.525 709.872C293.786 709.938 293.98 710 294.108 710.057L293.625 711.506C293.539 711.477 293.421 711.442 293.27 711.399C293.123 711.357 292.929 711.335 292.687 711.335C292.133 711.335 291.733 711.475 291.487 711.754C291.245 712.034 291.125 712.443 291.125 712.983V725H289.449ZM302.621 729.091C302.337 729.091 302.084 729.067 301.862 729.02C301.639 728.977 301.485 728.935 301.4 728.892L301.826 727.415C302.233 727.519 302.593 727.557 302.906 727.528C303.218 727.5 303.495 727.36 303.737 727.109C303.983 726.863 304.208 726.463 304.411 725.909L304.724 725.057L300.69 714.091H302.508L305.519 722.784H305.633L308.644 714.091H310.462L305.832 726.591C305.623 727.154 305.365 727.621 305.058 727.99C304.75 728.364 304.392 728.641 303.985 728.821C303.583 729.001 303.128 729.091 302.621 729.091ZM316.716 725.227C315.731 725.227 314.867 724.993 314.124 724.524C313.385 724.055 312.807 723.4 312.391 722.557C311.979 721.714 311.773 720.729 311.773 719.602C311.773 718.466 311.979 717.474 312.391 716.626C312.807 715.779 313.385 715.121 314.124 714.652C314.867 714.183 315.731 713.949 316.716 713.949C317.701 713.949 318.563 714.183 319.301 714.652C320.045 715.121 320.622 715.779 321.034 716.626C321.451 717.474 321.659 718.466 321.659 719.602C321.659 720.729 321.451 721.714 321.034 722.557C320.622 723.4 320.045 724.055 319.301 724.524C318.563 724.993 317.701 725.227 316.716 725.227ZM316.716 723.722C317.464 723.722 318.08 723.53 318.562 723.146C319.045 722.763 319.403 722.259 319.635 721.634C319.867 721.009 319.983 720.331 319.983 719.602C319.983 718.873 319.867 718.194 319.635 717.564C319.403 716.934 319.045 716.425 318.562 716.037C318.08 715.649 317.464 715.455 316.716 715.455C315.968 715.455 315.352 715.649 314.869 716.037C314.386 716.425 314.029 716.934 313.797 717.564C313.565 718.194 313.449 718.873 313.449 719.602C313.449 720.331 313.565 721.009 313.797 721.634C314.029 722.259 314.386 722.763 314.869 723.146C315.352 723.53 315.968 723.722 316.716 723.722ZM331.093 720.54V714.091H332.769V725H331.093V723.153H330.979C330.723 723.707 330.326 724.179 329.786 724.567C329.246 724.95 328.564 725.142 327.74 725.142C327.059 725.142 326.453 724.993 325.922 724.695C325.392 724.392 324.975 723.937 324.672 723.331C324.369 722.72 324.218 721.951 324.218 721.023V714.091H325.894V720.909C325.894 721.705 326.116 722.339 326.561 722.812C327.011 723.286 327.584 723.523 328.28 723.523C328.697 723.523 329.121 723.416 329.551 723.203C329.987 722.99 330.352 722.663 330.645 722.223C330.944 721.783 331.093 721.222 331.093 720.54ZM338.339 723.011L338.225 723.778C338.145 724.318 338.022 724.896 337.856 725.511C337.695 726.127 337.527 726.707 337.352 727.251C337.176 727.796 337.032 728.229 336.918 728.551H335.64C335.701 728.248 335.782 727.848 335.881 727.351C335.981 726.854 336.08 726.297 336.18 725.682C336.284 725.071 336.369 724.446 336.435 723.807L336.521 723.011H338.339ZM351.785 725H347.297V710.455H351.984C353.395 710.455 354.602 710.746 355.606 711.328C356.61 711.906 357.379 712.737 357.914 713.821C358.449 714.901 358.717 716.193 358.717 717.699C358.717 719.214 358.447 720.518 357.907 721.612C357.368 722.701 356.582 723.539 355.549 724.126C354.517 724.709 353.262 725 351.785 725ZM349.058 723.438H351.672C352.874 723.438 353.871 723.205 354.662 722.741C355.452 722.277 356.042 721.617 356.43 720.76C356.818 719.903 357.012 718.883 357.012 717.699C357.012 716.525 356.821 715.514 356.437 714.666C356.054 713.814 355.481 713.161 354.718 712.706C353.956 712.247 353.007 712.017 351.87 712.017H349.058V723.438ZM361.444 725V714.091H363.064V715.739H363.177C363.376 715.199 363.736 714.761 364.257 714.425C364.778 714.089 365.365 713.92 366.018 713.92C366.141 713.92 366.295 713.923 366.48 713.928C366.664 713.932 366.804 713.939 366.899 713.949V715.653C366.842 715.639 366.712 715.618 366.508 715.589C366.309 715.556 366.099 715.54 365.876 715.54C365.346 715.54 364.872 715.651 364.456 715.874C364.044 716.091 363.717 716.394 363.475 716.783C363.239 717.166 363.12 717.604 363.12 718.097V725H361.444ZM373.127 725.227C372.076 725.227 371.17 724.995 370.407 724.531C369.65 724.062 369.065 723.409 368.653 722.571C368.246 721.728 368.042 720.748 368.042 719.631C368.042 718.513 368.246 717.528 368.653 716.676C369.065 715.819 369.638 715.152 370.372 714.673C371.11 714.19 371.972 713.949 372.957 713.949C373.525 713.949 374.086 714.044 374.64 714.233C375.194 714.422 375.699 714.73 376.153 715.156C376.608 715.578 376.97 716.136 377.24 716.832C377.51 717.528 377.645 718.385 377.645 719.403V720.114H369.235V718.665H375.94C375.94 718.049 375.817 717.5 375.571 717.017C375.329 716.534 374.984 716.153 374.534 715.874C374.089 715.594 373.563 715.455 372.957 715.455C372.289 715.455 371.712 715.62 371.224 715.952C370.741 716.278 370.369 716.705 370.109 717.23C369.849 717.756 369.718 718.319 369.718 718.92V719.886C369.718 720.71 369.86 721.409 370.145 721.982C370.433 722.55 370.833 722.983 371.345 723.281C371.856 723.575 372.45 723.722 373.127 723.722C373.568 723.722 373.966 723.66 374.321 723.537C374.681 723.409 374.991 723.22 375.251 722.969C375.511 722.713 375.713 722.396 375.855 722.017L377.474 722.472C377.304 723.021 377.017 723.504 376.615 723.92C376.212 724.332 375.715 724.654 375.123 724.886C374.531 725.114 373.866 725.227 373.127 725.227ZM383.404 725.256C382.713 725.256 382.086 725.125 381.522 724.865C380.959 724.6 380.511 724.219 380.18 723.722C379.849 723.22 379.683 722.614 379.683 721.903C379.683 721.278 379.806 720.772 380.052 720.384C380.298 719.991 380.627 719.683 381.039 719.46C381.451 719.238 381.906 719.072 382.403 718.963C382.905 718.849 383.409 718.759 383.916 718.693C384.579 718.608 385.116 718.544 385.528 718.501C385.945 718.454 386.248 718.376 386.437 718.267C386.631 718.158 386.728 717.969 386.728 717.699V717.642C386.728 716.941 386.537 716.397 386.153 716.009C385.774 715.62 385.199 715.426 384.427 715.426C383.627 715.426 383 715.601 382.545 715.952C382.091 716.302 381.771 716.676 381.586 717.074L379.995 716.506C380.279 715.843 380.658 715.327 381.132 714.957C381.61 714.583 382.131 714.323 382.694 714.176C383.262 714.025 383.821 713.949 384.37 713.949C384.721 713.949 385.123 713.991 385.578 714.077C386.037 714.157 386.48 714.325 386.906 714.581C387.337 714.837 387.694 715.223 387.978 715.739C388.262 716.255 388.404 716.946 388.404 717.812V725H386.728V723.523H386.643C386.529 723.759 386.34 724.013 386.075 724.283C385.81 724.553 385.457 724.782 385.017 724.972C384.576 725.161 384.039 725.256 383.404 725.256ZM383.66 723.75C384.323 723.75 384.882 723.62 385.336 723.359C385.796 723.099 386.141 722.763 386.373 722.351C386.61 721.939 386.728 721.506 386.728 721.051V719.517C386.657 719.602 386.501 719.68 386.26 719.751C386.023 719.818 385.748 719.877 385.436 719.929C385.128 719.976 384.827 720.019 384.534 720.057C384.245 720.09 384.011 720.118 383.831 720.142C383.395 720.199 382.988 720.291 382.609 720.419C382.235 720.542 381.932 720.729 381.7 720.98C381.473 721.226 381.359 721.562 381.359 721.989C381.359 722.571 381.574 723.011 382.005 723.31C382.441 723.603 382.993 723.75 383.66 723.75ZM391.464 725V714.091H393.083V715.795H393.225C393.452 715.213 393.819 714.761 394.326 714.439C394.833 714.112 395.441 713.949 396.151 713.949C396.871 713.949 397.47 714.112 397.948 714.439C398.431 714.761 398.808 715.213 399.077 715.795H399.191C399.47 715.232 399.889 714.785 400.448 714.453C401.007 714.117 401.677 713.949 402.458 713.949C403.433 713.949 404.231 714.254 404.852 714.865C405.472 715.471 405.782 716.416 405.782 717.699V725H404.106V717.699C404.106 716.894 403.886 716.319 403.445 715.973C403.005 715.627 402.487 715.455 401.89 715.455C401.123 715.455 400.529 715.687 400.107 716.151C399.686 716.61 399.475 717.192 399.475 717.898V725H397.771V717.528C397.771 716.908 397.569 716.409 397.167 716.03C396.764 715.646 396.246 715.455 395.612 715.455C395.176 715.455 394.769 715.571 394.39 715.803C394.016 716.035 393.713 716.357 393.481 716.768C393.254 717.176 393.14 717.647 393.14 718.182V725H391.464ZM413.42 725.227C412.369 725.227 411.463 724.995 410.7 724.531C409.943 724.062 409.358 723.409 408.946 722.571C408.539 721.728 408.335 720.748 408.335 719.631C408.335 718.513 408.539 717.528 408.946 716.676C409.358 715.819 409.931 715.152 410.665 714.673C411.403 714.19 412.265 713.949 413.25 713.949C413.818 713.949 414.379 714.044 414.933 714.233C415.487 714.422 415.991 714.73 416.446 715.156C416.901 715.578 417.263 716.136 417.533 716.832C417.803 717.528 417.938 718.385 417.938 719.403V720.114H409.528V718.665H416.233C416.233 718.049 416.11 717.5 415.864 717.017C415.622 716.534 415.277 716.153 414.827 715.874C414.382 715.594 413.856 715.455 413.25 715.455C412.582 715.455 412.005 715.62 411.517 715.952C411.034 716.278 410.662 716.705 410.402 717.23C410.142 717.756 410.011 718.319 410.011 718.92V719.886C410.011 720.71 410.153 721.409 410.438 721.982C410.726 722.55 411.126 722.983 411.638 723.281C412.149 723.575 412.743 723.722 413.42 723.722C413.861 723.722 414.259 723.66 414.614 723.537C414.973 723.409 415.284 723.22 415.544 722.969C415.804 722.713 416.006 722.396 416.148 722.017L417.767 722.472C417.597 723.021 417.31 723.504 416.908 723.92C416.505 724.332 416.008 724.654 415.416 724.886C414.824 725.114 414.159 725.227 413.42 725.227ZM420.487 725V714.091H422.107V715.739H422.22C422.419 715.199 422.779 714.761 423.3 714.425C423.821 714.089 424.408 713.92 425.061 713.92C425.184 713.92 425.338 713.923 425.523 713.928C425.707 713.932 425.847 713.939 425.942 713.949V715.653C425.885 715.639 425.755 715.618 425.551 715.589C425.352 715.556 425.142 715.54 424.919 715.54C424.389 715.54 423.915 715.651 423.499 715.874C423.087 716.091 422.76 716.394 422.518 716.783C422.282 717.166 422.163 717.604 422.163 718.097V725H420.487ZM427.9 725.114C427.55 725.114 427.249 724.988 426.998 724.737C426.747 724.486 426.622 724.186 426.622 723.835C426.622 723.485 426.747 723.184 426.998 722.933C427.249 722.682 427.55 722.557 427.9 722.557C428.251 722.557 428.551 722.682 428.802 722.933C429.053 723.184 429.179 723.485 429.179 723.835C429.179 724.067 429.119 724.28 429.001 724.474C428.887 724.669 428.734 724.825 428.539 724.943C428.35 725.057 428.137 725.114 427.9 725.114ZM436.789 710.455H438.806L442.84 717.244H443.01L447.044 710.455H449.061L443.806 719.006V725H442.044V719.006L436.789 710.455ZM454.001 725.227C453.016 725.227 452.152 724.993 451.409 724.524C450.67 724.055 450.092 723.4 449.676 722.557C449.264 721.714 449.058 720.729 449.058 719.602C449.058 718.466 449.264 717.474 449.676 716.626C450.092 715.779 450.67 715.121 451.409 714.652C452.152 714.183 453.016 713.949 454.001 713.949C454.986 713.949 455.848 714.183 456.586 714.652C457.33 715.121 457.907 715.779 458.319 716.626C458.736 717.474 458.944 718.466 458.944 719.602C458.944 720.729 458.736 721.714 458.319 722.557C457.907 723.4 457.33 724.055 456.586 724.524C455.848 724.993 454.986 725.227 454.001 725.227ZM454.001 723.722C454.749 723.722 455.365 723.53 455.848 723.146C456.331 722.763 456.688 722.259 456.92 721.634C457.152 721.009 457.268 720.331 457.268 719.602C457.268 718.873 457.152 718.194 456.92 717.564C456.688 716.934 456.331 716.425 455.848 716.037C455.365 715.649 454.749 715.455 454.001 715.455C453.253 715.455 452.637 715.649 452.154 716.037C451.672 716.425 451.314 716.934 451.082 717.564C450.85 718.194 450.734 718.873 450.734 719.602C450.734 720.331 450.85 721.009 451.082 721.634C451.314 722.259 451.672 722.763 452.154 723.146C452.637 723.53 453.253 723.722 454.001 723.722ZM468.378 720.54V714.091H470.054V725H468.378V723.153H468.264C468.009 723.707 467.611 724.179 467.071 724.567C466.531 724.95 465.849 725.142 465.026 725.142C464.344 725.142 463.738 724.993 463.207 724.695C462.677 724.392 462.26 723.937 461.957 723.331C461.654 722.72 461.503 721.951 461.503 721.023V714.091H463.179V720.909C463.179 721.705 463.402 722.339 463.847 722.812C464.296 723.286 464.869 723.523 465.565 723.523C465.982 723.523 466.406 723.416 466.837 723.203C467.272 722.99 467.637 722.663 467.93 722.223C468.229 721.783 468.378 721.222 468.378 720.54ZM474.894 710.455V711.733C474.894 712.121 474.823 712.536 474.681 712.976C474.544 713.411 474.34 713.835 474.07 714.247C473.805 714.654 473.483 715.009 473.104 715.312L472.195 714.574C472.494 714.148 472.752 713.705 472.969 713.246C473.192 712.782 473.303 712.287 473.303 711.761V710.455H474.894ZM476.679 725V714.091H478.298V715.739H478.412C478.61 715.199 478.97 714.761 479.491 714.425C480.012 714.089 480.599 713.92 481.252 713.92C481.376 713.92 481.529 713.923 481.714 713.928C481.899 713.932 482.038 713.939 482.133 713.949V715.653C482.076 715.639 481.946 715.618 481.743 715.589C481.544 715.556 481.333 715.54 481.11 715.54C480.58 715.54 480.107 715.651 479.69 715.874C479.278 716.091 478.951 716.394 478.71 716.783C478.473 717.166 478.355 717.604 478.355 718.097V725H476.679ZM488.362 725.227C487.311 725.227 486.404 724.995 485.642 724.531C484.884 724.062 484.299 723.409 483.887 722.571C483.48 721.728 483.277 720.748 483.277 719.631C483.277 718.513 483.48 717.528 483.887 716.676C484.299 715.819 484.872 715.152 485.606 714.673C486.345 714.19 487.207 713.949 488.191 713.949C488.76 713.949 489.321 714.044 489.875 714.233C490.429 714.422 490.933 714.73 491.387 715.156C491.842 715.578 492.204 716.136 492.474 716.832C492.744 717.528 492.879 718.385 492.879 719.403V720.114H484.47V718.665H491.174C491.174 718.049 491.051 717.5 490.805 717.017C490.564 716.534 490.218 716.153 489.768 715.874C489.323 715.594 488.797 715.455 488.191 715.455C487.524 715.455 486.946 715.62 486.458 715.952C485.975 716.278 485.604 716.705 485.343 717.23C485.083 717.756 484.953 718.319 484.953 718.92V719.886C484.953 720.71 485.095 721.409 485.379 721.982C485.668 722.55 486.068 722.983 486.579 723.281C487.091 723.575 487.685 723.722 488.362 723.722C488.802 723.722 489.2 723.66 489.555 723.537C489.915 723.409 490.225 723.22 490.485 722.969C490.746 722.713 490.947 722.396 491.089 722.017L492.708 722.472C492.538 723.021 492.252 723.504 491.849 723.92C491.447 724.332 490.949 724.654 490.358 724.886C489.766 725.114 489.1 725.227 488.362 725.227ZM53.5341 749V738.091H55.2102V749H53.5341ZM54.3864 736.273C54.0597 736.273 53.7779 736.161 53.5412 735.939C53.3092 735.716 53.1932 735.449 53.1932 735.136C53.1932 734.824 53.3092 734.556 53.5412 734.334C53.7779 734.111 54.0597 734 54.3864 734C54.7131 734 54.9924 734.111 55.2244 734.334C55.4612 734.556 55.5795 734.824 55.5795 735.136C55.5795 735.449 55.4612 735.716 55.2244 735.939C54.9924 736.161 54.7131 736.273 54.3864 736.273ZM59.9563 742.438V749H58.2802V738.091H59.8995V739.795H60.0415C60.2972 739.241 60.6855 738.796 61.2063 738.46C61.7272 738.119 62.3995 737.949 63.2234 737.949C63.962 737.949 64.6083 738.1 65.1623 738.403C65.7163 738.702 66.1471 739.156 66.4549 739.767C66.7627 740.373 66.9165 741.14 66.9165 742.068V749H65.2404V742.182C65.2404 741.325 65.0179 740.657 64.5728 740.179C64.1277 739.696 63.5169 739.455 62.7404 739.455C62.2054 739.455 61.7272 739.571 61.3058 739.803C60.8891 740.035 60.56 740.373 60.3185 740.818C60.0771 741.263 59.9563 741.803 59.9563 742.438ZM71.6555 742.438V749H69.9794V734.455H71.6555V739.795H71.7976C72.0533 739.232 72.4368 738.785 72.9482 738.453C73.4643 738.117 74.1508 737.949 75.0078 737.949C75.7512 737.949 76.4022 738.098 76.9609 738.396C77.5196 738.69 77.9529 739.142 78.2607 739.753C78.5732 740.359 78.7294 741.131 78.7294 742.068V749H77.0533V742.182C77.0533 741.315 76.8284 740.645 76.3786 740.172C75.9335 739.694 75.3156 739.455 74.5249 739.455C73.9756 739.455 73.4832 739.571 73.0476 739.803C72.6167 740.035 72.2758 740.373 72.0249 740.818C71.7786 741.263 71.6555 741.803 71.6555 742.438ZM81.7958 749V738.091H83.4719V749H81.7958ZM82.6481 736.273C82.3214 736.273 82.0397 736.161 81.8029 735.939C81.5709 735.716 81.4549 735.449 81.4549 735.136C81.4549 734.824 81.5709 734.556 81.8029 734.334C82.0397 734.111 82.3214 734 82.6481 734C82.9748 734 83.2541 734.111 83.4862 734.334C83.7229 734.556 83.8413 734.824 83.8413 735.136C83.8413 735.449 83.7229 735.716 83.4862 735.939C83.2541 736.161 82.9748 736.273 82.6481 736.273ZM86.7692 749V734.455H88.4453V739.824H88.5874C88.7105 739.634 88.8809 739.393 89.0987 739.099C89.3213 738.801 89.6385 738.536 90.0504 738.304C90.4671 738.067 91.0305 737.949 91.7408 737.949C92.6593 737.949 93.469 738.179 94.1697 738.638C94.8705 739.097 95.4174 739.748 95.8104 740.591C96.2034 741.434 96.3999 742.428 96.3999 743.574C96.3999 744.729 96.2034 745.731 95.8104 746.578C95.4174 747.421 94.8729 748.074 94.1768 748.538C93.4808 748.998 92.6783 749.227 91.7692 749.227C91.0684 749.227 90.5073 749.111 90.0859 748.879C89.6645 748.643 89.3402 748.375 89.1129 748.077C88.8857 747.774 88.7105 747.523 88.5874 747.324H88.3885V749H86.7692ZM88.4169 743.545C88.4169 744.369 88.5376 745.096 88.7791 745.726C89.0206 746.351 89.3733 746.841 89.8374 747.196C90.3014 747.546 90.8696 747.722 91.5419 747.722C92.2427 747.722 92.8274 747.537 93.2962 747.168C93.7696 746.794 94.1248 746.292 94.3615 745.662C94.603 745.027 94.7237 744.322 94.7237 743.545C94.7237 742.778 94.6054 742.087 94.3686 741.472C94.1366 740.851 93.7839 740.361 93.3104 740.001C92.8416 739.637 92.2521 739.455 91.5419 739.455C90.8601 739.455 90.2872 739.627 89.8232 739.973C89.3591 740.314 89.0088 740.792 88.772 741.408C88.5353 742.018 88.4169 742.731 88.4169 743.545ZM98.9638 749V738.091H100.64V749H98.9638ZM99.8161 736.273C99.4893 736.273 99.2076 736.161 98.9709 735.939C98.7389 735.716 98.6229 735.449 98.6229 735.136C98.6229 734.824 98.7389 734.556 98.9709 734.334C99.2076 734.111 99.4893 734 99.8161 734C100.143 734 100.422 734.111 100.654 734.334C100.891 734.556 101.009 734.824 101.009 735.136C101.009 735.449 100.891 735.716 100.654 735.939C100.422 736.161 100.143 736.273 99.8161 736.273ZM108.454 738.091V739.511H102.801V738.091H108.454ZM104.449 735.477H106.125V745.875C106.125 746.348 106.193 746.704 106.331 746.94C106.473 747.172 106.653 747.329 106.87 747.409C107.093 747.485 107.327 747.523 107.574 747.523C107.758 747.523 107.91 747.513 108.028 747.494C108.146 747.471 108.241 747.452 108.312 747.438L108.653 748.943C108.539 748.986 108.381 749.028 108.177 749.071C107.974 749.118 107.716 749.142 107.403 749.142C106.93 749.142 106.466 749.04 106.011 748.837C105.561 748.633 105.187 748.323 104.889 747.906C104.595 747.49 104.449 746.964 104.449 746.33V735.477ZM110.975 749V738.091H112.652V749H110.975ZM111.828 736.273C111.501 736.273 111.219 736.161 110.983 735.939C110.751 735.716 110.635 735.449 110.635 735.136C110.635 734.824 110.751 734.556 110.983 734.334C111.219 734.111 111.501 734 111.828 734C112.154 734 112.434 734.111 112.666 734.334C112.903 734.556 113.021 734.824 113.021 735.136C113.021 735.449 112.903 735.716 112.666 735.939C112.434 736.161 112.154 736.273 111.828 736.273ZM117.398 742.438V749H115.722V738.091H117.341V739.795H117.483C117.739 739.241 118.127 738.796 118.648 738.46C119.169 738.119 119.841 737.949 120.665 737.949C121.403 737.949 122.05 738.1 122.604 738.403C123.158 738.702 123.589 739.156 123.896 739.767C124.204 740.373 124.358 741.14 124.358 742.068V749H122.682V742.182C122.682 741.325 122.459 740.657 122.014 740.179C121.569 739.696 120.958 739.455 120.182 739.455C119.647 739.455 119.169 739.571 118.747 739.803C118.33 740.035 118.001 740.373 117.76 740.818C117.518 741.263 117.398 741.803 117.398 742.438ZM131.824 753.318C131.015 753.318 130.319 753.214 129.736 753.006C129.154 752.802 128.668 752.532 128.28 752.196C127.897 751.865 127.591 751.509 127.364 751.131L128.699 750.193C128.851 750.392 129.042 750.619 129.275 750.875C129.507 751.135 129.824 751.36 130.226 751.55C130.633 751.744 131.166 751.841 131.824 751.841C132.705 751.841 133.432 751.628 134.005 751.202C134.578 750.776 134.864 750.108 134.864 749.199V746.983H134.722C134.599 747.182 134.424 747.428 134.196 747.722C133.974 748.01 133.652 748.268 133.23 748.496C132.814 748.718 132.25 748.83 131.54 748.83C130.659 748.83 129.869 748.621 129.168 748.205C128.472 747.788 127.92 747.182 127.513 746.386C127.111 745.591 126.909 744.625 126.909 743.489C126.909 742.371 127.106 741.398 127.499 740.57C127.892 739.736 128.439 739.092 129.14 738.638C129.84 738.179 130.65 737.949 131.569 737.949C132.279 737.949 132.842 738.067 133.259 738.304C133.68 738.536 134.002 738.801 134.225 739.099C134.452 739.393 134.627 739.634 134.75 739.824H134.921V738.091H136.54V749.312C136.54 750.25 136.327 751.012 135.901 751.599C135.48 752.191 134.911 752.625 134.196 752.899C133.486 753.179 132.695 753.318 131.824 753.318ZM131.767 747.324C132.44 747.324 133.008 747.17 133.472 746.862C133.936 746.554 134.289 746.112 134.53 745.534C134.772 744.956 134.892 744.265 134.892 743.46C134.892 742.674 134.774 741.981 134.537 741.379C134.301 740.778 133.95 740.307 133.486 739.966C133.022 739.625 132.449 739.455 131.767 739.455C131.057 739.455 130.465 739.634 129.992 739.994C129.523 740.354 129.17 740.837 128.934 741.443C128.702 742.049 128.586 742.722 128.586 743.46C128.586 744.218 128.704 744.888 128.941 745.47C129.182 746.048 129.537 746.502 130.006 746.834C130.48 747.161 131.067 747.324 131.767 747.324ZM145.233 749V738.091H146.853V739.795H146.995C147.222 739.213 147.589 738.761 148.096 738.439C148.602 738.112 149.211 737.949 149.921 737.949C150.641 737.949 151.239 738.112 151.718 738.439C152.201 738.761 152.577 739.213 152.847 739.795H152.961C153.24 739.232 153.659 738.785 154.218 738.453C154.776 738.117 155.446 737.949 156.228 737.949C157.203 737.949 158.001 738.254 158.621 738.865C159.241 739.471 159.551 740.416 159.551 741.699V749H157.875V741.699C157.875 740.894 157.655 740.319 157.215 739.973C156.775 739.627 156.256 739.455 155.659 739.455C154.892 739.455 154.298 739.687 153.877 740.151C153.455 740.61 153.245 741.192 153.245 741.898V749H151.54V741.528C151.54 740.908 151.339 740.409 150.936 740.03C150.534 739.646 150.016 739.455 149.381 739.455C148.945 739.455 148.538 739.571 148.159 739.803C147.785 740.035 147.482 740.357 147.25 740.768C147.023 741.176 146.909 741.647 146.909 742.182V749H145.233ZM163.305 753.091C163.021 753.091 162.768 753.067 162.545 753.02C162.323 752.977 162.169 752.935 162.083 752.892L162.51 751.415C162.917 751.519 163.277 751.557 163.589 751.528C163.902 751.5 164.179 751.36 164.42 751.109C164.666 750.863 164.891 750.463 165.095 749.909L165.407 749.057L161.373 738.091H163.191L166.203 746.784H166.316L169.328 738.091H171.146L166.515 750.591C166.307 751.154 166.049 751.621 165.741 751.99C165.433 752.364 165.076 752.641 164.669 752.821C164.266 753.001 163.812 753.091 163.305 753.091ZM182.194 749.256C181.502 749.256 180.875 749.125 180.311 748.865C179.748 748.6 179.301 748.219 178.969 747.722C178.638 747.22 178.472 746.614 178.472 745.903C178.472 745.278 178.595 744.772 178.841 744.384C179.087 743.991 179.417 743.683 179.828 743.46C180.24 743.238 180.695 743.072 181.192 742.963C181.694 742.849 182.198 742.759 182.705 742.693C183.368 742.608 183.905 742.544 184.317 742.501C184.734 742.454 185.037 742.376 185.226 742.267C185.42 742.158 185.517 741.969 185.517 741.699V741.642C185.517 740.941 185.326 740.397 184.942 740.009C184.563 739.62 183.988 739.426 183.216 739.426C182.416 739.426 181.789 739.601 181.334 739.952C180.88 740.302 180.56 740.676 180.375 741.074L178.784 740.506C179.069 739.843 179.447 739.327 179.921 738.957C180.399 738.583 180.92 738.323 181.483 738.176C182.051 738.025 182.61 737.949 183.159 737.949C183.51 737.949 183.912 737.991 184.367 738.077C184.826 738.157 185.269 738.325 185.695 738.581C186.126 738.837 186.483 739.223 186.767 739.739C187.051 740.255 187.194 740.946 187.194 741.812V749H185.517V747.523H185.432C185.319 747.759 185.129 748.013 184.864 748.283C184.599 748.553 184.246 748.782 183.806 748.972C183.365 749.161 182.828 749.256 182.194 749.256ZM182.449 747.75C183.112 747.75 183.671 747.62 184.125 747.359C184.585 747.099 184.93 746.763 185.162 746.351C185.399 745.939 185.517 745.506 185.517 745.051V743.517C185.446 743.602 185.29 743.68 185.049 743.751C184.812 743.818 184.537 743.877 184.225 743.929C183.917 743.976 183.616 744.019 183.323 744.057C183.034 744.09 182.8 744.118 182.62 744.142C182.184 744.199 181.777 744.291 181.398 744.419C181.024 744.542 180.721 744.729 180.489 744.98C180.262 745.226 180.148 745.562 180.148 745.989C180.148 746.571 180.364 747.011 180.794 747.31C181.23 747.603 181.782 747.75 182.449 747.75ZM190.48 749V734.455H192.156V739.824H192.298C192.421 739.634 192.592 739.393 192.81 739.099C193.032 738.801 193.349 738.536 193.761 738.304C194.178 738.067 194.741 737.949 195.452 737.949C196.37 737.949 197.18 738.179 197.881 738.638C198.581 739.097 199.128 739.748 199.521 740.591C199.914 741.434 200.111 742.428 200.111 743.574C200.111 744.729 199.914 745.731 199.521 746.578C199.128 747.421 198.584 748.074 197.888 748.538C197.192 748.998 196.389 749.227 195.48 749.227C194.779 749.227 194.218 749.111 193.797 748.879C193.375 748.643 193.051 748.375 192.824 748.077C192.597 747.774 192.421 747.523 192.298 747.324H192.099V749H190.48ZM192.128 743.545C192.128 744.369 192.249 745.096 192.49 745.726C192.732 746.351 193.084 746.841 193.548 747.196C194.012 747.546 194.58 747.722 195.253 747.722C195.954 747.722 196.538 747.537 197.007 747.168C197.481 746.794 197.836 746.292 198.072 745.662C198.314 745.027 198.435 744.322 198.435 743.545C198.435 742.778 198.316 742.087 198.08 741.472C197.848 740.851 197.495 740.361 197.021 740.001C196.553 739.637 195.963 739.455 195.253 739.455C194.571 739.455 193.998 739.627 193.534 739.973C193.07 740.314 192.72 740.792 192.483 741.408C192.246 742.018 192.128 742.731 192.128 743.545ZM202.675 749V738.091H204.351V749H202.675ZM203.527 736.273C203.2 736.273 202.919 736.161 202.682 735.939C202.45 735.716 202.334 735.449 202.334 735.136C202.334 734.824 202.45 734.556 202.682 734.334C202.919 734.111 203.2 734 203.527 734C203.854 734 204.133 734.111 204.365 734.334C204.602 734.556 204.72 734.824 204.72 735.136C204.72 735.449 204.602 735.716 204.365 735.939C204.133 736.161 203.854 736.273 203.527 736.273ZM209.097 734.455V749H207.421V734.455H209.097ZM212.167 749V738.091H213.843V749H212.167ZM213.019 736.273C212.692 736.273 212.411 736.161 212.174 735.939C211.942 735.716 211.826 735.449 211.826 735.136C211.826 734.824 211.942 734.556 212.174 734.334C212.411 734.111 212.692 734 213.019 734C213.346 734 213.625 734.111 213.857 734.334C214.094 734.556 214.212 734.824 214.212 735.136C214.212 735.449 214.094 735.716 213.857 735.939C213.625 736.161 213.346 736.273 213.019 736.273ZM221.657 738.091V739.511H216.004V738.091H221.657ZM217.652 735.477H219.328V745.875C219.328 746.348 219.396 746.704 219.534 746.94C219.676 747.172 219.856 747.329 220.074 747.409C220.296 747.485 220.53 747.523 220.777 747.523C220.961 747.523 221.113 747.513 221.231 747.494C221.35 747.471 221.444 747.452 221.515 747.438L221.856 748.943C221.743 748.986 221.584 749.028 221.38 749.071C221.177 749.118 220.919 749.142 220.606 749.142C220.133 749.142 219.669 749.04 219.214 748.837C218.764 748.633 218.39 748.323 218.092 747.906C217.798 747.49 217.652 746.964 217.652 746.33V735.477ZM225.258 753.091C224.974 753.091 224.721 753.067 224.498 753.02C224.276 752.977 224.122 752.935 224.037 752.892L224.463 751.415C224.87 751.519 225.23 751.557 225.542 751.528C225.855 751.5 226.132 751.36 226.373 751.109C226.619 750.863 226.844 750.463 227.048 749.909L227.36 749.057L223.326 738.091H225.145L228.156 746.784H228.27L231.281 738.091H233.099L228.468 750.591C228.26 751.154 228.002 751.621 227.694 751.99C227.386 752.364 227.029 752.641 226.622 752.821C226.219 753.001 225.765 753.091 225.258 753.091ZM245.681 738.091V739.511H240.027V738.091H245.681ZM241.675 735.477H243.351V745.875C243.351 746.348 243.42 746.704 243.557 746.94C243.699 747.172 243.879 747.329 244.097 747.409C244.319 747.485 244.554 747.523 244.8 747.523C244.985 747.523 245.136 747.513 245.255 747.494C245.373 747.471 245.468 747.452 245.539 747.438L245.88 748.943C245.766 748.986 245.607 749.028 245.404 749.071C245.2 749.118 244.942 749.142 244.63 749.142C244.156 749.142 243.692 749.04 243.238 748.837C242.788 748.633 242.414 748.323 242.115 747.906C241.822 747.49 241.675 746.964 241.675 746.33V735.477ZM252.517 749.227C251.532 749.227 250.668 748.993 249.924 748.524C249.186 748.055 248.608 747.4 248.191 746.557C247.779 745.714 247.574 744.729 247.574 743.602C247.574 742.466 247.779 741.474 248.191 740.626C248.608 739.779 249.186 739.121 249.924 738.652C250.668 738.183 251.532 737.949 252.517 737.949C253.502 737.949 254.363 738.183 255.102 738.652C255.845 739.121 256.423 739.779 256.835 740.626C257.252 741.474 257.46 742.466 257.46 743.602C257.46 744.729 257.252 745.714 256.835 746.557C256.423 747.4 255.845 748.055 255.102 748.524C254.363 748.993 253.502 749.227 252.517 749.227ZM252.517 747.722C253.265 747.722 253.88 747.53 254.363 747.146C254.846 746.763 255.204 746.259 255.436 745.634C255.668 745.009 255.784 744.331 255.784 743.602C255.784 742.873 255.668 742.194 255.436 741.564C255.204 740.934 254.846 740.425 254.363 740.037C253.88 739.649 253.265 739.455 252.517 739.455C251.769 739.455 251.153 739.649 250.67 740.037C250.187 740.425 249.83 740.934 249.598 741.564C249.366 742.194 249.25 742.873 249.25 743.602C249.25 744.331 249.366 745.009 249.598 745.634C249.83 746.259 250.187 746.763 250.67 747.146C251.153 747.53 251.769 747.722 252.517 747.722ZM265.871 749V734.455H267.547V739.824H267.689C267.812 739.634 267.982 739.393 268.2 739.099C268.423 738.801 268.74 738.536 269.152 738.304C269.569 738.067 270.132 737.949 270.842 737.949C271.761 737.949 272.571 738.179 273.271 738.638C273.972 739.097 274.519 739.748 274.912 740.591C275.305 741.434 275.501 742.428 275.501 743.574C275.501 744.729 275.305 745.731 274.912 746.578C274.519 747.421 273.974 748.074 273.278 748.538C272.582 748.998 271.78 749.227 270.871 749.227C270.17 749.227 269.609 749.111 269.188 748.879C268.766 748.643 268.442 748.375 268.214 748.077C267.987 747.774 267.812 747.523 267.689 747.324H267.49V749H265.871ZM267.518 743.545C267.518 744.369 267.639 745.096 267.881 745.726C268.122 746.351 268.475 746.841 268.939 747.196C269.403 747.546 269.971 747.722 270.643 747.722C271.344 747.722 271.929 747.537 272.398 747.168C272.871 746.794 273.226 746.292 273.463 745.662C273.705 745.027 273.825 744.322 273.825 743.545C273.825 742.778 273.707 742.087 273.47 741.472C273.238 740.851 272.885 740.361 272.412 740.001C271.943 739.637 271.354 739.455 270.643 739.455C269.962 739.455 269.389 739.627 268.925 739.973C268.461 740.314 268.11 740.792 267.874 741.408C267.637 742.018 267.518 742.731 267.518 743.545ZM282.639 749.227C281.588 749.227 280.681 748.995 279.919 748.531C279.161 748.062 278.577 747.409 278.165 746.571C277.758 745.728 277.554 744.748 277.554 743.631C277.554 742.513 277.758 741.528 278.165 740.676C278.577 739.819 279.15 739.152 279.884 738.673C280.622 738.19 281.484 737.949 282.469 737.949C283.037 737.949 283.598 738.044 284.152 738.233C284.706 738.422 285.21 738.73 285.665 739.156C286.119 739.578 286.482 740.136 286.751 740.832C287.021 741.528 287.156 742.385 287.156 743.403V744.114H278.747V742.665H285.452C285.452 742.049 285.329 741.5 285.082 741.017C284.841 740.534 284.495 740.153 284.045 739.874C283.6 739.594 283.075 739.455 282.469 739.455C281.801 739.455 281.223 739.62 280.736 739.952C280.253 740.278 279.881 740.705 279.621 741.23C279.36 741.756 279.23 742.319 279.23 742.92V743.886C279.23 744.71 279.372 745.409 279.656 745.982C279.945 746.55 280.345 746.983 280.857 747.281C281.368 747.575 281.962 747.722 282.639 747.722C283.08 747.722 283.477 747.66 283.832 747.537C284.192 747.409 284.502 747.22 284.763 746.969C285.023 746.713 285.224 746.396 285.366 746.017L286.986 746.472C286.815 747.021 286.529 747.504 286.126 747.92C285.724 748.332 285.227 748.654 284.635 748.886C284.043 749.114 283.378 749.227 282.639 749.227ZM298.541 749.256C297.85 749.256 297.223 749.125 296.659 748.865C296.096 748.6 295.648 748.219 295.317 747.722C294.985 747.22 294.82 746.614 294.82 745.903C294.82 745.278 294.943 744.772 295.189 744.384C295.435 743.991 295.764 743.683 296.176 743.46C296.588 743.238 297.043 743.072 297.54 742.963C298.042 742.849 298.546 742.759 299.053 742.693C299.715 742.608 300.253 742.544 300.665 742.501C301.081 742.454 301.384 742.376 301.574 742.267C301.768 742.158 301.865 741.969 301.865 741.699V741.642C301.865 740.941 301.673 740.397 301.29 740.009C300.911 739.62 300.336 739.426 299.564 739.426C298.764 739.426 298.136 739.601 297.682 739.952C297.227 740.302 296.908 740.676 296.723 741.074L295.132 740.506C295.416 739.843 295.795 739.327 296.268 738.957C296.747 738.583 297.268 738.323 297.831 738.176C298.399 738.025 298.958 737.949 299.507 737.949C299.857 737.949 300.26 737.991 300.714 738.077C301.174 738.157 301.616 738.325 302.043 738.581C302.473 738.837 302.831 739.223 303.115 739.739C303.399 740.255 303.541 740.946 303.541 741.812V749H301.865V747.523H301.78C301.666 747.759 301.477 748.013 301.212 748.283C300.946 748.553 300.594 748.782 300.153 748.972C299.713 749.161 299.176 749.256 298.541 749.256ZM298.797 747.75C299.46 747.75 300.018 747.62 300.473 747.359C300.932 747.099 301.278 746.763 301.51 746.351C301.747 745.939 301.865 745.506 301.865 745.051V743.517C301.794 743.602 301.638 743.68 301.396 743.751C301.16 743.818 300.885 743.877 300.572 743.929C300.265 743.976 299.964 744.019 299.67 744.057C299.382 744.09 299.147 744.118 298.967 744.142C298.532 744.199 298.125 744.291 297.746 744.419C297.372 744.542 297.069 744.729 296.837 744.98C296.609 745.226 296.496 745.562 296.496 745.989C296.496 746.571 296.711 747.011 297.142 747.31C297.578 747.603 298.129 747.75 298.797 747.75ZM313.902 742.438V749H312.225V738.091H313.845V739.795H313.987C314.243 739.241 314.631 738.796 315.152 738.46C315.672 738.119 316.345 737.949 317.169 737.949C317.907 737.949 318.554 738.1 319.108 738.403C319.662 738.702 320.092 739.156 320.4 739.767C320.708 740.373 320.862 741.14 320.862 742.068V749H319.186V742.182C319.186 741.325 318.963 740.657 318.518 740.179C318.073 739.696 317.462 739.455 316.686 739.455C316.151 739.455 315.672 739.571 315.251 739.803C314.834 740.035 314.505 740.373 314.264 740.818C314.022 741.263 313.902 741.803 313.902 742.438ZM327.135 749.256C326.444 749.256 325.816 749.125 325.253 748.865C324.689 748.6 324.242 748.219 323.911 747.722C323.579 747.22 323.413 746.614 323.413 745.903C323.413 745.278 323.536 744.772 323.783 744.384C324.029 743.991 324.358 743.683 324.77 743.46C325.182 743.238 325.636 743.072 326.134 742.963C326.635 742.849 327.14 742.759 327.646 742.693C328.309 742.608 328.847 742.544 329.259 742.501C329.675 742.454 329.978 742.376 330.168 742.267C330.362 742.158 330.459 741.969 330.459 741.699V741.642C330.459 740.941 330.267 740.397 329.884 740.009C329.505 739.62 328.929 739.426 328.158 739.426C327.357 739.426 326.73 739.601 326.276 739.952C325.821 740.302 325.501 740.676 325.317 741.074L323.726 740.506C324.01 739.843 324.389 739.327 324.862 738.957C325.34 738.583 325.861 738.323 326.425 738.176C326.993 738.025 327.552 737.949 328.101 737.949C328.451 737.949 328.854 737.991 329.308 738.077C329.768 738.157 330.21 738.325 330.636 738.581C331.067 738.837 331.425 739.223 331.709 739.739C331.993 740.255 332.135 740.946 332.135 741.812V749H330.459V747.523H330.374C330.26 747.759 330.071 748.013 329.805 748.283C329.54 748.553 329.188 748.782 328.747 748.972C328.307 749.161 327.769 749.256 327.135 749.256ZM327.391 747.75C328.054 747.75 328.612 747.62 329.067 747.359C329.526 747.099 329.872 746.763 330.104 746.351C330.34 745.939 330.459 745.506 330.459 745.051V743.517C330.388 743.602 330.232 743.68 329.99 743.751C329.753 743.818 329.479 743.877 329.166 743.929C328.858 743.976 328.558 744.019 328.264 744.057C327.975 744.09 327.741 744.118 327.561 744.142C327.125 744.199 326.718 744.291 326.339 744.419C325.965 744.542 325.662 744.729 325.43 744.98C325.203 745.226 325.089 745.562 325.089 745.989C325.089 746.571 325.305 747.011 325.736 747.31C326.171 747.603 326.723 747.75 327.391 747.75ZM339.939 738.091V739.511H334.285V738.091H339.939ZM335.933 735.477H337.609V745.875C337.609 746.348 337.678 746.704 337.815 746.94C337.957 747.172 338.137 747.329 338.355 747.409C338.577 747.485 338.812 747.523 339.058 747.523C339.243 747.523 339.394 747.513 339.512 747.494C339.631 747.471 339.725 747.452 339.797 747.438L340.137 748.943C340.024 748.986 339.865 749.028 339.662 749.071C339.458 749.118 339.2 749.142 338.887 749.142C338.414 749.142 337.95 749.04 337.495 748.837C337.046 748.633 336.672 748.323 336.373 747.906C336.08 747.49 335.933 746.964 335.933 746.33V735.477ZM349.335 744.54V738.091H351.011V749H349.335V747.153H349.221C348.966 747.707 348.568 748.179 348.028 748.567C347.488 748.95 346.806 749.142 345.983 749.142C345.301 749.142 344.695 748.993 344.164 748.695C343.634 748.392 343.217 747.937 342.914 747.331C342.611 746.72 342.46 745.951 342.46 745.023V738.091H344.136V744.909C344.136 745.705 344.359 746.339 344.804 746.812C345.253 747.286 345.826 747.523 346.522 747.523C346.939 747.523 347.363 747.416 347.794 747.203C348.229 746.99 348.594 746.663 348.887 746.223C349.186 745.783 349.335 745.222 349.335 744.54ZM354.081 749V738.091H355.7V739.739H355.814C356.013 739.199 356.373 738.761 356.893 738.425C357.414 738.089 358.001 737.92 358.655 737.92C358.778 737.92 358.932 737.923 359.116 737.928C359.301 737.932 359.441 737.939 359.536 737.949V739.653C359.479 739.639 359.348 739.618 359.145 739.589C358.946 739.556 358.735 739.54 358.513 739.54C357.982 739.54 357.509 739.651 357.092 739.874C356.68 740.091 356.354 740.394 356.112 740.783C355.875 741.166 355.757 741.604 355.757 742.097V749H354.081ZM364.733 749.256C364.041 749.256 363.414 749.125 362.85 748.865C362.287 748.6 361.84 748.219 361.508 747.722C361.177 747.22 361.011 746.614 361.011 745.903C361.011 745.278 361.134 744.772 361.38 744.384C361.627 743.991 361.956 743.683 362.368 743.46C362.779 743.238 363.234 743.072 363.731 742.963C364.233 742.849 364.737 742.759 365.244 742.693C365.907 742.608 366.444 742.544 366.856 742.501C367.273 742.454 367.576 742.376 367.765 742.267C367.959 742.158 368.056 741.969 368.056 741.699V741.642C368.056 740.941 367.865 740.397 367.481 740.009C367.102 739.62 366.527 739.426 365.755 739.426C364.955 739.426 364.328 739.601 363.873 739.952C363.419 740.302 363.099 740.676 362.914 741.074L361.324 740.506C361.608 739.843 361.986 739.327 362.46 738.957C362.938 738.583 363.459 738.323 364.022 738.176C364.591 738.025 365.149 737.949 365.699 737.949C366.049 737.949 366.451 737.991 366.906 738.077C367.365 738.157 367.808 738.325 368.234 738.581C368.665 738.837 369.022 739.223 369.306 739.739C369.591 740.255 369.733 740.946 369.733 741.812V749H368.056V747.523H367.971C367.858 747.759 367.668 748.013 367.403 748.283C367.138 748.553 366.785 748.782 366.345 748.972C365.904 749.161 365.367 749.256 364.733 749.256ZM364.988 747.75C365.651 747.75 366.21 747.62 366.664 747.359C367.124 747.099 367.469 746.763 367.701 746.351C367.938 745.939 368.056 745.506 368.056 745.051V743.517C367.985 743.602 367.829 743.68 367.588 743.751C367.351 743.818 367.076 743.877 366.764 743.929C366.456 743.976 366.155 744.019 365.862 744.057C365.573 744.09 365.339 744.118 365.159 744.142C364.723 744.199 364.316 744.291 363.937 744.419C363.563 744.542 363.26 744.729 363.028 744.98C362.801 745.226 362.687 745.562 362.687 745.989C362.687 746.571 362.903 747.011 363.333 747.31C363.769 747.603 364.321 747.75 364.988 747.75ZM374.468 734.455V749H372.792V734.455H374.468ZM383.39 749V734.455H385.066V739.824H385.208C385.332 739.634 385.502 739.393 385.72 739.099C385.942 738.801 386.26 738.536 386.672 738.304C387.088 738.067 387.652 737.949 388.362 737.949C389.28 737.949 390.09 738.179 390.791 738.638C391.492 739.097 392.038 739.748 392.431 740.591C392.824 741.434 393.021 742.428 393.021 743.574C393.021 744.729 392.824 745.731 392.431 746.578C392.038 747.421 391.494 748.074 390.798 748.538C390.102 748.998 389.299 749.227 388.39 749.227C387.69 749.227 387.128 749.111 386.707 748.879C386.286 748.643 385.961 748.375 385.734 748.077C385.507 747.774 385.332 747.523 385.208 747.324H385.01V749H383.39ZM385.038 743.545C385.038 744.369 385.159 745.096 385.4 745.726C385.642 746.351 385.994 746.841 386.458 747.196C386.922 747.546 387.491 747.722 388.163 747.722C388.864 747.722 389.449 747.537 389.917 747.168C390.391 746.794 390.746 746.292 390.983 745.662C391.224 745.027 391.345 744.322 391.345 743.545C391.345 742.778 391.226 742.087 390.99 741.472C390.758 740.851 390.405 740.361 389.931 740.001C389.463 739.637 388.873 739.455 388.163 739.455C387.481 739.455 386.908 739.627 386.444 739.973C385.98 740.314 385.63 740.792 385.393 741.408C385.156 742.018 385.038 742.731 385.038 743.545ZM400.017 749.227C399.032 749.227 398.168 748.993 397.424 748.524C396.686 748.055 396.108 747.4 395.691 746.557C395.279 745.714 395.074 744.729 395.074 743.602C395.074 742.466 395.279 741.474 395.691 740.626C396.108 739.779 396.686 739.121 397.424 738.652C398.168 738.183 399.032 737.949 400.017 737.949C401.002 737.949 401.863 738.183 402.602 738.652C403.345 739.121 403.923 739.779 404.335 740.626C404.752 741.474 404.96 742.466 404.96 743.602C404.96 744.729 404.752 745.714 404.335 746.557C403.923 747.4 403.345 748.055 402.602 748.524C401.863 748.993 401.002 749.227 400.017 749.227ZM400.017 747.722C400.765 747.722 401.38 747.53 401.863 747.146C402.346 746.763 402.704 746.259 402.936 745.634C403.168 745.009 403.284 744.331 403.284 743.602C403.284 742.873 403.168 742.194 402.936 741.564C402.704 740.934 402.346 740.425 401.863 740.037C401.38 739.649 400.765 739.455 400.017 739.455C399.269 739.455 398.653 739.649 398.17 740.037C397.687 740.425 397.33 740.934 397.098 741.564C396.866 742.194 396.75 742.873 396.75 743.602C396.75 744.331 396.866 745.009 397.098 745.634C397.33 746.259 397.687 746.763 398.17 747.146C398.653 747.53 399.269 747.722 400.017 747.722ZM407.518 749V738.091H409.138V739.739H409.251C409.45 739.199 409.81 738.761 410.331 738.425C410.852 738.089 411.439 737.92 412.092 737.92C412.215 737.92 412.369 737.923 412.554 737.928C412.739 737.932 412.878 737.939 412.973 737.949V739.653C412.916 739.639 412.786 739.618 412.582 739.589C412.384 739.556 412.173 739.54 411.95 739.54C411.42 739.54 410.946 739.651 410.53 739.874C410.118 740.091 409.791 740.394 409.55 740.783C409.313 741.166 409.195 741.604 409.195 742.097V749H407.518ZM416.636 742.438V749H414.96V738.091H416.579V739.795H416.721C416.977 739.241 417.365 738.796 417.886 738.46C418.407 738.119 419.079 737.949 419.903 737.949C420.642 737.949 421.288 738.1 421.842 738.403C422.396 738.702 422.827 739.156 423.135 739.767C423.442 740.373 423.596 741.14 423.596 742.068V749H421.92V742.182C421.92 741.325 421.698 740.657 421.252 740.179C420.807 739.696 420.197 739.455 419.42 739.455C418.885 739.455 418.407 739.571 417.985 739.803C417.569 740.035 417.24 740.373 416.998 740.818C416.757 741.263 416.636 741.803 416.636 742.438ZM433.96 734.455V749H432.284V734.455H433.96ZM441.604 749.227C440.553 749.227 439.646 748.995 438.884 748.531C438.126 748.062 437.542 747.409 437.13 746.571C436.722 745.728 436.519 744.748 436.519 743.631C436.519 742.513 436.722 741.528 437.13 740.676C437.542 739.819 438.114 739.152 438.848 738.673C439.587 738.19 440.449 737.949 441.434 737.949C442.002 737.949 442.563 738.044 443.117 738.233C443.671 738.422 444.175 738.73 444.63 739.156C445.084 739.578 445.446 740.136 445.716 740.832C445.986 741.528 446.121 742.385 446.121 743.403V744.114H437.712V742.665H444.417C444.417 742.049 444.293 741.5 444.047 741.017C443.806 740.534 443.46 740.153 443.01 739.874C442.565 739.594 442.04 739.455 441.434 739.455C440.766 739.455 440.188 739.62 439.701 739.952C439.218 740.278 438.846 740.705 438.586 741.23C438.325 741.756 438.195 742.319 438.195 742.92V743.886C438.195 744.71 438.337 745.409 438.621 745.982C438.91 746.55 439.31 746.983 439.821 747.281C440.333 747.575 440.927 747.722 441.604 747.722C442.044 747.722 442.442 747.66 442.797 747.537C443.157 747.409 443.467 747.22 443.728 746.969C443.988 746.713 444.189 746.396 444.331 746.017L445.951 746.472C445.78 747.021 445.494 747.504 445.091 747.92C444.689 748.332 444.192 748.654 443.6 748.886C443.008 749.114 442.343 749.227 441.604 749.227ZM451.881 749.256C451.19 749.256 450.562 749.125 449.999 748.865C449.435 748.6 448.988 748.219 448.657 747.722C448.325 747.22 448.159 746.614 448.159 745.903C448.159 745.278 448.283 744.772 448.529 744.384C448.775 743.991 449.104 743.683 449.516 743.46C449.928 743.238 450.382 743.072 450.88 742.963C451.382 742.849 451.886 742.759 452.392 742.693C453.055 742.608 453.593 742.544 454.005 742.501C454.421 742.454 454.724 742.376 454.914 742.267C455.108 742.158 455.205 741.969 455.205 741.699V741.642C455.205 740.941 455.013 740.397 454.63 740.009C454.251 739.62 453.676 739.426 452.904 739.426C452.104 739.426 451.476 739.601 451.022 739.952C450.567 740.302 450.248 740.676 450.063 741.074L448.472 740.506C448.756 739.843 449.135 739.327 449.608 738.957C450.087 738.583 450.607 738.323 451.171 738.176C451.739 738.025 452.298 737.949 452.847 737.949C453.197 737.949 453.6 737.991 454.054 738.077C454.514 738.157 454.956 738.325 455.382 738.581C455.813 738.837 456.171 739.223 456.455 739.739C456.739 740.255 456.881 740.946 456.881 741.812V749H455.205V747.523H455.12C455.006 747.759 454.817 748.013 454.551 748.283C454.286 748.553 453.934 748.782 453.493 748.972C453.053 749.161 452.516 749.256 451.881 749.256ZM452.137 747.75C452.8 747.75 453.358 747.62 453.813 747.359C454.272 747.099 454.618 746.763 454.85 746.351C455.087 745.939 455.205 745.506 455.205 745.051V743.517C455.134 743.602 454.978 743.68 454.736 743.751C454.499 743.818 454.225 743.877 453.912 743.929C453.605 743.976 453.304 744.019 453.01 744.057C452.721 744.09 452.487 744.118 452.307 744.142C451.872 744.199 451.464 744.291 451.086 744.419C450.712 744.542 450.408 744.729 450.176 744.98C449.949 745.226 449.836 745.562 449.836 745.989C449.836 746.571 450.051 747.011 450.482 747.31C450.917 747.603 451.469 747.75 452.137 747.75ZM464.06 749.227C463.151 749.227 462.348 748.998 461.652 748.538C460.956 748.074 460.411 747.421 460.018 746.578C459.625 745.731 459.429 744.729 459.429 743.574C459.429 742.428 459.625 741.434 460.018 740.591C460.411 739.748 460.958 739.097 461.659 738.638C462.36 738.179 463.17 737.949 464.088 737.949C464.798 737.949 465.359 738.067 465.771 738.304C466.188 738.536 466.505 738.801 466.723 739.099C466.946 739.393 467.118 739.634 467.241 739.824H467.384V734.455H469.06V749H467.44V747.324H467.241C467.118 747.523 466.943 747.774 466.716 748.077C466.489 748.375 466.164 748.643 465.743 748.879C465.321 749.111 464.76 749.227 464.06 749.227ZM464.287 747.722C464.959 747.722 465.527 747.546 465.991 747.196C466.455 746.841 466.808 746.351 467.05 745.726C467.291 745.096 467.412 744.369 467.412 743.545C467.412 742.731 467.294 742.018 467.057 741.408C466.82 740.792 466.47 740.314 466.006 739.973C465.542 739.627 464.969 739.455 464.287 739.455C463.577 739.455 462.985 739.637 462.511 740.001C462.043 740.361 461.69 740.851 461.453 741.472C461.221 742.087 461.105 742.778 461.105 743.545C461.105 744.322 461.223 745.027 461.46 745.662C461.702 746.292 462.057 746.794 462.526 747.168C462.999 747.537 463.586 747.722 464.287 747.722ZM476.936 749.227C475.885 749.227 474.978 748.995 474.216 748.531C473.458 748.062 472.874 747.409 472.462 746.571C472.054 745.728 471.851 744.748 471.851 743.631C471.851 742.513 472.054 741.528 472.462 740.676C472.874 739.819 473.446 739.152 474.18 738.673C474.919 738.19 475.781 737.949 476.766 737.949C477.334 737.949 477.895 738.044 478.449 738.233C479.003 738.422 479.507 738.73 479.962 739.156C480.416 739.578 480.778 740.136 481.048 740.832C481.318 741.528 481.453 742.385 481.453 743.403V744.114H473.044V742.665H479.749C479.749 742.049 479.625 741.5 479.379 741.017C479.138 740.534 478.792 740.153 478.342 739.874C477.897 739.594 477.372 739.455 476.766 739.455C476.098 739.455 475.52 739.62 475.033 739.952C474.55 740.278 474.178 740.705 473.918 741.23C473.657 741.756 473.527 742.319 473.527 742.92V743.886C473.527 744.71 473.669 745.409 473.953 745.982C474.242 746.55 474.642 746.983 475.153 747.281C475.665 747.575 476.259 747.722 476.936 747.722C477.376 747.722 477.774 747.66 478.129 747.537C478.489 747.409 478.799 747.22 479.06 746.969C479.32 746.713 479.521 746.396 479.663 746.017L481.283 746.472C481.112 747.021 480.826 747.504 480.423 747.92C480.021 748.332 479.524 748.654 478.932 748.886C478.34 749.114 477.675 749.227 476.936 749.227ZM484.003 749V738.091H485.622V739.739H485.736C485.935 739.199 486.295 738.761 486.815 738.425C487.336 738.089 487.923 737.92 488.577 737.92C488.7 737.92 488.854 737.923 489.038 737.928C489.223 737.932 489.363 737.939 489.457 737.949V739.653C489.401 739.639 489.27 739.618 489.067 739.589C488.868 739.556 488.657 739.54 488.435 739.54C487.904 739.54 487.431 739.651 487.014 739.874C486.602 740.091 486.276 740.394 486.034 740.783C485.797 741.166 485.679 741.604 485.679 742.097V749H484.003ZM491.416 749.114C491.065 749.114 490.765 748.988 490.514 748.737C490.263 748.486 490.137 748.186 490.137 747.835C490.137 747.485 490.263 747.184 490.514 746.933C490.765 746.682 491.065 746.557 491.416 746.557C491.766 746.557 492.067 746.682 492.318 746.933C492.569 747.184 492.694 747.485 492.694 747.835C492.694 748.067 492.635 748.28 492.517 748.474C492.403 748.669 492.249 748.825 492.055 748.943C491.866 749.057 491.653 749.114 491.416 749.114Z" fill="black"/>
<path d="M429.857 455.562C518.304 430.292 613.684 435.049 704.333 426.214C746.476 422.107 789.731 410.443 832.172 410.443" stroke="black" stroke-opacity="0.5" stroke-width="3" stroke-linecap="round"/>
<path d="M411.059 466.842C427.693 486.803 437.327 512.308 454.716 532.224C479.17 560.231 518.661 572.29 555.399 566.168C578.209 562.366 586.424 547.273 602.398 533.477C614.674 522.875 617.306 531.492 630.598 541.415C667.393 568.881 709.102 582.758 755.198 578.387C805.467 573.62 865.755 556.415 903.82 521.779C922.777 504.531 940.171 474.877 938.078 448.356C937.498 441.01 931.736 427.965 924.291 425.483" stroke="black" stroke-opacity="0.5" stroke-width="3" stroke-linecap="round"/>
<path d="M349.02 493.162C387.362 484.033 425.981 476.032 465.16 471.438C517.791 465.266 570.665 467.368 623.496 468.722" stroke="black" stroke-opacity="0.5" stroke-width="3" stroke-linecap="round"/>
<path d="M350.898 532.641C370.571 531.939 389.452 525.972 409.178 524.912C434.191 523.568 459.339 525.121 484.376 525.121" stroke="black" stroke-opacity="0.5" stroke-width="3" stroke-linecap="round"/>
<path d="M621.615 669.879C672.441 663.526 722.695 664.239 773.893 664.239" stroke="black" stroke-opacity="0.5" stroke-width="3" stroke-linecap="round"/>
<path d="M74.3135 558.552C66.0264 557.724 57.647 553.823 55.2727 545.513C53.7101 540.045 54.419 539.99 57.7563 544.996C62.7126 552.431 67.4988 559.628 70.5881 567.866" stroke="black" stroke-opacity="0.5" stroke-width="3" stroke-linecap="round"/>
<path d="M515.771 644.236C515.771 638.212 517.289 632.37 521.773 627.886C530.647 619.012 522.479 639.762 521.36 642.374" stroke="black" stroke-opacity="0.5" stroke-width="3" stroke-linecap="round"/>
<path d="M228.917 599.532C221.851 589.816 237.462 578.921 240.093 592.081" stroke="black" stroke-opacity="0.5" stroke-width="3" stroke-linecap="round"/>
<path d="M564.744 773.256C564.053 773.256 563.426 773.125 562.862 772.865C562.299 772.6 561.851 772.219 561.52 771.722C561.188 771.22 561.023 770.614 561.023 769.903C561.023 769.278 561.146 768.772 561.392 768.384C561.638 767.991 561.967 767.683 562.379 767.46C562.791 767.238 563.246 767.072 563.743 766.963C564.245 766.849 564.749 766.759 565.256 766.693C565.919 766.608 566.456 766.544 566.868 766.501C567.285 766.454 567.588 766.376 567.777 766.267C567.971 766.158 568.068 765.969 568.068 765.699V765.642C568.068 764.941 567.876 764.397 567.493 764.009C567.114 763.62 566.539 763.426 565.767 763.426C564.967 763.426 564.339 763.601 563.885 763.952C563.43 764.302 563.111 764.676 562.926 765.074L561.335 764.506C561.619 763.843 561.998 763.327 562.472 762.957C562.95 762.583 563.471 762.323 564.034 762.176C564.602 762.025 565.161 761.949 565.71 761.949C566.061 761.949 566.463 761.991 566.918 762.077C567.377 762.157 567.82 762.325 568.246 762.581C568.677 762.837 569.034 763.223 569.318 763.739C569.602 764.255 569.744 764.946 569.744 765.812V773H568.068V771.523H567.983C567.869 771.759 567.68 772.013 567.415 772.283C567.15 772.553 566.797 772.782 566.357 772.972C565.916 773.161 565.379 773.256 564.744 773.256ZM565 771.75C565.663 771.75 566.222 771.62 566.676 771.359C567.135 771.099 567.481 770.763 567.713 770.351C567.95 769.939 568.068 769.506 568.068 769.051V767.517C567.997 767.602 567.841 767.68 567.599 767.751C567.363 767.818 567.088 767.877 566.776 767.929C566.468 767.976 566.167 768.019 565.874 768.057C565.585 768.09 565.35 768.118 565.17 768.142C564.735 768.199 564.328 768.291 563.949 768.419C563.575 768.542 563.272 768.729 563.04 768.98C562.813 769.226 562.699 769.562 562.699 769.989C562.699 770.571 562.914 771.011 563.345 771.31C563.781 771.603 564.332 771.75 565 771.75ZM574.48 766.438V773H572.804V758.455H574.48V763.795H574.622C574.877 763.232 575.261 762.785 575.772 762.453C576.288 762.117 576.975 761.949 577.832 761.949C578.575 761.949 579.226 762.098 579.785 762.396C580.344 762.69 580.777 763.142 581.085 763.753C581.397 764.359 581.554 765.131 581.554 766.068V773H579.877V766.182C579.877 765.315 579.653 764.645 579.203 764.172C578.758 763.694 578.14 763.455 577.349 763.455C576.8 763.455 576.307 763.571 575.872 763.803C575.441 764.035 575.1 764.373 574.849 764.818C574.603 765.263 574.48 765.803 574.48 766.438ZM594.989 762.091V763.511H589.336V762.091H594.989ZM590.984 759.477H592.66V769.875C592.66 770.348 592.728 770.704 592.866 770.94C593.008 771.172 593.188 771.329 593.406 771.409C593.628 771.485 593.862 771.523 594.109 771.523C594.293 771.523 594.445 771.513 594.563 771.494C594.682 771.471 594.776 771.452 594.847 771.438L595.188 772.943C595.075 772.986 594.916 773.028 594.712 773.071C594.509 773.118 594.251 773.142 593.938 773.142C593.465 773.142 593.001 773.04 592.546 772.837C592.096 772.633 591.722 772.323 591.424 771.906C591.13 771.49 590.984 770.964 590.984 770.33V759.477ZM599.421 766.438V773H597.745V758.455H599.421V763.795H599.563C599.819 763.232 600.202 762.785 600.714 762.453C601.23 762.117 601.916 761.949 602.773 761.949C603.517 761.949 604.168 762.098 604.727 762.396C605.285 762.69 605.719 763.142 606.026 763.753C606.339 764.359 606.495 765.131 606.495 766.068V773H604.819V766.182C604.819 765.315 604.594 764.645 604.144 764.172C603.699 763.694 603.081 763.455 602.29 763.455C601.741 763.455 601.249 763.571 600.813 763.803C600.382 764.035 600.041 764.373 599.79 764.818C599.544 765.263 599.421 765.803 599.421 766.438ZM612.772 773.256C612.08 773.256 611.453 773.125 610.89 772.865C610.326 772.6 609.879 772.219 609.547 771.722C609.216 771.22 609.05 770.614 609.05 769.903C609.05 769.278 609.173 768.772 609.419 768.384C609.666 767.991 609.995 767.683 610.407 767.46C610.819 767.238 611.273 767.072 611.77 766.963C612.272 766.849 612.776 766.759 613.283 766.693C613.946 766.608 614.483 766.544 614.895 766.501C615.312 766.454 615.615 766.376 615.804 766.267C615.998 766.158 616.096 765.969 616.096 765.699V765.642C616.096 764.941 615.904 764.397 615.52 764.009C615.141 763.62 614.566 763.426 613.794 763.426C612.994 763.426 612.367 763.601 611.912 763.952C611.458 764.302 611.138 764.676 610.953 765.074L609.363 764.506C609.647 763.843 610.025 763.327 610.499 762.957C610.977 762.583 611.498 762.323 612.061 762.176C612.63 762.025 613.188 761.949 613.738 761.949C614.088 761.949 614.49 761.991 614.945 762.077C615.404 762.157 615.847 762.325 616.273 762.581C616.704 762.837 617.061 763.223 617.346 763.739C617.63 764.255 617.772 764.946 617.772 765.812V773H616.096V771.523H616.01C615.897 771.759 615.707 772.013 615.442 772.283C615.177 772.553 614.824 772.782 614.384 772.972C613.944 773.161 613.406 773.256 612.772 773.256ZM613.027 771.75C613.69 771.75 614.249 771.62 614.703 771.359C615.163 771.099 615.508 770.763 615.74 770.351C615.977 769.939 616.096 769.506 616.096 769.051V767.517C616.025 767.602 615.868 767.68 615.627 767.751C615.39 767.818 615.115 767.877 614.803 767.929C614.495 767.976 614.194 768.019 613.901 768.057C613.612 768.09 613.378 768.118 613.198 768.142C612.762 768.199 612.355 768.291 611.976 768.419C611.602 768.542 611.299 768.729 611.067 768.98C610.84 769.226 610.726 769.562 610.726 769.989C610.726 770.571 610.942 771.011 611.373 771.31C611.808 771.603 612.36 771.75 613.027 771.75ZM625.575 762.091V763.511H619.922V762.091H625.575ZM621.57 759.477H623.246V769.875C623.246 770.348 623.314 770.704 623.452 770.94C623.594 771.172 623.774 771.329 623.991 771.409C624.214 771.485 624.448 771.523 624.695 771.523C624.879 771.523 625.031 771.513 625.149 771.494C625.268 771.471 625.362 771.452 625.433 771.438L625.774 772.943C625.661 772.986 625.502 773.028 625.298 773.071C625.095 773.118 624.837 773.142 624.524 773.142C624.051 773.142 623.587 773.04 623.132 772.837C622.682 772.633 622.308 772.323 622.01 771.906C621.716 771.49 621.57 770.964 621.57 770.33V759.477ZM633.949 773V758.455H635.625V763.824H635.767C635.89 763.634 636.061 763.393 636.278 763.099C636.501 762.801 636.818 762.536 637.23 762.304C637.647 762.067 638.21 761.949 638.92 761.949C639.839 761.949 640.649 762.179 641.349 762.638C642.05 763.097 642.597 763.748 642.99 764.591C643.383 765.434 643.58 766.428 643.58 767.574C643.58 768.729 643.383 769.731 642.99 770.578C642.597 771.421 642.053 772.074 641.357 772.538C640.661 772.998 639.858 773.227 638.949 773.227C638.248 773.227 637.687 773.111 637.266 772.879C636.844 772.643 636.52 772.375 636.293 772.077C636.065 771.774 635.89 771.523 635.767 771.324H635.568V773H633.949ZM635.597 767.545C635.597 768.369 635.717 769.096 635.959 769.726C636.2 770.351 636.553 770.841 637.017 771.196C637.481 771.546 638.049 771.722 638.722 771.722C639.422 771.722 640.007 771.537 640.476 771.168C640.949 770.794 641.304 770.292 641.541 769.662C641.783 769.027 641.903 768.322 641.903 767.545C641.903 766.778 641.785 766.087 641.548 765.472C641.316 764.851 640.964 764.361 640.49 764.001C640.021 763.637 639.432 763.455 638.722 763.455C638.04 763.455 637.467 763.627 637.003 763.973C636.539 764.314 636.188 764.792 635.952 765.408C635.715 766.018 635.597 766.731 635.597 767.545ZM653.018 768.54V762.091H654.695V773H653.018V771.153H652.905C652.649 771.707 652.251 772.179 651.712 772.567C651.172 772.95 650.49 773.142 649.666 773.142C648.984 773.142 648.378 772.993 647.848 772.695C647.318 772.392 646.901 771.937 646.598 771.331C646.295 770.72 646.143 769.951 646.143 769.023V762.091H647.82V768.909C647.82 769.705 648.042 770.339 648.487 770.812C648.937 771.286 649.51 771.523 650.206 771.523C650.623 771.523 651.046 771.416 651.477 771.203C651.913 770.99 652.277 770.663 652.571 770.223C652.869 769.783 653.018 769.222 653.018 768.54ZM657.765 773V762.091H659.384V763.739H659.498C659.696 763.199 660.056 762.761 660.577 762.425C661.098 762.089 661.685 761.92 662.338 761.92C662.462 761.92 662.615 761.923 662.8 761.928C662.985 761.932 663.124 761.939 663.219 761.949V763.653C663.162 763.639 663.032 763.618 662.828 763.589C662.63 763.556 662.419 763.54 662.196 763.54C661.666 763.54 661.193 763.651 660.776 763.874C660.364 764.091 660.037 764.394 659.796 764.783C659.559 765.166 659.441 765.604 659.441 766.097V773H657.765ZM666.882 766.438V773H665.206V762.091H666.825V763.795H666.967C667.223 763.241 667.611 762.796 668.132 762.46C668.653 762.119 669.325 761.949 670.149 761.949C670.888 761.949 671.534 762.1 672.088 762.403C672.642 762.702 673.073 763.156 673.381 763.767C673.688 764.373 673.842 765.14 673.842 766.068V773H672.166V766.182C672.166 765.325 671.944 764.657 671.499 764.179C671.054 763.696 670.443 763.455 669.666 763.455C669.131 763.455 668.653 763.571 668.232 763.803C667.815 764.035 667.486 764.373 667.244 764.818C667.003 765.263 666.882 765.803 666.882 766.438ZM684.632 764.534L683.127 764.96C683.032 764.709 682.892 764.465 682.708 764.229C682.528 763.987 682.282 763.788 681.969 763.632C681.657 763.476 681.257 763.398 680.769 763.398C680.101 763.398 679.545 763.552 679.1 763.859C678.659 764.162 678.439 764.548 678.439 765.017C678.439 765.434 678.591 765.763 678.894 766.004C679.197 766.246 679.67 766.447 680.314 766.608L681.934 767.006C682.909 767.242 683.636 767.605 684.114 768.092C684.592 768.575 684.831 769.198 684.831 769.96C684.831 770.585 684.651 771.144 684.292 771.636C683.936 772.129 683.439 772.517 682.8 772.801C682.161 773.085 681.417 773.227 680.57 773.227C679.457 773.227 678.536 772.986 677.807 772.503C677.078 772.02 676.616 771.314 676.422 770.386L678.013 769.989C678.165 770.576 678.451 771.016 678.873 771.31C679.299 771.603 679.855 771.75 680.542 771.75C681.323 771.75 681.943 771.584 682.402 771.253C682.866 770.917 683.098 770.514 683.098 770.045C683.098 769.667 682.966 769.349 682.701 769.094C682.435 768.833 682.028 768.639 681.479 768.511L679.661 768.085C678.662 767.848 677.928 767.482 677.459 766.984C676.995 766.482 676.763 765.855 676.763 765.102C676.763 764.487 676.936 763.942 677.282 763.469C677.632 762.995 678.108 762.624 678.709 762.354C679.315 762.084 680.002 761.949 680.769 761.949C681.848 761.949 682.696 762.186 683.311 762.659C683.932 763.133 684.372 763.758 684.632 764.534Z" fill="black"/>
<path d="M950.61 265.685C947.946 252.361 910.482 243.593 902.149 241.036C812.14 213.426 705.673 210.145 617.542 245.736C547.501 274.022 481.643 329.614 440.093 392.896C408.714 440.689 395.761 514.78 422.129 567.734C449.195 622.089 488.82 659.575 541.612 688.679C576.589 707.961 614.139 719.799 652.844 728.994C692.644 738.449 732.313 745.118 773.371 743.511C811.608 742.015 852.965 739.123 889.407 726.487C922.488 715.016 954.697 693.242 979.854 669.044C1011.32 638.779 1027.6 595.236 1032.7 552.485C1037.62 511.254 1026.8 472.331 1016.41 433.003" stroke="black" stroke-opacity="0.5" stroke-width="3" stroke-linecap="round"/>
<path d="M1048.37 724.398C1025.52 724.398 1002.25 733.635 980.482 739.543C926.566 754.177 872.294 767.227 818.073 780.693C743.768 799.148 670.699 801.477 594.461 801.477C559.136 801.477 521.466 798.141 487.616 810.355C466.57 817.949 446.255 831.225 427.143 842.628C398.992 859.425 372.461 878.84 345.365 897.251C289.653 935.107 235.107 974.797 179.822 1013.29C140.359 1040.76 104.449 1071.89 72.6641 1107.91" stroke="black" stroke-opacity="0.5" stroke-width="3" stroke-linecap="round"/>
<path d="M295.973 804.428C251.622 804.428 207.293 804.939 163.101 800.495C123.202 796.483 85.3164 787.369 46.7864 776.901C15.0857 768.289 -58.9798 739.639 -37.6556 692.252C-27.2164 669.054 -2.45742 649.193 20.8122 639.993C39.3152 632.678 62.2263 630.747 78.0383 617.331C84.1607 612.136 85.5947 596.879 81.6602 590.322C79.1045 586.062 71.7512 579.422 77.2104 588.355C84.6831 600.583 94.0177 611.087 92.5259 626.644C92.0578 631.526 81.1006 642.28 84.9716 639.269C95.4124 631.148 106.861 624.501 115.292 614.019C118.817 609.636 117.848 601.404 120.156 608.328C124.919 622.616 134.12 640.852 146.958 649.41C149.378 651.024 159.452 658.433 162.687 654.274C167.029 648.692 160.813 638.043 158.548 633.06C152.8 620.414 157.347 604.865 165.999 594.771C169.414 590.787 180.075 577.204 177.485 589.287C172.827 611.026 163.16 636.715 178.21 656.447C182.117 661.57 187.332 666.057 193.318 668.451C195.46 669.308 195.264 657.006 194.56 653.136C193.778 648.836 168.558 564.968 173.45 564.968C174.134 564.968 188.474 595.36 190.11 597.772C199.567 611.708 211.422 627.382 224.26 638.545C233.919 646.944 243.611 656.701 243.611 636.475C243.611 632.24 236.098 610.798 240.507 618.986C246.542 630.195 255.249 642.167 265.032 650.445C275.056 658.927 275.612 641.321 276.415 634.095C276.551 632.875 275.887 617.271 280.658 620.849C291.003 628.608 295.669 645.22 305.287 654.584C307.856 657.086 318.856 665.765 322.775 663.588C327.637 660.886 326.573 649.618 325.776 645.685C324.05 637.16 312.144 608.845 327.639 608.845C345.853 608.845 333.003 636.085 333.227 647.962C333.264 649.903 333.651 658.949 337.884 657.068C346.047 653.44 346.804 630.179 348.129 623.747C350.556 611.959 355.214 577.235 357.856 588.976C362.018 607.472 358.942 625.158 367.48 642.891C369.178 646.418 373.418 651.687 377.932 651.687C384.955 651.687 383.44 638.534 383.623 634.509C384.005 626.114 385.176 617.779 385.176 609.362C385.176 603.996 382.792 597.361 383.934 592.081C384.284 590.462 388.625 580.836 391.799 584.009C393.497 585.708 393.476 590.504 393.972 592.598C396.229 602.128 398.76 612.018 402.561 621.056C406.766 631.055 415.092 645.967 426.362 649.41C432.192 651.192 438.084 652.777 443.954 654.481C447.088 655.391 449.708 656.451 452.44 658.206C453.937 659.169 456.165 663.816 456.165 662.035C456.165 654.39 451.338 642.58 448.818 635.44C445.033 624.717 448.114 629.987 452.853 636.578C464.027 652.117 479.243 673.517 497.144 682.939C500.237 684.567 500.891 687.569 503.664 684.181C507.279 679.762 508.891 671.629 513.908 668.762C516.98 667.007 521.829 694.905 522.808 698.668C525.979 710.864 531.545 726.334 530.569 739.027C529.107 758.036 494.314 759.516 481.311 762.517C445.698 770.736 410.608 779.828 374.413 785.697C345.754 790.345 316.631 782.042 288.523 787.664" stroke="black" stroke-opacity="0.5" stroke-width="3" stroke-linecap="round"/>
<path d="M261.802 195.731C251.509 196.875 236.06 207.706 229.306 193.446C222.477 179.03 231.76 163.404 244.792 156.888C258.08 150.244 270.114 154.045 270.942 170.597C271.635 184.463 253.634 191.276 243.523 198.016" stroke="black" stroke-opacity="0.5" stroke-width="3" stroke-linecap="round"/>
<path d="M249.131 167.499C249.131 158.425 249.131 149.35 249.131 140.275C249.131 131.457 237.789 137.655 231.874 137.655C230.393 137.655 234.339 131.275 234.779 130.592C238.863 124.251 243.375 118.314 247.65 112.139C250.713 107.715 250.293 111.023 253.517 114.246C259.131 119.86 266.193 124.019 272.654 128.542C279.048 133.018 273.305 132.461 268.041 133.725C263.707 134.765 260.281 135.718 255.738 135.718C251.968 135.718 252.233 136.793 251.182 140.275C249.879 144.591 251.161 156.444 247.594 159.298C245.867 160.679 251.082 163.299 252.207 164.424" stroke="black" stroke-opacity="0.5" stroke-width="3" stroke-linecap="round"/>
<path d="M248.567 167.293C248.957 165.734 253.633 164.97 254.98 164.888C258.491 164.676 257.037 161.615 256.405 159.277C255.075 154.355 253.506 152.152 259.166 154.467C262.396 155.789 265.569 157.411 268.607 159.099C269.951 159.845 265.333 165.836 264.599 167.115C263.832 168.453 258.186 177.802 258.186 174.33C258.186 172.262 258.056 165.751 256.405 164.265C255.275 163.248 247.421 165.862 246.162 166.492" stroke="black" stroke-opacity="0.5" stroke-width="3" stroke-linecap="round"/>
</g>
<defs>
<clipPath id="clip0_27_93">
<rect width="1024" height="1024" fill="white"/>
</clipPath>
</defs>
</svg>
