<svg width="1024" height="1024" viewBox="0 0 1024 1024" fill="none" xmlns="http://www.w3.org/2000/svg">
<path d="M314.666 448.952C309.55 448.952 275.822 449.224 275.016 452.045C271.927 462.854 264.909 475.141 266.953 486.725C267.251 488.414 309.014 491.27 310.69 487.498C315.685 476.26 311.621 461.938 320.631 452.928" stroke="black" stroke-opacity="0.5" stroke-width="3" stroke-linecap="round"/>
<path d="M379.915 449C374.225 457.85 371.028 474.249 369.974 484.785C369.302 491.508 367.986 483.726 367.986 480.809" stroke="black" stroke-opacity="0.5" stroke-width="3" stroke-linecap="round"/>
<path d="M373.952 454.964C379.469 452.368 391.123 453.196 389.746 462.143C387.662 475.688 375.728 481.465 366 488.761" stroke="black" stroke-opacity="0.5" stroke-width="3" stroke-linecap="round"/>
<path d="M399.796 452.976C399.796 460.086 396.756 481.335 389.855 484.785" stroke="black" stroke-opacity="0.5" stroke-width="3" stroke-linecap="round"/>
<path d="M399.796 454.964C402.621 452.139 418.448 447.475 414.817 454.964C410.618 463.625 401.554 466.374 393.169 468.77C387.159 470.487 404.843 475.108 407.638 480.698C409.54 484.503 413.904 487.157 415.701 490.749" stroke="black" stroke-opacity="0.5" stroke-width="3" stroke-linecap="round"/>
<path d="M417.689 464.904C425.142 456.624 432.008 454.964 443.534 454.964" stroke="black" stroke-opacity="0.5" stroke-width="3" stroke-linecap="round"/>
<path d="M427.628 456.952C427.067 467.06 423.652 476.333 423.652 486.773C423.652 494.014 434.294 486.773 439.557 486.773" stroke="black" stroke-opacity="0.5" stroke-width="3" stroke-linecap="round"/>
<path d="M421.664 476.833C430.616 476.385 438.943 473.01 447.509 470.869" stroke="black" stroke-opacity="0.5" stroke-width="3" stroke-linecap="round"/>
<path d="M445.522 484.785C443.76 486.548 449.432 476.624 450.603 473.961C453.056 468.386 458.593 457.451 464.188 454.964C468.472 453.06 467.239 479.278 465.403 484.785" stroke="black" stroke-opacity="0.5" stroke-width="3" stroke-linecap="round"/>
<path d="M447.51 474.845C449.503 465.877 465.804 470.869 471.366 470.869" stroke="black" stroke-opacity="0.5" stroke-width="3" stroke-linecap="round"/>
<path d="M475.342 480.809C475.342 489.047 478.888 464.61 482.19 457.063C483.975 452.981 484.624 452.262 485.724 457.394C486.717 462.029 486.6 476.224 487.27 471.531C487.907 467.071 501.066 452.481 501.076 452.534C503.009 463.164 503.175 473.987 503.175 484.785" stroke="black" stroke-opacity="0.5" stroke-width="3" stroke-linecap="round"/>
<path d="M511.127 472.857C521.426 474.001 520.69 484.75 517.091 490.749" stroke="black" stroke-opacity="0.5" stroke-width="3" stroke-linecap="round"/>
<path d="M577.498 456.795C574.185 467.563 577.498 501.858 577.498 490.592" stroke="black" stroke-opacity="0.5" stroke-width="3" stroke-linecap="round"/>
<path d="M571.533 464.747C577.273 459.645 586.084 458.783 593.402 458.783" stroke="black" stroke-opacity="0.5" stroke-width="3" stroke-linecap="round"/>
<path d="M577.496 474.688C584.247 475.531 589.236 473.542 596.935 471.153C602.54 469.414 596.742 476.567 597.487 482.529C598.66 491.912 606.326 483.122 607.317 478.664C609.056 470.84 606.761 470.711 599.365 470.711" stroke="black" stroke-opacity="0.5" stroke-width="3" stroke-linecap="round"/>
<path d="M615.271 464.747C615.271 471.263 614.166 477.714 614.166 484.186C614.166 491.556 616.767 496.467 614.277 486.506C612.535 479.537 612.559 463.031 622.229 460.882C626.014 460.041 628.966 466.713 628.966 469.718C628.966 475.411 622.378 475.744 619.689 479.106C618.19 480.979 629.726 494.755 635.151 486.616" stroke="black" stroke-opacity="0.5" stroke-width="3" stroke-linecap="round"/>
<path d="M631.174 468.723C632.056 461.669 650.671 461.669 655.031 462.759" stroke="black" stroke-opacity="0.5" stroke-width="3" stroke-linecap="round"/>
<path d="M639.126 462.759C632.342 470.391 637.313 475.971 639.016 483.634C640.571 490.63 655.417 484.628 660.995 484.628" stroke="black" stroke-opacity="0.5" stroke-width="3" stroke-linecap="round"/>
<path d="M635.15 474.688C640.831 474.688 660.866 470.97 662.983 466.735" stroke="black" stroke-opacity="0.5" stroke-width="3" stroke-linecap="round"/>
<path d="M664.971 454.807C665.102 459.386 669.192 489.668 675.795 474.577C678.187 469.108 677.018 457.73 682.863 454.807" stroke="black" stroke-opacity="0.5" stroke-width="3" stroke-linecap="round"/>
<path d="M694.793 454.807C701.63 454.807 707.964 455.677 714.674 456.795" stroke="black" stroke-opacity="0.5" stroke-width="3" stroke-linecap="round"/>
<path d="M696.78 452.819C694.946 460.382 691.757 479.343 697.221 486.174C702.315 492.541 716.154 483.934 722.624 482.64" stroke="black" stroke-opacity="0.5" stroke-width="3" stroke-linecap="round"/>
<path d="M694.793 472.7C702.75 468.955 711.447 466.361 718.65 462.759" stroke="black" stroke-opacity="0.5" stroke-width="3" stroke-linecap="round"/>
<path d="M724.613 452.819C724.613 457.923 727.037 478.664 724.613 478.664" stroke="black" stroke-opacity="0.5" stroke-width="3" stroke-linecap="round"/>
<path d="M724.613 452.819C731.01 449.621 734.967 447.923 741.512 450.831C748.51 453.941 731.568 459.087 729.804 459.777C720.39 463.461 725.202 466.621 732.565 470.712C737.383 473.388 739.936 478.373 744.494 480.652" stroke="black" stroke-opacity="0.5" stroke-width="3" stroke-linecap="round"/>
<path d="M760.398 476.676C747.033 491.712 773.19 478.664 760.398 478.664" stroke="black" stroke-opacity="0.5" stroke-width="3" stroke-linecap="round"/>
<path d="M268.94 526.486C258.476 533.462 262.976 564.838 262.976 576.188" stroke="black" stroke-opacity="0.5" stroke-width="3" stroke-linecap="round"/>
<path d="M260.988 538.415C268.604 532.184 293.274 524.498 303.621 524.498C314.191 524.498 308.139 561.145 312.678 570.224" stroke="black" stroke-opacity="0.5" stroke-width="3" stroke-linecap="round"/>
<path d="M259 570.224C259.679 575.654 286.995 568.336 290.809 568.236C297.991 568.046 303.847 570.224 310.689 570.224" stroke="black" stroke-opacity="0.5" stroke-width="3" stroke-linecap="round"/>
<path d="M369.976 534.385C369.976 543.608 366 551.59 366 560.893C366 566.393 374.846 542.227 375.83 547.639C376.287 550.151 383.482 567.698 383.893 564.206C384.777 556.691 388.444 543.75 393.833 538.361" stroke="black" stroke-opacity="0.5" stroke-width="3" stroke-linecap="round"/>
<path d="M397.809 566.194C397.809 558.226 404.254 545.832 409.737 540.349C413.511 536.575 419.083 566.582 417.689 572.158" stroke="black" stroke-opacity="0.5" stroke-width="3" stroke-linecap="round"/>
<path d="M393.832 558.242C400.265 558.242 420.975 555.646 423.653 550.29" stroke="black" stroke-opacity="0.5" stroke-width="3" stroke-linecap="round"/>
<path d="M429.617 532.397V562.218" stroke="black" stroke-opacity="0.5" stroke-width="3" stroke-linecap="round"/>
<path d="M443.533 536.373C437.608 539.51 427.544 547.113 430.721 554.376C433.259 560.177 441.545 566.084 441.545 572.158" stroke="black" stroke-opacity="0.5" stroke-width="3" stroke-linecap="round"/>
<path d="M441.545 542.337C447.765 536.808 461.271 541.063 469.378 538.361" stroke="black" stroke-opacity="0.5" stroke-width="3" stroke-linecap="round"/>
<path d="M451.486 540.349C446.574 546.49 451.227 557.635 451.486 564.648C451.78 572.563 460.624 566.194 467.391 566.194" stroke="black" stroke-opacity="0.5" stroke-width="3" stroke-linecap="round"/>
<path d="M449.498 554.266C454.429 554.266 458.469 556.254 463.414 556.254" stroke="black" stroke-opacity="0.5" stroke-width="3" stroke-linecap="round"/>
<path d="M503.175 538.361C503.175 541.663 501.513 567.432 509.139 560.23C514.994 554.7 519.079 544.275 519.079 536.373" stroke="black" stroke-opacity="0.5" stroke-width="3" stroke-linecap="round"/>
<path d="M529.021 536.373C529.021 548.558 525.045 560.112 525.045 572.158" stroke="black" stroke-opacity="0.5" stroke-width="3" stroke-linecap="round"/>
<path d="M521.068 548.302C521.909 541.579 541.217 526.086 545.367 534.385C549.743 543.138 533.032 554.266 525.044 554.266" stroke="black" stroke-opacity="0.5" stroke-width="3" stroke-linecap="round"/>
<path d="M582.645 570.696C582.645 566.631 585.829 540.707 593.468 545.072C598.28 547.822 598.056 557.832 601.531 561.308C605.473 565.25 604.513 550.426 604.513 544.851" stroke="black" stroke-opacity="0.5" stroke-width="3" stroke-linecap="round"/>
<path d="M622.406 536.899C611.377 538.278 628.104 573.676 633.892 562.744C640.268 550.701 627.087 537.54 616.441 542.863" stroke="black" stroke-opacity="0.5" stroke-width="3" stroke-linecap="round"/>
<path d="M638.311 540.875C638.561 543.381 644.396 563.848 646.263 563.848C648.299 563.848 652.314 544.885 654.105 542.2C656.575 538.495 658.135 556.615 661.284 553.466C665.705 549.044 664.459 540.42 668.131 534.911" stroke="black" stroke-opacity="0.5" stroke-width="3" stroke-linecap="round"/>
<path d="M676.084 556.779C676.084 560.179 674.765 566.05 679.066 561.75C684.535 556.28 679.136 556.779 674.096 556.779" stroke="black" stroke-opacity="0.5" stroke-width="3" stroke-linecap="round"/>
<path d="M419.264 352.455H423.057L427.062 362.227H427.233L431.239 352.455H435.031V367H432.048V357.533H431.928L428.163 366.929H426.132L422.368 357.497H422.247V367H419.264V352.455ZM440.072 367H436.777L441.798 352.455H445.761L450.775 367H447.48L443.836 355.778H443.723L440.072 367ZM439.866 361.283H447.65V363.683H439.866V361.283ZM452.526 367V352.455H455.601V358.868H455.793L461.027 352.455H464.713L459.316 358.967L464.777 367H461.098L457.114 361.02L455.601 362.866V367H452.526ZM466.315 367V352.455H476.116V354.99H469.39V358.456H475.612V360.991H469.39V364.464H476.145V367H466.315ZM482.636 354.99V352.455H494.582V354.99H490.129V367H487.089V354.99H482.636ZM496.549 367V352.455H499.625V358.456H505.868V352.455H508.936V367H505.868V360.991H499.625V367H496.549ZM511.471 367V352.455H521.272V354.99H514.547V358.456H520.768V360.991H514.547V364.464H521.301V367H511.471ZM541.18 357.547H538.069C538.012 357.144 537.896 356.787 537.721 356.474C537.546 356.157 537.321 355.887 537.047 355.665C536.772 355.442 536.455 355.272 536.095 355.153C535.74 355.035 535.354 354.976 534.937 354.976C534.184 354.976 533.529 355.163 532.97 355.537C532.411 355.906 531.978 356.446 531.67 357.156C531.362 357.862 531.208 358.719 531.208 359.727C531.208 360.764 531.362 361.635 531.67 362.341C531.983 363.046 532.418 363.579 532.977 363.939C533.536 364.299 534.182 364.479 534.916 364.479C535.328 364.479 535.709 364.424 536.059 364.315C536.414 364.206 536.729 364.048 537.004 363.839C537.279 363.626 537.506 363.368 537.686 363.065C537.87 362.762 537.998 362.417 538.069 362.028L541.18 362.043C541.1 362.71 540.898 363.354 540.576 363.974C540.259 364.59 539.831 365.142 539.291 365.629C538.756 366.112 538.117 366.496 537.373 366.78C536.635 367.059 535.799 367.199 534.866 367.199C533.569 367.199 532.409 366.905 531.386 366.318C530.368 365.731 529.563 364.881 528.971 363.768C528.384 362.656 528.091 361.309 528.091 359.727C528.091 358.141 528.389 356.792 528.985 355.679C529.582 354.566 530.392 353.719 531.414 353.136C532.437 352.549 533.588 352.256 534.866 352.256C535.709 352.256 536.49 352.374 537.21 352.611C537.934 352.848 538.576 353.193 539.135 353.648C539.693 354.098 540.148 354.649 540.498 355.303C540.853 355.956 541.081 356.704 541.18 357.547ZM543.385 367V352.455H546.461V358.456H552.703V352.455H555.772V367H552.703V360.991H546.461V367H543.385ZM571.674 359.727C571.674 361.313 571.373 362.663 570.772 363.776C570.175 364.888 569.361 365.738 568.328 366.325C567.301 366.908 566.146 367.199 564.863 367.199C563.57 367.199 562.41 366.905 561.382 366.318C560.355 365.731 559.543 364.881 558.946 363.768C558.35 362.656 558.051 361.309 558.051 359.727C558.051 358.141 558.35 356.792 558.946 355.679C559.543 354.566 560.355 353.719 561.382 353.136C562.41 352.549 563.57 352.256 564.863 352.256C566.146 352.256 567.301 352.549 568.328 353.136C569.361 353.719 570.175 354.566 570.772 355.679C571.373 356.792 571.674 358.141 571.674 359.727ZM568.556 359.727C568.556 358.7 568.402 357.833 568.094 357.128C567.791 356.422 567.363 355.887 566.809 355.523C566.255 355.158 565.606 354.976 564.863 354.976C564.119 354.976 563.471 355.158 562.917 355.523C562.363 355.887 561.932 356.422 561.624 357.128C561.321 357.833 561.169 358.7 561.169 359.727C561.169 360.755 561.321 361.621 561.624 362.327C561.932 363.032 562.363 363.567 562.917 363.932C563.471 364.296 564.119 364.479 564.863 364.479C565.606 364.479 566.255 364.296 566.809 363.932C567.363 363.567 567.791 363.032 568.094 362.327C568.402 361.621 568.556 360.755 568.556 359.727ZM577.027 352.455V367H573.952V352.455H577.027ZM592.391 357.547H589.28C589.223 357.144 589.107 356.787 588.932 356.474C588.757 356.157 588.532 355.887 588.257 355.665C587.983 355.442 587.666 355.272 587.306 355.153C586.951 355.035 586.565 354.976 586.148 354.976C585.395 354.976 584.739 355.163 584.181 355.537C583.622 355.906 583.189 356.446 582.881 357.156C582.573 357.862 582.419 358.719 582.419 359.727C582.419 360.764 582.573 361.635 582.881 362.341C583.194 363.046 583.629 363.579 584.188 363.939C584.747 364.299 585.393 364.479 586.127 364.479C586.539 364.479 586.92 364.424 587.27 364.315C587.625 364.206 587.94 364.048 588.215 363.839C588.489 363.626 588.717 363.368 588.897 363.065C589.081 362.762 589.209 362.417 589.28 362.028L592.391 362.043C592.31 362.71 592.109 363.354 591.787 363.974C591.47 364.59 591.042 365.142 590.502 365.629C589.967 366.112 589.328 366.496 588.584 366.78C587.846 367.059 587.01 367.199 586.077 367.199C584.78 367.199 583.62 366.905 582.597 366.318C581.579 365.731 580.774 364.881 580.182 363.768C579.595 362.656 579.301 361.309 579.301 359.727C579.301 358.141 579.6 356.792 580.196 355.679C580.793 354.566 581.603 353.719 582.625 353.136C583.648 352.549 584.799 352.256 586.077 352.256C586.92 352.256 587.701 352.374 588.421 352.611C589.145 352.848 589.787 353.193 590.346 353.648C590.904 354.098 591.359 354.649 591.709 355.303C592.064 355.956 592.292 356.704 592.391 357.547ZM594.596 367V352.455H604.397V354.99H597.672V358.456H603.893V360.991H597.672V364.464H604.426V367H594.596Z" fill="black"/>
</svg>
