<svg width="1024" height="1024" viewBox="0 0 1024 1024" fill="none" xmlns="http://www.w3.org/2000/svg">
<path d="M276.626 508.091V509.511H270.973V508.091H276.626ZM272.62 505.477H274.297V515.875C274.297 516.348 274.365 516.704 274.502 516.94C274.645 517.172 274.824 517.329 275.042 517.409C275.265 517.485 275.499 517.523 275.745 517.523C275.93 517.523 276.082 517.513 276.2 517.494C276.318 517.471 276.413 517.452 276.484 517.438L276.825 518.943C276.711 518.986 276.553 519.028 276.349 519.071C276.145 519.118 275.887 519.142 275.575 519.142C275.101 519.142 274.637 519.04 274.183 518.837C273.733 518.633 273.359 518.323 273.061 517.906C272.767 517.49 272.62 516.964 272.62 516.33V505.477ZM281.058 512.438V519H279.382V504.455H281.058V509.795H281.2C281.456 509.232 281.839 508.785 282.35 508.453C282.867 508.117 283.553 507.949 284.41 507.949C285.154 507.949 285.805 508.098 286.363 508.396C286.922 508.69 287.355 509.142 287.663 509.753C287.975 510.359 288.132 511.131 288.132 512.068V519H286.456V512.182C286.456 511.315 286.231 510.645 285.781 510.172C285.336 509.694 284.718 509.455 283.927 509.455C283.378 509.455 282.886 509.571 282.45 509.803C282.019 510.035 281.678 510.373 281.427 510.818C281.181 511.263 281.058 511.803 281.058 512.438ZM291.198 519V508.091H292.874V519H291.198ZM292.05 506.273C291.724 506.273 291.442 506.161 291.205 505.939C290.973 505.716 290.857 505.449 290.857 505.136C290.857 504.824 290.973 504.556 291.205 504.334C291.442 504.111 291.724 504 292.05 504C292.377 504 292.656 504.111 292.888 504.334C293.125 504.556 293.244 504.824 293.244 505.136C293.244 505.449 293.125 505.716 292.888 505.939C292.656 506.161 292.377 506.273 292.05 506.273ZM303.672 510.534L302.166 510.96C302.071 510.709 301.931 510.465 301.747 510.229C301.567 509.987 301.321 509.788 301.008 509.632C300.696 509.476 300.296 509.398 299.808 509.398C299.14 509.398 298.584 509.552 298.139 509.859C297.699 510.162 297.478 510.548 297.478 511.017C297.478 511.434 297.63 511.763 297.933 512.004C298.236 512.246 298.709 512.447 299.353 512.608L300.973 513.006C301.948 513.242 302.675 513.605 303.153 514.092C303.631 514.575 303.87 515.198 303.87 515.96C303.87 516.585 303.69 517.144 303.331 517.636C302.975 518.129 302.478 518.517 301.839 518.801C301.2 519.085 300.457 519.227 299.609 519.227C298.496 519.227 297.575 518.986 296.846 518.503C296.117 518.02 295.655 517.314 295.461 516.386L297.052 515.989C297.204 516.576 297.49 517.016 297.912 517.31C298.338 517.603 298.894 517.75 299.581 517.75C300.362 517.75 300.982 517.584 301.441 517.253C301.905 516.917 302.137 516.514 302.137 516.045C302.137 515.667 302.005 515.349 301.74 515.094C301.475 514.833 301.067 514.639 300.518 514.511L298.7 514.085C297.701 513.848 296.967 513.482 296.498 512.984C296.034 512.482 295.802 511.855 295.802 511.102C295.802 510.487 295.975 509.942 296.321 509.469C296.671 508.995 297.147 508.624 297.748 508.354C298.354 508.084 299.041 507.949 299.808 507.949C300.887 507.949 301.735 508.186 302.35 508.659C302.971 509.133 303.411 509.758 303.672 510.534ZM312.018 523.091V508.091H313.638V509.824H313.837C313.96 509.634 314.13 509.393 314.348 509.099C314.571 508.801 314.888 508.536 315.3 508.304C315.716 508.067 316.28 507.949 316.99 507.949C317.909 507.949 318.718 508.179 319.419 508.638C320.12 509.097 320.667 509.748 321.06 510.591C321.453 511.434 321.649 512.428 321.649 513.574C321.649 514.729 321.453 515.731 321.06 516.578C320.667 517.421 320.122 518.074 319.426 518.538C318.73 518.998 317.928 519.227 317.018 519.227C316.318 519.227 315.757 519.111 315.335 518.879C314.914 518.643 314.589 518.375 314.362 518.077C314.135 517.774 313.96 517.523 313.837 517.324H313.695V523.091H312.018ZM313.666 513.545C313.666 514.369 313.787 515.096 314.028 515.726C314.27 516.351 314.623 516.841 315.087 517.196C315.551 517.546 316.119 517.722 316.791 517.722C317.492 517.722 318.077 517.537 318.545 517.168C319.019 516.794 319.374 516.292 319.611 515.662C319.852 515.027 319.973 514.322 319.973 513.545C319.973 512.778 319.855 512.087 319.618 511.472C319.386 510.851 319.033 510.361 318.56 510.001C318.091 509.637 317.501 509.455 316.791 509.455C316.109 509.455 315.536 509.627 315.072 509.973C314.608 510.314 314.258 510.792 314.021 511.408C313.785 512.018 313.666 512.731 313.666 513.545ZM327.416 519.256C326.725 519.256 326.098 519.125 325.534 518.865C324.971 518.6 324.523 518.219 324.192 517.722C323.86 517.22 323.695 516.614 323.695 515.903C323.695 515.278 323.818 514.772 324.064 514.384C324.31 513.991 324.639 513.683 325.051 513.46C325.463 513.238 325.918 513.072 326.415 512.963C326.917 512.849 327.421 512.759 327.928 512.693C328.59 512.608 329.128 512.544 329.54 512.501C329.956 512.454 330.259 512.376 330.449 512.267C330.643 512.158 330.74 511.969 330.74 511.699V511.642C330.74 510.941 330.548 510.397 330.165 510.009C329.786 509.62 329.211 509.426 328.439 509.426C327.639 509.426 327.011 509.601 326.557 509.952C326.102 510.302 325.783 510.676 325.598 511.074L324.007 510.506C324.291 509.843 324.67 509.327 325.143 508.957C325.622 508.583 326.143 508.323 326.706 508.176C327.274 508.025 327.833 507.949 328.382 507.949C328.732 507.949 329.135 507.991 329.589 508.077C330.049 508.157 330.491 508.325 330.918 508.581C331.348 508.837 331.706 509.223 331.99 509.739C332.274 510.255 332.416 510.946 332.416 511.812V519H330.74V517.523H330.655C330.541 517.759 330.352 518.013 330.087 518.283C329.821 518.553 329.469 518.782 329.028 518.972C328.588 519.161 328.051 519.256 327.416 519.256ZM327.672 517.75C328.335 517.75 328.893 517.62 329.348 517.359C329.807 517.099 330.153 516.763 330.385 516.351C330.622 515.939 330.74 515.506 330.74 515.051V513.517C330.669 513.602 330.513 513.68 330.271 513.751C330.035 513.818 329.76 513.877 329.447 513.929C329.14 513.976 328.839 514.019 328.545 514.057C328.257 514.09 328.022 514.118 327.842 514.142C327.407 514.199 327 514.291 326.621 514.419C326.247 514.542 325.944 514.729 325.712 514.98C325.484 515.226 325.371 515.562 325.371 515.989C325.371 516.571 325.586 517.011 326.017 517.31C326.453 517.603 327.004 517.75 327.672 517.75ZM339.879 523.318C339.069 523.318 338.373 523.214 337.791 523.006C337.208 522.802 336.723 522.532 336.335 522.196C335.951 521.865 335.646 521.509 335.419 521.131L336.754 520.193C336.905 520.392 337.097 520.619 337.329 520.875C337.561 521.135 337.878 521.36 338.281 521.55C338.688 521.744 339.221 521.841 339.879 521.841C340.76 521.841 341.486 521.628 342.059 521.202C342.632 520.776 342.919 520.108 342.919 519.199V516.983H342.777C342.654 517.182 342.478 517.428 342.251 517.722C342.029 518.01 341.707 518.268 341.285 518.496C340.868 518.718 340.305 518.83 339.595 518.83C338.714 518.83 337.923 518.621 337.223 518.205C336.527 517.788 335.975 517.182 335.568 516.386C335.165 515.591 334.964 514.625 334.964 513.489C334.964 512.371 335.161 511.398 335.554 510.57C335.947 509.736 336.493 509.092 337.194 508.638C337.895 508.179 338.705 507.949 339.623 507.949C340.333 507.949 340.897 508.067 341.314 508.304C341.735 508.536 342.057 508.801 342.279 509.099C342.507 509.393 342.682 509.634 342.805 509.824H342.975V508.091H344.595V519.312C344.595 520.25 344.382 521.012 343.956 521.599C343.534 522.191 342.966 522.625 342.251 522.899C341.541 523.179 340.75 523.318 339.879 523.318ZM339.822 517.324C340.494 517.324 341.063 517.17 341.527 516.862C341.991 516.554 342.343 516.112 342.585 515.534C342.826 514.956 342.947 514.265 342.947 513.46C342.947 512.674 342.829 511.981 342.592 511.379C342.355 510.778 342.005 510.307 341.541 509.966C341.077 509.625 340.504 509.455 339.822 509.455C339.112 509.455 338.52 509.634 338.047 509.994C337.578 510.354 337.225 510.837 336.988 511.443C336.756 512.049 336.64 512.722 336.64 513.46C336.64 514.218 336.759 514.888 336.995 515.47C337.237 516.048 337.592 516.502 338.061 516.834C338.534 517.161 339.121 517.324 339.822 517.324ZM352.237 519.227C351.186 519.227 350.279 518.995 349.517 518.531C348.759 518.062 348.174 517.409 347.762 516.571C347.355 515.728 347.152 514.748 347.152 513.631C347.152 512.513 347.355 511.528 347.762 510.676C348.174 509.819 348.747 509.152 349.481 508.673C350.22 508.19 351.082 507.949 352.066 507.949C352.635 507.949 353.196 508.044 353.75 508.233C354.304 508.422 354.808 508.73 355.262 509.156C355.717 509.578 356.079 510.136 356.349 510.832C356.619 511.528 356.754 512.385 356.754 513.403V514.114H348.345V512.665H355.049C355.049 512.049 354.926 511.5 354.68 511.017C354.439 510.534 354.093 510.153 353.643 509.874C353.198 509.594 352.672 509.455 352.066 509.455C351.399 509.455 350.821 509.62 350.333 509.952C349.85 510.278 349.479 510.705 349.218 511.23C348.958 511.756 348.828 512.319 348.828 512.92V513.886C348.828 514.71 348.97 515.409 349.254 515.982C349.543 516.55 349.943 516.983 350.454 517.281C350.966 517.575 351.56 517.722 352.237 517.722C352.677 517.722 353.075 517.66 353.43 517.537C353.79 517.409 354.1 517.22 354.36 516.969C354.621 516.713 354.822 516.396 354.964 516.017L356.583 516.472C356.413 517.021 356.127 517.504 355.724 517.92C355.322 518.332 354.824 518.654 354.233 518.886C353.641 519.114 352.975 519.227 352.237 519.227ZM364.929 519V508.091H366.605V519H364.929ZM365.781 506.273C365.454 506.273 365.172 506.161 364.936 505.939C364.704 505.716 364.588 505.449 364.588 505.136C364.588 504.824 364.704 504.556 364.936 504.334C365.172 504.111 365.454 504 365.781 504C366.108 504 366.387 504.111 366.619 504.334C366.856 504.556 366.974 504.824 366.974 505.136C366.974 505.449 366.856 505.716 366.619 505.939C366.387 506.161 366.108 506.273 365.781 506.273ZM371.351 512.438V519H369.675V508.091H371.294V509.795H371.436C371.692 509.241 372.08 508.796 372.601 508.46C373.122 508.119 373.794 507.949 374.618 507.949C375.357 507.949 376.003 508.1 376.557 508.403C377.111 508.702 377.542 509.156 377.849 509.767C378.157 510.373 378.311 511.14 378.311 512.068V519H376.635V512.182C376.635 511.325 376.412 510.657 375.967 510.179C375.522 509.696 374.911 509.455 374.135 509.455C373.6 509.455 373.122 509.571 372.7 509.803C372.284 510.035 371.955 510.373 371.713 510.818C371.472 511.263 371.351 511.803 371.351 512.438ZM386.118 508.091V509.511H380.465V508.091H386.118ZM382.113 505.477H383.789V515.875C383.789 516.348 383.857 516.704 383.995 516.94C384.137 517.172 384.317 517.329 384.534 517.409C384.757 517.485 384.991 517.523 385.238 517.523C385.422 517.523 385.574 517.513 385.692 517.494C385.81 517.471 385.905 517.452 385.976 517.438L386.317 518.943C386.203 518.986 386.045 519.028 385.841 519.071C385.638 519.118 385.38 519.142 385.067 519.142C384.594 519.142 384.13 519.04 383.675 518.837C383.225 518.633 382.851 518.323 382.553 517.906C382.259 517.49 382.113 516.964 382.113 516.33V505.477ZM393.096 519.227C392.045 519.227 391.138 518.995 390.376 518.531C389.618 518.062 389.034 517.409 388.622 516.571C388.215 515.728 388.011 514.748 388.011 513.631C388.011 512.513 388.215 511.528 388.622 510.676C389.034 509.819 389.607 509.152 390.341 508.673C391.079 508.19 391.941 507.949 392.926 507.949C393.494 507.949 394.055 508.044 394.609 508.233C395.163 508.422 395.667 508.73 396.122 509.156C396.576 509.578 396.939 510.136 397.208 510.832C397.478 511.528 397.613 512.385 397.613 513.403V514.114H389.204V512.665H395.909C395.909 512.049 395.786 511.5 395.539 511.017C395.298 510.534 394.952 510.153 394.502 509.874C394.057 509.594 393.532 509.455 392.926 509.455C392.258 509.455 391.681 509.62 391.193 509.952C390.71 510.278 390.338 510.705 390.078 511.23C389.817 511.756 389.687 512.319 389.687 512.92V513.886C389.687 514.71 389.829 515.409 390.113 515.982C390.402 516.55 390.802 516.983 391.314 517.281C391.825 517.575 392.419 517.722 393.096 517.722C393.537 517.722 393.934 517.66 394.289 517.537C394.649 517.409 394.959 517.22 395.22 516.969C395.48 516.713 395.681 516.396 395.824 516.017L397.443 516.472C397.272 517.021 396.986 517.504 396.583 517.92C396.181 518.332 395.684 518.654 395.092 518.886C394.5 519.114 393.835 519.227 393.096 519.227ZM401.839 512.438V519H400.163V508.091H401.782V509.795H401.924C402.18 509.241 402.568 508.796 403.089 508.46C403.61 508.119 404.282 507.949 405.106 507.949C405.845 507.949 406.491 508.1 407.045 508.403C407.599 508.702 408.03 509.156 408.338 509.767C408.645 510.373 408.799 511.14 408.799 512.068V519H407.123V512.182C407.123 511.325 406.901 510.657 406.456 510.179C406.011 509.696 405.4 509.455 404.623 509.455C404.088 509.455 403.61 509.571 403.189 509.803C402.772 510.035 402.443 510.373 402.201 510.818C401.96 511.263 401.839 511.803 401.839 512.438ZM416.607 508.091V509.511H410.953V508.091H416.607ZM412.601 505.477H414.277V515.875C414.277 516.348 414.346 516.704 414.483 516.94C414.625 517.172 414.805 517.329 415.023 517.409C415.245 517.485 415.48 517.523 415.726 517.523C415.911 517.523 416.062 517.513 416.18 517.494C416.299 517.471 416.393 517.452 416.464 517.438L416.805 518.943C416.692 518.986 416.533 519.028 416.33 519.071C416.126 519.118 415.868 519.142 415.555 519.142C415.082 519.142 414.618 519.04 414.163 518.837C413.714 518.633 413.339 518.323 413.041 517.906C412.748 517.49 412.601 516.964 412.601 516.33V505.477ZM419.128 519V508.091H420.804V519H419.128ZM419.98 506.273C419.653 506.273 419.372 506.161 419.135 505.939C418.903 505.716 418.787 505.449 418.787 505.136C418.787 504.824 418.903 504.556 419.135 504.334C419.372 504.111 419.653 504 419.98 504C420.307 504 420.586 504.111 420.818 504.334C421.055 504.556 421.173 504.824 421.173 505.136C421.173 505.449 421.055 505.716 420.818 505.939C420.586 506.161 420.307 506.273 419.98 506.273ZM428.306 519.227C427.321 519.227 426.457 518.993 425.713 518.524C424.975 518.055 424.397 517.4 423.98 516.557C423.569 515.714 423.363 514.729 423.363 513.602C423.363 512.466 423.569 511.474 423.98 510.626C424.397 509.779 424.975 509.121 425.713 508.652C426.457 508.183 427.321 507.949 428.306 507.949C429.291 507.949 430.152 508.183 430.891 508.652C431.634 509.121 432.212 509.779 432.624 510.626C433.041 511.474 433.249 512.466 433.249 513.602C433.249 514.729 433.041 515.714 432.624 516.557C432.212 517.4 431.634 518.055 430.891 518.524C430.152 518.993 429.291 519.227 428.306 519.227ZM428.306 517.722C429.054 517.722 429.669 517.53 430.152 517.146C430.635 516.763 430.993 516.259 431.225 515.634C431.457 515.009 431.573 514.331 431.573 513.602C431.573 512.873 431.457 512.194 431.225 511.564C430.993 510.934 430.635 510.425 430.152 510.037C429.669 509.649 429.054 509.455 428.306 509.455C427.558 509.455 426.942 509.649 426.459 510.037C425.976 510.425 425.619 510.934 425.387 511.564C425.155 512.194 425.039 512.873 425.039 513.602C425.039 514.331 425.155 515.009 425.387 515.634C425.619 516.259 425.976 516.763 426.459 517.146C426.942 517.53 427.558 517.722 428.306 517.722ZM437.484 512.438V519H435.808V508.091H437.427V509.795H437.569C437.825 509.241 438.213 508.796 438.734 508.46C439.254 508.119 439.927 507.949 440.751 507.949C441.489 507.949 442.136 508.1 442.69 508.403C443.244 508.702 443.674 509.156 443.982 509.767C444.29 510.373 444.444 511.14 444.444 512.068V519H442.768V512.182C442.768 511.325 442.545 510.657 442.1 510.179C441.655 509.696 441.044 509.455 440.268 509.455C439.733 509.455 439.254 509.571 438.833 509.803C438.416 510.035 438.087 510.373 437.846 510.818C437.604 511.263 437.484 511.803 437.484 512.438ZM450.717 519.256C450.026 519.256 449.398 519.125 448.835 518.865C448.271 518.6 447.824 518.219 447.493 517.722C447.161 517.22 446.995 516.614 446.995 515.903C446.995 515.278 447.118 514.772 447.365 514.384C447.611 513.991 447.94 513.683 448.352 513.46C448.764 513.238 449.218 513.072 449.716 512.963C450.217 512.849 450.722 512.759 451.228 512.693C451.891 512.608 452.429 512.544 452.841 512.501C453.257 512.454 453.56 512.376 453.75 512.267C453.944 512.158 454.041 511.969 454.041 511.699V511.642C454.041 510.941 453.849 510.397 453.466 510.009C453.087 509.62 452.511 509.426 451.74 509.426C450.94 509.426 450.312 509.601 449.858 509.952C449.403 510.302 449.083 510.676 448.899 511.074L447.308 510.506C447.592 509.843 447.971 509.327 448.444 508.957C448.922 508.583 449.443 508.323 450.007 508.176C450.575 508.025 451.134 507.949 451.683 507.949C452.033 507.949 452.436 507.991 452.89 508.077C453.35 508.157 453.792 508.325 454.218 508.581C454.649 508.837 455.007 509.223 455.291 509.739C455.575 510.255 455.717 510.946 455.717 511.812V519H454.041V517.523H453.956C453.842 517.759 453.653 518.013 453.387 518.283C453.122 518.553 452.77 518.782 452.329 518.972C451.889 519.161 451.351 519.256 450.717 519.256ZM450.973 517.75C451.636 517.75 452.194 517.62 452.649 517.359C453.108 517.099 453.454 516.763 453.686 516.351C453.922 515.939 454.041 515.506 454.041 515.051V513.517C453.97 513.602 453.814 513.68 453.572 513.751C453.335 513.818 453.061 513.877 452.748 513.929C452.44 513.976 452.14 514.019 451.846 514.057C451.557 514.09 451.323 514.118 451.143 514.142C450.708 514.199 450.3 514.291 449.922 514.419C449.547 514.542 449.244 514.729 449.012 514.98C448.785 515.226 448.672 515.562 448.672 515.989C448.672 516.571 448.887 517.011 449.318 517.31C449.753 517.603 450.305 517.75 450.973 517.75ZM460.452 504.455V519H458.776V504.455H460.452ZM465.199 504.455V519H463.522V504.455H465.199ZM469.348 523.091C469.064 523.091 468.811 523.067 468.588 523.02C468.366 522.977 468.212 522.935 468.126 522.892L468.553 521.415C468.96 521.519 469.32 521.557 469.632 521.528C469.945 521.5 470.222 521.36 470.463 521.109C470.709 520.863 470.934 520.463 471.138 519.909L471.45 519.057L467.416 508.091H469.234L472.246 516.784H472.359L475.371 508.091H477.189L472.558 520.591C472.35 521.154 472.092 521.621 471.784 521.99C471.476 522.364 471.119 522.641 470.712 522.821C470.309 523.001 469.855 523.091 469.348 523.091ZM486.702 504.455V519H485.026V504.455H486.702ZM494.346 519.227C493.295 519.227 492.388 518.995 491.626 518.531C490.868 518.062 490.284 517.409 489.872 516.571C489.465 515.728 489.261 514.748 489.261 513.631C489.261 512.513 489.465 511.528 489.872 510.676C490.284 509.819 490.857 509.152 491.591 508.673C492.329 508.19 493.191 507.949 494.176 507.949C494.744 507.949 495.305 508.044 495.859 508.233C496.413 508.422 496.917 508.73 497.372 509.156C497.826 509.578 498.189 510.136 498.458 510.832C498.728 511.528 498.863 512.385 498.863 513.403V514.114H490.454V512.665H497.159C497.159 512.049 497.036 511.5 496.789 511.017C496.548 510.534 496.202 510.153 495.752 509.874C495.307 509.594 494.782 509.455 494.176 509.455C493.508 509.455 492.931 509.62 492.443 509.952C491.96 510.278 491.588 510.705 491.328 511.23C491.067 511.756 490.937 512.319 490.937 512.92V513.886C490.937 514.71 491.079 515.409 491.363 515.982C491.652 516.55 492.052 516.983 492.564 517.281C493.075 517.575 493.669 517.722 494.346 517.722C494.787 517.722 495.184 517.66 495.539 517.537C495.899 517.409 496.209 517.22 496.47 516.969C496.73 516.713 496.931 516.396 497.074 516.017L498.693 516.472C498.522 517.021 498.236 517.504 497.833 517.92C497.431 518.332 496.934 518.654 496.342 518.886C495.75 519.114 495.085 519.227 494.346 519.227ZM506.271 508.091V509.511H500.39V508.091H506.271ZM502.152 519V506.585C502.152 505.96 502.298 505.439 502.592 505.023C502.886 504.606 503.267 504.294 503.735 504.085C504.204 503.877 504.699 503.773 505.22 503.773C505.632 503.773 505.968 503.806 506.228 503.872C506.489 503.938 506.683 504 506.811 504.057L506.328 505.506C506.243 505.477 506.124 505.442 505.973 505.399C505.826 505.357 505.632 505.335 505.39 505.335C504.836 505.335 504.436 505.475 504.19 505.754C503.949 506.034 503.828 506.443 503.828 506.983V519H502.152ZM513.364 508.091V509.511H507.711V508.091H513.364ZM509.359 505.477H511.035V515.875C511.035 516.348 511.103 516.704 511.241 516.94C511.383 517.172 511.563 517.329 511.781 517.409C512.003 517.485 512.237 517.523 512.484 517.523C512.668 517.523 512.82 517.513 512.938 517.494C513.057 517.471 513.151 517.452 513.222 517.438L513.563 518.943C513.45 518.986 513.291 519.028 513.087 519.071C512.884 519.118 512.626 519.142 512.313 519.142C511.84 519.142 511.376 519.04 510.921 518.837C510.471 518.633 510.097 518.323 509.799 517.906C509.505 517.49 509.359 516.964 509.359 516.33V505.477ZM521.738 519V504.455H523.414V509.824H523.556C523.679 509.634 523.85 509.393 524.067 509.099C524.29 508.801 524.607 508.536 525.019 508.304C525.436 508.067 525.999 507.949 526.71 507.949C527.628 507.949 528.438 508.179 529.138 508.638C529.839 509.097 530.386 509.748 530.779 510.591C531.172 511.434 531.369 512.428 531.369 513.574C531.369 514.729 531.172 515.731 530.779 516.578C530.386 517.421 529.842 518.074 529.146 518.538C528.45 518.998 527.647 519.227 526.738 519.227C526.037 519.227 525.476 519.111 525.055 518.879C524.633 518.643 524.309 518.375 524.082 518.077C523.854 517.774 523.679 517.523 523.556 517.324H523.357V519H521.738ZM523.386 513.545C523.386 514.369 523.506 515.096 523.748 515.726C523.989 516.351 524.342 516.841 524.806 517.196C525.27 517.546 525.838 517.722 526.511 517.722C527.211 517.722 527.796 517.537 528.265 517.168C528.738 516.794 529.094 516.292 529.33 515.662C529.572 515.027 529.692 514.322 529.692 513.545C529.692 512.778 529.574 512.087 529.337 511.472C529.105 510.851 528.753 510.361 528.279 510.001C527.81 509.637 527.221 509.455 526.511 509.455C525.829 509.455 525.256 509.627 524.792 509.973C524.328 510.314 523.978 510.792 523.741 511.408C523.504 512.018 523.386 512.731 523.386 513.545ZM535.609 504.455V519H533.933V504.455H535.609ZM541.889 519.256C541.198 519.256 540.57 519.125 540.007 518.865C539.443 518.6 538.996 518.219 538.664 517.722C538.333 517.22 538.167 516.614 538.167 515.903C538.167 515.278 538.29 514.772 538.537 514.384C538.783 513.991 539.112 513.683 539.524 513.46C539.936 513.238 540.39 513.072 540.887 512.963C541.389 512.849 541.894 512.759 542.4 512.693C543.063 512.608 543.6 512.544 544.012 512.501C544.429 512.454 544.732 512.376 544.922 512.267C545.116 512.158 545.213 511.969 545.213 511.699V511.642C545.213 510.941 545.021 510.397 544.637 510.009C544.259 509.62 543.683 509.426 542.912 509.426C542.111 509.426 541.484 509.601 541.029 509.952C540.575 510.302 540.255 510.676 540.071 511.074L538.48 510.506C538.764 509.843 539.143 509.327 539.616 508.957C540.094 508.583 540.615 508.323 541.179 508.176C541.747 508.025 542.306 507.949 542.855 507.949C543.205 507.949 543.608 507.991 544.062 508.077C544.521 508.157 544.964 508.325 545.39 508.581C545.821 508.837 546.179 509.223 546.463 509.739C546.747 510.255 546.889 510.946 546.889 511.812V519H545.213V517.523H545.127C545.014 517.759 544.824 518.013 544.559 518.283C544.294 518.553 543.941 518.782 543.501 518.972C543.061 519.161 542.523 519.256 541.889 519.256ZM542.145 517.75C542.807 517.75 543.366 517.62 543.821 517.359C544.28 517.099 544.626 516.763 544.858 516.351C545.094 515.939 545.213 515.506 545.213 515.051V513.517C545.142 513.602 544.985 513.68 544.744 513.751C544.507 513.818 544.233 513.877 543.92 513.929C543.612 513.976 543.312 514.019 543.018 514.057C542.729 514.09 542.495 514.118 542.315 514.142C541.879 514.199 541.472 514.291 541.093 514.419C540.719 514.542 540.416 514.729 540.184 514.98C539.957 515.226 539.843 515.562 539.843 515.989C539.843 516.571 540.059 517.011 540.49 517.31C540.925 517.603 541.477 517.75 542.145 517.75ZM551.624 512.438V519H549.948V508.091H551.567V509.795H551.71C551.965 509.241 552.353 508.796 552.874 508.46C553.395 508.119 554.067 507.949 554.891 507.949C555.63 507.949 556.276 508.1 556.83 508.403C557.384 508.702 557.815 509.156 558.123 509.767C558.431 510.373 558.585 511.14 558.585 512.068V519H556.908V512.182C556.908 511.325 556.686 510.657 556.241 510.179C555.796 509.696 555.185 509.455 554.408 509.455C553.873 509.455 553.395 509.571 552.974 509.803C552.557 510.035 552.228 510.373 551.987 510.818C551.745 511.263 551.624 511.803 551.624 512.438ZM563.21 515.023L563.181 512.949H563.522L568.295 508.091H570.369L565.284 513.233H565.142L563.21 515.023ZM561.647 519V504.455H563.324V519H561.647ZM568.579 519L564.318 513.602L565.511 512.438L570.71 519H568.579ZM583.009 508.091V509.511H577.129V508.091H583.009ZM578.89 519V506.585C578.89 505.96 579.037 505.439 579.33 505.023C579.624 504.606 580.005 504.294 580.474 504.085C580.942 503.877 581.437 503.773 581.958 503.773C582.37 503.773 582.706 503.806 582.967 503.872C583.227 503.938 583.421 504 583.549 504.057L583.066 505.506C582.981 505.477 582.862 505.442 582.711 505.399C582.564 505.357 582.37 505.335 582.129 505.335C581.575 505.335 581.174 505.475 580.928 505.754C580.687 506.034 580.566 506.443 580.566 506.983V519H578.89ZM589.341 519.227C588.356 519.227 587.492 518.993 586.749 518.524C586.01 518.055 585.432 517.4 585.016 516.557C584.604 515.714 584.398 514.729 584.398 513.602C584.398 512.466 584.604 511.474 585.016 510.626C585.432 509.779 586.01 509.121 586.749 508.652C587.492 508.183 588.356 507.949 589.341 507.949C590.326 507.949 591.188 508.183 591.926 508.652C592.67 509.121 593.247 509.779 593.659 510.626C594.076 511.474 594.284 512.466 594.284 513.602C594.284 514.729 594.076 515.714 593.659 516.557C593.247 517.4 592.67 518.055 591.926 518.524C591.188 518.993 590.326 519.227 589.341 519.227ZM589.341 517.722C590.089 517.722 590.705 517.53 591.188 517.146C591.67 516.763 592.028 516.259 592.26 515.634C592.492 515.009 592.608 514.331 592.608 513.602C592.608 512.873 592.492 512.194 592.26 511.564C592.028 510.934 591.67 510.425 591.188 510.037C590.705 509.649 590.089 509.455 589.341 509.455C588.593 509.455 587.977 509.649 587.494 510.037C587.011 510.425 586.654 510.934 586.422 511.564C586.19 512.194 586.074 512.873 586.074 513.602C586.074 514.331 586.19 515.009 586.422 515.634C586.654 516.259 587.011 516.763 587.494 517.146C587.977 517.53 588.593 517.722 589.341 517.722ZM596.843 519V508.091H598.462V509.739H598.576C598.775 509.199 599.134 508.761 599.655 508.425C600.176 508.089 600.763 507.92 601.417 507.92C601.54 507.92 601.694 507.923 601.878 507.928C602.063 507.932 602.203 507.939 602.297 507.949V509.653C602.24 509.639 602.11 509.618 601.907 509.589C601.708 509.556 601.497 509.54 601.275 509.54C600.744 509.54 600.271 509.651 599.854 509.874C599.442 510.091 599.115 510.394 598.874 510.783C598.637 511.166 598.519 511.604 598.519 512.097V519H596.843ZM614.028 519.227C613.119 519.227 612.317 518.998 611.621 518.538C610.925 518.074 610.38 517.421 609.987 516.578C609.594 515.731 609.398 514.729 609.398 513.574C609.398 512.428 609.594 511.434 609.987 510.591C610.38 509.748 610.927 509.097 611.628 508.638C612.329 508.179 613.138 507.949 614.057 507.949C614.767 507.949 615.328 508.067 615.74 508.304C616.157 508.536 616.474 508.801 616.692 509.099C616.914 509.393 617.087 509.634 617.21 509.824H617.352V504.455H619.028V519H617.409V517.324H617.21C617.087 517.523 616.912 517.774 616.685 518.077C616.457 518.375 616.133 518.643 615.712 518.879C615.29 519.111 614.729 519.227 614.028 519.227ZM614.256 517.722C614.928 517.722 615.496 517.546 615.96 517.196C616.424 516.841 616.777 516.351 617.018 515.726C617.26 515.096 617.381 514.369 617.381 513.545C617.381 512.731 617.262 512.018 617.026 511.408C616.789 510.792 616.438 510.314 615.974 509.973C615.51 509.627 614.938 509.455 614.256 509.455C613.545 509.455 612.954 509.637 612.48 510.001C612.011 510.361 611.659 510.851 611.422 511.472C611.19 512.087 611.074 512.778 611.074 513.545C611.074 514.322 611.192 515.027 611.429 515.662C611.67 516.292 612.026 516.794 612.494 517.168C612.968 517.537 613.555 517.722 614.256 517.722ZM622.331 519V508.091H623.95V509.739H624.064C624.263 509.199 624.623 508.761 625.143 508.425C625.664 508.089 626.251 507.92 626.905 507.92C627.028 507.92 627.182 507.923 627.366 507.928C627.551 507.932 627.691 507.939 627.786 507.949V509.653C627.729 509.639 627.598 509.618 627.395 509.589C627.196 509.556 626.985 509.54 626.763 509.54C626.232 509.54 625.759 509.651 625.342 509.874C624.93 510.091 624.604 510.394 624.362 510.783C624.125 511.166 624.007 511.604 624.007 512.097V519H622.331ZM632.983 519.256C632.291 519.256 631.664 519.125 631.1 518.865C630.537 518.6 630.09 518.219 629.758 517.722C629.427 517.22 629.261 516.614 629.261 515.903C629.261 515.278 629.384 514.772 629.63 514.384C629.877 513.991 630.206 513.683 630.618 513.46C631.029 513.238 631.484 513.072 631.981 512.963C632.483 512.849 632.987 512.759 633.494 512.693C634.157 512.608 634.694 512.544 635.106 512.501C635.523 512.454 635.826 512.376 636.015 512.267C636.209 512.158 636.306 511.969 636.306 511.699V511.642C636.306 510.941 636.115 510.397 635.731 510.009C635.352 509.62 634.777 509.426 634.005 509.426C633.205 509.426 632.578 509.601 632.123 509.952C631.669 510.302 631.349 510.676 631.164 511.074L629.574 510.506C629.858 509.843 630.236 509.327 630.71 508.957C631.188 508.583 631.709 508.323 632.272 508.176C632.841 508.025 633.399 507.949 633.949 507.949C634.299 507.949 634.701 507.991 635.156 508.077C635.615 508.157 636.058 508.325 636.484 508.581C636.915 508.837 637.272 509.223 637.556 509.739C637.841 510.255 637.983 510.946 637.983 511.812V519H636.306V517.523H636.221C636.108 517.759 635.918 518.013 635.653 518.283C635.388 518.553 635.035 518.782 634.595 518.972C634.154 519.161 633.617 519.256 632.983 519.256ZM633.238 517.75C633.901 517.75 634.46 517.62 634.914 517.359C635.374 517.099 635.719 516.763 635.951 516.351C636.188 515.939 636.306 515.506 636.306 515.051V513.517C636.235 513.602 636.079 513.68 635.838 513.751C635.601 513.818 635.326 513.877 635.014 513.929C634.706 513.976 634.405 514.019 634.112 514.057C633.823 514.09 633.589 514.118 633.409 514.142C632.973 514.199 632.566 514.291 632.187 514.419C631.813 514.542 631.51 514.729 631.278 514.98C631.051 515.226 630.937 515.562 630.937 515.989C630.937 516.571 631.153 517.011 631.583 517.31C632.019 517.603 632.571 517.75 633.238 517.75ZM641.042 519V508.091H642.661V509.795H642.803C643.031 509.213 643.397 508.761 643.904 508.439C644.411 508.112 645.019 507.949 645.729 507.949C646.449 507.949 647.048 508.112 647.526 508.439C648.009 508.761 648.386 509.213 648.656 509.795H648.769C649.049 509.232 649.468 508.785 650.026 508.453C650.585 508.117 651.255 507.949 652.036 507.949C653.012 507.949 653.809 508.254 654.43 508.865C655.05 509.471 655.36 510.416 655.36 511.699V519H653.684V511.699C653.684 510.894 653.464 510.319 653.023 509.973C652.583 509.627 652.065 509.455 651.468 509.455C650.701 509.455 650.107 509.687 649.685 510.151C649.264 510.61 649.053 511.192 649.053 511.898V519H647.349V511.528C647.349 510.908 647.147 510.409 646.745 510.03C646.343 509.646 645.824 509.455 645.19 509.455C644.754 509.455 644.347 509.571 643.968 509.803C643.594 510.035 643.291 510.357 643.059 510.768C642.832 511.176 642.718 511.647 642.718 512.182V519H641.042ZM661.635 519.256C660.944 519.256 660.316 519.125 659.753 518.865C659.189 518.6 658.742 518.219 658.411 517.722C658.079 517.22 657.913 516.614 657.913 515.903C657.913 515.278 658.036 514.772 658.283 514.384C658.529 513.991 658.858 513.683 659.27 513.46C659.682 513.238 660.136 513.072 660.634 512.963C661.135 512.849 661.64 512.759 662.146 512.693C662.809 512.608 663.347 512.544 663.759 512.501C664.175 512.454 664.478 512.376 664.668 512.267C664.862 512.158 664.959 511.969 664.959 511.699V511.642C664.959 510.941 664.767 510.397 664.384 510.009C664.005 509.62 663.429 509.426 662.658 509.426C661.857 509.426 661.23 509.601 660.776 509.952C660.321 510.302 660.001 510.676 659.817 511.074L658.226 510.506C658.51 509.843 658.889 509.327 659.362 508.957C659.84 508.583 660.361 508.323 660.925 508.176C661.493 508.025 662.052 507.949 662.601 507.949C662.951 507.949 663.354 507.991 663.808 508.077C664.268 508.157 664.71 508.325 665.136 508.581C665.567 508.837 665.925 509.223 666.209 509.739C666.493 510.255 666.635 510.946 666.635 511.812V519H664.959V517.523H664.874C664.76 517.759 664.571 518.013 664.305 518.283C664.04 518.553 663.688 518.782 663.247 518.972C662.807 519.161 662.269 519.256 661.635 519.256ZM661.891 517.75C662.554 517.75 663.112 517.62 663.567 517.359C664.026 517.099 664.372 516.763 664.604 516.351C664.84 515.939 664.959 515.506 664.959 515.051V513.517C664.888 513.602 664.732 513.68 664.49 513.751C664.253 513.818 663.979 513.877 663.666 513.929C663.358 513.976 663.058 514.019 662.764 514.057C662.475 514.09 662.241 514.118 662.061 514.142C661.625 514.199 661.218 514.291 660.839 514.419C660.465 514.542 660.162 514.729 659.93 514.98C659.703 515.226 659.589 515.562 659.589 515.989C659.589 516.571 659.805 517.011 660.236 517.31C660.671 517.603 661.223 517.75 661.891 517.75ZM674.439 508.091V509.511H668.785V508.091H674.439ZM670.433 505.477H672.109V515.875C672.109 516.348 672.178 516.704 672.315 516.94C672.457 517.172 672.637 517.329 672.855 517.409C673.077 517.485 673.312 517.523 673.558 517.523C673.743 517.523 673.894 517.513 674.012 517.494C674.131 517.471 674.225 517.452 674.297 517.438L674.637 518.943C674.524 518.986 674.365 519.028 674.162 519.071C673.958 519.118 673.7 519.142 673.387 519.142C672.914 519.142 672.45 519.04 671.995 518.837C671.546 518.633 671.172 518.323 670.873 517.906C670.58 517.49 670.433 516.964 670.433 516.33V505.477ZM676.96 519V508.091H678.636V519H676.96ZM677.812 506.273C677.485 506.273 677.204 506.161 676.967 505.939C676.735 505.716 676.619 505.449 676.619 505.136C676.619 504.824 676.735 504.556 676.967 504.334C677.204 504.111 677.485 504 677.812 504C678.139 504 678.418 504.111 678.65 504.334C678.887 504.556 679.005 504.824 679.005 505.136C679.005 505.449 678.887 505.716 678.65 505.939C678.418 506.161 678.139 506.273 677.812 506.273ZM686.138 519.227C685.115 519.227 684.234 518.986 683.496 518.503C682.757 518.02 682.189 517.355 681.791 516.507C681.393 515.66 681.195 514.691 681.195 513.602C681.195 512.494 681.398 511.517 681.805 510.669C682.217 509.817 682.79 509.152 683.524 508.673C684.263 508.19 685.125 507.949 686.109 507.949C686.876 507.949 687.568 508.091 688.183 508.375C688.799 508.659 689.303 509.057 689.696 509.568C690.089 510.08 690.333 510.676 690.428 511.358H688.751C688.624 510.861 688.339 510.42 687.899 510.037C687.464 509.649 686.876 509.455 686.138 509.455C685.484 509.455 684.911 509.625 684.419 509.966C683.931 510.302 683.55 510.778 683.276 511.393C683.006 512.004 682.871 512.722 682.871 513.545C682.871 514.388 683.003 515.122 683.268 515.747C683.538 516.372 683.917 516.857 684.405 517.203C684.897 517.549 685.475 517.722 686.138 517.722C686.573 517.722 686.969 517.646 687.324 517.494C687.679 517.343 687.98 517.125 688.226 516.841C688.472 516.557 688.647 516.216 688.751 515.818H690.428C690.333 516.462 690.098 517.042 689.724 517.558C689.355 518.07 688.865 518.477 688.254 518.78C687.648 519.078 686.943 519.227 686.138 519.227ZM703.077 519.227C702.026 519.227 701.119 518.995 700.357 518.531C699.599 518.062 699.014 517.409 698.602 516.571C698.195 515.728 697.991 514.748 697.991 513.631C697.991 512.513 698.195 511.528 698.602 510.676C699.014 509.819 699.587 509.152 700.321 508.673C701.06 508.19 701.921 507.949 702.906 507.949C703.474 507.949 704.036 508.044 704.589 508.233C705.143 508.422 705.648 508.73 706.102 509.156C706.557 509.578 706.919 510.136 707.189 510.832C707.459 511.528 707.594 512.385 707.594 513.403V514.114H699.185V512.665H705.889C705.889 512.049 705.766 511.5 705.52 511.017C705.278 510.534 704.933 510.153 704.483 509.874C704.038 509.594 703.512 509.455 702.906 509.455C702.239 509.455 701.661 509.62 701.173 509.952C700.69 510.278 700.319 510.705 700.058 511.23C699.798 511.756 699.668 512.319 699.668 512.92V513.886C699.668 514.71 699.81 515.409 700.094 515.982C700.383 516.55 700.783 516.983 701.294 517.281C701.805 517.575 702.4 517.722 703.077 517.722C703.517 517.722 703.915 517.66 704.27 517.537C704.63 517.409 704.94 517.22 705.2 516.969C705.461 516.713 705.662 516.396 705.804 516.017L707.423 516.472C707.253 517.021 706.966 517.504 706.564 517.92C706.161 518.332 705.664 518.654 705.072 518.886C704.481 519.114 703.815 519.227 703.077 519.227ZM715.001 508.091V509.511H709.121V508.091H715.001ZM710.882 519V506.585C710.882 505.96 711.029 505.439 711.322 505.023C711.616 504.606 711.997 504.294 712.466 504.085C712.935 503.877 713.429 503.773 713.95 503.773C714.362 503.773 714.698 503.806 714.959 503.872C715.219 503.938 715.413 504 715.541 504.057L715.058 505.506C714.973 505.477 714.855 505.442 714.703 505.399C714.556 505.357 714.362 505.335 714.121 505.335C713.567 505.335 713.167 505.475 712.92 505.754C712.679 506.034 712.558 506.443 712.558 506.983V519H710.882ZM722.208 508.091V509.511H716.328V508.091H722.208ZM718.089 519V506.585C718.089 505.96 718.236 505.439 718.529 505.023C718.823 504.606 719.204 504.294 719.673 504.085C720.142 503.877 720.636 503.773 721.157 503.773C721.569 503.773 721.905 503.806 722.166 503.872C722.426 503.938 722.62 504 722.748 504.057L722.265 505.506C722.18 505.477 722.062 505.442 721.91 505.399C721.763 505.357 721.569 505.335 721.328 505.335C720.774 505.335 720.374 505.475 720.127 505.754C719.886 506.034 719.765 506.443 719.765 506.983V519H718.089ZM728.682 519.227C727.631 519.227 726.724 518.995 725.962 518.531C725.204 518.062 724.62 517.409 724.208 516.571C723.801 515.728 723.597 514.748 723.597 513.631C723.597 512.513 723.801 511.528 724.208 510.676C724.62 509.819 725.193 509.152 725.926 508.673C726.665 508.19 727.527 507.949 728.512 507.949C729.08 507.949 729.641 508.044 730.195 508.233C730.749 508.422 731.253 508.73 731.708 509.156C732.162 509.578 732.525 510.136 732.794 510.832C733.064 511.528 733.199 512.385 733.199 513.403V514.114H724.79V512.665H731.495C731.495 512.049 731.372 511.5 731.125 511.017C730.884 510.534 730.538 510.153 730.088 509.874C729.643 509.594 729.118 509.455 728.512 509.455C727.844 509.455 727.266 509.62 726.779 509.952C726.296 510.278 725.924 510.705 725.664 511.23C725.403 511.756 725.273 512.319 725.273 512.92V513.886C725.273 514.71 725.415 515.409 725.699 515.982C725.988 516.55 726.388 516.983 726.9 517.281C727.411 517.575 728.005 517.722 728.682 517.722C729.123 517.722 729.52 517.66 729.875 517.537C730.235 517.409 730.545 517.22 730.806 516.969C731.066 516.713 731.267 516.396 731.409 516.017L733.029 516.472C732.858 517.021 732.572 517.504 732.169 517.92C731.767 518.332 731.27 518.654 730.678 518.886C730.086 519.114 729.421 519.227 728.682 519.227ZM740.181 519.227C739.158 519.227 738.277 518.986 737.539 518.503C736.8 518.02 736.232 517.355 735.834 516.507C735.436 515.66 735.238 514.691 735.238 513.602C735.238 512.494 735.441 511.517 735.848 510.669C736.26 509.817 736.833 509.152 737.567 508.673C738.306 508.19 739.167 507.949 740.152 507.949C740.919 507.949 741.611 508.091 742.226 508.375C742.842 508.659 743.346 509.057 743.739 509.568C744.132 510.08 744.376 510.676 744.471 511.358H742.794C742.667 510.861 742.382 510.42 741.942 510.037C741.507 509.649 740.919 509.455 740.181 509.455C739.527 509.455 738.954 509.625 738.462 509.966C737.974 510.302 737.593 510.778 737.319 511.393C737.049 512.004 736.914 512.722 736.914 513.545C736.914 514.388 737.046 515.122 737.311 515.747C737.581 516.372 737.96 516.857 738.448 517.203C738.94 517.549 739.518 517.722 740.181 517.722C740.616 517.722 741.012 517.646 741.367 517.494C741.722 517.343 742.023 517.125 742.269 516.841C742.515 516.557 742.69 516.216 742.794 515.818H744.471C744.376 516.462 744.141 517.042 743.767 517.558C743.398 518.07 742.908 518.477 742.297 518.78C741.691 519.078 740.986 519.227 740.181 519.227ZM751.665 508.091V509.511H746.012V508.091H751.665ZM747.659 505.477H749.336V515.875C749.336 516.348 749.404 516.704 749.542 516.94C749.684 517.172 749.864 517.329 750.081 517.409C750.304 517.485 750.538 517.523 750.784 517.523C750.969 517.523 751.121 517.513 751.239 517.494C751.357 517.471 751.452 517.452 751.523 517.438L751.864 518.943C751.75 518.986 751.592 519.028 751.388 519.071C751.185 519.118 750.926 519.142 750.614 519.142C750.141 519.142 749.676 519.04 749.222 518.837C748.772 518.633 748.398 518.323 748.1 517.906C747.806 517.49 747.659 516.964 747.659 516.33V505.477Z" fill="black"/>
</svg>
