<svg width="1024" height="1024" viewBox="0 0 1024 1024" fill="none" xmlns="http://www.w3.org/2000/svg">
<path d="M140.5 111.72C150.334 111.72 179.817 110.704 169.983 110.704" stroke="black" stroke-opacity="0.5" stroke-width="3" stroke-linecap="round"/>
<path d="M157.784 109.687C150.983 116.913 155.536 132.875 147.617 138.154" stroke="black" stroke-opacity="0.5" stroke-width="3" stroke-linecap="round"/>
<path d="M166.933 114.77C165.234 120.293 165.917 126.324 165.917 132.054" stroke="black" stroke-opacity="0.5" stroke-width="3" stroke-linecap="round"/>
<path d="M165.916 124.937C169.705 121.527 175.042 122.581 179.133 119.854" stroke="black" stroke-opacity="0.5" stroke-width="3" stroke-linecap="round"/>
<path d="M180.151 113.754C178.571 114.148 178.117 130.329 178.117 133.07" stroke="black" stroke-opacity="0.5" stroke-width="3" stroke-linecap="round"/>
<path d="M187.266 118.837C191.331 115.178 198.56 116.182 203.532 116.804" stroke="black" stroke-opacity="0.5" stroke-width="3" stroke-linecap="round"/>
<path d="M187.266 115.787C186.523 122.468 183.394 128.218 187.04 135.104C188.275 137.437 200.293 133.07 203.532 133.07" stroke="black" stroke-opacity="0.5" stroke-width="3" stroke-linecap="round"/>
<path d="M185.232 125.954C192.984 125.954 203.688 125.367 210.649 121.887" stroke="black" stroke-opacity="0.5" stroke-width="3" stroke-linecap="round"/>
<path d="M256.399 110.704C253.016 110.903 248.695 113.285 247.475 116.578C246.379 119.537 251.203 120.348 253.293 120.87C259.883 122.518 246.189 135.082 242.166 133.07" stroke="black" stroke-opacity="0.5" stroke-width="3" stroke-linecap="round"/>
<path d="M260.467 113.754C264.551 110.123 282.198 111.72 276.733 111.72" stroke="black" stroke-opacity="0.5" stroke-width="3" stroke-linecap="round"/>
<path d="M265.55 111.72C259.943 113.963 260.179 127.159 260.467 132.054C260.623 134.71 274.628 130.02 276.733 130.02" stroke="black" stroke-opacity="0.5" stroke-width="3" stroke-linecap="round"/>
<path d="M261.482 125.954C266.178 122.197 274.403 123.56 279.782 120.87" stroke="black" stroke-opacity="0.5" stroke-width="3" stroke-linecap="round"/>
<path d="M293.001 111.72C287.264 112.995 287.062 124.082 290.459 127.479C294.626 131.646 299.411 126.815 303.167 124.937" stroke="black" stroke-opacity="0.5" stroke-width="3" stroke-linecap="round"/>
<path d="M308.25 113.754C301.332 115.291 301.726 128.239 310.283 127.987C318.231 127.753 312.928 115.313 308.25 113.754Z" stroke="black" stroke-opacity="0.5" stroke-width="3" stroke-linecap="round"/>
<path d="M317.4 133.07C317.4 129.419 317.4 125.997 317.4 122.339C317.4 118.086 316.852 107.352 320.902 116.013C321.703 117.727 330.066 133.335 330.56 128.891C331.203 123.1 332.65 117.59 332.65 111.72" stroke="black" stroke-opacity="0.5" stroke-width="3" stroke-linecap="round"/>
<path d="M342.816 106.637C340.744 111.299 339.389 117.727 338.862 122.734C338.631 124.933 339.853 129.977 337.732 131.037" stroke="black" stroke-opacity="0.5" stroke-width="3" stroke-linecap="round"/>
<path d="M339.766 109.687C346.093 109.054 351.773 107.051 350.723 116.239C349.574 126.29 347.57 128.884 339.766 134.087" stroke="black" stroke-opacity="0.5" stroke-width="3" stroke-linecap="round"/>
<path d="M398.734 103.587C397.483 108.59 391.199 118.137 392.69 123.355C393.147 124.955 404.768 120.87 406.867 120.87" stroke="black" stroke-opacity="0.5" stroke-width="3" stroke-linecap="round"/>
<path d="M409.916 125.954C410.267 122.446 412.535 118.666 413.474 115.222C413.709 114.361 416.648 104.106 416.807 104.265C422.182 109.64 418.049 122.531 418.049 129.004" stroke="black" stroke-opacity="0.5" stroke-width="3" stroke-linecap="round"/>
<path d="M409.916 120.87C410.111 119.309 422.629 118.495 425.166 116.804" stroke="black" stroke-opacity="0.5" stroke-width="3" stroke-linecap="round"/>
<path d="M430.25 108.67C430.25 113.943 429.397 118.353 428.273 123.412C427.723 125.885 432.221 116.587 432.848 115.505C434.868 112.016 437.66 119.38 438.157 118.385C440.28 114.139 440.483 109.599 443.467 105.62" stroke="black" stroke-opacity="0.5" stroke-width="3" stroke-linecap="round"/>
<path d="M471.932 103.587C467.559 106.446 461.331 109.239 460.919 115.222C460.764 117.464 462.742 123.538 466.058 122.678C474.562 120.473 472.761 109.775 468.882 104.604" stroke="black" stroke-opacity="0.5" stroke-width="3" stroke-linecap="round"/>
<path d="M485.15 100.537C482.628 108.101 480.066 115.889 480.066 123.92" stroke="black" stroke-opacity="0.5" stroke-width="3" stroke-linecap="round"/>
<path d="M483.117 104.604C487.353 100.838 493.392 102.195 498.367 100.537" stroke="black" stroke-opacity="0.5" stroke-width="3" stroke-linecap="round"/>
<path d="M486.167 110.704C484.685 110.889 494.979 110.704 497.35 110.704" stroke="black" stroke-opacity="0.5" stroke-width="3" stroke-linecap="round"/>
<path d="M164.9 147.304C164.9 153.419 161.2 163.528 157.783 168.654" stroke="black" stroke-opacity="0.5" stroke-width="3" stroke-linecap="round"/>
<path d="M164.9 147.304C181.669 147.974 162.494 162.071 157.783 165.604" stroke="black" stroke-opacity="0.5" stroke-width="3" stroke-linecap="round"/>
<path d="M174.05 148.32C173.725 154.496 171 166.62 171 166.62" stroke="black" stroke-opacity="0.5" stroke-width="3" stroke-linecap="round"/>
<path d="M177.1 152.387C179.547 150.076 183.072 145.844 186.815 146.343C198.382 147.886 188.943 153.147 182.805 154.929C179.253 155.96 172.596 155.522 176.309 160.52C178.359 163.28 180.206 167.157 183.2 168.654" stroke="black" stroke-opacity="0.5" stroke-width="3" stroke-linecap="round"/>
<path d="M190.316 148.32C196.653 147.687 203.22 146.072 209.633 145.27" stroke="black" stroke-opacity="0.5" stroke-width="3" stroke-linecap="round"/>
<path d="M196.415 146.287C192.022 151.12 187.108 161.208 188.339 167.976C188.828 170.666 201.98 165.914 203.532 165.604" stroke="black" stroke-opacity="0.5" stroke-width="3" stroke-linecap="round"/>
<path d="M188.283 158.487C188.525 156.554 205.672 155.437 208.617 155.437" stroke="black" stroke-opacity="0.5" stroke-width="3" stroke-linecap="round"/>
<path d="M210.65 162.554C210.65 168.904 214.074 148.895 219.574 145.722C221.266 144.746 223.39 163.508 221.834 166.62" stroke="black" stroke-opacity="0.5" stroke-width="3" stroke-linecap="round"/>
<path d="M210.65 159.504C215.226 158.995 220.041 155.389 224.884 154.42" stroke="black" stroke-opacity="0.5" stroke-width="3" stroke-linecap="round"/>
<path d="M229.967 162.554C229.967 157.68 230.224 153.185 232 148.546C234.949 140.846 235.181 142.074 237.592 148.772C240.102 155.746 240.106 145.496 244.596 145.496C245.227 145.496 245.547 158.46 246.233 160.52" stroke="black" stroke-opacity="0.5" stroke-width="3" stroke-linecap="round"/>
<path d="M257.417 146.287C257.167 150.785 247.99 167.498 252.334 169.67" stroke="black" stroke-opacity="0.5" stroke-width="3" stroke-linecap="round"/>
<path d="M261.482 165.604C261.482 161.713 262.82 158.087 264.081 154.42C265.32 150.814 269.772 139.961 270.858 148.546C271.417 152.959 272.13 157.346 272.666 161.763C273.087 165.237 273.465 164.949 274.247 161.932C275.061 158.793 275.849 149.779 278.766 148.32" stroke="black" stroke-opacity="0.5" stroke-width="3" stroke-linecap="round"/>
<path d="M294.016 141.204C289.766 145.454 277.104 158.761 283.85 165.152C287.205 168.33 294.81 158.494 290.458 157.527C282.458 155.749 290.263 153.736 294.468 152.895C300.637 151.661 298.083 161.076 298.083 165.604" stroke="black" stroke-opacity="0.5" stroke-width="3" stroke-linecap="round"/>
<path d="M334.683 142.22C331.957 148.012 329.6 156.221 329.6 162.554" stroke="black" stroke-opacity="0.5" stroke-width="3" stroke-linecap="round"/>
<path d="M349.934 145.27C344.988 146.469 334.889 149.487 343.834 154.194C346.176 155.427 347.551 156.659 345.867 159.278C342.645 164.29 337.555 162.952 332.65 164.587" stroke="black" stroke-opacity="0.5" stroke-width="3" stroke-linecap="round"/>
<path d="M378.4 147.304C381.32 147.304 383.366 145.907 386.195 145.496C391.114 144.782 395.904 145.47 400.767 144.254" stroke="black" stroke-opacity="0.5" stroke-width="3" stroke-linecap="round"/>
<path d="M389.582 143.237C386.95 148.502 385.516 153.651 385.516 159.504" stroke="black" stroke-opacity="0.5" stroke-width="3" stroke-linecap="round"/>
<path d="M404.833 140.187C404.478 143.735 402.043 146.839 401.557 150.58C401.119 153.959 400.571 157.235 399.75 160.52" stroke="black" stroke-opacity="0.5" stroke-width="3" stroke-linecap="round"/>
<path d="M402.801 148.32C403.014 150.024 409.2 147.304 410.934 147.304" stroke="black" stroke-opacity="0.5" stroke-width="3" stroke-linecap="round"/>
<path d="M418.049 137.137C416.08 143.291 411.949 151.091 411.949 157.47" stroke="black" stroke-opacity="0.5" stroke-width="3" stroke-linecap="round"/>
<path d="M413.982 158.487C416.361 160.337 422.514 144.474 423.641 142.22C426.351 136.8 427.511 139.116 426.973 144.254C426.265 151.023 423.216 156.972 422.116 163.57" stroke="black" stroke-opacity="0.5" stroke-width="3" stroke-linecap="round"/>
<path d="M417.033 156.454C417.452 152.686 431.229 150.881 434.317 149.337" stroke="black" stroke-opacity="0.5" stroke-width="3" stroke-linecap="round"/>
<path d="M435.334 143.237C439.998 142.719 444.879 140.187 449.567 140.187" stroke="black" stroke-opacity="0.5" stroke-width="3" stroke-linecap="round"/>
<path d="M442.451 139.17C441.902 145.757 437.367 152.044 437.367 158.487" stroke="black" stroke-opacity="0.5" stroke-width="3" stroke-linecap="round"/>
<path d="M479.05 140.187C479.05 147.015 473.967 152.807 473.967 159.504" stroke="black" stroke-opacity="0.5" stroke-width="3" stroke-linecap="round"/>
<path d="M488.2 136.12C484.09 141.6 482.1 152.573 482.1 159.504" stroke="black" stroke-opacity="0.5" stroke-width="3" stroke-linecap="round"/>
<path d="M486.166 142.22C488.558 137.702 494.833 136.62 499.383 135.104" stroke="black" stroke-opacity="0.5" stroke-width="3" stroke-linecap="round"/>
<path d="M485.15 145.27C491.782 145.27 497.841 142.22 504.467 142.22" stroke="black" stroke-opacity="0.5" stroke-width="3" stroke-linecap="round"/>
<path d="M165.917 183.904C151.428 183.904 150.097 208.589 164.9 201.187" stroke="black" stroke-opacity="0.5" stroke-width="3" stroke-linecap="round"/>
<path d="M179.132 188.987C171.478 188.987 171.99 200.96 175.292 199.944C180.934 198.208 183.876 190.004 176.082 190.004" stroke="black" stroke-opacity="0.5" stroke-width="3" stroke-linecap="round"/>
<path d="M182.184 201.187C182.515 198.207 185.801 193.72 187.267 191.02C188.406 188.922 190.353 187.748 191.334 185.542C191.844 184.394 194.04 193.468 194.384 194.522C195.052 196.576 195.796 198.604 196.191 200.735C196.212 200.847 196.333 203.785 196.643 203.785C197.625 203.785 198.353 198.173 198.45 197.516C199.162 192.714 200.609 188.737 202.517 184.92" stroke="black" stroke-opacity="0.5" stroke-width="3" stroke-linecap="round"/>
<path d="M208.617 184.92C214.16 184.722 219.587 183.904 225.166 183.904C226.398 183.904 232.349 183.904 227.934 183.904" stroke="black" stroke-opacity="0.5" stroke-width="3" stroke-linecap="round"/>
<path d="M220.817 182.887C218.255 186.018 213.779 201.656 214.717 201.187" stroke="black" stroke-opacity="0.5" stroke-width="3" stroke-linecap="round"/>
<path d="M230.984 185.937C228.517 189.02 227.216 196.223 225.9 200.17" stroke="black" stroke-opacity="0.5" stroke-width="3" stroke-linecap="round"/>
<path d="M233.016 200.17C234.783 196.415 235.411 192.097 237.082 188.196C240.104 181.146 239.627 192.046 240.358 194.635C242.125 200.894 243.027 204.262 244.425 195.878C245.105 191.798 246.993 186.321 249.282 182.887" stroke="black" stroke-opacity="0.5" stroke-width="3" stroke-linecap="round"/>
<path d="M260.466 178.82C257.599 179.179 250.155 196.104 255.891 196.104C261.807 196.104 263.865 185.922 266.566 181.87" stroke="black" stroke-opacity="0.5" stroke-width="3" stroke-linecap="round"/>
<path d="M273.682 177.804C273.028 184.348 267.587 189.989 265.549 196.104" stroke="black" stroke-opacity="0.5" stroke-width="3" stroke-linecap="round"/>
<path d="M277.75 178.82C282.809 178.36 288.03 177.781 293 176.787" stroke="black" stroke-opacity="0.5" stroke-width="3" stroke-linecap="round"/>
<path d="M283.849 177.804C282.421 183.696 282.169 190.998 278.766 196.104" stroke="black" stroke-opacity="0.5" stroke-width="3" stroke-linecap="round"/>
<path d="M296.051 180.854C297.855 183.672 298.739 186.592 301.134 188.987" stroke="black" stroke-opacity="0.5" stroke-width="3" stroke-linecap="round"/>
<path d="M311.3 177.804C305.62 183.484 302.099 191.277 297.293 197.685C294.731 201.101 290.733 207.404 286.9 209.32" stroke="black" stroke-opacity="0.5" stroke-width="3" stroke-linecap="round"/>
<path d="M347.9 182.887C341.907 182.887 336.983 184.154 335.474 190.794C333.498 199.488 339.132 195.637 343.833 194.07" stroke="black" stroke-opacity="0.5" stroke-width="3" stroke-linecap="round"/>
<path d="M348.916 195.087C354.105 194.438 351.677 180.542 356.485 178.481C357.558 178.021 356.033 192.133 356.033 194.07" stroke="black" stroke-opacity="0.5" stroke-width="3" stroke-linecap="round"/>
<path d="M347.9 191.02C351.686 191.02 355.251 188.987 359.084 188.987" stroke="black" stroke-opacity="0.5" stroke-width="3" stroke-linecap="round"/>
<path d="M361.117 194.07C361.998 200.235 365.095 171 367.782 176.617C368.755 178.651 373.833 190.78 373.938 190.568C377.516 183.413 379.256 175.418 383.484 168.654" stroke="black" stroke-opacity="0.5" stroke-width="3" stroke-linecap="round"/>
<path d="M403.816 172.72C402.965 177.828 400.789 183.432 399.241 188.422C398.889 189.554 397.938 195.531 396.699 193.054" stroke="black" stroke-opacity="0.5" stroke-width="3" stroke-linecap="round"/>
<path d="M400.766 179.837C402.154 178.53 408.25 174.565 409.69 177.804C410.894 180.512 402.374 185.546 402.686 185.711C405.665 187.288 410.082 185.293 406.414 190.794C404.34 193.905 400.152 196.986 396.699 198.137" stroke="black" stroke-opacity="0.5" stroke-width="3" stroke-linecap="round"/>
<path d="M427.201 171.704C415.815 172.842 415.731 181.153 413.193 191.02C411.624 197.124 415.55 194.112 418.616 192.489C420.651 191.411 425.323 190.709 426.184 188.987" stroke="black" stroke-opacity="0.5" stroke-width="3" stroke-linecap="round"/>
<path d="M425.167 178.82C421.019 178.98 417.885 181.019 415 183.904" stroke="black" stroke-opacity="0.5" stroke-width="3" stroke-linecap="round"/>
<path d="M149.649 220.504C149.082 225.605 145.496 232.915 143.549 237.674C143.099 238.775 139.482 249.157 139.482 244.904" stroke="black" stroke-opacity="0.5" stroke-width="3" stroke-linecap="round"/>
<path d="M144.567 230.67C146.244 229.122 158.228 220.305 157.557 222.989C156.563 226.967 154.263 230.979 151.175 233.664C149.7 234.947 144.645 237.335 146.6 237.335C148.768 237.335 159.481 234.646 155.524 239.82C152.226 244.133 145.555 244.904 140.5 244.904" stroke="black" stroke-opacity="0.5" stroke-width="3" stroke-linecap="round"/>
<path d="M171.001 218.47C167.977 224.517 162.867 231.831 162.867 238.804" stroke="black" stroke-opacity="0.5" stroke-width="3" stroke-linecap="round"/>
<path d="M168.967 224.57C171.086 223.379 171.86 221.994 174.558 222.594C177.352 223.214 176.364 226.565 175.067 227.677C173.404 229.102 168.628 229.681 169.983 231.913C171.18 233.884 173.274 238.924 175.067 239.82" stroke="black" stroke-opacity="0.5" stroke-width="3" stroke-linecap="round"/>
<path d="M185.233 224.57C182.703 226.207 177.831 237.793 183.764 236.714C189.574 235.657 188.68 229.234 186.249 225.587" stroke="black" stroke-opacity="0.5" stroke-width="3" stroke-linecap="round"/>
<path d="M200.484 217.454C198.904 223.771 198.302 230.968 195.4 236.77" stroke="black" stroke-opacity="0.5" stroke-width="3" stroke-linecap="round"/>
<path d="M212.683 220.504C208.282 222.834 202.251 225.825 198.562 229.145C198.429 229.265 206.289 237.854 207.599 239.82" stroke="black" stroke-opacity="0.5" stroke-width="3" stroke-linecap="round"/>
<path d="M212.684 223.554C218.766 223.554 226.81 224.98 232 221.52" stroke="black" stroke-opacity="0.5" stroke-width="3" stroke-linecap="round"/>
<path d="M214.717 221.52C213.632 226.948 209.59 232.094 210.707 238.239C211.278 241.38 217.7 237.787 219.801 237.787" stroke="black" stroke-opacity="0.5" stroke-width="3" stroke-linecap="round"/>
<path d="M211.666 234.737C215.329 231.44 224.015 229.654 228.949 229.654" stroke="black" stroke-opacity="0.5" stroke-width="3" stroke-linecap="round"/>
<path d="M232 235.754C232 231.607 233.932 227.793 234.824 223.78C236.447 216.477 237.779 223.711 239.117 227.056C240.934 231.599 241.953 236.055 244.765 229.936C247.409 224.181 247.762 217.702 251.317 212.37" stroke="black" stroke-opacity="0.5" stroke-width="3" stroke-linecap="round"/>
<path d="M252.332 229.654C249.981 232.299 247.127 237.257 246.232 240.837" stroke="black" stroke-opacity="0.5" stroke-width="3" stroke-linecap="round"/>
<path d="M317.401 217.454C313.639 223.624 311.301 228.383 311.301 235.754" stroke="black" stroke-opacity="0.5" stroke-width="3" stroke-linecap="round"/>
<path d="M318.416 219.487C323.409 219.21 328.703 217.264 333.666 216.437" stroke="black" stroke-opacity="0.5" stroke-width="3" stroke-linecap="round"/>
<path d="M324.517 218.47C323.221 223.653 319.434 228.106 319.434 233.72" stroke="black" stroke-opacity="0.5" stroke-width="3" stroke-linecap="round"/>
<path d="M361.117 215.42C361.117 219.223 361.117 223.026 361.117 226.829C361.117 234.352 364.293 223.932 365.636 221.125C368.295 215.564 368.84 225.11 371.284 226.942C371.968 227.455 373.251 221.457 373.317 221.012C373.672 218.619 374.611 216.624 375.351 214.404" stroke="black" stroke-opacity="0.5" stroke-width="3" stroke-linecap="round"/>
<path d="M383.9 215.088C381.549 220.312 380.732 237.708 380.732 231.979" stroke="black" stroke-opacity="0.5" stroke-width="3" stroke-linecap="round"/>
<path d="M392.346 212.976C391.488 214.907 386.332 230.765 389.179 230.924C392.045 231.083 401.648 230.267 402.903 227.756" stroke="black" stroke-opacity="0.5" stroke-width="3" stroke-linecap="round"/>
<path d="M413.461 212.976C412.067 216.113 411.908 219.628 410.822 222.888C410.277 224.521 407.73 227.493 408.241 229.281C408.712 230.928 423.183 226.023 425.074 225.645" stroke="black" stroke-opacity="0.5" stroke-width="3" stroke-linecap="round"/>
<path d="M454.634 211.92C451.366 213.01 447.244 224.177 447.244 227.756" stroke="black" stroke-opacity="0.5" stroke-width="3" stroke-linecap="round"/>
<path d="M449.355 216.143C449.808 213.879 458.809 207.796 459.853 211.451C461.436 216.992 451.166 220.589 447.947 222.888C446.166 224.161 452.245 222.048 454.399 221.657C455.938 221.377 459.594 220.661 457.801 223.299C454.673 227.899 446.277 228.632 444.076 233.035" stroke="black" stroke-opacity="0.5" stroke-width="3" stroke-linecap="round"/>
<path d="M462.023 209.809C465.943 206.674 475.215 208.753 479.971 208.753" stroke="black" stroke-opacity="0.5" stroke-width="3" stroke-linecap="round"/>
<path d="M468.359 211.92C464.219 216.889 460.969 222.139 460.969 228.577C460.969 232.922 470.523 227.739 473.637 226.701" stroke="black" stroke-opacity="0.5" stroke-width="3" stroke-linecap="round"/>
<path d="M464.135 223.533C470.342 221.538 476.842 219.829 483.138 218.255" stroke="black" stroke-opacity="0.5" stroke-width="3" stroke-linecap="round"/>
<path d="M168.534 259.428C168.021 264.045 163.668 268.745 162.199 273.152" stroke="black" stroke-opacity="0.5" stroke-width="3" stroke-linecap="round"/>
<path d="M166.422 261.54C169.933 261.149 172.526 256.826 176.921 257.375C185.399 258.435 173.848 265.744 171.701 266.818C165.137 270.1 177.918 265.68 177.918 271.569C177.918 276.288 167.751 279.166 164.311 280.543" stroke="black" stroke-opacity="0.5" stroke-width="3" stroke-linecap="round"/>
<path d="M189.648 257.316C188.989 263.25 184.206 270.474 182.258 276.319" stroke="black" stroke-opacity="0.5" stroke-width="3" stroke-linecap="round"/>
<path d="M184.369 266.818C185.76 265.427 197.429 255.293 195.923 262.067C195.428 264.297 189.765 265.512 189.765 267.463C189.765 269.938 194.834 275.585 197.038 276.32" stroke="black" stroke-opacity="0.5" stroke-width="3" stroke-linecap="round"/>
<path d="M205.483 263.651C201.092 264.139 197.401 274.303 202.55 276.085C209.112 278.356 207.594 265.59 207.594 262.595" stroke="black" stroke-opacity="0.5" stroke-width="3" stroke-linecap="round"/>
<path d="M217.097 253.094C216.644 258.079 213.485 262.817 212.405 267.757C212.121 269.056 211.818 274.915 211.818 274.208" stroke="black" stroke-opacity="0.5" stroke-width="3" stroke-linecap="round"/>
<path d="M227.655 256.261C223.658 258.142 215.085 261.358 213.989 266.29C213.441 268.756 223.27 274.127 225.543 275.264" stroke="black" stroke-opacity="0.5" stroke-width="3" stroke-linecap="round"/>
<path d="M229.766 259.428C234.174 259.428 239.551 260.342 243.49 258.372" stroke="black" stroke-opacity="0.5" stroke-width="3" stroke-linecap="round"/>
<path d="M235.044 258.372C231.607 259.747 228.463 273.074 230 276.32C231.258 278.975 245.283 274.124 247.713 273.152" stroke="black" stroke-opacity="0.5" stroke-width="3" stroke-linecap="round"/>
<path d="M227.654 268.929C231.369 268.558 234.299 265.762 238.212 265.762" stroke="black" stroke-opacity="0.5" stroke-width="3" stroke-linecap="round"/>
<path d="M248.768 272.097C249.173 268.044 249.361 263.457 250.058 259.428C250.242 258.367 251.238 252.799 252.873 254.736C257.484 260.196 261.533 266.449 265.776 272.214C266.813 273.622 267.782 277.519 268.826 274.325C270.41 269.482 270.547 264.43 271.172 259.428C271.681 255.356 274.844 246.971 278.328 244.648" stroke="black" stroke-opacity="0.5" stroke-width="3" stroke-linecap="round"/>
<path d="M234.21 289.438V296H232.534V281.455H234.21V286.795H234.352C234.608 286.232 234.991 285.785 235.503 285.453C236.019 285.117 236.705 284.949 237.562 284.949C238.306 284.949 238.957 285.098 239.516 285.396C240.074 285.69 240.508 286.142 240.815 286.753C241.128 287.359 241.284 288.131 241.284 289.068V296H239.608V289.182C239.608 288.315 239.383 287.645 238.933 287.172C238.488 286.694 237.87 286.455 237.08 286.455C236.53 286.455 236.038 286.571 235.602 286.803C235.171 287.035 234.83 287.373 234.58 287.818C234.333 288.263 234.21 288.803 234.21 289.438ZM248.924 296.227C247.873 296.227 246.967 295.995 246.204 295.531C245.447 295.062 244.862 294.409 244.45 293.571C244.043 292.728 243.839 291.748 243.839 290.631C243.839 289.513 244.043 288.528 244.45 287.676C244.862 286.819 245.435 286.152 246.169 285.673C246.907 285.19 247.769 284.949 248.754 284.949C249.322 284.949 249.883 285.044 250.437 285.233C250.991 285.422 251.495 285.73 251.95 286.156C252.404 286.578 252.767 287.136 253.037 287.832C253.306 288.528 253.441 289.385 253.441 290.403V291.114H245.032V289.665H251.737C251.737 289.049 251.614 288.5 251.368 288.017C251.126 287.534 250.78 287.153 250.331 286.874C249.886 286.594 249.36 286.455 248.754 286.455C248.086 286.455 247.509 286.62 247.021 286.952C246.538 287.278 246.166 287.705 245.906 288.23C245.645 288.756 245.515 289.319 245.515 289.92V290.886C245.515 291.71 245.657 292.409 245.941 292.982C246.23 293.55 246.63 293.983 247.142 294.281C247.653 294.575 248.247 294.722 248.924 294.722C249.365 294.722 249.762 294.66 250.118 294.537C250.477 294.409 250.788 294.22 251.048 293.969C251.308 293.713 251.51 293.396 251.652 293.017L253.271 293.472C253.1 294.021 252.814 294.504 252.412 294.92C252.009 295.332 251.512 295.654 250.92 295.886C250.328 296.114 249.663 296.227 248.924 296.227ZM257.667 281.455V296H255.991V281.455H257.667ZM262.413 281.455V296H260.737V281.455H262.413ZM269.915 296.227C268.93 296.227 268.066 295.993 267.323 295.524C266.584 295.055 266.007 294.4 265.59 293.557C265.178 292.714 264.972 291.729 264.972 290.602C264.972 289.466 265.178 288.474 265.59 287.626C266.007 286.779 266.584 286.121 267.323 285.652C268.066 285.183 268.93 284.949 269.915 284.949C270.9 284.949 271.762 285.183 272.5 285.652C273.244 286.121 273.821 286.779 274.233 287.626C274.65 288.474 274.858 289.466 274.858 290.602C274.858 291.729 274.65 292.714 274.233 293.557C273.821 294.4 273.244 295.055 272.5 295.524C271.762 295.993 270.9 296.227 269.915 296.227ZM269.915 294.722C270.663 294.722 271.279 294.53 271.762 294.146C272.245 293.763 272.602 293.259 272.834 292.634C273.066 292.009 273.182 291.331 273.182 290.602C273.182 289.873 273.066 289.194 272.834 288.564C272.602 287.934 272.245 287.425 271.762 287.037C271.279 286.649 270.663 286.455 269.915 286.455C269.167 286.455 268.551 286.649 268.069 287.037C267.586 287.425 267.228 287.934 266.996 288.564C266.764 289.194 266.648 289.873 266.648 290.602C266.648 291.331 266.764 292.009 266.996 292.634C267.228 293.259 267.586 293.763 268.069 294.146C268.551 294.53 269.167 294.722 269.915 294.722ZM279.604 291.909V291.824C279.614 290.92 279.709 290.2 279.888 289.665C280.068 289.13 280.324 288.696 280.656 288.365C280.987 288.034 281.385 287.728 281.849 287.449C282.128 287.278 282.379 287.077 282.602 286.845C282.824 286.608 282.999 286.336 283.127 286.028C283.26 285.721 283.326 285.38 283.326 285.006C283.326 284.542 283.217 284.139 282.999 283.798C282.781 283.457 282.49 283.195 282.126 283.01C281.761 282.825 281.356 282.733 280.911 282.733C280.523 282.733 280.149 282.813 279.789 282.974C279.429 283.135 279.129 283.389 278.887 283.734C278.646 284.08 278.506 284.532 278.468 285.091H276.678C276.716 284.286 276.924 283.597 277.303 283.024C277.687 282.451 278.191 282.013 278.816 281.71C279.446 281.407 280.144 281.256 280.911 281.256C281.745 281.256 282.469 281.421 283.085 281.753C283.705 282.084 284.183 282.539 284.519 283.116C284.86 283.694 285.031 284.352 285.031 285.091C285.031 285.612 284.95 286.083 284.789 286.504C284.633 286.926 284.406 287.302 284.107 287.634C283.814 287.965 283.459 288.259 283.042 288.514C282.625 288.775 282.291 289.049 282.04 289.338C281.79 289.622 281.607 289.961 281.494 290.354C281.38 290.747 281.318 291.237 281.309 291.824V291.909H279.604ZM280.513 296.114C280.163 296.114 279.862 295.988 279.612 295.737C279.361 295.486 279.235 295.186 279.235 294.835C279.235 294.485 279.361 294.184 279.612 293.933C279.862 293.682 280.163 293.557 280.513 293.557C280.864 293.557 281.165 293.682 281.415 293.933C281.666 294.184 281.792 294.485 281.792 294.835C281.792 295.067 281.733 295.28 281.614 295.474C281.501 295.669 281.347 295.825 281.153 295.943C280.963 296.057 280.75 296.114 280.513 296.114Z" fill="black"/>
<path d="M287.83 264.707C285.301 262.683 280.993 264.269 278.094 264.472C271.381 264.943 264.64 264.605 257.918 264.707C253.721 264.77 249.753 266.581 245.601 266.818C238.472 267.225 231.602 272.416 225.601 275.792C219.961 278.964 221.201 296.112 223.431 301.129C226.034 306.985 239.439 305.88 244.78 305.88C254.477 305.88 264.174 305.88 273.871 305.88C278.541 305.88 288.176 302.959 290.411 298.49C294.81 289.691 295.849 267.731 283.607 263.651" stroke="black" stroke-opacity="0.5" stroke-width="3" stroke-linecap="round"/>
<path d="M322.744 373.256C322.053 373.256 321.426 373.125 320.862 372.865C320.299 372.6 319.851 372.219 319.52 371.722C319.188 371.22 319.023 370.614 319.023 369.903C319.023 369.278 319.146 368.772 319.392 368.384C319.638 367.991 319.967 367.683 320.379 367.46C320.791 367.238 321.246 367.072 321.743 366.963C322.245 366.849 322.749 366.759 323.256 366.693C323.919 366.608 324.456 366.544 324.868 366.501C325.285 366.454 325.588 366.376 325.777 366.267C325.971 366.158 326.068 365.969 326.068 365.699V365.642C326.068 364.941 325.876 364.397 325.493 364.009C325.114 363.62 324.539 363.426 323.767 363.426C322.967 363.426 322.339 363.601 321.885 363.952C321.43 364.302 321.111 364.676 320.926 365.074L319.335 364.506C319.619 363.843 319.998 363.327 320.472 362.957C320.95 362.583 321.471 362.323 322.034 362.176C322.602 362.025 323.161 361.949 323.71 361.949C324.061 361.949 324.463 361.991 324.918 362.077C325.377 362.157 325.82 362.325 326.246 362.581C326.677 362.837 327.034 363.223 327.318 363.739C327.602 364.255 327.744 364.946 327.744 365.812V373H326.068V371.523H325.983C325.869 371.759 325.68 372.013 325.415 372.283C325.15 372.553 324.797 372.782 324.357 372.972C323.916 373.161 323.379 373.256 322.744 373.256ZM323 371.75C323.663 371.75 324.222 371.62 324.676 371.359C325.135 371.099 325.481 370.763 325.713 370.351C325.95 369.939 326.068 369.506 326.068 369.051V367.517C325.997 367.602 325.841 367.68 325.599 367.751C325.363 367.818 325.088 367.877 324.776 367.929C324.468 367.976 324.167 368.019 323.874 368.057C323.585 368.09 323.35 368.118 323.17 368.142C322.735 368.199 322.328 368.291 321.949 368.419C321.575 368.542 321.272 368.729 321.04 368.98C320.813 369.226 320.699 369.562 320.699 369.989C320.699 370.571 320.914 371.011 321.345 371.31C321.781 371.603 322.332 371.75 323 371.75ZM332.48 366.438V373H330.804V362.091H332.423V363.795H332.565C332.821 363.241 333.209 362.796 333.73 362.46C334.251 362.119 334.923 361.949 335.747 361.949C336.485 361.949 337.132 362.1 337.686 362.403C338.24 362.702 338.671 363.156 338.978 363.767C339.286 364.373 339.44 365.14 339.44 366.068V373H337.764V366.182C337.764 365.325 337.541 364.657 337.096 364.179C336.651 363.696 336.04 363.455 335.264 363.455C334.729 363.455 334.251 363.571 333.829 363.803C333.413 364.035 333.083 364.373 332.842 364.818C332.6 365.263 332.48 365.803 332.48 366.438ZM343.192 377.091C342.908 377.091 342.654 377.067 342.432 377.02C342.209 376.977 342.055 376.935 341.97 376.892L342.396 375.415C342.804 375.519 343.163 375.557 343.476 375.528C343.788 375.5 344.065 375.36 344.307 375.109C344.553 374.863 344.778 374.463 344.982 373.909L345.294 373.057L341.26 362.091H343.078L346.089 370.784H346.203L349.214 362.091H351.033L346.402 374.591C346.194 375.154 345.936 375.621 345.628 375.99C345.32 376.364 344.963 376.641 344.555 376.821C344.153 377.001 343.698 377.091 343.192 377.091ZM353.472 373V358.455H355.148V363.824H355.29C355.414 363.634 355.584 363.393 355.802 363.099C356.024 362.801 356.342 362.536 356.754 362.304C357.17 362.067 357.734 361.949 358.444 361.949C359.362 361.949 360.172 362.179 360.873 362.638C361.574 363.097 362.121 363.748 362.513 364.591C362.906 365.434 363.103 366.428 363.103 367.574C363.103 368.729 362.906 369.731 362.513 370.578C362.121 371.421 361.576 372.074 360.88 372.538C360.184 372.998 359.381 373.227 358.472 373.227C357.772 373.227 357.21 373.111 356.789 372.879C356.368 372.643 356.043 372.375 355.816 372.077C355.589 371.774 355.414 371.523 355.29 371.324H355.092V373H353.472ZM355.12 367.545C355.12 368.369 355.241 369.096 355.482 369.726C355.724 370.351 356.076 370.841 356.54 371.196C357.004 371.546 357.573 371.722 358.245 371.722C358.946 371.722 359.531 371.537 359.999 371.168C360.473 370.794 360.828 370.292 361.065 369.662C361.306 369.027 361.427 368.322 361.427 367.545C361.427 366.778 361.308 366.087 361.072 365.472C360.84 364.851 360.487 364.361 360.013 364.001C359.545 363.637 358.955 363.455 358.245 363.455C357.563 363.455 356.99 363.627 356.526 363.973C356.062 364.314 355.712 364.792 355.475 365.408C355.238 366.018 355.12 366.731 355.12 367.545ZM370.099 373.227C369.114 373.227 368.25 372.993 367.506 372.524C366.768 372.055 366.19 371.4 365.773 370.557C365.362 369.714 365.156 368.729 365.156 367.602C365.156 366.466 365.362 365.474 365.773 364.626C366.19 363.779 366.768 363.121 367.506 362.652C368.25 362.183 369.114 361.949 370.099 361.949C371.084 361.949 371.945 362.183 372.684 362.652C373.427 363.121 374.005 363.779 374.417 364.626C374.834 365.474 375.042 366.466 375.042 367.602C375.042 368.729 374.834 369.714 374.417 370.557C374.005 371.4 373.427 372.055 372.684 372.524C371.945 372.993 371.084 373.227 370.099 373.227ZM370.099 371.722C370.847 371.722 371.462 371.53 371.945 371.146C372.428 370.763 372.786 370.259 373.018 369.634C373.25 369.009 373.366 368.331 373.366 367.602C373.366 366.873 373.25 366.194 373.018 365.564C372.786 364.934 372.428 364.425 371.945 364.037C371.462 363.649 370.847 363.455 370.099 363.455C369.351 363.455 368.735 363.649 368.252 364.037C367.769 364.425 367.412 364.934 367.18 365.564C366.948 366.194 366.832 366.873 366.832 367.602C366.832 368.331 366.948 369.009 367.18 369.634C367.412 370.259 367.769 370.763 368.252 371.146C368.735 371.53 369.351 371.722 370.099 371.722ZM381.72 373.227C380.811 373.227 380.008 372.998 379.312 372.538C378.616 372.074 378.072 371.421 377.679 370.578C377.286 369.731 377.089 368.729 377.089 367.574C377.089 366.428 377.286 365.434 377.679 364.591C378.072 363.748 378.618 363.097 379.319 362.638C380.02 362.179 380.83 361.949 381.748 361.949C382.458 361.949 383.02 362.067 383.431 362.304C383.848 362.536 384.165 362.801 384.383 363.099C384.606 363.393 384.779 363.634 384.902 363.824H385.044V358.455H386.72V373H385.1V371.324H384.902C384.779 371.523 384.603 371.774 384.376 372.077C384.149 372.375 383.824 372.643 383.403 372.879C382.982 373.111 382.421 373.227 381.72 373.227ZM381.947 371.722C382.619 371.722 383.188 371.546 383.652 371.196C384.116 370.841 384.468 370.351 384.71 369.726C384.951 369.096 385.072 368.369 385.072 367.545C385.072 366.731 384.954 366.018 384.717 365.408C384.48 364.792 384.13 364.314 383.666 363.973C383.202 363.627 382.629 363.455 381.947 363.455C381.237 363.455 380.645 363.637 380.172 364.001C379.703 364.361 379.35 364.851 379.113 365.472C378.881 366.087 378.765 366.778 378.765 367.545C378.765 368.322 378.884 369.027 379.12 369.662C379.362 370.292 379.717 370.794 380.186 371.168C380.659 371.537 381.246 371.722 381.947 371.722ZM391.102 377.091C390.818 377.091 390.565 377.067 390.342 377.02C390.119 376.977 389.966 376.935 389.88 376.892L390.306 375.415C390.714 375.519 391.074 375.557 391.386 375.528C391.699 375.5 391.975 375.36 392.217 375.109C392.463 374.863 392.688 374.463 392.892 373.909L393.204 373.057L389.17 362.091H390.988L394 370.784H394.113L397.125 362.091H398.943L394.312 374.591C394.104 375.154 393.846 375.621 393.538 375.99C393.23 376.364 392.873 376.641 392.466 376.821C392.063 377.001 391.609 377.091 391.102 377.091ZM411.212 373.227C410.227 373.227 409.363 372.993 408.62 372.524C407.881 372.055 407.303 371.4 406.887 370.557C406.475 369.714 406.269 368.729 406.269 367.602C406.269 366.466 406.475 365.474 406.887 364.626C407.303 363.779 407.881 363.121 408.62 362.652C409.363 362.183 410.227 361.949 411.212 361.949C412.197 361.949 413.059 362.183 413.797 362.652C414.541 363.121 415.118 363.779 415.53 364.626C415.947 365.474 416.155 366.466 416.155 367.602C416.155 368.729 415.947 369.714 415.53 370.557C415.118 371.4 414.541 372.055 413.797 372.524C413.059 372.993 412.197 373.227 411.212 373.227ZM411.212 371.722C411.96 371.722 412.576 371.53 413.059 371.146C413.542 370.763 413.899 370.259 414.131 369.634C414.363 369.009 414.479 368.331 414.479 367.602C414.479 366.873 414.363 366.194 414.131 365.564C413.899 364.934 413.542 364.425 413.059 364.037C412.576 363.649 411.96 363.455 411.212 363.455C410.464 363.455 409.848 363.649 409.365 364.037C408.882 364.425 408.525 364.934 408.293 365.564C408.061 366.194 407.945 366.873 407.945 367.602C407.945 368.331 408.061 369.009 408.293 369.634C408.525 370.259 408.882 370.763 409.365 371.146C409.848 371.53 410.464 371.722 411.212 371.722ZM425.589 368.54V362.091H427.265V373H425.589V371.153H425.475C425.219 371.707 424.822 372.179 424.282 372.567C423.742 372.95 423.06 373.142 422.237 373.142C421.555 373.142 420.949 372.993 420.418 372.695C419.888 372.392 419.471 371.937 419.168 371.331C418.865 370.72 418.714 369.951 418.714 369.023V362.091H420.39V368.909C420.39 369.705 420.612 370.339 421.058 370.812C421.507 371.286 422.08 371.523 422.776 371.523C423.193 371.523 423.617 371.416 424.048 371.203C424.483 370.99 424.848 370.663 425.141 370.223C425.44 369.783 425.589 369.222 425.589 368.54ZM435.079 362.091V363.511H429.426V362.091H435.079ZM431.074 359.477H432.75V369.875C432.75 370.348 432.818 370.704 432.956 370.94C433.098 371.172 433.278 371.329 433.495 371.409C433.718 371.485 433.952 371.523 434.199 371.523C434.383 371.523 434.535 371.513 434.653 371.494C434.771 371.471 434.866 371.452 434.937 371.438L435.278 372.943C435.164 372.986 435.006 373.028 434.802 373.071C434.599 373.118 434.341 373.142 434.028 373.142C433.555 373.142 433.091 373.04 432.636 372.837C432.186 372.633 431.812 372.323 431.514 371.906C431.22 371.49 431.074 370.964 431.074 370.33V359.477ZM447.97 362.091V363.511H442.316V362.091H447.97ZM443.964 359.477H445.64V369.875C445.64 370.348 445.709 370.704 445.846 370.94C445.988 371.172 446.168 371.329 446.386 371.409C446.609 371.485 446.843 371.523 447.089 371.523C447.274 371.523 447.425 371.513 447.544 371.494C447.662 371.471 447.757 371.452 447.828 371.438L448.169 372.943C448.055 372.986 447.896 373.028 447.693 373.071C447.489 373.118 447.231 373.142 446.919 373.142C446.445 373.142 445.981 373.04 445.527 372.837C445.077 372.633 444.703 372.323 444.404 371.906C444.111 371.49 443.964 370.964 443.964 370.33V359.477ZM452.402 366.438V373H450.725V358.455H452.402V363.795H452.544C452.799 363.232 453.183 362.785 453.694 362.453C454.21 362.117 454.897 361.949 455.754 361.949C456.497 361.949 457.148 362.098 457.707 362.396C458.266 362.69 458.699 363.142 459.007 363.753C459.319 364.359 459.475 365.131 459.475 366.068V373H457.799V366.182C457.799 365.315 457.574 364.645 457.125 364.172C456.68 363.694 456.062 363.455 455.271 363.455C454.722 363.455 454.229 363.571 453.794 363.803C453.363 364.035 453.022 364.373 452.771 364.818C452.525 365.263 452.402 365.803 452.402 366.438ZM467.116 373.227C466.065 373.227 465.158 372.995 464.396 372.531C463.638 372.062 463.053 371.409 462.641 370.571C462.234 369.728 462.031 368.748 462.031 367.631C462.031 366.513 462.234 365.528 462.641 364.676C463.053 363.819 463.626 363.152 464.36 362.673C465.099 362.19 465.96 361.949 466.945 361.949C467.513 361.949 468.075 362.044 468.629 362.233C469.183 362.422 469.687 362.73 470.141 363.156C470.596 363.578 470.958 364.136 471.228 364.832C471.498 365.528 471.633 366.385 471.633 367.403V368.114H463.224V366.665H469.928C469.928 366.049 469.805 365.5 469.559 365.017C469.317 364.534 468.972 364.153 468.522 363.874C468.077 363.594 467.551 363.455 466.945 363.455C466.278 363.455 465.7 363.62 465.212 363.952C464.729 364.278 464.358 364.705 464.097 365.23C463.837 365.756 463.707 366.319 463.707 366.92V367.886C463.707 368.71 463.849 369.409 464.133 369.982C464.422 370.55 464.822 370.983 465.333 371.281C465.844 371.575 466.439 371.722 467.116 371.722C467.556 371.722 467.954 371.66 468.309 371.537C468.669 371.409 468.979 371.22 469.239 370.969C469.5 370.713 469.701 370.396 469.843 370.017L471.462 370.472C471.292 371.021 471.005 371.504 470.603 371.92C470.201 372.332 469.703 372.654 469.112 372.886C468.52 373.114 467.854 373.227 467.116 373.227ZM474.183 373V362.091H475.802V363.739H475.915C476.114 363.199 476.474 362.761 476.995 362.425C477.516 362.089 478.103 361.92 478.756 361.92C478.879 361.92 479.033 361.923 479.218 361.928C479.403 361.932 479.542 361.939 479.637 361.949V363.653C479.58 363.639 479.45 363.618 479.246 363.589C479.048 363.556 478.837 363.54 478.614 363.54C478.084 363.54 477.611 363.651 477.194 363.874C476.782 364.091 476.455 364.394 476.214 364.783C475.977 365.166 475.859 365.604 475.859 366.097V373H474.183ZM485.866 373.227C484.815 373.227 483.908 372.995 483.146 372.531C482.388 372.062 481.803 371.409 481.391 370.571C480.984 369.728 480.781 368.748 480.781 367.631C480.781 366.513 480.984 365.528 481.391 364.676C481.803 363.819 482.376 363.152 483.11 362.673C483.849 362.19 484.71 361.949 485.695 361.949C486.263 361.949 486.825 362.044 487.379 362.233C487.933 362.422 488.437 362.73 488.891 363.156C489.346 363.578 489.708 364.136 489.978 364.832C490.248 365.528 490.383 366.385 490.383 367.403V368.114H481.974V366.665H488.678C488.678 366.049 488.555 365.5 488.309 365.017C488.067 364.534 487.722 364.153 487.272 363.874C486.827 363.594 486.301 363.455 485.695 363.455C485.028 363.455 484.45 363.62 483.962 363.952C483.479 364.278 483.108 364.705 482.847 365.23C482.587 365.756 482.457 366.319 482.457 366.92V367.886C482.457 368.71 482.599 369.409 482.883 369.982C483.172 370.55 483.572 370.983 484.083 371.281C484.594 371.575 485.189 371.722 485.866 371.722C486.306 371.722 486.704 371.66 487.059 371.537C487.419 371.409 487.729 371.22 487.989 370.969C488.25 370.713 488.451 370.396 488.593 370.017L490.212 370.472C490.042 371.021 489.755 371.504 489.353 371.92C488.951 372.332 488.453 372.654 487.862 372.886C487.27 373.114 486.604 373.227 485.866 373.227ZM495.12 368.909V368.824C495.129 367.92 495.224 367.2 495.404 366.665C495.584 366.13 495.84 365.696 496.171 365.365C496.503 365.034 496.9 364.728 497.364 364.449C497.644 364.278 497.895 364.077 498.117 363.845C498.34 363.608 498.515 363.336 498.643 363.028C498.775 362.721 498.842 362.38 498.842 362.006C498.842 361.542 498.733 361.139 498.515 360.798C498.297 360.457 498.006 360.195 497.641 360.01C497.277 359.825 496.872 359.733 496.427 359.733C496.039 359.733 495.665 359.813 495.305 359.974C494.945 360.135 494.644 360.389 494.403 360.734C494.161 361.08 494.022 361.532 493.984 362.091H492.194C492.232 361.286 492.44 360.597 492.819 360.024C493.202 359.451 493.707 359.013 494.332 358.71C494.961 358.407 495.66 358.256 496.427 358.256C497.26 358.256 497.985 358.421 498.6 358.753C499.22 359.084 499.699 359.539 500.035 360.116C500.376 360.694 500.546 361.352 500.546 362.091C500.546 362.612 500.466 363.083 500.305 363.504C500.148 363.926 499.921 364.302 499.623 364.634C499.329 364.965 498.974 365.259 498.558 365.514C498.141 365.775 497.807 366.049 497.556 366.338C497.305 366.622 497.123 366.961 497.009 367.354C496.896 367.747 496.834 368.237 496.825 368.824V368.909H495.12ZM496.029 373.114C495.679 373.114 495.378 372.988 495.127 372.737C494.876 372.486 494.751 372.186 494.751 371.835C494.751 371.485 494.876 371.184 495.127 370.933C495.378 370.682 495.679 370.557 496.029 370.557C496.379 370.557 496.68 370.682 496.931 370.933C497.182 371.184 497.308 371.485 497.308 371.835C497.308 372.067 497.248 372.28 497.13 372.474C497.016 372.669 496.862 372.825 496.668 372.943C496.479 373.057 496.266 373.114 496.029 373.114Z" fill="black"/>
<path d="M368.064 340.718C349.827 340.718 327.317 338.181 313.167 352.331C306.484 359.014 305.062 368.647 307.067 377.669C309.836 390.128 322.407 386.4 332.346 388.754C343.583 391.415 356.317 391.528 367.83 392.449C375.507 393.063 381.904 391.812 389.648 391.452C403.457 390.809 416.973 390.765 430.821 390.924C438.988 391.018 447.063 390.183 455.22 390.337C461.19 390.45 466.189 391.366 472.346 390.572C477.41 389.919 482.471 391.393 487.595 391.393C493.169 391.393 497.415 390.3 502.727 388.812C512.231 386.152 514.573 383.23 517.39 373.974C519.649 366.551 517.872 356.98 515.806 349.751C514.856 346.425 503.718 343.947 501.144 343.416C494.316 342.011 488.087 339.663 481.085 339.663C470.85 339.663 460.744 338.837 450.645 338.607C432.75 338.2 414.665 337.551 396.627 337.551C390.975 337.551 384.619 336.75 379.032 337.61C373.843 338.408 368.495 337.056 363.841 338.607" stroke="black" stroke-opacity="0.5" stroke-width="3" stroke-linecap="round"/>
<path d="M219.432 740.129C213.945 739.806 202.157 734.817 206.401 727.46C208.92 723.096 213.797 718.879 217.984 720.674C222.459 722.592 234.846 731.049 228.299 737.595C224.792 741.103 218.528 742.12 214.545 740.129" stroke="black" stroke-opacity="0.5" stroke-width="3" stroke-linecap="round"/>
<path d="M216.174 745.015C207.236 746.132 201.983 759.395 201.515 767.818C201.229 772.974 196.629 777.243 196.629 782.477C196.629 786.168 198.789 795.241 195 797.136" stroke="black" stroke-opacity="0.5" stroke-width="3" stroke-linecap="round"/>
<path d="M222.689 746.644C229.381 747.387 235.392 757.032 235.72 762.931C235.953 767.131 237.366 784.114 240.606 785.734" stroke="black" stroke-opacity="0.5" stroke-width="3" stroke-linecap="round"/>
<path d="M238.978 790.621C238.666 793.115 236.242 793.878 234.092 793.878" stroke="black" stroke-opacity="0.5" stroke-width="3" stroke-linecap="round"/>
<path d="M198.994 797.593C199.202 799.465 200.835 799.245 202.297 799.245" stroke="black" stroke-opacity="0.5" stroke-width="3" stroke-linecap="round"/>
<path d="M208.078 780.251C208.078 791.613 203.949 802.32 203.949 813.467C203.949 817.23 203.123 820.809 203.123 824.432C203.123 828.536 203.949 832.497 203.949 836.406C203.949 842.141 201.885 848.747 206.243 853.105C209.462 856.324 221.483 851.655 223.768 856.225" stroke="black" stroke-opacity="0.5" stroke-width="3" stroke-linecap="round"/>
<path d="M223.77 842.187C224.171 845.398 229.55 845.832 229.55 849.206C229.55 853.193 230.315 853.748 225.421 853.748" stroke="black" stroke-opacity="0.5" stroke-width="3" stroke-linecap="round"/>
<path d="M235.33 838.058C238.927 837.658 241.148 839.793 242.762 843.425C244.756 847.911 242.433 849.178 238.633 850.445" stroke="black" stroke-opacity="0.5" stroke-width="3" stroke-linecap="round"/>
<path d="M229.549 852.922C229.742 854.467 238.065 852.406 238.633 851.271" stroke="black" stroke-opacity="0.5" stroke-width="3" stroke-linecap="round"/>
<path d="M232.027 784.38C232.027 786.819 232.537 788.785 233.037 791.17C233.604 793.883 232.853 795.727 232.853 798.419C232.853 803.949 233.679 809.35 233.679 814.935C233.679 818.128 235.695 822.58 234.321 825.671C233.781 826.885 234.113 832.494 235.331 833.103" stroke="black" stroke-opacity="0.5" stroke-width="3" stroke-linecap="round"/>
<path d="M217.068 729.614C217.275 729.847 217.318 729.993 217.577 730.122" stroke="black" stroke-opacity="0.5" stroke-width="3" stroke-linecap="round"/>
<path d="M224.189 727.325C224.461 727.596 224.638 727.931 224.953 728.088" stroke="black" stroke-opacity="0.5" stroke-width="3" stroke-linecap="round"/>
<path d="M216.441 741.042C216.441 742.856 216.576 744.233 217.138 745.917" stroke="black" stroke-opacity="0.5" stroke-width="3" stroke-linecap="round"/>
<path d="M221.316 741.739C221.316 743.594 221.442 744.901 222.013 746.613" stroke="black" stroke-opacity="0.5" stroke-width="3" stroke-linecap="round"/>
<path d="M229.379 761.499C229.379 765.297 230.536 769.541 230.536 773.075" stroke="black" stroke-opacity="0.5" stroke-width="3" stroke-linecap="round"/>
<path d="M210.648 760.189C210.648 765.666 210.648 771.279 210.648 776.655" stroke="black" stroke-opacity="0.5" stroke-width="3" stroke-linecap="round"/>
<path d="M283.853 708.438V715H282.177V700.455H283.853V705.795H283.995C284.251 705.232 284.634 704.785 285.145 704.453C285.662 704.117 286.348 703.949 287.205 703.949C287.948 703.949 288.599 704.098 289.158 704.396C289.717 704.69 290.15 705.142 290.458 705.753C290.77 706.359 290.927 707.131 290.927 708.068V715H289.251V708.182C289.251 707.315 289.026 706.645 288.576 706.172C288.131 705.694 287.513 705.455 286.722 705.455C286.173 705.455 285.68 705.571 285.245 705.803C284.814 706.035 284.473 706.373 284.222 706.818C283.976 707.263 283.853 707.803 283.853 708.438ZM298.567 715.227C297.516 715.227 296.609 714.995 295.847 714.531C295.089 714.062 294.504 713.409 294.093 712.571C293.685 711.728 293.482 710.748 293.482 709.631C293.482 708.513 293.685 707.528 294.093 706.676C294.504 705.819 295.077 705.152 295.811 704.673C296.55 704.19 297.412 703.949 298.396 703.949C298.965 703.949 299.526 704.044 300.08 704.233C300.634 704.422 301.138 704.73 301.593 705.156C302.047 705.578 302.409 706.136 302.679 706.832C302.949 707.528 303.084 708.385 303.084 709.403V710.114H294.675V708.665H301.379C301.379 708.049 301.256 707.5 301.01 707.017C300.769 706.534 300.423 706.153 299.973 705.874C299.528 705.594 299.003 705.455 298.396 705.455C297.729 705.455 297.151 705.62 296.664 705.952C296.181 706.278 295.809 706.705 295.548 707.23C295.288 707.756 295.158 708.319 295.158 708.92V709.886C295.158 710.71 295.3 711.409 295.584 711.982C295.873 712.55 296.273 712.983 296.784 713.281C297.296 713.575 297.89 713.722 298.567 713.722C299.007 713.722 299.405 713.66 299.76 713.537C300.12 713.409 300.43 713.22 300.691 712.969C300.951 712.713 301.152 712.396 301.294 712.017L302.914 712.472C302.743 713.021 302.457 713.504 302.054 713.92C301.652 714.332 301.155 714.654 300.563 714.886C299.971 715.114 299.306 715.227 298.567 715.227ZM306.381 719.091C306.097 719.091 305.844 719.067 305.621 719.02C305.399 718.977 305.245 718.935 305.16 718.892L305.586 717.415C305.993 717.519 306.353 717.557 306.665 717.528C306.978 717.5 307.255 717.36 307.496 717.109C307.742 716.863 307.967 716.463 308.171 715.909L308.483 715.057L304.449 704.091H306.268L309.279 712.784H309.393L312.404 704.091H314.222L309.591 716.591C309.383 717.154 309.125 717.621 308.817 717.99C308.51 718.364 308.152 718.641 307.745 718.821C307.342 719.001 306.888 719.091 306.381 719.091ZM318.251 713.011L318.137 713.778C318.057 714.318 317.934 714.896 317.768 715.511C317.607 716.127 317.439 716.707 317.264 717.251C317.088 717.796 316.944 718.229 316.83 718.551H315.552C315.614 718.248 315.694 717.848 315.794 717.351C315.893 716.854 315.992 716.297 316.092 715.682C316.196 715.071 316.281 714.446 316.347 713.807L316.433 713.011H318.251ZM326.981 715V704.091H328.657V715H326.981ZM327.834 702.273C327.507 702.273 327.225 702.161 326.988 701.939C326.756 701.716 326.64 701.449 326.64 701.136C326.64 700.824 326.756 700.556 326.988 700.334C327.225 700.111 327.507 700 327.834 700C328.16 700 328.44 700.111 328.672 700.334C328.908 700.556 329.027 700.824 329.027 701.136C329.027 701.449 328.908 701.716 328.672 701.939C328.44 702.161 328.16 702.273 327.834 702.273ZM333.205 700.455V701.733C333.205 702.121 333.134 702.536 332.992 702.976C332.854 703.411 332.651 703.835 332.381 704.247C332.116 704.654 331.794 705.009 331.415 705.312L330.506 704.574C330.804 704.148 331.062 703.705 331.28 703.246C331.503 702.782 331.614 702.287 331.614 701.761V700.455H333.205ZM334.989 715V704.091H336.608V705.795H336.751C336.978 705.213 337.345 704.761 337.851 704.439C338.358 704.112 338.966 703.949 339.677 703.949C340.396 703.949 340.995 704.112 341.474 704.439C341.956 704.761 342.333 705.213 342.603 705.795H342.716C342.996 705.232 343.415 704.785 343.974 704.453C344.532 704.117 345.202 703.949 345.983 703.949C346.959 703.949 347.757 704.254 348.377 704.865C348.997 705.471 349.307 706.416 349.307 707.699V715H347.631V707.699C347.631 706.894 347.411 706.319 346.971 705.973C346.53 705.627 346.012 705.455 345.415 705.455C344.648 705.455 344.054 705.687 343.633 706.151C343.211 706.61 343.001 707.192 343.001 707.898V715H341.296V707.528C341.296 706.908 341.095 706.409 340.692 706.03C340.29 705.646 339.771 705.455 339.137 705.455C338.701 705.455 338.294 705.571 337.915 705.803C337.541 706.035 337.238 706.357 337.006 706.768C336.779 707.176 336.665 707.647 336.665 708.182V715H334.989ZM359.673 708.438V715H357.997V704.091H359.616V705.795H359.758C360.014 705.241 360.402 704.796 360.923 704.46C361.444 704.119 362.116 703.949 362.94 703.949C363.679 703.949 364.325 704.1 364.879 704.403C365.433 704.702 365.864 705.156 366.172 705.767C366.479 706.373 366.633 707.14 366.633 708.068V715H364.957V708.182C364.957 707.325 364.735 706.657 364.29 706.179C363.845 705.696 363.234 705.455 362.457 705.455C361.922 705.455 361.444 705.571 361.023 705.803C360.606 706.035 360.277 706.373 360.035 706.818C359.794 707.263 359.673 707.803 359.673 708.438ZM374.128 715.227C373.143 715.227 372.279 714.993 371.536 714.524C370.797 714.055 370.219 713.4 369.803 712.557C369.391 711.714 369.185 710.729 369.185 709.602C369.185 708.466 369.391 707.474 369.803 706.626C370.219 705.779 370.797 705.121 371.536 704.652C372.279 704.183 373.143 703.949 374.128 703.949C375.113 703.949 375.975 704.183 376.713 704.652C377.457 705.121 378.034 705.779 378.446 706.626C378.863 707.474 379.071 708.466 379.071 709.602C379.071 710.729 378.863 711.714 378.446 712.557C378.034 713.4 377.457 714.055 376.713 714.524C375.975 714.993 375.113 715.227 374.128 715.227ZM374.128 713.722C374.876 713.722 375.492 713.53 375.975 713.146C376.458 712.763 376.815 712.259 377.047 711.634C377.279 711.009 377.395 710.331 377.395 709.602C377.395 708.873 377.279 708.194 377.047 707.564C376.815 706.934 376.458 706.425 375.975 706.037C375.492 705.649 374.876 705.455 374.128 705.455C373.38 705.455 372.764 705.649 372.281 706.037C371.798 706.425 371.441 706.934 371.209 707.564C370.977 708.194 370.861 708.873 370.861 709.602C370.861 710.331 370.977 711.009 371.209 711.634C371.441 712.259 371.798 712.763 372.281 713.146C372.764 713.53 373.38 713.722 374.128 713.722ZM386.374 704.091V705.511H380.721V704.091H386.374ZM382.368 701.477H384.045V711.875C384.045 712.348 384.113 712.704 384.251 712.94C384.393 713.172 384.573 713.329 384.79 713.409C385.013 713.485 385.247 713.523 385.493 713.523C385.678 713.523 385.83 713.513 385.948 713.494C386.066 713.471 386.161 713.452 386.232 713.438L386.573 714.943C386.459 714.986 386.301 715.028 386.097 715.071C385.894 715.118 385.635 715.142 385.323 715.142C384.849 715.142 384.385 715.04 383.931 714.837C383.481 714.633 383.107 714.323 382.809 713.906C382.515 713.49 382.368 712.964 382.368 712.33V701.477ZM397.731 715.256C397.039 715.256 396.412 715.125 395.849 714.865C395.285 714.6 394.838 714.219 394.506 713.722C394.175 713.22 394.009 712.614 394.009 711.903C394.009 711.278 394.132 710.772 394.378 710.384C394.625 709.991 394.954 709.683 395.366 709.46C395.778 709.238 396.232 709.072 396.729 708.963C397.231 708.849 397.735 708.759 398.242 708.693C398.905 708.608 399.442 708.544 399.854 708.501C400.271 708.454 400.574 708.376 400.763 708.267C400.957 708.158 401.055 707.969 401.055 707.699V707.642C401.055 706.941 400.863 706.397 400.479 706.009C400.1 705.62 399.525 705.426 398.753 705.426C397.953 705.426 397.326 705.601 396.871 705.952C396.417 706.302 396.097 706.676 395.912 707.074L394.322 706.506C394.606 705.843 394.984 705.327 395.458 704.957C395.936 704.583 396.457 704.323 397.02 704.176C397.589 704.025 398.147 703.949 398.697 703.949C399.047 703.949 399.449 703.991 399.904 704.077C400.363 704.157 400.806 704.325 401.232 704.581C401.663 704.837 402.02 705.223 402.305 705.739C402.589 706.255 402.731 706.946 402.731 707.812V715H401.055V713.523H400.969C400.856 713.759 400.666 714.013 400.401 714.283C400.136 714.553 399.783 714.782 399.343 714.972C398.903 715.161 398.365 715.256 397.731 715.256ZM397.986 713.75C398.649 713.75 399.208 713.62 399.662 713.359C400.122 713.099 400.467 712.763 400.699 712.351C400.936 711.939 401.055 711.506 401.055 711.051V709.517C400.983 709.602 400.827 709.68 400.586 709.751C400.349 709.818 400.074 709.877 399.762 709.929C399.454 709.976 399.153 710.019 398.86 710.057C398.571 710.09 398.337 710.118 398.157 710.142C397.721 710.199 397.314 710.291 396.935 710.419C396.561 710.542 396.258 710.729 396.026 710.98C395.799 711.226 395.685 711.562 395.685 711.989C395.685 712.571 395.901 713.011 396.331 713.31C396.767 713.603 397.319 713.75 397.986 713.75ZM407.466 700.455V715H405.79V700.455H407.466ZM414.968 715.227C413.983 715.227 413.119 714.993 412.376 714.524C411.637 714.055 411.059 713.4 410.643 712.557C410.231 711.714 410.025 710.729 410.025 709.602C410.025 708.466 410.231 707.474 410.643 706.626C411.059 705.779 411.637 705.121 412.376 704.652C413.119 704.183 413.983 703.949 414.968 703.949C415.953 703.949 416.814 704.183 417.553 704.652C418.296 705.121 418.874 705.779 419.286 706.626C419.703 707.474 419.911 708.466 419.911 709.602C419.911 710.729 419.703 711.714 419.286 712.557C418.874 713.4 418.296 714.055 417.553 714.524C416.814 714.993 415.953 715.227 414.968 715.227ZM414.968 713.722C415.716 713.722 416.331 713.53 416.814 713.146C417.297 712.763 417.655 712.259 417.887 711.634C418.119 711.009 418.235 710.331 418.235 709.602C418.235 708.873 418.119 708.194 417.887 707.564C417.655 706.934 417.297 706.425 416.814 706.037C416.331 705.649 415.716 705.455 414.968 705.455C414.22 705.455 413.604 705.649 413.121 706.037C412.638 706.425 412.281 706.934 412.049 707.564C411.817 708.194 411.701 708.873 411.701 709.602C411.701 710.331 411.817 711.009 412.049 711.634C412.281 712.259 412.638 712.763 413.121 713.146C413.604 713.53 414.22 713.722 414.968 713.722ZM424.146 708.438V715H422.47V704.091H424.089V705.795H424.231C424.487 705.241 424.875 704.796 425.396 704.46C425.917 704.119 426.589 703.949 427.413 703.949C428.151 703.949 428.798 704.1 429.352 704.403C429.906 704.702 430.337 705.156 430.644 705.767C430.952 706.373 431.106 707.14 431.106 708.068V715H429.43V708.182C429.43 707.325 429.207 706.657 428.762 706.179C428.317 705.696 427.706 705.455 426.93 705.455C426.395 705.455 425.917 705.571 425.495 705.803C425.079 706.035 424.749 706.373 424.508 706.818C424.267 707.263 424.146 707.803 424.146 708.438ZM438.743 715.227C437.692 715.227 436.785 714.995 436.023 714.531C435.265 714.062 434.68 713.409 434.268 712.571C433.861 711.728 433.657 710.748 433.657 709.631C433.657 708.513 433.861 707.528 434.268 706.676C434.68 705.819 435.253 705.152 435.987 704.673C436.726 704.19 437.587 703.949 438.572 703.949C439.14 703.949 439.702 704.044 440.256 704.233C440.809 704.422 441.314 704.73 441.768 705.156C442.223 705.578 442.585 706.136 442.855 706.832C443.125 707.528 443.26 708.385 443.26 709.403V710.114H434.851V708.665H441.555C441.555 708.049 441.432 707.5 441.186 707.017C440.944 706.534 440.599 706.153 440.149 705.874C439.704 705.594 439.178 705.455 438.572 705.455C437.905 705.455 437.327 705.62 436.839 705.952C436.356 706.278 435.985 706.705 435.724 707.23C435.464 707.756 435.334 708.319 435.334 708.92V709.886C435.334 710.71 435.476 711.409 435.76 711.982C436.049 712.55 436.449 712.983 436.96 713.281C437.471 713.575 438.066 713.722 438.743 713.722C439.183 713.722 439.581 713.66 439.936 713.537C440.296 713.409 440.606 713.22 440.866 712.969C441.127 712.713 441.328 712.396 441.47 712.017L443.089 712.472C442.919 713.021 442.632 713.504 442.23 713.92C441.827 714.332 441.33 714.654 440.738 714.886C440.147 715.114 439.481 715.227 438.743 715.227ZM447.031 715.114C446.681 715.114 446.38 714.988 446.129 714.737C445.878 714.486 445.753 714.186 445.753 713.835C445.753 713.485 445.878 713.184 446.129 712.933C446.38 712.682 446.681 712.557 447.031 712.557C447.381 712.557 447.682 712.682 447.933 712.933C448.184 713.184 448.309 713.485 448.309 713.835C448.309 714.067 448.25 714.28 448.132 714.474C448.018 714.669 447.864 714.825 447.67 714.943C447.481 715.057 447.268 715.114 447.031 715.114Z" fill="black"/>
<path d="M198.719 730.637C200.556 730.453 201.936 728.104 203.34 727.068C204.874 725.937 207.038 724.085 209.015 723.821C215.582 722.946 222.732 723.792 229.373 723.792C231.804 723.792 238.805 725.192 232.708 723.529C229.343 722.611 226.001 723.436 222.733 722.71C221.755 722.493 220.775 718.365 219.779 717.474C218.428 716.265 214.095 715.163 212.408 715.631C207.751 716.925 203.984 719.467 203.984 724.845" stroke="black" stroke-opacity="0.5" stroke-width="3" stroke-linecap="round"/>
<path d="M209.576 715.079C209.576 713.744 210.128 710.58 212.245 711.185C214.248 711.757 213.469 715.484 213.988 717.04" stroke="black" stroke-opacity="0.5" stroke-width="3" stroke-linecap="round"/>
<path d="M344.58 675.345C325.174 675.345 306.104 676.751 287.055 680.738C281.588 681.883 278.025 685.457 273.198 688.004C269.284 690.07 266.103 690.563 263.386 694.221C257.97 701.512 259.02 722.442 269.378 726.278C279.721 730.109 289.198 733.319 300.388 733.319C310.979 733.319 320.689 736.327 331.397 734.967C357.191 731.692 383.482 734.667 409.295 734.667C416.869 734.667 425.079 734.507 432.514 733.02C440.459 731.431 451.745 729.933 455.134 722.084C458.403 714.514 466.806 689.95 453.786 686.431C427.823 679.414 402.085 678.6 375.289 678.042C369.173 677.914 341.395 670.928 337.838 678.042" stroke="black" stroke-opacity="0.5" stroke-width="3" stroke-linecap="round"/>
</svg>
