<svg width="1024" height="1024" viewBox="0 0 1024 1024" fill="none" xmlns="http://www.w3.org/2000/svg">
<g clip-path="url(#clip0_27_111)">
<path d="M174.261 128.534L172.756 128.96C172.661 128.709 172.521 128.465 172.337 128.229C172.157 127.987 171.911 127.788 171.598 127.632C171.286 127.476 170.885 127.398 170.398 127.398C169.73 127.398 169.174 127.552 168.729 127.859C168.288 128.162 168.068 128.548 168.068 129.017C168.068 129.434 168.22 129.763 168.523 130.004C168.826 130.246 169.299 130.447 169.943 130.608L171.562 131.006C172.538 131.242 173.265 131.605 173.743 132.092C174.221 132.575 174.46 133.198 174.46 133.96C174.46 134.585 174.28 135.144 173.92 135.636C173.565 136.129 173.068 136.517 172.429 136.801C171.79 137.085 171.046 137.227 170.199 137.227C169.086 137.227 168.165 136.986 167.436 136.503C166.707 136.02 166.245 135.314 166.051 134.386L167.642 133.989C167.794 134.576 168.08 135.016 168.501 135.31C168.928 135.603 169.484 135.75 170.17 135.75C170.952 135.75 171.572 135.584 172.031 135.253C172.495 134.917 172.727 134.514 172.727 134.045C172.727 133.667 172.595 133.349 172.33 133.094C172.064 132.833 171.657 132.639 171.108 132.511L169.29 132.085C168.291 131.848 167.557 131.482 167.088 130.984C166.624 130.482 166.392 129.855 166.392 129.102C166.392 128.487 166.565 127.942 166.911 127.469C167.261 126.995 167.737 126.624 168.338 126.354C168.944 126.084 169.631 125.949 170.398 125.949C171.477 125.949 172.325 126.186 172.94 126.659C173.561 127.133 174.001 127.758 174.261 128.534ZM181.415 137.227C180.43 137.227 179.566 136.993 178.823 136.524C178.084 136.055 177.507 135.4 177.09 134.557C176.678 133.714 176.472 132.729 176.472 131.602C176.472 130.466 176.678 129.474 177.09 128.626C177.507 127.779 178.084 127.121 178.823 126.652C179.566 126.183 180.43 125.949 181.415 125.949C182.4 125.949 183.262 126.183 184 126.652C184.744 127.121 185.321 127.779 185.733 128.626C186.15 129.474 186.358 130.466 186.358 131.602C186.358 132.729 186.15 133.714 185.733 134.557C185.321 135.4 184.744 136.055 184 136.524C183.262 136.993 182.4 137.227 181.415 137.227ZM181.415 135.722C182.163 135.722 182.779 135.53 183.262 135.146C183.745 134.763 184.102 134.259 184.334 133.634C184.566 133.009 184.682 132.331 184.682 131.602C184.682 130.873 184.566 130.194 184.334 129.564C184.102 128.934 183.745 128.425 183.262 128.037C182.779 127.649 182.163 127.455 181.415 127.455C180.667 127.455 180.051 127.649 179.569 128.037C179.086 128.425 178.728 128.934 178.496 129.564C178.264 130.194 178.148 130.873 178.148 131.602C178.148 132.331 178.264 133.009 178.496 133.634C178.728 134.259 179.086 134.763 179.569 135.146C180.051 135.53 180.667 135.722 181.415 135.722ZM194.542 137V126.091H196.218V137H194.542ZM195.394 124.273C195.067 124.273 194.786 124.161 194.549 123.939C194.317 123.716 194.201 123.449 194.201 123.136C194.201 122.824 194.317 122.556 194.549 122.334C194.786 122.111 195.067 122 195.394 122C195.721 122 196 122.111 196.232 122.334C196.469 122.556 196.587 122.824 196.587 123.136C196.587 123.449 196.469 123.716 196.232 123.939C196 124.161 195.721 124.273 195.394 124.273ZM212.64 128.534L211.135 128.96C211.04 128.709 210.9 128.465 210.716 128.229C210.536 127.987 210.289 127.788 209.977 127.632C209.664 127.476 209.264 127.398 208.777 127.398C208.109 127.398 207.553 127.552 207.108 127.859C206.667 128.162 206.447 128.548 206.447 129.017C206.447 129.434 206.599 129.763 206.902 130.004C207.205 130.246 207.678 130.447 208.322 130.608L209.941 131.006C210.917 131.242 211.644 131.605 212.122 132.092C212.6 132.575 212.839 133.198 212.839 133.96C212.839 134.585 212.659 135.144 212.299 135.636C211.944 136.129 211.447 136.517 210.808 136.801C210.169 137.085 209.425 137.227 208.578 137.227C207.465 137.227 206.544 136.986 205.815 136.503C205.086 136.02 204.624 135.314 204.43 134.386L206.021 133.989C206.172 134.576 206.459 135.016 206.88 135.31C207.306 135.603 207.863 135.75 208.549 135.75C209.331 135.75 209.951 135.584 210.41 135.253C210.874 134.917 211.106 134.514 211.106 134.045C211.106 133.667 210.974 133.349 210.708 133.094C210.443 132.833 210.036 132.639 209.487 132.511L207.669 132.085C206.67 131.848 205.936 131.482 205.467 130.984C205.003 130.482 204.771 129.855 204.771 129.102C204.771 128.487 204.944 127.942 205.289 127.469C205.64 126.995 206.116 126.624 206.717 126.354C207.323 126.084 208.01 125.949 208.777 125.949C209.856 125.949 210.704 126.186 211.319 126.659C211.94 127.133 212.38 127.758 212.64 128.534ZM220.107 126.091V127.511H214.453V126.091H220.107ZM216.101 123.477H217.777V133.875C217.777 134.348 217.846 134.704 217.983 134.94C218.125 135.172 218.305 135.329 218.523 135.409C218.745 135.485 218.98 135.523 219.226 135.523C219.411 135.523 219.562 135.513 219.68 135.494C219.799 135.471 219.893 135.452 219.964 135.438L220.305 136.943C220.192 136.986 220.033 137.028 219.83 137.071C219.626 137.118 219.368 137.142 219.055 137.142C218.582 137.142 218.118 137.04 217.663 136.837C217.214 136.633 216.839 136.323 216.541 135.906C216.248 135.49 216.101 134.964 216.101 134.33V123.477ZM226.942 137.227C225.958 137.227 225.094 136.993 224.35 136.524C223.612 136.055 223.034 135.4 222.617 134.557C222.205 133.714 221.999 132.729 221.999 131.602C221.999 130.466 222.205 129.474 222.617 128.626C223.034 127.779 223.612 127.121 224.35 126.652C225.094 126.183 225.958 125.949 226.942 125.949C227.927 125.949 228.789 126.183 229.528 126.652C230.271 127.121 230.849 127.779 231.261 128.626C231.677 129.474 231.886 130.466 231.886 131.602C231.886 132.729 231.677 133.714 231.261 134.557C230.849 135.4 230.271 136.055 229.528 136.524C228.789 136.993 227.927 137.227 226.942 137.227ZM226.942 135.722C227.691 135.722 228.306 135.53 228.789 135.146C229.272 134.763 229.629 134.259 229.862 133.634C230.094 133.009 230.21 132.331 230.21 131.602C230.21 130.873 230.094 130.194 229.862 129.564C229.629 128.934 229.272 128.425 228.789 128.037C228.306 127.649 227.691 127.455 226.942 127.455C226.194 127.455 225.579 127.649 225.096 128.037C224.613 128.425 224.255 128.934 224.023 129.564C223.791 130.194 223.675 130.873 223.675 131.602C223.675 132.331 223.791 133.009 224.023 133.634C224.255 134.259 224.613 134.763 225.096 135.146C225.579 135.53 226.194 135.722 226.942 135.722ZM234.444 141.091V126.091H236.064V127.824H236.262C236.386 127.634 236.556 127.393 236.774 127.099C236.996 126.801 237.314 126.536 237.725 126.304C238.142 126.067 238.706 125.949 239.416 125.949C240.334 125.949 241.144 126.179 241.845 126.638C242.546 127.097 243.092 127.748 243.485 128.591C243.878 129.434 244.075 130.428 244.075 131.574C244.075 132.729 243.878 133.731 243.485 134.578C243.092 135.421 242.548 136.074 241.852 136.538C241.156 136.998 240.353 137.227 239.444 137.227C238.743 137.227 238.182 137.111 237.761 136.879C237.34 136.643 237.015 136.375 236.788 136.077C236.561 135.774 236.386 135.523 236.262 135.324H236.12V141.091H234.444ZM236.092 131.545C236.092 132.369 236.213 133.096 236.454 133.726C236.696 134.351 237.048 134.841 237.512 135.196C237.976 135.546 238.545 135.722 239.217 135.722C239.918 135.722 240.502 135.537 240.971 135.168C241.445 134.794 241.8 134.292 242.037 133.662C242.278 133.027 242.399 132.322 242.399 131.545C242.399 130.778 242.28 130.087 242.044 129.472C241.812 128.851 241.459 128.361 240.985 128.001C240.517 127.637 239.927 127.455 239.217 127.455C238.535 127.455 237.962 127.627 237.498 127.973C237.034 128.314 236.684 128.792 236.447 129.408C236.21 130.018 236.092 130.731 236.092 131.545ZM246.632 141.091V126.091H248.251V127.824H248.45C248.573 127.634 248.743 127.393 248.961 127.099C249.184 126.801 249.501 126.536 249.913 126.304C250.33 126.067 250.893 125.949 251.603 125.949C252.522 125.949 253.332 126.179 254.032 126.638C254.733 127.097 255.28 127.748 255.673 128.591C256.066 129.434 256.262 130.428 256.262 131.574C256.262 132.729 256.066 133.731 255.673 134.578C255.28 135.421 254.735 136.074 254.039 136.538C253.343 136.998 252.541 137.227 251.632 137.227C250.931 137.227 250.37 137.111 249.949 136.879C249.527 136.643 249.203 136.375 248.975 136.077C248.748 135.774 248.573 135.523 248.45 135.324H248.308V141.091H246.632ZM248.279 131.545C248.279 132.369 248.4 133.096 248.642 133.726C248.883 134.351 249.236 134.841 249.7 135.196C250.164 135.546 250.732 135.722 251.404 135.722C252.105 135.722 252.69 135.537 253.159 135.168C253.632 134.794 253.987 134.292 254.224 133.662C254.466 133.027 254.586 132.322 254.586 131.545C254.586 130.778 254.468 130.087 254.231 129.472C253.999 128.851 253.646 128.361 253.173 128.001C252.704 127.637 252.115 127.455 251.404 127.455C250.723 127.455 250.15 127.627 249.686 127.973C249.222 128.314 248.871 128.792 248.635 129.408C248.398 130.018 248.279 130.731 248.279 131.545ZM263.393 137.227C262.342 137.227 261.435 136.995 260.673 136.531C259.915 136.062 259.331 135.409 258.919 134.571C258.511 133.728 258.308 132.748 258.308 131.631C258.308 130.513 258.511 129.528 258.919 128.676C259.331 127.819 259.904 127.152 260.637 126.673C261.376 126.19 262.238 125.949 263.223 125.949C263.791 125.949 264.352 126.044 264.906 126.233C265.46 126.422 265.964 126.73 266.419 127.156C266.873 127.578 267.235 128.136 267.505 128.832C267.775 129.528 267.91 130.385 267.91 131.403V132.114H259.501V130.665H266.206C266.206 130.049 266.083 129.5 265.836 129.017C265.595 128.534 265.249 128.153 264.799 127.874C264.354 127.594 263.829 127.455 263.223 127.455C262.555 127.455 261.977 127.62 261.49 127.952C261.007 128.278 260.635 128.705 260.375 129.23C260.114 129.756 259.984 130.319 259.984 130.92V131.886C259.984 132.71 260.126 133.409 260.41 133.982C260.699 134.55 261.099 134.983 261.61 135.281C262.122 135.575 262.716 135.722 263.393 135.722C263.833 135.722 264.231 135.66 264.586 135.537C264.946 135.409 265.256 135.22 265.517 134.969C265.777 134.713 265.978 134.396 266.12 134.017L267.74 134.472C267.569 135.021 267.283 135.504 266.88 135.92C266.478 136.332 265.981 136.654 265.389 136.886C264.797 137.114 264.132 137.227 263.393 137.227ZM274.579 137.227C273.67 137.227 272.868 136.998 272.172 136.538C271.475 136.074 270.931 135.421 270.538 134.578C270.145 133.731 269.949 132.729 269.949 131.574C269.949 130.428 270.145 129.434 270.538 128.591C270.931 127.748 271.478 127.097 272.179 126.638C272.879 126.179 273.689 125.949 274.608 125.949C275.318 125.949 275.879 126.067 276.291 126.304C276.708 126.536 277.025 126.801 277.243 127.099C277.465 127.393 277.638 127.634 277.761 127.824H277.903V122.455H279.579V137H277.96V135.324H277.761C277.638 135.523 277.463 135.774 277.235 136.077C277.008 136.375 276.684 136.643 276.262 136.879C275.841 137.111 275.28 137.227 274.579 137.227ZM274.806 135.722C275.479 135.722 276.047 135.546 276.511 135.196C276.975 134.841 277.328 134.351 277.569 133.726C277.811 133.096 277.931 132.369 277.931 131.545C277.931 130.731 277.813 130.018 277.576 129.408C277.34 128.792 276.989 128.314 276.525 127.973C276.061 127.627 275.488 127.455 274.806 127.455C274.096 127.455 273.504 127.637 273.031 128.001C272.562 128.361 272.209 128.851 271.973 129.472C271.741 130.087 271.625 130.778 271.625 131.545C271.625 132.322 271.743 133.027 271.98 133.662C272.221 134.292 272.576 134.794 273.045 135.168C273.519 135.537 274.106 135.722 274.806 135.722ZM288.507 137V126.091H290.126V127.739H290.24C290.439 127.199 290.798 126.761 291.319 126.425C291.84 126.089 292.427 125.92 293.081 125.92C293.204 125.92 293.358 125.923 293.542 125.928C293.727 125.932 293.867 125.939 293.961 125.949V127.653C293.904 127.639 293.774 127.618 293.571 127.589C293.372 127.556 293.161 127.54 292.939 127.54C292.408 127.54 291.935 127.651 291.518 127.874C291.106 128.091 290.779 128.394 290.538 128.783C290.301 129.166 290.183 129.604 290.183 130.097V137H288.507ZM302.823 132.54V126.091H304.499V137H302.823V135.153H302.71C302.454 135.707 302.056 136.179 301.516 136.567C300.977 136.95 300.295 137.142 299.471 137.142C298.789 137.142 298.183 136.993 297.653 136.695C297.122 136.392 296.706 135.937 296.403 135.331C296.1 134.72 295.948 133.951 295.948 133.023V126.091H297.624V132.909C297.624 133.705 297.847 134.339 298.292 134.812C298.742 135.286 299.315 135.523 300.011 135.523C300.427 135.523 300.851 135.416 301.282 135.203C301.718 134.99 302.082 134.663 302.376 134.223C302.674 133.783 302.823 133.222 302.823 132.54ZM309.245 130.438V137H307.569V126.091H309.189V127.795H309.331C309.586 127.241 309.975 126.796 310.495 126.46C311.016 126.119 311.689 125.949 312.512 125.949C313.251 125.949 313.897 126.1 314.451 126.403C315.005 126.702 315.436 127.156 315.744 127.767C316.052 128.373 316.206 129.14 316.206 130.068V137H314.529V130.182C314.529 129.325 314.307 128.657 313.862 128.179C313.417 127.696 312.806 127.455 312.029 127.455C311.494 127.455 311.016 127.571 310.595 127.803C310.178 128.035 309.849 128.373 309.608 128.818C309.366 129.263 309.245 129.803 309.245 130.438ZM320.945 130.438V137H319.268V126.091H320.888V127.795H321.03C321.286 127.241 321.674 126.796 322.195 126.46C322.715 126.119 323.388 125.949 324.212 125.949C324.95 125.949 325.597 126.1 326.151 126.403C326.705 126.702 327.135 127.156 327.443 127.767C327.751 128.373 327.905 129.14 327.905 130.068V137H326.229V130.182C326.229 129.325 326.006 128.657 325.561 128.179C325.116 127.696 324.505 127.455 323.729 127.455C323.194 127.455 322.715 127.571 322.294 127.803C321.877 128.035 321.548 128.373 321.307 128.818C321.065 129.263 320.945 129.803 320.945 130.438ZM330.968 137V126.091H332.644V137H330.968ZM331.82 124.273C331.493 124.273 331.212 124.161 330.975 123.939C330.743 123.716 330.627 123.449 330.627 123.136C330.627 122.824 330.743 122.556 330.975 122.334C331.212 122.111 331.493 122 331.82 122C332.147 122 332.426 122.111 332.658 122.334C332.895 122.556 333.013 122.824 333.013 123.136C333.013 123.449 332.895 123.716 332.658 123.939C332.426 124.161 332.147 124.273 331.82 124.273ZM337.39 130.438V137H335.714V126.091H337.333V127.795H337.475C337.731 127.241 338.119 126.796 338.64 126.46C339.161 126.119 339.833 125.949 340.657 125.949C341.396 125.949 342.042 126.1 342.596 126.403C343.15 126.702 343.581 127.156 343.888 127.767C344.196 128.373 344.35 129.14 344.35 130.068V137H342.674V130.182C342.674 129.325 342.451 128.657 342.006 128.179C341.561 127.696 340.951 127.455 340.174 127.455C339.639 127.455 339.161 127.571 338.739 127.803C338.323 128.035 337.994 128.373 337.752 128.818C337.511 129.263 337.39 129.803 337.39 130.438ZM351.816 141.318C351.007 141.318 350.311 141.214 349.728 141.006C349.146 140.802 348.661 140.532 348.272 140.196C347.889 139.865 347.583 139.509 347.356 139.131L348.691 138.193C348.843 138.392 349.035 138.619 349.267 138.875C349.499 139.135 349.816 139.36 350.218 139.55C350.626 139.744 351.158 139.841 351.816 139.841C352.697 139.841 353.424 139.628 353.997 139.202C354.57 138.776 354.856 138.108 354.856 137.199V134.983H354.714C354.591 135.182 354.416 135.428 354.189 135.722C353.966 136.01 353.644 136.268 353.223 136.496C352.806 136.718 352.243 136.83 351.532 136.83C350.652 136.83 349.861 136.621 349.16 136.205C348.464 135.788 347.913 135.182 347.505 134.386C347.103 133.591 346.902 132.625 346.902 131.489C346.902 130.371 347.098 129.398 347.491 128.57C347.884 127.736 348.431 127.092 349.132 126.638C349.833 126.179 350.642 125.949 351.561 125.949C352.271 125.949 352.834 126.067 353.251 126.304C353.672 126.536 353.994 126.801 354.217 127.099C354.444 127.393 354.619 127.634 354.743 127.824H354.913V126.091H356.532V137.312C356.532 138.25 356.319 139.012 355.893 139.599C355.472 140.191 354.904 140.625 354.189 140.899C353.478 141.179 352.688 141.318 351.816 141.318ZM351.76 135.324C352.432 135.324 353 135.17 353.464 134.862C353.928 134.554 354.281 134.112 354.522 133.534C354.764 132.956 354.885 132.265 354.885 131.46C354.885 130.674 354.766 129.981 354.529 129.379C354.293 128.778 353.942 128.307 353.478 127.966C353.014 127.625 352.441 127.455 351.76 127.455C351.049 127.455 350.458 127.634 349.984 127.994C349.515 128.354 349.163 128.837 348.926 129.443C348.694 130.049 348.578 130.722 348.578 131.46C348.578 132.218 348.696 132.888 348.933 133.47C349.174 134.048 349.529 134.502 349.998 134.834C350.472 135.161 351.059 135.324 351.76 135.324ZM360.822 137.114C360.472 137.114 360.171 136.988 359.92 136.737C359.669 136.486 359.544 136.186 359.544 135.835C359.544 135.485 359.669 135.184 359.92 134.933C360.171 134.682 360.472 134.557 360.822 134.557C361.172 134.557 361.473 134.682 361.724 134.933C361.975 135.184 362.1 135.485 362.1 135.835C362.1 136.067 362.041 136.28 361.923 136.474C361.809 136.669 361.655 136.825 361.461 136.943C361.272 137.057 361.059 137.114 360.822 137.114Z" fill="black"/>
<path d="M223.816 441.797C212.432 441.128 211.576 428.265 225.691 432.002C227.069 432.366 237.324 436.5 234.654 439.505C232.197 442.269 222.622 438.898 220.064 438.046" stroke="black" stroke-opacity="0.5" stroke-width="3" stroke-linecap="round"/>
<path d="M255.705 439.922C255.705 429.756 258.659 426.791 269.774 426.791C281.528 426.791 263.564 440.31 261.332 441.797" stroke="black" stroke-opacity="0.5" stroke-width="3" stroke-linecap="round"/>
<path d="M206.933 415.536C205.685 404.304 174.1 401.606 166.916 400.947C159.82 400.295 143.156 403.084 143.156 413.66C143.156 417.812 155.449 424.718 158.996 424.915C165.491 425.276 174.984 427.698 180.672 430.542" stroke="black" stroke-opacity="0.5" stroke-width="3" stroke-linecap="round"/>
<path d="M220.064 413.66C224.561 413.161 228.438 411.785 233.195 411.785" stroke="black" stroke-opacity="0.5" stroke-width="3" stroke-linecap="round"/>
<path d="M240.699 409.909C240.069 404.235 234.913 397.792 245.701 401.676C253.03 404.314 273.586 411.03 276.339 419.288" stroke="black" stroke-opacity="0.5" stroke-width="3" stroke-linecap="round"/>
<path d="M203.182 439.921C204.245 449.495 217.516 465.608 227.567 466.182C244.711 467.162 260.68 471.81 278.213 471.81" stroke="black" stroke-opacity="0.5" stroke-width="3" stroke-linecap="round"/>
<path d="M278.215 430.542C284.873 443.859 295.097 456.027 295.097 471.81" stroke="black" stroke-opacity="0.5" stroke-width="3" stroke-linecap="round"/>
<path d="M291.344 468.058C292.092 468.058 282.008 471.798 277.38 470.872C271.983 469.792 263.347 462.827 274.045 462.431C278.113 462.28 291.884 461.58 293.115 467.12C293.911 470.702 289.045 474.531 287.592 477.437" stroke="black" stroke-opacity="0.5" stroke-width="3" stroke-linecap="round"/>
<path d="M291.344 454.928C294.214 454.29 296.472 450.986 298.847 449.509C320.545 436.016 347.442 428.592 371.794 421.997C461.547 397.693 555.546 400.555 647.744 398.654" stroke="black" stroke-opacity="0.5" stroke-width="3" stroke-linecap="round"/>
<path d="M300.723 453.052C312.561 451.202 324.164 447.077 335.737 444.09C374.594 434.062 413.482 424.064 452.453 414.494C492.463 404.67 532.587 394.237 573.546 389.171C619.802 383.45 666.866 383.395 713.397 381.772" stroke="black" stroke-opacity="0.5" stroke-width="3" stroke-linecap="round"/>
<path d="M274.463 449.3C283.006 442.243 294.052 439.705 304.58 437.003C337.707 428.502 371.13 421.568 403.476 410.221C507.409 373.763 599.031 302.588 681.51 231.708" stroke="black" stroke-opacity="0.5" stroke-width="3" stroke-linecap="round"/>
<path d="M248.202 469.934C173.9 500.529 96.4735 524.085 19.3555 546.842" stroke="black" stroke-opacity="0.5" stroke-width="3" stroke-linecap="round"/>
<path d="M253.829 520.581C240.009 523.093 227.873 531.627 212.874 531.627C200.163 531.627 205.467 520.006 212.145 514.745C222.044 506.946 233.705 501.215 246.326 499.739C250.316 499.272 271.095 497.559 274.046 502.656C278.248 509.914 266.063 518.215 261.332 520.581" stroke="black" stroke-opacity="0.5" stroke-width="3" stroke-linecap="round"/>
<path d="M308.227 518.705C299.924 518.705 294.335 519.344 286.134 517.246C276.761 514.848 288.887 504.219 291.762 500.364C297.876 492.166 310.13 484.636 320.941 489.109C332.307 493.812 309.598 515.783 306.351 518.705" stroke="black" stroke-opacity="0.5" stroke-width="3" stroke-linecap="round"/>
<path d="M220.063 462.431C201.116 460.709 152.442 441.032 146.074 470.143C140.142 497.261 163.933 507.45 186.299 507.45" stroke="black" stroke-opacity="0.5" stroke-width="3" stroke-linecap="round"/>
<path d="M152.536 436.17C149.192 436.839 147.418 439.844 143.783 439.921C135.648 440.094 126.443 438.366 118.772 435.753C82.6083 423.433 76.1515 365.327 77.9215 333.626C80.4369 288.579 125.317 256.92 148.159 221.704C156.979 208.108 161.992 193.009 150.035 179.812C134.054 162.172 111.244 152.517 90.6352 141.67" stroke="black" stroke-opacity="0.5" stroke-width="3" stroke-linecap="round"/>
<path d="M152.536 166.056C162.818 185.039 172.594 198.292 165.666 220.037C154.15 256.184 120.47 282.085 96.6787 310.075C84.0122 324.977 66.8401 348.071 63.3313 367.808C59.1657 391.239 82.6244 414.776 94.386 432.419" stroke="black" stroke-opacity="0.5" stroke-width="3" stroke-linecap="round"/>
<path d="M101.889 441.797C115.529 455.437 128.672 469.063 116.895 488.692" stroke="black" stroke-opacity="0.5" stroke-width="3" stroke-linecap="round"/>
<path d="M242.574 460.555C186.027 487.165 113.449 487.175 52.4942 488.275C-91.1561 490.868 -234.752 486.202 -378.312 492.444" stroke="black" stroke-opacity="0.5" stroke-width="3" stroke-linecap="round"/>
<path d="M253.829 462.431C220.903 478.363 185.399 486.663 150.036 495.362C76.6779 513.405 2.60668 528.311 -70.6826 546.633C-137.719 563.392 -205.5 578.631 -271.809 598.113C-294.67 604.83 -319.214 609.415 -337.045 625.625" stroke="black" stroke-opacity="0.5" stroke-width="3" stroke-linecap="round"/>
<path d="M773.668 580.451C767.192 578.096 725.826 576.665 735.989 559.243C740.215 551.999 756.719 549.997 763.979 548.585C774.499 546.539 786.723 547.196 791.97 558.166C801.704 578.52 772.46 580.837 758.166 580.451C748.545 580.191 742.062 564.704 750.415 559.135" stroke="black" stroke-opacity="0.5" stroke-width="3" stroke-linecap="round"/>
<path d="M717.474 522.317C706.695 523.344 696.782 530.036 686.685 533.513C659.729 542.798 629.294 545.033 603.899 558.382C590.187 565.589 580.879 576.844 570.956 588.31C559.453 601.602 546.837 613.199 539.198 629.326C527.261 654.527 519.82 682.289 519.82 710.282" stroke="black" stroke-opacity="0.5" stroke-width="3" stroke-linecap="round"/>
<path d="M517.883 718.033C518.496 725.703 520.695 733.112 521.543 740.749C522.308 747.637 520.853 754.792 522.943 761.526C525.703 770.422 535.306 777.168 542.213 782.626C556.849 794.194 572.883 804.006 588.289 814.492C612.478 830.956 639.163 842.655 665.8 854.539C691.936 866.2 718.509 872.484 745.68 880.807C767.217 887.404 787.435 889.714 809.842 891.465C816.755 892.005 827.203 896.006 834.172 893.941C840.842 891.965 847.523 893.785 854.088 892.326C860.357 890.933 866.827 883.535 870.559 878.869" stroke="black" stroke-opacity="0.5" stroke-width="3" stroke-linecap="round"/>
<path d="M531.447 774.229C489.918 774.229 452.604 759.989 423.792 729.66C413.187 718.497 427.504 696.453 434.127 688.321C456.912 660.344 500.413 653.19 533.385 644.398" stroke="black" stroke-opacity="0.5" stroke-width="3" stroke-linecap="round"/>
<path d="M748.479 514.566C769.507 512.655 792.876 509.017 813.287 516.612C843.065 527.692 872.46 549.341 896.504 569.685C904.688 576.611 911.518 585.242 920.941 591.001C930.786 597.017 937.416 614.758 943.226 624.589C953.435 641.867 965.993 660.909 968.955 681.646C973.706 714.902 968.139 748.89 964.003 781.98C961.581 801.354 957.925 820.239 951.946 838.176" stroke="black" stroke-opacity="0.5" stroke-width="3" stroke-linecap="round"/>
<path d="M647.715 855.616C650.487 855.963 653.249 861.306 654.82 863.152C668.843 879.623 682.96 895.883 697.236 912.135C724.841 943.562 759.15 979.655 801.015 991.692C828.068 999.469 857.703 1000.4 885.631 1002.03C914.615 1003.71 945.326 1007.52 974.339 1005.47C992.186 1004.21 1010.94 1000.89 1026.55 991.692C1051.74 976.852 1056.5 951.504 1064.34 925.376" stroke="black" stroke-opacity="0.5" stroke-width="3" stroke-linecap="round"/>
<path d="M965.51 778.105C972.148 799.494 992.636 816.957 1004.91 835.269C1016.64 852.76 1026.49 870.434 1032.26 890.711C1038.92 914.15 1043.57 938.227 1049.48 961.871C1053.65 978.553 1052.68 992.366 1048.83 1008.7" stroke="black" stroke-opacity="0.5" stroke-width="3" stroke-linecap="round"/>
<path d="M531.672 781.98C531.672 836.023 538.247 894.486 552.326 946.618C557.61 966.182 572.072 981.735 587.478 994.282C612.023 1014.27 645.964 1025.66 677.046 1030.03C706.167 1034.12 733.703 1029.32 758.67 1014.34" stroke="black" stroke-opacity="0.5" stroke-width="3" stroke-linecap="round"/>
<path d="M606.504 846.985C620.253 859.206 633.521 869.678 640.642 888.095C646.874 904.213 642.548 927.779 630.304 940.023" stroke="black" stroke-opacity="0.5" stroke-width="3" stroke-linecap="round"/>
<path d="M549.415 835.858C549.143 838.041 548.239 835.791 548.368 834.626C548.946 829.426 550.432 823.644 552.495 818.857C554.395 814.45 552.521 828.952 552.187 830.622C551.458 834.269 550.519 837.343 548.307 840.293" stroke="black" stroke-opacity="0.5" stroke-width="3" stroke-linecap="round"/>
<path d="M953.318 1003.67C954.732 1010.73 964.19 1018.8 968.498 1024.18C974.926 1032.22 981.309 1040.27 987.473 1048.49" stroke="black" stroke-opacity="0.5" stroke-width="3" stroke-linecap="round"/>
</g>
<defs>
<clipPath id="clip0_27_111">
<rect width="1024" height="1024" fill="white"/>
</clipPath>
</defs>
</svg>
