<svg width="1024" height="1024" viewBox="0 0 1024 1024" fill="none" xmlns="http://www.w3.org/2000/svg">
<g clip-path="url(#clip0_27_113)">
<path d="M506.312 583.426C503.445 583.426 500.656 583.551 497.799 583.906C477.114 586.471 457.11 584.551 436.773 580.009C416.391 575.457 396.231 569.822 378.384 558.668C370.622 553.817 360.47 547.79 356.803 538.825C355.909 536.64 357.595 537.027 359.201 537.027C378.59 537.027 397.761 538.414 417.05 540.444C446.322 543.525 478.931 544.956 505.832 558.128C520.345 565.235 528.239 576.642 536.525 589.901" stroke="black" stroke-opacity="0.5" stroke-width="3" stroke-linecap="round"/>
<path d="M677.879 528.395C670.856 529.671 662.618 538.139 657.078 542.242C656.006 543.036 653.358 545.92 653.121 543.082C652.137 531.277 659.42 519.896 665.41 510.41C677.284 491.61 690.283 473.247 704.736 456.338C710.421 449.686 716.466 443.28 723.32 437.814C725.755 435.872 731.162 431.018 734.889 431.639C740.237 432.531 741.157 448.499 741.244 452.201C741.454 461.15 738.179 468.92 733.99 476.6" stroke="black" stroke-opacity="0.5" stroke-width="3" stroke-linecap="round"/>
<path d="M543.001 464.73C537.893 463.924 532.435 458.313 528.254 455.618C517.724 448.831 507.37 441.977 496.602 435.596" stroke="black" stroke-opacity="0.5" stroke-width="3" stroke-linecap="round"/>
<path d="M554.868 451.782C552.138 446.867 547.517 442.752 543.598 438.833C533.69 428.925 524.095 419.236 514.943 408.62" stroke="black" stroke-opacity="0.5" stroke-width="3" stroke-linecap="round"/>
<path d="M603.426 467.967C604.119 460.342 606.233 453.055 606.663 445.307" stroke="black" stroke-opacity="0.5" stroke-width="3" stroke-linecap="round"/>
<path d="M594.795 444.228C594.795 432.958 597.994 421.758 600.19 410.778" stroke="black" stroke-opacity="0.5" stroke-width="3" stroke-linecap="round"/>
<path d="M329.346 585.584C333.66 595.873 341.405 605.86 348.229 614.539C369.497 641.585 398.896 663.158 429.098 679.282C446.535 688.59 464.971 694.882 483.77 700.803C509.792 708.998 536.006 716.789 562.301 724.062C592.335 732.37 622.572 739.267 651.982 749.6" stroke="black" stroke-opacity="0.5" stroke-width="3" stroke-linecap="round"/>
<path d="M754.492 481.995C758.2 515.368 756.65 548.793 756.65 582.347C756.65 600.674 758.521 617.502 761.986 635.4C762.39 637.491 763.125 639.078 763.125 641.215C763.125 644.612 763.125 648.009 763.125 651.406C763.125 655.8 760.967 660.006 760.967 664.355" stroke="black" stroke-opacity="0.5" stroke-width="3" stroke-linecap="round"/>
<path d="M727.518 732.336C722.038 737.177 717.556 743.26 711.932 747.862C709.851 749.564 704.986 747.626 702.7 747.202C687.907 744.463 692.32 733.879 701.441 726.161C711.81 717.387 722.883 710.528 733.753 702.602C737.885 699.588 737.856 704.108 738.848 707.637C741.403 716.719 739.132 720.584 734.592 728.739C731.303 734.647 727.942 739.465 723.202 744.205" stroke="black" stroke-opacity="0.5" stroke-width="3" stroke-linecap="round"/>
<path d="M740.467 680.541C745.773 662.411 755.223 645.102 761.988 627.488C774.053 596.072 784.36 564.051 796.578 532.711" stroke="black" stroke-opacity="0.5" stroke-width="3" stroke-linecap="round"/>
<path d="M773.916 680.541C776.436 673.67 780.708 667.999 785.126 662.197C795.148 649.038 805.624 636.23 815.999 623.351" stroke="black" stroke-opacity="0.5" stroke-width="3" stroke-linecap="round"/>
<path d="M663.852 740.967C650.717 740.967 637.632 743.436 624.766 745.763C601.739 749.928 578.894 755.23 555.647 758.112C531.032 761.164 506.226 761.285 481.492 762.548" stroke="black" stroke-opacity="0.5" stroke-width="3" stroke-linecap="round"/>
<path d="M675.722 760.39C634.049 793.451 587.672 818.75 541.92 845.635" stroke="black" stroke-opacity="0.5" stroke-width="3" stroke-linecap="round"/>
<path d="M623.93 286.687C624.747 268.089 632.32 248.325 641.314 232.135C650.966 214.762 661.25 195.998 673.386 180.22C678.934 173.008 688.172 197.517 689.872 200.782C707.626 234.889 718.509 269.949 727.519 307.189" stroke="black" stroke-opacity="0.5" stroke-width="3" stroke-linecap="round"/>
<path d="M308.845 537.027C302.482 538.845 292.61 539.353 286.964 535.288C283.468 532.771 281.256 529.867 278.572 526.356C269.713 514.771 261.919 502.377 253.813 490.268C238.596 467.533 223.079 445.069 207.414 422.647" stroke="black" stroke-opacity="0.5" stroke-width="3" stroke-linecap="round"/>
<path d="M285.105 234.892C291.656 235.9 297.247 241.395 301.711 245.803C315.416 259.336 323.58 275.476 330.426 293.161" stroke="black" stroke-opacity="0.5" stroke-width="3" stroke-linecap="round"/>
<path d="M402.723 268.343C403.534 261.444 420.506 253.952 425.862 250.838C444.144 240.21 462.37 232.382 482.573 226.26" stroke="black" stroke-opacity="0.5" stroke-width="3" stroke-linecap="round"/>
<path d="M876.844 314.592C855.225 130.833 798.134 -48.4861 744.674 -224.663" stroke="black" stroke-opacity="0.5" stroke-width="3" stroke-linecap="round"/>
<path d="M927.068 290.802C930.557 261.148 939.798 231.353 946.16 202.248C954.237 165.293 962.358 128.279 967.601 90.7841C978.352 13.886 977.677 -62.7022 979.936 -140.073" stroke="black" stroke-opacity="0.5" stroke-width="3" stroke-linecap="round"/>
<path d="M279.434 885.568C266.002 879.728 253.975 872.183 241.546 864.421C186.748 830.199 130.071 797.456 81.179 754.866C4.78121 688.315 -52.5455 599.44 -103.859 512.848" stroke="black" stroke-opacity="0.5" stroke-width="3" stroke-linecap="round"/>
<path d="M192.201 909.358C146.146 911.917 101.412 916.721 55.0376 912.149C-3.2016 906.407 -59.9223 888.138 -115.903 872.057C-199.933 847.918 -281.09 818.35 -362.914 787.762" stroke="black" stroke-opacity="0.5" stroke-width="3" stroke-linecap="round"/>
</g>
<defs>
<clipPath id="clip0_27_113">
<rect width="1024" height="1024" fill="white"/>
</clipPath>
</defs>
</svg>
