<svg width="1024" height="1024" viewBox="0 0 1024 1024" fill="none" xmlns="http://www.w3.org/2000/svg">
<path d="M515.689 474.883C524.93 483.637 537.351 488.129 547.214 496.199C556.789 504.033 531.852 497.423 528.92 496.934" stroke="black" stroke-opacity="0.5" stroke-width="3" stroke-linecap="round"/>
<path d="M500.989 473.413C500.989 468.617 498.491 466.88 493.884 465.246C485.823 462.386 477.29 460.635 468.974 458.712C464.089 457.582 454.691 453.889 449.536 456.099C442.552 459.092 444.906 472.554 448.229 477.17C455.738 487.599 467.422 485.173 478.938 485.173" stroke="black" stroke-opacity="0.5" stroke-width="3" stroke-linecap="round"/>
<path d="M508.34 471.943H511.28" stroke="black" stroke-opacity="0.5" stroke-width="3" stroke-linecap="round"/>
<path d="M540.682 496.934C513.24 508.772 485.679 518.236 457.214 527.561C405.677 544.443 354.387 561.896 302.529 577.788" stroke="black" stroke-opacity="0.5" stroke-width="3" stroke-linecap="round"/>
<path d="M543.621 493.994C523.904 505.496 500.981 512.467 480.081 521.436C434.311 541.077 388.327 557.355 340.75 571.908" stroke="black" stroke-opacity="0.5" stroke-width="3" stroke-linecap="round"/>
<path d="M521.57 533.686C526.269 528.465 526.952 517.515 536.271 517.515C540.791 517.515 538.583 524.031 537.741 526.336C535.227 533.217 529.412 534.715 523.04 536.626" stroke="black" stroke-opacity="0.5" stroke-width="3" stroke-linecap="round"/>
<path d="M505.399 541.036C505.879 532.872 518.766 525.709 526.307 528.132C530.659 529.531 531.258 533.213 527.123 535.483C513.34 543.05 494.187 543.74 478.938 546.917" stroke="black" stroke-opacity="0.5" stroke-width="3" stroke-linecap="round"/>
<path d="M474.527 496.934C456.296 496.934 437.088 490.455 418.991 492.851C409.98 494.043 398.406 502.621 390.732 507.225" stroke="black" stroke-opacity="0.5" stroke-width="3" stroke-linecap="round"/>
<path d="M411.315 551.327C406.257 550.821 385.111 540.309 399.717 539.24C414.003 538.195 431.681 544.001 444.473 550.184C448.084 551.929 448.879 554.487 445.127 555.737" stroke="black" stroke-opacity="0.5" stroke-width="3" stroke-linecap="round"/>
<path d="M401.023 552.797C412.472 555.31 421.459 559.372 433.365 557.208" stroke="black" stroke-opacity="0.5" stroke-width="3" stroke-linecap="round"/>
<path d="M392.204 551.327C383.482 551.327 351.205 545.556 351.205 532.788C351.205 507.04 389.364 539.767 393.674 548.387" stroke="black" stroke-opacity="0.5" stroke-width="3" stroke-linecap="round"/>
<path d="M384.852 495.464C377.93 502.819 368.012 503.388 358.064 502.651C345.921 501.752 334.578 496.843 323.926 491.217C306.097 481.802 287.531 471.92 270.676 460.836C266.757 458.258 265.869 455.981 263.244 452.75C258.215 446.561 247.649 447.171 240.703 447.033C203.868 446.304 169.036 457.738 133.469 466.063" stroke="black" stroke-opacity="0.5" stroke-width="3" stroke-linecap="round"/>
<path d="M132 469.003C147.433 458.714 172.455 462.934 190.15 461.326C203.2 460.139 215.926 455.772 229.025 455.772C244.492 455.772 258.664 464.453 271.331 472.596C287.666 483.097 303.455 494.103 322.212 499.874C337.382 504.542 352.664 507.225 368.683 507.225" stroke="black" stroke-opacity="0.5" stroke-width="3" stroke-linecap="round"/>
<path d="M683.278 513.105C679.403 520.425 672.606 541.036 662.697 541.036" stroke="black" stroke-opacity="0.5" stroke-width="3" stroke-linecap="round"/>
<path d="M652.408 545.447C663.629 545.447 675.929 547.652 686.22 542.507" stroke="black" stroke-opacity="0.5" stroke-width="3" stroke-linecap="round"/>
<path d="M692.1 511.635C692.1 517.633 690.63 523.522 690.63 529.602C690.63 533.988 691.625 538.809 689.16 542.506" stroke="black" stroke-opacity="0.5" stroke-width="3" stroke-linecap="round"/>
<path d="M680.339 507.225C679.429 510.561 675.388 514.322 672.989 516.862C671.454 518.487 672.364 520.134 671.192 521.599C669.169 524.127 667.066 526.421 665.639 529.276" stroke="black" stroke-opacity="0.5" stroke-width="3" stroke-linecap="round"/>
<path d="M687.689 535.156C696.668 535.655 705.045 539.566 714.151 539.566" stroke="black" stroke-opacity="0.5" stroke-width="3" stroke-linecap="round"/>
<path d="M711.21 542.507C704.048 543.223 689.175 549.857 704.513 549.857C714.585 549.857 718.26 546.137 725.911 541.037" stroke="black" stroke-opacity="0.5" stroke-width="3" stroke-linecap="round"/>
<path d="M675.928 483.704C678.683 484.01 679.458 486.604 680.665 488.767C683.617 494.061 688.228 497.904 692.099 502.488C695.26 506.232 700.328 510.453 702.389 514.575" stroke="black" stroke-opacity="0.5" stroke-width="3" stroke-linecap="round"/>
<path d="M671.518 483.704C666.654 486.279 662.042 489.22 656.818 486.317C652.69 484.024 650.624 476.163 652.734 471.943C655.258 466.895 671.607 460.284 674.132 467.859C676.67 475.475 672.975 481.147 668.578 486.644" stroke="black" stroke-opacity="0.5" stroke-width="3" stroke-linecap="round"/>
<path d="M670.049 492.524V516.045" stroke="black" stroke-opacity="0.5" stroke-width="3" stroke-linecap="round"/>
<path d="M695.289 525.637C703.45 526.117 711.872 528.329 719.891 529.474C725.283 530.244 721.783 540.387 721.783 543.615" stroke="black" stroke-opacity="0.5" stroke-width="3" stroke-linecap="round"/>
<path d="M645.469 476.172C650.972 473.275 655.868 470.724 661.973 469.187C670.174 467.123 678.012 467.325 686.444 467.325" stroke="black" stroke-opacity="0.5" stroke-width="3" stroke-linecap="round"/>
<path d="M651.055 470.584C651.316 467.975 654.048 465.238 655.711 463.367C657.372 461.498 661.092 461.436 663.394 461.039C665.871 460.612 667.21 460.669 669.68 460.806C672.349 460.954 674.027 464.221 675.733 465.928" stroke="black" stroke-opacity="0.5" stroke-width="3" stroke-linecap="round"/>
<path d="M661.766 460.34C660.988 460.34 661.16 460.92 660.731 460.444C660.066 459.704 660.243 458.346 661.093 457.805C663.976 455.97 665.025 458.368 665.025 460.806" stroke="black" stroke-opacity="0.5" stroke-width="3" stroke-linecap="round"/>
</svg>
