<svg width="1024" height="1024" viewBox="0 0 1024 1024" fill="none" xmlns="http://www.w3.org/2000/svg">
<path d="M534.078 474.883C543.318 483.637 555.74 488.129 565.603 496.199C575.178 504.033 550.241 497.423 547.309 496.934" stroke="black" stroke-opacity="0.5" stroke-width="3" stroke-linecap="round"/>
<path d="M519.38 473.413C519.38 468.617 516.881 466.88 512.274 465.246C504.214 462.386 495.68 460.635 487.364 458.712C482.48 457.582 473.082 453.889 467.927 456.099C460.943 459.092 463.297 472.554 466.62 477.17C474.129 487.599 485.813 485.173 497.328 485.173" stroke="black" stroke-opacity="0.5" stroke-width="3" stroke-linecap="round"/>
<path d="M526.73 471.943H529.671" stroke="black" stroke-opacity="0.5" stroke-width="3" stroke-linecap="round"/>
<path d="M539.961 533.686C544.659 528.465 545.343 517.515 554.662 517.515C559.181 517.515 556.974 524.031 556.132 526.336C553.618 533.217 547.803 534.715 541.431 536.626" stroke="black" stroke-opacity="0.5" stroke-width="3" stroke-linecap="round"/>
<path d="M523.79 541.036C524.27 532.872 537.156 525.709 544.697 528.132C549.049 529.531 549.649 533.213 545.514 535.483C531.731 543.05 512.578 543.74 497.328 546.917" stroke="black" stroke-opacity="0.5" stroke-width="3" stroke-linecap="round"/>
<path d="M492.92 496.934C474.688 496.934 455.481 490.455 437.383 492.851C428.373 494.043 416.798 502.621 409.125 507.225" stroke="black" stroke-opacity="0.5" stroke-width="3" stroke-linecap="round"/>
<path d="M429.705 551.327C424.647 550.821 403.502 540.309 418.108 539.24C432.394 538.195 450.071 544.001 462.864 550.184C466.475 551.929 467.269 554.487 463.517 555.737" stroke="black" stroke-opacity="0.5" stroke-width="3" stroke-linecap="round"/>
<path d="M419.414 552.797C430.862 555.31 439.85 559.372 451.756 557.208" stroke="black" stroke-opacity="0.5" stroke-width="3" stroke-linecap="round"/>
<path d="M410.593 551.327C401.87 551.327 369.594 545.556 369.594 532.788C369.594 507.04 407.753 539.767 412.063 548.387" stroke="black" stroke-opacity="0.5" stroke-width="3" stroke-linecap="round"/>
<path d="M530.127 493.442C511.961 503.464 495.358 516.179 478.505 528.193C443.973 552.811 409.119 573.427 371.926 593.454" stroke="black" stroke-opacity="0.5" stroke-width="3" stroke-linecap="round"/>
<path d="M531.948 491.623C499.578 519.947 463.16 543.969 430.117 571.633" stroke="black" stroke-opacity="0.5" stroke-width="3" stroke-linecap="round"/>
<path d="M411.93 502.534C399.409 513.663 371.005 496.383 364.248 485.764C336.454 442.087 271.656 462.946 230.09 467.984" stroke="black" stroke-opacity="0.5" stroke-width="3" stroke-linecap="round"/>
<path d="M221 467.984C227.673 468.818 234.287 466.217 241.407 465.358C257.674 463.394 275.393 462.529 291.817 462.529C301.899 462.529 313.008 460.345 321.416 466.166C330.608 472.529 337.092 482.735 346.571 488.896C364.143 500.318 378.621 500.715 399.204 500.715" stroke="black" stroke-opacity="0.5" stroke-width="3" stroke-linecap="round"/>
<path d="M559.832 442.665C550.019 442.385 534.854 431.742 545.471 421.125C555.753 410.843 569.026 429.72 567.012 439.793" stroke="black" stroke-opacity="0.5" stroke-width="3" stroke-linecap="round"/>
<path d="M561.268 446.973C556.483 442.47 549.922 442.503 544.115 439.793C537.144 436.54 530.808 432.31 525.367 426.869" stroke="black" stroke-opacity="0.5" stroke-width="3" stroke-linecap="round"/>
<path d="M568.449 446.974C562.811 441.962 552.253 441.604 545.472 438.357C538.398 434.97 530.496 431.177 522.496 431.177" stroke="black" stroke-opacity="0.5" stroke-width="3" stroke-linecap="round"/>
<path d="M568.449 448.409C560.873 449.251 553.298 450.831 545.472 449.526C537.788 448.246 530.121 444.571 522.496 442.665" stroke="black" stroke-opacity="0.5" stroke-width="3" stroke-linecap="round"/>
<path d="M518.187 429.741C517.689 434.728 518.408 437.806 519.623 442.665" stroke="black" stroke-opacity="0.5" stroke-width="3" stroke-linecap="round"/>
<path d="M506.699 426.869C506.699 430.82 509.271 434.806 512.443 436.921" stroke="black" stroke-opacity="0.5" stroke-width="3" stroke-linecap="round"/>
<path d="M572.754 441.229C578.184 446.116 585.425 448.451 589.986 454.153" stroke="black" stroke-opacity="0.5" stroke-width="3" stroke-linecap="round"/>
<path d="M564.141 452.718C565.248 456.41 578.918 466.568 582.809 468.514" stroke="black" stroke-opacity="0.5" stroke-width="3" stroke-linecap="round"/>
<path d="M584.242 471.386C584.788 477.394 586.468 482.228 590.704 486.464C594.202 489.962 599.905 488.492 604.426 488.698C613.129 489.093 621.595 491.698 630.195 492.926" stroke="black" stroke-opacity="0.5" stroke-width="3" stroke-linecap="round"/>
<path d="M621.582 492.926C621.582 497.042 620.531 502.069 625.969 498.67C631.026 495.51 634.55 491.446 638.814 487.182" stroke="black" stroke-opacity="0.5" stroke-width="3" stroke-linecap="round"/>
<path d="M601.477 455.59C618.775 455.59 638.72 460.722 654.61 467.078" stroke="black" stroke-opacity="0.5" stroke-width="3" stroke-linecap="round"/>
<path d="M648.863 465.642C652.303 469.941 653.68 478.227 648.863 481.438" stroke="black" stroke-opacity="0.5" stroke-width="3" stroke-linecap="round"/>
<path d="M638.812 472.822C641.083 476.295 643.7 482.446 647.429 484.31" stroke="black" stroke-opacity="0.5" stroke-width="3" stroke-linecap="round"/>
<path d="M654.608 477.13C654.504 478.799 653.871 480.039 653.172 481.438" stroke="black" stroke-opacity="0.5" stroke-width="3" stroke-linecap="round"/>
<path d="M607.219 471.386C607.219 482.267 619.647 481.572 628.759 482.874" stroke="black" stroke-opacity="0.5" stroke-width="3" stroke-linecap="round"/>
<path d="M601.477 467.078C614.557 468.168 627.09 475.694 640.249 475.694" stroke="black" stroke-opacity="0.5" stroke-width="3" stroke-linecap="round"/>
<path d="M536.117 434.065C537.644 431.316 541.373 429.001 544.051 427.574C547.443 425.765 551.115 424.642 554.982 424.305C557.274 424.106 559.613 423.506 561.834 422.931C563.264 422.56 564.265 423.06 565.643 423.111C567.885 423.194 570.007 424.734 572.224 424.734" stroke="black" stroke-opacity="0.5" stroke-width="3" stroke-linecap="round"/>
<path d="M538.145 426.762C540.698 421.939 543.643 415.991 549.865 415.425C551.903 415.24 554.005 415.317 555.972 415.809C557.818 416.27 560.339 419.341 561.675 420.677" stroke="black" stroke-opacity="0.5" stroke-width="3" stroke-linecap="round"/>
<path d="M545.855 414.591C545.855 408.248 552.377 413.75 549.912 416.214" stroke="black" stroke-opacity="0.5" stroke-width="3" stroke-linecap="round"/>
</svg>
