<svg width="1024" height="1024" viewBox="0 0 1024 1024" fill="none" xmlns="http://www.w3.org/2000/svg">
<path d="M603.773 478.199C614.253 485.423 627.219 487.945 638.209 494.397C648.878 500.66 623.22 497.976 620.248 497.945" stroke="black" stroke-opacity="0.5" stroke-width="3" stroke-linecap="round"/>
<path d="M603.136 476.687C602.238 471.976 599.459 470.738 594.627 469.995C586.174 468.694 577.463 468.572 568.934 468.24C563.925 468.044 554.001 466.176 549.351 469.311C543.051 473.559 547.884 486.343 552.012 490.255C561.341 499.094 572.364 494.524 583.676 492.368" stroke="black" stroke-opacity="0.5" stroke-width="3" stroke-linecap="round"/>
<path d="M600.508 474.536H603.448" stroke="black" stroke-opacity="0.5" stroke-width="3" stroke-linecap="round"/>
<path d="M613.738 536.279C618.437 531.058 619.12 520.108 628.439 520.108C632.959 520.108 630.751 526.624 629.909 528.928C627.395 535.81 621.58 537.307 615.208 539.219" stroke="black" stroke-opacity="0.5" stroke-width="3" stroke-linecap="round"/>
<path d="M597.567 543.629C598.047 535.465 610.934 528.301 618.475 530.725C622.827 532.124 623.426 535.806 619.291 538.076C605.508 545.643 586.355 546.333 571.105 549.51" stroke="black" stroke-opacity="0.5" stroke-width="3" stroke-linecap="round"/>
<path d="M566.693 499.527C548.462 499.527 529.254 493.048 511.157 495.444C502.146 496.636 490.572 505.214 482.898 509.818" stroke="black" stroke-opacity="0.5" stroke-width="3" stroke-linecap="round"/>
<path d="M503.483 553.92C498.425 553.414 477.279 542.901 491.885 541.833C506.171 540.787 523.848 546.593 536.641 552.777C540.252 554.522 541.047 557.079 537.295 558.33" stroke="black" stroke-opacity="0.5" stroke-width="3" stroke-linecap="round"/>
<path d="M493.191 555.39C504.64 557.903 513.627 561.965 525.533 559.8" stroke="black" stroke-opacity="0.5" stroke-width="3" stroke-linecap="round"/>
<path d="M484.374 553.92C475.652 553.92 443.375 548.149 443.375 535.38C443.375 509.633 481.534 542.36 485.844 550.98" stroke="black" stroke-opacity="0.5" stroke-width="3" stroke-linecap="round"/>
<path d="M529.753 449.495C523.383 451.788 513.562 459.177 512.471 466.263C510.289 480.448 536.673 489.964 545.942 492.281" stroke="black" stroke-opacity="0.5" stroke-width="3" stroke-linecap="round"/>
<path d="M530.909 455.277C529.958 456.267 522.755 466.741 526.926 467.933C531.856 469.341 536.534 473.622 540.16 477.248" stroke="black" stroke-opacity="0.5" stroke-width="3" stroke-linecap="round"/>
<path d="M513.564 477.248C508.233 480.07 507.026 484.942 503.156 488.812" stroke="black" stroke-opacity="0.5" stroke-width="3" stroke-linecap="round"/>
<path d="M500.845 498.062C514.712 499.603 489.871 519.444 488.125 521.19" stroke="black" stroke-opacity="0.5" stroke-width="3" stroke-linecap="round"/>
<path d="M515.875 492.281C520.171 496.576 522.443 501.777 519.923 507.378C518.512 510.513 516.809 517.254 513.562 518.877" stroke="black" stroke-opacity="0.5" stroke-width="3" stroke-linecap="round"/>
<path d="M511.25 521.19C518.954 522.046 522.515 528.203 513.563 530.441" stroke="black" stroke-opacity="0.5" stroke-width="3" stroke-linecap="round"/>
<path d="M492.75 524.659C497.161 529.071 505.352 529.285 511.252 529.285" stroke="black" stroke-opacity="0.5" stroke-width="3" stroke-linecap="round"/>
<path d="M560.974 488.812C555.821 489.083 549.333 491.163 544.785 493.437" stroke="black" stroke-opacity="0.5" stroke-width="3" stroke-linecap="round"/>
<path d="M542.917 451.427C539.04 451.427 535.387 449.387 533.275 446.086C531.387 443.136 530.359 438.679 533.416 436.248C537.598 432.921 545.58 432.528 548.96 437.26C552.081 441.628 549.827 446.681 547.471 450.921" stroke="black" stroke-opacity="0.5" stroke-width="3" stroke-linecap="round"/>
<path d="M583.762 495.841C582.404 496.113 581.588 496.808 580.378 497.534C572.236 502.418 563.045 505.684 554.225 509.072C522.81 521.137 490.088 529.528 457.766 538.763" stroke="black" stroke-opacity="0.5" stroke-width="3" stroke-linecap="round"/>
<path d="M592.067 493.072C581.546 496.408 572.553 502.79 563.529 508.994C540.193 525.038 517.041 541.223 492.377 555.224C453.093 577.525 411.815 591.416 368.381 603.3C319.341 616.717 270.06 629.265 221 642.606" stroke="black" stroke-opacity="0.5" stroke-width="3" stroke-linecap="round"/>
<path d="M305.461 451.535C312.536 445.167 325.999 447.389 334.306 448.92C349.207 451.664 362.05 461.601 374.228 470.15C407.45 493.468 448.904 495.841 488.225 495.841" stroke="black" stroke-opacity="0.5" stroke-width="3" stroke-linecap="round"/>
<path d="M301.305 455.688C308.135 455.688 320.415 454.03 325.535 459.15C330.735 464.35 337.209 467.802 342.996 472.303C358.143 484.085 379.007 489.058 396.994 494.149C419.684 500.571 439.946 502.118 463.3 499.995" stroke="black" stroke-opacity="0.5" stroke-width="3" stroke-linecap="round"/>
<path d="M527.562 433.413C527.684 434.381 532.99 434.835 533.805 435.064C537.781 436.18 541.57 437.085 544.97 439.475C548.107 441.681 551.374 443.27 554.754 445.028C555.744 445.542 556.93 446.425 557.275 447.459" stroke="black" stroke-opacity="0.5" stroke-width="3" stroke-linecap="round"/>
<path d="M531.883 436.114C533.969 434.236 536.739 434.507 539.176 433.383C541.231 432.434 543.897 431.543 546.229 432.602C549.964 434.3 552.952 437.14 552.952 441.516" stroke="black" stroke-opacity="0.5" stroke-width="3" stroke-linecap="round"/>
<path d="M547.009 432.872C544.747 432.59 545.458 429.631 547.549 429.631C550.03 429.631 551.331 431.782 551.331 433.953" stroke="black" stroke-opacity="0.5" stroke-width="3" stroke-linecap="round"/>
</svg>
