<svg width="1024" height="1024" viewBox="0 0 1024 1024" fill="none" xmlns="http://www.w3.org/2000/svg">
<g clip-path="url(#clip0_31_757)">
<path d="M570.534 351V340.091H572.21V351H570.534ZM571.386 338.273C571.06 338.273 570.778 338.161 570.541 337.939C570.309 337.716 570.193 337.449 570.193 337.136C570.193 336.824 570.309 336.556 570.541 336.334C570.778 336.111 571.06 336 571.386 336C571.713 336 571.992 336.111 572.224 336.334C572.461 336.556 572.58 336.824 572.58 337.136C572.58 337.449 572.461 337.716 572.224 337.939C571.992 338.161 571.713 338.273 571.386 338.273ZM582.581 344.438V351H580.905V340.091H582.525V341.795H582.667C582.922 341.241 583.31 340.796 583.831 340.46C584.352 340.119 585.025 339.949 585.848 339.949C586.587 339.949 587.233 340.1 587.787 340.403C588.341 340.702 588.772 341.156 589.08 341.767C589.388 342.373 589.542 343.14 589.542 344.068V351H587.865V344.182C587.865 343.325 587.643 342.657 587.198 342.179C586.753 341.696 586.142 341.455 585.365 341.455C584.83 341.455 584.352 341.571 583.931 341.803C583.514 342.035 583.185 342.373 582.944 342.818C582.702 343.263 582.581 343.803 582.581 344.438ZM595.815 351.256C595.123 351.256 594.496 351.125 593.933 350.865C593.369 350.6 592.922 350.219 592.59 349.722C592.259 349.22 592.093 348.614 592.093 347.903C592.093 347.278 592.216 346.772 592.462 346.384C592.709 345.991 593.038 345.683 593.45 345.46C593.862 345.238 594.316 345.072 594.813 344.963C595.315 344.849 595.819 344.759 596.326 344.693C596.989 344.608 597.526 344.544 597.938 344.501C598.355 344.454 598.658 344.376 598.847 344.267C599.041 344.158 599.138 343.969 599.138 343.699V343.642C599.138 342.941 598.947 342.397 598.563 342.009C598.184 341.62 597.609 341.426 596.837 341.426C596.037 341.426 595.41 341.601 594.955 341.952C594.501 342.302 594.181 342.676 593.996 343.074L592.406 342.506C592.69 341.843 593.068 341.327 593.542 340.957C594.02 340.583 594.541 340.323 595.104 340.176C595.673 340.025 596.231 339.949 596.781 339.949C597.131 339.949 597.533 339.991 597.988 340.077C598.447 340.157 598.89 340.325 599.316 340.581C599.747 340.837 600.104 341.223 600.388 341.739C600.673 342.255 600.815 342.946 600.815 343.812V351H599.138V349.523H599.053C598.94 349.759 598.75 350.013 598.485 350.283C598.22 350.553 597.867 350.782 597.427 350.972C596.987 351.161 596.449 351.256 595.815 351.256ZM596.07 349.75C596.733 349.75 597.292 349.62 597.746 349.359C598.206 349.099 598.551 348.763 598.783 348.351C599.02 347.939 599.138 347.506 599.138 347.051V345.517C599.067 345.602 598.911 345.68 598.67 345.751C598.433 345.818 598.158 345.877 597.846 345.929C597.538 345.976 597.237 346.019 596.944 346.057C596.655 346.09 596.421 346.118 596.241 346.142C595.805 346.199 595.398 346.291 595.019 346.419C594.645 346.542 594.342 346.729 594.11 346.98C593.883 347.226 593.769 347.562 593.769 347.989C593.769 348.571 593.985 349.011 594.415 349.31C594.851 349.603 595.403 349.75 596.07 349.75ZM603.874 351V340.091H605.493V341.795H605.635C605.863 341.213 606.23 340.761 606.736 340.439C607.243 340.112 607.851 339.949 608.561 339.949C609.281 339.949 609.88 340.112 610.358 340.439C610.841 340.761 611.218 341.213 611.488 341.795H611.601C611.881 341.232 612.3 340.785 612.858 340.453C613.417 340.117 614.087 339.949 614.868 339.949C615.844 339.949 616.641 340.254 617.262 340.865C617.882 341.471 618.192 342.416 618.192 343.699V351H616.516V343.699C616.516 342.894 616.296 342.319 615.855 341.973C615.415 341.627 614.897 341.455 614.3 341.455C613.533 341.455 612.939 341.687 612.517 342.151C612.096 342.61 611.885 343.192 611.885 343.898V351H610.181V343.528C610.181 342.908 609.98 342.409 609.577 342.03C609.175 341.646 608.656 341.455 608.022 341.455C607.586 341.455 607.179 341.571 606.8 341.803C606.426 342.035 606.123 342.357 605.891 342.768C605.664 343.176 605.55 343.647 605.55 344.182V351H603.874ZM625.831 351.227C624.779 351.227 623.873 350.995 623.11 350.531C622.353 350.062 621.768 349.409 621.356 348.571C620.949 347.728 620.745 346.748 620.745 345.631C620.745 344.513 620.949 343.528 621.356 342.676C621.768 341.819 622.341 341.152 623.075 340.673C623.814 340.19 624.675 339.949 625.66 339.949C626.228 339.949 626.789 340.044 627.343 340.233C627.897 340.422 628.402 340.73 628.856 341.156C629.311 341.578 629.673 342.136 629.943 342.832C630.213 343.528 630.348 344.385 630.348 345.403V346.114H621.939V344.665H628.643C628.643 344.049 628.52 343.5 628.274 343.017C628.032 342.534 627.687 342.153 627.237 341.874C626.792 341.594 626.266 341.455 625.66 341.455C624.993 341.455 624.415 341.62 623.927 341.952C623.444 342.278 623.073 342.705 622.812 343.23C622.552 343.756 622.422 344.319 622.422 344.92V345.886C622.422 346.71 622.564 347.409 622.848 347.982C623.136 348.55 623.537 348.983 624.048 349.281C624.559 349.575 625.154 349.722 625.831 349.722C626.271 349.722 626.669 349.66 627.024 349.537C627.384 349.409 627.694 349.22 627.954 348.969C628.215 348.713 628.416 348.396 628.558 348.017L630.177 348.472C630.007 349.021 629.72 349.504 629.318 349.92C628.915 350.332 628.418 350.654 627.826 350.886C627.234 351.114 626.569 351.227 625.831 351.227ZM637.017 351.227C636.108 351.227 635.305 350.998 634.609 350.538C633.913 350.074 633.368 349.421 632.975 348.578C632.583 347.731 632.386 346.729 632.386 345.574C632.386 344.428 632.583 343.434 632.975 342.591C633.368 341.748 633.915 341.097 634.616 340.638C635.317 340.179 636.127 339.949 637.045 339.949C637.755 339.949 638.316 340.067 638.728 340.304C639.145 340.536 639.462 340.801 639.68 341.099C639.903 341.393 640.075 341.634 640.199 341.824H640.341V336.455H642.017V351H640.397V349.324H640.199C640.075 349.523 639.9 349.774 639.673 350.077C639.446 350.375 639.121 350.643 638.7 350.879C638.279 351.111 637.717 351.227 637.017 351.227ZM637.244 349.722C637.916 349.722 638.484 349.546 638.949 349.196C639.413 348.841 639.765 348.351 640.007 347.726C640.248 347.096 640.369 346.369 640.369 345.545C640.369 344.731 640.251 344.018 640.014 343.408C639.777 342.792 639.427 342.314 638.963 341.973C638.499 341.627 637.926 341.455 637.244 341.455C636.534 341.455 635.942 341.637 635.468 342.001C635 342.361 634.647 342.851 634.41 343.472C634.178 344.087 634.062 344.778 634.062 345.545C634.062 346.322 634.181 347.027 634.417 347.662C634.659 348.292 635.014 348.794 635.483 349.168C635.956 349.537 636.543 349.722 637.244 349.722ZM655.689 340.091V341.511H650.035V340.091H655.689ZM651.683 337.477H653.359V347.875C653.359 348.348 653.428 348.704 653.565 348.94C653.707 349.172 653.887 349.329 654.105 349.409C654.327 349.485 654.562 349.523 654.808 349.523C654.993 349.523 655.144 349.513 655.262 349.494C655.381 349.471 655.475 349.452 655.547 349.438L655.887 350.943C655.774 350.986 655.615 351.028 655.412 351.071C655.208 351.118 654.95 351.142 654.637 351.142C654.164 351.142 653.7 351.04 653.245 350.837C652.796 350.633 652.422 350.323 652.123 349.906C651.83 349.49 651.683 348.964 651.683 348.33V337.477ZM660.12 344.438V351H658.444V336.455H660.12V341.795H660.262C660.518 341.232 660.902 340.785 661.413 340.453C661.929 340.117 662.616 339.949 663.473 339.949C664.216 339.949 664.867 340.098 665.426 340.396C665.984 340.69 666.418 341.142 666.725 341.753C667.038 342.359 667.194 343.131 667.194 344.068V351H665.518V344.182C665.518 343.315 665.293 342.645 664.843 342.172C664.398 341.694 663.78 341.455 662.99 341.455C662.44 341.455 661.948 341.571 661.512 341.803C661.082 342.035 660.741 342.373 660.49 342.818C660.243 343.263 660.12 343.803 660.12 344.438ZM674.835 351.227C673.783 351.227 672.877 350.995 672.114 350.531C671.357 350.062 670.772 349.409 670.36 348.571C669.953 347.728 669.749 346.748 669.749 345.631C669.749 344.513 669.953 343.528 670.36 342.676C670.772 341.819 671.345 341.152 672.079 340.673C672.817 340.19 673.679 339.949 674.664 339.949C675.232 339.949 675.793 340.044 676.347 340.233C676.901 340.422 677.406 340.73 677.86 341.156C678.315 341.578 678.677 342.136 678.947 342.832C679.217 343.528 679.352 344.385 679.352 345.403V346.114H670.942V344.665H677.647C677.647 344.049 677.524 343.5 677.278 343.017C677.036 342.534 676.691 342.153 676.241 341.874C675.796 341.594 675.27 341.455 674.664 341.455C673.996 341.455 673.419 341.62 672.931 341.952C672.448 342.278 672.076 342.705 671.816 343.23C671.556 343.756 671.425 344.319 671.425 344.92V345.886C671.425 346.71 671.567 347.409 671.852 347.982C672.14 348.55 672.54 348.983 673.052 349.281C673.563 349.575 674.157 349.722 674.835 349.722C675.275 349.722 675.673 349.66 676.028 349.537C676.388 349.409 676.698 349.22 676.958 348.969C677.219 348.713 677.42 348.396 677.562 348.017L679.181 348.472C679.011 349.021 678.724 349.504 678.322 349.92C677.919 350.332 677.422 350.654 676.83 350.886C676.238 351.114 675.573 351.227 674.835 351.227ZM687.526 351V340.091H689.146V341.739H689.259C689.458 341.199 689.818 340.761 690.339 340.425C690.86 340.089 691.447 339.92 692.1 339.92C692.223 339.92 692.377 339.923 692.562 339.928C692.746 339.932 692.886 339.939 692.981 339.949V341.653C692.924 341.639 692.794 341.618 692.59 341.589C692.391 341.556 692.181 341.54 691.958 341.54C691.428 341.54 690.954 341.651 690.538 341.874C690.126 342.091 689.799 342.394 689.558 342.783C689.321 343.166 689.202 343.604 689.202 344.097V351H687.526ZM698.178 351.256C697.487 351.256 696.859 351.125 696.296 350.865C695.732 350.6 695.285 350.219 694.953 349.722C694.622 349.22 694.456 348.614 694.456 347.903C694.456 347.278 694.579 346.772 694.826 346.384C695.072 345.991 695.401 345.683 695.813 345.46C696.225 345.238 696.679 345.072 697.176 344.963C697.678 344.849 698.183 344.759 698.689 344.693C699.352 344.608 699.89 344.544 700.301 344.501C700.718 344.454 701.021 344.376 701.211 344.267C701.405 344.158 701.502 343.969 701.502 343.699V343.642C701.502 342.941 701.31 342.397 700.926 342.009C700.548 341.62 699.972 341.426 699.201 341.426C698.4 341.426 697.773 341.601 697.319 341.952C696.864 342.302 696.544 342.676 696.36 343.074L694.769 342.506C695.053 341.843 695.432 341.327 695.905 340.957C696.383 340.583 696.904 340.323 697.468 340.176C698.036 340.025 698.595 339.949 699.144 339.949C699.494 339.949 699.897 339.991 700.351 340.077C700.81 340.157 701.253 340.325 701.679 340.581C702.11 340.837 702.468 341.223 702.752 341.739C703.036 342.255 703.178 342.946 703.178 343.812V351H701.502V349.523H701.417C701.303 349.759 701.114 350.013 700.848 350.283C700.583 350.553 700.23 350.782 699.79 350.972C699.35 351.161 698.812 351.256 698.178 351.256ZM698.434 349.75C699.096 349.75 699.655 349.62 700.11 349.359C700.569 349.099 700.915 348.763 701.147 348.351C701.383 347.939 701.502 347.506 701.502 347.051V345.517C701.431 345.602 701.275 345.68 701.033 345.751C700.796 345.818 700.522 345.877 700.209 345.929C699.901 345.976 699.601 346.019 699.307 346.057C699.018 346.09 698.784 346.118 698.604 346.142C698.168 346.199 697.761 346.291 697.382 346.419C697.008 346.542 696.705 346.729 696.473 346.98C696.246 347.226 696.132 347.562 696.132 347.989C696.132 348.571 696.348 349.011 696.779 349.31C697.214 349.603 697.766 349.75 698.434 349.75ZM710.982 340.091V341.511H705.328V340.091H710.982ZM706.976 337.477H708.652V347.875C708.652 348.348 708.721 348.704 708.858 348.94C709 349.172 709.18 349.329 709.398 349.409C709.62 349.485 709.855 349.523 710.101 349.523C710.286 349.523 710.437 349.513 710.555 349.494C710.674 349.471 710.768 349.452 710.839 349.438L711.18 350.943C711.067 350.986 710.908 351.028 710.705 351.071C710.501 351.118 710.243 351.142 709.93 351.142C709.457 351.142 708.993 351.04 708.538 350.837C708.089 350.633 707.714 350.323 707.416 349.906C707.123 349.49 706.976 348.964 706.976 348.33V337.477ZM719.355 351V336.455H721.031V341.824H721.173C721.296 341.634 721.467 341.393 721.685 341.099C721.907 340.801 722.224 340.536 722.636 340.304C723.053 340.067 723.616 339.949 724.327 339.949C725.245 339.949 726.055 340.179 726.756 340.638C727.456 341.097 728.003 341.748 728.396 342.591C728.789 343.434 728.986 344.428 728.986 345.574C728.986 346.729 728.789 347.731 728.396 348.578C728.003 349.421 727.459 350.074 726.763 350.538C726.067 350.998 725.264 351.227 724.355 351.227C723.654 351.227 723.093 351.111 722.672 350.879C722.25 350.643 721.926 350.375 721.699 350.077C721.472 349.774 721.296 349.523 721.173 349.324H720.974V351H719.355ZM721.003 345.545C721.003 346.369 721.124 347.096 721.365 347.726C721.607 348.351 721.959 348.841 722.423 349.196C722.887 349.546 723.455 349.722 724.128 349.722C724.829 349.722 725.413 349.537 725.882 349.168C726.356 348.794 726.711 348.292 726.947 347.662C727.189 347.027 727.31 346.322 727.31 345.545C727.31 344.778 727.191 344.087 726.955 343.472C726.723 342.851 726.37 342.361 725.896 342.001C725.428 341.637 724.838 341.455 724.128 341.455C723.446 341.455 722.873 341.627 722.409 341.973C721.945 342.314 721.595 342.792 721.358 343.408C721.121 344.018 721.003 344.731 721.003 345.545ZM736.124 351.227C735.072 351.227 734.166 350.995 733.403 350.531C732.646 350.062 732.061 349.409 731.649 348.571C731.242 347.728 731.038 346.748 731.038 345.631C731.038 344.513 731.242 343.528 731.649 342.676C732.061 341.819 732.634 341.152 733.368 340.673C734.107 340.19 734.968 339.949 735.953 339.949C736.521 339.949 737.082 340.044 737.636 340.233C738.19 340.422 738.695 340.73 739.149 341.156C739.604 341.578 739.966 342.136 740.236 342.832C740.506 343.528 740.641 344.385 740.641 345.403V346.114H732.232V344.665H738.936C738.936 344.049 738.813 343.5 738.567 343.017C738.325 342.534 737.98 342.153 737.53 341.874C737.085 341.594 736.559 341.455 735.953 341.455C735.286 341.455 734.708 341.62 734.22 341.952C733.737 342.278 733.366 342.705 733.105 343.23C732.845 343.756 732.714 344.319 732.714 344.92V345.886C732.714 346.71 732.857 347.409 733.141 347.982C733.429 348.55 733.83 348.983 734.341 349.281C734.852 349.575 735.446 349.722 736.124 349.722C736.564 349.722 736.962 349.66 737.317 349.537C737.677 349.409 737.987 349.22 738.247 348.969C738.508 348.713 738.709 348.396 738.851 348.017L740.47 348.472C740.3 349.021 740.013 349.504 739.611 349.92C739.208 350.332 738.711 350.654 738.119 350.886C737.527 351.114 736.862 351.227 736.124 351.227ZM747.935 340.091V341.511H742.281V340.091H747.935ZM743.929 337.477H745.605V347.875C745.605 348.348 745.674 348.704 745.811 348.94C745.953 349.172 746.133 349.329 746.351 349.409C746.573 349.485 746.808 349.523 747.054 349.523C747.239 349.523 747.39 349.513 747.509 349.494C747.627 349.471 747.722 349.452 747.793 349.438L748.134 350.943C748.02 350.986 747.861 351.028 747.658 351.071C747.454 351.118 747.196 351.142 746.884 351.142C746.41 351.142 745.946 351.04 745.491 350.837C745.042 350.633 744.668 350.323 744.369 349.906C744.076 349.49 743.929 348.964 743.929 348.33V337.477ZM755.2 340.091V341.511H749.547V340.091H755.2ZM751.195 337.477H752.871V347.875C752.871 348.348 752.939 348.704 753.077 348.94C753.219 349.172 753.399 349.329 753.616 349.409C753.839 349.485 754.073 349.523 754.32 349.523C754.504 349.523 754.656 349.513 754.774 349.494C754.893 349.471 754.987 349.452 755.058 349.438L755.399 350.943C755.286 350.986 755.127 351.028 754.923 351.071C754.72 351.118 754.462 351.142 754.149 351.142C753.676 351.142 753.212 351.04 752.757 350.837C752.307 350.633 751.933 350.323 751.635 349.906C751.341 349.49 751.195 348.964 751.195 348.33V337.477ZM758.801 355.091C758.517 355.091 758.264 355.067 758.041 355.02C757.819 354.977 757.665 354.935 757.58 354.892L758.006 353.415C758.413 353.519 758.773 353.557 759.085 353.528C759.398 353.5 759.675 353.36 759.916 353.109C760.162 352.863 760.387 352.463 760.591 351.909L760.903 351.057L756.869 340.091H758.688L761.699 348.784H761.812L764.824 340.091H766.642L762.011 352.591C761.803 353.154 761.545 353.621 761.237 353.99C760.929 354.364 760.572 354.641 760.165 354.821C759.762 355.001 759.308 355.091 758.801 355.091ZM775.701 351.114C775.351 351.114 775.05 350.988 774.799 350.737C774.548 350.486 774.423 350.186 774.423 349.835C774.423 349.485 774.548 349.184 774.799 348.933C775.05 348.682 775.351 348.557 775.701 348.557C776.051 348.557 776.352 348.682 776.603 348.933C776.854 349.184 776.979 349.485 776.979 349.835C776.979 350.067 776.92 350.28 776.802 350.474C776.688 350.669 776.534 350.825 776.34 350.943C776.151 351.057 775.938 351.114 775.701 351.114ZM775.701 343.017C775.351 343.017 775.05 342.892 774.799 342.641C774.548 342.39 774.423 342.089 774.423 341.739C774.423 341.388 774.548 341.088 774.799 340.837C775.05 340.586 775.351 340.46 775.701 340.46C776.051 340.46 776.352 340.586 776.603 340.837C776.854 341.088 776.979 341.388 776.979 341.739C776.979 341.971 776.92 342.184 776.802 342.378C776.688 342.572 776.534 342.728 776.34 342.847C776.151 342.96 775.938 343.017 775.701 343.017ZM783.567 344.864C783.567 346.653 783.332 348.301 782.864 349.807C782.4 351.308 781.734 352.69 780.868 353.955H779.391C779.732 353.486 780.049 352.908 780.342 352.222C780.641 351.54 780.901 350.792 781.124 349.977C781.346 349.158 781.519 348.313 781.642 347.442C781.77 346.566 781.834 345.706 781.834 344.864C781.834 343.737 781.725 342.593 781.507 341.433C781.289 340.273 780.996 339.196 780.626 338.202C780.257 337.207 779.845 336.398 779.391 335.773H780.868C781.734 337.037 782.4 338.422 782.864 339.928C783.332 341.429 783.567 343.074 783.567 344.864Z" fill="black"/>
<path d="M624.067 615.337C623.31 617.846 620.384 614.988 619.537 613.792C616.988 610.198 619.121 607.611 621.06 604.388C628.558 591.924 648.288 588.472 661.59 591.108C669.321 592.64 672.19 602.418 671.025 609.259C669.275 619.544 648.565 622.876 640.728 623.739" stroke="black" stroke-opacity="0.5" stroke-width="3" stroke-linecap="round"/>
<path d="M646.135 624.659C653.619 622.988 661.39 624.586 668.887 625.44C683.365 627.089 697.88 628.634 712.336 630.439C718.098 631.158 723.83 632.318 729.555 633.292" stroke="black" stroke-opacity="0.5" stroke-width="3" stroke-linecap="round"/>
<path d="M650.363 640.688L711.223 651.047" stroke="black" stroke-opacity="0.5" stroke-width="3" stroke-linecap="round"/>
<path d="M730.674 634.875C734.219 635.891 736.028 639.981 733.529 642.628C724.986 651.678 717.417 653.414 705.122 654.183" stroke="black" stroke-opacity="0.5" stroke-width="3" stroke-linecap="round"/>
<path d="M616.839 616.89C603.261 614.579 589.743 612.674 576.035 611.336" stroke="black" stroke-opacity="0.5" stroke-width="3" stroke-linecap="round"/>
<path d="M584.761 548.364C589.149 546.652 593.287 546.381 598.113 546.229C632.11 545.162 666.2 550.93 699.774 555.339C774.017 565.087 847.513 568.942 922.324 568.248" stroke="black" stroke-opacity="0.5" stroke-width="3" stroke-linecap="round"/>
<path d="M578.231 545.86C580.501 542.76 586.064 541.25 589.402 540.185C607.388 534.445 626.671 532.785 645.367 531.156C713.545 525.216 781.347 526.698 849.611 529.43" stroke="black" stroke-opacity="0.5" stroke-width="3" stroke-linecap="round"/>
<path d="M539.214 525.218C520.979 510.442 496.69 501.722 474.844 493.696C416.398 472.224 351.975 465.514 290.912 455.12" stroke="black" stroke-opacity="0.5" stroke-width="3" stroke-linecap="round"/>
<path d="M555.185 537.677C549.405 534.68 543.153 532.604 537.143 530.122C513.073 520.182 489.292 509.269 464.823 500.339C441.438 491.806 415.872 489.846 391.524 485.389C348.785 477.565 305.978 470.209 263.145 462.918" stroke="black" stroke-opacity="0.5" stroke-width="3" stroke-linecap="round"/>
<path d="M633.067 598.232C632.686 600.465 632.317 602.211 634.757 602.994C637.215 603.783 639.919 600.646 642.22 600.29" stroke="black" stroke-opacity="0.5" stroke-width="3" stroke-linecap="round"/>
<path d="M649.597 601.045C647.546 603.047 648.974 607.083 651.053 608.49C653.578 610.2 656.331 607.066 658.171 606.506" stroke="black" stroke-opacity="0.5" stroke-width="3" stroke-linecap="round"/>
<path d="M648.873 644.627C646.735 652.403 640.783 659.537 637.991 667.265C635.978 672.837 635.179 677.804 630.777 681.978" stroke="black" stroke-opacity="0.5" stroke-width="3" stroke-linecap="round"/>
<path d="M519.495 774.111C518.149 778.671 516.91 760.523 517.898 756.808C520.52 746.951 539.596 756.898 542.882 762.244C545.542 766.573 550.737 799.417 541.024 796.551" stroke="black" stroke-opacity="0.5" stroke-width="3" stroke-linecap="round"/>
<path d="M526.59 790.952C531.039 799.126 540.821 798.925 548.787 797.502" stroke="black" stroke-opacity="0.5" stroke-width="3" stroke-linecap="round"/>
<path d="M627.244 690.62C622.615 706.307 612.124 721.031 603.022 734.339C597.834 741.925 593.304 754.522 584.832 759.134C578.187 762.75 573.816 768.489 567.969 773.372C563.685 776.949 561.891 781.907 557.719 785.391" stroke="black" stroke-opacity="0.5" stroke-width="3" stroke-linecap="round"/>
<path d="M511.244 747.546C511.821 745.591 512.598 738.862 515.025 739.278C517.985 739.786 521.726 736.666 524.243 735.296" stroke="black" stroke-opacity="0.5" stroke-width="3" stroke-linecap="round"/>
<path d="M535.565 733.274C536.748 730.562 539.922 727.998 541.619 725.379C543.867 721.909 544.669 716.26 547.551 713.351C552.973 707.881 556.558 701.146 563.606 697.31" stroke="black" stroke-opacity="0.5" stroke-width="3" stroke-linecap="round"/>
<path d="M556.723 703.282L561.793 704.145" stroke="black" stroke-opacity="0.5" stroke-width="3" stroke-linecap="round"/>
<path d="M452.901 619.843C450.675 607.888 485.502 580.579 493.154 572.734C516.06 549.25 545.185 540.032 572.213 523.283C601.925 504.87 574.172 601.447 568.417 613.523" stroke="black" stroke-opacity="0.5" stroke-width="3" stroke-linecap="round"/>
<path d="M580.484 523.814C563.931 515.926 583.681 505.872 581.808 521.035" stroke="black" stroke-opacity="0.5" stroke-width="3" stroke-linecap="round"/>
<path d="M580.095 566.721C575.234 565.494 571.774 572.025 572.658 576.043C574.485 584.357 584.791 585.464 591.362 586.794" stroke="black" stroke-opacity="0.5" stroke-width="3" stroke-linecap="round"/>
<path d="M497.478 562.948C494.018 568.664 484.95 569.895 482.222 574.849C479.455 579.871 477.244 585.295 474.777 590.472" stroke="black" stroke-opacity="0.5" stroke-width="3" stroke-linecap="round"/>
<path d="M426.527 631.383C428.379 626.045 421.539 600.578 416.863 598.022C402.831 590.352 381.44 612.74 373.935 621.056C363.92 632.153 350.026 643.398 359.444 658.172C364.122 665.51 387.706 649.866 390.684 646.255" stroke="black" stroke-opacity="0.5" stroke-width="3" stroke-linecap="round"/>
<path d="M516.416 677.412C518.015 672.594 509.796 662.592 505.205 660.709C497.626 657.601 483.476 672.415 481.597 678.216C479.397 685.005 467.167 703.3 469.284 709.27C471.232 714.766 486.201 702.204 489.748 699.851" stroke="black" stroke-opacity="0.5" stroke-width="3" stroke-linecap="round"/>
<path d="M323.065 754.62C329.105 741.946 334.971 716.157 312.161 723.863C299.124 728.267 264.833 770.937 290.945 761.68" stroke="black" stroke-opacity="0.5" stroke-width="3" stroke-linecap="round"/>
<path d="M438.519 787.269C441.886 781.844 447.943 779.941 445.11 771.949C441.946 763.026 432.84 763.627 426.633 769.002C415.683 778.484 394.522 811.814 419.663 813.43" stroke="black" stroke-opacity="0.5" stroke-width="3" stroke-linecap="round"/>
<path d="M387.211 666.965C368.016 674.929 351.651 710.656 353.587 730.821" stroke="black" stroke-opacity="0.5" stroke-width="3" stroke-linecap="round"/>
<path d="M562.436 654.608C547.728 685.473 532.046 712.487 522.087 745.614C519.15 755.384 507.059 768.088 499.998 775.205C483.687 791.649 457.329 808.761 435.158 814.423" stroke="black" stroke-opacity="0.5" stroke-width="3" stroke-linecap="round"/>
<path d="M343.394 805.844C338.008 815.539 319.848 819.023 310.224 821.811C280.865 830.316 247.648 818.974 218.692 814.229C165.485 805.51 93.7945 799.084 43.4093 819.99C-13.611 843.648 -52.8815 905.119 -63.8981 963.227" stroke="black" stroke-opacity="0.5" stroke-width="3" stroke-linecap="round"/>
<path d="M353.929 817.254C341.367 822.558 330.148 831.674 316.569 835.309C298.829 840.057 283.173 842.45 264.545 843.534C240.334 844.944 215.271 834.965 191.872 828.785C178.098 825.147 163.998 824.094 149.772 823.634C109.637 822.338 70.8922 830.234 36.9214 852.223C26.902 858.708 11.2953 870.824 4.27831 880.867C-4.63384 893.623 -22.5255 902.731 -22.8493 920.66C-22.9972 928.851 -29.4996 935.716 -31.8806 943.338C-34.5894 952.009 -33.9696 960.76 -37.9847 969.186C-43.2934 980.326 -61.4818 976.154 -65.1421 965.83" stroke="black" stroke-opacity="0.5" stroke-width="3" stroke-linecap="round"/>
<path d="M297.523 768.009C301.703 777.912 328.325 771.296 337.577 771.12" stroke="black" stroke-opacity="0.5" stroke-width="3" stroke-linecap="round"/>
<path d="M351.594 761.822C354.465 771.51 357.189 783.791 358.654 793.943" stroke="black" stroke-opacity="0.5" stroke-width="3" stroke-linecap="round"/>
<path d="M401.183 791.844C393.205 788.042 382.645 793.711 374.148 794.937" stroke="black" stroke-opacity="0.5" stroke-width="3" stroke-linecap="round"/>
<path d="M656.504 653.796C653.263 652.818 648.156 651.204 644.762 649.474C634.865 644.428 646.547 648 649.433 649.838C655.06 653.423 656.521 647.538 660.542 643.726C664.604 639.876 661.094 654.131 660.764 656.07" stroke="black" stroke-opacity="0.5" stroke-width="3" stroke-linecap="round"/>
<path d="M737.119 644.284C740.332 639.671 741.391 630.851 747.464 629.006" stroke="black" stroke-opacity="0.5" stroke-width="3" stroke-linecap="round"/>
<path d="M557.338 799.561C558.874 794.205 566.985 789.896 571.688 788.063" stroke="black" stroke-opacity="0.5" stroke-width="3" stroke-linecap="round"/>
<path d="M562.848 803.596C570.117 804.018 577.986 787.465 575.404 802.635" stroke="black" stroke-opacity="0.5" stroke-width="3" stroke-linecap="round"/>
<path d="M516.692 792.642C516.541 789.643 511.808 785.441 509.677 788.351" stroke="black" stroke-opacity="0.5" stroke-width="3" stroke-linecap="round"/>
<path d="M508.657 794.373C506.871 793.834 504.987 791.319 503.148 790.337" stroke="black" stroke-opacity="0.5" stroke-width="3" stroke-linecap="round"/>
<path d="M366.441 829.027C368.91 827.277 373.709 824.885 375.25 822.782" stroke="black" stroke-opacity="0.5" stroke-width="3" stroke-linecap="round"/>
<path d="M296.999 814.065C301.085 810.79 298.141 807.357 298.793 803.527" stroke="black" stroke-opacity="0.5" stroke-width="3" stroke-linecap="round"/>
<path d="M303.054 805.801C303.605 802.566 303.335 799.762 303.086 796.513" stroke="black" stroke-opacity="0.5" stroke-width="3" stroke-linecap="round"/>
<path d="M800.829 734.126C802.246 732.864 808.31 722.486 811.264 725.403C814.004 728.11 813.327 733.499 816.274 736.411C818.184 738.297 826.356 727.244 829.029 734.279C830.937 739.299 840.599 736.461 842.756 733.517" stroke="black" stroke-opacity="0.5" stroke-width="3" stroke-linecap="round"/>
<path d="M667.648 770.318C675.681 767.443 672.603 765.911 677.794 772.39C678.739 773.569 681.822 771.182 683.711 771.504C685.969 771.888 688.227 772.272 690.485 772.657" stroke="black" stroke-opacity="0.5" stroke-width="3" stroke-linecap="round"/>
<path d="M225.453 583.523C226.573 580.601 239.029 572.185 239.567 575.426C240.736 582.462 239.592 586.5 247.945 580.811C252.066 578.004 257.922 571.852 256.842 581.12C256.208 586.556 263.545 580.086 266.387 579.647" stroke="black" stroke-opacity="0.5" stroke-width="3" stroke-linecap="round"/>
<path d="M265.326 667.76C270.138 663.904 273.172 656.463 277.429 664.398C278.343 666.101 276.487 671.837 279.897 668.605C282.15 666.47 285.159 663.159 287.939 662.315" stroke="black" stroke-opacity="0.5" stroke-width="3" stroke-linecap="round"/>
<path d="M102.651 740.754C106.567 737.978 112.482 736.352 108.751 743.341C104.867 750.617 117.144 745.885 118.954 745.078" stroke="black" stroke-opacity="0.5" stroke-width="3" stroke-linecap="round"/>
<path d="M854.923 916.822C861.449 912.692 864.141 910.24 865.183 918.224C865.886 923.6 871.197 918.092 873.757 915.38" stroke="black" stroke-opacity="0.5" stroke-width="3" stroke-linecap="round"/>
<path d="M452.936 131.701C437.195 131.701 418.895 127.762 426.976 108.457C431.511 97.6238 438.945 93.1368 450.221 93.5256C476.228 94.4224 478.352 118.59 459.044 130.174" stroke="black" stroke-opacity="0.5" stroke-width="3" stroke-linecap="round"/>
<path d="M452.195 109.174C456.246 109.174 461.669 110.27 465.485 109.044C467.738 108.32 466.864 104.347 468.856 103.08C471.618 101.322 473.331 106.778 474.366 108.461C475.355 110.068 477.183 111.542 475.759 112.966C474.211 114.515 472.685 116.105 471.124 117.666C469.946 118.844 467.459 120.192 466.781 121.717C465.848 123.816 465.436 116.761 465.744 115.721C467.592 109.484 451.669 114.836 453.946 108.007" stroke="black" stroke-opacity="0.5" stroke-width="3" stroke-linecap="round"/>
<path d="M452.195 110.34C450.843 108.409 453.692 101.18 453.946 98.7691C454.218 96.1775 454.583 93.3247 455.145 90.7955C455.436 89.484 457.853 84.086 455.955 84.086C454.22 84.086 451.48 83.5341 449.862 84.2157C448.945 84.6018 446.507 85.5675 448.565 84.086C450.708 82.5432 452.789 80.9069 454.983 79.4186C455.934 78.7728 456.783 78.1726 457.446 77.2145C457.589 77.008 458.1 75.7409 458.483 76.0476C460.949 78.0204 462.262 81.6648 463.831 84.3129C464.186 84.9119 466.593 87.8364 465.322 87.5542C464.235 87.3125 463.297 86.0814 462.34 85.8687C461.634 85.7118 460.795 85.8363 460.072 85.8363C459.794 85.8363 458.959 85.3282 458.905 85.3501C457.865 85.766 457.502 90.0837 457.316 90.9576C456.536 94.6278 455.688 98.4399 454.659 102.043C453.991 104.381 454.141 106.836 453.362 109.174" stroke="black" stroke-opacity="0.5" stroke-width="3" stroke-linecap="round"/>
<path d="M695 581.272C695 570.962 700.931 565 711.272 565C717.772 565 724.996 571.303 726.963 577.204" stroke="black" stroke-opacity="0.5" stroke-width="3" stroke-linecap="round"/>
<path d="M728.126 578.947C725.767 579.183 723.365 580.113 721.023 580.562C717.74 581.19 714.413 581.271 711.144 581.982C708.632 582.528 706.203 583.409 703.718 584.049C701.512 584.616 700.901 585.99 699.068 586.954C690.017 591.718 701.699 604.244 707.786 605.809C716.121 607.953 727.203 608.125 732.904 600.45C737.923 593.694 734.66 584.466 728.126 580.11" stroke="black" stroke-opacity="0.5" stroke-width="3" stroke-linecap="round"/>
<path d="M699.066 602.194C702.795 605.922 704.482 611.119 710.108 612.525C714.923 613.729 719.877 616.142 724.895 616.142C728.346 616.142 730.883 612.589 731.579 609.458C732.277 606.316 733.936 602.514 733.936 599.288" stroke="black" stroke-opacity="0.5" stroke-width="3" stroke-linecap="round"/>
<path d="M719.136 592.177C714.134 592.177 716.561 589.589 719.414 588.003C720.621 587.333 722.138 589.305 722.908 590.075C724.304 591.471 723.504 592.43 723.031 593.846" stroke="black" stroke-opacity="0.5" stroke-width="3" stroke-linecap="round"/>
</g>
<defs>
<clipPath id="clip0_31_757">
<rect width="1024" height="1024" fill="white"/>
</clipPath>
</defs>
</svg>
