<svg width="1024" height="1024" viewBox="0 0 1024 1024" fill="none" xmlns="http://www.w3.org/2000/svg">
<path d="M191.937 308L187.775 293.455H191.134L193.542 303.561H193.663L196.319 293.455H199.195L201.844 303.582H201.972L204.38 293.455H207.739L203.577 308H200.58L197.81 298.49H197.697L194.934 308H191.937ZM209.385 308V293.455H212.461V299.456H218.703V293.455H221.772V308H218.703V301.991H212.461V308H209.385ZM226.814 308H223.519L228.54 293.455H232.503L237.517 308H234.222L230.578 296.778H230.465L226.814 308ZM226.608 302.283H234.392V304.683H226.608V302.283ZM236.937 295.99V293.455H248.883V295.99H244.43V308H241.39V295.99H236.937ZM255.479 308V293.455H258.554V299.456H264.797V293.455H267.865V308H264.797V301.991H258.554V308H255.479ZM272.908 308H269.613L274.634 293.455H278.597L283.611 308H280.316L276.672 296.778H276.559L272.908 308ZM272.702 302.283H280.486V304.683H272.702V302.283ZM286.173 293.455L289.689 304.506H289.824L293.347 293.455H296.756L291.741 308H287.778L282.757 293.455H286.173ZM298.506 308V293.455H308.308V295.99H301.582V299.456H307.803V301.991H301.582V305.464H308.336V308H298.506ZM314.529 293.455H317.974L321.29 299.719H321.433L324.749 293.455H328.194L322.888 302.858V308H319.835V302.858L314.529 293.455ZM342.361 300.727C342.361 302.313 342.06 303.663 341.459 304.776C340.863 305.888 340.048 306.738 339.016 307.325C337.989 307.908 336.833 308.199 335.55 308.199C334.257 308.199 333.097 307.905 332.07 307.318C331.042 306.731 330.23 305.881 329.634 304.768C329.037 303.656 328.739 302.309 328.739 300.727C328.739 299.141 329.037 297.792 329.634 296.679C330.23 295.566 331.042 294.719 332.07 294.136C333.097 293.549 334.257 293.256 335.55 293.256C336.833 293.256 337.989 293.549 339.016 294.136C340.048 294.719 340.863 295.566 341.459 296.679C342.06 297.792 342.361 299.141 342.361 300.727ZM339.243 300.727C339.243 299.7 339.089 298.833 338.782 298.128C338.479 297.422 338.05 296.887 337.496 296.523C336.942 296.158 336.293 295.976 335.55 295.976C334.807 295.976 334.158 296.158 333.604 296.523C333.05 296.887 332.619 297.422 332.311 298.128C332.008 298.833 331.857 299.7 331.857 300.727C331.857 301.755 332.008 302.621 332.311 303.327C332.619 304.032 333.05 304.567 333.604 304.932C334.158 305.296 334.807 305.479 335.55 305.479C336.293 305.479 336.942 305.296 337.496 304.932C338.05 304.567 338.479 304.032 338.782 303.327C339.089 302.621 339.243 301.755 339.243 300.727ZM353.624 293.455H356.699V302.901C356.699 303.961 356.446 304.889 355.939 305.685C355.437 306.48 354.734 307.1 353.83 307.545C352.925 307.986 351.872 308.206 350.669 308.206C349.462 308.206 348.406 307.986 347.501 307.545C346.597 307.1 345.894 306.48 345.392 305.685C344.89 304.889 344.639 303.961 344.639 302.901V293.455H347.714V302.638C347.714 303.192 347.835 303.684 348.077 304.115C348.323 304.546 348.669 304.884 349.114 305.131C349.559 305.377 350.077 305.5 350.669 305.5C351.266 305.5 351.784 305.377 352.224 305.131C352.67 304.884 353.013 304.546 353.254 304.115C353.5 303.684 353.624 303.192 353.624 302.638V293.455ZM373.503 298.156C373.403 297.811 373.264 297.505 373.084 297.24C372.904 296.97 372.684 296.743 372.423 296.558C372.168 296.369 371.874 296.224 371.543 296.125C371.216 296.026 370.854 295.976 370.456 295.976C369.713 295.976 369.059 296.161 368.496 296.53C367.937 296.899 367.501 297.437 367.189 298.142C366.876 298.843 366.72 299.7 366.72 300.713C366.72 301.726 366.874 302.588 367.182 303.298C367.49 304.009 367.925 304.551 368.489 304.925C369.052 305.294 369.717 305.479 370.484 305.479C371.18 305.479 371.775 305.356 372.267 305.109C372.764 304.858 373.143 304.506 373.403 304.051C373.669 303.597 373.801 303.059 373.801 302.439L374.426 302.531H370.676V300.216H376.763V302.048C376.763 303.327 376.493 304.425 375.953 305.344C375.413 306.258 374.67 306.963 373.723 307.46C372.776 307.953 371.692 308.199 370.47 308.199C369.107 308.199 367.909 307.898 366.876 307.297C365.844 306.691 365.039 305.831 364.462 304.719C363.889 303.601 363.602 302.276 363.602 300.741C363.602 299.562 363.773 298.511 364.114 297.588C364.459 296.66 364.942 295.874 365.562 295.23C366.183 294.586 366.905 294.096 367.729 293.76C368.553 293.424 369.445 293.256 370.406 293.256C371.23 293.256 371.997 293.376 372.707 293.618C373.418 293.855 374.047 294.191 374.597 294.626C375.151 295.062 375.603 295.58 375.953 296.182C376.304 296.778 376.528 297.437 376.628 298.156H373.503ZM392.439 300.727C392.439 302.313 392.139 303.663 391.537 304.776C390.941 305.888 390.126 306.738 389.094 307.325C388.067 307.908 386.911 308.199 385.628 308.199C384.336 308.199 383.176 307.905 382.148 307.318C381.121 306.731 380.309 305.881 379.712 304.768C379.115 303.656 378.817 302.309 378.817 300.727C378.817 299.141 379.115 297.792 379.712 296.679C380.309 295.566 381.121 294.719 382.148 294.136C383.176 293.549 384.336 293.256 385.628 293.256C386.911 293.256 388.067 293.549 389.094 294.136C390.126 294.719 390.941 295.566 391.537 296.679C392.139 297.792 392.439 299.141 392.439 300.727ZM389.321 300.727C389.321 299.7 389.167 298.833 388.86 298.128C388.557 297.422 388.128 296.887 387.574 296.523C387.02 296.158 386.372 295.976 385.628 295.976C384.885 295.976 384.236 296.158 383.682 296.523C383.128 296.887 382.697 297.422 382.39 298.128C382.087 298.833 381.935 299.7 381.935 300.727C381.935 301.755 382.087 302.621 382.39 303.327C382.697 304.032 383.128 304.567 383.682 304.932C384.236 305.296 384.885 305.479 385.628 305.479C386.372 305.479 387.02 305.296 387.574 304.932C388.128 304.567 388.557 304.032 388.86 303.327C389.167 302.621 389.321 301.755 389.321 300.727ZM393.499 295.99V293.455H405.445V295.99H400.992V308H397.952V295.99H393.499ZM411.488 295.99V293.455H423.434V295.99H418.98V308H415.941V295.99H411.488ZM438.103 300.727C438.103 302.313 437.803 303.663 437.201 304.776C436.605 305.888 435.79 306.738 434.758 307.325C433.731 307.908 432.575 308.199 431.292 308.199C430 308.199 428.84 307.905 427.812 307.318C426.785 306.731 425.973 305.881 425.376 304.768C424.779 303.656 424.481 302.309 424.481 300.727C424.481 299.141 424.779 297.792 425.376 296.679C425.973 295.566 426.785 294.719 427.812 294.136C428.84 293.549 430 293.256 431.292 293.256C432.575 293.256 433.731 293.549 434.758 294.136C435.79 294.719 436.605 295.566 437.201 296.679C437.803 297.792 438.103 299.141 438.103 300.727ZM434.985 300.727C434.985 299.7 434.832 298.833 434.524 298.128C434.221 297.422 433.792 296.887 433.238 296.523C432.684 296.158 432.036 295.976 431.292 295.976C430.549 295.976 429.9 296.158 429.346 296.523C428.792 296.887 428.361 297.422 428.054 298.128C427.751 298.833 427.599 299.7 427.599 300.727C427.599 301.755 427.751 302.621 428.054 303.327C428.361 304.032 428.792 304.567 429.346 304.932C429.9 305.296 430.549 305.479 431.292 305.479C432.036 305.479 432.684 305.296 433.238 304.932C433.792 304.567 434.221 304.032 434.524 303.327C434.832 302.621 434.985 301.755 434.985 300.727ZM452.901 297.638C452.844 297.065 452.6 296.62 452.169 296.303C451.739 295.985 451.154 295.827 450.415 295.827C449.913 295.827 449.489 295.898 449.144 296.04C448.798 296.177 448.533 296.369 448.348 296.615C448.168 296.861 448.078 297.141 448.078 297.453C448.069 297.714 448.123 297.941 448.242 298.135C448.365 298.329 448.533 298.497 448.746 298.639C448.959 298.777 449.205 298.897 449.485 299.001C449.764 299.101 450.062 299.186 450.38 299.257L451.686 299.57C452.321 299.712 452.903 299.901 453.434 300.138C453.964 300.375 454.423 300.666 454.811 301.011C455.2 301.357 455.5 301.764 455.713 302.233C455.931 302.702 456.042 303.239 456.047 303.845C456.042 304.735 455.815 305.507 455.365 306.161C454.92 306.809 454.276 307.313 453.434 307.673C452.596 308.028 451.585 308.206 450.401 308.206C449.227 308.206 448.204 308.026 447.333 307.666C446.466 307.306 445.789 306.774 445.301 306.068C444.819 305.358 444.565 304.48 444.542 303.433H447.517C447.551 303.921 447.69 304.328 447.936 304.655C448.187 304.977 448.521 305.221 448.938 305.386C449.359 305.547 449.835 305.628 450.365 305.628C450.886 305.628 451.338 305.552 451.722 305.401C452.11 305.249 452.411 305.038 452.624 304.768C452.837 304.499 452.944 304.188 452.944 303.838C452.944 303.511 452.846 303.237 452.652 303.014C452.463 302.792 452.184 302.602 451.814 302.446C451.45 302.29 451.002 302.148 450.472 302.02L448.888 301.622C447.662 301.324 446.694 300.857 445.983 300.223C445.273 299.589 444.92 298.734 444.925 297.659C444.92 296.778 445.155 296.009 445.628 295.351C446.106 294.693 446.762 294.179 447.596 293.81C448.429 293.44 449.376 293.256 450.436 293.256C451.516 293.256 452.458 293.44 453.263 293.81C454.073 294.179 454.703 294.693 455.152 295.351C455.602 296.009 455.834 296.771 455.848 297.638H452.901ZM460.291 308H456.995L462.017 293.455H465.98L470.994 308H467.699L464.055 296.778H463.941L460.291 308ZM460.085 302.283H467.869V304.683H460.085V302.283ZM470.408 293.455H473.853L477.169 299.719H477.311L480.628 293.455H484.073L478.767 302.858V308H475.713V302.858L470.408 293.455ZM490.381 308V293.455H496.205C497.275 293.455 498.168 293.613 498.883 293.93C499.598 294.248 500.135 294.688 500.495 295.251C500.855 295.81 501.035 296.454 501.035 297.183C501.035 297.751 500.921 298.251 500.694 298.682C500.467 299.108 500.154 299.458 499.756 299.733C499.363 300.003 498.914 300.195 498.407 300.308V300.45C498.961 300.474 499.479 300.63 499.962 300.919C500.45 301.208 500.845 301.613 501.148 302.134C501.451 302.65 501.603 303.265 501.603 303.98C501.603 304.752 501.411 305.441 501.028 306.047C500.649 306.648 500.088 307.124 499.344 307.474C498.601 307.825 497.685 308 496.596 308H490.381ZM493.457 305.486H495.964C496.821 305.486 497.446 305.322 497.839 304.996C498.232 304.664 498.428 304.224 498.428 303.675C498.428 303.272 498.331 302.917 498.137 302.609C497.943 302.302 497.666 302.06 497.306 301.885C496.951 301.71 496.527 301.622 496.035 301.622H493.457V305.486ZM493.457 299.541H495.737C496.158 299.541 496.532 299.468 496.859 299.321C497.19 299.17 497.451 298.956 497.64 298.682C497.834 298.407 497.931 298.078 497.931 297.695C497.931 297.169 497.744 296.745 497.37 296.423C497.001 296.101 496.475 295.94 495.793 295.94H493.457V299.541ZM503.604 308V293.455H513.405V295.99H506.679V299.456H512.901V301.991H506.679V305.464H513.434V308H503.604ZM515.85 308V293.455H525.481V295.99H518.925V299.456H524.842V301.991H518.925V308H515.85ZM540.916 300.727C540.916 302.313 540.615 303.663 540.014 304.776C539.417 305.888 538.603 306.738 537.571 307.325C536.543 307.908 535.388 308.199 534.105 308.199C532.812 308.199 531.652 307.905 530.625 307.318C529.597 306.731 528.785 305.881 528.189 304.768C527.592 303.656 527.294 302.309 527.294 300.727C527.294 299.141 527.592 297.792 528.189 296.679C528.785 295.566 529.597 294.719 530.625 294.136C531.652 293.549 532.812 293.256 534.105 293.256C535.388 293.256 536.543 293.549 537.571 294.136C538.603 294.719 539.417 295.566 540.014 296.679C540.615 297.792 540.916 299.141 540.916 300.727ZM537.798 300.727C537.798 299.7 537.644 298.833 537.336 298.128C537.033 297.422 536.605 296.887 536.051 296.523C535.497 296.158 534.848 295.976 534.105 295.976C533.361 295.976 532.713 296.158 532.159 296.523C531.605 296.887 531.174 297.422 530.866 298.128C530.563 298.833 530.412 299.7 530.412 300.727C530.412 301.755 530.563 302.621 530.866 303.327C531.174 304.032 531.605 304.567 532.159 304.932C532.713 305.296 533.361 305.479 534.105 305.479C534.848 305.479 535.497 305.296 536.051 304.932C536.605 304.567 537.033 304.032 537.336 303.327C537.644 302.621 537.798 301.755 537.798 300.727ZM543.194 308V293.455H548.933C550.031 293.455 550.969 293.651 551.745 294.044C552.526 294.432 553.121 294.984 553.528 295.699C553.94 296.409 554.146 297.245 554.146 298.206C554.146 299.172 553.937 300.003 553.521 300.699C553.104 301.39 552.5 301.92 551.71 302.29C550.924 302.659 549.972 302.844 548.854 302.844H545.012V300.372H548.357C548.944 300.372 549.432 300.292 549.82 300.131C550.209 299.97 550.497 299.728 550.687 299.406C550.881 299.084 550.978 298.684 550.978 298.206C550.978 297.723 550.881 297.316 550.687 296.984C550.497 296.653 550.206 296.402 549.813 296.232C549.425 296.056 548.935 295.969 548.343 295.969H546.269V308H543.194ZM551.049 301.381L554.664 308H551.269L547.732 301.381H551.049ZM556.319 308V293.455H566.12V295.99H559.394V299.456H565.616V301.991H559.394V305.464H566.148V308H556.319ZM576.468 308L572.306 293.455H575.665L578.073 303.561H578.194L580.85 293.455H583.727L586.376 303.582H586.504L588.911 293.455H592.271L588.109 308H585.112L582.342 298.49H582.228L579.465 308H576.468ZM593.917 308V293.455H603.718V295.99H596.992V299.456H603.213V301.991H596.992V305.464H603.746V308H593.917ZM610.238 295.99V293.455H622.184V295.99H617.73V308H614.691V295.99H610.238ZM624.881 308H621.585L626.607 293.455H630.57L635.584 308H632.288L628.645 296.778H628.531L624.881 308ZM624.675 302.283H632.459V304.683H624.675V302.283ZM637.335 308V293.455H640.41V299.868H640.602L645.836 293.455H649.522L644.124 299.967L649.586 308H645.907L641.923 302.02L640.41 303.866V308H637.335ZM651.124 308V293.455H660.925V295.99H654.199V299.456H660.42V301.991H654.199V305.464H660.953V308H651.124ZM667.999 308V293.455H673.822C674.893 293.455 675.785 293.613 676.5 293.93C677.215 294.248 677.752 294.688 678.112 295.251C678.472 295.81 678.652 296.454 678.652 297.183C678.652 297.751 678.538 298.251 678.311 298.682C678.084 299.108 677.771 299.458 677.374 299.733C676.981 300.003 676.531 300.195 676.024 300.308V300.45C676.578 300.474 677.097 300.63 677.58 300.919C678.067 301.208 678.463 301.613 678.766 302.134C679.069 302.65 679.22 303.265 679.22 303.98C679.22 304.752 679.028 305.441 678.645 306.047C678.266 306.648 677.705 307.124 676.962 307.474C676.218 307.825 675.302 308 674.213 308H667.999ZM671.074 305.486H673.581C674.438 305.486 675.063 305.322 675.456 304.996C675.849 304.664 676.045 304.224 676.045 303.675C676.045 303.272 675.948 302.917 675.754 302.609C675.56 302.302 675.283 302.06 674.923 301.885C674.568 301.71 674.144 301.622 673.652 301.622H671.074V305.486ZM671.074 299.541H673.354C673.775 299.541 674.149 299.468 674.476 299.321C674.807 299.17 675.068 298.956 675.257 298.682C675.451 298.407 675.548 298.078 675.548 297.695C675.548 297.169 675.361 296.745 674.987 296.423C674.618 296.101 674.092 295.94 673.411 295.94H671.074V299.541ZM683.728 308H680.433L685.454 293.455H689.417L694.431 308H691.136L687.493 296.778H687.379L683.728 308ZM683.522 302.283H691.306V304.683H683.522V302.283ZM708.332 298.547H705.222C705.165 298.144 705.049 297.787 704.874 297.474C704.698 297.157 704.473 296.887 704.199 296.665C703.924 296.442 703.607 296.272 703.247 296.153C702.892 296.035 702.506 295.976 702.089 295.976C701.337 295.976 700.681 296.163 700.122 296.537C699.563 296.906 699.13 297.446 698.822 298.156C698.515 298.862 698.361 299.719 698.361 300.727C698.361 301.764 698.515 302.635 698.822 303.341C699.135 304.046 699.571 304.579 700.129 304.939C700.688 305.299 701.334 305.479 702.068 305.479C702.48 305.479 702.861 305.424 703.212 305.315C703.567 305.206 703.882 305.048 704.156 304.839C704.431 304.626 704.658 304.368 704.838 304.065C705.023 303.762 705.151 303.417 705.222 303.028L708.332 303.043C708.252 303.71 708.051 304.354 707.729 304.974C707.411 305.59 706.983 306.142 706.443 306.629C705.908 307.112 705.269 307.496 704.526 307.78C703.787 308.059 702.951 308.199 702.018 308.199C700.721 308.199 699.561 307.905 698.538 307.318C697.52 306.731 696.715 305.881 696.124 304.768C695.536 303.656 695.243 302.309 695.243 300.727C695.243 299.141 695.541 297.792 696.138 296.679C696.734 295.566 697.544 294.719 698.567 294.136C699.589 293.549 700.74 293.256 702.018 293.256C702.861 293.256 703.643 293.374 704.362 293.611C705.087 293.848 705.728 294.193 706.287 294.648C706.846 295.098 707.3 295.649 707.651 296.303C708.006 296.956 708.233 297.704 708.332 298.547ZM710.538 308V293.455H713.613V299.868H713.805L719.039 293.455H722.725L717.327 299.967L722.789 308H719.11L715.126 302.02L713.613 303.866V308H710.538ZM742.322 300.727C742.322 302.313 742.021 303.663 741.42 304.776C740.824 305.888 740.009 306.738 738.977 307.325C737.949 307.908 736.794 308.199 735.511 308.199C734.218 308.199 733.058 307.905 732.031 307.318C731.003 306.731 730.191 305.881 729.595 304.768C728.998 303.656 728.7 302.309 728.7 300.727C728.7 299.141 728.998 297.792 729.595 296.679C730.191 295.566 731.003 294.719 732.031 294.136C733.058 293.549 734.218 293.256 735.511 293.256C736.794 293.256 737.949 293.549 738.977 294.136C740.009 294.719 740.824 295.566 741.42 296.679C742.021 297.792 742.322 299.141 742.322 300.727ZM739.204 300.727C739.204 299.7 739.05 298.833 738.743 298.128C738.44 297.422 738.011 296.887 737.457 296.523C736.903 296.158 736.254 295.976 735.511 295.976C734.768 295.976 734.119 296.158 733.565 296.523C733.011 296.887 732.58 297.422 732.272 298.128C731.969 298.833 731.818 299.7 731.818 300.727C731.818 301.755 731.969 302.621 732.272 303.327C732.58 304.032 733.011 304.567 733.565 304.932C734.119 305.296 734.768 305.479 735.511 305.479C736.254 305.479 736.903 305.296 737.457 304.932C738.011 304.567 738.44 304.032 738.743 303.327C739.05 302.621 739.204 301.755 739.204 300.727ZM753.585 293.455H756.66V302.901C756.66 303.961 756.406 304.889 755.9 305.685C755.398 306.48 754.695 307.1 753.79 307.545C752.886 307.986 751.833 308.206 750.63 308.206C749.423 308.206 748.367 307.986 747.462 307.545C746.558 307.1 745.855 306.48 745.353 305.685C744.851 304.889 744.6 303.961 744.6 302.901V293.455H747.675V302.638C747.675 303.192 747.796 303.684 748.038 304.115C748.284 304.546 748.629 304.884 749.075 305.131C749.52 305.377 750.038 305.5 750.63 305.5C751.227 305.5 751.745 305.377 752.185 305.131C752.63 304.884 752.974 304.546 753.215 304.115C753.461 303.684 753.585 303.192 753.585 302.638V293.455ZM759.19 308V293.455H764.929C766.027 293.455 766.965 293.651 767.741 294.044C768.522 294.432 769.117 294.984 769.524 295.699C769.936 296.409 770.142 297.245 770.142 298.206C770.142 299.172 769.933 300.003 769.517 300.699C769.1 301.39 768.496 301.92 767.706 302.29C766.92 302.659 765.968 302.844 764.85 302.844H761.008V300.372H764.353C764.94 300.372 765.428 300.292 765.816 300.131C766.205 299.97 766.493 299.728 766.683 299.406C766.877 299.084 766.974 298.684 766.974 298.206C766.974 297.723 766.877 297.316 766.683 296.984C766.493 296.653 766.202 296.402 765.809 296.232C765.421 296.056 764.931 295.969 764.339 295.969H762.265V308H759.19ZM767.045 301.381L770.66 308H767.265L763.728 301.381H767.045ZM776.944 308V293.455H786.575V295.99H780.019V299.456H785.935V301.991H780.019V308H776.944ZM789.334 308H786.038L791.06 293.455H795.023L800.037 308H796.741L793.098 296.778H792.984L789.334 308ZM789.128 302.283H796.912V304.683H789.128V302.283ZM799.456 295.99V293.455H811.402V295.99H806.949V308H803.909V295.99H799.456ZM813.37 308V293.455H823.171V295.99H816.445V299.456H822.667V301.991H816.445V305.464H823.199V308H813.37ZM828.158 303.639V303.398C828.163 302.569 828.237 301.909 828.379 301.416C828.525 300.924 828.738 300.526 829.018 300.223C829.297 299.92 829.633 299.645 830.026 299.399C830.32 299.21 830.583 299.013 830.815 298.81C831.047 298.606 831.231 298.381 831.369 298.135C831.506 297.884 831.575 297.605 831.575 297.297C831.575 296.97 831.496 296.684 831.34 296.438C831.184 296.191 830.973 296.002 830.708 295.869C830.448 295.737 830.159 295.67 829.842 295.67C829.534 295.67 829.243 295.739 828.968 295.876C828.693 296.009 828.469 296.208 828.293 296.473C828.118 296.733 828.023 297.058 828.009 297.446H825.112C825.135 296.499 825.362 295.718 825.793 295.102C826.224 294.482 826.795 294.02 827.505 293.717C828.215 293.41 828.999 293.256 829.856 293.256C830.798 293.256 831.631 293.412 832.356 293.724C833.08 294.032 833.648 294.48 834.06 295.067C834.472 295.654 834.678 296.362 834.678 297.19C834.678 297.744 834.586 298.237 834.401 298.668C834.221 299.094 833.968 299.473 833.641 299.804C833.315 300.131 832.929 300.427 832.484 300.692C832.11 300.914 831.802 301.146 831.56 301.388C831.324 301.629 831.146 301.909 831.028 302.226C830.914 302.543 830.855 302.934 830.85 303.398V303.639H828.158ZM829.565 308.185C829.091 308.185 828.686 308.019 828.35 307.688C828.019 307.351 827.855 306.949 827.86 306.48C827.855 306.016 828.019 305.618 828.35 305.287C828.686 304.955 829.091 304.79 829.565 304.79C830.014 304.79 830.41 304.955 830.751 305.287C831.092 305.618 831.264 306.016 831.269 306.48C831.264 306.793 831.182 307.079 831.021 307.339C830.864 307.595 830.658 307.801 830.403 307.957C830.147 308.109 829.868 308.185 829.565 308.185Z" fill="black"/>
<path d="M353.903 418.091V403.091H355.523V404.824H355.721C355.845 404.634 356.015 404.393 356.233 404.099C356.455 403.801 356.773 403.536 357.184 403.304C357.601 403.067 358.165 402.949 358.875 402.949C359.793 402.949 360.603 403.179 361.304 403.638C362.005 404.097 362.551 404.748 362.944 405.591C363.337 406.434 363.534 407.428 363.534 408.574C363.534 409.729 363.337 410.731 362.944 411.578C362.551 412.421 362.007 413.074 361.311 413.538C360.615 413.998 359.812 414.227 358.903 414.227C358.202 414.227 357.641 414.111 357.22 413.879C356.799 413.643 356.474 413.375 356.247 413.077C356.02 412.774 355.845 412.523 355.721 412.324H355.579V418.091H353.903ZM355.551 408.545C355.551 409.369 355.672 410.096 355.913 410.726C356.155 411.351 356.507 411.841 356.971 412.196C357.435 412.546 358.004 412.722 358.676 412.722C359.377 412.722 359.961 412.537 360.43 412.168C360.904 411.794 361.259 411.292 361.496 410.662C361.737 410.027 361.858 409.322 361.858 408.545C361.858 407.778 361.739 407.087 361.503 406.472C361.271 405.851 360.918 405.361 360.444 405.001C359.976 404.637 359.386 404.455 358.676 404.455C357.994 404.455 357.421 404.627 356.957 404.973C356.493 405.314 356.143 405.792 355.906 406.408C355.669 407.018 355.551 407.731 355.551 408.545ZM367.767 399.455V414H366.091V399.455H367.767ZM375.411 414.227C374.36 414.227 373.453 413.995 372.691 413.531C371.933 413.062 371.348 412.409 370.936 411.571C370.529 410.728 370.325 409.748 370.325 408.631C370.325 407.513 370.529 406.528 370.936 405.676C371.348 404.819 371.921 404.152 372.655 403.673C373.394 403.19 374.255 402.949 375.24 402.949C375.808 402.949 376.369 403.044 376.923 403.233C377.477 403.422 377.982 403.73 378.436 404.156C378.891 404.578 379.253 405.136 379.523 405.832C379.793 406.528 379.928 407.385 379.928 408.403V409.114H371.519V407.665H378.223C378.223 407.049 378.1 406.5 377.854 406.017C377.612 405.534 377.267 405.153 376.817 404.874C376.372 404.594 375.846 404.455 375.24 404.455C374.573 404.455 373.995 404.62 373.507 404.952C373.024 405.278 372.653 405.705 372.392 406.23C372.132 406.756 372.002 407.319 372.002 407.92V408.886C372.002 409.71 372.144 410.409 372.428 410.982C372.717 411.55 373.117 411.983 373.628 412.281C374.139 412.575 374.734 412.722 375.411 412.722C375.851 412.722 376.249 412.66 376.604 412.537C376.964 412.409 377.274 412.22 377.534 411.969C377.795 411.713 377.996 411.396 378.138 411.017L379.757 411.472C379.587 412.021 379.3 412.504 378.898 412.92C378.495 413.332 377.998 413.654 377.406 413.886C376.815 414.114 376.149 414.227 375.411 414.227ZM385.688 414.256C384.996 414.256 384.369 414.125 383.806 413.865C383.242 413.6 382.795 413.219 382.463 412.722C382.132 412.22 381.966 411.614 381.966 410.903C381.966 410.278 382.089 409.772 382.335 409.384C382.582 408.991 382.911 408.683 383.323 408.46C383.735 408.238 384.189 408.072 384.686 407.963C385.188 407.849 385.692 407.759 386.199 407.693C386.862 407.608 387.399 407.544 387.811 407.501C388.228 407.454 388.531 407.376 388.72 407.267C388.914 407.158 389.012 406.969 389.012 406.699V406.642C389.012 405.941 388.82 405.397 388.436 405.009C388.057 404.62 387.482 404.426 386.71 404.426C385.91 404.426 385.283 404.601 384.828 404.952C384.374 405.302 384.054 405.676 383.869 406.074L382.279 405.506C382.563 404.843 382.941 404.327 383.415 403.957C383.893 403.583 384.414 403.323 384.977 403.176C385.546 403.025 386.104 402.949 386.654 402.949C387.004 402.949 387.406 402.991 387.861 403.077C388.32 403.157 388.763 403.325 389.189 403.581C389.62 403.837 389.977 404.223 390.262 404.739C390.546 405.255 390.688 405.946 390.688 406.812V414H389.012V412.523H388.926C388.813 412.759 388.623 413.013 388.358 413.283C388.093 413.553 387.74 413.782 387.3 413.972C386.86 414.161 386.322 414.256 385.688 414.256ZM385.943 412.75C386.606 412.75 387.165 412.62 387.619 412.359C388.079 412.099 388.424 411.763 388.656 411.351C388.893 410.939 389.012 410.506 389.012 410.051V408.517C388.941 408.602 388.784 408.68 388.543 408.751C388.306 408.818 388.031 408.877 387.719 408.929C387.411 408.976 387.11 409.019 386.817 409.057C386.528 409.09 386.294 409.118 386.114 409.142C385.678 409.199 385.271 409.291 384.892 409.419C384.518 409.542 384.215 409.729 383.983 409.98C383.756 410.226 383.642 410.562 383.642 410.989C383.642 411.571 383.858 412.011 384.289 412.31C384.724 412.603 385.276 412.75 385.943 412.75ZM401.474 405.534L399.969 405.96C399.874 405.709 399.734 405.465 399.55 405.229C399.37 404.987 399.123 404.788 398.811 404.632C398.498 404.476 398.098 404.398 397.611 404.398C396.943 404.398 396.387 404.552 395.942 404.859C395.501 405.162 395.281 405.548 395.281 406.017C395.281 406.434 395.433 406.763 395.736 407.004C396.039 407.246 396.512 407.447 397.156 407.608L398.775 408.006C399.751 408.242 400.478 408.605 400.956 409.092C401.434 409.575 401.673 410.198 401.673 410.96C401.673 411.585 401.493 412.144 401.133 412.636C400.778 413.129 400.281 413.517 399.642 413.801C399.003 414.085 398.259 414.227 397.412 414.227C396.299 414.227 395.378 413.986 394.649 413.503C393.92 413.02 393.458 412.314 393.264 411.386L394.855 410.989C395.006 411.576 395.293 412.016 395.714 412.31C396.14 412.603 396.697 412.75 397.383 412.75C398.165 412.75 398.785 412.584 399.244 412.253C399.708 411.917 399.94 411.514 399.94 411.045C399.94 410.667 399.808 410.349 399.542 410.094C399.277 409.833 398.87 409.639 398.321 409.511L396.503 409.085C395.504 408.848 394.77 408.482 394.301 407.984C393.837 407.482 393.605 406.855 393.605 406.102C393.605 405.487 393.778 404.942 394.123 404.469C394.474 403.995 394.95 403.624 395.551 403.354C396.157 403.084 396.844 402.949 397.611 402.949C398.69 402.949 399.538 403.186 400.153 403.659C400.773 404.133 401.214 404.758 401.474 405.534ZM408.77 414.227C407.719 414.227 406.812 413.995 406.05 413.531C405.292 413.062 404.708 412.409 404.296 411.571C403.888 410.728 403.685 409.748 403.685 408.631C403.685 407.513 403.888 406.528 404.296 405.676C404.708 404.819 405.28 404.152 406.014 403.673C406.753 403.19 407.615 402.949 408.6 402.949C409.168 402.949 409.729 403.044 410.283 403.233C410.837 403.422 411.341 403.73 411.796 404.156C412.25 404.578 412.612 405.136 412.882 405.832C413.152 406.528 413.287 407.385 413.287 408.403V409.114H404.878V407.665H411.583C411.583 407.049 411.459 406.5 411.213 406.017C410.972 405.534 410.626 405.153 410.176 404.874C409.731 404.594 409.206 404.455 408.6 404.455C407.932 404.455 407.354 404.62 406.867 404.952C406.384 405.278 406.012 405.705 405.752 406.23C405.491 406.756 405.361 407.319 405.361 407.92V408.886C405.361 409.71 405.503 410.409 405.787 410.982C406.076 411.55 406.476 411.983 406.987 412.281C407.499 412.575 408.093 412.722 408.77 412.722C409.21 412.722 409.608 412.66 409.963 412.537C410.323 412.409 410.633 412.22 410.894 411.969C411.154 411.713 411.355 411.396 411.497 411.017L413.117 411.472C412.946 412.021 412.66 412.504 412.257 412.92C411.855 413.332 411.358 413.654 410.766 413.886C410.174 414.114 409.509 414.227 408.77 414.227ZM423.933 414L420.61 403.091H422.371L424.729 411.443H424.843L427.172 403.091H428.962L431.263 411.415H431.377L433.735 403.091H435.496L432.172 414H430.524L428.138 405.619H427.968L425.581 414H423.933ZM437.712 414V403.091H439.331V404.739H439.445C439.644 404.199 440.003 403.761 440.524 403.425C441.045 403.089 441.632 402.92 442.286 402.92C442.409 402.92 442.563 402.923 442.747 402.928C442.932 402.932 443.072 402.939 443.166 402.949V404.653C443.11 404.639 442.979 404.618 442.776 404.589C442.577 404.556 442.366 404.54 442.144 404.54C441.613 404.54 441.14 404.651 440.723 404.874C440.311 405.091 439.985 405.394 439.743 405.783C439.506 406.166 439.388 406.604 439.388 407.097V414H437.712ZM445.153 414V403.091H446.829V414H445.153ZM446.006 401.273C445.679 401.273 445.397 401.161 445.16 400.939C444.928 400.716 444.812 400.449 444.812 400.136C444.812 399.824 444.928 399.556 445.16 399.334C445.397 399.111 445.679 399 446.006 399C446.332 399 446.612 399.111 446.844 399.334C447.08 399.556 447.199 399.824 447.199 400.136C447.199 400.449 447.08 400.716 446.844 400.939C446.612 401.161 446.332 401.273 446.006 401.273ZM454.644 403.091V404.511H448.99V403.091H454.644ZM450.638 400.477H452.314V410.875C452.314 411.348 452.383 411.704 452.52 411.94C452.662 412.172 452.842 412.329 453.06 412.409C453.282 412.485 453.517 412.523 453.763 412.523C453.948 412.523 454.099 412.513 454.218 412.494C454.336 412.471 454.431 412.452 454.502 412.438L454.843 413.943C454.729 413.986 454.57 414.028 454.367 414.071C454.163 414.118 453.905 414.142 453.593 414.142C453.119 414.142 452.655 414.04 452.2 413.837C451.751 413.633 451.377 413.323 451.078 412.906C450.785 412.49 450.638 411.964 450.638 411.33V400.477ZM461.622 414.227C460.57 414.227 459.664 413.995 458.901 413.531C458.144 413.062 457.559 412.409 457.147 411.571C456.74 410.728 456.536 409.748 456.536 408.631C456.536 407.513 456.74 406.528 457.147 405.676C457.559 404.819 458.132 404.152 458.866 403.673C459.605 403.19 460.466 402.949 461.451 402.949C462.019 402.949 462.58 403.044 463.134 403.233C463.688 403.422 464.193 403.73 464.647 404.156C465.102 404.578 465.464 405.136 465.734 405.832C466.004 406.528 466.139 407.385 466.139 408.403V409.114H457.73V407.665H464.434C464.434 407.049 464.311 406.5 464.065 406.017C463.823 405.534 463.478 405.153 463.028 404.874C462.583 404.594 462.057 404.455 461.451 404.455C460.784 404.455 460.206 404.62 459.718 404.952C459.235 405.278 458.864 405.705 458.603 406.23C458.343 406.756 458.213 407.319 458.213 407.92V408.886C458.213 409.71 458.355 410.409 458.639 410.982C458.927 411.55 459.328 411.983 459.839 412.281C460.35 412.575 460.945 412.722 461.622 412.722C462.062 412.722 462.46 412.66 462.815 412.537C463.175 412.409 463.485 412.22 463.745 411.969C464.006 411.713 464.207 411.396 464.349 411.017L465.968 411.472C465.798 412.021 465.511 412.504 465.109 412.92C464.706 413.332 464.209 413.654 463.617 413.886C463.026 414.114 462.36 414.227 461.622 414.227ZM475.393 418.091C475.109 418.091 474.856 418.067 474.633 418.02C474.41 417.977 474.257 417.935 474.171 417.892L474.597 416.415C475.005 416.519 475.365 416.557 475.677 416.528C475.99 416.5 476.267 416.36 476.508 416.109C476.754 415.863 476.979 415.463 477.183 414.909L477.495 414.057L473.461 403.091H475.279L478.291 411.784H478.404L481.416 403.091H483.234L478.603 415.591C478.395 416.154 478.137 416.621 477.829 416.99C477.521 417.364 477.164 417.641 476.757 417.821C476.354 418.001 475.9 418.091 475.393 418.091ZM489.487 414.227C488.503 414.227 487.638 413.993 486.895 413.524C486.156 413.055 485.579 412.4 485.162 411.557C484.75 410.714 484.544 409.729 484.544 408.602C484.544 407.466 484.75 406.474 485.162 405.626C485.579 404.779 486.156 404.121 486.895 403.652C487.638 403.183 488.503 402.949 489.487 402.949C490.472 402.949 491.334 403.183 492.073 403.652C492.816 404.121 493.394 404.779 493.806 405.626C494.222 406.474 494.431 407.466 494.431 408.602C494.431 409.729 494.222 410.714 493.806 411.557C493.394 412.4 492.816 413.055 492.073 413.524C491.334 413.993 490.472 414.227 489.487 414.227ZM489.487 412.722C490.235 412.722 490.851 412.53 491.334 412.146C491.817 411.763 492.174 411.259 492.406 410.634C492.638 410.009 492.754 409.331 492.754 408.602C492.754 407.873 492.638 407.194 492.406 406.564C492.174 405.934 491.817 405.425 491.334 405.037C490.851 404.649 490.235 404.455 489.487 404.455C488.739 404.455 488.124 404.649 487.641 405.037C487.158 405.425 486.8 405.934 486.568 406.564C486.336 407.194 486.22 407.873 486.22 408.602C486.22 409.331 486.336 410.009 486.568 410.634C486.8 411.259 487.158 411.763 487.641 412.146C488.124 412.53 488.739 412.722 489.487 412.722ZM503.864 409.54V403.091H505.54V414H503.864V412.153H503.751C503.495 412.707 503.097 413.179 502.557 413.567C502.018 413.95 501.336 414.142 500.512 414.142C499.83 414.142 499.224 413.993 498.694 413.695C498.163 413.392 497.747 412.937 497.444 412.331C497.141 411.72 496.989 410.951 496.989 410.023V403.091H498.665V409.909C498.665 410.705 498.888 411.339 499.333 411.812C499.783 412.286 500.356 412.523 501.052 412.523C501.468 412.523 501.892 412.416 502.323 412.203C502.759 411.99 503.123 411.663 503.417 411.223C503.715 410.783 503.864 410.222 503.864 409.54ZM508.61 414V403.091H510.23V404.739H510.343C510.542 404.199 510.902 403.761 511.423 403.425C511.944 403.089 512.531 402.92 513.184 402.92C513.307 402.92 513.461 402.923 513.646 402.928C513.83 402.932 513.97 402.939 514.065 402.949V404.653C514.008 404.639 513.878 404.618 513.674 404.589C513.475 404.556 513.265 404.54 513.042 404.54C512.512 404.54 512.038 404.651 511.622 404.874C511.21 405.091 510.883 405.394 510.642 405.783C510.405 406.166 510.286 406.604 510.286 407.097V414H508.61ZM523.353 399.455V414H521.677V399.455H523.353ZM529.633 414.256C528.942 414.256 528.314 414.125 527.751 413.865C527.187 413.6 526.74 413.219 526.409 412.722C526.077 412.22 525.911 411.614 525.911 410.903C525.911 410.278 526.035 409.772 526.281 409.384C526.527 408.991 526.856 408.683 527.268 408.46C527.68 408.238 528.134 408.072 528.632 407.963C529.133 407.849 529.638 407.759 530.144 407.693C530.807 407.608 531.345 407.544 531.757 407.501C532.173 407.454 532.476 407.376 532.666 407.267C532.86 407.158 532.957 406.969 532.957 406.699V406.642C532.957 405.941 532.765 405.397 532.382 405.009C532.003 404.62 531.427 404.426 530.656 404.426C529.856 404.426 529.228 404.601 528.774 404.952C528.319 405.302 527.999 405.676 527.815 406.074L526.224 405.506C526.508 404.843 526.887 404.327 527.36 403.957C527.838 403.583 528.359 403.323 528.923 403.176C529.491 403.025 530.05 402.949 530.599 402.949C530.949 402.949 531.352 402.991 531.806 403.077C532.266 403.157 532.708 403.325 533.134 403.581C533.565 403.837 533.923 404.223 534.207 404.739C534.491 405.255 534.633 405.946 534.633 406.812V414H532.957V412.523H532.872C532.758 412.759 532.569 413.013 532.303 413.283C532.038 413.553 531.686 413.782 531.245 413.972C530.805 414.161 530.267 414.256 529.633 414.256ZM529.889 412.75C530.552 412.75 531.11 412.62 531.565 412.359C532.024 412.099 532.37 411.763 532.602 411.351C532.838 410.939 532.957 410.506 532.957 410.051V408.517C532.886 408.602 532.73 408.68 532.488 408.751C532.251 408.818 531.977 408.877 531.664 408.929C531.356 408.976 531.056 409.019 530.762 409.057C530.473 409.09 530.239 409.118 530.059 409.142C529.624 409.199 529.216 409.291 528.838 409.419C528.463 409.542 528.16 409.729 527.928 409.98C527.701 410.226 527.588 410.562 527.588 410.989C527.588 411.571 527.803 412.011 528.234 412.31C528.669 412.603 529.221 412.75 529.889 412.75ZM545.42 405.534L543.914 405.96C543.819 405.709 543.68 405.465 543.495 405.229C543.315 404.987 543.069 404.788 542.756 404.632C542.444 404.476 542.044 404.398 541.556 404.398C540.888 404.398 540.332 404.552 539.887 404.859C539.447 405.162 539.226 405.548 539.226 406.017C539.226 406.434 539.378 406.763 539.681 407.004C539.984 407.246 540.457 407.447 541.101 407.608L542.721 408.006C543.696 408.242 544.423 408.605 544.901 409.092C545.379 409.575 545.618 410.198 545.618 410.96C545.618 411.585 545.439 412.144 545.079 412.636C544.724 413.129 544.226 413.517 543.587 413.801C542.948 414.085 542.205 414.227 541.357 414.227C540.244 414.227 539.323 413.986 538.594 413.503C537.865 413.02 537.403 412.314 537.209 411.386L538.8 410.989C538.952 411.576 539.238 412.016 539.66 412.31C540.086 412.603 540.642 412.75 541.329 412.75C542.11 412.75 542.73 412.584 543.189 412.253C543.653 411.917 543.885 411.514 543.885 411.045C543.885 410.667 543.753 410.349 543.488 410.094C543.223 409.833 542.815 409.639 542.266 409.511L540.448 409.085C539.449 408.848 538.715 408.482 538.246 407.984C537.782 407.482 537.55 406.855 537.55 406.102C537.55 405.487 537.723 404.942 538.069 404.469C538.419 403.995 538.895 403.624 539.496 403.354C540.102 403.084 540.789 402.949 541.556 402.949C542.635 402.949 543.483 403.186 544.099 403.659C544.719 404.133 545.159 404.758 545.42 405.534ZM552.886 403.091V404.511H547.232V403.091H552.886ZM548.88 400.477H550.556V410.875C550.556 411.348 550.625 411.704 550.762 411.94C550.904 412.172 551.084 412.329 551.302 412.409C551.525 412.485 551.759 412.523 552.005 412.523C552.19 412.523 552.341 412.513 552.46 412.494C552.578 412.471 552.673 412.452 552.744 412.438L553.085 413.943C552.971 413.986 552.812 414.028 552.609 414.071C552.405 414.118 552.147 414.142 551.835 414.142C551.361 414.142 550.897 414.04 550.443 413.837C549.993 413.633 549.619 413.323 549.32 412.906C549.027 412.49 548.88 411.964 548.88 411.33V400.477ZM563.504 414L560.18 403.091H561.941L564.299 411.443H564.413L566.742 403.091H568.532L570.833 411.415H570.947L573.305 403.091H575.066L571.742 414H570.095L567.708 405.619H567.538L565.151 414H563.504ZM581.343 414.227C580.358 414.227 579.494 413.993 578.751 413.524C578.012 413.055 577.434 412.4 577.018 411.557C576.606 410.714 576.4 409.729 576.4 408.602C576.4 407.466 576.606 406.474 577.018 405.626C577.434 404.779 578.012 404.121 578.751 403.652C579.494 403.183 580.358 402.949 581.343 402.949C582.328 402.949 583.189 403.183 583.928 403.652C584.671 404.121 585.249 404.779 585.661 405.626C586.078 406.474 586.286 407.466 586.286 408.602C586.286 409.729 586.078 410.714 585.661 411.557C585.249 412.4 584.671 413.055 583.928 413.524C583.189 413.993 582.328 414.227 581.343 414.227ZM581.343 412.722C582.091 412.722 582.706 412.53 583.189 412.146C583.672 411.763 584.03 411.259 584.262 410.634C584.494 410.009 584.61 409.331 584.61 408.602C584.61 407.873 584.494 407.194 584.262 406.564C584.03 405.934 583.672 405.425 583.189 405.037C582.706 404.649 582.091 404.455 581.343 404.455C580.595 404.455 579.979 404.649 579.496 405.037C579.013 405.425 578.656 405.934 578.424 406.564C578.192 407.194 578.076 407.873 578.076 408.602C578.076 409.331 578.192 410.009 578.424 410.634C578.656 411.259 579.013 411.763 579.496 412.146C579.979 412.53 580.595 412.722 581.343 412.722ZM588.845 414V403.091H590.464V404.739H590.578C590.776 404.199 591.136 403.761 591.657 403.425C592.178 403.089 592.765 402.92 593.419 402.92C593.542 402.92 593.695 402.923 593.88 402.928C594.065 402.932 594.204 402.939 594.299 402.949V404.653C594.242 404.639 594.112 404.618 593.909 404.589C593.71 404.556 593.499 404.54 593.276 404.54C592.746 404.54 592.273 404.651 591.856 404.874C591.444 405.091 591.117 405.394 590.876 405.783C590.639 406.166 590.521 406.604 590.521 407.097V414H588.845ZM600.073 414.227C599.164 414.227 598.362 413.998 597.666 413.538C596.97 413.074 596.425 412.421 596.032 411.578C595.639 410.731 595.443 409.729 595.443 408.574C595.443 407.428 595.639 406.434 596.032 405.591C596.425 404.748 596.972 404.097 597.673 403.638C598.374 403.179 599.183 402.949 600.102 402.949C600.812 402.949 601.373 403.067 601.785 403.304C602.202 403.536 602.519 403.801 602.737 404.099C602.959 404.393 603.132 404.634 603.255 404.824H603.397V399.455H605.073V414H603.454V412.324H603.255C603.132 412.523 602.957 412.774 602.73 413.077C602.502 413.375 602.178 413.643 601.757 413.879C601.335 414.111 600.774 414.227 600.073 414.227ZM600.301 412.722C600.973 412.722 601.541 412.546 602.005 412.196C602.469 411.841 602.822 411.351 603.063 410.726C603.305 410.096 603.426 409.369 603.426 408.545C603.426 407.731 603.307 407.018 603.07 406.408C602.834 405.792 602.483 405.314 602.019 404.973C601.555 404.627 600.982 404.455 600.301 404.455C599.59 404.455 598.999 404.637 598.525 405.001C598.056 405.361 597.704 405.851 597.467 406.472C597.235 407.087 597.119 407.778 597.119 408.545C597.119 409.322 597.237 410.027 597.474 410.662C597.715 411.292 598.07 411.794 598.539 412.168C599.013 412.537 599.6 412.722 600.301 412.722ZM616.103 405.534L614.597 405.96C614.503 405.709 614.363 405.465 614.178 405.229C613.999 404.987 613.752 404.788 613.44 404.632C613.127 404.476 612.727 404.398 612.24 404.398C611.572 404.398 611.016 404.552 610.57 404.859C610.13 405.162 609.91 405.548 609.91 406.017C609.91 406.434 610.061 406.763 610.365 407.004C610.668 407.246 611.141 407.447 611.785 407.608L613.404 408.006C614.38 408.242 615.106 408.605 615.585 409.092C616.063 409.575 616.302 410.198 616.302 410.96C616.302 411.585 616.122 412.144 615.762 412.636C615.407 413.129 614.91 413.517 614.271 413.801C613.632 414.085 612.888 414.227 612.041 414.227C610.928 414.227 610.007 413.986 609.278 413.503C608.549 413.02 608.087 412.314 607.893 411.386L609.484 410.989C609.635 411.576 609.922 412.016 610.343 412.31C610.769 412.603 611.326 412.75 612.012 412.75C612.794 412.75 613.414 412.584 613.873 412.253C614.337 411.917 614.569 411.514 614.569 411.045C614.569 410.667 614.436 410.349 614.171 410.094C613.906 409.833 613.499 409.639 612.95 409.511L611.132 409.085C610.133 408.848 609.399 408.482 608.93 407.984C608.466 407.482 608.234 406.855 608.234 406.102C608.234 405.487 608.407 404.942 608.752 404.469C609.103 403.995 609.579 403.624 610.18 403.354C610.786 403.084 611.472 402.949 612.24 402.949C613.319 402.949 614.167 403.186 614.782 403.659C615.402 404.133 615.843 404.758 616.103 405.534ZM626.126 407.438V414H624.45V399.455H626.126V404.795H626.268C626.524 404.232 626.907 403.785 627.419 403.453C627.935 403.117 628.622 402.949 629.479 402.949C630.222 402.949 630.873 403.098 631.432 403.396C631.99 403.69 632.424 404.142 632.731 404.753C633.044 405.359 633.2 406.131 633.2 407.068V414H631.524V407.182C631.524 406.315 631.299 405.645 630.849 405.172C630.404 404.694 629.786 404.455 628.996 404.455C628.446 404.455 627.954 404.571 627.518 404.803C627.087 405.035 626.747 405.373 626.496 405.818C626.249 406.263 626.126 406.803 626.126 407.438ZM640.84 414.227C639.789 414.227 638.883 413.995 638.12 413.531C637.363 413.062 636.778 412.409 636.366 411.571C635.959 410.728 635.755 409.748 635.755 408.631C635.755 407.513 635.959 406.528 636.366 405.676C636.778 404.819 637.351 404.152 638.085 403.673C638.823 403.19 639.685 402.949 640.67 402.949C641.238 402.949 641.799 403.044 642.353 403.233C642.907 403.422 643.411 403.73 643.866 404.156C644.32 404.578 644.683 405.136 644.953 405.832C645.222 406.528 645.357 407.385 645.357 408.403V409.114H636.948V407.665H643.653C643.653 407.049 643.53 406.5 643.284 406.017C643.042 405.534 642.696 405.153 642.247 404.874C641.802 404.594 641.276 404.455 640.67 404.455C640.002 404.455 639.425 404.62 638.937 404.952C638.454 405.278 638.082 405.705 637.822 406.23C637.561 406.756 637.431 407.319 637.431 407.92V408.886C637.431 409.71 637.573 410.409 637.857 410.982C638.146 411.55 638.546 411.983 639.058 412.281C639.569 412.575 640.163 412.722 640.84 412.722C641.281 412.722 641.678 412.66 642.034 412.537C642.393 412.409 642.704 412.22 642.964 411.969C643.224 411.713 643.426 411.396 643.568 411.017L645.187 411.472C645.017 412.021 644.73 412.504 644.328 412.92C643.925 413.332 643.428 413.654 642.836 413.886C642.244 414.114 641.579 414.227 640.84 414.227ZM647.907 414V403.091H649.526V404.739H649.64C649.839 404.199 650.199 403.761 650.72 403.425C651.24 403.089 651.828 402.92 652.481 402.92C652.604 402.92 652.758 402.923 652.943 402.928C653.127 402.932 653.267 402.939 653.362 402.949V404.653C653.305 404.639 653.175 404.618 652.971 404.589C652.772 404.556 652.561 404.54 652.339 404.54C651.809 404.54 651.335 404.651 650.919 404.874C650.507 405.091 650.18 405.394 649.938 405.783C649.702 406.166 649.583 406.604 649.583 407.097V414H647.907ZM659.59 414.227C658.539 414.227 657.633 413.995 656.87 413.531C656.113 413.062 655.528 412.409 655.116 411.571C654.709 410.728 654.505 409.748 654.505 408.631C654.505 407.513 654.709 406.528 655.116 405.676C655.528 404.819 656.101 404.152 656.835 403.673C657.573 403.19 658.435 402.949 659.42 402.949C659.988 402.949 660.549 403.044 661.103 403.233C661.657 403.422 662.161 403.73 662.616 404.156C663.07 404.578 663.433 405.136 663.703 405.832C663.972 406.528 664.107 407.385 664.107 408.403V409.114H655.698V407.665H662.403C662.403 407.049 662.28 406.5 662.034 406.017C661.792 405.534 661.446 405.153 660.997 404.874C660.552 404.594 660.026 404.455 659.42 404.455C658.752 404.455 658.175 404.62 657.687 404.952C657.204 405.278 656.832 405.705 656.572 406.23C656.311 406.756 656.181 407.319 656.181 407.92V408.886C656.181 409.71 656.323 410.409 656.607 410.982C656.896 411.55 657.296 411.983 657.808 412.281C658.319 412.575 658.913 412.722 659.59 412.722C660.031 412.722 660.428 412.66 660.784 412.537C661.143 412.409 661.454 412.22 661.714 411.969C661.974 411.713 662.176 411.396 662.318 411.017L663.937 411.472C663.767 412.021 663.48 412.504 663.078 412.92C662.675 413.332 662.178 413.654 661.586 413.886C660.994 414.114 660.329 414.227 659.59 414.227ZM667.879 414.114C667.528 414.114 667.228 413.988 666.977 413.737C666.726 413.486 666.6 413.186 666.6 412.835C666.6 412.485 666.726 412.184 666.977 411.933C667.228 411.682 667.528 411.557 667.879 411.557C668.229 411.557 668.53 411.682 668.781 411.933C669.032 412.184 669.157 412.485 669.157 412.835C669.157 413.067 669.098 413.28 668.98 413.474C668.866 413.669 668.712 413.825 668.518 413.943C668.329 414.057 668.115 414.114 667.879 414.114ZM667.879 406.017C667.528 406.017 667.228 405.892 666.977 405.641C666.726 405.39 666.6 405.089 666.6 404.739C666.6 404.388 666.726 404.088 666.977 403.837C667.228 403.586 667.528 403.46 667.879 403.46C668.229 403.46 668.53 403.586 668.781 403.837C669.032 404.088 669.157 404.388 669.157 404.739C669.157 404.971 669.098 405.184 668.98 405.378C668.866 405.572 668.712 405.728 668.518 405.847C668.329 405.96 668.115 406.017 667.879 406.017Z" fill="black"/>
<path d="M127.165 493.774C172.336 497.88 217.998 495.36 263.405 496.058C315.903 496.866 368.289 498.103 420.81 498.103C450.043 498.103 479.376 497.405 508.59 498.584C534.936 499.647 560.712 502.979 587.112 501.349C620.123 499.312 654.509 498.478 687.519 501.229C704.645 502.656 719.766 501.586 736.58 498.584C754.304 495.419 771.773 497.453 789.489 495.457C808.907 493.269 829.234 499.293 848.411 495.457C864.159 492.308 874.909 489.797 891.219 491.609" stroke="black" stroke-opacity="0.5" stroke-width="3" stroke-linecap="round"/>
<path d="M125 565.201C143.341 561.622 162.034 564.095 180.554 564.72C213.715 565.839 246.945 566.036 280.12 566.884C333.549 568.25 387.085 567.365 440.53 567.365C482.268 567.365 523.892 569.53 565.588 569.53C592.673 569.53 619.15 565.201 646.154 565.201C706.438 565.201 766.722 565.201 827.007 565.201C844.384 565.201 862.823 566.01 879.916 569.049C886.555 570.229 893.247 573.859 899.877 573.859" stroke="black" stroke-opacity="0.5" stroke-width="3" stroke-linecap="round"/>
<path d="M129.329 645.286C153.745 645.286 178.159 647.45 202.68 647.45C270.75 647.45 338.856 644.08 406.861 647.45C464.119 650.288 520.803 649.334 578.094 649.615C608.748 649.765 638.618 651.424 669.242 649.134C720.133 645.329 771.186 654.095 821.956 646.969C847.622 643.367 872.458 645.406 897.712 649.615" stroke="black" stroke-opacity="0.5" stroke-width="3" stroke-linecap="round"/>
<path d="M129.329 718.878C135.822 713.106 152.469 717.41 159.632 718.036C198.353 721.419 236.57 724.792 275.43 726.453C336.547 729.065 399.341 730.112 460.491 727.054C501.266 725.016 542.066 723.206 582.904 723.206C627.692 723.206 675.204 718.728 719.746 724.168C762.849 729.433 804.726 729.7 847.93 729.7C859.268 729.7 871.305 728.569 882.561 729.82C886.289 730.234 898.421 731.118 899.877 734.029" stroke="black" stroke-opacity="0.5" stroke-width="3" stroke-linecap="round"/>
</svg>
