<svg width="1024" height="1024" viewBox="0 0 1024 1024" fill="none" xmlns="http://www.w3.org/2000/svg">
<g clip-path="url(#clip0_33_59)">
<path d="M-11.1562 16.0627C13.0885 16.0627 40.6431 11.9823 64.3017 17.1255C86.2707 21.9013 107.097 24.565 129.604 24.565C163.092 24.565 193.404 32.4805 226.318 36.1376C255.787 39.412 284.907 35.1929 314.293 35.1929C346.786 35.1929 378.787 35.4032 411.125 32.1226C440.291 29.1636 469.67 32.5409 498.864 30.8236C533.727 28.7728 568.488 28.8161 603.489 28.8161C619.905 28.8161 636.232 28.5053 652.495 26.2182C665.999 24.3193 678.695 19.1368 692.409 18.4244C714.069 17.2992 734.744 19.7617 756.176 21.0224C791.284 23.0875 827.169 22.4394 862.455 22.4394C893.652 22.4394 922.999 26.0258 953.855 20.7862C966.373 18.6605 981.132 16.4142 993.768 18.6606C1007.24 21.0557 1020.89 24.565 1034.63 24.565" stroke="black" stroke-opacity="0.5" stroke-width="3" stroke-linecap="round"/>
<path d="M-6.90625 35.1927C12.2648 35.1927 30.0684 32.3256 49.4215 35.1927C71.4843 38.4613 92.8951 39.4785 115.196 41.0971C156.378 44.0861 196.168 52.1973 237.653 52.1973C289.069 52.1973 339.453 71.6273 390.812 66.9583C418.231 64.4657 444.976 65.4139 472.057 59.5188C491.52 55.2818 511.603 55.9787 531.337 53.8506C546.194 52.2482 559.421 48.1507 574.557 47.9462C587.831 47.7668 601.14 44.7004 614.234 42.7503C625.316 41.0998 636.712 42.7859 647.653 40.5067C657.842 38.3838 667.758 40.6248 678.001 40.6248C694.221 40.6248 709.709 40.5508 725.945 42.0418C757.977 44.9836 789.131 45.8206 821.359 45.8206C863.49 45.8206 905.51 43.695 947.477 43.695C961.889 43.695 976.304 44.957 990.461 47.4738C1004.35 49.9433 1018.92 45.5441 1032.5 50.0718" stroke="black" stroke-opacity="0.5" stroke-width="3" stroke-linecap="round"/>
<path d="M-11.1562 81.9552C4.74604 81.9552 20.5323 80.0658 36.433 80.0658C84.4168 80.0658 132.968 84.8014 180.972 86.4425C201.798 87.1545 222.192 91.7607 242.968 92.465C262.938 93.1419 283.011 91.6076 302.956 92.9373C320.456 94.1039 336.733 101.215 354.443 99.7864C369.581 98.5655 384.316 96.8342 399.552 96.8342C417.007 96.8342 432.886 90.3976 450.093 88.8043C477.989 86.2213 507.12 84.0808 535.116 84.0808C579.806 84.0808 623.236 73.4529 668.083 73.4529C754.657 73.4529 843.398 70.8773 929.529 80.8924C966.868 85.2342 1001.75 79.8296 1038.88 79.8296" stroke="black" stroke-opacity="0.5" stroke-width="3" stroke-linecap="round"/>
<path d="M-9.03125 113.839C13.5589 113.839 36.2292 111.551 58.9871 111.713C97.6153 111.989 136.042 118.09 174.713 118.09C208.992 118.09 244.352 114.142 278.394 117.027C307.399 119.485 336.675 116.078 365.542 119.743C382.566 121.905 401.363 118.09 418.682 118.09C439.251 118.09 459.463 116.815 479.969 116.083C511.753 114.947 543.701 116.219 575.502 115.964C604.538 115.732 636.03 116.369 664.776 112.776C703.759 107.903 749.352 98.7517 788.532 104.156C815.881 107.928 841.447 105.844 868.831 105.337C879.388 105.141 889.233 101.085 899.77 101.085C950.886 101.085 1000.82 107.462 1051.63 107.462" stroke="black" stroke-opacity="0.5" stroke-width="3" stroke-linecap="round"/>
<path d="M-30.2852 137.22C-26.7244 140.385 -23.0804 138.275 -18.7126 137.693C-3.87221 135.714 11.0452 132.969 26.0426 132.969C59.4292 132.969 92.9408 132.083 126.299 133.441C190.94 136.074 254.785 139.346 319.49 139.346C341.041 139.346 363.569 135.866 384.91 137.338C404.524 138.691 423.242 135.27 443.009 135.095C501.266 134.579 559.4 139.346 617.661 139.346C705.735 139.346 793.25 132.969 881.232 132.969C897.726 132.969 913.663 137.22 930.002 137.22C940.057 137.22 950.055 135.095 960.351 135.095C984.605 135.095 1008.34 135.095 1032.5 135.095" stroke="black" stroke-opacity="0.5" stroke-width="3" stroke-linecap="round"/>
<path d="M-6.90625 171.229C6.1124 170.228 18.7192 166.192 31.8264 165.325C56.6408 163.683 81.8323 164.853 106.694 164.853C155.582 164.853 204.47 164.853 253.359 164.853C332.759 164.853 412.191 162.727 491.659 162.727C548.269 162.727 603.968 171.229 660.524 171.229C676.94 171.229 695.157 171.019 711.42 168.986C722.074 167.654 736.386 158.745 745.547 164.853" stroke="black" stroke-opacity="0.5" stroke-width="3" stroke-linecap="round"/>
<path d="M745.547 166.979C797.95 166.979 849.303 163.981 902.603 171.23C925.288 174.315 947.256 177.606 970.149 177.606C980.746 177.606 989.892 173.721 1000.14 173.355C1012.31 172.921 1024.57 173.355 1036.75 173.355" stroke="black" stroke-opacity="0.5" stroke-width="3" stroke-linecap="round"/>
<path d="M-21.7852 194.611C21.1393 192.96 64.5759 193.447 107.757 192.367C144.185 191.457 179.242 187.534 215.925 189.297C247.689 190.824 279.791 191.838 311.576 192.367C379.416 193.498 447.774 192.25 515.513 196.264C547.16 198.14 579.241 196.737 610.928 196.737C646.993 196.737 684.33 199.57 720.277 196.264C748.443 193.674 777.106 197.301 805.182 194.493C838.264 191.185 872.805 188.234 906.146 188.234C932.006 188.234 958.059 191.795 983.612 192.486C999.288 192.909 1015.5 193.905 1030.37 198.862" stroke="black" stroke-opacity="0.5" stroke-width="3" stroke-linecap="round"/>
<path d="M-11.1562 228.62C10.8247 228.62 32.3027 225.892 54.5004 227.439C105.917 231.021 156.278 232.871 207.896 232.871C261.705 232.871 315.513 232.871 369.322 232.871C398.133 232.871 426.951 233.061 455.762 232.871C488.454 232.656 520.327 227.084 553.066 229.683C602.989 233.645 655.945 232.233 705.635 226.022C751.358 220.307 797.881 224.369 843.915 224.369C878.219 224.369 911.559 229.533 945.352 228.62C969 227.981 992.23 229.329 1015.61 225.432C1028.39 223.302 1040.83 222.243 1053.76 222.243" stroke="black" stroke-opacity="0.5" stroke-width="3" stroke-linecap="round"/>
<path d="M-6.90625 262.629C1.98013 259.553 8.50787 258.378 17.8921 258.378C54.0973 258.378 90.3608 257.702 126.533 259.441C167.882 261.429 209.371 260.504 250.761 260.504C296.251 260.504 342.39 256.384 387.742 259.559C448.437 263.808 509.803 258.742 570.305 264.755C592.082 266.919 614.296 267.781 636.198 266.762C658.514 265.724 680.859 259.372 703.508 257.906C718.705 256.922 733.967 255.784 749.208 256.371C758.243 256.718 767.44 258.961 776.486 257.906C797.159 255.494 817.973 256.253 838.836 256.253C871.164 256.253 903.773 254.127 935.786 254.127C971.926 254.127 1010.33 254.127 1045.25 254.127" stroke="black" stroke-opacity="0.5" stroke-width="3" stroke-linecap="round"/>
<path d="M-19.6602 292.387C-15.1539 295.255 -7.50417 292 -2.77365 291.325C14.5593 288.849 32.0523 288.236 49.5391 288.136C78.1362 287.974 106.531 286.011 135.153 286.011C204.296 286.011 273.269 288.136 342.396 288.136C472.547 288.136 602.564 292.197 732.675 288.254C775 286.972 817.505 288.136 859.855 288.136C895.995 288.136 931.535 294.513 967.787 294.513C999.157 294.513 1030.88 294.513 1062.26 294.513" stroke="black" stroke-opacity="0.5" stroke-width="3" stroke-linecap="round"/>
<path d="M-15.4062 315.769C21.6311 311.139 59.7577 313.643 97.013 313.643C135.037 313.643 173.061 313.643 211.086 313.643C274.892 313.643 338.738 309.392 402.623 309.392C453.48 309.392 504.336 309.392 555.193 309.392C580.385 309.392 605.576 309.392 630.768 309.392C654.176 309.392 676.083 315.769 699.259 315.769C778.612 315.769 857.744 320.02 936.969 320.02C976.704 320.02 1016.86 320.02 1055.88 320.02" stroke="black" stroke-opacity="0.5" stroke-width="3" stroke-linecap="round"/>
<path d="M-9.03125 347.652C34.9437 347.652 79.268 349.08 123.109 350.959C164.81 352.746 206.845 346.987 248.399 350.723C280.24 353.585 311.276 354.029 343.342 354.029C449.701 354.029 556.174 354.029 662.414 354.029C700.911 354.029 739.407 354.029 777.904 354.029C821.362 354.029 865.75 354.882 909.099 351.785C924.211 350.706 938.495 347.652 953.854 347.652C966.608 347.652 979.361 347.652 992.115 347.652C1013.37 347.652 1034.63 347.652 1055.88 347.652" stroke="black" stroke-opacity="0.5" stroke-width="3" stroke-linecap="round"/>
<path d="M-21.7852 377.411C-7.04311 372.693 6.70486 371.034 22.1434 371.034C56.6249 371.034 91.1065 371.034 125.588 371.034C181.377 371.034 237.547 375.659 293.272 372.687C353.449 369.478 413.714 371.946 473.946 371.034C529.319 370.195 584.651 368.908 640.095 368.908C780.202 368.908 919.988 368.908 1060.13 368.908" stroke="black" stroke-opacity="0.5" stroke-width="3" stroke-linecap="round"/>
<path d="M-13.2812 405.043C11.0392 405.043 35.0981 401.39 59.3426 399.847C91.5377 397.798 123.927 398.666 156.174 398.666C231.024 398.666 305.976 396.541 380.895 396.541C437.166 396.541 492.354 402.917 548.697 402.917C578.443 402.917 606.249 398.532 635.609 395.596C672.913 391.866 710.809 397.65 748.029 393.234C785.291 388.813 823.184 389.526 860.802 390.164C905.275 390.918 947.685 409.294 992.116 409.294C1008.56 409.294 1029.02 406.256 1045.26 409.766C1063.04 413.612 1084.49 415.671 1102.65 415.671" stroke="black" stroke-opacity="0.5" stroke-width="3" stroke-linecap="round"/>
<path d="M-9.03125 432.675C39.3899 432.675 88.3099 432.675 136.925 432.675C206.112 432.675 275.189 428.424 344.287 428.424C359.377 428.424 374.469 428.355 389.514 429.723C409.079 431.501 428.075 437.42 447.613 438.816C477.25 440.933 507.037 443.303 536.769 443.303C556.227 443.303 575.59 441.177 595.104 441.177C613.049 441.177 630.095 435.536 648.008 434.919C710.719 432.756 773.842 434.801 836.593 434.801C867.539 434.801 897.889 430.549 928.583 430.549C975.976 430.549 1023.37 430.549 1070.76 430.549" stroke="black" stroke-opacity="0.5" stroke-width="3" stroke-linecap="round"/>
<path d="M-17.5312 464.559C-0.174572 463.112 16.0048 456.647 33.9549 456.175C65.9227 455.333 97.6795 458.182 129.606 458.182C186.245 458.182 247.955 452.566 304.139 460.78C370.734 470.516 436.829 462.433 503.943 462.433C547.85 462.433 596.083 470.435 639.389 462.315C676.679 455.323 713.828 460.062 751.454 460.308C762.893 460.382 774.615 459.569 785.936 461.607C796.998 463.598 806.166 467.207 817.583 465.622C833.954 463.348 850.93 464.559 867.416 464.559C883.139 464.559 893.629 461.338 908.275 457.237C919.516 454.09 933.041 456.057 944.646 456.057C968.27 456.057 991.451 458.182 1015.03 458.182C1028.28 458.182 1043.34 456.127 1055.88 460.308" stroke="black" stroke-opacity="0.5" stroke-width="3" stroke-linecap="round"/>
<path d="M-26.0352 494.317C-11.4317 494.317 3.17182 494.317 17.7753 494.317C42.8084 494.317 67.2478 500.448 92.2885 500.694C125.226 501.017 157.75 504.945 190.773 504.945C234.545 504.945 278.316 504.945 322.087 504.945C358.616 504.945 392.6 504.283 428.602 498.804C464.049 493.41 500.564 497.388 536.297 494.789C582.829 491.405 628.85 499.557 675.286 500.812C695.466 501.357 715.449 504.932 735.393 500.694C758.047 495.88 780.485 496.443 803.529 496.443C832.282 496.443 860.609 494.317 889.261 494.317C940.638 494.317 991.731 496.443 1043.13 496.443" stroke="black" stroke-opacity="0.5" stroke-width="3" stroke-linecap="round"/>
<path d="M-9.03125 526.201C49.7371 526.201 107.662 534.703 166.447 534.703C221.987 534.703 277.528 534.703 333.068 534.703C365.933 534.703 398.742 533.759 431.317 538.836C458.295 543.04 485.515 539.741 512.679 541.552C529.738 542.689 545.109 545.331 562.512 545.331C580.916 545.331 595.088 544.174 613.29 541.08C656.384 533.754 703.721 538.954 747.319 538.954C777.928 538.954 808.447 536.829 839.073 536.829C857.148 536.829 876.522 538.947 894.338 535.766C919.402 531.29 944.077 526.584 969.914 528.799C990.341 530.55 1011.92 530.666 1032.15 533.64C1037.93 534.491 1047.44 536.766 1051.63 532.577" stroke="black" stroke-opacity="0.5" stroke-width="3" stroke-linecap="round"/>
<path d="M-13.2812 558.084C94.1877 558.084 201.535 558.084 308.861 558.084C370.38 558.084 431.841 560.21 493.432 560.21C528.012 560.21 565.885 555.779 599.947 561.273C617.29 564.07 635.958 562.335 653.441 562.335C680.072 562.335 706.186 561.463 732.087 555.959C753.778 551.349 779.976 551.935 802.231 551.707C826.236 551.463 850.257 551.707 874.264 551.707C929.07 551.707 984.348 553.833 1038.88 553.833" stroke="black" stroke-opacity="0.5" stroke-width="3" stroke-linecap="round"/>
<path d="M-9.03125 587.842C104.146 587.842 217.437 587.803 330.47 590.086C373.002 590.945 415.473 593.451 458.005 594.337C491.861 595.043 526.803 596.488 560.623 598.943C582.037 600.497 602.404 602.721 623.918 602.721C643.533 602.721 661.96 598.47 681.662 598.47C757.731 598.47 833.452 598.03 908.745 588.315C923.841 586.367 939.391 588.661 954.563 587.37C969.326 586.114 983.652 583.591 998.491 583.591C1021.83 583.591 1045.14 585.717 1068.64 585.717" stroke="black" stroke-opacity="0.5" stroke-width="3" stroke-linecap="round"/>
<path d="M-21.7852 619.726C-17.1659 616.03 -9.33958 617.559 -3.83586 617.128C7.17785 616.264 17.9483 615.642 28.9925 615.475C62.8092 614.962 96.1452 614.401 130.075 615.356C178.18 616.712 225.98 610.946 274.142 613.821C392.933 620.913 512.33 615.475 631.121 615.475C706.483 615.475 781.09 615.475 856.313 615.475C886.308 615.475 916.302 615.475 946.296 615.475C962.392 615.475 977.215 616.087 992.586 611.696C1013.51 605.719 1035.36 617.6 1055.88 617.6" stroke="black" stroke-opacity="0.5" stroke-width="3" stroke-linecap="round"/>
<path d="M-13.2812 649.484C129.318 644.884 272.401 647.358 415.14 647.358C519.293 647.358 623.552 645.233 727.6 645.233C750.23 645.233 772.723 647.358 795.382 647.358C812.454 647.358 828.838 651.61 845.923 651.61C878.456 651.61 910.663 649.484 943.227 649.484C976.628 649.484 1009.87 651.61 1043.13 651.61" stroke="black" stroke-opacity="0.5" stroke-width="3" stroke-linecap="round"/>
<path d="M-23.9102 679.242C113.747 679.242 251.265 677.116 388.924 677.116C462.792 677.116 536.64 681.367 610.456 681.367C638.546 681.367 666.478 683.348 694.534 683.493C712.394 683.585 730.291 683.093 748.146 683.611C759.999 683.955 771.623 686.296 783.454 684.556C803.64 681.587 825.056 683.493 845.45 683.493C871.701 683.493 898.092 682.736 924.332 683.611C941.229 684.174 959.438 684.291 976.173 686.681C986.06 688.094 999.202 689.744 1009 686.681C1022.96 682.318 1041.36 685.619 1055.88 685.619" stroke="black" stroke-opacity="0.5" stroke-width="3" stroke-linecap="round"/>
<path d="M-11.1562 709C-0.416041 704.478 14.7106 706.64 25.9232 707.347C70.9792 710.185 116.237 709 161.37 709C241.52 709 321.6 713.251 401.678 713.251C506.59 713.251 610.852 709 715.672 709C741.881 709 767.834 708.787 793.964 710.653C809.173 711.739 824.544 711.016 839.782 711.125C865.036 711.307 889.602 716.219 914.65 717.384C944.021 718.75 972.966 716.96 1002.27 720.1C1027.34 722.786 1052 723.879 1077.14 723.879" stroke="black" stroke-opacity="0.5" stroke-width="3" stroke-linecap="round"/>
<path d="M-4.78125 738.758C62.0452 732.683 130.798 736.633 197.975 736.633C232.949 736.633 269.078 734.115 303.899 737.577C338.683 741.035 372.491 742.762 407.462 743.954C433.328 744.836 460.263 743.824 485.99 740.884C516.14 737.438 546.742 738.758 577.036 738.758C645.465 738.758 713.951 734.507 782.39 736.751C836.201 738.515 890.116 734.149 943.697 740.411C965.558 742.967 986.953 751.512 1009.12 751.512C1024.83 751.512 1040.33 751.046 1055.88 753.637" stroke="black" stroke-opacity="0.5" stroke-width="3" stroke-linecap="round"/>
<path d="M-6.90625 770.642C54.4488 770.642 115.771 770.93 177.074 770.642C217.667 770.451 258.057 769.437 298.586 768.634C325.643 768.098 352.227 772.308 379.004 768.516C473.778 755.097 568.968 779.903 663.713 772.885C712.228 769.292 761.69 774.893 810.259 774.893C843.525 774.893 876.905 777.018 910.397 777.018C924.95 777.018 939.097 779.922 953.381 777.491C960.311 776.311 967.426 777.446 974.401 776.546C979.624 775.872 985.9 773.003 991.051 773.003C999.568 773.003 1008.8 778.899 1017.62 779.144C1029.79 779.482 1041.66 783.395 1053.76 783.395" stroke="black" stroke-opacity="0.5" stroke-width="3" stroke-linecap="round"/>
<path d="M-23.9102 806.776C11.3508 806.776 45.5522 801.178 81.3058 803.706C156.829 809.046 233.548 809.23 308.978 802.525C364.351 797.603 420.627 800.4 476.19 800.4C506.352 800.4 536.89 801.795 567 799.927C604.406 797.608 639.471 802.536 676.585 804.415C731.195 807.18 786.487 804.651 841.199 804.651C858.468 804.651 876.157 803.58 893.393 804.769C908.458 805.808 923.542 810.709 938.503 811.028C977.098 811.849 1015.49 811.028 1053.76 811.028" stroke="black" stroke-opacity="0.5" stroke-width="3" stroke-linecap="round"/>
<path d="M-15.4062 845.037C41.8262 845.037 99.748 842.911 157.238 842.911C239.332 842.911 321.111 846.621 403.214 845.155C511.796 843.216 620.362 842.911 729.017 842.911C747.205 842.911 766.11 844.504 784.164 841.849C802.011 839.224 818.859 836.535 836.949 836.535C873.438 836.535 909.927 836.535 946.416 836.535C986.448 836.535 1026.48 836.535 1066.51 836.535" stroke="black" stroke-opacity="0.5" stroke-width="3" stroke-linecap="round"/>
<path d="M-26.0352 866.292C-7.92105 866.292 10.3558 862.134 28.7574 862.041C62.5274 861.871 96.1024 864.167 129.84 864.167C168.337 864.167 206.833 864.167 245.33 864.167C294.371 864.167 343.18 868.418 392.231 868.418C434.611 868.418 476.971 867.736 519.293 870.071C551.476 871.847 583.452 866.292 615.652 866.292C660.702 866.292 705.623 864.167 750.508 864.167C849.504 864.167 948.481 864.167 1047.38 864.167" stroke="black" stroke-opacity="0.5" stroke-width="3" stroke-linecap="round"/>
<path d="M-13.2812 893.925C26.5554 893.925 67.2484 891.799 107.404 891.799C175.648 891.799 243.573 894.239 311.696 893.925C450.818 893.284 589.968 896.05 729.017 896.05C802.578 896.05 876.104 898.176 949.486 898.176C966.39 898.176 982.637 900.302 999.555 900.302C1012.61 900.302 1028.86 897.568 1041 902.427" stroke="black" stroke-opacity="0.5" stroke-width="3" stroke-linecap="round"/>
<path d="M-9.03125 932.185C9.47939 932.185 27.8888 927.934 46.706 927.934C85.9874 927.934 125.277 928.164 164.557 927.934C243.846 927.47 323.142 925.733 402.267 921.675C427.638 920.374 452.876 915.477 478.198 915.181C517.464 914.721 556.591 917.306 595.813 917.306C633.758 917.306 671.704 917.306 709.649 917.306C752.606 917.306 795.426 919.432 838.365 919.432C854.476 919.432 870.23 919.823 886.072 917.779C896.753 916.4 909.955 916.112 920.79 917.779C933.97 919.806 947.03 919.432 960.349 919.432C973.623 919.432 986.447 922.425 999.554 923.565C1015.86 924.982 1033.26 925.809 1049.51 925.809" stroke="black" stroke-opacity="0.5" stroke-width="3" stroke-linecap="round"/>
<path d="M-15.4062 964.069C5.2634 964.069 26.2054 962.249 46.9439 961.825C84.227 961.065 120.229 963.088 157.356 963.951C218.353 965.37 278.868 968.32 339.919 968.32C404.826 968.32 469.515 970.446 534.409 970.446C557.785 970.446 580.982 968.32 604.317 968.32C620.933 968.32 637.141 969.293 653.323 965.132C729.273 945.602 808.333 952.751 885.837 951.316C902.781 951.002 919.474 947.065 936.851 947.065C948.373 947.065 959.449 944.939 970.86 944.939C995.661 944.939 1020.33 947.065 1045.26 947.065" stroke="black" stroke-opacity="0.5" stroke-width="3" stroke-linecap="round"/>
<path d="M-15.4062 991.701C-7.27449 991.701 0.612943 989.462 8.6836 988.631C37.6471 985.65 66.7356 988.685 95.7141 989.458C133.495 990.465 171.401 989.576 209.196 989.576C292.566 989.576 375.936 989.576 459.305 989.576C540.753 989.576 622.268 987.45 703.865 987.45C728.23 987.45 752.595 987.45 776.961 987.45C799.895 987.45 823.637 991.279 846.396 989.458C871.686 987.435 896.75 984.33 921.854 981.192C930.228 980.145 940.253 983.199 949.132 983.199C964.804 983.199 980.287 983.199 996.131 983.199C1004.52 983.199 1043.4 991.171 1047.38 983.199" stroke="black" stroke-opacity="0.5" stroke-width="3" stroke-linecap="round"/>
<path d="M-16.1484 1015.87C5.0243 1015.87 24.8814 1017.03 46.2085 1014.88C60.7034 1013.42 75.29 1014.88 89.7594 1013.1C103.045 1011.47 115.738 1010.52 129.153 1010.52C191.845 1010.52 254.422 1012.31 317.115 1012.31C340.832 1012.31 363.559 1006.45 386.895 1005.28C401.969 1004.53 417.137 1006.88 432.228 1006.96C454.872 1007.08 477.587 1007.38 500.227 1006.86C558.524 1005.54 616.733 1006.27 674.925 1010.92C702.193 1013.1 728.872 1017.65 756.286 1017.65C785.65 1017.65 815.014 1017.65 844.378 1017.65C864.382 1017.65 883.711 1021.21 903.567 1021.21C918.468 1021.21 932.94 1020.59 947.712 1019.53C963.166 1018.43 978.601 1021.21 994.034 1021.21C999.676 1021.21 1005.32 1021.21 1010.96 1021.21C1016.74 1021.21 1021.53 1024.78 1027.89 1024.78" stroke="black" stroke-opacity="0.5" stroke-width="3" stroke-linecap="round"/>
<path d="M-3.67578 -5.00276C20.5846 -5.00276 44.4341 -9.31821 68.975 -8.17009C107.832 -6.35223 146.663 -6.78438 185.573 -6.78438C258.634 -6.78438 332.361 -11.1591 405.307 -7.1803C436.903 -5.45688 468.163 1.83676 499.733 2.12375C518.902 2.29802 538.003 3.15015 557.141 4.3013C580.215 5.68919 602.563 8.78912 625.635 5.68701C654.461 1.8112 685.426 2.12375 714.518 2.12375C760.608 2.12375 805.683 -6.78438 851.703 -6.78438C875.181 -6.78438 898.453 -8.56601 922.078 -8.56601C961.009 -8.56601 999.924 -5.00276 1038.58 -5.00276" stroke="black" stroke-opacity="0.5" stroke-width="3" stroke-linecap="round"/>
</g>
<defs>
<clipPath id="clip0_33_59">
<rect width="1024" height="1024" fill="white"/>
</clipPath>
</defs>
</svg>
