<svg width="1024" height="1024" viewBox="0 0 1024 1024" fill="none" xmlns="http://www.w3.org/2000/svg">
<g clip-path="url(#clip0_42_412)">
<path d="M-20.6094 23.8552C16.2529 7.26717 57.7889 11.0759 97.1021 11.0759C156.124 11.0759 215.145 11.0759 274.166 11.0759C350.8 11.0759 427.874 7.80148 504.762 8.52005C630.161 9.69201 755.674 11.0759 881.183 11.0759C924.112 11.0759 967.041 11.0759 1009.97 11.0759C1027.29 11.0759 1044.62 11.0759 1061.94 11.0759C1068.8 11.0759 1075.24 12.3356 1080.97 8.52005" stroke="black" stroke-opacity="0.5" stroke-width="3" stroke-linecap="round"/>
<path d="M-25.7188 41.746C-4.95043 34.5223 22.8424 39.1902 44.4254 39.1902C81.154 39.1902 117.883 39.1902 154.611 39.1902C207.872 39.1902 261.002 41.746 314.211 41.746C381.854 41.746 449.34 44.3019 516.975 44.3019C583.033 44.3019 649.479 42.1621 715.48 44.8699C826.058 49.4064 937.039 46.8578 1047.74 46.8578" stroke="black" stroke-opacity="0.5" stroke-width="3" stroke-linecap="round"/>
<path d="M-20.6094 67.3047C237.101 67.3047 494.655 69.8606 752.396 69.8606C819.282 69.8606 888.604 73.7313 954.593 67.4467C981.61 64.8737 1009.57 67.3047 1037.52 67.3047" stroke="black" stroke-opacity="0.5" stroke-width="3" stroke-linecap="round"/>
<path d="M-15.4961 92.8633C115.92 92.8633 247.032 100.531 378.39 100.531C490.472 100.531 602.283 101.227 714.344 100.531C790.089 100.06 865.947 97.975 941.815 97.975C968.736 97.975 1007.68 90.7252 1032.41 103.087" stroke="black" stroke-opacity="0.5" stroke-width="3" stroke-linecap="round"/>
<path d="M-20.6094 128.645C-19.5782 130.364 -17.1855 127.721 -16.2076 127.083C-7.51624 121.415 2.13331 120.57 12.3328 119.842C54.269 116.846 96.6878 118.422 138.706 118.422C223.202 118.422 307.879 116.719 392.304 120.41C448.836 122.881 505.044 120.543 561.559 124.954C607.387 128.53 654.18 126.089 700.143 126.089C820.249 126.089 940.33 128.645 1060.52 128.645" stroke="black" stroke-opacity="0.5" stroke-width="3" stroke-linecap="round"/>
<path d="M-23.1641 143.98C29.9904 143.98 82.6924 144.061 135.867 145.968C189.42 147.89 243.02 151.648 296.602 151.648C423.07 151.648 549.538 151.648 676.005 151.648C723.271 151.648 770.541 150.641 817.714 153.636C857.217 156.144 896.506 159.316 936.135 159.316C976.745 159.316 1017.35 159.316 1057.96 159.316" stroke="black" stroke-opacity="0.5" stroke-width="3" stroke-linecap="round"/>
<path d="M-25.7188 189.986C-21.3843 185.652 -18.3569 182.317 -12.2295 181.041C16.0007 175.159 47.4689 177.207 76.0897 177.207C148.12 177.207 220.558 178.733 292.628 179.905C351.757 180.866 410.657 182.319 469.834 182.319C503.594 182.319 537.285 181.366 570.79 186.152C594.92 189.599 619.25 191.723 643.632 192.4C723.297 194.613 803.334 192.542 883.031 192.542C946.469 192.542 1010.07 195.098 1073.3 195.098" stroke="black" stroke-opacity="0.5" stroke-width="3" stroke-linecap="round"/>
<path d="M-23.1641 205.321C34.4428 211.722 95.0633 207.877 153.474 207.877C214.793 207.877 275.943 209.043 337.212 210.575C391.836 211.941 446.031 220.656 500.787 220.656C548.59 220.656 596.305 223.212 644.199 223.212C715.91 223.212 787.47 225.768 859.175 225.768C893.251 225.768 926.894 226.675 960.842 229.602C993.284 232.399 1023.59 228.324 1055.41 228.324" stroke="black" stroke-opacity="0.5" stroke-width="3" stroke-linecap="round"/>
<path d="M-30.832 256.438C-25.5197 253.169 -18.6371 253.927 -12.657 253.882C9.75044 253.714 32.3086 253.454 54.6473 255.444C95.9529 259.125 135.413 264.106 177.045 264.106C221.689 264.106 266.231 266.662 310.801 266.662C383.974 266.662 457.148 266.662 530.321 266.662C596.166 266.662 663.061 270.02 728.826 266.094C761.163 264.163 793.507 259.782 825.523 256.58C856.037 253.529 888.302 256.438 918.954 256.438C954.179 256.438 989.173 257.744 1024.17 258.994C1035.98 259.416 1049.97 256.277 1060.52 261.55" stroke="black" stroke-opacity="0.5" stroke-width="3" stroke-linecap="round"/>
<path d="M-15.4961 289.664C15.149 286.6 43.9282 283.686 75.2369 285.831C129.987 289.581 182.998 299.888 238.102 299.888C286.525 299.888 334.802 302.444 383.218 302.444C404.777 302.444 425.66 299.222 447.114 297.9C482.992 295.688 519.384 297.332 555.312 297.332C595.165 297.332 635.017 297.332 674.87 297.332C727.742 297.332 781.934 300.76 834.611 295.77C887.095 290.798 938.204 287.108 990.945 287.108C1005.74 287.108 1020.07 289.664 1034.96 289.664" stroke="black" stroke-opacity="0.5" stroke-width="3" stroke-linecap="round"/>
<path d="M-15.4961 312.667C95.8258 312.667 207.148 312.667 318.47 312.667C347.057 312.667 375.645 312.667 404.233 312.667C441.362 312.667 477.245 318.183 514.135 320.051C563.124 322.531 612.771 320.335 661.807 320.335C745.243 320.335 827.945 327.098 911.287 323.032C965.826 320.372 1021.25 322.89 1075.86 322.89" stroke="black" stroke-opacity="0.5" stroke-width="3" stroke-linecap="round"/>
<path d="M-5.27344 351.005C120.356 351.005 246.627 346.933 372.426 345.894C469.027 345.095 565.61 345.894 662.374 345.894C745.614 345.894 828.957 343.338 912.28 343.338C930.166 343.338 953.398 346.696 971.065 342.77C996.991 337.008 1032.5 336.972 1057.96 343.338" stroke="black" stroke-opacity="0.5" stroke-width="3" stroke-linecap="round"/>
<path d="M-33.3867 379.119C16.4932 385.354 70.8556 381.675 121.953 381.675C163.412 381.675 204.879 381.459 246.338 381.675C275.747 381.828 304.444 386.787 333.805 386.787C398.498 386.787 463.039 389.343 527.766 389.343C549.754 389.343 570.889 383.642 592.799 382.243C622.086 380.374 651.778 381.675 681.118 381.675C728.975 381.675 776.848 384.231 824.814 384.231C855.438 384.231 888.496 384.264 918.813 379.687C959.473 373.55 1003.89 379.119 1045.19 379.119" stroke="black" stroke-opacity="0.5" stroke-width="3" stroke-linecap="round"/>
<path d="M-10.3867 422.569C31.5837 422.569 72.7276 411.586 114.992 416.18C146.28 419.58 178.585 417.458 209.985 417.458C252.383 417.458 293.498 416.379 335.648 412.488C395.853 406.93 458.197 407.234 518.676 407.234C558.05 407.234 597.443 406.844 636.814 407.234C773.014 408.583 908.786 404.678 1045.18 404.678" stroke="black" stroke-opacity="0.5" stroke-width="3" stroke-linecap="round"/>
<path d="M-20.6094 443.016C99.1803 436.711 220.229 440.46 340.335 440.46C419.715 440.46 498.626 443.481 577.888 445.714C614.867 446.756 649.935 447.817 686.37 441.596C716.855 436.391 747.306 438.681 778.097 437.762C801.714 437.057 824.696 432.793 848.383 432.793C880.677 432.793 912.28 432.512 944.37 436.626C978.911 441.055 1012.86 440.46 1047.74 440.46" stroke="black" stroke-opacity="0.5" stroke-width="3" stroke-linecap="round"/>
<path d="M-7.82812 476.242C11.3683 467.209 43.2113 473.687 63.452 473.687C117.078 473.687 170.703 473.687 224.329 473.687C288.652 473.687 352.974 473.687 417.296 473.687C535.103 473.687 652.71 476.242 770.573 476.242C832.718 476.242 894.864 476.242 957.009 476.242C975.981 476.242 994.98 475.921 1013.95 476.242C1027.25 476.468 1039.47 481.354 1052.85 481.354" stroke="black" stroke-opacity="0.5" stroke-width="3" stroke-linecap="round"/>
<path d="M-2.71875 514.58C4.89989 513.733 12.1356 510.122 20.142 509.468C66.6984 505.668 113.421 508.369 160.004 510.746C245.016 515.084 331.329 514.186 416.442 514.58C476.17 514.856 535.908 514.58 595.636 514.58C641.182 514.58 685.827 515.435 730.813 510.036C750.395 507.686 771.022 509.468 790.734 509.468C815.705 509.468 842.475 506.496 867.125 510.746C894.679 515.497 925.227 512.024 953.173 512.024C975.151 512.024 998 510.101 1019.77 513.302C1031.72 515.06 1052.11 514.949 1063.07 509.468" stroke="black" stroke-opacity="0.5" stroke-width="3" stroke-linecap="round"/>
<path d="M-25.7188 542.695C-1.41154 542.695 22.984 542.049 47.2652 543.263C76.1397 544.706 104.474 552.041 133.454 549.084C175.092 544.836 220.64 545.919 261.957 550.362C332.903 557.991 405.707 552.918 476.934 552.918C560.52 552.918 644.106 552.918 727.692 552.918C764.388 552.918 801.756 546.831 838.304 551.64C867.139 555.434 905.337 557.346 933.864 551.64C976.309 543.151 1022.64 547.806 1065.63 547.806" stroke="black" stroke-opacity="0.5" stroke-width="3" stroke-linecap="round"/>
<path d="M-15.4961 591.256C5.27124 574.264 49.5785 580.898 73.817 579.755C104.264 578.318 138.314 575.24 168.526 581.6C190.108 586.144 215.261 578.477 237.534 578.477C266.929 578.477 296.474 577.655 325.853 578.619C362.778 579.829 398.858 578.767 435.755 578.477C464.852 578.248 495.562 587.1 524.074 584.724C566.843 581.16 612.085 589.927 654.139 580.465C672.596 576.312 692.653 578.477 711.504 578.477C734.08 578.477 754.651 573.708 777.672 575.353C814.992 578.019 853.006 578.477 890.414 578.477C916.269 578.477 941.305 577.719 966.522 575.779C989.291 574.027 1012.45 570.809 1034.96 570.809" stroke="black" stroke-opacity="0.5" stroke-width="3" stroke-linecap="round"/>
<path d="M-10.3867 624.482C32.9151 624.482 76.2108 627.038 119.394 627.038C142.965 627.038 166.536 627.038 190.106 627.038C221.7 627.038 255.886 630.746 287.229 625.902C324.386 620.16 358.427 621.926 395.853 621.926C441.235 621.926 486.809 618.631 532.165 620.791C568.231 622.508 604.296 616.815 640.505 616.815C657.848 616.815 676.086 612.257 693.043 616.247C710.904 620.45 732.725 616.815 750.833 616.815C773.212 616.815 794.198 618.604 816.434 616.957C834.765 615.599 851.996 609.338 870.533 609.147C888.524 608.962 906.737 606.591 924.49 606.591C948.631 606.591 973.323 609.147 997.758 609.147C1009.71 609.147 1032.75 605.115 1042.63 611.703" stroke="black" stroke-opacity="0.5" stroke-width="3" stroke-linecap="round"/>
<path d="M-12.9414 657.708C1.09713 651.797 20.5722 655.152 35.6199 655.152C65.8169 655.152 96.0139 655.152 126.211 655.152C199.311 655.152 273.482 664.567 346.299 660.406C414.29 656.521 483.828 660.264 551.904 660.264C572.43 660.264 593.009 660.7 613.528 660.122C625.289 659.791 636.066 655.362 647.606 655.152C666.4 654.811 684.874 652.596 703.693 652.596C781.524 652.596 857.816 660.399 935.85 657.708C947.842 657.295 959.06 650.041 971.064 650.041C980.247 650.041 989.429 650.041 998.611 650.041C1014.99 650.041 1031.36 650.041 1047.74 650.041" stroke="black" stroke-opacity="0.5" stroke-width="3" stroke-linecap="round"/>
<path d="M-12.9414 693.491C24.2987 693.491 60.7109 683.267 98.0965 683.267C155.84 683.267 213.583 683.267 271.327 683.267C411.71 683.267 552.093 683.267 692.476 683.267C803.648 683.267 913.779 685.823 1024.74 685.823" stroke="black" stroke-opacity="0.5" stroke-width="3" stroke-linecap="round"/>
<path d="M-23.1641 726.717C-6.7266 722.849 10.3075 724.161 27.1012 724.161C63.0725 724.161 99.0439 724.161 135.015 724.161C211.355 724.161 287.787 731.828 364.191 731.828C424.253 731.828 484.316 731.828 544.379 731.828C583.904 731.828 622.628 724.161 662.09 724.161C736.634 724.161 813.421 729.148 887.29 719.617C912.652 716.345 939.791 716.493 965.386 716.493C985.381 716.493 1005.11 721.605 1024.74 721.605" stroke="black" stroke-opacity="0.5" stroke-width="3" stroke-linecap="round"/>
<path d="M-15.4961 757.387C8.84553 757.387 33.1104 754.939 57.4879 754.831C88.763 754.692 119.712 757.387 150.919 757.387C189.167 757.387 227.431 761.228 265.648 759.375C301.279 757.647 336.758 757.387 372.427 757.387C435.121 757.387 497.647 760.54 560.424 759.943C622.271 759.354 684.192 757.387 746.15 757.387C844.203 757.387 942.036 759.943 1040.07 759.943" stroke="black" stroke-opacity="0.5" stroke-width="3" stroke-linecap="round"/>
<path d="M-20.6094 793.169C1.58018 792.16 23.1867 788.057 45.559 788.057C70.3603 788.057 95.1616 788.057 119.963 788.057C189.018 788.057 258.074 788.057 327.129 788.057C448.959 788.057 570.788 788.057 692.617 788.057C728.778 788.057 764.939 788.057 801.099 788.057C839.2 788.057 879.14 792.127 916.823 787.489C960.266 782.142 1003.59 782.945 1047.74 782.945" stroke="black" stroke-opacity="0.5" stroke-width="3" stroke-linecap="round"/>
<path d="M-12.9414 823.839C44.5386 823.839 100.573 821.873 158.301 825.827C227.035 830.535 296.849 824.153 365.326 831.507C415.424 836.886 465.559 831.507 515.838 831.507C565.284 831.507 614.524 828.951 663.793 828.951C749.479 828.951 835.124 819.335 921.083 823.981C951.44 825.622 981.433 826.395 1011.82 826.395C1030.06 826.395 1047.4 831.507 1065.63 831.507" stroke="black" stroke-opacity="0.5" stroke-width="3" stroke-linecap="round"/>
<path d="M-33.3867 862.177C19.4143 840.805 78.1754 849.398 134.448 849.398C205.539 849.398 276.63 849.398 347.72 849.398C454.742 849.398 561.849 851.954 668.765 851.954C711.236 851.954 752.899 853.648 795.28 856.497C833.819 859.088 872.032 851.954 910.151 851.954C957.861 851.954 1004.09 854.51 1050.3 854.51" stroke="black" stroke-opacity="0.5" stroke-width="3" stroke-linecap="round"/>
<path d="M-23.1641 890.292C-2.90457 890.292 17.5352 884.276 37.8926 883.192C84.6501 880.702 131.923 882.624 178.749 882.624C278.874 882.624 380.034 878.593 480.056 883.192C550.78 886.444 621.664 885.18 692.477 885.18C713.395 885.18 734.115 887.736 754.953 887.736C773.017 887.736 792.743 885.325 810.614 888.304C854.157 895.561 903.989 890.292 948.062 890.292C977.832 890.292 1008.32 887.736 1037.52 887.736" stroke="black" stroke-opacity="0.5" stroke-width="3" stroke-linecap="round"/>
<path d="M-10.3867 923.518C7.53735 923.518 24.9668 918.406 43.1443 918.406C71.9688 918.406 100.793 918.406 129.618 918.406C186.036 918.406 242.454 918.406 298.872 918.406C402.822 918.406 508.126 913.032 612.107 918.974C705.118 924.289 797.967 927.035 891.264 926.073C940.269 925.568 988.725 918.406 1037.52 918.406" stroke="black" stroke-opacity="0.5" stroke-width="3" stroke-linecap="round"/>
<path d="M-18.0547 956.744C-2.07661 944.76 28.5903 946.52 47.5457 946.52C90.2962 946.52 132.976 943.964 175.765 943.964C252.321 943.964 328.888 946.52 405.366 946.52C480.204 946.52 555.947 943.55 630.708 947.798C658.956 949.403 687.193 949.076 715.477 949.076C729.612 949.076 745.449 947.201 759.495 949.644C818.623 959.927 882.643 949.076 942.38 949.076C972.091 949.076 1000.59 946.52 1029.85 946.52" stroke="black" stroke-opacity="0.5" stroke-width="3" stroke-linecap="round"/>
<path d="M-20.6094 987.414C7.31774 978.438 36.3437 977.776 65.4379 976.623C111.789 974.785 158.073 974.635 204.448 974.635C286.946 974.635 369.443 974.635 451.941 974.635C518.999 974.635 585.571 969.523 652.576 969.523C705.258 969.523 757.714 972.079 810.329 972.079C830.48 972.079 855.021 975.659 874.509 970.091C897.824 963.43 928.995 974.635 953.173 974.635C986.399 974.635 1019.63 974.635 1052.85 974.635" stroke="black" stroke-opacity="0.5" stroke-width="3" stroke-linecap="round"/>
<path d="M-12.9414 1018.08C16.0871 1018.08 45.1074 1015.36 74.2418 1015.53C88.4447 1015.61 103.003 1018.58 117.123 1017.52C141.299 1015.7 165.479 1014.42 189.681 1016.95C253.552 1023.62 318.453 1015.53 382.649 1015.53C428.749 1015.53 474.849 1015.53 520.949 1015.53C563.071 1015.53 604.951 1016.72 647.038 1017.94C683.18 1018.99 719.324 1015.53 755.52 1015.53C828.257 1015.53 900.817 1018.08 973.62 1018.08C1001.49 1018.08 1025.71 1025.75 1052.85 1025.75" stroke="black" stroke-opacity="0.5" stroke-width="3" stroke-linecap="round"/>
</g>
<defs>
<clipPath id="clip0_42_412">
<rect width="1024" height="1024" fill="white"/>
</clipPath>
</defs>
</svg>
