<svg width="1024" height="1024" viewBox="0 0 1024 1024" fill="none" xmlns="http://www.w3.org/2000/svg">
<g clip-path="url(#clip0_42_682)">
<path d="M257.534 193V182.091H259.21V193H257.534ZM258.386 180.273C258.06 180.273 257.778 180.161 257.541 179.939C257.309 179.716 257.193 179.449 257.193 179.136C257.193 178.824 257.309 178.556 257.541 178.334C257.778 178.111 258.06 178 258.386 178C258.713 178 258.992 178.111 259.224 178.334C259.461 178.556 259.58 178.824 259.58 179.136C259.58 179.449 259.461 179.716 259.224 179.939C258.992 180.161 258.713 180.273 258.386 180.273ZM272.309 197.318C271.499 197.318 270.803 197.214 270.221 197.006C269.638 196.802 269.153 196.532 268.765 196.196C268.381 195.865 268.076 195.509 267.848 195.131L269.184 194.193C269.335 194.392 269.527 194.619 269.759 194.875C269.991 195.135 270.308 195.36 270.711 195.55C271.118 195.744 271.65 195.841 272.309 195.841C273.189 195.841 273.916 195.628 274.489 195.202C275.062 194.776 275.348 194.108 275.348 193.199V190.983H275.206C275.083 191.182 274.908 191.428 274.681 191.722C274.458 192.01 274.136 192.268 273.715 192.496C273.298 192.718 272.735 192.83 272.025 192.83C271.144 192.83 270.353 192.621 269.652 192.205C268.956 191.788 268.405 191.182 267.998 190.386C267.595 189.591 267.394 188.625 267.394 187.489C267.394 186.371 267.59 185.398 267.983 184.57C268.376 183.736 268.923 183.092 269.624 182.638C270.325 182.179 271.134 181.949 272.053 181.949C272.763 181.949 273.327 182.067 273.743 182.304C274.165 182.536 274.487 182.801 274.709 183.099C274.936 183.393 275.112 183.634 275.235 183.824H275.405V182.091H277.025V193.312C277.025 194.25 276.811 195.012 276.385 195.599C275.964 196.191 275.396 196.625 274.681 196.899C273.971 197.179 273.18 197.318 272.309 197.318ZM272.252 191.324C272.924 191.324 273.492 191.17 273.956 190.862C274.42 190.554 274.773 190.112 275.015 189.534C275.256 188.956 275.377 188.265 275.377 187.46C275.377 186.674 275.258 185.981 275.022 185.379C274.785 184.778 274.435 184.307 273.971 183.966C273.507 183.625 272.934 183.455 272.252 183.455C271.542 183.455 270.95 183.634 270.476 183.994C270.007 184.354 269.655 184.837 269.418 185.443C269.186 186.049 269.07 186.722 269.07 187.46C269.07 188.218 269.188 188.888 269.425 189.47C269.667 190.048 270.022 190.502 270.49 190.834C270.964 191.161 271.551 191.324 272.252 191.324ZM284.525 193.227C283.54 193.227 282.676 192.993 281.932 192.524C281.194 192.055 280.616 191.4 280.199 190.557C279.787 189.714 279.581 188.729 279.581 187.602C279.581 186.466 279.787 185.474 280.199 184.626C280.616 183.779 281.194 183.121 281.932 182.652C282.676 182.183 283.54 181.949 284.525 181.949C285.509 181.949 286.371 182.183 287.11 182.652C287.853 183.121 288.431 183.779 288.843 184.626C289.259 185.474 289.468 186.466 289.468 187.602C289.468 188.729 289.259 189.714 288.843 190.557C288.431 191.4 287.853 192.055 287.11 192.524C286.371 192.993 285.509 193.227 284.525 193.227ZM284.525 191.722C285.273 191.722 285.888 191.53 286.371 191.146C286.854 190.763 287.212 190.259 287.444 189.634C287.676 189.009 287.792 188.331 287.792 187.602C287.792 186.873 287.676 186.194 287.444 185.564C287.212 184.934 286.854 184.425 286.371 184.037C285.888 183.649 285.273 183.455 284.525 183.455C283.776 183.455 283.161 183.649 282.678 184.037C282.195 184.425 281.837 184.934 281.605 185.564C281.373 186.194 281.257 186.873 281.257 187.602C281.257 188.331 281.373 189.009 281.605 189.634C281.837 190.259 282.195 190.763 282.678 191.146C283.161 191.53 283.776 191.722 284.525 191.722ZM296.771 182.091V183.511H291.117V182.091H296.771ZM292.765 179.477H294.441V189.875C294.441 190.348 294.51 190.704 294.647 190.94C294.789 191.172 294.969 191.329 295.187 191.409C295.409 191.485 295.644 191.523 295.89 191.523C296.075 191.523 296.226 191.513 296.344 191.494C296.463 191.471 296.558 191.452 296.629 191.438L296.969 192.943C296.856 192.986 296.697 193.028 296.494 193.071C296.29 193.118 296.032 193.142 295.719 193.142C295.246 193.142 294.782 193.04 294.327 192.837C293.878 192.633 293.504 192.323 293.205 191.906C292.912 191.49 292.765 190.964 292.765 190.33V179.477ZM304.036 182.091V183.511H298.383V182.091H304.036ZM300.031 179.477H301.707V189.875C301.707 190.348 301.775 190.704 301.913 190.94C302.055 191.172 302.235 191.329 302.452 191.409C302.675 191.485 302.909 191.523 303.156 191.523C303.34 191.523 303.492 191.513 303.61 191.494C303.728 191.471 303.823 191.452 303.894 191.438L304.235 192.943C304.121 192.986 303.963 193.028 303.759 193.071C303.556 193.118 303.298 193.142 302.985 193.142C302.512 193.142 302.048 193.04 301.593 192.837C301.143 192.633 300.769 192.323 300.471 191.906C300.177 191.49 300.031 190.964 300.031 190.33V179.477ZM309.768 193.256C309.076 193.256 308.449 193.125 307.886 192.865C307.322 192.6 306.875 192.219 306.543 191.722C306.212 191.22 306.046 190.614 306.046 189.903C306.046 189.278 306.169 188.772 306.415 188.384C306.662 187.991 306.991 187.683 307.403 187.46C307.815 187.238 308.269 187.072 308.766 186.963C309.268 186.849 309.772 186.759 310.279 186.693C310.942 186.608 311.479 186.544 311.891 186.501C312.308 186.454 312.611 186.376 312.8 186.267C312.995 186.158 313.092 185.969 313.092 185.699V185.642C313.092 184.941 312.9 184.397 312.516 184.009C312.138 183.62 311.562 183.426 310.79 183.426C309.99 183.426 309.363 183.601 308.908 183.952C308.454 184.302 308.134 184.676 307.95 185.074L306.359 184.506C306.643 183.843 307.022 183.327 307.495 182.957C307.973 182.583 308.494 182.323 309.058 182.176C309.626 182.025 310.184 181.949 310.734 181.949C311.084 181.949 311.487 181.991 311.941 182.077C312.4 182.157 312.843 182.325 313.269 182.581C313.7 182.837 314.058 183.223 314.342 183.739C314.626 184.255 314.768 184.946 314.768 185.812V193H313.092V191.523H313.006C312.893 191.759 312.703 192.013 312.438 192.283C312.173 192.553 311.82 192.782 311.38 192.972C310.94 193.161 310.402 193.256 309.768 193.256ZM310.023 191.75C310.686 191.75 311.245 191.62 311.7 191.359C312.159 191.099 312.504 190.763 312.737 190.351C312.973 189.939 313.092 189.506 313.092 189.051V187.517C313.021 187.602 312.864 187.68 312.623 187.751C312.386 187.818 312.112 187.877 311.799 187.929C311.491 187.976 311.191 188.019 310.897 188.057C310.608 188.09 310.374 188.118 310.194 188.142C309.758 188.199 309.351 188.291 308.972 188.419C308.598 188.542 308.295 188.729 308.063 188.98C307.836 189.226 307.722 189.562 307.722 189.989C307.722 190.571 307.938 191.011 308.369 191.31C308.804 191.603 309.356 191.75 310.023 191.75ZM327.855 197.318C327.046 197.318 326.35 197.214 325.767 197.006C325.185 196.802 324.7 196.532 324.311 196.196C323.928 195.865 323.623 195.509 323.395 195.131L324.73 194.193C324.882 194.392 325.074 194.619 325.306 194.875C325.538 195.135 325.855 195.36 326.257 195.55C326.665 195.744 327.197 195.841 327.855 195.841C328.736 195.841 329.463 195.628 330.036 195.202C330.609 194.776 330.895 194.108 330.895 193.199V190.983H330.753C330.63 191.182 330.455 191.428 330.228 191.722C330.005 192.01 329.683 192.268 329.262 192.496C328.845 192.718 328.282 192.83 327.571 192.83C326.691 192.83 325.9 192.621 325.199 192.205C324.503 191.788 323.952 191.182 323.544 190.386C323.142 189.591 322.941 188.625 322.941 187.489C322.941 186.371 323.137 185.398 323.53 184.57C323.923 183.736 324.47 183.092 325.171 182.638C325.872 182.179 326.681 181.949 327.6 181.949C328.31 181.949 328.873 182.067 329.29 182.304C329.712 182.536 330.033 182.801 330.256 183.099C330.483 183.393 330.658 183.634 330.782 183.824H330.952V182.091H332.571V193.312C332.571 194.25 332.358 195.012 331.932 195.599C331.511 196.191 330.943 196.625 330.228 196.899C329.517 197.179 328.727 197.318 327.855 197.318ZM327.799 191.324C328.471 191.324 329.039 191.17 329.503 190.862C329.967 190.554 330.32 190.112 330.561 189.534C330.803 188.956 330.924 188.265 330.924 187.46C330.924 186.674 330.805 185.981 330.569 185.379C330.332 184.778 329.981 184.307 329.517 183.966C329.053 183.625 328.48 183.455 327.799 183.455C327.088 183.455 326.497 183.634 326.023 183.994C325.554 184.354 325.202 184.837 324.965 185.443C324.733 186.049 324.617 186.722 324.617 187.46C324.617 188.218 324.735 188.888 324.972 189.47C325.213 190.048 325.569 190.502 326.037 190.834C326.511 191.161 327.098 191.324 327.799 191.324ZM340.071 193.227C339.087 193.227 338.222 192.993 337.479 192.524C336.74 192.055 336.163 191.4 335.746 190.557C335.334 189.714 335.128 188.729 335.128 187.602C335.128 186.466 335.334 185.474 335.746 184.626C336.163 183.779 336.74 183.121 337.479 182.652C338.222 182.183 339.087 181.949 340.071 181.949C341.056 181.949 341.918 182.183 342.657 182.652C343.4 183.121 343.978 183.779 344.39 184.626C344.806 185.474 345.015 186.466 345.015 187.602C345.015 188.729 344.806 189.714 344.39 190.557C343.978 191.4 343.4 192.055 342.657 192.524C341.918 192.993 341.056 193.227 340.071 193.227ZM340.071 191.722C340.819 191.722 341.435 191.53 341.918 191.146C342.401 190.763 342.758 190.259 342.99 189.634C343.222 189.009 343.338 188.331 343.338 187.602C343.338 186.873 343.222 186.194 342.99 185.564C342.758 184.934 342.401 184.425 341.918 184.037C341.435 183.649 340.819 183.455 340.071 183.455C339.323 183.455 338.708 183.649 338.225 184.037C337.742 184.425 337.384 184.934 337.152 185.564C336.92 186.194 336.804 186.873 336.804 187.602C336.804 188.331 336.92 189.009 337.152 189.634C337.384 190.259 337.742 190.763 338.225 191.146C338.708 191.53 339.323 191.722 340.071 191.722ZM354.874 186.438V193H353.198V178.455H354.874V183.795H355.016C355.272 183.232 355.656 182.785 356.167 182.453C356.683 182.117 357.37 181.949 358.227 181.949C358.97 181.949 359.621 182.098 360.18 182.396C360.738 182.69 361.172 183.142 361.479 183.753C361.792 184.359 361.948 185.131 361.948 186.068V193H360.272V186.182C360.272 185.315 360.047 184.645 359.597 184.172C359.152 183.694 358.534 183.455 357.744 183.455C357.194 183.455 356.702 183.571 356.266 183.803C355.835 184.035 355.495 184.373 355.244 184.818C354.997 185.263 354.874 185.803 354.874 186.438ZM369.446 193.227C368.462 193.227 367.597 192.993 366.854 192.524C366.115 192.055 365.538 191.4 365.121 190.557C364.709 189.714 364.503 188.729 364.503 187.602C364.503 186.466 364.709 185.474 365.121 184.626C365.538 183.779 366.115 183.121 366.854 182.652C367.597 182.183 368.462 181.949 369.446 181.949C370.431 181.949 371.293 182.183 372.032 182.652C372.775 183.121 373.353 183.779 373.765 184.626C374.181 185.474 374.39 186.466 374.39 187.602C374.39 188.729 374.181 189.714 373.765 190.557C373.353 191.4 372.775 192.055 372.032 192.524C371.293 192.993 370.431 193.227 369.446 193.227ZM369.446 191.722C370.194 191.722 370.81 191.53 371.293 191.146C371.776 190.763 372.133 190.259 372.365 189.634C372.597 189.009 372.713 188.331 372.713 187.602C372.713 186.873 372.597 186.194 372.365 185.564C372.133 184.934 371.776 184.425 371.293 184.037C370.81 183.649 370.194 183.455 369.446 183.455C368.698 183.455 368.083 183.649 367.6 184.037C367.117 184.425 366.759 184.934 366.527 185.564C366.295 186.194 366.179 186.873 366.179 187.602C366.179 188.331 366.295 189.009 366.527 189.634C366.759 190.259 367.117 190.763 367.6 191.146C368.083 191.53 368.698 191.722 369.446 191.722ZM376.948 193V182.091H378.567V183.795H378.71C378.937 183.213 379.304 182.761 379.81 182.439C380.317 182.112 380.925 181.949 381.636 181.949C382.355 181.949 382.954 182.112 383.433 182.439C383.915 182.761 384.292 183.213 384.562 183.795H384.675C384.955 183.232 385.374 182.785 385.933 182.453C386.491 182.117 387.161 181.949 387.942 181.949C388.918 181.949 389.716 182.254 390.336 182.865C390.956 183.471 391.266 184.416 391.266 185.699V193H389.59V185.699C389.59 184.894 389.37 184.319 388.93 183.973C388.489 183.627 387.971 183.455 387.374 183.455C386.607 183.455 386.013 183.687 385.592 184.151C385.17 184.61 384.96 185.192 384.96 185.898V193H383.255V185.528C383.255 184.908 383.054 184.409 382.651 184.03C382.249 183.646 381.73 183.455 381.096 183.455C380.66 183.455 380.253 183.571 379.874 183.803C379.5 184.035 379.197 184.357 378.965 184.768C378.738 185.176 378.624 185.647 378.624 186.182V193H376.948ZM398.905 193.227C397.854 193.227 396.947 192.995 396.185 192.531C395.427 192.062 394.842 191.409 394.43 190.571C394.023 189.728 393.82 188.748 393.82 187.631C393.82 186.513 394.023 185.528 394.43 184.676C394.842 183.819 395.415 183.152 396.149 182.673C396.888 182.19 397.75 181.949 398.734 181.949C399.303 181.949 399.864 182.044 400.418 182.233C400.972 182.422 401.476 182.73 401.93 183.156C402.385 183.578 402.747 184.136 403.017 184.832C403.287 185.528 403.422 186.385 403.422 187.403V188.114H395.013V186.665H401.717C401.717 186.049 401.594 185.5 401.348 185.017C401.107 184.534 400.761 184.153 400.311 183.874C399.866 183.594 399.34 183.455 398.734 183.455C398.067 183.455 397.489 183.62 397.001 183.952C396.518 184.278 396.147 184.705 395.886 185.23C395.626 185.756 395.496 186.319 395.496 186.92V187.886C395.496 188.71 395.638 189.409 395.922 189.982C396.211 190.55 396.611 190.983 397.122 191.281C397.634 191.575 398.228 191.722 398.905 191.722C399.345 191.722 399.743 191.66 400.098 191.537C400.458 191.409 400.768 191.22 401.028 190.969C401.289 190.713 401.49 190.396 401.632 190.017L403.251 190.472C403.081 191.021 402.795 191.504 402.392 191.92C401.99 192.332 401.492 192.654 400.901 192.886C400.309 193.114 399.643 193.227 398.905 193.227Z" fill="black"/>
<path d="M133.21 287.438V294H131.534V279.455H133.21V284.795H133.352C133.608 284.232 133.991 283.785 134.503 283.453C135.019 283.117 135.705 282.949 136.562 282.949C137.306 282.949 137.957 283.098 138.516 283.396C139.074 283.69 139.508 284.142 139.815 284.753C140.128 285.359 140.284 286.131 140.284 287.068V294H138.608V287.182C138.608 286.315 138.383 285.645 137.933 285.172C137.488 284.694 136.87 284.455 136.08 284.455C135.53 284.455 135.038 284.571 134.602 284.803C134.171 285.035 133.83 285.373 133.58 285.818C133.333 286.263 133.21 286.803 133.21 287.438ZM147.924 294.227C146.873 294.227 145.967 293.995 145.204 293.531C144.447 293.062 143.862 292.409 143.45 291.571C143.043 290.728 142.839 289.748 142.839 288.631C142.839 287.513 143.043 286.528 143.45 285.676C143.862 284.819 144.435 284.152 145.169 283.673C145.907 283.19 146.769 282.949 147.754 282.949C148.322 282.949 148.883 283.044 149.437 283.233C149.991 283.422 150.495 283.73 150.95 284.156C151.404 284.578 151.767 285.136 152.037 285.832C152.306 286.528 152.441 287.385 152.441 288.403V289.114H144.032V287.665H150.737C150.737 287.049 150.614 286.5 150.368 286.017C150.126 285.534 149.78 285.153 149.331 284.874C148.886 284.594 148.36 284.455 147.754 284.455C147.086 284.455 146.509 284.62 146.021 284.952C145.538 285.278 145.166 285.705 144.906 286.23C144.645 286.756 144.515 287.319 144.515 287.92V288.886C144.515 289.71 144.657 290.409 144.941 290.982C145.23 291.55 145.63 291.983 146.142 292.281C146.653 292.575 147.247 292.722 147.924 292.722C148.365 292.722 148.762 292.66 149.118 292.537C149.477 292.409 149.788 292.22 150.048 291.969C150.308 291.713 150.51 291.396 150.652 291.017L152.271 291.472C152.1 292.021 151.814 292.504 151.412 292.92C151.009 293.332 150.512 293.654 149.92 293.886C149.328 294.114 148.663 294.227 147.924 294.227ZM155.739 298.091C155.455 298.091 155.201 298.067 154.979 298.02C154.756 297.977 154.602 297.935 154.517 297.892L154.943 296.415C155.35 296.519 155.71 296.557 156.023 296.528C156.335 296.5 156.612 296.36 156.854 296.109C157.1 295.863 157.325 295.463 157.528 294.909L157.841 294.057L153.807 283.091H155.625L158.636 291.784H158.75L161.761 283.091H163.58L158.949 295.591C158.741 296.154 158.482 296.621 158.175 296.99C157.867 297.364 157.509 297.641 157.102 297.821C156.7 298.001 156.245 298.091 155.739 298.091ZM175.849 294.227C174.826 294.227 173.945 293.986 173.207 293.503C172.468 293.02 171.9 292.355 171.502 291.507C171.104 290.66 170.906 289.691 170.906 288.602C170.906 287.494 171.109 286.517 171.516 285.669C171.928 284.817 172.501 284.152 173.235 283.673C173.974 283.19 174.835 282.949 175.82 282.949C176.587 282.949 177.279 283.091 177.894 283.375C178.51 283.659 179.014 284.057 179.407 284.568C179.8 285.08 180.044 285.676 180.138 286.358H178.462C178.335 285.861 178.05 285.42 177.61 285.037C177.174 284.649 176.587 284.455 175.849 284.455C175.195 284.455 174.622 284.625 174.13 284.966C173.642 285.302 173.261 285.778 172.987 286.393C172.717 287.004 172.582 287.722 172.582 288.545C172.582 289.388 172.714 290.122 172.979 290.747C173.249 291.372 173.628 291.857 174.116 292.203C174.608 292.549 175.186 292.722 175.849 292.722C176.284 292.722 176.68 292.646 177.035 292.494C177.39 292.343 177.691 292.125 177.937 291.841C178.183 291.557 178.358 291.216 178.462 290.818H180.138C180.044 291.462 179.809 292.042 179.435 292.558C179.066 293.07 178.576 293.477 177.965 293.78C177.359 294.078 176.654 294.227 175.849 294.227ZM187.021 294.227C186.036 294.227 185.172 293.993 184.428 293.524C183.69 293.055 183.112 292.4 182.695 291.557C182.283 290.714 182.077 289.729 182.077 288.602C182.077 287.466 182.283 286.474 182.695 285.626C183.112 284.779 183.69 284.121 184.428 283.652C185.172 283.183 186.036 282.949 187.021 282.949C188.005 282.949 188.867 283.183 189.606 283.652C190.349 284.121 190.927 284.779 191.339 285.626C191.755 286.474 191.964 287.466 191.964 288.602C191.964 289.729 191.755 290.714 191.339 291.557C190.927 292.4 190.349 293.055 189.606 293.524C188.867 293.993 188.005 294.227 187.021 294.227ZM187.021 292.722C187.769 292.722 188.384 292.53 188.867 292.146C189.35 291.763 189.708 291.259 189.94 290.634C190.172 290.009 190.288 289.331 190.288 288.602C190.288 287.873 190.172 287.194 189.94 286.564C189.708 285.934 189.35 285.425 188.867 285.037C188.384 284.649 187.769 284.455 187.021 284.455C186.272 284.455 185.657 284.649 185.174 285.037C184.691 285.425 184.334 285.934 184.102 286.564C183.87 287.194 183.754 287.873 183.754 288.602C183.754 289.331 183.87 290.009 184.102 290.634C184.334 291.259 184.691 291.763 185.174 292.146C185.657 292.53 186.272 292.722 187.021 292.722ZM194.522 294V283.091H196.142V284.795H196.284C196.511 284.213 196.878 283.761 197.385 283.439C197.891 283.112 198.5 282.949 199.21 282.949C199.93 282.949 200.529 283.112 201.007 283.439C201.49 283.761 201.866 284.213 202.136 284.795H202.25C202.529 284.232 202.948 283.785 203.507 283.453C204.065 283.117 204.735 282.949 205.517 282.949C206.492 282.949 207.29 283.254 207.91 283.865C208.53 284.471 208.841 285.416 208.841 286.699V294H207.164V286.699C207.164 285.894 206.944 285.319 206.504 284.973C206.064 284.627 205.545 284.455 204.949 284.455C204.181 284.455 203.587 284.687 203.166 285.151C202.744 285.61 202.534 286.192 202.534 286.898V294H200.829V286.528C200.829 285.908 200.628 285.409 200.225 285.03C199.823 284.646 199.305 284.455 198.67 284.455C198.234 284.455 197.827 284.571 197.449 284.803C197.074 285.035 196.771 285.357 196.539 285.768C196.312 286.176 196.199 286.647 196.199 287.182V294H194.522ZM216.479 294.227C215.428 294.227 214.521 293.995 213.759 293.531C213.001 293.062 212.417 292.409 212.005 291.571C211.597 290.728 211.394 289.748 211.394 288.631C211.394 287.513 211.597 286.528 212.005 285.676C212.417 284.819 212.989 284.152 213.723 283.673C214.462 283.19 215.324 282.949 216.309 282.949C216.877 282.949 217.438 283.044 217.992 283.233C218.546 283.422 219.05 283.73 219.505 284.156C219.959 284.578 220.321 285.136 220.591 285.832C220.861 286.528 220.996 287.385 220.996 288.403V289.114H212.587V287.665H219.292C219.292 287.049 219.168 286.5 218.922 286.017C218.681 285.534 218.335 285.153 217.885 284.874C217.44 284.594 216.915 284.455 216.309 284.455C215.641 284.455 215.063 284.62 214.576 284.952C214.093 285.278 213.721 285.705 213.461 286.23C213.2 286.756 213.07 287.319 213.07 287.92V288.886C213.07 289.71 213.212 290.409 213.496 290.982C213.785 291.55 214.185 291.983 214.696 292.281C215.208 292.575 215.802 292.722 216.479 292.722C216.919 292.722 217.317 292.66 217.672 292.537C218.032 292.409 218.342 292.22 218.603 291.969C218.863 291.713 219.064 291.396 219.206 291.017L220.826 291.472C220.655 292.021 220.369 292.504 219.966 292.92C219.564 293.332 219.067 293.654 218.475 293.886C217.883 294.114 217.218 294.227 216.479 294.227ZM233.603 294.227C232.618 294.227 231.754 293.993 231.01 293.524C230.272 293.055 229.694 292.4 229.277 291.557C228.865 290.714 228.659 289.729 228.659 288.602C228.659 287.466 228.865 286.474 229.277 285.626C229.694 284.779 230.272 284.121 231.01 283.652C231.754 283.183 232.618 282.949 233.603 282.949C234.587 282.949 235.449 283.183 236.188 283.652C236.931 284.121 237.509 284.779 237.921 285.626C238.337 286.474 238.546 287.466 238.546 288.602C238.546 289.729 238.337 290.714 237.921 291.557C237.509 292.4 236.931 293.055 236.188 293.524C235.449 293.993 234.587 294.227 233.603 294.227ZM233.603 292.722C234.351 292.722 234.966 292.53 235.449 292.146C235.932 291.763 236.29 291.259 236.522 290.634C236.754 290.009 236.87 289.331 236.87 288.602C236.87 287.873 236.754 287.194 236.522 286.564C236.29 285.934 235.932 285.425 235.449 285.037C234.966 284.649 234.351 284.455 233.603 284.455C232.855 284.455 232.239 284.649 231.756 285.037C231.273 285.425 230.916 285.934 230.684 286.564C230.452 287.194 230.336 287.873 230.336 288.602C230.336 289.331 230.452 290.009 230.684 290.634C230.916 291.259 231.273 291.763 231.756 292.146C232.239 292.53 232.855 292.722 233.603 292.722ZM242.781 287.438V294H241.104V283.091H242.724V284.795H242.866C243.121 284.241 243.51 283.796 244.031 283.46C244.551 283.119 245.224 282.949 246.048 282.949C246.786 282.949 247.433 283.1 247.987 283.403C248.54 283.702 248.971 284.156 249.279 284.767C249.587 285.373 249.741 286.14 249.741 287.068V294H248.065V287.182C248.065 286.325 247.842 285.657 247.397 285.179C246.952 284.696 246.341 284.455 245.565 284.455C245.03 284.455 244.551 284.571 244.13 284.803C243.713 285.035 243.384 285.373 243.143 285.818C242.901 286.263 242.781 286.803 242.781 287.438ZM255.304 292.011L255.19 292.778C255.109 293.318 254.986 293.896 254.821 294.511C254.66 295.127 254.492 295.707 254.316 296.251C254.141 296.796 253.997 297.229 253.883 297.551H252.605C252.666 297.248 252.747 296.848 252.846 296.351C252.946 295.854 253.045 295.297 253.145 294.682C253.249 294.071 253.334 293.446 253.4 292.807L253.485 292.011H255.304ZM271.761 285.534L270.256 285.96C270.161 285.709 270.021 285.465 269.837 285.229C269.657 284.987 269.411 284.788 269.098 284.632C268.786 284.476 268.385 284.398 267.898 284.398C267.23 284.398 266.674 284.552 266.229 284.859C265.788 285.162 265.568 285.548 265.568 286.017C265.568 286.434 265.72 286.763 266.023 287.004C266.326 287.246 266.799 287.447 267.443 287.608L269.062 288.006C270.038 288.242 270.765 288.605 271.243 289.092C271.721 289.575 271.96 290.198 271.96 290.96C271.96 291.585 271.78 292.144 271.42 292.636C271.065 293.129 270.568 293.517 269.929 293.801C269.29 294.085 268.546 294.227 267.699 294.227C266.586 294.227 265.665 293.986 264.936 293.503C264.207 293.02 263.745 292.314 263.551 291.386L265.142 290.989C265.294 291.576 265.58 292.016 266.001 292.31C266.428 292.603 266.984 292.75 267.67 292.75C268.452 292.75 269.072 292.584 269.531 292.253C269.995 291.917 270.227 291.514 270.227 291.045C270.227 290.667 270.095 290.349 269.83 290.094C269.564 289.833 269.157 289.639 268.608 289.511L266.79 289.085C265.791 288.848 265.057 288.482 264.588 287.984C264.124 287.482 263.892 286.855 263.892 286.102C263.892 285.487 264.065 284.942 264.411 284.469C264.761 283.995 265.237 283.624 265.838 283.354C266.444 283.084 267.131 282.949 267.898 282.949C268.977 282.949 269.825 283.186 270.44 283.659C271.061 284.133 271.501 284.758 271.761 285.534ZM279.228 283.091V284.511H273.574V283.091H279.228ZM275.222 280.477H276.898V290.875C276.898 291.348 276.967 291.704 277.104 291.94C277.246 292.172 277.426 292.329 277.644 292.409C277.866 292.485 278.101 292.523 278.347 292.523C278.532 292.523 278.683 292.513 278.801 292.494C278.92 292.471 279.015 292.452 279.086 292.438L279.426 293.943C279.313 293.986 279.154 294.028 278.951 294.071C278.747 294.118 278.489 294.142 278.176 294.142C277.703 294.142 277.239 294.04 276.784 293.837C276.335 293.633 275.961 293.323 275.662 292.906C275.369 292.49 275.222 291.964 275.222 291.33V280.477ZM284.959 294.256C284.268 294.256 283.641 294.125 283.077 293.865C282.514 293.6 282.066 293.219 281.735 292.722C281.403 292.22 281.238 291.614 281.238 290.903C281.238 290.278 281.361 289.772 281.607 289.384C281.853 288.991 282.182 288.683 282.594 288.46C283.006 288.238 283.461 288.072 283.958 287.963C284.46 287.849 284.964 287.759 285.471 287.693C286.133 287.608 286.671 287.544 287.083 287.501C287.499 287.454 287.802 287.376 287.992 287.267C288.186 287.158 288.283 286.969 288.283 286.699V286.642C288.283 285.941 288.091 285.397 287.708 285.009C287.329 284.62 286.754 284.426 285.982 284.426C285.182 284.426 284.554 284.601 284.1 284.952C283.645 285.302 283.326 285.676 283.141 286.074L281.55 285.506C281.834 284.843 282.213 284.327 282.686 283.957C283.165 283.583 283.685 283.323 284.249 283.176C284.817 283.025 285.376 282.949 285.925 282.949C286.275 282.949 286.678 282.991 287.132 283.077C287.592 283.157 288.034 283.325 288.461 283.581C288.891 283.837 289.249 284.223 289.533 284.739C289.817 285.255 289.959 285.946 289.959 286.812V294H288.283V292.523H288.198C288.084 292.759 287.895 293.013 287.63 293.283C287.364 293.553 287.012 293.782 286.571 293.972C286.131 294.161 285.594 294.256 284.959 294.256ZM285.215 292.75C285.878 292.75 286.436 292.62 286.891 292.359C287.35 292.099 287.696 291.763 287.928 291.351C288.165 290.939 288.283 290.506 288.283 290.051V288.517C288.212 288.602 288.056 288.68 287.814 288.751C287.578 288.818 287.303 288.877 286.99 288.929C286.683 288.976 286.382 289.019 286.088 289.057C285.8 289.09 285.565 289.118 285.385 289.142C284.95 289.199 284.542 289.291 284.164 289.419C283.79 289.542 283.487 289.729 283.255 289.98C283.027 290.226 282.914 290.562 282.914 290.989C282.914 291.571 283.129 292.011 283.56 292.31C283.996 292.603 284.547 292.75 285.215 292.75ZM293.707 298.091C293.423 298.091 293.17 298.067 292.947 298.02C292.725 297.977 292.571 297.935 292.486 297.892L292.912 296.415C293.319 296.519 293.679 296.557 293.991 296.528C294.304 296.5 294.581 296.36 294.822 296.109C295.069 295.863 295.294 295.463 295.497 294.909L295.81 294.057L291.776 283.091H293.594L296.605 291.784H296.719L299.73 283.091H301.548L296.918 295.591C296.709 296.154 296.451 296.621 296.143 296.99C295.836 297.364 295.478 297.641 295.071 297.821C294.669 298.001 294.214 298.091 293.707 298.091ZM312.596 294.256C311.905 294.256 311.277 294.125 310.714 293.865C310.15 293.6 309.703 293.219 309.371 292.722C309.04 292.22 308.874 291.614 308.874 290.903C308.874 290.278 308.997 289.772 309.244 289.384C309.49 288.991 309.819 288.683 310.231 288.46C310.643 288.238 311.097 288.072 311.594 287.963C312.096 287.849 312.601 287.759 313.107 287.693C313.77 287.608 314.308 287.544 314.719 287.501C315.136 287.454 315.439 287.376 315.629 287.267C315.823 287.158 315.92 286.969 315.92 286.699V286.642C315.92 285.941 315.728 285.397 315.344 285.009C314.966 284.62 314.39 284.426 313.619 284.426C312.818 284.426 312.191 284.601 311.737 284.952C311.282 285.302 310.962 285.676 310.778 286.074L309.187 285.506C309.471 284.843 309.85 284.327 310.323 283.957C310.801 283.583 311.322 283.323 311.886 283.176C312.454 283.025 313.013 282.949 313.562 282.949C313.912 282.949 314.315 282.991 314.769 283.077C315.228 283.157 315.671 283.325 316.097 283.581C316.528 283.837 316.886 284.223 317.17 284.739C317.454 285.255 317.596 285.946 317.596 286.812V294H315.92V292.523H315.835C315.721 292.759 315.531 293.013 315.266 293.283C315.001 293.553 314.648 293.782 314.208 293.972C313.768 294.161 313.23 294.256 312.596 294.256ZM312.852 292.75C313.514 292.75 314.073 292.62 314.528 292.359C314.987 292.099 315.333 291.763 315.565 291.351C315.801 290.939 315.92 290.506 315.92 290.051V288.517C315.849 288.602 315.692 288.68 315.451 288.751C315.214 288.818 314.94 288.877 314.627 288.929C314.319 288.976 314.019 289.019 313.725 289.057C313.436 289.09 313.202 289.118 313.022 289.142C312.586 289.199 312.179 289.291 311.8 289.419C311.426 289.542 311.123 289.729 310.891 289.98C310.664 290.226 310.55 290.562 310.55 290.989C310.55 291.571 310.766 292.011 311.197 292.31C311.632 292.603 312.184 292.75 312.852 292.75ZM326.507 294V279.455H328.184V284.824H328.326C328.449 284.634 328.619 284.393 328.837 284.099C329.06 283.801 329.377 283.536 329.789 283.304C330.205 283.067 330.769 282.949 331.479 282.949C332.398 282.949 333.207 283.179 333.908 283.638C334.609 284.097 335.156 284.748 335.549 285.591C335.942 286.434 336.138 287.428 336.138 288.574C336.138 289.729 335.942 290.731 335.549 291.578C335.156 292.421 334.611 293.074 333.915 293.538C333.219 293.998 332.417 294.227 331.507 294.227C330.807 294.227 330.246 294.111 329.824 293.879C329.403 293.643 329.078 293.375 328.851 293.077C328.624 292.774 328.449 292.523 328.326 292.324H328.127V294H326.507ZM328.155 288.545C328.155 289.369 328.276 290.096 328.517 290.726C328.759 291.351 329.112 291.841 329.576 292.196C330.04 292.546 330.608 292.722 331.28 292.722C331.981 292.722 332.566 292.537 333.034 292.168C333.508 291.794 333.863 291.292 334.1 290.662C334.341 290.027 334.462 289.322 334.462 288.545C334.462 287.778 334.344 287.087 334.107 286.472C333.875 285.851 333.522 285.361 333.049 285.001C332.58 284.637 331.99 284.455 331.28 284.455C330.598 284.455 330.025 284.627 329.561 284.973C329.097 285.314 328.747 285.792 328.51 286.408C328.274 287.018 328.155 287.731 328.155 288.545ZM338.702 294V283.091H340.378V294H338.702ZM339.554 281.273C339.228 281.273 338.946 281.161 338.709 280.939C338.477 280.716 338.361 280.449 338.361 280.136C338.361 279.824 338.477 279.556 338.709 279.334C338.946 279.111 339.228 279 339.554 279C339.881 279 340.16 279.111 340.392 279.334C340.629 279.556 340.748 279.824 340.748 280.136C340.748 280.449 340.629 280.716 340.392 280.939C340.16 281.161 339.881 281.273 339.554 281.273ZM348.192 283.091V284.511H342.539V283.091H348.192ZM344.187 280.477H345.863V290.875C345.863 291.348 345.932 291.704 346.069 291.94C346.211 292.172 346.391 292.329 346.609 292.409C346.831 292.485 347.066 292.523 347.312 292.523C347.496 292.523 347.648 292.513 347.766 292.494C347.885 292.471 347.979 292.452 348.05 292.438L348.391 293.943C348.278 293.986 348.119 294.028 347.915 294.071C347.712 294.118 347.454 294.142 347.141 294.142C346.668 294.142 346.204 294.04 345.749 293.837C345.299 293.633 344.925 293.323 344.627 292.906C344.334 292.49 344.187 291.964 344.187 291.33V280.477ZM358.015 279.455V294H356.339V279.455H358.015ZM365.517 294.227C364.532 294.227 363.668 293.993 362.924 293.524C362.186 293.055 361.608 292.4 361.191 291.557C360.779 290.714 360.574 289.729 360.574 288.602C360.574 287.466 360.779 286.474 361.191 285.626C361.608 284.779 362.186 284.121 362.924 283.652C363.668 283.183 364.532 282.949 365.517 282.949C366.502 282.949 367.363 283.183 368.102 283.652C368.845 284.121 369.423 284.779 369.835 285.626C370.252 286.474 370.46 287.466 370.46 288.602C370.46 289.729 370.252 290.714 369.835 291.557C369.423 292.4 368.845 293.055 368.102 293.524C367.363 293.993 366.502 294.227 365.517 294.227ZM365.517 292.722C366.265 292.722 366.88 292.53 367.363 292.146C367.846 291.763 368.204 291.259 368.436 290.634C368.668 290.009 368.784 289.331 368.784 288.602C368.784 287.873 368.668 287.194 368.436 286.564C368.204 285.934 367.846 285.425 367.363 285.037C366.88 284.649 366.265 284.455 365.517 284.455C364.769 284.455 364.153 284.649 363.67 285.037C363.187 285.425 362.83 285.934 362.598 286.564C362.366 287.194 362.25 287.873 362.25 288.602C362.25 289.331 362.366 290.009 362.598 290.634C362.83 291.259 363.187 291.763 363.67 292.146C364.153 292.53 364.769 292.722 365.517 292.722ZM374.695 287.438V294H373.018V283.091H374.638V284.795H374.78C375.036 284.241 375.424 283.796 375.945 283.46C376.465 283.119 377.138 282.949 377.962 282.949C378.7 282.949 379.347 283.1 379.901 283.403C380.455 283.702 380.885 284.156 381.193 284.767C381.501 285.373 381.655 286.14 381.655 287.068V294H379.979V287.182C379.979 286.325 379.756 285.657 379.311 285.179C378.866 284.696 378.255 284.455 377.479 284.455C376.944 284.455 376.465 284.571 376.044 284.803C375.627 285.035 375.298 285.373 375.057 285.818C374.815 286.263 374.695 286.803 374.695 287.438ZM389.121 298.318C388.311 298.318 387.615 298.214 387.033 298.006C386.451 297.802 385.965 297.532 385.577 297.196C385.194 296.865 384.888 296.509 384.661 296.131L385.996 295.193C386.148 295.392 386.339 295.619 386.571 295.875C386.803 296.135 387.121 296.36 387.523 296.55C387.93 296.744 388.463 296.841 389.121 296.841C390.002 296.841 390.729 296.628 391.301 296.202C391.874 295.776 392.161 295.108 392.161 294.199V291.983H392.019C391.896 292.182 391.721 292.428 391.493 292.722C391.271 293.01 390.949 293.268 390.527 293.496C390.111 293.718 389.547 293.83 388.837 293.83C387.956 293.83 387.166 293.621 386.465 293.205C385.769 292.788 385.217 292.182 384.81 291.386C384.408 290.591 384.206 289.625 384.206 288.489C384.206 287.371 384.403 286.398 384.796 285.57C385.189 284.736 385.736 284.092 386.436 283.638C387.137 283.179 387.947 282.949 388.865 282.949C389.576 282.949 390.139 283.067 390.556 283.304C390.977 283.536 391.299 283.801 391.522 284.099C391.749 284.393 391.924 284.634 392.047 284.824H392.218V283.091H393.837V294.312C393.837 295.25 393.624 296.012 393.198 296.599C392.776 297.191 392.208 297.625 391.493 297.899C390.783 298.179 389.992 298.318 389.121 298.318ZM389.064 292.324C389.737 292.324 390.305 292.17 390.769 291.862C391.233 291.554 391.586 291.112 391.827 290.534C392.069 289.956 392.189 289.265 392.189 288.46C392.189 287.674 392.071 286.981 391.834 286.379C391.597 285.778 391.247 285.307 390.783 284.966C390.319 284.625 389.746 284.455 389.064 284.455C388.354 284.455 387.762 284.634 387.289 284.994C386.82 285.354 386.467 285.837 386.23 286.443C385.998 287.049 385.882 287.722 385.882 288.46C385.882 289.218 386.001 289.888 386.238 290.47C386.479 291.048 386.834 291.502 387.303 291.834C387.776 292.161 388.364 292.324 389.064 292.324ZM401.479 294.227C400.428 294.227 399.521 293.995 398.759 293.531C398.001 293.062 397.417 292.409 397.005 291.571C396.597 290.728 396.394 289.748 396.394 288.631C396.394 287.513 396.597 286.528 397.005 285.676C397.417 284.819 397.989 284.152 398.723 283.673C399.462 283.19 400.324 282.949 401.309 282.949C401.877 282.949 402.438 283.044 402.992 283.233C403.546 283.422 404.05 283.73 404.505 284.156C404.959 284.578 405.321 285.136 405.591 285.832C405.861 286.528 405.996 287.385 405.996 288.403V289.114H397.587V287.665H404.292C404.292 287.049 404.168 286.5 403.922 286.017C403.681 285.534 403.335 285.153 402.885 284.874C402.44 284.594 401.915 284.455 401.309 284.455C400.641 284.455 400.063 284.62 399.576 284.952C399.093 285.278 398.721 285.705 398.461 286.23C398.2 286.756 398.07 287.319 398.07 287.92V288.886C398.07 289.71 398.212 290.409 398.496 290.982C398.785 291.55 399.185 291.983 399.696 292.281C400.208 292.575 400.802 292.722 401.479 292.722C401.919 292.722 402.317 292.66 402.672 292.537C403.032 292.409 403.342 292.22 403.603 291.969C403.863 291.713 404.064 291.396 404.206 291.017L405.826 291.472C405.655 292.021 405.369 292.504 404.966 292.92C404.564 293.332 404.067 293.654 403.475 293.886C402.883 294.114 402.218 294.227 401.479 294.227ZM408.546 294V283.091H410.165V284.739H410.279C410.478 284.199 410.837 283.761 411.358 283.425C411.879 283.089 412.466 282.92 413.12 282.92C413.243 282.92 413.397 282.923 413.581 282.928C413.766 282.932 413.906 282.939 414 282.949V284.653C413.944 284.639 413.813 284.618 413.61 284.589C413.411 284.556 413.2 284.54 412.978 284.54C412.447 284.54 411.974 284.651 411.557 284.874C411.145 285.091 410.819 285.394 410.577 285.783C410.34 286.166 410.222 286.604 410.222 287.097V294H408.546Z" fill="black"/>
<path d="M704.21 850.438V857H702.534V846.091H704.153V847.795H704.295C704.551 847.241 704.939 846.796 705.46 846.46C705.981 846.119 706.653 845.949 707.477 845.949C708.216 845.949 708.862 846.1 709.416 846.403C709.97 846.702 710.401 847.156 710.709 847.767C711.017 848.373 711.17 849.14 711.17 850.068V857H709.494V850.182C709.494 849.325 709.272 848.657 708.827 848.179C708.382 847.696 707.771 847.455 706.994 847.455C706.459 847.455 705.981 847.571 705.56 847.803C705.143 848.035 704.814 848.373 704.572 848.818C704.331 849.263 704.21 849.803 704.21 850.438ZM717.444 857.256C716.752 857.256 716.125 857.125 715.561 856.865C714.998 856.6 714.551 856.219 714.219 855.722C713.888 855.22 713.722 854.614 713.722 853.903C713.722 853.278 713.845 852.772 714.091 852.384C714.337 851.991 714.667 851.683 715.078 851.46C715.49 851.238 715.945 851.072 716.442 850.963C716.944 850.849 717.448 850.759 717.955 850.693C718.618 850.608 719.155 850.544 719.567 850.501C719.984 850.454 720.287 850.376 720.476 850.267C720.67 850.158 720.767 849.969 720.767 849.699V849.642C720.767 848.941 720.576 848.397 720.192 848.009C719.813 847.62 719.238 847.426 718.466 847.426C717.666 847.426 717.039 847.601 716.584 847.952C716.13 848.302 715.81 848.676 715.625 849.074L714.034 848.506C714.319 847.843 714.697 847.327 715.171 846.957C715.649 846.583 716.17 846.323 716.733 846.176C717.301 846.025 717.86 845.949 718.409 845.949C718.76 845.949 719.162 845.991 719.617 846.077C720.076 846.157 720.519 846.325 720.945 846.581C721.376 846.837 721.733 847.223 722.017 847.739C722.301 848.255 722.444 848.946 722.444 849.812V857H720.767V855.523H720.682C720.569 855.759 720.379 856.013 720.114 856.283C719.849 856.553 719.496 856.782 719.056 856.972C718.615 857.161 718.078 857.256 717.444 857.256ZM717.699 855.75C718.362 855.75 718.921 855.62 719.375 855.359C719.835 855.099 720.18 854.763 720.412 854.351C720.649 853.939 720.767 853.506 720.767 853.051V851.517C720.696 851.602 720.54 851.68 720.299 851.751C720.062 851.818 719.787 851.877 719.475 851.929C719.167 851.976 718.866 852.019 718.573 852.057C718.284 852.09 718.05 852.118 717.87 852.142C717.434 852.199 717.027 852.291 716.648 852.419C716.274 852.542 715.971 852.729 715.739 852.98C715.512 853.226 715.398 853.562 715.398 853.989C715.398 854.571 715.614 855.011 716.044 855.31C716.48 855.603 717.032 855.75 717.699 855.75ZM727.179 850.438V857H725.503V842.455H727.179V847.795H727.321C727.577 847.232 727.96 846.785 728.472 846.453C728.988 846.117 729.674 845.949 730.531 845.949C731.275 845.949 731.926 846.098 732.484 846.396C733.043 846.69 733.476 847.142 733.784 847.753C734.097 848.359 734.253 849.131 734.253 850.068V857H732.577V850.182C732.577 849.315 732.352 848.645 731.902 848.172C731.457 847.694 730.839 847.455 730.048 847.455C729.499 847.455 729.007 847.571 728.571 847.803C728.14 848.035 727.799 848.373 727.548 848.818C727.302 849.263 727.179 849.803 727.179 850.438ZM750.672 848.534L749.166 848.96C749.071 848.709 748.931 848.465 748.747 848.229C748.567 847.987 748.321 847.788 748.008 847.632C747.696 847.476 747.296 847.398 746.808 847.398C746.14 847.398 745.584 847.552 745.139 847.859C744.699 848.162 744.478 848.548 744.478 849.017C744.478 849.434 744.63 849.763 744.933 850.004C745.236 850.246 745.709 850.447 746.353 850.608L747.973 851.006C748.948 851.242 749.675 851.605 750.153 852.092C750.631 852.575 750.87 853.198 750.87 853.96C750.87 854.585 750.69 855.144 750.331 855.636C749.975 856.129 749.478 856.517 748.839 856.801C748.2 857.085 747.457 857.227 746.609 857.227C745.496 857.227 744.575 856.986 743.846 856.503C743.117 856.02 742.655 855.314 742.461 854.386L744.052 853.989C744.204 854.576 744.49 855.016 744.912 855.31C745.338 855.603 745.894 855.75 746.581 855.75C747.362 855.75 747.982 855.584 748.441 855.253C748.905 854.917 749.137 854.514 749.137 854.045C749.137 853.667 749.005 853.349 748.74 853.094C748.475 852.833 748.067 852.639 747.518 852.511L745.7 852.085C744.701 851.848 743.967 851.482 743.498 850.984C743.034 850.482 742.802 849.855 742.802 849.102C742.802 848.487 742.975 847.942 743.321 847.469C743.671 846.995 744.147 846.624 744.748 846.354C745.354 846.084 746.041 845.949 746.808 845.949C747.887 845.949 748.735 846.186 749.35 846.659C749.971 847.133 750.411 847.758 750.672 848.534ZM757.825 857.227C756.84 857.227 755.976 856.993 755.233 856.524C754.494 856.055 753.917 855.4 753.5 854.557C753.088 853.714 752.882 852.729 752.882 851.602C752.882 850.466 753.088 849.474 753.5 848.626C753.917 847.779 754.494 847.121 755.233 846.652C755.976 846.183 756.84 845.949 757.825 845.949C758.81 845.949 759.672 846.183 760.411 846.652C761.154 847.121 761.732 847.779 762.143 848.626C762.56 849.474 762.768 850.466 762.768 851.602C762.768 852.729 762.56 853.714 762.143 854.557C761.732 855.4 761.154 856.055 760.411 856.524C759.672 856.993 758.81 857.227 757.825 857.227ZM757.825 855.722C758.573 855.722 759.189 855.53 759.672 855.146C760.155 854.763 760.512 854.259 760.744 853.634C760.976 853.009 761.092 852.331 761.092 851.602C761.092 850.873 760.976 850.194 760.744 849.564C760.512 848.934 760.155 848.425 759.672 848.037C759.189 847.649 758.573 847.455 757.825 847.455C757.077 847.455 756.462 847.649 755.979 848.037C755.496 848.425 755.138 848.934 754.906 849.564C754.674 850.194 754.558 850.873 754.558 851.602C754.558 852.331 754.674 853.009 754.906 853.634C755.138 854.259 755.496 854.763 755.979 855.146C756.462 855.53 757.077 855.722 757.825 855.722ZM765.327 857V846.091H766.946V847.739H767.06C767.259 847.199 767.619 846.761 768.14 846.425C768.66 846.089 769.248 845.92 769.901 845.92C770.024 845.92 770.178 845.923 770.363 845.928C770.547 845.932 770.687 845.939 770.782 845.949V847.653C770.725 847.639 770.595 847.618 770.391 847.589C770.192 847.556 769.981 847.54 769.759 847.54C769.229 847.54 768.755 847.651 768.338 847.874C767.926 848.091 767.6 848.394 767.358 848.783C767.122 849.166 767.003 849.604 767.003 850.097V857H765.327ZM772.768 857V846.091H774.388V847.739H774.501C774.7 847.199 775.06 846.761 775.581 846.425C776.102 846.089 776.689 845.92 777.342 845.92C777.465 845.92 777.619 845.923 777.804 845.928C777.989 845.932 778.128 845.939 778.223 845.949V847.653C778.166 847.639 778.036 847.618 777.832 847.589C777.634 847.556 777.423 847.54 777.2 847.54C776.67 847.54 776.196 847.651 775.78 847.874C775.368 848.091 775.041 848.394 774.8 848.783C774.563 849.166 774.445 849.604 774.445 850.097V857H772.768ZM781.621 861.091C781.337 861.091 781.084 861.067 780.862 861.02C780.639 860.977 780.485 860.935 780.4 860.892L780.826 859.415C781.233 859.519 781.593 859.557 781.906 859.528C782.218 859.5 782.495 859.36 782.737 859.109C782.983 858.863 783.208 858.463 783.411 857.909L783.724 857.057L779.69 846.091H781.508L784.519 854.784H784.633L787.644 846.091H789.462L784.832 858.591C784.623 859.154 784.365 859.621 784.058 859.99C783.75 860.364 783.392 860.641 782.985 860.821C782.583 861.001 782.128 861.091 781.621 861.091ZM797.3 857V846.091H798.976V857H797.3ZM798.152 844.273C797.825 844.273 797.544 844.161 797.307 843.939C797.075 843.716 796.959 843.449 796.959 843.136C796.959 842.824 797.075 842.556 797.307 842.334C797.544 842.111 797.825 842 798.152 842C798.479 842 798.758 842.111 798.99 842.334C799.227 842.556 799.345 842.824 799.345 843.136C799.345 843.449 799.227 843.716 798.99 843.939C798.758 844.161 798.479 844.273 798.152 844.273ZM812.074 861.318C811.265 861.318 810.569 861.214 809.986 861.006C809.404 860.802 808.918 860.532 808.53 860.196C808.147 859.865 807.841 859.509 807.614 859.131L808.949 858.193C809.101 858.392 809.292 858.619 809.525 858.875C809.757 859.135 810.074 859.36 810.476 859.55C810.883 859.744 811.416 859.841 812.074 859.841C812.955 859.841 813.682 859.628 814.255 859.202C814.828 858.776 815.114 858.108 815.114 857.199V854.983H814.972C814.849 855.182 814.674 855.428 814.446 855.722C814.224 856.01 813.902 856.268 813.48 856.496C813.064 856.718 812.5 856.83 811.79 856.83C810.909 856.83 810.119 856.621 809.418 856.205C808.722 855.788 808.17 855.182 807.763 854.386C807.361 853.591 807.159 852.625 807.159 851.489C807.159 850.371 807.356 849.398 807.749 848.57C808.142 847.736 808.689 847.092 809.39 846.638C810.09 846.179 810.9 845.949 811.819 845.949C812.529 845.949 813.092 846.067 813.509 846.304C813.93 846.536 814.252 846.801 814.475 847.099C814.702 847.393 814.877 847.634 815 847.824H815.171V846.091H816.79V857.312C816.79 858.25 816.577 859.012 816.151 859.599C815.73 860.191 815.161 860.625 814.446 860.899C813.736 861.179 812.945 861.318 812.074 861.318ZM812.017 855.324C812.69 855.324 813.258 855.17 813.722 854.862C814.186 854.554 814.539 854.112 814.78 853.534C815.022 852.956 815.142 852.265 815.142 851.46C815.142 850.674 815.024 849.981 814.787 849.379C814.551 848.778 814.2 848.307 813.736 847.966C813.272 847.625 812.699 847.455 812.017 847.455C811.307 847.455 810.715 847.634 810.242 847.994C809.773 848.354 809.42 848.837 809.184 849.443C808.952 850.049 808.836 850.722 808.836 851.46C808.836 852.218 808.954 852.888 809.191 853.47C809.432 854.048 809.787 854.502 810.256 854.834C810.73 855.161 811.317 855.324 812.017 855.324ZM824.29 857.227C823.305 857.227 822.441 856.993 821.698 856.524C820.959 856.055 820.382 855.4 819.965 854.557C819.553 853.714 819.347 852.729 819.347 851.602C819.347 850.466 819.553 849.474 819.965 848.626C820.382 847.779 820.959 847.121 821.698 846.652C822.441 846.183 823.305 845.949 824.29 845.949C825.275 845.949 826.137 846.183 826.875 846.652C827.619 847.121 828.196 847.779 828.608 848.626C829.025 849.474 829.233 850.466 829.233 851.602C829.233 852.729 829.025 853.714 828.608 854.557C828.196 855.4 827.619 856.055 826.875 856.524C826.137 856.993 825.275 857.227 824.29 857.227ZM824.29 855.722C825.038 855.722 825.654 855.53 826.137 855.146C826.62 854.763 826.977 854.259 827.209 853.634C827.441 853.009 827.557 852.331 827.557 851.602C827.557 850.873 827.441 850.194 827.209 849.564C826.977 848.934 826.62 848.425 826.137 848.037C825.654 847.649 825.038 847.455 824.29 847.455C823.542 847.455 822.926 847.649 822.444 848.037C821.961 848.425 821.603 848.934 821.371 849.564C821.139 850.194 821.023 850.873 821.023 851.602C821.023 852.331 821.139 853.009 821.371 853.634C821.603 854.259 821.961 854.763 822.444 855.146C822.926 855.53 823.542 855.722 824.29 855.722ZM836.536 846.091V847.511H830.883V846.091H836.536ZM832.531 843.477H834.207V853.875C834.207 854.348 834.275 854.704 834.413 854.94C834.555 855.172 834.735 855.329 834.952 855.409C835.175 855.485 835.409 855.523 835.656 855.523C835.84 855.523 835.992 855.513 836.11 855.494C836.228 855.471 836.323 855.452 836.394 855.438L836.735 856.943C836.621 856.986 836.463 857.028 836.259 857.071C836.056 857.118 835.798 857.142 835.485 857.142C835.012 857.142 834.548 857.04 834.093 856.837C833.643 856.633 833.269 856.323 832.971 855.906C832.677 855.49 832.531 854.964 832.531 854.33V843.477ZM843.802 846.091V847.511H838.148V846.091H843.802ZM839.796 843.477H841.472V853.875C841.472 854.348 841.541 854.704 841.678 854.94C841.82 855.172 842 855.329 842.218 855.409C842.441 855.485 842.675 855.523 842.921 855.523C843.106 855.523 843.257 855.513 843.376 855.494C843.494 855.471 843.589 855.452 843.66 855.438L844.001 856.943C843.887 856.986 843.728 857.028 843.525 857.071C843.321 857.118 843.063 857.142 842.751 857.142C842.277 857.142 841.813 857.04 841.359 856.837C840.909 856.633 840.535 856.323 840.237 855.906C839.943 855.49 839.796 854.964 839.796 854.33V843.477ZM849.533 857.256C848.842 857.256 848.215 857.125 847.651 856.865C847.088 856.6 846.64 856.219 846.309 855.722C845.978 855.22 845.812 854.614 845.812 853.903C845.812 853.278 845.935 852.772 846.181 852.384C846.427 851.991 846.756 851.683 847.168 851.46C847.58 851.238 848.035 851.072 848.532 850.963C849.034 850.849 849.538 850.759 850.045 850.693C850.708 850.608 851.245 850.544 851.657 850.501C852.074 850.454 852.377 850.376 852.566 850.267C852.76 850.158 852.857 849.969 852.857 849.699V849.642C852.857 848.941 852.665 848.397 852.282 848.009C851.903 847.62 851.328 847.426 850.556 847.426C849.756 847.426 849.129 847.601 848.674 847.952C848.219 848.302 847.9 848.676 847.715 849.074L846.124 848.506C846.408 847.843 846.787 847.327 847.261 846.957C847.739 846.583 848.26 846.323 848.823 846.176C849.391 846.025 849.95 845.949 850.499 845.949C850.85 845.949 851.252 845.991 851.707 846.077C852.166 846.157 852.609 846.325 853.035 846.581C853.466 846.837 853.823 847.223 854.107 847.739C854.391 848.255 854.533 848.946 854.533 849.812V857H852.857V855.523H852.772C852.658 855.759 852.469 856.013 852.204 856.283C851.939 856.553 851.586 856.782 851.146 856.972C850.705 857.161 850.168 857.256 849.533 857.256ZM849.789 855.75C850.452 855.75 851.011 855.62 851.465 855.359C851.924 855.099 852.27 854.763 852.502 854.351C852.739 853.939 852.857 853.506 852.857 853.051V851.517C852.786 851.602 852.63 851.68 852.388 851.751C852.152 851.818 851.877 851.877 851.565 851.929C851.257 851.976 850.956 852.019 850.663 852.057C850.374 852.09 850.139 852.118 849.96 852.142C849.524 852.199 849.117 852.291 848.738 852.419C848.364 852.542 848.061 852.729 847.829 852.98C847.602 853.226 847.488 853.562 847.488 853.989C847.488 854.571 847.703 855.011 848.134 855.31C848.57 855.603 849.121 855.75 849.789 855.75ZM867.621 861.318C866.811 861.318 866.115 861.214 865.533 861.006C864.951 860.802 864.465 860.532 864.077 860.196C863.694 859.865 863.388 859.509 863.161 859.131L864.496 858.193C864.648 858.392 864.839 858.619 865.071 858.875C865.303 859.135 865.621 859.36 866.023 859.55C866.43 859.744 866.963 859.841 867.621 859.841C868.502 859.841 869.229 859.628 869.801 859.202C870.374 858.776 870.661 858.108 870.661 857.199V854.983H870.519C870.396 855.182 870.221 855.428 869.993 855.722C869.771 856.01 869.449 856.268 869.027 856.496C868.611 856.718 868.047 856.83 867.337 856.83C866.456 856.83 865.666 856.621 864.965 856.205C864.269 855.788 863.717 855.182 863.31 854.386C862.908 853.591 862.706 852.625 862.706 851.489C862.706 850.371 862.903 849.398 863.296 848.57C863.689 847.736 864.236 847.092 864.936 846.638C865.637 846.179 866.447 845.949 867.365 845.949C868.076 845.949 868.639 846.067 869.056 846.304C869.477 846.536 869.799 846.801 870.022 847.099C870.249 847.393 870.424 847.634 870.547 847.824H870.718V846.091H872.337V857.312C872.337 858.25 872.124 859.012 871.698 859.599C871.276 860.191 870.708 860.625 869.993 860.899C869.283 861.179 868.492 861.318 867.621 861.318ZM867.564 855.324C868.237 855.324 868.805 855.17 869.269 854.862C869.733 854.554 870.086 854.112 870.327 853.534C870.569 852.956 870.689 852.265 870.689 851.46C870.689 850.674 870.571 849.981 870.334 849.379C870.097 848.778 869.747 848.307 869.283 847.966C868.819 847.625 868.246 847.455 867.564 847.455C866.854 847.455 866.262 847.634 865.789 847.994C865.32 848.354 864.967 848.837 864.73 849.443C864.498 850.049 864.382 850.722 864.382 851.46C864.382 852.218 864.501 852.888 864.738 853.47C864.979 854.048 865.334 854.502 865.803 854.834C866.276 855.161 866.864 855.324 867.564 855.324ZM879.837 857.227C878.852 857.227 877.988 856.993 877.245 856.524C876.506 856.055 875.928 855.4 875.512 854.557C875.1 853.714 874.894 852.729 874.894 851.602C874.894 850.466 875.1 849.474 875.512 848.626C875.928 847.779 876.506 847.121 877.245 846.652C877.988 846.183 878.852 845.949 879.837 845.949C880.822 845.949 881.684 846.183 882.422 846.652C883.166 847.121 883.743 847.779 884.155 848.626C884.572 849.474 884.78 850.466 884.78 851.602C884.78 852.729 884.572 853.714 884.155 854.557C883.743 855.4 883.166 856.055 882.422 856.524C881.684 856.993 880.822 857.227 879.837 857.227ZM879.837 855.722C880.585 855.722 881.201 855.53 881.684 855.146C882.167 854.763 882.524 854.259 882.756 853.634C882.988 853.009 883.104 852.331 883.104 851.602C883.104 850.873 882.988 850.194 882.756 849.564C882.524 848.934 882.167 848.425 881.684 848.037C881.201 847.649 880.585 847.455 879.837 847.455C879.089 847.455 878.473 847.649 877.99 848.037C877.507 848.425 877.15 848.934 876.918 849.564C876.686 850.194 876.57 850.873 876.57 851.602C876.57 852.331 876.686 853.009 876.918 853.634C877.15 854.259 877.507 854.763 877.99 855.146C878.473 855.53 879.089 855.722 879.837 855.722Z" fill="black"/>
<path d="M822.047 805.87C850.918 804.266 878.649 800.885 908.046 800.885C935.881 800.885 963.717 800.885 991.552 800.885" stroke="black" stroke-opacity="0.5" stroke-width="3" stroke-linecap="round"/>
<path d="M1008.13 235.34C763.162 235.34 518.094 237.473 273.34 237.473C236.774 237.473 200.959 241.739 164.544 241.739C128.415 241.739 92.9895 243.873 56.8142 243.873C18.3761 243.873 -20.0619 243.873 -58.5 243.873" stroke="black" stroke-opacity="0.5" stroke-width="3" stroke-linecap="round"/>
<path d="M1018.79 307.87C793.438 307.87 567.472 310.003 341.84 310.003C249.928 310.003 157.66 316.403 65.7019 316.403C39.0757 316.403 12.4496 316.403 -14.1766 316.403C-26.6478 316.403 -43.5707 315.338 -54.2344 320.67" stroke="black" stroke-opacity="0.5" stroke-width="3" stroke-linecap="round"/>
<path d="M-62.7695 329.203C119.545 329.203 301.859 329.203 484.173 329.203C523.505 329.203 563.996 326.533 602.806 319.603C637.07 313.485 674.01 320.67 708.402 320.67C778.978 320.67 848.115 327.07 918.527 327.07" stroke="black" stroke-opacity="0.5" stroke-width="3" stroke-linecap="round"/>
<path d="M1050.79 781.453C1025.06 781.831 999.909 785.719 973.994 785.719C937.254 785.719 900.515 785.719 863.776 785.719C778.208 785.719 692.641 785.719 607.074 785.719C545.21 785.719 483.345 785.719 421.481 785.719C379.103 785.719 334.278 781.651 292.419 787.852C271.937 790.887 250.218 792.119 229.488 792.119C208.622 792.119 188.99 794.322 168.572 796.267C135.729 799.395 101.474 802.785 68.4274 802.785C21.923 802.785 -24.5915 809.185 -71.3008 809.185" stroke="black" stroke-opacity="0.5" stroke-width="3" stroke-linecap="round"/>
<path d="M-65.3633 798.392C91.6934 798.392 248.999 797.87 405.762 800.885C445.282 801.645 484.78 805.87 524.444 805.87C560.496 805.87 596.548 805.87 632.6 805.87C696.58 805.87 760.56 805.87 824.54 805.87" stroke="black" stroke-opacity="0.5" stroke-width="3" stroke-linecap="round"/>
<path d="M-65.3633 544.134C-5.07622 544.134 55.2108 544.134 115.498 544.134C194.283 544.134 275.705 549.877 353.969 539.702C479.54 523.378 606.338 529.795 732.863 529.178C841.485 528.648 950.167 526.685 1058.86 526.685" stroke="black" stroke-opacity="0.5" stroke-width="3" stroke-linecap="round"/>
<path d="M918.527 327.069C957.344 323.188 995.258 327.069 1033.72 327.069" stroke="black" stroke-opacity="0.5" stroke-width="3" stroke-linecap="round"/>
<path d="M991.555 800.885C1016.15 800.885 1038.98 795.899 1063.84 795.899" stroke="black" stroke-opacity="0.5" stroke-width="3" stroke-linecap="round"/>
</g>
<defs>
<clipPath id="clip0_42_682">
<rect width="1024" height="1024" fill="white"/>
</clipPath>
</defs>
</svg>
