<svg width="1024" height="1024" viewBox="0 0 1024 1024" fill="none" xmlns="http://www.w3.org/2000/svg">
<path d="M257.534 193V182.091H259.21V193H257.534ZM258.386 180.273C258.06 180.273 257.778 180.161 257.541 179.939C257.309 179.716 257.193 179.449 257.193 179.136C257.193 178.824 257.309 178.556 257.541 178.334C257.778 178.111 258.06 178 258.386 178C258.713 178 258.992 178.111 259.224 178.334C259.461 178.556 259.58 178.824 259.58 179.136C259.58 179.449 259.461 179.716 259.224 179.939C258.992 180.161 258.713 180.273 258.386 180.273ZM272.309 197.318C271.499 197.318 270.803 197.214 270.221 197.006C269.638 196.802 269.153 196.532 268.765 196.196C268.381 195.865 268.076 195.509 267.848 195.131L269.184 194.193C269.335 194.392 269.527 194.619 269.759 194.875C269.991 195.135 270.308 195.36 270.711 195.55C271.118 195.744 271.65 195.841 272.309 195.841C273.189 195.841 273.916 195.628 274.489 195.202C275.062 194.776 275.348 194.108 275.348 193.199V190.983H275.206C275.083 191.182 274.908 191.428 274.681 191.722C274.458 192.01 274.136 192.268 273.715 192.496C273.298 192.718 272.735 192.83 272.025 192.83C271.144 192.83 270.353 192.621 269.652 192.205C268.956 191.788 268.405 191.182 267.998 190.386C267.595 189.591 267.394 188.625 267.394 187.489C267.394 186.371 267.59 185.398 267.983 184.57C268.376 183.736 268.923 183.092 269.624 182.638C270.325 182.179 271.134 181.949 272.053 181.949C272.763 181.949 273.327 182.067 273.743 182.304C274.165 182.536 274.487 182.801 274.709 183.099C274.936 183.393 275.112 183.634 275.235 183.824H275.405V182.091H277.025V193.312C277.025 194.25 276.811 195.012 276.385 195.599C275.964 196.191 275.396 196.625 274.681 196.899C273.971 197.179 273.18 197.318 272.309 197.318ZM272.252 191.324C272.924 191.324 273.492 191.17 273.956 190.862C274.42 190.554 274.773 190.112 275.015 189.534C275.256 188.956 275.377 188.265 275.377 187.46C275.377 186.674 275.258 185.981 275.022 185.379C274.785 184.778 274.435 184.307 273.971 183.966C273.507 183.625 272.934 183.455 272.252 183.455C271.542 183.455 270.95 183.634 270.476 183.994C270.007 184.354 269.655 184.837 269.418 185.443C269.186 186.049 269.07 186.722 269.07 187.46C269.07 188.218 269.188 188.888 269.425 189.47C269.667 190.048 270.022 190.502 270.49 190.834C270.964 191.161 271.551 191.324 272.252 191.324ZM284.525 193.227C283.54 193.227 282.676 192.993 281.932 192.524C281.194 192.055 280.616 191.4 280.199 190.557C279.787 189.714 279.581 188.729 279.581 187.602C279.581 186.466 279.787 185.474 280.199 184.626C280.616 183.779 281.194 183.121 281.932 182.652C282.676 182.183 283.54 181.949 284.525 181.949C285.509 181.949 286.371 182.183 287.11 182.652C287.853 183.121 288.431 183.779 288.843 184.626C289.259 185.474 289.468 186.466 289.468 187.602C289.468 188.729 289.259 189.714 288.843 190.557C288.431 191.4 287.853 192.055 287.11 192.524C286.371 192.993 285.509 193.227 284.525 193.227ZM284.525 191.722C285.273 191.722 285.888 191.53 286.371 191.146C286.854 190.763 287.212 190.259 287.444 189.634C287.676 189.009 287.792 188.331 287.792 187.602C287.792 186.873 287.676 186.194 287.444 185.564C287.212 184.934 286.854 184.425 286.371 184.037C285.888 183.649 285.273 183.455 284.525 183.455C283.776 183.455 283.161 183.649 282.678 184.037C282.195 184.425 281.837 184.934 281.605 185.564C281.373 186.194 281.257 186.873 281.257 187.602C281.257 188.331 281.373 189.009 281.605 189.634C281.837 190.259 282.195 190.763 282.678 191.146C283.161 191.53 283.776 191.722 284.525 191.722ZM296.771 182.091V183.511H291.117V182.091H296.771ZM292.765 179.477H294.441V189.875C294.441 190.348 294.51 190.704 294.647 190.94C294.789 191.172 294.969 191.329 295.187 191.409C295.409 191.485 295.644 191.523 295.89 191.523C296.075 191.523 296.226 191.513 296.344 191.494C296.463 191.471 296.558 191.452 296.629 191.438L296.969 192.943C296.856 192.986 296.697 193.028 296.494 193.071C296.29 193.118 296.032 193.142 295.719 193.142C295.246 193.142 294.782 193.04 294.327 192.837C293.878 192.633 293.504 192.323 293.205 191.906C292.912 191.49 292.765 190.964 292.765 190.33V179.477ZM304.036 182.091V183.511H298.383V182.091H304.036ZM300.031 179.477H301.707V189.875C301.707 190.348 301.775 190.704 301.913 190.94C302.055 191.172 302.235 191.329 302.452 191.409C302.675 191.485 302.909 191.523 303.156 191.523C303.34 191.523 303.492 191.513 303.61 191.494C303.728 191.471 303.823 191.452 303.894 191.438L304.235 192.943C304.121 192.986 303.963 193.028 303.759 193.071C303.556 193.118 303.298 193.142 302.985 193.142C302.512 193.142 302.048 193.04 301.593 192.837C301.143 192.633 300.769 192.323 300.471 191.906C300.177 191.49 300.031 190.964 300.031 190.33V179.477ZM309.768 193.256C309.076 193.256 308.449 193.125 307.886 192.865C307.322 192.6 306.875 192.219 306.543 191.722C306.212 191.22 306.046 190.614 306.046 189.903C306.046 189.278 306.169 188.772 306.415 188.384C306.662 187.991 306.991 187.683 307.403 187.46C307.815 187.238 308.269 187.072 308.766 186.963C309.268 186.849 309.772 186.759 310.279 186.693C310.942 186.608 311.479 186.544 311.891 186.501C312.308 186.454 312.611 186.376 312.8 186.267C312.995 186.158 313.092 185.969 313.092 185.699V185.642C313.092 184.941 312.9 184.397 312.516 184.009C312.138 183.62 311.562 183.426 310.79 183.426C309.99 183.426 309.363 183.601 308.908 183.952C308.454 184.302 308.134 184.676 307.95 185.074L306.359 184.506C306.643 183.843 307.022 183.327 307.495 182.957C307.973 182.583 308.494 182.323 309.058 182.176C309.626 182.025 310.184 181.949 310.734 181.949C311.084 181.949 311.487 181.991 311.941 182.077C312.4 182.157 312.843 182.325 313.269 182.581C313.7 182.837 314.058 183.223 314.342 183.739C314.626 184.255 314.768 184.946 314.768 185.812V193H313.092V191.523H313.006C312.893 191.759 312.703 192.013 312.438 192.283C312.173 192.553 311.82 192.782 311.38 192.972C310.94 193.161 310.402 193.256 309.768 193.256ZM310.023 191.75C310.686 191.75 311.245 191.62 311.7 191.359C312.159 191.099 312.504 190.763 312.737 190.351C312.973 189.939 313.092 189.506 313.092 189.051V187.517C313.021 187.602 312.864 187.68 312.623 187.751C312.386 187.818 312.112 187.877 311.799 187.929C311.491 187.976 311.191 188.019 310.897 188.057C310.608 188.09 310.374 188.118 310.194 188.142C309.758 188.199 309.351 188.291 308.972 188.419C308.598 188.542 308.295 188.729 308.063 188.98C307.836 189.226 307.722 189.562 307.722 189.989C307.722 190.571 307.938 191.011 308.369 191.31C308.804 191.603 309.356 191.75 310.023 191.75ZM327.855 197.318C327.046 197.318 326.35 197.214 325.767 197.006C325.185 196.802 324.7 196.532 324.311 196.196C323.928 195.865 323.623 195.509 323.395 195.131L324.73 194.193C324.882 194.392 325.074 194.619 325.306 194.875C325.538 195.135 325.855 195.36 326.257 195.55C326.665 195.744 327.197 195.841 327.855 195.841C328.736 195.841 329.463 195.628 330.036 195.202C330.609 194.776 330.895 194.108 330.895 193.199V190.983H330.753C330.63 191.182 330.455 191.428 330.228 191.722C330.005 192.01 329.683 192.268 329.262 192.496C328.845 192.718 328.282 192.83 327.571 192.83C326.691 192.83 325.9 192.621 325.199 192.205C324.503 191.788 323.952 191.182 323.544 190.386C323.142 189.591 322.941 188.625 322.941 187.489C322.941 186.371 323.137 185.398 323.53 184.57C323.923 183.736 324.47 183.092 325.171 182.638C325.872 182.179 326.681 181.949 327.6 181.949C328.31 181.949 328.873 182.067 329.29 182.304C329.712 182.536 330.033 182.801 330.256 183.099C330.483 183.393 330.658 183.634 330.782 183.824H330.952V182.091H332.571V193.312C332.571 194.25 332.358 195.012 331.932 195.599C331.511 196.191 330.943 196.625 330.228 196.899C329.517 197.179 328.727 197.318 327.855 197.318ZM327.799 191.324C328.471 191.324 329.039 191.17 329.503 190.862C329.967 190.554 330.32 190.112 330.561 189.534C330.803 188.956 330.924 188.265 330.924 187.46C330.924 186.674 330.805 185.981 330.569 185.379C330.332 184.778 329.981 184.307 329.517 183.966C329.053 183.625 328.48 183.455 327.799 183.455C327.088 183.455 326.497 183.634 326.023 183.994C325.554 184.354 325.202 184.837 324.965 185.443C324.733 186.049 324.617 186.722 324.617 187.46C324.617 188.218 324.735 188.888 324.972 189.47C325.213 190.048 325.569 190.502 326.037 190.834C326.511 191.161 327.098 191.324 327.799 191.324ZM340.071 193.227C339.087 193.227 338.222 192.993 337.479 192.524C336.74 192.055 336.163 191.4 335.746 190.557C335.334 189.714 335.128 188.729 335.128 187.602C335.128 186.466 335.334 185.474 335.746 184.626C336.163 183.779 336.74 183.121 337.479 182.652C338.222 182.183 339.087 181.949 340.071 181.949C341.056 181.949 341.918 182.183 342.657 182.652C343.4 183.121 343.978 183.779 344.39 184.626C344.806 185.474 345.015 186.466 345.015 187.602C345.015 188.729 344.806 189.714 344.39 190.557C343.978 191.4 343.4 192.055 342.657 192.524C341.918 192.993 341.056 193.227 340.071 193.227ZM340.071 191.722C340.819 191.722 341.435 191.53 341.918 191.146C342.401 190.763 342.758 190.259 342.99 189.634C343.222 189.009 343.338 188.331 343.338 187.602C343.338 186.873 343.222 186.194 342.99 185.564C342.758 184.934 342.401 184.425 341.918 184.037C341.435 183.649 340.819 183.455 340.071 183.455C339.323 183.455 338.708 183.649 338.225 184.037C337.742 184.425 337.384 184.934 337.152 185.564C336.92 186.194 336.804 186.873 336.804 187.602C336.804 188.331 336.92 189.009 337.152 189.634C337.384 190.259 337.742 190.763 338.225 191.146C338.708 191.53 339.323 191.722 340.071 191.722ZM354.874 186.438V193H353.198V178.455H354.874V183.795H355.016C355.272 183.232 355.656 182.785 356.167 182.453C356.683 182.117 357.37 181.949 358.227 181.949C358.97 181.949 359.621 182.098 360.18 182.396C360.738 182.69 361.172 183.142 361.479 183.753C361.792 184.359 361.948 185.131 361.948 186.068V193H360.272V186.182C360.272 185.315 360.047 184.645 359.597 184.172C359.152 183.694 358.534 183.455 357.744 183.455C357.194 183.455 356.702 183.571 356.266 183.803C355.835 184.035 355.495 184.373 355.244 184.818C354.997 185.263 354.874 185.803 354.874 186.438ZM369.446 193.227C368.462 193.227 367.597 192.993 366.854 192.524C366.115 192.055 365.538 191.4 365.121 190.557C364.709 189.714 364.503 188.729 364.503 187.602C364.503 186.466 364.709 185.474 365.121 184.626C365.538 183.779 366.115 183.121 366.854 182.652C367.597 182.183 368.462 181.949 369.446 181.949C370.431 181.949 371.293 182.183 372.032 182.652C372.775 183.121 373.353 183.779 373.765 184.626C374.181 185.474 374.39 186.466 374.39 187.602C374.39 188.729 374.181 189.714 373.765 190.557C373.353 191.4 372.775 192.055 372.032 192.524C371.293 192.993 370.431 193.227 369.446 193.227ZM369.446 191.722C370.194 191.722 370.81 191.53 371.293 191.146C371.776 190.763 372.133 190.259 372.365 189.634C372.597 189.009 372.713 188.331 372.713 187.602C372.713 186.873 372.597 186.194 372.365 185.564C372.133 184.934 371.776 184.425 371.293 184.037C370.81 183.649 370.194 183.455 369.446 183.455C368.698 183.455 368.083 183.649 367.6 184.037C367.117 184.425 366.759 184.934 366.527 185.564C366.295 186.194 366.179 186.873 366.179 187.602C366.179 188.331 366.295 189.009 366.527 189.634C366.759 190.259 367.117 190.763 367.6 191.146C368.083 191.53 368.698 191.722 369.446 191.722ZM376.948 193V182.091H378.567V183.795H378.71C378.937 183.213 379.304 182.761 379.81 182.439C380.317 182.112 380.925 181.949 381.636 181.949C382.355 181.949 382.954 182.112 383.433 182.439C383.915 182.761 384.292 183.213 384.562 183.795H384.675C384.955 183.232 385.374 182.785 385.933 182.453C386.491 182.117 387.161 181.949 387.942 181.949C388.918 181.949 389.716 182.254 390.336 182.865C390.956 183.471 391.266 184.416 391.266 185.699V193H389.59V185.699C389.59 184.894 389.37 184.319 388.93 183.973C388.489 183.627 387.971 183.455 387.374 183.455C386.607 183.455 386.013 183.687 385.592 184.151C385.17 184.61 384.96 185.192 384.96 185.898V193H383.255V185.528C383.255 184.908 383.054 184.409 382.651 184.03C382.249 183.646 381.73 183.455 381.096 183.455C380.66 183.455 380.253 183.571 379.874 183.803C379.5 184.035 379.197 184.357 378.965 184.768C378.738 185.176 378.624 185.647 378.624 186.182V193H376.948ZM398.905 193.227C397.854 193.227 396.947 192.995 396.185 192.531C395.427 192.062 394.842 191.409 394.43 190.571C394.023 189.728 393.82 188.748 393.82 187.631C393.82 186.513 394.023 185.528 394.43 184.676C394.842 183.819 395.415 183.152 396.149 182.673C396.888 182.19 397.75 181.949 398.734 181.949C399.303 181.949 399.864 182.044 400.418 182.233C400.972 182.422 401.476 182.73 401.93 183.156C402.385 183.578 402.747 184.136 403.017 184.832C403.287 185.528 403.422 186.385 403.422 187.403V188.114H395.013V186.665H401.717C401.717 186.049 401.594 185.5 401.348 185.017C401.107 184.534 400.761 184.153 400.311 183.874C399.866 183.594 399.34 183.455 398.734 183.455C398.067 183.455 397.489 183.62 397.001 183.952C396.518 184.278 396.147 184.705 395.886 185.23C395.626 185.756 395.496 186.319 395.496 186.92V187.886C395.496 188.71 395.638 189.409 395.922 189.982C396.211 190.55 396.611 190.983 397.122 191.281C397.634 191.575 398.228 191.722 398.905 191.722C399.345 191.722 399.743 191.66 400.098 191.537C400.458 191.409 400.768 191.22 401.028 190.969C401.289 190.713 401.49 190.396 401.632 190.017L403.251 190.472C403.081 191.021 402.795 191.504 402.392 191.92C401.99 192.332 401.492 192.654 400.901 192.886C400.309 193.114 399.643 193.227 398.905 193.227Z" fill="black"/>
<path d="M133.21 313.438V320H131.534V305.455H133.21V310.795H133.352C133.608 310.232 133.991 309.785 134.503 309.453C135.019 309.117 135.705 308.949 136.562 308.949C137.306 308.949 137.957 309.098 138.516 309.396C139.074 309.69 139.508 310.142 139.815 310.753C140.128 311.359 140.284 312.131 140.284 313.068V320H138.608V313.182C138.608 312.315 138.383 311.645 137.933 311.172C137.488 310.694 136.87 310.455 136.08 310.455C135.53 310.455 135.038 310.571 134.602 310.803C134.171 311.035 133.83 311.373 133.58 311.818C133.333 312.263 133.21 312.803 133.21 313.438ZM147.924 320.227C146.873 320.227 145.967 319.995 145.204 319.531C144.447 319.062 143.862 318.409 143.45 317.571C143.043 316.728 142.839 315.748 142.839 314.631C142.839 313.513 143.043 312.528 143.45 311.676C143.862 310.819 144.435 310.152 145.169 309.673C145.907 309.19 146.769 308.949 147.754 308.949C148.322 308.949 148.883 309.044 149.437 309.233C149.991 309.422 150.495 309.73 150.95 310.156C151.404 310.578 151.767 311.136 152.037 311.832C152.306 312.528 152.441 313.385 152.441 314.403V315.114H144.032V313.665H150.737C150.737 313.049 150.614 312.5 150.368 312.017C150.126 311.534 149.78 311.153 149.331 310.874C148.886 310.594 148.36 310.455 147.754 310.455C147.086 310.455 146.509 310.62 146.021 310.952C145.538 311.278 145.166 311.705 144.906 312.23C144.645 312.756 144.515 313.319 144.515 313.92V314.886C144.515 315.71 144.657 316.409 144.941 316.982C145.23 317.55 145.63 317.983 146.142 318.281C146.653 318.575 147.247 318.722 147.924 318.722C148.365 318.722 148.762 318.66 149.118 318.537C149.477 318.409 149.788 318.22 150.048 317.969C150.308 317.713 150.51 317.396 150.652 317.017L152.271 317.472C152.1 318.021 151.814 318.504 151.412 318.92C151.009 319.332 150.512 319.654 149.92 319.886C149.328 320.114 148.663 320.227 147.924 320.227ZM155.739 324.091C155.455 324.091 155.201 324.067 154.979 324.02C154.756 323.977 154.602 323.935 154.517 323.892L154.943 322.415C155.35 322.519 155.71 322.557 156.023 322.528C156.335 322.5 156.612 322.36 156.854 322.109C157.1 321.863 157.325 321.463 157.528 320.909L157.841 320.057L153.807 309.091H155.625L158.636 317.784H158.75L161.761 309.091H163.58L158.949 321.591C158.741 322.154 158.482 322.621 158.175 322.99C157.867 323.364 157.509 323.641 157.102 323.821C156.7 324.001 156.245 324.091 155.739 324.091ZM175.849 320.227C174.826 320.227 173.945 319.986 173.207 319.503C172.468 319.02 171.9 318.355 171.502 317.507C171.104 316.66 170.906 315.691 170.906 314.602C170.906 313.494 171.109 312.517 171.516 311.669C171.928 310.817 172.501 310.152 173.235 309.673C173.974 309.19 174.835 308.949 175.82 308.949C176.587 308.949 177.279 309.091 177.894 309.375C178.51 309.659 179.014 310.057 179.407 310.568C179.8 311.08 180.044 311.676 180.138 312.358H178.462C178.335 311.861 178.05 311.42 177.61 311.037C177.174 310.649 176.587 310.455 175.849 310.455C175.195 310.455 174.622 310.625 174.13 310.966C173.642 311.302 173.261 311.778 172.987 312.393C172.717 313.004 172.582 313.722 172.582 314.545C172.582 315.388 172.714 316.122 172.979 316.747C173.249 317.372 173.628 317.857 174.116 318.203C174.608 318.549 175.186 318.722 175.849 318.722C176.284 318.722 176.68 318.646 177.035 318.494C177.39 318.343 177.691 318.125 177.937 317.841C178.183 317.557 178.358 317.216 178.462 316.818H180.138C180.044 317.462 179.809 318.042 179.435 318.558C179.066 319.07 178.576 319.477 177.965 319.78C177.359 320.078 176.654 320.227 175.849 320.227ZM187.021 320.227C186.036 320.227 185.172 319.993 184.428 319.524C183.69 319.055 183.112 318.4 182.695 317.557C182.283 316.714 182.077 315.729 182.077 314.602C182.077 313.466 182.283 312.474 182.695 311.626C183.112 310.779 183.69 310.121 184.428 309.652C185.172 309.183 186.036 308.949 187.021 308.949C188.005 308.949 188.867 309.183 189.606 309.652C190.349 310.121 190.927 310.779 191.339 311.626C191.755 312.474 191.964 313.466 191.964 314.602C191.964 315.729 191.755 316.714 191.339 317.557C190.927 318.4 190.349 319.055 189.606 319.524C188.867 319.993 188.005 320.227 187.021 320.227ZM187.021 318.722C187.769 318.722 188.384 318.53 188.867 318.146C189.35 317.763 189.708 317.259 189.94 316.634C190.172 316.009 190.288 315.331 190.288 314.602C190.288 313.873 190.172 313.194 189.94 312.564C189.708 311.934 189.35 311.425 188.867 311.037C188.384 310.649 187.769 310.455 187.021 310.455C186.272 310.455 185.657 310.649 185.174 311.037C184.691 311.425 184.334 311.934 184.102 312.564C183.87 313.194 183.754 313.873 183.754 314.602C183.754 315.331 183.87 316.009 184.102 316.634C184.334 317.259 184.691 317.763 185.174 318.146C185.657 318.53 186.272 318.722 187.021 318.722ZM194.522 320V309.091H196.142V310.795H196.284C196.511 310.213 196.878 309.761 197.385 309.439C197.891 309.112 198.5 308.949 199.21 308.949C199.93 308.949 200.529 309.112 201.007 309.439C201.49 309.761 201.866 310.213 202.136 310.795H202.25C202.529 310.232 202.948 309.785 203.507 309.453C204.065 309.117 204.735 308.949 205.517 308.949C206.492 308.949 207.29 309.254 207.91 309.865C208.53 310.471 208.841 311.416 208.841 312.699V320H207.164V312.699C207.164 311.894 206.944 311.319 206.504 310.973C206.064 310.627 205.545 310.455 204.949 310.455C204.181 310.455 203.587 310.687 203.166 311.151C202.744 311.61 202.534 312.192 202.534 312.898V320H200.829V312.528C200.829 311.908 200.628 311.409 200.225 311.03C199.823 310.646 199.305 310.455 198.67 310.455C198.234 310.455 197.827 310.571 197.449 310.803C197.074 311.035 196.771 311.357 196.539 311.768C196.312 312.176 196.199 312.647 196.199 313.182V320H194.522ZM216.479 320.227C215.428 320.227 214.521 319.995 213.759 319.531C213.001 319.062 212.417 318.409 212.005 317.571C211.597 316.728 211.394 315.748 211.394 314.631C211.394 313.513 211.597 312.528 212.005 311.676C212.417 310.819 212.989 310.152 213.723 309.673C214.462 309.19 215.324 308.949 216.309 308.949C216.877 308.949 217.438 309.044 217.992 309.233C218.546 309.422 219.05 309.73 219.505 310.156C219.959 310.578 220.321 311.136 220.591 311.832C220.861 312.528 220.996 313.385 220.996 314.403V315.114H212.587V313.665H219.292C219.292 313.049 219.168 312.5 218.922 312.017C218.681 311.534 218.335 311.153 217.885 310.874C217.44 310.594 216.915 310.455 216.309 310.455C215.641 310.455 215.063 310.62 214.576 310.952C214.093 311.278 213.721 311.705 213.461 312.23C213.2 312.756 213.07 313.319 213.07 313.92V314.886C213.07 315.71 213.212 316.409 213.496 316.982C213.785 317.55 214.185 317.983 214.696 318.281C215.208 318.575 215.802 318.722 216.479 318.722C216.919 318.722 217.317 318.66 217.672 318.537C218.032 318.409 218.342 318.22 218.603 317.969C218.863 317.713 219.064 317.396 219.206 317.017L220.826 317.472C220.655 318.021 220.369 318.504 219.966 318.92C219.564 319.332 219.067 319.654 218.475 319.886C217.883 320.114 217.218 320.227 216.479 320.227ZM233.603 320.227C232.618 320.227 231.754 319.993 231.01 319.524C230.272 319.055 229.694 318.4 229.277 317.557C228.865 316.714 228.659 315.729 228.659 314.602C228.659 313.466 228.865 312.474 229.277 311.626C229.694 310.779 230.272 310.121 231.01 309.652C231.754 309.183 232.618 308.949 233.603 308.949C234.587 308.949 235.449 309.183 236.188 309.652C236.931 310.121 237.509 310.779 237.921 311.626C238.337 312.474 238.546 313.466 238.546 314.602C238.546 315.729 238.337 316.714 237.921 317.557C237.509 318.4 236.931 319.055 236.188 319.524C235.449 319.993 234.587 320.227 233.603 320.227ZM233.603 318.722C234.351 318.722 234.966 318.53 235.449 318.146C235.932 317.763 236.29 317.259 236.522 316.634C236.754 316.009 236.87 315.331 236.87 314.602C236.87 313.873 236.754 313.194 236.522 312.564C236.29 311.934 235.932 311.425 235.449 311.037C234.966 310.649 234.351 310.455 233.603 310.455C232.855 310.455 232.239 310.649 231.756 311.037C231.273 311.425 230.916 311.934 230.684 312.564C230.452 313.194 230.336 313.873 230.336 314.602C230.336 315.331 230.452 316.009 230.684 316.634C230.916 317.259 231.273 317.763 231.756 318.146C232.239 318.53 232.855 318.722 233.603 318.722ZM242.781 313.438V320H241.104V309.091H242.724V310.795H242.866C243.121 310.241 243.51 309.796 244.031 309.46C244.551 309.119 245.224 308.949 246.048 308.949C246.786 308.949 247.433 309.1 247.987 309.403C248.54 309.702 248.971 310.156 249.279 310.767C249.587 311.373 249.741 312.14 249.741 313.068V320H248.065V313.182C248.065 312.325 247.842 311.657 247.397 311.179C246.952 310.696 246.341 310.455 245.565 310.455C245.03 310.455 244.551 310.571 244.13 310.803C243.713 311.035 243.384 311.373 243.143 311.818C242.901 312.263 242.781 312.803 242.781 313.438ZM255.304 318.011L255.19 318.778C255.109 319.318 254.986 319.896 254.821 320.511C254.66 321.127 254.492 321.707 254.316 322.251C254.141 322.796 253.997 323.229 253.883 323.551H252.605C252.666 323.248 252.747 322.848 252.846 322.351C252.946 321.854 253.045 321.297 253.145 320.682C253.249 320.071 253.334 319.446 253.4 318.807L253.485 318.011H255.304ZM271.761 311.534L270.256 311.96C270.161 311.709 270.021 311.465 269.837 311.229C269.657 310.987 269.411 310.788 269.098 310.632C268.786 310.476 268.385 310.398 267.898 310.398C267.23 310.398 266.674 310.552 266.229 310.859C265.788 311.162 265.568 311.548 265.568 312.017C265.568 312.434 265.72 312.763 266.023 313.004C266.326 313.246 266.799 313.447 267.443 313.608L269.062 314.006C270.038 314.242 270.765 314.605 271.243 315.092C271.721 315.575 271.96 316.198 271.96 316.96C271.96 317.585 271.78 318.144 271.42 318.636C271.065 319.129 270.568 319.517 269.929 319.801C269.29 320.085 268.546 320.227 267.699 320.227C266.586 320.227 265.665 319.986 264.936 319.503C264.207 319.02 263.745 318.314 263.551 317.386L265.142 316.989C265.294 317.576 265.58 318.016 266.001 318.31C266.428 318.603 266.984 318.75 267.67 318.75C268.452 318.75 269.072 318.584 269.531 318.253C269.995 317.917 270.227 317.514 270.227 317.045C270.227 316.667 270.095 316.349 269.83 316.094C269.564 315.833 269.157 315.639 268.608 315.511L266.79 315.085C265.791 314.848 265.057 314.482 264.588 313.984C264.124 313.482 263.892 312.855 263.892 312.102C263.892 311.487 264.065 310.942 264.411 310.469C264.761 309.995 265.237 309.624 265.838 309.354C266.444 309.084 267.131 308.949 267.898 308.949C268.977 308.949 269.825 309.186 270.44 309.659C271.061 310.133 271.501 310.758 271.761 311.534ZM279.228 309.091V310.511H273.574V309.091H279.228ZM275.222 306.477H276.898V316.875C276.898 317.348 276.967 317.704 277.104 317.94C277.246 318.172 277.426 318.329 277.644 318.409C277.866 318.485 278.101 318.523 278.347 318.523C278.532 318.523 278.683 318.513 278.801 318.494C278.92 318.471 279.015 318.452 279.086 318.438L279.426 319.943C279.313 319.986 279.154 320.028 278.951 320.071C278.747 320.118 278.489 320.142 278.176 320.142C277.703 320.142 277.239 320.04 276.784 319.837C276.335 319.633 275.961 319.323 275.662 318.906C275.369 318.49 275.222 317.964 275.222 317.33V306.477ZM284.959 320.256C284.268 320.256 283.641 320.125 283.077 319.865C282.514 319.6 282.066 319.219 281.735 318.722C281.403 318.22 281.238 317.614 281.238 316.903C281.238 316.278 281.361 315.772 281.607 315.384C281.853 314.991 282.182 314.683 282.594 314.46C283.006 314.238 283.461 314.072 283.958 313.963C284.46 313.849 284.964 313.759 285.471 313.693C286.133 313.608 286.671 313.544 287.083 313.501C287.499 313.454 287.802 313.376 287.992 313.267C288.186 313.158 288.283 312.969 288.283 312.699V312.642C288.283 311.941 288.091 311.397 287.708 311.009C287.329 310.62 286.754 310.426 285.982 310.426C285.182 310.426 284.554 310.601 284.1 310.952C283.645 311.302 283.326 311.676 283.141 312.074L281.55 311.506C281.834 310.843 282.213 310.327 282.686 309.957C283.165 309.583 283.685 309.323 284.249 309.176C284.817 309.025 285.376 308.949 285.925 308.949C286.275 308.949 286.678 308.991 287.132 309.077C287.592 309.157 288.034 309.325 288.461 309.581C288.891 309.837 289.249 310.223 289.533 310.739C289.817 311.255 289.959 311.946 289.959 312.812V320H288.283V318.523H288.198C288.084 318.759 287.895 319.013 287.63 319.283C287.364 319.553 287.012 319.782 286.571 319.972C286.131 320.161 285.594 320.256 284.959 320.256ZM285.215 318.75C285.878 318.75 286.436 318.62 286.891 318.359C287.35 318.099 287.696 317.763 287.928 317.351C288.165 316.939 288.283 316.506 288.283 316.051V314.517C288.212 314.602 288.056 314.68 287.814 314.751C287.578 314.818 287.303 314.877 286.99 314.929C286.683 314.976 286.382 315.019 286.088 315.057C285.8 315.09 285.565 315.118 285.385 315.142C284.95 315.199 284.542 315.291 284.164 315.419C283.79 315.542 283.487 315.729 283.255 315.98C283.027 316.226 282.914 316.562 282.914 316.989C282.914 317.571 283.129 318.011 283.56 318.31C283.996 318.603 284.547 318.75 285.215 318.75ZM293.707 324.091C293.423 324.091 293.17 324.067 292.947 324.02C292.725 323.977 292.571 323.935 292.486 323.892L292.912 322.415C293.319 322.519 293.679 322.557 293.991 322.528C294.304 322.5 294.581 322.36 294.822 322.109C295.069 321.863 295.294 321.463 295.497 320.909L295.81 320.057L291.776 309.091H293.594L296.605 317.784H296.719L299.73 309.091H301.548L296.918 321.591C296.709 322.154 296.451 322.621 296.143 322.99C295.836 323.364 295.478 323.641 295.071 323.821C294.669 324.001 294.214 324.091 293.707 324.091ZM312.596 320.256C311.905 320.256 311.277 320.125 310.714 319.865C310.15 319.6 309.703 319.219 309.371 318.722C309.04 318.22 308.874 317.614 308.874 316.903C308.874 316.278 308.997 315.772 309.244 315.384C309.49 314.991 309.819 314.683 310.231 314.46C310.643 314.238 311.097 314.072 311.594 313.963C312.096 313.849 312.601 313.759 313.107 313.693C313.77 313.608 314.308 313.544 314.719 313.501C315.136 313.454 315.439 313.376 315.629 313.267C315.823 313.158 315.92 312.969 315.92 312.699V312.642C315.92 311.941 315.728 311.397 315.344 311.009C314.966 310.62 314.39 310.426 313.619 310.426C312.818 310.426 312.191 310.601 311.737 310.952C311.282 311.302 310.962 311.676 310.778 312.074L309.187 311.506C309.471 310.843 309.85 310.327 310.323 309.957C310.801 309.583 311.322 309.323 311.886 309.176C312.454 309.025 313.013 308.949 313.562 308.949C313.912 308.949 314.315 308.991 314.769 309.077C315.228 309.157 315.671 309.325 316.097 309.581C316.528 309.837 316.886 310.223 317.17 310.739C317.454 311.255 317.596 311.946 317.596 312.812V320H315.92V318.523H315.835C315.721 318.759 315.531 319.013 315.266 319.283C315.001 319.553 314.648 319.782 314.208 319.972C313.768 320.161 313.23 320.256 312.596 320.256ZM312.852 318.75C313.514 318.75 314.073 318.62 314.528 318.359C314.987 318.099 315.333 317.763 315.565 317.351C315.801 316.939 315.92 316.506 315.92 316.051V314.517C315.849 314.602 315.692 314.68 315.451 314.751C315.214 314.818 314.94 314.877 314.627 314.929C314.319 314.976 314.019 315.019 313.725 315.057C313.436 315.09 313.202 315.118 313.022 315.142C312.586 315.199 312.179 315.291 311.8 315.419C311.426 315.542 311.123 315.729 310.891 315.98C310.664 316.226 310.55 316.562 310.55 316.989C310.55 317.571 310.766 318.011 311.197 318.31C311.632 318.603 312.184 318.75 312.852 318.75ZM326.507 320V305.455H328.184V310.824H328.326C328.449 310.634 328.619 310.393 328.837 310.099C329.06 309.801 329.377 309.536 329.789 309.304C330.205 309.067 330.769 308.949 331.479 308.949C332.398 308.949 333.207 309.179 333.908 309.638C334.609 310.097 335.156 310.748 335.549 311.591C335.942 312.434 336.138 313.428 336.138 314.574C336.138 315.729 335.942 316.731 335.549 317.578C335.156 318.421 334.611 319.074 333.915 319.538C333.219 319.998 332.417 320.227 331.507 320.227C330.807 320.227 330.246 320.111 329.824 319.879C329.403 319.643 329.078 319.375 328.851 319.077C328.624 318.774 328.449 318.523 328.326 318.324H328.127V320H326.507ZM328.155 314.545C328.155 315.369 328.276 316.096 328.517 316.726C328.759 317.351 329.112 317.841 329.576 318.196C330.04 318.546 330.608 318.722 331.28 318.722C331.981 318.722 332.566 318.537 333.034 318.168C333.508 317.794 333.863 317.292 334.1 316.662C334.341 316.027 334.462 315.322 334.462 314.545C334.462 313.778 334.344 313.087 334.107 312.472C333.875 311.851 333.522 311.361 333.049 311.001C332.58 310.637 331.99 310.455 331.28 310.455C330.598 310.455 330.025 310.627 329.561 310.973C329.097 311.314 328.747 311.792 328.51 312.408C328.274 313.018 328.155 313.731 328.155 314.545ZM338.702 320V309.091H340.378V320H338.702ZM339.554 307.273C339.228 307.273 338.946 307.161 338.709 306.939C338.477 306.716 338.361 306.449 338.361 306.136C338.361 305.824 338.477 305.556 338.709 305.334C338.946 305.111 339.228 305 339.554 305C339.881 305 340.16 305.111 340.392 305.334C340.629 305.556 340.748 305.824 340.748 306.136C340.748 306.449 340.629 306.716 340.392 306.939C340.16 307.161 339.881 307.273 339.554 307.273ZM348.192 309.091V310.511H342.539V309.091H348.192ZM344.187 306.477H345.863V316.875C345.863 317.348 345.932 317.704 346.069 317.94C346.211 318.172 346.391 318.329 346.609 318.409C346.831 318.485 347.066 318.523 347.312 318.523C347.496 318.523 347.648 318.513 347.766 318.494C347.885 318.471 347.979 318.452 348.05 318.438L348.391 319.943C348.278 319.986 348.119 320.028 347.915 320.071C347.712 320.118 347.454 320.142 347.141 320.142C346.668 320.142 346.204 320.04 345.749 319.837C345.299 319.633 344.925 319.323 344.627 318.906C344.334 318.49 344.187 317.964 344.187 317.33V306.477ZM358.015 305.455V320H356.339V305.455H358.015ZM365.517 320.227C364.532 320.227 363.668 319.993 362.924 319.524C362.186 319.055 361.608 318.4 361.191 317.557C360.779 316.714 360.574 315.729 360.574 314.602C360.574 313.466 360.779 312.474 361.191 311.626C361.608 310.779 362.186 310.121 362.924 309.652C363.668 309.183 364.532 308.949 365.517 308.949C366.502 308.949 367.363 309.183 368.102 309.652C368.845 310.121 369.423 310.779 369.835 311.626C370.252 312.474 370.46 313.466 370.46 314.602C370.46 315.729 370.252 316.714 369.835 317.557C369.423 318.4 368.845 319.055 368.102 319.524C367.363 319.993 366.502 320.227 365.517 320.227ZM365.517 318.722C366.265 318.722 366.88 318.53 367.363 318.146C367.846 317.763 368.204 317.259 368.436 316.634C368.668 316.009 368.784 315.331 368.784 314.602C368.784 313.873 368.668 313.194 368.436 312.564C368.204 311.934 367.846 311.425 367.363 311.037C366.88 310.649 366.265 310.455 365.517 310.455C364.769 310.455 364.153 310.649 363.67 311.037C363.187 311.425 362.83 311.934 362.598 312.564C362.366 313.194 362.25 313.873 362.25 314.602C362.25 315.331 362.366 316.009 362.598 316.634C362.83 317.259 363.187 317.763 363.67 318.146C364.153 318.53 364.769 318.722 365.517 318.722ZM374.695 313.438V320H373.018V309.091H374.638V310.795H374.78C375.036 310.241 375.424 309.796 375.945 309.46C376.465 309.119 377.138 308.949 377.962 308.949C378.7 308.949 379.347 309.1 379.901 309.403C380.455 309.702 380.885 310.156 381.193 310.767C381.501 311.373 381.655 312.14 381.655 313.068V320H379.979V313.182C379.979 312.325 379.756 311.657 379.311 311.179C378.866 310.696 378.255 310.455 377.479 310.455C376.944 310.455 376.465 310.571 376.044 310.803C375.627 311.035 375.298 311.373 375.057 311.818C374.815 312.263 374.695 312.803 374.695 313.438ZM389.121 324.318C388.311 324.318 387.615 324.214 387.033 324.006C386.451 323.802 385.965 323.532 385.577 323.196C385.194 322.865 384.888 322.509 384.661 322.131L385.996 321.193C386.148 321.392 386.339 321.619 386.571 321.875C386.803 322.135 387.121 322.36 387.523 322.55C387.93 322.744 388.463 322.841 389.121 322.841C390.002 322.841 390.729 322.628 391.301 322.202C391.874 321.776 392.161 321.108 392.161 320.199V317.983H392.019C391.896 318.182 391.721 318.428 391.493 318.722C391.271 319.01 390.949 319.268 390.527 319.496C390.111 319.718 389.547 319.83 388.837 319.83C387.956 319.83 387.166 319.621 386.465 319.205C385.769 318.788 385.217 318.182 384.81 317.386C384.408 316.591 384.206 315.625 384.206 314.489C384.206 313.371 384.403 312.398 384.796 311.57C385.189 310.736 385.736 310.092 386.436 309.638C387.137 309.179 387.947 308.949 388.865 308.949C389.576 308.949 390.139 309.067 390.556 309.304C390.977 309.536 391.299 309.801 391.522 310.099C391.749 310.393 391.924 310.634 392.047 310.824H392.218V309.091H393.837V320.312C393.837 321.25 393.624 322.012 393.198 322.599C392.776 323.191 392.208 323.625 391.493 323.899C390.783 324.179 389.992 324.318 389.121 324.318ZM389.064 318.324C389.737 318.324 390.305 318.17 390.769 317.862C391.233 317.554 391.586 317.112 391.827 316.534C392.069 315.956 392.189 315.265 392.189 314.46C392.189 313.674 392.071 312.981 391.834 312.379C391.597 311.778 391.247 311.307 390.783 310.966C390.319 310.625 389.746 310.455 389.064 310.455C388.354 310.455 387.762 310.634 387.289 310.994C386.82 311.354 386.467 311.837 386.23 312.443C385.998 313.049 385.882 313.722 385.882 314.46C385.882 315.218 386.001 315.888 386.238 316.47C386.479 317.048 386.834 317.502 387.303 317.834C387.776 318.161 388.364 318.324 389.064 318.324ZM401.479 320.227C400.428 320.227 399.521 319.995 398.759 319.531C398.001 319.062 397.417 318.409 397.005 317.571C396.597 316.728 396.394 315.748 396.394 314.631C396.394 313.513 396.597 312.528 397.005 311.676C397.417 310.819 397.989 310.152 398.723 309.673C399.462 309.19 400.324 308.949 401.309 308.949C401.877 308.949 402.438 309.044 402.992 309.233C403.546 309.422 404.05 309.73 404.505 310.156C404.959 310.578 405.321 311.136 405.591 311.832C405.861 312.528 405.996 313.385 405.996 314.403V315.114H397.587V313.665H404.292C404.292 313.049 404.168 312.5 403.922 312.017C403.681 311.534 403.335 311.153 402.885 310.874C402.44 310.594 401.915 310.455 401.309 310.455C400.641 310.455 400.063 310.62 399.576 310.952C399.093 311.278 398.721 311.705 398.461 312.23C398.2 312.756 398.07 313.319 398.07 313.92V314.886C398.07 315.71 398.212 316.409 398.496 316.982C398.785 317.55 399.185 317.983 399.696 318.281C400.208 318.575 400.802 318.722 401.479 318.722C401.919 318.722 402.317 318.66 402.672 318.537C403.032 318.409 403.342 318.22 403.603 317.969C403.863 317.713 404.064 317.396 404.206 317.017L405.826 317.472C405.655 318.021 405.369 318.504 404.966 318.92C404.564 319.332 404.067 319.654 403.475 319.886C402.883 320.114 402.218 320.227 401.479 320.227ZM408.546 320V309.091H410.165V310.739H410.279C410.478 310.199 410.837 309.761 411.358 309.425C411.879 309.089 412.466 308.92 413.12 308.92C413.243 308.92 413.397 308.923 413.581 308.928C413.766 308.932 413.906 308.939 414 308.949V310.653C413.944 310.639 413.813 310.618 413.61 310.589C413.411 310.556 413.2 310.54 412.978 310.54C412.447 310.54 411.974 310.651 411.557 310.874C411.145 311.091 410.819 311.394 410.577 311.783C410.34 312.166 410.222 312.604 410.222 313.097V320H408.546Z" fill="black"/>
<path d="M704.21 850.438V857H702.534V846.091H704.153V847.795H704.295C704.551 847.241 704.939 846.796 705.46 846.46C705.981 846.119 706.653 845.949 707.477 845.949C708.216 845.949 708.862 846.1 709.416 846.403C709.97 846.702 710.401 847.156 710.709 847.767C711.017 848.373 711.17 849.14 711.17 850.068V857H709.494V850.182C709.494 849.325 709.272 848.657 708.827 848.179C708.382 847.696 707.771 847.455 706.994 847.455C706.459 847.455 705.981 847.571 705.56 847.803C705.143 848.035 704.814 848.373 704.572 848.818C704.331 849.263 704.21 849.803 704.21 850.438ZM717.444 857.256C716.752 857.256 716.125 857.125 715.561 856.865C714.998 856.6 714.551 856.219 714.219 855.722C713.888 855.22 713.722 854.614 713.722 853.903C713.722 853.278 713.845 852.772 714.091 852.384C714.337 851.991 714.667 851.683 715.078 851.46C715.49 851.238 715.945 851.072 716.442 850.963C716.944 850.849 717.448 850.759 717.955 850.693C718.618 850.608 719.155 850.544 719.567 850.501C719.984 850.454 720.287 850.376 720.476 850.267C720.67 850.158 720.767 849.969 720.767 849.699V849.642C720.767 848.941 720.576 848.397 720.192 848.009C719.813 847.62 719.238 847.426 718.466 847.426C717.666 847.426 717.039 847.601 716.584 847.952C716.13 848.302 715.81 848.676 715.625 849.074L714.034 848.506C714.319 847.843 714.697 847.327 715.171 846.957C715.649 846.583 716.17 846.323 716.733 846.176C717.301 846.025 717.86 845.949 718.409 845.949C718.76 845.949 719.162 845.991 719.617 846.077C720.076 846.157 720.519 846.325 720.945 846.581C721.376 846.837 721.733 847.223 722.017 847.739C722.301 848.255 722.444 848.946 722.444 849.812V857H720.767V855.523H720.682C720.569 855.759 720.379 856.013 720.114 856.283C719.849 856.553 719.496 856.782 719.056 856.972C718.615 857.161 718.078 857.256 717.444 857.256ZM717.699 855.75C718.362 855.75 718.921 855.62 719.375 855.359C719.835 855.099 720.18 854.763 720.412 854.351C720.649 853.939 720.767 853.506 720.767 853.051V851.517C720.696 851.602 720.54 851.68 720.299 851.751C720.062 851.818 719.787 851.877 719.475 851.929C719.167 851.976 718.866 852.019 718.573 852.057C718.284 852.09 718.05 852.118 717.87 852.142C717.434 852.199 717.027 852.291 716.648 852.419C716.274 852.542 715.971 852.729 715.739 852.98C715.512 853.226 715.398 853.562 715.398 853.989C715.398 854.571 715.614 855.011 716.044 855.31C716.48 855.603 717.032 855.75 717.699 855.75ZM727.179 850.438V857H725.503V842.455H727.179V847.795H727.321C727.577 847.232 727.96 846.785 728.472 846.453C728.988 846.117 729.674 845.949 730.531 845.949C731.275 845.949 731.926 846.098 732.484 846.396C733.043 846.69 733.476 847.142 733.784 847.753C734.097 848.359 734.253 849.131 734.253 850.068V857H732.577V850.182C732.577 849.315 732.352 848.645 731.902 848.172C731.457 847.694 730.839 847.455 730.048 847.455C729.499 847.455 729.007 847.571 728.571 847.803C728.14 848.035 727.799 848.373 727.548 848.818C727.302 849.263 727.179 849.803 727.179 850.438ZM750.672 848.534L749.166 848.96C749.071 848.709 748.931 848.465 748.747 848.229C748.567 847.987 748.321 847.788 748.008 847.632C747.696 847.476 747.296 847.398 746.808 847.398C746.14 847.398 745.584 847.552 745.139 847.859C744.699 848.162 744.478 848.548 744.478 849.017C744.478 849.434 744.63 849.763 744.933 850.004C745.236 850.246 745.709 850.447 746.353 850.608L747.973 851.006C748.948 851.242 749.675 851.605 750.153 852.092C750.631 852.575 750.87 853.198 750.87 853.96C750.87 854.585 750.69 855.144 750.331 855.636C749.975 856.129 749.478 856.517 748.839 856.801C748.2 857.085 747.457 857.227 746.609 857.227C745.496 857.227 744.575 856.986 743.846 856.503C743.117 856.02 742.655 855.314 742.461 854.386L744.052 853.989C744.204 854.576 744.49 855.016 744.912 855.31C745.338 855.603 745.894 855.75 746.581 855.75C747.362 855.75 747.982 855.584 748.441 855.253C748.905 854.917 749.137 854.514 749.137 854.045C749.137 853.667 749.005 853.349 748.74 853.094C748.475 852.833 748.067 852.639 747.518 852.511L745.7 852.085C744.701 851.848 743.967 851.482 743.498 850.984C743.034 850.482 742.802 849.855 742.802 849.102C742.802 848.487 742.975 847.942 743.321 847.469C743.671 846.995 744.147 846.624 744.748 846.354C745.354 846.084 746.041 845.949 746.808 845.949C747.887 845.949 748.735 846.186 749.35 846.659C749.971 847.133 750.411 847.758 750.672 848.534ZM757.825 857.227C756.84 857.227 755.976 856.993 755.233 856.524C754.494 856.055 753.917 855.4 753.5 854.557C753.088 853.714 752.882 852.729 752.882 851.602C752.882 850.466 753.088 849.474 753.5 848.626C753.917 847.779 754.494 847.121 755.233 846.652C755.976 846.183 756.84 845.949 757.825 845.949C758.81 845.949 759.672 846.183 760.411 846.652C761.154 847.121 761.732 847.779 762.143 848.626C762.56 849.474 762.768 850.466 762.768 851.602C762.768 852.729 762.56 853.714 762.143 854.557C761.732 855.4 761.154 856.055 760.411 856.524C759.672 856.993 758.81 857.227 757.825 857.227ZM757.825 855.722C758.573 855.722 759.189 855.53 759.672 855.146C760.155 854.763 760.512 854.259 760.744 853.634C760.976 853.009 761.092 852.331 761.092 851.602C761.092 850.873 760.976 850.194 760.744 849.564C760.512 848.934 760.155 848.425 759.672 848.037C759.189 847.649 758.573 847.455 757.825 847.455C757.077 847.455 756.462 847.649 755.979 848.037C755.496 848.425 755.138 848.934 754.906 849.564C754.674 850.194 754.558 850.873 754.558 851.602C754.558 852.331 754.674 853.009 754.906 853.634C755.138 854.259 755.496 854.763 755.979 855.146C756.462 855.53 757.077 855.722 757.825 855.722ZM765.327 857V846.091H766.946V847.739H767.06C767.259 847.199 767.619 846.761 768.14 846.425C768.66 846.089 769.248 845.92 769.901 845.92C770.024 845.92 770.178 845.923 770.363 845.928C770.547 845.932 770.687 845.939 770.782 845.949V847.653C770.725 847.639 770.595 847.618 770.391 847.589C770.192 847.556 769.981 847.54 769.759 847.54C769.229 847.54 768.755 847.651 768.338 847.874C767.926 848.091 767.6 848.394 767.358 848.783C767.122 849.166 767.003 849.604 767.003 850.097V857H765.327ZM772.768 857V846.091H774.388V847.739H774.501C774.7 847.199 775.06 846.761 775.581 846.425C776.102 846.089 776.689 845.92 777.342 845.92C777.465 845.92 777.619 845.923 777.804 845.928C777.989 845.932 778.128 845.939 778.223 845.949V847.653C778.166 847.639 778.036 847.618 777.832 847.589C777.634 847.556 777.423 847.54 777.2 847.54C776.67 847.54 776.196 847.651 775.78 847.874C775.368 848.091 775.041 848.394 774.8 848.783C774.563 849.166 774.445 849.604 774.445 850.097V857H772.768ZM781.621 861.091C781.337 861.091 781.084 861.067 780.862 861.02C780.639 860.977 780.485 860.935 780.4 860.892L780.826 859.415C781.233 859.519 781.593 859.557 781.906 859.528C782.218 859.5 782.495 859.36 782.737 859.109C782.983 858.863 783.208 858.463 783.411 857.909L783.724 857.057L779.69 846.091H781.508L784.519 854.784H784.633L787.644 846.091H789.462L784.832 858.591C784.623 859.154 784.365 859.621 784.058 859.99C783.75 860.364 783.392 860.641 782.985 860.821C782.583 861.001 782.128 861.091 781.621 861.091ZM797.3 857V846.091H798.976V857H797.3ZM798.152 844.273C797.825 844.273 797.544 844.161 797.307 843.939C797.075 843.716 796.959 843.449 796.959 843.136C796.959 842.824 797.075 842.556 797.307 842.334C797.544 842.111 797.825 842 798.152 842C798.479 842 798.758 842.111 798.99 842.334C799.227 842.556 799.345 842.824 799.345 843.136C799.345 843.449 799.227 843.716 798.99 843.939C798.758 844.161 798.479 844.273 798.152 844.273ZM812.074 861.318C811.265 861.318 810.569 861.214 809.986 861.006C809.404 860.802 808.918 860.532 808.53 860.196C808.147 859.865 807.841 859.509 807.614 859.131L808.949 858.193C809.101 858.392 809.292 858.619 809.525 858.875C809.757 859.135 810.074 859.36 810.476 859.55C810.883 859.744 811.416 859.841 812.074 859.841C812.955 859.841 813.682 859.628 814.255 859.202C814.828 858.776 815.114 858.108 815.114 857.199V854.983H814.972C814.849 855.182 814.674 855.428 814.446 855.722C814.224 856.01 813.902 856.268 813.48 856.496C813.064 856.718 812.5 856.83 811.79 856.83C810.909 856.83 810.119 856.621 809.418 856.205C808.722 855.788 808.17 855.182 807.763 854.386C807.361 853.591 807.159 852.625 807.159 851.489C807.159 850.371 807.356 849.398 807.749 848.57C808.142 847.736 808.689 847.092 809.39 846.638C810.09 846.179 810.9 845.949 811.819 845.949C812.529 845.949 813.092 846.067 813.509 846.304C813.93 846.536 814.252 846.801 814.475 847.099C814.702 847.393 814.877 847.634 815 847.824H815.171V846.091H816.79V857.312C816.79 858.25 816.577 859.012 816.151 859.599C815.73 860.191 815.161 860.625 814.446 860.899C813.736 861.179 812.945 861.318 812.074 861.318ZM812.017 855.324C812.69 855.324 813.258 855.17 813.722 854.862C814.186 854.554 814.539 854.112 814.78 853.534C815.022 852.956 815.142 852.265 815.142 851.46C815.142 850.674 815.024 849.981 814.787 849.379C814.551 848.778 814.2 848.307 813.736 847.966C813.272 847.625 812.699 847.455 812.017 847.455C811.307 847.455 810.715 847.634 810.242 847.994C809.773 848.354 809.42 848.837 809.184 849.443C808.952 850.049 808.836 850.722 808.836 851.46C808.836 852.218 808.954 852.888 809.191 853.47C809.432 854.048 809.787 854.502 810.256 854.834C810.73 855.161 811.317 855.324 812.017 855.324ZM824.29 857.227C823.305 857.227 822.441 856.993 821.698 856.524C820.959 856.055 820.382 855.4 819.965 854.557C819.553 853.714 819.347 852.729 819.347 851.602C819.347 850.466 819.553 849.474 819.965 848.626C820.382 847.779 820.959 847.121 821.698 846.652C822.441 846.183 823.305 845.949 824.29 845.949C825.275 845.949 826.137 846.183 826.875 846.652C827.619 847.121 828.196 847.779 828.608 848.626C829.025 849.474 829.233 850.466 829.233 851.602C829.233 852.729 829.025 853.714 828.608 854.557C828.196 855.4 827.619 856.055 826.875 856.524C826.137 856.993 825.275 857.227 824.29 857.227ZM824.29 855.722C825.038 855.722 825.654 855.53 826.137 855.146C826.62 854.763 826.977 854.259 827.209 853.634C827.441 853.009 827.557 852.331 827.557 851.602C827.557 850.873 827.441 850.194 827.209 849.564C826.977 848.934 826.62 848.425 826.137 848.037C825.654 847.649 825.038 847.455 824.29 847.455C823.542 847.455 822.926 847.649 822.444 848.037C821.961 848.425 821.603 848.934 821.371 849.564C821.139 850.194 821.023 850.873 821.023 851.602C821.023 852.331 821.139 853.009 821.371 853.634C821.603 854.259 821.961 854.763 822.444 855.146C822.926 855.53 823.542 855.722 824.29 855.722ZM836.536 846.091V847.511H830.883V846.091H836.536ZM832.531 843.477H834.207V853.875C834.207 854.348 834.275 854.704 834.413 854.94C834.555 855.172 834.735 855.329 834.952 855.409C835.175 855.485 835.409 855.523 835.656 855.523C835.84 855.523 835.992 855.513 836.11 855.494C836.228 855.471 836.323 855.452 836.394 855.438L836.735 856.943C836.621 856.986 836.463 857.028 836.259 857.071C836.056 857.118 835.798 857.142 835.485 857.142C835.012 857.142 834.548 857.04 834.093 856.837C833.643 856.633 833.269 856.323 832.971 855.906C832.677 855.49 832.531 854.964 832.531 854.33V843.477ZM843.802 846.091V847.511H838.148V846.091H843.802ZM839.796 843.477H841.472V853.875C841.472 854.348 841.541 854.704 841.678 854.94C841.82 855.172 842 855.329 842.218 855.409C842.441 855.485 842.675 855.523 842.921 855.523C843.106 855.523 843.257 855.513 843.376 855.494C843.494 855.471 843.589 855.452 843.66 855.438L844.001 856.943C843.887 856.986 843.728 857.028 843.525 857.071C843.321 857.118 843.063 857.142 842.751 857.142C842.277 857.142 841.813 857.04 841.359 856.837C840.909 856.633 840.535 856.323 840.237 855.906C839.943 855.49 839.796 854.964 839.796 854.33V843.477ZM849.533 857.256C848.842 857.256 848.215 857.125 847.651 856.865C847.088 856.6 846.64 856.219 846.309 855.722C845.978 855.22 845.812 854.614 845.812 853.903C845.812 853.278 845.935 852.772 846.181 852.384C846.427 851.991 846.756 851.683 847.168 851.46C847.58 851.238 848.035 851.072 848.532 850.963C849.034 850.849 849.538 850.759 850.045 850.693C850.708 850.608 851.245 850.544 851.657 850.501C852.074 850.454 852.377 850.376 852.566 850.267C852.76 850.158 852.857 849.969 852.857 849.699V849.642C852.857 848.941 852.665 848.397 852.282 848.009C851.903 847.62 851.328 847.426 850.556 847.426C849.756 847.426 849.129 847.601 848.674 847.952C848.219 848.302 847.9 848.676 847.715 849.074L846.124 848.506C846.408 847.843 846.787 847.327 847.261 846.957C847.739 846.583 848.26 846.323 848.823 846.176C849.391 846.025 849.95 845.949 850.499 845.949C850.85 845.949 851.252 845.991 851.707 846.077C852.166 846.157 852.609 846.325 853.035 846.581C853.466 846.837 853.823 847.223 854.107 847.739C854.391 848.255 854.533 848.946 854.533 849.812V857H852.857V855.523H852.772C852.658 855.759 852.469 856.013 852.204 856.283C851.939 856.553 851.586 856.782 851.146 856.972C850.705 857.161 850.168 857.256 849.533 857.256ZM849.789 855.75C850.452 855.75 851.011 855.62 851.465 855.359C851.924 855.099 852.27 854.763 852.502 854.351C852.739 853.939 852.857 853.506 852.857 853.051V851.517C852.786 851.602 852.63 851.68 852.388 851.751C852.152 851.818 851.877 851.877 851.565 851.929C851.257 851.976 850.956 852.019 850.663 852.057C850.374 852.09 850.139 852.118 849.96 852.142C849.524 852.199 849.117 852.291 848.738 852.419C848.364 852.542 848.061 852.729 847.829 852.98C847.602 853.226 847.488 853.562 847.488 853.989C847.488 854.571 847.703 855.011 848.134 855.31C848.57 855.603 849.121 855.75 849.789 855.75ZM867.621 861.318C866.811 861.318 866.115 861.214 865.533 861.006C864.951 860.802 864.465 860.532 864.077 860.196C863.694 859.865 863.388 859.509 863.161 859.131L864.496 858.193C864.648 858.392 864.839 858.619 865.071 858.875C865.303 859.135 865.621 859.36 866.023 859.55C866.43 859.744 866.963 859.841 867.621 859.841C868.502 859.841 869.229 859.628 869.801 859.202C870.374 858.776 870.661 858.108 870.661 857.199V854.983H870.519C870.396 855.182 870.221 855.428 869.993 855.722C869.771 856.01 869.449 856.268 869.027 856.496C868.611 856.718 868.047 856.83 867.337 856.83C866.456 856.83 865.666 856.621 864.965 856.205C864.269 855.788 863.717 855.182 863.31 854.386C862.908 853.591 862.706 852.625 862.706 851.489C862.706 850.371 862.903 849.398 863.296 848.57C863.689 847.736 864.236 847.092 864.936 846.638C865.637 846.179 866.447 845.949 867.365 845.949C868.076 845.949 868.639 846.067 869.056 846.304C869.477 846.536 869.799 846.801 870.022 847.099C870.249 847.393 870.424 847.634 870.547 847.824H870.718V846.091H872.337V857.312C872.337 858.25 872.124 859.012 871.698 859.599C871.276 860.191 870.708 860.625 869.993 860.899C869.283 861.179 868.492 861.318 867.621 861.318ZM867.564 855.324C868.237 855.324 868.805 855.17 869.269 854.862C869.733 854.554 870.086 854.112 870.327 853.534C870.569 852.956 870.689 852.265 870.689 851.46C870.689 850.674 870.571 849.981 870.334 849.379C870.097 848.778 869.747 848.307 869.283 847.966C868.819 847.625 868.246 847.455 867.564 847.455C866.854 847.455 866.262 847.634 865.789 847.994C865.32 848.354 864.967 848.837 864.73 849.443C864.498 850.049 864.382 850.722 864.382 851.46C864.382 852.218 864.501 852.888 864.738 853.47C864.979 854.048 865.334 854.502 865.803 854.834C866.276 855.161 866.864 855.324 867.564 855.324ZM879.837 857.227C878.852 857.227 877.988 856.993 877.245 856.524C876.506 856.055 875.928 855.4 875.512 854.557C875.1 853.714 874.894 852.729 874.894 851.602C874.894 850.466 875.1 849.474 875.512 848.626C875.928 847.779 876.506 847.121 877.245 846.652C877.988 846.183 878.852 845.949 879.837 845.949C880.822 845.949 881.684 846.183 882.422 846.652C883.166 847.121 883.743 847.779 884.155 848.626C884.572 849.474 884.78 850.466 884.78 851.602C884.78 852.729 884.572 853.714 884.155 854.557C883.743 855.4 883.166 856.055 882.422 856.524C881.684 856.993 880.822 857.227 879.837 857.227ZM879.837 855.722C880.585 855.722 881.201 855.53 881.684 855.146C882.167 854.763 882.524 854.259 882.756 853.634C882.988 853.009 883.104 852.331 883.104 851.602C883.104 850.873 882.988 850.194 882.756 849.564C882.524 848.934 882.167 848.425 881.684 848.037C881.201 847.649 880.585 847.455 879.837 847.455C879.089 847.455 878.473 847.649 877.99 848.037C877.507 848.425 877.15 848.934 876.918 849.564C876.686 850.194 876.57 850.873 876.57 851.602C876.57 852.331 876.686 853.009 876.918 853.634C877.15 854.259 877.507 854.763 877.99 855.146C878.473 855.53 879.089 855.722 879.837 855.722Z" fill="black"/>
</svg>
