<svg width="1024" height="1024" viewBox="0 0 1024 1024" fill="none" xmlns="http://www.w3.org/2000/svg">
<path d="M274.731 333.091V318.091H276.351V319.824H276.55C276.673 319.634 276.843 319.393 277.061 319.099C277.283 318.801 277.601 318.536 278.013 318.304C278.429 318.067 278.993 317.949 279.703 317.949C280.622 317.949 281.431 318.179 282.132 318.638C282.833 319.097 283.38 319.748 283.773 320.591C284.166 321.434 284.362 322.428 284.362 323.574C284.362 324.729 284.166 325.731 283.773 326.578C283.38 327.421 282.835 328.074 282.139 328.538C281.443 328.998 280.64 329.227 279.731 329.227C279.031 329.227 278.47 329.111 278.048 328.879C277.627 328.643 277.302 328.375 277.075 328.077C276.848 327.774 276.673 327.523 276.55 327.324H276.407V333.091H274.731ZM276.379 323.545C276.379 324.369 276.5 325.096 276.741 325.726C276.983 326.351 277.336 326.841 277.8 327.196C278.264 327.546 278.832 327.722 279.504 327.722C280.205 327.722 280.79 327.537 281.258 327.168C281.732 326.794 282.087 326.292 282.324 325.662C282.565 325.027 282.686 324.322 282.686 323.545C282.686 322.778 282.568 322.087 282.331 321.472C282.099 320.851 281.746 320.361 281.273 320.001C280.804 319.637 280.214 319.455 279.504 319.455C278.822 319.455 278.249 319.627 277.785 319.973C277.321 320.314 276.971 320.792 276.734 321.408C276.497 322.018 276.379 322.731 276.379 323.545ZM288.595 314.455V329H286.919V314.455H288.595ZM296.239 329.227C295.188 329.227 294.281 328.995 293.519 328.531C292.761 328.062 292.176 327.409 291.764 326.571C291.357 325.728 291.154 324.748 291.154 323.631C291.154 322.513 291.357 321.528 291.764 320.676C292.176 319.819 292.749 319.152 293.483 318.673C294.222 318.19 295.084 317.949 296.068 317.949C296.637 317.949 297.198 318.044 297.752 318.233C298.306 318.422 298.81 318.73 299.264 319.156C299.719 319.578 300.081 320.136 300.351 320.832C300.621 321.528 300.756 322.385 300.756 323.403V324.114H292.347V322.665H299.051C299.051 322.049 298.928 321.5 298.682 321.017C298.441 320.534 298.095 320.153 297.645 319.874C297.2 319.594 296.674 319.455 296.068 319.455C295.401 319.455 294.823 319.62 294.335 319.952C293.852 320.278 293.481 320.705 293.22 321.23C292.96 321.756 292.83 322.319 292.83 322.92V323.886C292.83 324.71 292.972 325.409 293.256 325.982C293.545 326.55 293.945 326.983 294.456 327.281C294.968 327.575 295.562 327.722 296.239 327.722C296.679 327.722 297.077 327.66 297.432 327.537C297.792 327.409 298.102 327.22 298.362 326.969C298.623 326.713 298.824 326.396 298.966 326.017L300.585 326.472C300.415 327.021 300.128 327.504 299.726 327.92C299.324 328.332 298.826 328.654 298.235 328.886C297.643 329.114 296.977 329.227 296.239 329.227ZM306.516 329.256C305.825 329.256 305.197 329.125 304.634 328.865C304.07 328.6 303.623 328.219 303.291 327.722C302.96 327.22 302.794 326.614 302.794 325.903C302.794 325.278 302.917 324.772 303.164 324.384C303.41 323.991 303.739 323.683 304.151 323.46C304.563 323.238 305.017 323.072 305.514 322.963C306.016 322.849 306.521 322.759 307.027 322.693C307.69 322.608 308.227 322.544 308.639 322.501C309.056 322.454 309.359 322.376 309.548 322.267C309.743 322.158 309.84 321.969 309.84 321.699V321.642C309.84 320.941 309.648 320.397 309.264 320.009C308.886 319.62 308.31 319.426 307.539 319.426C306.738 319.426 306.111 319.601 305.656 319.952C305.202 320.302 304.882 320.676 304.698 321.074L303.107 320.506C303.391 319.843 303.77 319.327 304.243 318.957C304.721 318.583 305.242 318.323 305.806 318.176C306.374 318.025 306.932 317.949 307.482 317.949C307.832 317.949 308.235 317.991 308.689 318.077C309.148 318.157 309.591 318.325 310.017 318.581C310.448 318.837 310.806 319.223 311.09 319.739C311.374 320.255 311.516 320.946 311.516 321.812V329H309.84V327.523H309.754C309.641 327.759 309.451 328.013 309.186 328.283C308.921 328.553 308.568 328.782 308.128 328.972C307.688 329.161 307.15 329.256 306.516 329.256ZM306.771 327.75C307.434 327.75 307.993 327.62 308.448 327.359C308.907 327.099 309.253 326.763 309.485 326.351C309.721 325.939 309.84 325.506 309.84 325.051V323.517C309.769 323.602 309.612 323.68 309.371 323.751C309.134 323.818 308.86 323.877 308.547 323.929C308.239 323.976 307.939 324.019 307.645 324.057C307.356 324.09 307.122 324.118 306.942 324.142C306.506 324.199 306.099 324.291 305.72 324.419C305.346 324.542 305.043 324.729 304.811 324.98C304.584 325.226 304.47 325.562 304.47 325.989C304.47 326.571 304.686 327.011 305.117 327.31C305.552 327.603 306.104 327.75 306.771 327.75ZM322.302 320.534L320.797 320.96C320.702 320.709 320.562 320.465 320.378 320.229C320.198 319.987 319.952 319.788 319.639 319.632C319.327 319.476 318.926 319.398 318.439 319.398C317.771 319.398 317.215 319.552 316.77 319.859C316.329 320.162 316.109 320.548 316.109 321.017C316.109 321.434 316.261 321.763 316.564 322.004C316.867 322.246 317.34 322.447 317.984 322.608L319.604 323.006C320.579 323.242 321.306 323.605 321.784 324.092C322.262 324.575 322.501 325.198 322.501 325.96C322.501 326.585 322.321 327.144 321.961 327.636C321.606 328.129 321.109 328.517 320.47 328.801C319.831 329.085 319.087 329.227 318.24 329.227C317.127 329.227 316.206 328.986 315.477 328.503C314.748 328.02 314.286 327.314 314.092 326.386L315.683 325.989C315.835 326.576 316.121 327.016 316.542 327.31C316.969 327.603 317.525 327.75 318.211 327.75C318.993 327.75 319.613 327.584 320.072 327.253C320.536 326.917 320.768 326.514 320.768 326.045C320.768 325.667 320.636 325.349 320.371 325.094C320.105 324.833 319.698 324.639 319.149 324.511L317.331 324.085C316.332 323.848 315.598 323.482 315.129 322.984C314.665 322.482 314.433 321.855 314.433 321.102C314.433 320.487 314.606 319.942 314.952 319.469C315.302 318.995 315.778 318.624 316.379 318.354C316.985 318.084 317.672 317.949 318.439 317.949C319.518 317.949 320.366 318.186 320.981 318.659C321.602 319.133 322.042 319.758 322.302 320.534ZM329.598 329.227C328.547 329.227 327.64 328.995 326.878 328.531C326.12 328.062 325.536 327.409 325.124 326.571C324.717 325.728 324.513 324.748 324.513 323.631C324.513 322.513 324.717 321.528 325.124 320.676C325.536 319.819 326.109 319.152 326.843 318.673C327.581 318.19 328.443 317.949 329.428 317.949C329.996 317.949 330.557 318.044 331.111 318.233C331.665 318.422 332.169 318.73 332.624 319.156C333.078 319.578 333.441 320.136 333.71 320.832C333.98 321.528 334.115 322.385 334.115 323.403V324.114H325.706V322.665H332.411C332.411 322.049 332.288 321.5 332.041 321.017C331.8 320.534 331.454 320.153 331.004 319.874C330.559 319.594 330.034 319.455 329.428 319.455C328.76 319.455 328.182 319.62 327.695 319.952C327.212 320.278 326.84 320.705 326.58 321.23C326.319 321.756 326.189 322.319 326.189 322.92V323.886C326.189 324.71 326.331 325.409 326.615 325.982C326.904 326.55 327.304 326.983 327.816 327.281C328.327 327.575 328.921 327.722 329.598 327.722C330.039 327.722 330.436 327.66 330.791 327.537C331.151 327.409 331.461 327.22 331.722 326.969C331.982 326.713 332.183 326.396 332.325 326.017L333.945 326.472C333.774 327.021 333.488 327.504 333.085 327.92C332.683 328.332 332.186 328.654 331.594 328.886C331.002 329.114 330.337 329.227 329.598 329.227ZM346.409 329.227C345.5 329.227 344.698 328.998 344.002 328.538C343.306 328.074 342.761 327.421 342.368 326.578C341.975 325.731 341.779 324.729 341.779 323.574C341.779 322.428 341.975 321.434 342.368 320.591C342.761 319.748 343.308 319.097 344.009 318.638C344.709 318.179 345.519 317.949 346.438 317.949C347.148 317.949 347.709 318.067 348.121 318.304C348.538 318.536 348.855 318.801 349.073 319.099C349.295 319.393 349.468 319.634 349.591 319.824H349.733V314.455H351.409V329H349.79V327.324H349.591C349.468 327.523 349.293 327.774 349.066 328.077C348.838 328.375 348.514 328.643 348.093 328.879C347.671 329.111 347.11 329.227 346.409 329.227ZM346.637 327.722C347.309 327.722 347.877 327.546 348.341 327.196C348.805 326.841 349.158 326.351 349.399 325.726C349.641 325.096 349.762 324.369 349.762 323.545C349.762 322.731 349.643 322.018 349.406 321.408C349.17 320.792 348.819 320.314 348.355 319.973C347.891 319.627 347.318 319.455 346.637 319.455C345.926 319.455 345.334 319.637 344.861 320.001C344.392 320.361 344.039 320.851 343.803 321.472C343.571 322.087 343.455 322.778 343.455 323.545C343.455 324.322 343.573 325.027 343.81 325.662C344.051 326.292 344.406 326.794 344.875 327.168C345.349 327.537 345.936 327.722 346.637 327.722ZM354.712 329V318.091H356.331V319.739H356.445C356.644 319.199 357.003 318.761 357.524 318.425C358.045 318.089 358.632 317.92 359.286 317.92C359.409 317.92 359.563 317.923 359.747 317.928C359.932 317.932 360.072 317.939 360.166 317.949V319.653C360.11 319.639 359.979 319.618 359.776 319.589C359.577 319.556 359.366 319.54 359.144 319.54C358.613 319.54 358.14 319.651 357.723 319.874C357.311 320.091 356.985 320.394 356.743 320.783C356.506 321.166 356.388 321.604 356.388 322.097V329H354.712ZM365.363 329.256C364.672 329.256 364.045 329.125 363.481 328.865C362.918 328.6 362.47 328.219 362.139 327.722C361.808 327.22 361.642 326.614 361.642 325.903C361.642 325.278 361.765 324.772 362.011 324.384C362.257 323.991 362.586 323.683 362.998 323.46C363.41 323.238 363.865 323.072 364.362 322.963C364.864 322.849 365.368 322.759 365.875 322.693C366.538 322.608 367.075 322.544 367.487 322.501C367.904 322.454 368.207 322.376 368.396 322.267C368.59 322.158 368.687 321.969 368.687 321.699V321.642C368.687 320.941 368.496 320.397 368.112 320.009C367.733 319.62 367.158 319.426 366.386 319.426C365.586 319.426 364.959 319.601 364.504 319.952C364.05 320.302 363.73 320.676 363.545 321.074L361.954 320.506C362.238 319.843 362.617 319.327 363.091 318.957C363.569 318.583 364.09 318.323 364.653 318.176C365.221 318.025 365.78 317.949 366.329 317.949C366.68 317.949 367.082 317.991 367.537 318.077C367.996 318.157 368.439 318.325 368.865 318.581C369.296 318.837 369.653 319.223 369.937 319.739C370.221 320.255 370.363 320.946 370.363 321.812V329H368.687V327.523H368.602C368.488 327.759 368.299 328.013 368.034 328.283C367.769 328.553 367.416 328.782 366.976 328.972C366.535 329.161 365.998 329.256 365.363 329.256ZM365.619 327.75C366.282 327.75 366.841 327.62 367.295 327.359C367.755 327.099 368.1 326.763 368.332 326.351C368.569 325.939 368.687 325.506 368.687 325.051V323.517C368.616 323.602 368.46 323.68 368.219 323.751C367.982 323.818 367.707 323.877 367.395 323.929C367.087 323.976 366.786 324.019 366.493 324.057C366.204 324.09 365.97 324.118 365.79 324.142C365.354 324.199 364.947 324.291 364.568 324.419C364.194 324.542 363.891 324.729 363.659 324.98C363.432 325.226 363.318 325.562 363.318 325.989C363.318 326.571 363.533 327.011 363.964 327.31C364.4 327.603 364.952 327.75 365.619 327.75ZM375.894 329L372.57 318.091H374.332L376.69 326.443H376.803L379.133 318.091H380.923L383.224 326.415H383.338L385.695 318.091H387.457L384.133 329H382.485L380.099 320.619H379.928L377.542 329H375.894ZM398.508 329.256C397.817 329.256 397.189 329.125 396.626 328.865C396.062 328.6 395.615 328.219 395.284 327.722C394.952 327.22 394.786 326.614 394.786 325.903C394.786 325.278 394.91 324.772 395.156 324.384C395.402 323.991 395.731 323.683 396.143 323.46C396.555 323.238 397.009 323.072 397.507 322.963C398.008 322.849 398.513 322.759 399.019 322.693C399.682 322.608 400.22 322.544 400.632 322.501C401.048 322.454 401.351 322.376 401.541 322.267C401.735 322.158 401.832 321.969 401.832 321.699V321.642C401.832 320.941 401.64 320.397 401.257 320.009C400.878 319.62 400.302 319.426 399.531 319.426C398.731 319.426 398.103 319.601 397.649 319.952C397.194 320.302 396.874 320.676 396.69 321.074L395.099 320.506C395.383 319.843 395.762 319.327 396.235 318.957C396.713 318.583 397.234 318.323 397.798 318.176C398.366 318.025 398.925 317.949 399.474 317.949C399.824 317.949 400.227 317.991 400.681 318.077C401.141 318.157 401.583 318.325 402.009 318.581C402.44 318.837 402.798 319.223 403.082 319.739C403.366 320.255 403.508 320.946 403.508 321.812V329H401.832V327.523H401.747C401.633 327.759 401.444 328.013 401.178 328.283C400.913 328.553 400.561 328.782 400.12 328.972C399.68 329.161 399.142 329.256 398.508 329.256ZM398.764 327.75C399.427 327.75 399.985 327.62 400.44 327.359C400.899 327.099 401.245 326.763 401.477 326.351C401.713 325.939 401.832 325.506 401.832 325.051V323.517C401.761 323.602 401.605 323.68 401.363 323.751C401.126 323.818 400.852 323.877 400.539 323.929C400.231 323.976 399.931 324.019 399.637 324.057C399.348 324.09 399.114 324.118 398.934 324.142C398.499 324.199 398.091 324.291 397.713 324.419C397.338 324.542 397.035 324.729 396.803 324.98C396.576 325.226 396.463 325.562 396.463 325.989C396.463 326.571 396.678 327.011 397.109 327.31C397.544 327.603 398.096 327.75 398.764 327.75ZM408.243 322.438V329H406.567V318.091H408.187V319.795H408.329C408.584 319.241 408.973 318.796 409.493 318.46C410.014 318.119 410.687 317.949 411.51 317.949C412.249 317.949 412.895 318.1 413.449 318.403C414.003 318.702 414.434 319.156 414.742 319.767C415.05 320.373 415.204 321.14 415.204 322.068V329H413.528V322.182C413.528 321.325 413.305 320.657 412.86 320.179C412.415 319.696 411.804 319.455 411.028 319.455C410.492 319.455 410.014 319.571 409.593 319.803C409.176 320.035 408.847 320.373 408.606 320.818C408.364 321.263 408.243 321.803 408.243 322.438ZM428.323 329.227C427.338 329.227 426.474 328.993 425.731 328.524C424.992 328.055 424.415 327.4 423.998 326.557C423.586 325.714 423.38 324.729 423.38 323.602C423.38 322.466 423.586 321.474 423.998 320.626C424.415 319.779 424.992 319.121 425.731 318.652C426.474 318.183 427.338 317.949 428.323 317.949C429.308 317.949 430.17 318.183 430.909 318.652C431.652 319.121 432.23 319.779 432.642 320.626C433.058 321.474 433.267 322.466 433.267 323.602C433.267 324.729 433.058 325.714 432.642 326.557C432.23 327.4 431.652 328.055 430.909 328.524C430.17 328.993 429.308 329.227 428.323 329.227ZM428.323 327.722C429.071 327.722 429.687 327.53 430.17 327.146C430.653 326.763 431.01 326.259 431.242 325.634C431.474 325.009 431.59 324.331 431.59 323.602C431.59 322.873 431.474 322.194 431.242 321.564C431.01 320.934 430.653 320.425 430.17 320.037C429.687 319.649 429.071 319.455 428.323 319.455C427.575 319.455 426.96 319.649 426.477 320.037C425.994 320.425 425.636 320.934 425.404 321.564C425.172 322.194 425.056 322.873 425.056 323.602C425.056 324.331 425.172 325.009 425.404 325.634C425.636 326.259 425.994 326.763 426.477 327.146C426.96 327.53 427.575 327.722 428.323 327.722ZM436.052 329V314.455H437.729V319.824H437.871C437.994 319.634 438.164 319.393 438.382 319.099C438.604 318.801 438.922 318.536 439.334 318.304C439.75 318.067 440.314 317.949 441.024 317.949C441.943 317.949 442.752 318.179 443.453 318.638C444.154 319.097 444.701 319.748 445.094 320.591C445.487 321.434 445.683 322.428 445.683 323.574C445.683 324.729 445.487 325.731 445.094 326.578C444.701 327.421 444.156 328.074 443.46 328.538C442.764 328.998 441.961 329.227 441.052 329.227C440.352 329.227 439.791 329.111 439.369 328.879C438.948 328.643 438.623 328.375 438.396 328.077C438.169 327.774 437.994 327.523 437.871 327.324H437.672V329H436.052ZM437.7 323.545C437.7 324.369 437.821 325.096 438.062 325.726C438.304 326.351 438.657 326.841 439.121 327.196C439.585 327.546 440.153 327.722 440.825 327.722C441.526 327.722 442.111 327.537 442.579 327.168C443.053 326.794 443.408 326.292 443.645 325.662C443.886 325.027 444.007 324.322 444.007 323.545C444.007 322.778 443.889 322.087 443.652 321.472C443.42 320.851 443.067 320.361 442.594 320.001C442.125 319.637 441.535 319.455 440.825 319.455C440.143 319.455 439.57 319.627 439.106 319.973C438.642 320.314 438.292 320.792 438.055 321.408C437.818 322.018 437.7 322.731 437.7 323.545ZM448.247 318.091H449.923V329.795C449.923 330.468 449.807 331.05 449.575 331.543C449.348 332.035 449.002 332.416 448.538 332.686C448.079 332.956 447.499 333.091 446.798 333.091C446.741 333.091 446.684 333.091 446.628 333.091C446.571 333.091 446.514 333.091 446.457 333.091V331.528C446.514 331.528 446.566 331.528 446.613 331.528C446.661 331.528 446.713 331.528 446.77 331.528C447.281 331.528 447.655 331.377 447.892 331.074C448.129 330.776 448.247 330.349 448.247 329.795V318.091ZM449.071 316.273C448.744 316.273 448.462 316.161 448.226 315.939C447.994 315.716 447.878 315.449 447.878 315.136C447.878 314.824 447.994 314.556 448.226 314.334C448.462 314.111 448.744 314 449.071 314C449.398 314 449.677 314.111 449.909 314.334C450.146 314.556 450.264 314.824 450.264 315.136C450.264 315.449 450.146 315.716 449.909 315.939C449.677 316.161 449.398 316.273 449.071 316.273ZM457.567 329.227C456.516 329.227 455.609 328.995 454.847 328.531C454.089 328.062 453.504 327.409 453.093 326.571C452.685 325.728 452.482 324.748 452.482 323.631C452.482 322.513 452.685 321.528 453.093 320.676C453.504 319.819 454.077 319.152 454.811 318.673C455.55 318.19 456.412 317.949 457.396 317.949C457.965 317.949 458.526 318.044 459.08 318.233C459.634 318.422 460.138 318.73 460.593 319.156C461.047 319.578 461.409 320.136 461.679 320.832C461.949 321.528 462.084 322.385 462.084 323.403V324.114H453.675V322.665H460.379C460.379 322.049 460.256 321.5 460.01 321.017C459.769 320.534 459.423 320.153 458.973 319.874C458.528 319.594 458.003 319.455 457.396 319.455C456.729 319.455 456.151 319.62 455.664 319.952C455.181 320.278 454.809 320.705 454.548 321.23C454.288 321.756 454.158 322.319 454.158 322.92V323.886C454.158 324.71 454.3 325.409 454.584 325.982C454.873 326.55 455.273 326.983 455.784 327.281C456.296 327.575 456.89 327.722 457.567 327.722C458.007 327.722 458.405 327.66 458.76 327.537C459.12 327.409 459.43 327.22 459.691 326.969C459.951 326.713 460.152 326.396 460.294 326.017L461.914 326.472C461.743 327.021 461.457 327.504 461.054 327.92C460.652 328.332 460.155 328.654 459.563 328.886C458.971 329.114 458.306 329.227 457.567 329.227ZM469.066 329.227C468.043 329.227 467.162 328.986 466.423 328.503C465.685 328.02 465.117 327.355 464.719 326.507C464.321 325.66 464.122 324.691 464.122 323.602C464.122 322.494 464.326 321.517 464.733 320.669C465.145 319.817 465.718 319.152 466.452 318.673C467.191 318.19 468.052 317.949 469.037 317.949C469.804 317.949 470.495 318.091 471.111 318.375C471.727 318.659 472.231 319.057 472.624 319.568C473.017 320.08 473.261 320.676 473.355 321.358H471.679C471.551 320.861 471.267 320.42 470.827 320.037C470.391 319.649 469.804 319.455 469.066 319.455C468.412 319.455 467.839 319.625 467.347 319.966C466.859 320.302 466.478 320.778 466.203 321.393C465.933 322.004 465.798 322.722 465.798 323.545C465.798 324.388 465.931 325.122 466.196 325.747C466.466 326.372 466.845 326.857 467.333 327.203C467.825 327.549 468.403 327.722 469.066 327.722C469.501 327.722 469.896 327.646 470.252 327.494C470.607 327.343 470.907 327.125 471.154 326.841C471.4 326.557 471.575 326.216 471.679 325.818H473.355C473.261 326.462 473.026 327.042 472.652 327.558C472.283 328.07 471.793 328.477 471.182 328.78C470.576 329.078 469.87 329.227 469.066 329.227ZM480.55 318.091V319.511H474.896V318.091H480.55ZM476.544 315.477H478.22V325.875C478.22 326.348 478.289 326.704 478.426 326.94C478.568 327.172 478.748 327.329 478.966 327.409C479.189 327.485 479.423 327.523 479.669 327.523C479.854 327.523 480.005 327.513 480.124 327.494C480.242 327.471 480.337 327.452 480.408 327.438L480.749 328.943C480.635 328.986 480.477 329.028 480.273 329.071C480.069 329.118 479.811 329.142 479.499 329.142C479.025 329.142 478.561 329.04 478.107 328.837C477.657 328.633 477.283 328.323 476.985 327.906C476.691 327.49 476.544 326.964 476.544 326.33V315.477ZM491.168 329L487.844 318.091H489.605L491.963 326.443H492.077L494.406 318.091H496.196L498.497 326.415H498.611L500.969 318.091H502.73L499.406 329H497.759L495.372 320.619H495.202L492.816 329H491.168ZM506.622 322.438V329H504.946V314.455H506.622V319.795H506.764C507.02 319.232 507.404 318.785 507.915 318.453C508.431 318.117 509.118 317.949 509.975 317.949C510.718 317.949 511.369 318.098 511.928 318.396C512.486 318.69 512.92 319.142 513.227 319.753C513.54 320.359 513.696 321.131 513.696 322.068V329H512.02V322.182C512.02 321.315 511.795 320.645 511.345 320.172C510.9 319.694 510.282 319.455 509.492 319.455C508.942 319.455 508.45 319.571 508.014 319.803C507.584 320.035 507.243 320.373 506.992 320.818C506.745 321.263 506.622 321.803 506.622 322.438ZM516.763 329V318.091H518.439V329H516.763ZM517.615 316.273C517.288 316.273 517.006 316.161 516.77 315.939C516.538 315.716 516.422 315.449 516.422 315.136C516.422 314.824 516.538 314.556 516.77 314.334C517.006 314.111 517.288 314 517.615 314C517.942 314 518.221 314.111 518.453 314.334C518.69 314.556 518.808 314.824 518.808 315.136C518.808 315.449 518.69 315.716 518.453 315.939C518.221 316.161 517.942 316.273 517.615 316.273ZM525.941 329.227C524.918 329.227 524.037 328.986 523.298 328.503C522.56 328.02 521.992 327.355 521.594 326.507C521.196 325.66 520.997 324.691 520.997 323.602C520.997 322.494 521.201 321.517 521.608 320.669C522.02 319.817 522.593 319.152 523.327 318.673C524.066 318.19 524.927 317.949 525.912 317.949C526.679 317.949 527.37 318.091 527.986 318.375C528.602 318.659 529.106 319.057 529.499 319.568C529.892 320.08 530.136 320.676 530.23 321.358H528.554C528.426 320.861 528.142 320.42 527.702 320.037C527.266 319.649 526.679 319.455 525.941 319.455C525.287 319.455 524.714 319.625 524.222 319.966C523.734 320.302 523.353 320.778 523.078 321.393C522.808 322.004 522.673 322.722 522.673 323.545C522.673 324.388 522.806 325.122 523.071 325.747C523.341 326.372 523.72 326.857 524.208 327.203C524.7 327.549 525.278 327.722 525.941 327.722C526.376 327.722 526.771 327.646 527.127 327.494C527.482 327.343 527.782 327.125 528.029 326.841C528.275 326.557 528.45 326.216 528.554 325.818H530.23C530.136 326.462 529.901 327.042 529.527 327.558C529.158 328.07 528.668 328.477 528.057 328.78C527.451 329.078 526.745 329.227 525.941 329.227ZM534.357 322.438V329H532.681V314.455H534.357V319.795H534.499C534.754 319.232 535.138 318.785 535.649 318.453C536.165 318.117 536.852 317.949 537.709 317.949C538.452 317.949 539.103 318.098 539.662 318.396C540.221 318.69 540.654 319.142 540.962 319.753C541.274 320.359 541.431 321.131 541.431 322.068V329H539.754V322.182C539.754 321.315 539.53 320.645 539.08 320.172C538.635 319.694 538.017 319.455 537.226 319.455C536.677 319.455 536.184 319.571 535.749 319.803C535.318 320.035 534.977 320.373 534.726 320.818C534.48 321.263 534.357 321.803 534.357 322.438ZM550.122 329V318.091H551.798V329H550.122ZM550.974 316.273C550.648 316.273 550.366 316.161 550.129 315.939C549.897 315.716 549.781 315.449 549.781 315.136C549.781 314.824 549.897 314.556 550.129 314.334C550.366 314.111 550.648 314 550.974 314C551.301 314 551.58 314.111 551.812 314.334C552.049 314.556 552.167 314.824 552.167 315.136C552.167 315.449 552.049 315.716 551.812 315.939C551.58 316.161 551.301 316.273 550.974 316.273ZM562.595 320.534L561.09 320.96C560.995 320.709 560.855 320.465 560.671 320.229C560.491 319.987 560.244 319.788 559.932 319.632C559.619 319.476 559.219 319.398 558.732 319.398C558.064 319.398 557.508 319.552 557.063 319.859C556.622 320.162 556.402 320.548 556.402 321.017C556.402 321.434 556.554 321.763 556.857 322.004C557.16 322.246 557.633 322.447 558.277 322.608L559.896 323.006C560.872 323.242 561.599 323.605 562.077 324.092C562.555 324.575 562.794 325.198 562.794 325.96C562.794 326.585 562.614 327.144 562.254 327.636C561.899 328.129 561.402 328.517 560.763 328.801C560.124 329.085 559.38 329.227 558.533 329.227C557.42 329.227 556.499 328.986 555.77 328.503C555.041 328.02 554.579 327.314 554.385 326.386L555.976 325.989C556.128 326.576 556.414 327.016 556.835 327.31C557.262 327.603 557.818 327.75 558.504 327.75C559.286 327.75 559.906 327.584 560.365 327.253C560.829 326.917 561.061 326.514 561.061 326.045C561.061 325.667 560.929 325.349 560.664 325.094C560.398 324.833 559.991 324.639 559.442 324.511L557.624 324.085C556.625 323.848 555.891 323.482 555.422 322.984C554.958 322.482 554.726 321.855 554.726 321.102C554.726 320.487 554.899 319.942 555.244 319.469C555.595 318.995 556.071 318.624 556.672 318.354C557.278 318.084 557.965 317.949 558.732 317.949C559.811 317.949 560.659 318.186 561.274 318.659C561.895 319.133 562.335 319.758 562.595 320.534ZM571.17 329V314.455H572.846V319.824H572.988C573.111 319.634 573.281 319.393 573.499 319.099C573.722 318.801 574.039 318.536 574.451 318.304C574.867 318.067 575.431 317.949 576.141 317.949C577.06 317.949 577.869 318.179 578.57 318.638C579.271 319.097 579.818 319.748 580.211 320.591C580.604 321.434 580.8 322.428 580.8 323.574C580.8 324.729 580.604 325.731 580.211 326.578C579.818 327.421 579.273 328.074 578.577 328.538C577.881 328.998 577.079 329.227 576.17 329.227C575.469 329.227 574.908 329.111 574.486 328.879C574.065 328.643 573.741 328.375 573.513 328.077C573.286 327.774 573.111 327.523 572.988 327.324H572.789V329H571.17ZM572.817 323.545C572.817 324.369 572.938 325.096 573.18 325.726C573.421 326.351 573.774 326.841 574.238 327.196C574.702 327.546 575.27 327.722 575.942 327.722C576.643 327.722 577.228 327.537 577.697 327.168C578.17 326.794 578.525 326.292 578.762 325.662C579.003 325.027 579.124 324.322 579.124 323.545C579.124 322.778 579.006 322.087 578.769 321.472C578.537 320.851 578.184 320.361 577.711 320.001C577.242 319.637 576.653 319.455 575.942 319.455C575.26 319.455 574.688 319.627 574.224 319.973C573.76 320.314 573.409 320.792 573.172 321.408C572.936 322.018 572.817 322.731 572.817 323.545ZM587.796 329.227C586.811 329.227 585.947 328.993 585.204 328.524C584.465 328.055 583.887 327.4 583.471 326.557C583.059 325.714 582.853 324.729 582.853 323.602C582.853 322.466 583.059 321.474 583.471 320.626C583.887 319.779 584.465 319.121 585.204 318.652C585.947 318.183 586.811 317.949 587.796 317.949C588.781 317.949 589.643 318.183 590.381 318.652C591.125 319.121 591.702 319.779 592.114 320.626C592.531 321.474 592.739 322.466 592.739 323.602C592.739 324.729 592.531 325.714 592.114 326.557C591.702 327.4 591.125 328.055 590.381 328.524C589.643 328.993 588.781 329.227 587.796 329.227ZM587.796 327.722C588.544 327.722 589.16 327.53 589.643 327.146C590.126 326.763 590.483 326.259 590.715 325.634C590.947 325.009 591.063 324.331 591.063 323.602C591.063 322.873 590.947 322.194 590.715 321.564C590.483 320.934 590.126 320.425 589.643 320.037C589.16 319.649 588.544 319.455 587.796 319.455C587.048 319.455 586.432 319.649 585.949 320.037C585.466 320.425 585.109 320.934 584.877 321.564C584.645 322.194 584.529 322.873 584.529 323.602C584.529 324.331 584.645 325.009 584.877 325.634C585.109 326.259 585.466 326.763 585.949 327.146C586.432 327.53 587.048 327.722 587.796 327.722ZM600.042 318.091V319.511H594.389V318.091H600.042ZM596.036 315.477H597.713V325.875C597.713 326.348 597.781 326.704 597.919 326.94C598.061 327.172 598.24 327.329 598.458 327.409C598.681 327.485 598.915 327.523 599.161 327.523C599.346 327.523 599.498 327.513 599.616 327.494C599.734 327.471 599.829 327.452 599.9 327.438L600.241 328.943C600.127 328.986 599.969 329.028 599.765 329.071C599.561 329.118 599.303 329.142 598.991 329.142C598.517 329.142 598.053 329.04 597.599 328.837C597.149 328.633 596.775 328.323 596.477 327.906C596.183 327.49 596.036 326.964 596.036 326.33V315.477ZM604.474 322.438V329H602.798V314.455H604.474V319.795H604.616C604.872 319.232 605.255 318.785 605.767 318.453C606.283 318.117 606.969 317.949 607.826 317.949C608.57 317.949 609.221 318.098 609.779 318.396C610.338 318.69 610.771 319.142 611.079 319.753C611.392 320.359 611.548 321.131 611.548 322.068V329H609.872V322.182C609.872 321.315 609.647 320.645 609.197 320.172C608.752 319.694 608.134 319.455 607.343 319.455C606.794 319.455 606.302 319.571 605.866 319.803C605.435 320.035 605.094 320.373 604.843 320.818C604.597 321.263 604.474 321.803 604.474 322.438ZM627.966 320.534L626.461 320.96C626.366 320.709 626.226 320.465 626.042 320.229C625.862 319.987 625.616 319.788 625.303 319.632C624.991 319.476 624.59 319.398 624.103 319.398C623.435 319.398 622.879 319.552 622.434 319.859C621.993 320.162 621.773 320.548 621.773 321.017C621.773 321.434 621.925 321.763 622.228 322.004C622.531 322.246 623.004 322.447 623.648 322.608L625.268 323.006C626.243 323.242 626.97 323.605 627.448 324.092C627.926 324.575 628.165 325.198 628.165 325.96C628.165 326.585 627.985 327.144 627.626 327.636C627.27 328.129 626.773 328.517 626.134 328.801C625.495 329.085 624.751 329.227 623.904 329.227C622.791 329.227 621.87 328.986 621.141 328.503C620.412 328.02 619.95 327.314 619.756 326.386L621.347 325.989C621.499 326.576 621.785 327.016 622.206 327.31C622.633 327.603 623.189 327.75 623.876 327.75C624.657 327.75 625.277 327.584 625.736 327.253C626.2 326.917 626.432 326.514 626.432 326.045C626.432 325.667 626.3 325.349 626.035 325.094C625.769 324.833 625.362 324.639 624.813 324.511L622.995 324.085C621.996 323.848 621.262 323.482 620.793 322.984C620.329 322.482 620.097 321.855 620.097 321.102C620.097 320.487 620.27 319.942 620.616 319.469C620.966 318.995 621.442 318.624 622.043 318.354C622.649 318.084 623.336 317.949 624.103 317.949C625.182 317.949 626.03 318.186 626.645 318.659C627.266 319.133 627.706 319.758 627.966 320.534ZM630.688 329V318.091H632.308V319.795H632.45C632.677 319.213 633.044 318.761 633.551 318.439C634.057 318.112 634.666 317.949 635.376 317.949C636.096 317.949 636.695 318.112 637.173 318.439C637.656 318.761 638.032 319.213 638.302 319.795H638.416C638.695 319.232 639.114 318.785 639.673 318.453C640.231 318.117 640.901 317.949 641.683 317.949C642.658 317.949 643.456 318.254 644.076 318.865C644.696 319.471 645.007 320.416 645.007 321.699V329H643.33V321.699C643.33 320.894 643.11 320.319 642.67 319.973C642.23 319.627 641.711 319.455 641.115 319.455C640.347 319.455 639.753 319.687 639.332 320.151C638.91 320.61 638.7 321.192 638.7 321.898V329H636.995V321.528C636.995 320.908 636.794 320.409 636.392 320.03C635.989 319.646 635.471 319.455 634.836 319.455C634.401 319.455 633.993 319.571 633.615 319.803C633.24 320.035 632.937 320.357 632.705 320.768C632.478 321.176 632.365 321.647 632.365 322.182V329H630.688ZM651.281 329.256C650.59 329.256 649.963 329.125 649.399 328.865C648.836 328.6 648.388 328.219 648.057 327.722C647.726 327.22 647.56 326.614 647.56 325.903C647.56 325.278 647.683 324.772 647.929 324.384C648.175 323.991 648.504 323.683 648.916 323.46C649.328 323.238 649.783 323.072 650.28 322.963C650.782 322.849 651.286 322.759 651.793 322.693C652.456 322.608 652.993 322.544 653.405 322.501C653.822 322.454 654.125 322.376 654.314 322.267C654.508 322.158 654.605 321.969 654.605 321.699V321.642C654.605 320.941 654.414 320.397 654.03 320.009C653.651 319.62 653.076 319.426 652.304 319.426C651.504 319.426 650.877 319.601 650.422 319.952C649.968 320.302 649.648 320.676 649.463 321.074L647.872 320.506C648.156 319.843 648.535 319.327 649.009 318.957C649.487 318.583 650.008 318.323 650.571 318.176C651.139 318.025 651.698 317.949 652.247 317.949C652.598 317.949 653 317.991 653.455 318.077C653.914 318.157 654.357 318.325 654.783 318.581C655.214 318.837 655.571 319.223 655.855 319.739C656.139 320.255 656.281 320.946 656.281 321.812V329H654.605V327.523H654.52C654.406 327.759 654.217 328.013 653.952 328.283C653.687 328.553 653.334 328.782 652.894 328.972C652.453 329.161 651.916 329.256 651.281 329.256ZM651.537 327.75C652.2 327.75 652.759 327.62 653.213 327.359C653.673 327.099 654.018 326.763 654.25 326.351C654.487 325.939 654.605 325.506 654.605 325.051V323.517C654.534 323.602 654.378 323.68 654.137 323.751C653.9 323.818 653.625 323.877 653.313 323.929C653.005 323.976 652.704 324.019 652.411 324.057C652.122 324.09 651.887 324.118 651.708 324.142C651.272 324.199 650.865 324.291 650.486 324.419C650.112 324.542 649.809 324.729 649.577 324.98C649.35 325.226 649.236 325.562 649.236 325.989C649.236 326.571 649.451 327.011 649.882 327.31C650.318 327.603 650.869 327.75 651.537 327.75ZM661.017 314.455V329H659.341V314.455H661.017ZM665.763 314.455V329H664.087V314.455H665.763ZM677.668 329.256C676.977 329.256 676.349 329.125 675.786 328.865C675.223 328.6 674.775 328.219 674.444 327.722C674.112 327.22 673.947 326.614 673.947 325.903C673.947 325.278 674.07 324.772 674.316 324.384C674.562 323.991 674.891 323.683 675.303 323.46C675.715 323.238 676.17 323.072 676.667 322.963C677.169 322.849 677.673 322.759 678.18 322.693C678.842 322.608 679.38 322.544 679.792 322.501C680.208 322.454 680.511 322.376 680.701 322.267C680.895 322.158 680.992 321.969 680.992 321.699V321.642C680.992 320.941 680.8 320.397 680.417 320.009C680.038 319.62 679.463 319.426 678.691 319.426C677.891 319.426 677.263 319.601 676.809 319.952C676.354 320.302 676.035 320.676 675.85 321.074L674.259 320.506C674.543 319.843 674.922 319.327 675.395 318.957C675.874 318.583 676.394 318.323 676.958 318.176C677.526 318.025 678.085 317.949 678.634 317.949C678.984 317.949 679.387 317.991 679.841 318.077C680.301 318.157 680.743 318.325 681.17 318.581C681.6 318.837 681.958 319.223 682.242 319.739C682.526 320.255 682.668 320.946 682.668 321.812V329H680.992V327.523H680.907C680.793 327.759 680.604 328.013 680.339 328.283C680.073 328.553 679.721 328.782 679.28 328.972C678.84 329.161 678.303 329.256 677.668 329.256ZM677.924 327.75C678.587 327.75 679.145 327.62 679.6 327.359C680.059 327.099 680.405 326.763 680.637 326.351C680.874 325.939 680.992 325.506 680.992 325.051V323.517C680.921 323.602 680.765 323.68 680.523 323.751C680.287 323.818 680.012 323.877 679.699 323.929C679.392 323.976 679.091 324.019 678.797 324.057C678.509 324.09 678.274 324.118 678.094 324.142C677.659 324.199 677.251 324.291 676.873 324.419C676.499 324.542 676.196 324.729 675.964 324.98C675.736 325.226 675.623 325.562 675.623 325.989C675.623 326.571 675.838 327.011 676.269 327.31C676.705 327.603 677.256 327.75 677.924 327.75ZM687.404 322.438V329H685.727V318.091H687.347V319.795H687.489C687.744 319.241 688.133 318.796 688.654 318.46C689.174 318.119 689.847 317.949 690.671 317.949C691.409 317.949 692.056 318.1 692.61 318.403C693.164 318.702 693.594 319.156 693.902 319.767C694.21 320.373 694.364 321.14 694.364 322.068V329H692.688V322.182C692.688 321.325 692.465 320.657 692.02 320.179C691.575 319.696 690.964 319.455 690.188 319.455C689.653 319.455 689.174 319.571 688.753 319.803C688.336 320.035 688.007 320.373 687.766 320.818C687.524 321.263 687.404 321.803 687.404 322.438ZM701.546 329.227C700.637 329.227 699.834 328.998 699.138 328.538C698.442 328.074 697.898 327.421 697.505 326.578C697.112 325.731 696.915 324.729 696.915 323.574C696.915 322.428 697.112 321.434 697.505 320.591C697.898 319.748 698.445 319.097 699.145 318.638C699.846 318.179 700.656 317.949 701.574 317.949C702.285 317.949 702.846 318.067 703.258 318.304C703.674 318.536 703.992 318.801 704.209 319.099C704.432 319.393 704.605 319.634 704.728 319.824H704.87V314.455H706.546V329H704.927V327.324H704.728C704.605 327.523 704.43 327.774 704.202 328.077C703.975 328.375 703.651 328.643 703.229 328.879C702.808 329.111 702.247 329.227 701.546 329.227ZM701.773 327.722C702.446 327.722 703.014 327.546 703.478 327.196C703.942 326.841 704.295 326.351 704.536 325.726C704.778 325.096 704.898 324.369 704.898 323.545C704.898 322.731 704.78 322.018 704.543 321.408C704.306 320.792 703.956 320.314 703.492 319.973C703.028 319.627 702.455 319.455 701.773 319.455C701.063 319.455 700.471 319.637 699.998 320.001C699.529 320.361 699.176 320.851 698.939 321.472C698.707 322.087 698.591 322.778 698.591 323.545C698.591 324.322 698.71 325.027 698.947 325.662C699.188 326.292 699.543 326.794 700.012 327.168C700.485 327.537 701.073 327.722 701.773 327.722ZM715.701 329V314.455H717.377V319.824H717.519C717.642 319.634 717.813 319.393 718.03 319.099C718.253 318.801 718.57 318.536 718.982 318.304C719.399 318.067 719.962 317.949 720.672 317.949C721.591 317.949 722.401 318.179 723.101 318.638C723.802 319.097 724.349 319.748 724.742 320.591C725.135 321.434 725.331 322.428 725.331 323.574C725.331 324.729 725.135 325.731 724.742 326.578C724.349 327.421 723.805 328.074 723.108 328.538C722.412 328.998 721.61 329.227 720.701 329.227C720 329.227 719.439 329.111 719.018 328.879C718.596 328.643 718.272 328.375 718.045 328.077C717.817 327.774 717.642 327.523 717.519 327.324H717.32V329H715.701ZM717.349 323.545C717.349 324.369 717.469 325.096 717.711 325.726C717.952 326.351 718.305 326.841 718.769 327.196C719.233 327.546 719.801 327.722 720.474 327.722C721.174 327.722 721.759 327.537 722.228 327.168C722.701 326.794 723.056 326.292 723.293 325.662C723.535 325.027 723.655 324.322 723.655 323.545C723.655 322.778 723.537 322.087 723.3 321.472C723.068 320.851 722.715 320.361 722.242 320.001C721.773 319.637 721.184 319.455 720.474 319.455C719.792 319.455 719.219 319.627 718.755 319.973C718.291 320.314 717.94 320.792 717.704 321.408C717.467 322.018 717.349 322.731 717.349 323.545ZM727.895 329V318.091H729.572V329H727.895ZM728.748 316.273C728.421 316.273 728.139 316.161 727.903 315.939C727.671 315.716 727.555 315.449 727.555 315.136C727.555 314.824 727.671 314.556 727.903 314.334C728.139 314.111 728.421 314 728.748 314C729.074 314 729.354 314.111 729.586 314.334C729.823 314.556 729.941 314.824 729.941 315.136C729.941 315.449 729.823 315.716 729.586 315.939C729.354 316.161 729.074 316.273 728.748 316.273ZM737.045 333.318C736.235 333.318 735.539 333.214 734.957 333.006C734.374 332.802 733.889 332.532 733.501 332.196C733.117 331.865 732.812 331.509 732.585 331.131L733.92 330.193C734.071 330.392 734.263 330.619 734.495 330.875C734.727 331.135 735.044 331.36 735.447 331.55C735.854 331.744 736.387 331.841 737.045 331.841C737.926 331.841 738.652 331.628 739.225 331.202C739.798 330.776 740.085 330.108 740.085 329.199V326.983H739.943C739.82 327.182 739.644 327.428 739.417 327.722C739.195 328.01 738.873 328.268 738.451 328.496C738.035 328.718 737.471 328.83 736.761 328.83C735.88 328.83 735.089 328.621 734.389 328.205C733.693 327.788 733.141 327.182 732.734 326.386C732.331 325.591 732.13 324.625 732.13 323.489C732.13 322.371 732.327 321.398 732.72 320.57C733.113 319.736 733.66 319.092 734.36 318.638C735.061 318.179 735.871 317.949 736.789 317.949C737.499 317.949 738.063 318.067 738.48 318.304C738.901 318.536 739.223 318.801 739.445 319.099C739.673 319.393 739.848 319.634 739.971 319.824H740.142V318.091H741.761V329.312C741.761 330.25 741.548 331.012 741.122 331.599C740.7 332.191 740.132 332.625 739.417 332.899C738.707 333.179 737.916 333.318 737.045 333.318ZM736.988 327.324C737.66 327.324 738.229 327.17 738.693 326.862C739.157 326.554 739.509 326.112 739.751 325.534C739.992 324.956 740.113 324.265 740.113 323.46C740.113 322.674 739.995 321.981 739.758 321.379C739.521 320.778 739.171 320.307 738.707 319.966C738.243 319.625 737.67 319.455 736.988 319.455C736.278 319.455 735.686 319.634 735.213 319.994C734.744 320.354 734.391 320.837 734.154 321.443C733.922 322.049 733.806 322.722 733.806 323.46C733.806 324.218 733.925 324.888 734.161 325.47C734.403 326.048 734.758 326.502 735.227 326.834C735.7 327.161 736.287 327.324 736.988 327.324ZM746.051 329.114C745.7 329.114 745.4 328.988 745.149 328.737C744.898 328.486 744.772 328.186 744.772 327.835C744.772 327.485 744.898 327.184 745.149 326.933C745.4 326.682 745.7 326.557 746.051 326.557C746.401 326.557 746.702 326.682 746.953 326.933C747.204 327.184 747.329 327.485 747.329 327.835C747.329 328.067 747.27 328.28 747.151 328.474C747.038 328.669 746.884 328.825 746.69 328.943C746.5 329.057 746.287 329.114 746.051 329.114ZM746.051 321.017C745.7 321.017 745.4 320.892 745.149 320.641C744.898 320.39 744.772 320.089 744.772 319.739C744.772 319.388 744.898 319.088 745.149 318.837C745.4 318.586 745.7 318.46 746.051 318.46C746.401 318.46 746.702 318.586 746.953 318.837C747.204 319.088 747.329 319.388 747.329 319.739C747.329 319.971 747.27 320.184 747.151 320.378C747.038 320.572 746.884 320.728 746.69 320.847C746.5 320.96 746.287 321.017 746.051 321.017Z" fill="black"/>
</svg>
