<svg width="1024" height="1024" viewBox="0 0 1024 1024" fill="none" xmlns="http://www.w3.org/2000/svg">
<g clip-path="url(#clip0_27_49)">
<path d="M120.446 224.222C121.909 218.371 147.28 221.354 151.397 221.735C153.346 221.915 164.587 222.564 163.557 222.564" stroke="black" stroke-opacity="0.5" stroke-width="3" stroke-linecap="round"/>
<path d="M146.976 222.564C142.922 226.618 131.198 249.495 137.027 252.41" stroke="black" stroke-opacity="0.5" stroke-width="3" stroke-linecap="round"/>
<path d="M168.531 219.248C164.626 219.736 161.959 228.763 160.149 231.591C158.919 233.513 150.982 248.283 156.188 240.711C166.553 225.634 166.873 239.629 166.873 249.094" stroke="black" stroke-opacity="0.5" stroke-width="3" stroke-linecap="round"/>
<path d="M191.745 229.196C186.105 228.57 174.696 223.705 171.479 230.854C169.644 234.933 170.896 251.059 178.48 247.067C182.258 245.079 186.633 240.826 189.718 237.855C191.514 236.126 194.633 229.485 194.324 231.96C193.756 236.5 184.075 251.83 195.061 247.436" stroke="black" stroke-opacity="0.5" stroke-width="3" stroke-linecap="round"/>
<path d="M206.668 230.854C204.958 237.314 196.047 254.74 200.772 250.015C205.498 245.289 204.892 236.914 211.642 233.25C224.618 226.206 223.546 260.107 224.907 257.384" stroke="black" stroke-opacity="0.5" stroke-width="3" stroke-linecap="round"/>
<path d="M241.488 209.299C240.334 215.645 235.563 221.156 234.119 227.722C232.673 234.296 231.51 240.923 229.881 247.436" stroke="black" stroke-opacity="0.5" stroke-width="3" stroke-linecap="round"/>
<path d="M246.462 224.222C242.732 230.853 230.408 231.844 227.67 239.145C225.979 243.654 244.269 252.998 246.462 257.384" stroke="black" stroke-opacity="0.5" stroke-width="3" stroke-linecap="round"/>
<path d="M282.941 229.196C282.941 232.44 281.683 236.976 285.428 238.224C290.669 239.971 302.921 224.75 298.324 227.815C287.608 234.959 286.085 250.675 276.677 259.411C274.664 261.28 264.702 261.43 264.702 260.7" stroke="black" stroke-opacity="0.5" stroke-width="3" stroke-linecap="round"/>
<path d="M301.18 232.513C301.18 238.255 305.454 255.497 310.76 241.172C314.766 230.357 304.481 231.189 297.864 232.513" stroke="black" stroke-opacity="0.5" stroke-width="3" stroke-linecap="round"/>
<path d="M322.736 225.88C322.44 228.84 321.333 248.69 328.539 239.882C331.209 236.619 331.997 233.455 333.421 229.657C334.73 226.166 332.675 237.469 334.342 240.803" stroke="black" stroke-opacity="0.5" stroke-width="3" stroke-linecap="round"/>
<path d="M384.086 214.273C384.086 205.605 375.29 204.803 371.65 212.892C369.257 218.209 360.35 261.268 355.898 259.042" stroke="black" stroke-opacity="0.5" stroke-width="3" stroke-linecap="round"/>
<path d="M392.376 232.513C382.825 233.707 391.735 250.906 395.693 245.409C406.029 231.053 389.396 235.829 380.77 235.829" stroke="black" stroke-opacity="0.5" stroke-width="3" stroke-linecap="round"/>
<path d="M349.265 235.829C351.803 238.05 363.609 234.407 366.86 234.171C375.353 233.553 383.922 230.854 392.376 230.854" stroke="black" stroke-opacity="0.5" stroke-width="3" stroke-linecap="round"/>
<path d="M402.325 229.196C402.325 232.308 400.664 246.614 403.246 240.711C407.189 231.699 413.512 231.685 422.222 229.196" stroke="black" stroke-opacity="0.5" stroke-width="3" stroke-linecap="round"/>
<path d="M443.778 230.854C447.72 238.739 452.048 242.137 456.214 233.342C463.675 217.59 440.908 264.67 433.829 280.598" stroke="black" stroke-opacity="0.5" stroke-width="3" stroke-linecap="round"/>
<path d="M465.333 230.854C463.355 234.81 460.694 239.921 462.385 244.488C464.13 249.198 470.737 247.681 472.61 243.935C478.601 231.953 472.966 227.538 462.017 227.538" stroke="black" stroke-opacity="0.5" stroke-width="3" stroke-linecap="round"/>
<path d="M478.598 227.538C479.501 244.688 488.098 245.023 496.837 232.144C505.456 219.443 487.788 238.766 495.179 242.461" stroke="black" stroke-opacity="0.5" stroke-width="3" stroke-linecap="round"/>
<path d="M508.444 227.538C508.444 231.679 509.878 249.783 510.102 245.409C510.466 238.307 513.9 236.221 520.051 234.171" stroke="black" stroke-opacity="0.5" stroke-width="3" stroke-linecap="round"/>
<path d="M554.871 225.88C554.871 231.065 555.013 246.341 556.437 241.356C558.85 232.911 557.715 230.459 566.478 227.538" stroke="black" stroke-opacity="0.5" stroke-width="3" stroke-linecap="round"/>
<path d="M568.136 234.171C577.494 242.489 585.847 222.748 577.255 222.748C572.293 222.748 569.228 235.513 570.162 239.145C572.345 247.632 580.975 243.117 586.375 240.803" stroke="black" stroke-opacity="0.5" stroke-width="3" stroke-linecap="round"/>
<path d="M604.614 224.222C600.952 224.588 595.051 227.296 593.376 230.854C592.11 233.545 599.21 234.113 600.469 235.092C608.041 240.981 593.06 249.251 591.35 244.119" stroke="black" stroke-opacity="0.5" stroke-width="3" stroke-linecap="round"/>
<path d="M616.221 224.222C616.221 236.765 609.905 249.129 608.299 261.622C607.996 263.978 607.931 281.155 607.931 270.649" stroke="black" stroke-opacity="0.5" stroke-width="3" stroke-linecap="round"/>
<path d="M611.247 227.538C615.09 227.111 625.617 222.239 624.419 230.025C623.599 235.356 615.586 240.291 611.247 242.461" stroke="black" stroke-opacity="0.5" stroke-width="3" stroke-linecap="round"/>
<path d="M636.118 227.538C632.785 230.501 627.828 233.723 627.828 238.777C627.828 243.462 633.531 243.246 636.118 240.803C647.022 230.505 640.942 222.986 627.828 230.854" stroke="black" stroke-opacity="0.5" stroke-width="3" stroke-linecap="round"/>
<path d="M651.041 220.906C650.771 222.293 647.395 233.628 649.752 235.46C650.176 235.79 657.898 225.645 659.332 224.591C672.96 214.57 670.834 238.007 669.28 245.777" stroke="black" stroke-opacity="0.5" stroke-width="3" stroke-linecap="round"/>
<path d="M695.81 224.222C690.85 224.773 682.478 230.111 678.769 233.25C674.86 236.557 680.941 238.454 682.177 240.803C687.344 250.62 669.395 257.498 664.306 252.41" stroke="black" stroke-opacity="0.5" stroke-width="3" stroke-linecap="round"/>
<path d="M687.52 237.487C692.083 237.487 698.227 239.097 700.416 234.171C701.452 231.841 701.492 225.895 697.469 227.907C686.693 233.294 698.388 244.119 705.759 244.119" stroke="black" stroke-opacity="0.5" stroke-width="3" stroke-linecap="round"/>
<path d="M723.999 239.145V240.803" stroke="black" stroke-opacity="0.5" stroke-width="3" stroke-linecap="round"/>
<path d="M130.403 376L126.426 361.455H128.216L131.256 373.301H131.398L134.494 361.455H136.483L139.58 373.301H139.722L142.761 361.455H144.551L140.574 376H138.756L135.545 364.409H135.432L132.222 376H130.403ZM150.077 376.227C149.026 376.227 148.119 375.995 147.357 375.531C146.599 375.062 146.014 374.409 145.602 373.571C145.195 372.728 144.991 371.748 144.991 370.631C144.991 369.513 145.195 368.528 145.602 367.676C146.014 366.819 146.587 366.152 147.321 365.673C148.06 365.19 148.921 364.949 149.906 364.949C150.474 364.949 151.036 365.044 151.589 365.233C152.143 365.422 152.648 365.73 153.102 366.156C153.557 366.578 153.919 367.136 154.189 367.832C154.459 368.528 154.594 369.385 154.594 370.403V371.114H146.185V369.665H152.889C152.889 369.049 152.766 368.5 152.52 368.017C152.278 367.534 151.933 367.153 151.483 366.874C151.038 366.594 150.512 366.455 149.906 366.455C149.239 366.455 148.661 366.62 148.173 366.952C147.69 367.278 147.319 367.705 147.058 368.23C146.798 368.756 146.668 369.319 146.668 369.92V370.886C146.668 371.71 146.81 372.409 147.094 372.982C147.383 373.55 147.783 373.983 148.294 374.281C148.805 374.575 149.4 374.722 150.077 374.722C150.517 374.722 150.915 374.66 151.27 374.537C151.63 374.409 151.94 374.22 152.2 373.969C152.461 373.713 152.662 373.396 152.804 373.017L154.423 373.472C154.253 374.021 153.966 374.504 153.564 374.92C153.161 375.332 152.664 375.654 152.072 375.886C151.481 376.114 150.815 376.227 150.077 376.227ZM158.621 361.455V362.733C158.621 363.121 158.55 363.536 158.408 363.976C158.27 364.411 158.067 364.835 157.797 365.247C157.532 365.654 157.21 366.009 156.831 366.312L155.922 365.574C156.22 365.148 156.478 364.705 156.696 364.246C156.919 363.782 157.03 363.287 157.03 362.761V361.455H158.621ZM160.405 376V365.091H162.025V366.739H162.138C162.337 366.199 162.697 365.761 163.218 365.425C163.739 365.089 164.326 364.92 164.979 364.92C165.102 364.92 165.256 364.923 165.441 364.928C165.625 364.932 165.765 364.939 165.86 364.949V366.653C165.803 366.639 165.673 366.618 165.469 366.589C165.27 366.556 165.06 366.54 164.837 366.54C164.307 366.54 163.833 366.651 163.417 366.874C163.005 367.091 162.678 367.394 162.436 367.783C162.2 368.166 162.081 368.604 162.081 369.097V376H160.405ZM172.088 376.227C171.037 376.227 170.131 375.995 169.368 375.531C168.611 375.062 168.026 374.409 167.614 373.571C167.207 372.728 167.003 371.748 167.003 370.631C167.003 369.513 167.207 368.528 167.614 367.676C168.026 366.819 168.599 366.152 169.333 365.673C170.071 365.19 170.933 364.949 171.918 364.949C172.486 364.949 173.047 365.044 173.601 365.233C174.155 365.422 174.659 365.73 175.114 366.156C175.569 366.578 175.931 367.136 176.201 367.832C176.471 368.528 176.605 369.385 176.605 370.403V371.114H168.196V369.665H174.901C174.901 369.049 174.778 368.5 174.532 368.017C174.29 367.534 173.944 367.153 173.495 366.874C173.05 366.594 172.524 366.455 171.918 366.455C171.25 366.455 170.673 366.62 170.185 366.952C169.702 367.278 169.33 367.705 169.07 368.23C168.81 368.756 168.679 369.319 168.679 369.92V370.886C168.679 371.71 168.821 372.409 169.105 372.982C169.394 373.55 169.794 373.983 170.306 374.281C170.817 374.575 171.411 374.722 172.088 374.722C172.529 374.722 172.926 374.66 173.282 374.537C173.641 374.409 173.952 374.22 174.212 373.969C174.472 373.713 174.674 373.396 174.816 373.017L176.435 373.472C176.265 374.021 175.978 374.504 175.576 374.92C175.173 375.332 174.676 375.654 174.084 375.886C173.492 376.114 172.827 376.227 172.088 376.227ZM192.507 367.534L191.002 367.96C190.907 367.709 190.767 367.465 190.583 367.229C190.403 366.987 190.157 366.788 189.844 366.632C189.532 366.476 189.132 366.398 188.644 366.398C187.976 366.398 187.42 366.552 186.975 366.859C186.534 367.162 186.314 367.548 186.314 368.017C186.314 368.434 186.466 368.763 186.769 369.004C187.072 369.246 187.545 369.447 188.189 369.608L189.809 370.006C190.784 370.242 191.511 370.605 191.989 371.092C192.467 371.575 192.706 372.198 192.706 372.96C192.706 373.585 192.526 374.144 192.167 374.636C191.811 375.129 191.314 375.517 190.675 375.801C190.036 376.085 189.292 376.227 188.445 376.227C187.332 376.227 186.411 375.986 185.682 375.503C184.953 375.02 184.491 374.314 184.297 373.386L185.888 372.989C186.04 373.576 186.326 374.016 186.748 374.31C187.174 374.603 187.73 374.75 188.417 374.75C189.198 374.75 189.818 374.584 190.277 374.253C190.741 373.917 190.973 373.514 190.973 373.045C190.973 372.667 190.841 372.349 190.576 372.094C190.31 371.833 189.903 371.639 189.354 371.511L187.536 371.085C186.537 370.848 185.803 370.482 185.334 369.984C184.87 369.482 184.638 368.855 184.638 368.102C184.638 367.487 184.811 366.942 185.157 366.469C185.507 365.995 185.983 365.624 186.584 365.354C187.19 365.084 187.877 364.949 188.644 364.949C189.723 364.949 190.571 365.186 191.186 365.659C191.807 366.133 192.247 366.758 192.507 367.534ZM199.661 376.227C198.676 376.227 197.812 375.993 197.069 375.524C196.33 375.055 195.753 374.4 195.336 373.557C194.924 372.714 194.718 371.729 194.718 370.602C194.718 369.466 194.924 368.474 195.336 367.626C195.753 366.779 196.33 366.121 197.069 365.652C197.812 365.183 198.676 364.949 199.661 364.949C200.646 364.949 201.508 365.183 202.246 365.652C202.99 366.121 203.567 366.779 203.979 367.626C204.396 368.474 204.604 369.466 204.604 370.602C204.604 371.729 204.396 372.714 203.979 373.557C203.567 374.4 202.99 375.055 202.246 375.524C201.508 375.993 200.646 376.227 199.661 376.227ZM199.661 374.722C200.409 374.722 201.025 374.53 201.508 374.146C201.991 373.763 202.348 373.259 202.58 372.634C202.812 372.009 202.928 371.331 202.928 370.602C202.928 369.873 202.812 369.194 202.58 368.564C202.348 367.934 201.991 367.425 201.508 367.037C201.025 366.649 200.409 366.455 199.661 366.455C198.913 366.455 198.298 366.649 197.815 367.037C197.332 367.425 196.974 367.934 196.742 368.564C196.51 369.194 196.394 369.873 196.394 370.602C196.394 371.331 196.51 372.009 196.742 372.634C196.974 373.259 197.332 373.763 197.815 374.146C198.298 374.53 198.913 374.722 199.661 374.722ZM207.163 376V365.091H208.782V366.739H208.896C209.095 366.199 209.455 365.761 209.975 365.425C210.496 365.089 211.083 364.92 211.737 364.92C211.86 364.92 212.014 364.923 212.199 364.928C212.383 364.932 212.523 364.939 212.618 364.949V366.653C212.561 366.639 212.431 366.618 212.227 366.589C212.028 366.556 211.817 366.54 211.595 366.54C211.065 366.54 210.591 366.651 210.174 366.874C209.762 367.091 209.436 367.394 209.194 367.783C208.958 368.166 208.839 368.604 208.839 369.097V376H207.163ZM214.604 376V365.091H216.224V366.739H216.337C216.536 366.199 216.896 365.761 217.417 365.425C217.938 365.089 218.525 364.92 219.178 364.92C219.301 364.92 219.455 364.923 219.64 364.928C219.825 364.932 219.964 364.939 220.059 364.949V366.653C220.002 366.639 219.872 366.618 219.668 366.589C219.469 366.556 219.259 366.54 219.036 366.54C218.506 366.54 218.032 366.651 217.616 366.874C217.204 367.091 216.877 367.394 216.636 367.783C216.399 368.166 216.281 368.604 216.281 369.097V376H214.604ZM223.457 380.091C223.173 380.091 222.92 380.067 222.697 380.02C222.475 379.977 222.321 379.935 222.236 379.892L222.662 378.415C223.069 378.519 223.429 378.557 223.741 378.528C224.054 378.5 224.331 378.36 224.572 378.109C224.819 377.863 225.044 377.463 225.247 376.909L225.56 376.057L221.526 365.091H223.344L226.355 373.784H226.469L229.48 365.091H231.298L226.668 377.591C226.459 378.154 226.201 378.621 225.893 378.99C225.586 379.364 225.228 379.641 224.821 379.821C224.419 380.001 223.964 380.091 223.457 380.091ZM243.88 365.091V366.511H238.227V365.091H243.88ZM239.874 362.477H241.55V372.875C241.55 373.348 241.619 373.704 241.756 373.94C241.898 374.172 242.078 374.329 242.296 374.409C242.519 374.485 242.753 374.523 242.999 374.523C243.184 374.523 243.335 374.513 243.454 374.494C243.572 374.471 243.667 374.452 243.738 374.438L244.079 375.943C243.965 375.986 243.807 376.028 243.603 376.071C243.399 376.118 243.141 376.142 242.829 376.142C242.355 376.142 241.891 376.04 241.437 375.837C240.987 375.633 240.613 375.323 240.315 374.906C240.021 374.49 239.874 373.964 239.874 373.33V362.477ZM250.716 376.227C249.731 376.227 248.867 375.993 248.124 375.524C247.385 375.055 246.807 374.4 246.391 373.557C245.979 372.714 245.773 371.729 245.773 370.602C245.773 369.466 245.979 368.474 246.391 367.626C246.807 366.779 247.385 366.121 248.124 365.652C248.867 365.183 249.731 364.949 250.716 364.949C251.701 364.949 252.563 365.183 253.301 365.652C254.045 366.121 254.622 366.779 255.034 367.626C255.451 368.474 255.659 369.466 255.659 370.602C255.659 371.729 255.451 372.714 255.034 373.557C254.622 374.4 254.045 375.055 253.301 375.524C252.563 375.993 251.701 376.227 250.716 376.227ZM250.716 374.722C251.464 374.722 252.08 374.53 252.562 374.146C253.045 373.763 253.403 373.259 253.635 372.634C253.867 372.009 253.983 371.331 253.983 370.602C253.983 369.873 253.867 369.194 253.635 368.564C253.403 367.934 253.045 367.425 252.562 367.037C252.08 366.649 251.464 366.455 250.716 366.455C249.968 366.455 249.352 366.649 248.869 367.037C248.386 367.425 248.029 367.934 247.797 368.564C247.565 369.194 247.449 369.873 247.449 370.602C247.449 371.331 247.565 372.009 247.797 372.634C248.029 373.259 248.386 373.763 248.869 374.146C249.352 374.53 249.968 374.722 250.716 374.722ZM271.57 367.534L270.064 367.96C269.97 367.709 269.83 367.465 269.645 367.229C269.465 366.987 269.219 366.788 268.907 366.632C268.594 366.476 268.194 366.398 267.706 366.398C267.039 366.398 266.482 366.552 266.037 366.859C265.597 367.162 265.377 367.548 265.377 368.017C265.377 368.434 265.528 368.763 265.831 369.004C266.134 369.246 266.608 369.447 267.252 369.608L268.871 370.006C269.846 370.242 270.573 370.605 271.051 371.092C271.53 371.575 271.769 372.198 271.769 372.96C271.769 373.585 271.589 374.144 271.229 374.636C270.874 375.129 270.377 375.517 269.738 375.801C269.098 376.085 268.355 376.227 267.507 376.227C266.395 376.227 265.474 375.986 264.745 375.503C264.016 375.02 263.554 374.314 263.36 373.386L264.951 372.989C265.102 373.576 265.389 374.016 265.81 374.31C266.236 374.603 266.792 374.75 267.479 374.75C268.26 374.75 268.881 374.584 269.34 374.253C269.804 373.917 270.036 373.514 270.036 373.045C270.036 372.667 269.903 372.349 269.638 372.094C269.373 371.833 268.966 371.639 268.417 371.511L266.598 371.085C265.599 370.848 264.865 370.482 264.397 369.984C263.933 369.482 263.701 368.855 263.701 368.102C263.701 367.487 263.873 366.942 264.219 366.469C264.569 365.995 265.045 365.624 265.647 365.354C266.253 365.084 266.939 364.949 267.706 364.949C268.786 364.949 269.633 365.186 270.249 365.659C270.869 366.133 271.31 366.758 271.57 367.534ZM278.866 376.227C277.815 376.227 276.908 375.995 276.146 375.531C275.388 375.062 274.803 374.409 274.391 373.571C273.984 372.728 273.781 371.748 273.781 370.631C273.781 369.513 273.984 368.528 274.391 367.676C274.803 366.819 275.376 366.152 276.11 365.673C276.849 365.19 277.71 364.949 278.695 364.949C279.263 364.949 279.825 365.044 280.379 365.233C280.933 365.422 281.437 365.73 281.891 366.156C282.346 366.578 282.708 367.136 282.978 367.832C283.248 368.528 283.383 369.385 283.383 370.403V371.114H274.974V369.665H281.678C281.678 369.049 281.555 368.5 281.309 368.017C281.067 367.534 280.722 367.153 280.272 366.874C279.827 366.594 279.301 366.455 278.695 366.455C278.028 366.455 277.45 366.62 276.962 366.952C276.479 367.278 276.108 367.705 275.847 368.23C275.587 368.756 275.457 369.319 275.457 369.92V370.886C275.457 371.71 275.599 372.409 275.883 372.982C276.172 373.55 276.572 373.983 277.083 374.281C277.594 374.575 278.189 374.722 278.866 374.722C279.306 374.722 279.704 374.66 280.059 374.537C280.419 374.409 280.729 374.22 280.989 373.969C281.25 373.713 281.451 373.396 281.593 373.017L283.212 373.472C283.042 374.021 282.755 374.504 282.353 374.92C281.951 375.332 281.453 375.654 280.862 375.886C280.27 376.114 279.604 376.227 278.866 376.227ZM290.506 376.227C289.455 376.227 288.549 375.995 287.786 375.531C287.029 375.062 286.444 374.409 286.032 373.571C285.625 372.728 285.421 371.748 285.421 370.631C285.421 369.513 285.625 368.528 286.032 367.676C286.444 366.819 287.017 366.152 287.751 365.673C288.489 365.19 289.351 364.949 290.336 364.949C290.904 364.949 291.465 365.044 292.019 365.233C292.573 365.422 293.077 365.73 293.532 366.156C293.987 366.578 294.349 367.136 294.619 367.832C294.888 368.528 295.023 369.385 295.023 370.403V371.114H286.614V369.665H293.319C293.319 369.049 293.196 368.5 292.95 368.017C292.708 367.534 292.362 367.153 291.913 366.874C291.468 366.594 290.942 366.455 290.336 366.455C289.668 366.455 289.091 366.62 288.603 366.952C288.12 367.278 287.748 367.705 287.488 368.23C287.228 368.756 287.097 369.319 287.097 369.92V370.886C287.097 371.71 287.239 372.409 287.523 372.982C287.812 373.55 288.212 373.983 288.724 374.281C289.235 374.575 289.829 374.722 290.506 374.722C290.947 374.722 291.344 374.66 291.7 374.537C292.059 374.409 292.37 374.22 292.63 373.969C292.89 373.713 293.092 373.396 293.234 373.017L294.853 373.472C294.683 374.021 294.396 374.504 293.994 374.92C293.591 375.332 293.094 375.654 292.502 375.886C291.91 376.114 291.245 376.227 290.506 376.227ZM304.278 380.091C303.994 380.091 303.74 380.067 303.518 380.02C303.295 379.977 303.141 379.935 303.056 379.892L303.482 378.415C303.889 378.519 304.249 378.557 304.562 378.528C304.874 378.5 305.151 378.36 305.393 378.109C305.639 377.863 305.864 377.463 306.067 376.909L306.38 376.057L302.346 365.091H304.164L307.175 373.784H307.289L310.3 365.091H312.119L307.488 377.591C307.28 378.154 307.022 378.621 306.714 378.99C306.406 379.364 306.049 379.641 305.641 379.821C305.239 380.001 304.784 380.091 304.278 380.091ZM318.372 376.227C317.387 376.227 316.523 375.993 315.78 375.524C315.041 375.055 314.464 374.4 314.047 373.557C313.635 372.714 313.429 371.729 313.429 370.602C313.429 369.466 313.635 368.474 314.047 367.626C314.464 366.779 315.041 366.121 315.78 365.652C316.523 365.183 317.387 364.949 318.372 364.949C319.357 364.949 320.219 365.183 320.957 365.652C321.701 366.121 322.278 366.779 322.69 367.626C323.107 368.474 323.315 369.466 323.315 370.602C323.315 371.729 323.107 372.714 322.69 373.557C322.278 374.4 321.701 375.055 320.957 375.524C320.219 375.993 319.357 376.227 318.372 376.227ZM318.372 374.722C319.12 374.722 319.736 374.53 320.219 374.146C320.702 373.763 321.059 373.259 321.291 372.634C321.523 372.009 321.639 371.331 321.639 370.602C321.639 369.873 321.523 369.194 321.291 368.564C321.059 367.934 320.702 367.425 320.219 367.037C319.736 366.649 319.12 366.455 318.372 366.455C317.624 366.455 317.009 366.649 316.526 367.037C316.043 367.425 315.685 367.934 315.453 368.564C315.221 369.194 315.105 369.873 315.105 370.602C315.105 371.331 315.221 372.009 315.453 372.634C315.685 373.259 316.043 373.763 316.526 374.146C317.009 374.53 317.624 374.722 318.372 374.722ZM332.749 371.54V365.091H334.425V376H332.749V374.153H332.635C332.38 374.707 331.982 375.179 331.442 375.567C330.902 375.95 330.221 376.142 329.397 376.142C328.715 376.142 328.109 375.993 327.578 375.695C327.048 375.392 326.632 374.937 326.328 374.331C326.025 373.72 325.874 372.951 325.874 372.023V365.091H327.55V371.909C327.55 372.705 327.773 373.339 328.218 373.812C328.667 374.286 329.24 374.523 329.936 374.523C330.353 374.523 330.777 374.416 331.208 374.203C331.643 373.99 332.008 373.663 332.301 373.223C332.6 372.783 332.749 372.222 332.749 371.54ZM347.523 380.318C346.714 380.318 346.018 380.214 345.435 380.006C344.853 379.802 344.368 379.532 343.979 379.196C343.596 378.865 343.29 378.509 343.063 378.131L344.398 377.193C344.55 377.392 344.742 377.619 344.974 377.875C345.206 378.135 345.523 378.36 345.925 378.55C346.333 378.744 346.865 378.841 347.523 378.841C348.404 378.841 349.131 378.628 349.704 378.202C350.277 377.776 350.563 377.108 350.563 376.199V373.983H350.421C350.298 374.182 350.123 374.428 349.896 374.722C349.673 375.01 349.351 375.268 348.93 375.496C348.513 375.718 347.95 375.83 347.239 375.83C346.359 375.83 345.568 375.621 344.867 375.205C344.171 374.788 343.62 374.182 343.212 373.386C342.81 372.591 342.609 371.625 342.609 370.489C342.609 369.371 342.805 368.398 343.198 367.57C343.591 366.736 344.138 366.092 344.839 365.638C345.54 365.179 346.349 364.949 347.268 364.949C347.978 364.949 348.541 365.067 348.958 365.304C349.379 365.536 349.701 365.801 349.924 366.099C350.151 366.393 350.326 366.634 350.45 366.824H350.62V365.091H352.239V376.312C352.239 377.25 352.026 378.012 351.6 378.599C351.179 379.191 350.611 379.625 349.896 379.899C349.185 380.179 348.395 380.318 347.523 380.318ZM347.467 374.324C348.139 374.324 348.707 374.17 349.171 373.862C349.635 373.554 349.988 373.112 350.229 372.534C350.471 371.956 350.592 371.265 350.592 370.46C350.592 369.674 350.473 368.981 350.237 368.379C350 367.778 349.649 367.307 349.185 366.966C348.721 366.625 348.148 366.455 347.467 366.455C346.756 366.455 346.165 366.634 345.691 366.994C345.222 367.354 344.87 367.837 344.633 368.443C344.401 369.049 344.285 369.722 344.285 370.46C344.285 371.218 344.403 371.888 344.64 372.47C344.881 373.048 345.237 373.502 345.705 373.834C346.179 374.161 346.766 374.324 347.467 374.324ZM359.739 376.227C358.754 376.227 357.89 375.993 357.147 375.524C356.408 375.055 355.831 374.4 355.414 373.557C355.002 372.714 354.796 371.729 354.796 370.602C354.796 369.466 355.002 368.474 355.414 367.626C355.831 366.779 356.408 366.121 357.147 365.652C357.89 365.183 358.754 364.949 359.739 364.949C360.724 364.949 361.586 365.183 362.325 365.652C363.068 366.121 363.646 366.779 364.058 367.626C364.474 368.474 364.683 369.466 364.683 370.602C364.683 371.729 364.474 372.714 364.058 373.557C363.646 374.4 363.068 375.055 362.325 375.524C361.586 375.993 360.724 376.227 359.739 376.227ZM359.739 374.722C360.487 374.722 361.103 374.53 361.586 374.146C362.069 373.763 362.426 373.259 362.658 372.634C362.89 372.009 363.006 371.331 363.006 370.602C363.006 369.873 362.89 369.194 362.658 368.564C362.426 367.934 362.069 367.425 361.586 367.037C361.103 366.649 360.487 366.455 359.739 366.455C358.991 366.455 358.376 366.649 357.893 367.037C357.41 367.425 357.052 367.934 356.82 368.564C356.588 369.194 356.472 369.873 356.472 370.602C356.472 371.331 356.588 372.009 356.82 372.634C357.052 373.259 357.41 373.763 357.893 374.146C358.376 374.53 358.991 374.722 359.739 374.722ZM369.457 361.455L369.315 371.909H367.667L367.525 361.455H369.457ZM368.491 376.114C368.141 376.114 367.84 375.988 367.589 375.737C367.338 375.486 367.213 375.186 367.213 374.835C367.213 374.485 367.338 374.184 367.589 373.933C367.84 373.682 368.141 373.557 368.491 373.557C368.842 373.557 369.142 373.682 369.393 373.933C369.644 374.184 369.77 374.485 369.77 374.835C369.77 375.067 369.71 375.28 369.592 375.474C369.478 375.669 369.324 375.825 369.13 375.943C368.941 376.057 368.728 376.114 368.491 376.114ZM390.364 366H388.603C388.499 365.493 388.317 365.048 388.056 364.665C387.8 364.281 387.488 363.959 387.119 363.699C386.754 363.434 386.349 363.235 385.904 363.102C385.459 362.97 384.995 362.903 384.512 362.903C383.631 362.903 382.834 363.126 382.119 363.571C381.408 364.016 380.843 364.672 380.421 365.538C380.004 366.405 379.796 367.468 379.796 368.727C379.796 369.987 380.004 371.05 380.421 371.916C380.843 372.783 381.408 373.438 382.119 373.884C382.834 374.329 383.631 374.551 384.512 374.551C384.995 374.551 385.459 374.485 385.904 374.352C386.349 374.22 386.754 374.023 387.119 373.763C387.488 373.498 387.8 373.173 388.056 372.79C388.317 372.402 388.499 371.956 388.603 371.455H390.364C390.232 372.198 389.99 372.863 389.64 373.45C389.29 374.037 388.854 374.537 388.333 374.949C387.812 375.356 387.228 375.666 386.579 375.879C385.935 376.092 385.246 376.199 384.512 376.199C383.272 376.199 382.168 375.896 381.202 375.29C380.237 374.684 379.477 373.822 378.923 372.705C378.369 371.587 378.092 370.261 378.092 368.727C378.092 367.193 378.369 365.867 378.923 364.75C379.477 363.633 380.237 362.771 381.202 362.165C382.168 361.559 383.272 361.256 384.512 361.256C385.246 361.256 385.935 361.362 386.579 361.575C387.228 361.788 387.812 362.101 388.333 362.513C388.854 362.92 389.29 363.417 389.64 364.004C389.99 364.587 390.232 365.252 390.364 366ZM394.659 361.455V376H392.983V361.455H394.659ZM397.729 376V365.091H399.406V376H397.729ZM398.582 363.273C398.255 363.273 397.973 363.161 397.737 362.939C397.504 362.716 397.388 362.449 397.388 362.136C397.388 361.824 397.504 361.556 397.737 361.334C397.973 361.111 398.255 361 398.582 361C398.908 361 399.188 361.111 399.42 361.334C399.656 361.556 399.775 361.824 399.775 362.136C399.775 362.449 399.656 362.716 399.42 362.939C399.188 363.161 398.908 363.273 398.582 363.273ZM406.907 376.227C405.885 376.227 405.004 375.986 404.265 375.503C403.527 375.02 402.958 374.355 402.561 373.507C402.163 372.66 401.964 371.691 401.964 370.602C401.964 369.494 402.168 368.517 402.575 367.669C402.987 366.817 403.56 366.152 404.294 365.673C405.032 365.19 405.894 364.949 406.879 364.949C407.646 364.949 408.337 365.091 408.953 365.375C409.568 365.659 410.073 366.057 410.466 366.568C410.859 367.08 411.102 367.676 411.197 368.358H409.521C409.393 367.861 409.109 367.42 408.669 367.037C408.233 366.649 407.646 366.455 406.907 366.455C406.254 366.455 405.681 366.625 405.189 366.966C404.701 367.302 404.32 367.778 404.045 368.393C403.775 369.004 403.64 369.722 403.64 370.545C403.64 371.388 403.773 372.122 404.038 372.747C404.308 373.372 404.687 373.857 405.174 374.203C405.667 374.549 406.244 374.722 406.907 374.722C407.343 374.722 407.738 374.646 408.093 374.494C408.449 374.343 408.749 374.125 408.995 373.841C409.242 373.557 409.417 373.216 409.521 372.818H411.197C411.102 373.462 410.868 374.042 410.494 374.558C410.125 375.07 409.635 375.477 409.024 375.78C408.418 376.078 407.712 376.227 406.907 376.227ZM415.21 372.023L415.181 369.949H415.522L420.295 365.091H422.369L417.284 370.233H417.142L415.21 372.023ZM413.647 376V361.455H415.324V376H413.647ZM420.579 376L416.318 370.602L417.511 369.438L422.71 376H420.579ZM482.728 365.091V366.511H477.074V365.091H482.728ZM478.722 362.477H480.398V372.875C480.398 373.348 480.467 373.704 480.604 373.94C480.746 374.172 480.926 374.329 481.144 374.409C481.366 374.485 481.601 374.523 481.847 374.523C482.032 374.523 482.183 374.513 482.301 374.494C482.42 374.471 482.515 374.452 482.586 374.438L482.926 375.943C482.813 375.986 482.654 376.028 482.451 376.071C482.247 376.118 481.989 376.142 481.676 376.142C481.203 376.142 480.739 376.04 480.284 375.837C479.835 375.633 479.461 375.323 479.162 374.906C478.869 374.49 478.722 373.964 478.722 373.33V362.477ZM489.564 376.227C488.579 376.227 487.715 375.993 486.971 375.524C486.233 375.055 485.655 374.4 485.238 373.557C484.826 372.714 484.62 371.729 484.62 370.602C484.62 369.466 484.826 368.474 485.238 367.626C485.655 366.779 486.233 366.121 486.971 365.652C487.715 365.183 488.579 364.949 489.564 364.949C490.548 364.949 491.41 365.183 492.149 365.652C492.892 366.121 493.47 366.779 493.882 367.626C494.298 368.474 494.507 369.466 494.507 370.602C494.507 371.729 494.298 372.714 493.882 373.557C493.47 374.4 492.892 375.055 492.149 375.524C491.41 375.993 490.548 376.227 489.564 376.227ZM489.564 374.722C490.312 374.722 490.927 374.53 491.41 374.146C491.893 373.763 492.251 373.259 492.483 372.634C492.715 372.009 492.831 371.331 492.831 370.602C492.831 369.873 492.715 369.194 492.483 368.564C492.251 367.934 491.893 367.425 491.41 367.037C490.927 366.649 490.312 366.455 489.564 366.455C488.815 366.455 488.2 366.649 487.717 367.037C487.234 367.425 486.877 367.934 486.645 368.564C486.413 369.194 486.297 369.873 486.297 370.602C486.297 371.331 486.413 372.009 486.645 372.634C486.877 373.259 487.234 373.763 487.717 374.146C488.2 374.53 488.815 374.722 489.564 374.722ZM502.69 376V365.091H504.31V366.739H504.423C504.622 366.199 504.982 365.761 505.503 365.425C506.024 365.089 506.611 364.92 507.264 364.92C507.387 364.92 507.541 364.923 507.726 364.928C507.911 364.932 508.05 364.939 508.145 364.949V366.653C508.088 366.639 507.958 366.618 507.754 366.589C507.555 366.556 507.345 366.54 507.122 366.54C506.592 366.54 506.118 366.651 505.702 366.874C505.29 367.091 504.963 367.394 504.722 367.783C504.485 368.166 504.366 368.604 504.366 369.097V376H502.69ZM514.374 376.227C513.322 376.227 512.416 375.995 511.653 375.531C510.896 375.062 510.311 374.409 509.899 373.571C509.492 372.728 509.288 371.748 509.288 370.631C509.288 369.513 509.492 368.528 509.899 367.676C510.311 366.819 510.884 366.152 511.618 365.673C512.357 365.19 513.218 364.949 514.203 364.949C514.771 364.949 515.332 365.044 515.886 365.233C516.44 365.422 516.945 365.73 517.399 366.156C517.854 366.578 518.216 367.136 518.486 367.832C518.756 368.528 518.891 369.385 518.891 370.403V371.114H510.482V369.665H517.186C517.186 369.049 517.063 368.5 516.817 368.017C516.575 367.534 516.23 367.153 515.78 366.874C515.335 366.594 514.809 366.455 514.203 366.455C513.536 366.455 512.958 366.62 512.47 366.952C511.987 367.278 511.616 367.705 511.355 368.23C511.095 368.756 510.964 369.319 510.964 369.92V370.886C510.964 371.71 511.107 372.409 511.391 372.982C511.679 373.55 512.08 373.983 512.591 374.281C513.102 374.575 513.696 374.722 514.374 374.722C514.814 374.722 515.212 374.66 515.567 374.537C515.927 374.409 516.237 374.22 516.497 373.969C516.758 373.713 516.959 373.396 517.101 373.017L518.72 373.472C518.55 374.021 518.263 374.504 517.861 374.92C517.458 375.332 516.961 375.654 516.369 375.886C515.777 376.114 515.112 376.227 514.374 376.227ZM526.185 365.091V366.511H520.531V365.091H526.185ZM522.179 362.477H523.855V372.875C523.855 373.348 523.924 373.704 524.061 373.94C524.203 374.172 524.383 374.329 524.601 374.409C524.823 374.485 525.058 374.523 525.304 374.523C525.489 374.523 525.64 374.513 525.759 374.494C525.877 374.471 525.972 374.452 526.043 374.438L526.384 375.943C526.27 375.986 526.111 376.028 525.908 376.071C525.704 376.118 525.446 376.142 525.134 376.142C524.66 376.142 524.196 376.04 523.741 375.837C523.292 375.633 522.918 375.323 522.619 374.906C522.326 374.49 522.179 373.964 522.179 373.33V362.477ZM535.581 371.54V365.091H537.257V376H535.581V374.153H535.467C535.212 374.707 534.814 375.179 534.274 375.567C533.734 375.95 533.053 376.142 532.229 376.142C531.547 376.142 530.941 375.993 530.411 375.695C529.88 375.392 529.464 374.937 529.161 374.331C528.857 373.72 528.706 372.951 528.706 372.023V365.091H530.382V371.909C530.382 372.705 530.605 373.339 531.05 373.812C531.5 374.286 532.072 374.523 532.768 374.523C533.185 374.523 533.609 374.416 534.04 374.203C534.475 373.99 534.84 373.663 535.134 373.223C535.432 372.783 535.581 372.222 535.581 371.54ZM540.327 376V365.091H541.946V366.739H542.06C542.259 366.199 542.619 365.761 543.14 365.425C543.66 365.089 544.248 364.92 544.901 364.92C545.024 364.92 545.178 364.923 545.363 364.928C545.547 364.932 545.687 364.939 545.782 364.949V366.653C545.725 366.639 545.595 366.618 545.391 366.589C545.192 366.556 544.981 366.54 544.759 366.54C544.229 366.54 543.755 366.651 543.338 366.874C542.926 367.091 542.6 367.394 542.358 367.783C542.122 368.166 542.003 368.604 542.003 369.097V376H540.327ZM549.445 369.438V376H547.768V365.091H549.388V366.795H549.53C549.786 366.241 550.174 365.796 550.695 365.46C551.215 365.119 551.888 364.949 552.712 364.949C553.45 364.949 554.097 365.1 554.651 365.403C555.205 365.702 555.635 366.156 555.943 366.767C556.251 367.373 556.405 368.14 556.405 369.068V376H554.729V369.182C554.729 368.325 554.506 367.657 554.061 367.179C553.616 366.696 553.005 366.455 552.229 366.455C551.694 366.455 551.215 366.571 550.794 366.803C550.377 367.035 550.048 367.373 549.807 367.818C549.565 368.263 549.445 368.803 549.445 369.438ZM569.837 365.091V366.511H564.184V365.091H569.837ZM565.831 362.477H567.507V372.875C567.507 373.348 567.576 373.704 567.713 373.94C567.855 374.172 568.035 374.329 568.253 374.409C568.476 374.485 568.71 374.523 568.956 374.523C569.141 374.523 569.292 374.513 569.411 374.494C569.529 374.471 569.624 374.452 569.695 374.438L570.036 375.943C569.922 375.986 569.764 376.028 569.56 376.071C569.356 376.118 569.098 376.142 568.786 376.142C568.312 376.142 567.848 376.04 567.394 375.837C566.944 375.633 566.57 375.323 566.272 374.906C565.978 374.49 565.831 373.964 565.831 373.33V362.477ZM576.673 376.227C575.688 376.227 574.824 375.993 574.081 375.524C573.342 375.055 572.764 374.4 572.348 373.557C571.936 372.714 571.73 371.729 571.73 370.602C571.73 369.466 571.936 368.474 572.348 367.626C572.764 366.779 573.342 366.121 574.081 365.652C574.824 365.183 575.688 364.949 576.673 364.949C577.658 364.949 578.52 365.183 579.258 365.652C580.002 366.121 580.579 366.779 580.991 367.626C581.408 368.474 581.616 369.466 581.616 370.602C581.616 371.729 581.408 372.714 580.991 373.557C580.579 374.4 580.002 375.055 579.258 375.524C578.52 375.993 577.658 376.227 576.673 376.227ZM576.673 374.722C577.421 374.722 578.037 374.53 578.52 374.146C579.002 373.763 579.36 373.259 579.592 372.634C579.824 372.009 579.94 371.331 579.94 370.602C579.94 369.873 579.824 369.194 579.592 368.564C579.36 367.934 579.002 367.425 578.52 367.037C578.037 366.649 577.421 366.455 576.673 366.455C575.925 366.455 575.309 366.649 574.826 367.037C574.343 367.425 573.986 367.934 573.754 368.564C573.522 369.194 573.406 369.873 573.406 370.602C573.406 371.331 573.522 372.009 573.754 372.634C573.986 373.259 574.343 373.763 574.826 374.146C575.309 374.53 575.925 374.722 576.673 374.722ZM594.544 365.091V366.511H588.891V365.091H594.544ZM590.538 362.477H592.214V372.875C592.214 373.348 592.283 373.704 592.42 373.94C592.563 374.172 592.742 374.329 592.96 374.409C593.183 374.485 593.417 374.523 593.663 374.523C593.848 374.523 594 374.513 594.118 374.494C594.236 374.471 594.331 374.452 594.402 374.438L594.743 375.943C594.629 375.986 594.471 376.028 594.267 376.071C594.063 376.118 593.805 376.142 593.493 376.142C593.019 376.142 592.555 376.04 592.101 375.837C591.651 375.633 591.277 375.323 590.979 374.906C590.685 374.49 590.538 373.964 590.538 373.33V362.477ZM598.976 369.438V376H597.3V361.455H598.976V366.795H599.118C599.374 366.232 599.757 365.785 600.268 365.453C600.785 365.117 601.471 364.949 602.328 364.949C603.071 364.949 603.723 365.098 604.281 365.396C604.84 365.69 605.273 366.142 605.581 366.753C605.893 367.359 606.05 368.131 606.05 369.068V376H604.374V369.182C604.374 368.315 604.149 367.645 603.699 367.172C603.254 366.694 602.636 366.455 601.845 366.455C601.296 366.455 600.804 366.571 600.368 366.803C599.937 367.035 599.596 367.373 599.345 367.818C599.099 368.263 598.976 368.803 598.976 369.438ZM613.69 376.227C612.639 376.227 611.732 375.995 610.97 375.531C610.212 375.062 609.627 374.409 609.216 373.571C608.808 372.728 608.605 371.748 608.605 370.631C608.605 369.513 608.808 368.528 609.216 367.676C609.627 366.819 610.2 366.152 610.934 365.673C611.673 365.19 612.535 364.949 613.52 364.949C614.088 364.949 614.649 365.044 615.203 365.233C615.757 365.422 616.261 365.73 616.716 366.156C617.17 366.578 617.532 367.136 617.802 367.832C618.072 368.528 618.207 369.385 618.207 370.403V371.114H609.798V369.665H616.502C616.502 369.049 616.379 368.5 616.133 368.017C615.892 367.534 615.546 367.153 615.096 366.874C614.651 366.594 614.126 366.455 613.52 366.455C612.852 366.455 612.274 366.62 611.787 366.952C611.304 367.278 610.932 367.705 610.672 368.23C610.411 368.756 610.281 369.319 610.281 369.92V370.886C610.281 371.71 610.423 372.409 610.707 372.982C610.996 373.55 611.396 373.983 611.907 374.281C612.419 374.575 613.013 374.722 613.69 374.722C614.13 374.722 614.528 374.66 614.883 374.537C615.243 374.409 615.553 374.22 615.814 373.969C616.074 373.713 616.275 373.396 616.417 373.017L618.037 373.472C617.866 374.021 617.58 374.504 617.177 374.92C616.775 375.332 616.278 375.654 615.686 375.886C615.094 376.114 614.429 376.227 613.69 376.227ZM626.382 376V365.091H628.001V366.795H628.143C628.37 366.213 628.737 365.761 629.244 365.439C629.751 365.112 630.359 364.949 631.069 364.949C631.789 364.949 632.388 365.112 632.866 365.439C633.349 365.761 633.725 366.213 633.995 366.795H634.109C634.388 366.232 634.807 365.785 635.366 365.453C635.925 365.117 636.595 364.949 637.376 364.949C638.351 364.949 639.149 365.254 639.77 365.865C640.39 366.471 640.7 367.416 640.7 368.699V376H639.024V368.699C639.024 367.894 638.804 367.319 638.363 366.973C637.923 366.627 637.404 366.455 636.808 366.455C636.041 366.455 635.447 366.687 635.025 367.151C634.604 367.61 634.393 368.192 634.393 368.898V376H632.689V368.528C632.689 367.908 632.487 367.409 632.085 367.03C631.682 366.646 631.164 366.455 630.529 366.455C630.094 366.455 629.687 366.571 629.308 366.803C628.934 367.035 628.631 367.357 628.399 367.768C628.172 368.176 628.058 368.647 628.058 369.182V376H626.382ZM646.975 376.256C646.283 376.256 645.656 376.125 645.093 375.865C644.529 375.6 644.082 375.219 643.75 374.722C643.419 374.22 643.253 373.614 643.253 372.903C643.253 372.278 643.376 371.772 643.623 371.384C643.869 370.991 644.198 370.683 644.61 370.46C645.022 370.238 645.476 370.072 645.973 369.963C646.475 369.849 646.98 369.759 647.486 369.693C648.149 369.608 648.686 369.544 649.098 369.501C649.515 369.454 649.818 369.376 650.007 369.267C650.202 369.158 650.299 368.969 650.299 368.699V368.642C650.299 367.941 650.107 367.397 649.723 367.009C649.345 366.62 648.769 366.426 647.998 366.426C647.197 366.426 646.57 366.601 646.115 366.952C645.661 367.302 645.341 367.676 645.157 368.074L643.566 367.506C643.85 366.843 644.229 366.327 644.702 365.957C645.18 365.583 645.701 365.323 646.265 365.176C646.833 365.025 647.391 364.949 647.941 364.949C648.291 364.949 648.694 364.991 649.148 365.077C649.607 365.157 650.05 365.325 650.476 365.581C650.907 365.837 651.265 366.223 651.549 366.739C651.833 367.255 651.975 367.946 651.975 368.812V376H650.299V374.523H650.213C650.1 374.759 649.91 375.013 649.645 375.283C649.38 375.553 649.027 375.782 648.587 375.972C648.147 376.161 647.609 376.256 646.975 376.256ZM647.23 374.75C647.893 374.75 648.452 374.62 648.907 374.359C649.366 374.099 649.712 373.763 649.944 373.351C650.18 372.939 650.299 372.506 650.299 372.051V370.517C650.228 370.602 650.071 370.68 649.83 370.751C649.593 370.818 649.319 370.877 649.006 370.929C648.698 370.976 648.398 371.019 648.104 371.057C647.815 371.09 647.581 371.118 647.401 371.142C646.965 371.199 646.558 371.291 646.179 371.419C645.805 371.542 645.502 371.729 645.27 371.98C645.043 372.226 644.929 372.562 644.929 372.989C644.929 373.571 645.145 374.011 645.576 374.31C646.011 374.603 646.563 374.75 647.23 374.75ZM655.034 376V365.091H656.71V376H655.034ZM655.886 363.273C655.56 363.273 655.278 363.161 655.041 362.939C654.809 362.716 654.693 362.449 654.693 362.136C654.693 361.824 654.809 361.556 655.041 361.334C655.278 361.111 655.56 361 655.886 361C656.213 361 656.492 361.111 656.724 361.334C656.961 361.556 657.08 361.824 657.08 362.136C657.08 362.449 656.961 362.716 656.724 362.939C656.492 363.161 656.213 363.273 655.886 363.273ZM661.456 369.438V376H659.78V365.091H661.4V366.795H661.542C661.797 366.241 662.185 365.796 662.706 365.46C663.227 365.119 663.9 364.949 664.723 364.949C665.462 364.949 666.108 365.1 666.662 365.403C667.216 365.702 667.647 366.156 667.955 366.767C668.263 367.373 668.417 368.14 668.417 369.068V376H666.74V369.182C666.74 368.325 666.518 367.657 666.073 367.179C665.628 366.696 665.017 366.455 664.24 366.455C663.705 366.455 663.227 366.571 662.806 366.803C662.389 367.035 662.06 367.373 661.819 367.818C661.577 368.263 661.456 368.803 661.456 369.438ZM677.104 380.091V365.091H678.724V366.824H678.923C679.046 366.634 679.216 366.393 679.434 366.099C679.656 365.801 679.974 365.536 680.386 365.304C680.802 365.067 681.366 364.949 682.076 364.949C682.995 364.949 683.804 365.179 684.505 365.638C685.206 366.097 685.753 366.748 686.146 367.591C686.539 368.434 686.735 369.428 686.735 370.574C686.735 371.729 686.539 372.731 686.146 373.578C685.753 374.421 685.208 375.074 684.512 375.538C683.816 375.998 683.013 376.227 682.104 376.227C681.404 376.227 680.843 376.111 680.421 375.879C680 375.643 679.675 375.375 679.448 375.077C679.221 374.774 679.046 374.523 678.923 374.324H678.781V380.091H677.104ZM678.752 370.545C678.752 371.369 678.873 372.096 679.114 372.726C679.356 373.351 679.709 373.841 680.173 374.196C680.637 374.546 681.205 374.722 681.877 374.722C682.578 374.722 683.163 374.537 683.631 374.168C684.105 373.794 684.46 373.292 684.697 372.662C684.938 372.027 685.059 371.322 685.059 370.545C685.059 369.778 684.941 369.087 684.704 368.472C684.472 367.851 684.119 367.361 683.646 367.001C683.177 366.637 682.587 366.455 681.877 366.455C681.195 366.455 680.622 366.627 680.158 366.973C679.694 367.314 679.344 367.792 679.107 368.408C678.871 369.018 678.752 369.731 678.752 370.545ZM692.502 376.256C691.811 376.256 691.183 376.125 690.62 375.865C690.057 375.6 689.609 375.219 689.278 374.722C688.946 374.22 688.781 373.614 688.781 372.903C688.781 372.278 688.904 371.772 689.15 371.384C689.396 370.991 689.725 370.683 690.137 370.46C690.549 370.238 691.004 370.072 691.501 369.963C692.003 369.849 692.507 369.759 693.013 369.693C693.676 369.608 694.214 369.544 694.626 369.501C695.042 369.454 695.345 369.376 695.535 369.267C695.729 369.158 695.826 368.969 695.826 368.699V368.642C695.826 367.941 695.634 367.397 695.251 367.009C694.872 366.62 694.297 366.426 693.525 366.426C692.725 366.426 692.097 366.601 691.643 366.952C691.188 367.302 690.869 367.676 690.684 368.074L689.093 367.506C689.377 366.843 689.756 366.327 690.229 365.957C690.708 365.583 691.228 365.323 691.792 365.176C692.36 365.025 692.919 364.949 693.468 364.949C693.818 364.949 694.221 364.991 694.675 365.077C695.135 365.157 695.577 365.325 696.004 365.581C696.434 365.837 696.792 366.223 697.076 366.739C697.36 367.255 697.502 367.946 697.502 368.812V376H695.826V374.523H695.741C695.627 374.759 695.438 375.013 695.173 375.283C694.907 375.553 694.555 375.782 694.114 375.972C693.674 376.161 693.137 376.256 692.502 376.256ZM692.758 374.75C693.421 374.75 693.979 374.62 694.434 374.359C694.893 374.099 695.239 373.763 695.471 373.351C695.708 372.939 695.826 372.506 695.826 372.051V370.517C695.755 370.602 695.599 370.68 695.357 370.751C695.121 370.818 694.846 370.877 694.533 370.929C694.226 370.976 693.925 371.019 693.631 371.057C693.343 371.09 693.108 371.118 692.928 371.142C692.493 371.199 692.085 371.291 691.707 371.419C691.333 371.542 691.03 371.729 690.798 371.98C690.57 372.226 690.457 372.562 690.457 372.989C690.457 373.571 690.672 374.011 691.103 374.31C691.539 374.603 692.09 374.75 692.758 374.75ZM704.965 380.318C704.155 380.318 703.459 380.214 702.877 380.006C702.294 379.802 701.809 379.532 701.421 379.196C701.037 378.865 700.732 378.509 700.505 378.131L701.84 377.193C701.991 377.392 702.183 377.619 702.415 377.875C702.647 378.135 702.964 378.36 703.367 378.55C703.774 378.744 704.307 378.841 704.965 378.841C705.846 378.841 706.572 378.628 707.145 378.202C707.718 377.776 708.005 377.108 708.005 376.199V373.983H707.863C707.739 374.182 707.564 374.428 707.337 374.722C707.114 375.01 706.792 375.268 706.371 375.496C705.954 375.718 705.391 375.83 704.681 375.83C703.8 375.83 703.009 375.621 702.309 375.205C701.613 374.788 701.061 374.182 700.654 373.386C700.251 372.591 700.05 371.625 700.05 370.489C700.05 369.371 700.247 368.398 700.64 367.57C701.033 366.736 701.579 366.092 702.28 365.638C702.981 365.179 703.791 364.949 704.709 364.949C705.419 364.949 705.983 365.067 706.4 365.304C706.821 365.536 707.143 365.801 707.365 366.099C707.593 366.393 707.768 366.634 707.891 366.824H708.061V365.091H709.681V376.312C709.681 377.25 709.468 378.012 709.042 378.599C708.62 379.191 708.052 379.625 707.337 379.899C706.627 380.179 705.836 380.318 704.965 380.318ZM704.908 374.324C705.58 374.324 706.149 374.17 706.613 373.862C707.077 373.554 707.429 373.112 707.671 372.534C707.912 371.956 708.033 371.265 708.033 370.46C708.033 369.674 707.915 368.981 707.678 368.379C707.441 367.778 707.091 367.307 706.627 366.966C706.163 366.625 705.59 366.455 704.908 366.455C704.198 366.455 703.606 366.634 703.132 366.994C702.664 367.354 702.311 367.837 702.074 368.443C701.842 369.049 701.726 369.722 701.726 370.46C701.726 371.218 701.845 371.888 702.081 372.47C702.323 373.048 702.678 373.502 703.147 373.834C703.62 374.161 704.207 374.324 704.908 374.324ZM717.323 376.227C716.272 376.227 715.365 375.995 714.603 375.531C713.845 375.062 713.26 374.409 712.848 373.571C712.441 372.728 712.238 371.748 712.238 370.631C712.238 369.513 712.441 368.528 712.848 367.676C713.26 366.819 713.833 366.152 714.567 365.673C715.306 365.19 716.167 364.949 717.152 364.949C717.721 364.949 718.282 365.044 718.836 365.233C719.39 365.422 719.894 365.73 720.348 366.156C720.803 366.578 721.165 367.136 721.435 367.832C721.705 368.528 721.84 369.385 721.84 370.403V371.114H713.431V369.665H720.135C720.135 369.049 720.012 368.5 719.766 368.017C719.525 367.534 719.179 367.153 718.729 366.874C718.284 366.594 717.758 366.455 717.152 366.455C716.485 366.455 715.907 366.62 715.419 366.952C714.936 367.278 714.565 367.705 714.304 368.23C714.044 368.756 713.914 369.319 713.914 369.92V370.886C713.914 371.71 714.056 372.409 714.34 372.982C714.629 373.55 715.029 373.983 715.54 374.281C716.051 374.575 716.646 374.722 717.323 374.722C717.763 374.722 718.161 374.66 718.516 374.537C718.876 374.409 719.186 374.22 719.446 373.969C719.707 373.713 719.908 373.396 720.05 373.017L721.669 373.472C721.499 374.021 721.212 374.504 720.81 374.92C720.408 375.332 719.91 375.654 719.319 375.886C718.727 376.114 718.061 376.227 717.323 376.227ZM725.611 376.114C725.261 376.114 724.96 375.988 724.709 375.737C724.458 375.486 724.333 375.186 724.333 374.835C724.333 374.485 724.458 374.184 724.709 373.933C724.96 373.682 725.261 373.557 725.611 373.557C725.962 373.557 726.262 373.682 726.513 373.933C726.764 374.184 726.89 374.485 726.89 374.835C726.89 375.067 726.83 375.28 726.712 375.474C726.598 375.669 726.444 375.825 726.25 375.943C726.061 376.057 725.848 376.114 725.611 376.114Z" fill="black"/>
<path d="M431.827 369.438V376H430.151V361.455H431.827V366.795H431.969C432.225 366.232 432.609 365.785 433.12 365.453C433.636 365.117 434.323 364.949 435.18 364.949C435.923 364.949 436.574 365.098 437.133 365.396C437.692 365.69 438.125 366.142 438.433 366.753C438.745 367.359 438.901 368.131 438.901 369.068V376H437.225V369.182C437.225 368.315 437 367.645 436.55 367.172C436.105 366.694 435.487 366.455 434.697 366.455C434.147 366.455 433.655 366.571 433.219 366.803C432.789 367.035 432.448 367.373 432.197 367.818C431.951 368.263 431.827 368.803 431.827 369.438ZM446.542 376.227C445.49 376.227 444.584 375.995 443.821 375.531C443.064 375.062 442.479 374.409 442.067 373.571C441.66 372.728 441.456 371.748 441.456 370.631C441.456 369.513 441.66 368.528 442.067 367.676C442.479 366.819 443.052 366.152 443.786 365.673C444.525 365.19 445.386 364.949 446.371 364.949C446.939 364.949 447.5 365.044 448.054 365.233C448.608 365.422 449.113 365.73 449.567 366.156C450.022 366.578 450.384 367.136 450.654 367.832C450.924 368.528 451.059 369.385 451.059 370.403V371.114H442.65V369.665H449.354C449.354 369.049 449.231 368.5 448.985 368.017C448.743 367.534 448.398 367.153 447.948 366.874C447.503 366.594 446.977 366.455 446.371 366.455C445.703 366.455 445.126 366.62 444.638 366.952C444.155 367.278 443.783 367.705 443.523 368.23C443.263 368.756 443.132 369.319 443.132 369.92V370.886C443.132 371.71 443.275 372.409 443.559 372.982C443.847 373.55 444.248 373.983 444.759 374.281C445.27 374.575 445.864 374.722 446.542 374.722C446.982 374.722 447.38 374.66 447.735 374.537C448.095 374.409 448.405 374.22 448.665 373.969C448.926 373.713 449.127 373.396 449.269 373.017L450.888 373.472C450.718 374.021 450.431 374.504 450.029 374.92C449.626 375.332 449.129 375.654 448.537 375.886C447.945 376.114 447.28 376.227 446.542 376.227ZM453.608 376V365.091H455.228V366.739H455.341C455.54 366.199 455.9 365.761 456.421 365.425C456.942 365.089 457.529 364.92 458.182 364.92C458.305 364.92 458.459 364.923 458.644 364.928C458.828 364.932 458.968 364.939 459.063 364.949V366.653C459.006 366.639 458.876 366.618 458.672 366.589C458.473 366.556 458.263 366.54 458.04 366.54C457.51 366.54 457.036 366.651 456.62 366.874C456.208 367.091 455.881 367.394 455.64 367.783C455.403 368.166 455.284 368.604 455.284 369.097V376H453.608ZM465.292 376.227C464.24 376.227 463.334 375.995 462.571 375.531C461.814 375.062 461.229 374.409 460.817 373.571C460.41 372.728 460.206 371.748 460.206 370.631C460.206 369.513 460.41 368.528 460.817 367.676C461.229 366.819 461.802 366.152 462.536 365.673C463.275 365.19 464.136 364.949 465.121 364.949C465.689 364.949 466.25 365.044 466.804 365.233C467.358 365.422 467.863 365.73 468.317 366.156C468.772 366.578 469.134 367.136 469.404 367.832C469.674 368.528 469.809 369.385 469.809 370.403V371.114H461.4V369.665H468.104C468.104 369.049 467.981 368.5 467.735 368.017C467.493 367.534 467.148 367.153 466.698 366.874C466.253 366.594 465.727 366.455 465.121 366.455C464.453 366.455 463.876 366.62 463.388 366.952C462.905 367.278 462.533 367.705 462.273 368.23C462.013 368.756 461.882 369.319 461.882 369.92V370.886C461.882 371.71 462.025 372.409 462.309 372.982C462.597 373.55 462.998 373.983 463.509 374.281C464.02 374.575 464.614 374.722 465.292 374.722C465.732 374.722 466.13 374.66 466.485 374.537C466.845 374.409 467.155 374.22 467.415 373.969C467.676 373.713 467.877 373.396 468.019 373.017L469.638 373.472C469.468 374.021 469.181 374.504 468.779 374.92C468.376 375.332 467.879 375.654 467.287 375.886C466.695 376.114 466.03 376.227 465.292 376.227Z" fill="#0000FF"/>
<path d="M428.617 379.977H470.831V381.341H428.617V379.977Z" fill="#0000FF"/>
<path d="M60.9746 138.407C69.6336 131.323 83.7691 132.357 94.0447 132.696C141.444 134.259 188.944 133.433 236.366 133.433C337.263 133.433 438.57 135.858 539.432 132.604C582.31 131.221 625.794 132.23 668.58 135.46C698.817 137.742 729.263 141.724 759.592 141.724C770.124 141.724 780.656 141.724 791.188 141.724C803.37 141.724 800.717 172.343 801.505 180.229C804.144 206.615 810.079 232.871 810.441 259.449C810.678 276.926 811.435 294.241 812.007 311.68C812.505 326.886 812.646 342.713 815.783 357.646C819.009 372.999 822.226 388.064 822.784 403.705C823.032 410.645 826.24 418.635 827.943 425.445C830.157 434.301 829.583 442.921 831.167 451.79C832.503 459.272 833.654 469.263 833.654 476.662" stroke="black" stroke-opacity="0.5" stroke-width="3" stroke-linecap="round"/>
<path d="M56 135.091C56 184.163 61.7029 232.844 62.5403 281.834C62.959 306.326 61.9315 330.828 64.2906 355.251C65.944 372.369 68.4559 389.369 69.2649 406.561C70.5134 433.092 68.2541 459.449 71.2915 485.874C72.2798 494.472 77.5554 502.889 77.5554 511.482" stroke="black" stroke-opacity="0.5" stroke-width="3" stroke-linecap="round"/>
<path d="M56 171.57C70.555 169.629 83.8034 166.677 98.7424 166.595C115.76 166.502 132.443 167.783 149.407 168.622C221.256 172.175 293.273 167.904 365.146 170.28C423.568 172.211 482.277 174.886 540.721 174.886C577.842 174.886 614.855 171.57 651.906 171.57C685.313 171.57 718.232 176.544 751.577 176.544C769.54 176.544 787.503 176.544 805.466 176.544" stroke="black" stroke-opacity="0.5" stroke-width="3" stroke-linecap="round"/>
<path d="M77.5557 511.482C104.547 507.03 131.905 508.166 159.172 508.166C200.325 508.166 241.288 508.859 282.424 510.653C349.446 513.576 416.348 513.14 483.424 513.14C573.707 513.14 663.967 512.873 754.065 507.798C779.224 506.38 803.442 503.192 828.68 503.192C838.423 503.192 838.363 504.006 837.062 494.901C836.374 490.083 833.654 486.643 833.654 481.636" stroke="black" stroke-opacity="0.5" stroke-width="3" stroke-linecap="round"/>
<path d="M85.8461 140.065C78.6477 147.264 72.0356 155.163 65.9487 163.279" stroke="black" stroke-opacity="0.5" stroke-width="3" stroke-linecap="round"/>
<path d="M60.9746 145.04C69.2875 150.475 78.0875 156.824 87.5044 159.963" stroke="black" stroke-opacity="0.5" stroke-width="3" stroke-linecap="round"/>
<path d="M823.705 158.305C823.705 178.608 823.071 202.258 827.39 222.234C829.206 230.632 829.152 239.297 830.706 247.843C832.477 257.584 836.439 267.865 836.97 277.689C837.429 286.185 841.702 293.854 841.944 302.56C842.151 310.017 844.535 317.989 845.629 325.405C847.199 336.048 844.209 346.258 845.629 356.909C846.859 366.137 850.227 374.487 852.261 383.439C856.636 402.689 863.123 420.2 863.5 440.183C863.681 449.784 868.607 458.382 866.447 468.371C864.864 475.693 866.56 480.73 866.816 487.9C867.145 497.101 870.132 505.819 870.132 514.798C870.132 519.49 872.104 519.479 866.816 519.773C864.51 519.901 859.369 521.402 858.525 523.089" stroke="black" stroke-opacity="0.5" stroke-width="3" stroke-linecap="round"/>
<path d="M87.5044 509.824C89.8878 533.658 130.916 524.747 145.538 524.747C198.075 524.747 249.418 535.288 301.769 537.643C359.06 540.222 416.768 541.128 474.121 539.578C528.977 538.095 584.336 539.128 639.103 535.525C662.165 534.007 685.363 534.696 708.467 534.696C723.478 534.696 738.189 530.646 753.144 528.984C774.773 526.581 795.048 521.431 816.889 521.431C829.354 521.431 841.178 519.773 853.551 519.773" stroke="black" stroke-opacity="0.5" stroke-width="3" stroke-linecap="round"/>
<path d="M805.466 159.963C811.254 159.963 814.807 158.102 820.389 159.963" stroke="black" stroke-opacity="0.5" stroke-width="3" stroke-linecap="round"/>
<path d="M717.083 914.456C708.449 918.091 684.89 917.196 682.174 905.942C678.889 892.332 696.156 868.757 709.704 868.478C717.222 868.323 723.437 869.649 729.287 874.58C736.051 880.281 733.868 884.458 729.784 891.538C725.929 898.22 722.114 904.979 717.225 910.979C715.228 913.431 712.347 914.536 710.697 917.01" stroke="black" stroke-opacity="0.5" stroke-width="3" stroke-linecap="round"/>
<path d="M704.312 900.407C706.88 900.407 708.46 899.77 705.589 901.684" stroke="black" stroke-opacity="0.5" stroke-width="3" stroke-linecap="round"/>
<path d="M717.083 895.298H720.915" stroke="black" stroke-opacity="0.5" stroke-width="3" stroke-linecap="round"/>
<path d="M719.638 945.108C720.557 934.074 723.694 927.192 732.977 921.622C734.983 920.419 742.456 916.572 742.627 920.416C742.887 926.28 741.35 931.694 741.35 937.445" stroke="black" stroke-opacity="0.5" stroke-width="3" stroke-linecap="round"/>
<path d="M746.458 936.168C743.485 936.168 743.324 934.193 740.711 936.807C738.316 939.202 735.904 941.653 739.434 944.399C745.803 949.352 747.442 938.032 749.012 934.891" stroke="black" stroke-opacity="0.5" stroke-width="3" stroke-linecap="round"/>
<path d="M715.806 947.663C716.425 942.097 724.699 937.872 727.017 944.824C729.403 951.983 723.212 955.068 718.36 950.217" stroke="black" stroke-opacity="0.5" stroke-width="3" stroke-linecap="round"/>
<path d="M718.361 951.494C708.105 964.313 725.86 958.81 731.416 956.887C734.585 955.79 737.668 954.827 740.64 953.977C741.606 953.702 743.457 945.173 743.904 943.831" stroke="black" stroke-opacity="0.5" stroke-width="3" stroke-linecap="round"/>
<path d="M572.763 1006.41C562.761 1006.41 542.961 1000.38 550.412 987.964C557.143 976.746 567.252 973.464 579.787 974.554C600.324 976.34 589.105 1005.14 572.763 1005.14" stroke="black" stroke-opacity="0.5" stroke-width="3" stroke-linecap="round"/>
<path d="M986.567 991.086C979.334 991.086 966.132 993.792 966.132 983.282C966.132 967.849 979.066 960.869 992.952 963.272C1014.56 967.012 990.623 991.086 978.904 991.086" stroke="black" stroke-opacity="0.5" stroke-width="3" stroke-linecap="round"/>
<path d="M906.105 942.554C896.818 943.398 884.306 946.218 875.737 940.709C866.32 934.656 882.86 925.331 887.586 924.106C896.013 921.921 904.8 921.063 906.034 931.556C907.071 940.372 901.031 940.621 894.61 943.831" stroke="black" stroke-opacity="0.5" stroke-width="3" stroke-linecap="round"/>
<path d="M984.012 914.456C980.219 914.456 975.072 917.689 975.072 911.831C975.072 904.849 983.968 902.157 989.831 900.691C995.524 899.268 995.827 907.528 994.23 911.121C993.218 913.398 987.459 913.733 985.29 914.456" stroke="black" stroke-opacity="0.5" stroke-width="3" stroke-linecap="round"/>
<path d="M1010.83 886.358C1006.64 885.834 1013.74 878.646 1018.21 880.256C1024.32 882.456 1014.57 885.768 1013.39 886.358" stroke="black" stroke-opacity="0.5" stroke-width="3" stroke-linecap="round"/>
<path d="M450.154 956.603C445.691 956.603 444.995 952.188 450.225 952.842C454.293 953.351 459.069 957.88 452.709 957.88" stroke="black" stroke-opacity="0.5" stroke-width="3" stroke-linecap="round"/>
<path d="M230.48 1000.03C222.14 1000.95 226.081 994.918 232.963 994.918C242.709 994.918 235.744 1001.53 230.48 1002.58" stroke="black" stroke-opacity="0.5" stroke-width="3" stroke-linecap="round"/>
<path d="M324.991 985.978C324.683 983.51 322.219 981.655 324.991 978.882C326.495 977.378 334.787 977.834 336.486 978.599C340.483 980.397 338.8 983.792 336.486 985.978C334.04 988.288 329.421 987.255 326.268 987.255" stroke="black" stroke-opacity="0.5" stroke-width="3" stroke-linecap="round"/>
<path d="M345.426 984.701C338.21 978.286 350.624 972.156 353.089 976.47C356.046 981.645 351.33 985.978 345.426 985.978" stroke="black" stroke-opacity="0.5" stroke-width="3" stroke-linecap="round"/>
<path d="M579.148 980.869H580.426" stroke="black" stroke-opacity="0.5" stroke-width="3" stroke-linecap="round"/>
<path d="M575.317 989.809C576.222 989.922 577.078 990.69 577.871 991.086" stroke="black" stroke-opacity="0.5" stroke-width="3" stroke-linecap="round"/>
<path d="M572.763 1007.69C566.002 1007.69 563.584 1013.28 561.268 1017.91" stroke="black" stroke-opacity="0.5" stroke-width="3" stroke-linecap="round"/>
<path d="M359.475 1028.12C352.09 1031.29 343.181 1031.89 335.279 1031.1C331.792 1030.76 317.932 1029.76 316.335 1025.29C312.504 1014.56 329.099 1007.54 336.486 1007.97C343.954 1008.41 357.44 1016.09 350.251 1024.86C346.487 1029.45 337.597 1032.29 335.208 1037.06" stroke="black" stroke-opacity="0.5" stroke-width="3" stroke-linecap="round"/>
<path d="M376.078 1021.74C367.551 1027.42 362.691 1020.2 363.377 1012.66C364.032 1005.45 371.182 993.154 380.193 995.202C387.95 996.965 399.312 1010.37 392.61 1017.91C388.264 1022.8 382.876 1025.36 377.355 1028.12" stroke="black" stroke-opacity="0.5" stroke-width="3" stroke-linecap="round"/>
<path d="M451.431 1034.51C446.82 1035.02 443.985 1035.56 438.943 1034.23C433.554 1032.8 418.146 1031.31 414.677 1026.85C408.689 1019.15 416.241 1010.74 424.114 1010.31C432.615 1009.86 443.664 1013.17 440.575 1024.29C439.085 1029.66 436.284 1032.75 430.997 1034.51" stroke="black" stroke-opacity="0.5" stroke-width="3" stroke-linecap="round"/>
<path d="M531.893 1016.63C531.893 1023.24 536.605 1028.12 543.388 1028.12C551.13 1028.12 556.308 1030.28 560.7 1021.74C563.031 1017.21 562.776 1007.32 556.088 1006.48C548.324 1005.51 531.893 1005.7 531.893 1016.63Z" stroke="black" stroke-opacity="0.5" stroke-width="3" stroke-linecap="round"/>
<path d="M617.464 1017.91C615.103 1020.01 611.353 1019.33 608.524 1018.55C602.71 1016.93 604.707 1013.75 602.138 1009.25C596.018 998.542 623.733 996.083 629.668 996.195C640.256 996.395 640.405 1011.65 633.074 1016.63C628.106 1020 620.675 1022.37 614.91 1024.29" stroke="black" stroke-opacity="0.5" stroke-width="3" stroke-linecap="round"/>
<path d="M940.588 1020.46C932.21 1022.86 918.876 1021.07 918.876 1010.24C918.876 998.493 932.507 999.928 941.156 1000.03C952.195 1000.15 962.286 1003.88 953.36 1015.35C948.578 1021.5 943.298 1024.29 935.48 1024.29" stroke="black" stroke-opacity="0.5" stroke-width="3" stroke-linecap="round"/>
<path d="M1009.56 1010.24C1002.95 1010.24 996.569 1014.65 993.662 1006.34C987.831 989.68 1016.96 992.101 1026.02 992.647C1030.08 992.893 1033.98 992.395 1035.38 996.195C1036.74 999.871 1034.35 1004.94 1031.84 1007.62C1026.22 1013.61 1015.7 1011.52 1008.28 1011.52" stroke="black" stroke-opacity="0.5" stroke-width="3" stroke-linecap="round"/>
<path d="M142.355 1024.29C143.249 1009.99 165.154 1022.42 147.464 1026.85" stroke="black" stroke-opacity="0.5" stroke-width="3" stroke-linecap="round"/>
<path d="M570.208 1007.69C577.05 1004.47 586.515 1000.86 592.914 1007.97C595.561 1010.91 596.241 1016.1 599.583 1018.19C601.962 1019.68 604.692 1024.17 604.692 1026.85" stroke="black" stroke-opacity="0.5" stroke-width="3" stroke-linecap="round"/>
<path d="M481.679 762.54V756.091H483.355V767H481.679V765.153H481.565C481.309 765.707 480.912 766.179 480.372 766.567C479.832 766.95 479.15 767.142 478.326 767.142C477.645 767.142 477.038 766.993 476.508 766.695C475.978 766.392 475.561 765.937 475.258 765.331C474.955 764.72 474.804 763.951 474.804 763.023V756.091H476.48V762.909C476.48 763.705 476.702 764.339 477.147 764.812C477.597 765.286 478.17 765.523 478.866 765.523C479.283 765.523 479.707 765.416 480.137 765.203C480.573 764.99 480.938 764.663 481.231 764.223C481.529 763.783 481.679 763.222 481.679 762.54ZM488.101 760.438V767H486.425V752.455H488.101V757.795H488.243C488.499 757.232 488.882 756.785 489.393 756.453C489.91 756.117 490.596 755.949 491.453 755.949C492.196 755.949 492.848 756.098 493.406 756.396C493.965 756.69 494.398 757.142 494.706 757.753C495.018 758.359 495.175 759.131 495.175 760.068V767H493.499V760.182C493.499 759.315 493.274 758.645 492.824 758.172C492.379 757.694 491.761 757.455 490.97 757.455C490.421 757.455 489.929 757.571 489.493 757.803C489.062 758.035 488.721 758.373 488.47 758.818C488.224 759.263 488.101 759.803 488.101 760.438ZM499.463 767.114C499.112 767.114 498.812 766.988 498.561 766.737C498.31 766.486 498.184 766.186 498.184 765.835C498.184 765.485 498.31 765.184 498.561 764.933C498.812 764.682 499.112 764.557 499.463 764.557C499.813 764.557 500.114 764.682 500.365 764.933C500.616 765.184 500.741 765.485 500.741 765.835C500.741 766.067 500.682 766.28 500.564 766.474C500.45 766.669 500.296 766.825 500.102 766.943C499.913 767.057 499.699 767.114 499.463 767.114ZM504.971 767.114C504.62 767.114 504.319 766.988 504.069 766.737C503.818 766.486 503.692 766.186 503.692 765.835C503.692 765.485 503.818 765.184 504.069 764.933C504.319 764.682 504.62 764.557 504.971 764.557C505.321 764.557 505.622 764.682 505.873 764.933C506.123 765.184 506.249 765.485 506.249 765.835C506.249 766.067 506.19 766.28 506.071 766.474C505.958 766.669 505.804 766.825 505.61 766.943C505.42 767.057 505.207 767.114 504.971 767.114ZM510.478 767.114C510.128 767.114 509.827 766.988 509.576 766.737C509.325 766.486 509.2 766.186 509.2 765.835C509.2 765.485 509.325 765.184 509.576 764.933C509.827 764.682 510.128 764.557 510.478 764.557C510.829 764.557 511.129 764.682 511.38 764.933C511.631 765.184 511.757 765.485 511.757 765.835C511.757 766.067 511.698 766.28 511.579 766.474C511.466 766.669 511.312 766.825 511.118 766.943C510.928 767.057 510.715 767.114 510.478 767.114ZM522.861 767L519.537 756.091H521.299L523.657 764.443H523.77L526.1 756.091H527.89L530.191 764.415H530.304L532.662 756.091H534.424L531.1 767H529.452L527.066 758.619H526.895L524.509 767H522.861ZM538.316 760.438V767H536.64V752.455H538.316V757.795H538.458C538.713 757.232 539.097 756.785 539.608 756.453C540.124 756.117 540.811 755.949 541.668 755.949C542.411 755.949 543.062 756.098 543.621 756.396C544.18 756.69 544.613 757.142 544.921 757.753C545.233 758.359 545.39 759.131 545.39 760.068V767H543.713V760.182C543.713 759.315 543.489 758.645 543.039 758.172C542.594 757.694 541.976 757.455 541.185 757.455C540.636 757.455 540.143 757.571 539.708 757.803C539.277 758.035 538.936 758.373 538.685 758.818C538.439 759.263 538.316 759.803 538.316 760.438ZM551.666 767.256C550.975 767.256 550.348 767.125 549.784 766.865C549.221 766.6 548.773 766.219 548.442 765.722C548.11 765.22 547.945 764.614 547.945 763.903C547.945 763.278 548.068 762.772 548.314 762.384C548.56 761.991 548.889 761.683 549.301 761.46C549.713 761.238 550.168 761.072 550.665 760.963C551.167 760.849 551.671 760.759 552.178 760.693C552.84 760.608 553.378 760.544 553.79 760.501C554.206 760.454 554.509 760.376 554.699 760.267C554.893 760.158 554.99 759.969 554.99 759.699V759.642C554.99 758.941 554.798 758.397 554.415 758.009C554.036 757.62 553.461 757.426 552.689 757.426C551.889 757.426 551.261 757.601 550.807 757.952C550.352 758.302 550.033 758.676 549.848 759.074L548.257 758.506C548.541 757.843 548.92 757.327 549.393 756.957C549.872 756.583 550.393 756.323 550.956 756.176C551.524 756.025 552.083 755.949 552.632 755.949C552.982 755.949 553.385 755.991 553.839 756.077C554.299 756.157 554.741 756.325 555.168 756.581C555.598 756.837 555.956 757.223 556.24 757.739C556.524 758.255 556.666 758.946 556.666 759.812V767H554.99V765.523H554.905C554.791 765.759 554.602 766.013 554.337 766.283C554.071 766.553 553.719 766.782 553.278 766.972C552.838 767.161 552.301 767.256 551.666 767.256ZM551.922 765.75C552.585 765.75 553.143 765.62 553.598 765.359C554.057 765.099 554.403 764.763 554.635 764.351C554.872 763.939 554.99 763.506 554.99 763.051V761.517C554.919 761.602 554.763 761.68 554.521 761.751C554.285 761.818 554.01 761.877 553.697 761.929C553.39 761.976 553.089 762.019 552.795 762.057C552.507 762.09 552.272 762.118 552.092 762.142C551.657 762.199 551.25 762.291 550.871 762.419C550.497 762.542 550.194 762.729 549.962 762.98C549.734 763.226 549.621 763.562 549.621 763.989C549.621 764.571 549.836 765.011 550.267 765.31C550.703 765.603 551.254 765.75 551.922 765.75ZM564.47 756.091V757.511H558.816V756.091H564.47ZM560.464 753.477H562.14V763.875C562.14 764.348 562.209 764.704 562.346 764.94C562.488 765.172 562.668 765.329 562.886 765.409C563.109 765.485 563.343 765.523 563.589 765.523C563.774 765.523 563.925 765.513 564.044 765.494C564.162 765.471 564.257 765.452 564.328 765.438L564.669 766.943C564.555 766.986 564.396 767.028 564.193 767.071C563.989 767.118 563.731 767.142 563.419 767.142C562.945 767.142 562.481 767.04 562.027 766.837C561.577 766.633 561.203 766.323 560.904 765.906C560.611 765.49 560.464 764.964 560.464 764.33V753.477ZM574.292 760.438V767H572.616V756.091H574.235V757.795H574.377C574.633 757.241 575.021 756.796 575.542 756.46C576.063 756.119 576.735 755.949 577.559 755.949C578.298 755.949 578.944 756.1 579.498 756.403C580.052 756.702 580.483 757.156 580.791 757.767C581.099 758.373 581.252 759.14 581.252 760.068V767H579.576V760.182C579.576 759.325 579.354 758.657 578.909 758.179C578.464 757.696 577.853 757.455 577.076 757.455C576.541 757.455 576.063 757.571 575.642 757.803C575.225 758.035 574.896 758.373 574.654 758.818C574.413 759.263 574.292 759.803 574.292 760.438ZM588.747 767.227C587.762 767.227 586.898 766.993 586.155 766.524C585.416 766.055 584.839 765.4 584.422 764.557C584.01 763.714 583.804 762.729 583.804 761.602C583.804 760.466 584.01 759.474 584.422 758.626C584.839 757.779 585.416 757.121 586.155 756.652C586.898 756.183 587.762 755.949 588.747 755.949C589.732 755.949 590.594 756.183 591.332 756.652C592.076 757.121 592.653 757.779 593.065 758.626C593.482 759.474 593.69 760.466 593.69 761.602C593.69 762.729 593.482 763.714 593.065 764.557C592.653 765.4 592.076 766.055 591.332 766.524C590.594 766.993 589.732 767.227 588.747 767.227ZM588.747 765.722C589.495 765.722 590.111 765.53 590.594 765.146C591.077 764.763 591.434 764.259 591.666 763.634C591.898 763.009 592.014 762.331 592.014 761.602C592.014 760.873 591.898 760.194 591.666 759.564C591.434 758.934 591.077 758.425 590.594 758.037C590.111 757.649 589.495 757.455 588.747 757.455C587.999 757.455 587.384 757.649 586.901 758.037C586.418 758.425 586.06 758.934 585.828 759.564C585.596 760.194 585.48 760.873 585.48 761.602C585.48 762.331 585.596 763.009 585.828 763.634C586.06 764.259 586.418 764.763 586.901 765.146C587.384 765.53 587.999 765.722 588.747 765.722ZM598.349 767L595.026 756.091H596.787L599.145 764.443H599.259L601.588 756.091H603.378L605.679 764.415H605.793L608.151 756.091H609.912L606.588 767H604.94L602.554 758.619H602.384L599.997 767H598.349ZM613.143 765.011L613.03 765.778C612.949 766.318 612.826 766.896 612.661 767.511C612.5 768.127 612.331 768.707 612.156 769.251C611.981 769.796 611.837 770.229 611.723 770.551H610.445C610.506 770.248 610.587 769.848 610.686 769.351C610.786 768.854 610.885 768.297 610.984 767.682C611.089 767.071 611.174 766.446 611.24 765.807L611.325 765.011H613.143ZM622.101 767V752.455H623.777V757.824H623.919C624.042 757.634 624.213 757.393 624.431 757.099C624.653 756.801 624.971 756.536 625.382 756.304C625.799 756.067 626.363 755.949 627.073 755.949C627.991 755.949 628.801 756.179 629.502 756.638C630.203 757.097 630.749 757.748 631.142 758.591C631.535 759.434 631.732 760.428 631.732 761.574C631.732 762.729 631.535 763.731 631.142 764.578C630.749 765.421 630.205 766.074 629.509 766.538C628.813 766.998 628.01 767.227 627.101 767.227C626.4 767.227 625.839 767.111 625.418 766.879C624.997 766.643 624.672 766.375 624.445 766.077C624.218 765.774 624.042 765.523 623.919 765.324H623.721V767H622.101ZM623.749 761.545C623.749 762.369 623.87 763.096 624.111 763.726C624.353 764.351 624.705 764.841 625.169 765.196C625.633 765.546 626.202 765.722 626.874 765.722C627.575 765.722 628.159 765.537 628.628 765.168C629.102 764.794 629.457 764.292 629.694 763.662C629.935 763.027 630.056 762.322 630.056 761.545C630.056 760.778 629.937 760.087 629.701 759.472C629.469 758.851 629.116 758.361 628.642 758.001C628.174 757.637 627.584 757.455 626.874 757.455C626.192 757.455 625.619 757.627 625.155 757.973C624.691 758.314 624.341 758.792 624.104 759.408C623.867 760.018 623.749 760.731 623.749 761.545ZM638.728 767.227C637.743 767.227 636.879 766.993 636.135 766.524C635.397 766.055 634.819 765.4 634.402 764.557C633.99 763.714 633.784 762.729 633.784 761.602C633.784 760.466 633.99 759.474 634.402 758.626C634.819 757.779 635.397 757.121 636.135 756.652C636.879 756.183 637.743 755.949 638.728 755.949C639.712 755.949 640.574 756.183 641.313 756.652C642.056 757.121 642.634 757.779 643.046 758.626C643.462 759.474 643.671 760.466 643.671 761.602C643.671 762.729 643.462 763.714 643.046 764.557C642.634 765.4 642.056 766.055 641.313 766.524C640.574 766.993 639.712 767.227 638.728 767.227ZM638.728 765.722C639.476 765.722 640.091 765.53 640.574 765.146C641.057 764.763 641.415 764.259 641.647 763.634C641.879 763.009 641.995 762.331 641.995 761.602C641.995 760.873 641.879 760.194 641.647 759.564C641.415 758.934 641.057 758.425 640.574 758.037C640.091 757.649 639.476 757.455 638.728 757.455C637.98 757.455 637.364 757.649 636.881 758.037C636.398 758.425 636.041 758.934 635.809 759.564C635.577 760.194 635.461 760.873 635.461 761.602C635.461 762.331 635.577 763.009 635.809 763.634C636.041 764.259 636.398 764.763 636.881 765.146C637.364 765.53 637.98 765.722 638.728 765.722ZM653.957 758.534L652.451 758.96C652.356 758.709 652.217 758.465 652.032 758.229C651.852 757.987 651.606 757.788 651.293 757.632C650.981 757.476 650.581 757.398 650.093 757.398C649.425 757.398 648.869 757.552 648.424 757.859C647.984 758.162 647.763 758.548 647.763 759.017C647.763 759.434 647.915 759.763 648.218 760.004C648.521 760.246 648.995 760.447 649.638 760.608L651.258 761.006C652.233 761.242 652.96 761.605 653.438 762.092C653.916 762.575 654.156 763.198 654.156 763.96C654.156 764.585 653.976 765.144 653.616 765.636C653.261 766.129 652.763 766.517 652.124 766.801C651.485 767.085 650.742 767.227 649.894 767.227C648.781 767.227 647.861 766.986 647.131 766.503C646.402 766.02 645.941 765.314 645.746 764.386L647.337 763.989C647.489 764.576 647.775 765.016 648.197 765.31C648.623 765.603 649.179 765.75 649.866 765.75C650.647 765.75 651.267 765.584 651.727 765.253C652.191 764.917 652.423 764.514 652.423 764.045C652.423 763.667 652.29 763.349 652.025 763.094C651.76 762.833 651.353 762.639 650.803 762.511L648.985 762.085C647.986 761.848 647.252 761.482 646.783 760.984C646.319 760.482 646.087 759.855 646.087 759.102C646.087 758.487 646.26 757.942 646.606 757.469C646.956 756.995 647.432 756.624 648.033 756.354C648.639 756.084 649.326 755.949 650.093 755.949C651.173 755.949 652.02 756.186 652.636 756.659C653.256 757.133 653.696 757.758 653.957 758.534ZM664.406 758.534L662.9 758.96C662.806 758.709 662.666 758.465 662.481 758.229C662.301 757.987 662.055 757.788 661.743 757.632C661.43 757.476 661.03 757.398 660.542 757.398C659.875 757.398 659.318 757.552 658.873 757.859C658.433 758.162 658.213 758.548 658.213 759.017C658.213 759.434 658.364 759.763 658.667 760.004C658.97 760.246 659.444 760.447 660.088 760.608L661.707 761.006C662.682 761.242 663.409 761.605 663.887 762.092C664.366 762.575 664.605 763.198 664.605 763.96C664.605 764.585 664.425 765.144 664.065 765.636C663.71 766.129 663.213 766.517 662.574 766.801C661.934 767.085 661.191 767.227 660.343 767.227C659.231 767.227 658.31 766.986 657.581 766.503C656.851 766.02 656.39 765.314 656.196 764.386L657.787 763.989C657.938 764.576 658.225 765.016 658.646 765.31C659.072 765.603 659.628 765.75 660.315 765.75C661.096 765.75 661.717 765.584 662.176 765.253C662.64 764.917 662.872 764.514 662.872 764.045C662.872 763.667 662.739 763.349 662.474 763.094C662.209 762.833 661.802 762.639 661.252 762.511L659.434 762.085C658.435 761.848 657.701 761.482 657.233 760.984C656.769 760.482 656.537 759.855 656.537 759.102C656.537 758.487 656.709 757.942 657.055 757.469C657.405 756.995 657.881 756.624 658.483 756.354C659.089 756.084 659.775 755.949 660.542 755.949C661.622 755.949 662.469 756.186 663.085 756.659C663.705 757.133 664.145 757.758 664.406 758.534ZM669.315 762.909V762.824C669.325 761.92 669.42 761.2 669.599 760.665C669.779 760.13 670.035 759.696 670.366 759.365C670.698 759.034 671.096 758.728 671.56 758.449C671.839 758.278 672.09 758.077 672.312 757.845C672.535 757.608 672.71 757.336 672.838 757.028C672.971 756.721 673.037 756.38 673.037 756.006C673.037 755.542 672.928 755.139 672.71 754.798C672.492 754.457 672.201 754.195 671.837 754.01C671.472 753.825 671.067 753.733 670.622 753.733C670.234 753.733 669.86 753.813 669.5 753.974C669.14 754.135 668.839 754.389 668.598 754.734C668.357 755.08 668.217 755.532 668.179 756.091H666.389C666.427 755.286 666.635 754.597 667.014 754.024C667.398 753.451 667.902 753.013 668.527 752.71C669.157 752.407 669.855 752.256 670.622 752.256C671.455 752.256 672.18 752.421 672.795 752.753C673.416 753.084 673.894 753.539 674.23 754.116C674.571 754.694 674.741 755.352 674.741 756.091C674.741 756.612 674.661 757.083 674.5 757.504C674.344 757.926 674.116 758.302 673.818 758.634C673.525 758.965 673.17 759.259 672.753 759.514C672.336 759.775 672.002 760.049 671.751 760.338C671.5 760.622 671.318 760.961 671.205 761.354C671.091 761.747 671.029 762.237 671.02 762.824V762.909H669.315ZM670.224 767.114C669.874 767.114 669.573 766.988 669.322 766.737C669.071 766.486 668.946 766.186 668.946 765.835C668.946 765.485 669.071 765.184 669.322 764.933C669.573 764.682 669.874 764.557 670.224 764.557C670.575 764.557 670.875 764.682 671.126 764.933C671.377 765.184 671.503 765.485 671.503 765.835C671.503 766.067 671.444 766.28 671.325 766.474C671.212 766.669 671.058 766.825 670.864 766.943C670.674 767.057 670.461 767.114 670.224 767.114Z" fill="black"/>
<path d="M572.442 952.864C572.442 945.1 575.119 937.515 575.119 929.518C575.119 922.517 573.781 915.451 573.781 908.7C573.781 900.46 570.158 892.84 569.766 884.611C569.402 876.969 569.766 869.216 569.766 861.563C569.766 855.406 571.659 845.489 569.097 839.853C566.518 834.179 569.766 825.753 569.766 819.63C569.766 814.469 571.398 807.668 573.483 802.975C574.907 799.771 573.781 792.1 573.781 788.254" stroke="black" stroke-opacity="0.5" stroke-width="3" stroke-linecap="round"/>
<path d="M573.78 788.254C596.085 788.254 618.39 788.254 640.695 788.254C646.073 788.254 651.451 788.254 656.829 788.254C661.167 788.254 662.718 786.279 666.792 785.652C672.976 784.7 684.206 782.83 689.468 779.481C696.068 775.281 702.45 760.953 703.52 753.458C704.407 747.254 702.464 735.347 696.903 731.748C690.895 727.861 683.59 727.267 676.532 726.395C663.971 724.845 652.424 722.678 639.654 722.678C631.081 722.678 622.702 725.41 614.524 727.734C607.282 729.791 599.594 729.664 592.219 731.005C582.424 732.786 572.71 730.707 562.777 730.707C554.4 730.707 546.023 730.707 537.647 730.707C523.901 730.707 512.268 733.347 498.762 735.317C483.522 737.54 465.53 737.61 451.327 744.165C442.215 748.37 434.232 761.381 440.695 770.782C447.156 780.18 455.541 784.463 465.453 788.923C502.343 805.523 538.085 786.916 575.119 786.916" stroke="black" stroke-opacity="0.5" stroke-width="3" stroke-linecap="round"/>
</g>
<defs>
<clipPath id="clip0_27_49">
<rect width="1024" height="1024" fill="white"/>
</clipPath>
</defs>
</svg>
