<svg width="1024" height="1024" viewBox="0 0 1024 1024" fill="none" xmlns="http://www.w3.org/2000/svg">
<path d="M235.534 332V321.091H237.21V332H235.534ZM236.386 319.273C236.06 319.273 235.778 319.161 235.541 318.939C235.309 318.716 235.193 318.449 235.193 318.136C235.193 317.824 235.309 317.556 235.541 317.334C235.778 317.111 236.06 317 236.386 317C236.713 317 236.992 317.111 237.224 317.334C237.461 317.556 237.58 317.824 237.58 318.136C237.58 318.449 237.461 318.716 237.224 318.939C236.992 319.161 236.713 319.273 236.386 319.273ZM245.025 321.091V322.511H239.371V321.091H245.025ZM241.019 318.477H242.695V328.875C242.695 329.348 242.764 329.704 242.901 329.94C243.043 330.172 243.223 330.329 243.441 330.409C243.663 330.485 243.898 330.523 244.144 330.523C244.328 330.523 244.48 330.513 244.598 330.494C244.717 330.471 244.811 330.452 244.882 330.438L245.223 331.943C245.11 331.986 244.951 332.028 244.748 332.071C244.544 332.118 244.286 332.142 243.973 332.142C243.5 332.142 243.036 332.04 242.581 331.837C242.132 331.633 241.757 331.323 241.459 330.906C241.166 330.49 241.019 329.964 241.019 329.33V318.477ZM249.589 317.455V318.733C249.589 319.121 249.518 319.536 249.376 319.976C249.239 320.411 249.036 320.835 248.766 321.247C248.5 321.654 248.179 322.009 247.8 322.312L246.891 321.574C247.189 321.148 247.447 320.705 247.665 320.246C247.887 319.782 247.999 319.287 247.999 318.761V317.455H249.589ZM257.988 323.534L256.482 323.96C256.388 323.709 256.248 323.465 256.063 323.229C255.883 322.987 255.637 322.788 255.325 322.632C255.012 322.476 254.612 322.398 254.124 322.398C253.457 322.398 252.9 322.552 252.455 322.859C252.015 323.162 251.795 323.548 251.795 324.017C251.795 324.434 251.946 324.763 252.249 325.004C252.552 325.246 253.026 325.447 253.67 325.608L255.289 326.006C256.264 326.242 256.991 326.605 257.469 327.092C257.948 327.575 258.187 328.198 258.187 328.96C258.187 329.585 258.007 330.144 257.647 330.636C257.292 331.129 256.795 331.517 256.156 331.801C255.516 332.085 254.773 332.227 253.925 332.227C252.813 332.227 251.892 331.986 251.163 331.503C250.433 331.02 249.972 330.314 249.778 329.386L251.369 328.989C251.52 329.576 251.807 330.016 252.228 330.31C252.654 330.603 253.21 330.75 253.897 330.75C254.678 330.75 255.299 330.584 255.758 330.253C256.222 329.917 256.454 329.514 256.454 329.045C256.454 328.667 256.321 328.349 256.056 328.094C255.791 327.833 255.384 327.639 254.835 327.511L253.016 327.085C252.017 326.848 251.283 326.482 250.815 325.984C250.351 325.482 250.119 324.855 250.119 324.102C250.119 323.487 250.291 322.942 250.637 322.469C250.987 321.995 251.463 321.624 252.065 321.354C252.671 321.084 253.357 320.949 254.124 320.949C255.204 320.949 256.051 321.186 256.667 321.659C257.287 322.133 257.728 322.758 257.988 323.534ZM271.079 321.091V322.511H265.426V321.091H271.079ZM267.074 318.477H268.75V328.875C268.75 329.348 268.818 329.704 268.956 329.94C269.098 330.172 269.278 330.329 269.495 330.409C269.718 330.485 269.952 330.523 270.199 330.523C270.383 330.523 270.535 330.513 270.653 330.494C270.771 330.471 270.866 330.452 270.937 330.438L271.278 331.943C271.164 331.986 271.006 332.028 270.802 332.071C270.599 332.118 270.341 332.142 270.028 332.142C269.555 332.142 269.091 332.04 268.636 331.837C268.186 331.633 267.812 331.323 267.514 330.906C267.22 330.49 267.074 329.964 267.074 329.33V318.477ZM275.511 325.438V332H273.835V317.455H275.511V322.795H275.653C275.909 322.232 276.292 321.785 276.804 321.453C277.32 321.117 278.006 320.949 278.863 320.949C279.607 320.949 280.258 321.098 280.816 321.396C281.375 321.69 281.808 322.142 282.116 322.753C282.429 323.359 282.585 324.131 282.585 325.068V332H280.909V325.182C280.909 324.315 280.684 323.645 280.234 323.172C279.789 322.694 279.171 322.455 278.38 322.455C277.831 322.455 277.339 322.571 276.903 322.803C276.472 323.035 276.131 323.373 275.88 323.818C275.634 324.263 275.511 324.803 275.511 325.438ZM290.225 332.227C289.174 332.227 288.267 331.995 287.505 331.531C286.747 331.062 286.163 330.409 285.751 329.571C285.344 328.728 285.14 327.748 285.14 326.631C285.14 325.513 285.344 324.528 285.751 323.676C286.163 322.819 286.736 322.152 287.469 321.673C288.208 321.19 289.07 320.949 290.055 320.949C290.623 320.949 291.184 321.044 291.738 321.233C292.292 321.422 292.796 321.73 293.251 322.156C293.705 322.578 294.067 323.136 294.337 323.832C294.607 324.528 294.742 325.385 294.742 326.403V327.114H286.333V325.665H293.038C293.038 325.049 292.915 324.5 292.668 324.017C292.427 323.534 292.081 323.153 291.631 322.874C291.186 322.594 290.661 322.455 290.055 322.455C289.387 322.455 288.809 322.62 288.322 322.952C287.839 323.278 287.467 323.705 287.207 324.23C286.946 324.756 286.816 325.319 286.816 325.92V326.886C286.816 327.71 286.958 328.409 287.242 328.982C287.531 329.55 287.931 329.983 288.442 330.281C288.954 330.575 289.548 330.722 290.225 330.722C290.665 330.722 291.063 330.66 291.418 330.537C291.778 330.409 292.088 330.22 292.349 329.969C292.609 329.713 292.81 329.396 292.952 329.017L294.572 329.472C294.401 330.021 294.115 330.504 293.712 330.92C293.31 331.332 292.813 331.654 292.221 331.886C291.629 332.114 290.964 332.227 290.225 332.227ZM310.644 323.534L309.138 323.96C309.044 323.709 308.904 323.465 308.719 323.229C308.54 322.987 308.293 322.788 307.981 322.632C307.668 322.476 307.268 322.398 306.781 322.398C306.113 322.398 305.557 322.552 305.112 322.859C304.671 323.162 304.451 323.548 304.451 324.017C304.451 324.434 304.603 324.763 304.906 325.004C305.209 325.246 305.682 325.447 306.326 325.608L307.945 326.006C308.921 326.242 309.647 326.605 310.126 327.092C310.604 327.575 310.843 328.198 310.843 328.96C310.843 329.585 310.663 330.144 310.303 330.636C309.948 331.129 309.451 331.517 308.812 331.801C308.173 332.085 307.429 332.227 306.582 332.227C305.469 332.227 304.548 331.986 303.819 331.503C303.09 331.02 302.628 330.314 302.434 329.386L304.025 328.989C304.176 329.576 304.463 330.016 304.884 330.31C305.31 330.603 305.867 330.75 306.553 330.75C307.335 330.75 307.955 330.584 308.414 330.253C308.878 329.917 309.11 329.514 309.11 329.045C309.11 328.667 308.978 328.349 308.712 328.094C308.447 327.833 308.04 327.639 307.491 327.511L305.673 327.085C304.674 326.848 303.94 326.482 303.471 325.984C303.007 325.482 302.775 324.855 302.775 324.102C302.775 323.487 302.948 322.942 303.293 322.469C303.644 321.995 304.12 321.624 304.721 321.354C305.327 321.084 306.013 320.949 306.781 320.949C307.86 320.949 308.708 321.186 309.323 321.659C309.943 322.133 310.384 322.758 310.644 323.534ZM317.798 332.227C316.813 332.227 315.949 331.993 315.206 331.524C314.467 331.055 313.889 330.4 313.473 329.557C313.061 328.714 312.855 327.729 312.855 326.602C312.855 325.466 313.061 324.474 313.473 323.626C313.889 322.779 314.467 322.121 315.206 321.652C315.949 321.183 316.813 320.949 317.798 320.949C318.783 320.949 319.645 321.183 320.383 321.652C321.127 322.121 321.704 322.779 322.116 323.626C322.533 324.474 322.741 325.466 322.741 326.602C322.741 327.729 322.533 328.714 322.116 329.557C321.704 330.4 321.127 331.055 320.383 331.524C319.645 331.993 318.783 332.227 317.798 332.227ZM317.798 330.722C318.546 330.722 319.162 330.53 319.645 330.146C320.127 329.763 320.485 329.259 320.717 328.634C320.949 328.009 321.065 327.331 321.065 326.602C321.065 325.873 320.949 325.194 320.717 324.564C320.485 323.934 320.127 323.425 319.645 323.037C319.162 322.649 318.546 322.455 317.798 322.455C317.05 322.455 316.434 322.649 315.951 323.037C315.468 323.425 315.111 323.934 314.879 324.564C314.647 325.194 314.531 325.873 314.531 326.602C314.531 327.331 314.647 328.009 314.879 328.634C315.111 329.259 315.468 329.763 315.951 330.146C316.434 330.53 317.05 330.722 317.798 330.722ZM332.175 327.54V321.091H333.851V332H332.175V330.153H332.061C331.805 330.707 331.408 331.179 330.868 331.567C330.328 331.95 329.646 332.142 328.822 332.142C328.141 332.142 327.535 331.993 327.004 331.695C326.474 331.392 326.057 330.937 325.754 330.331C325.451 329.72 325.3 328.951 325.3 328.023V321.091H326.976V327.909C326.976 328.705 327.198 329.339 327.643 329.812C328.093 330.286 328.666 330.523 329.362 330.523C329.779 330.523 330.203 330.416 330.634 330.203C331.069 329.99 331.434 329.663 331.727 329.223C332.026 328.783 332.175 328.222 332.175 327.54ZM338.597 325.438V332H336.921V321.091H338.54V322.795H338.682C338.938 322.241 339.326 321.796 339.847 321.46C340.368 321.119 341.04 320.949 341.864 320.949C342.603 320.949 343.249 321.1 343.803 321.403C344.357 321.702 344.788 322.156 345.096 322.767C345.403 323.373 345.557 324.14 345.557 325.068V332H343.881V325.182C343.881 324.325 343.658 323.657 343.213 323.179C342.768 322.696 342.158 322.455 341.381 322.455C340.846 322.455 340.368 322.571 339.946 322.803C339.53 323.035 339.201 323.373 338.959 323.818C338.718 324.263 338.597 324.803 338.597 325.438ZM352.739 332.227C351.83 332.227 351.028 331.998 350.332 331.538C349.636 331.074 349.091 330.421 348.698 329.578C348.305 328.731 348.109 327.729 348.109 326.574C348.109 325.428 348.305 324.434 348.698 323.591C349.091 322.748 349.638 322.097 350.339 321.638C351.04 321.179 351.849 320.949 352.768 320.949C353.478 320.949 354.039 321.067 354.451 321.304C354.868 321.536 355.185 321.801 355.403 322.099C355.625 322.393 355.798 322.634 355.921 322.824H356.063V317.455H357.739V332H356.12V330.324H355.921C355.798 330.523 355.623 330.774 355.396 331.077C355.168 331.375 354.844 331.643 354.423 331.879C354.001 332.111 353.44 332.227 352.739 332.227ZM352.967 330.722C353.639 330.722 354.207 330.546 354.671 330.196C355.135 329.841 355.488 329.351 355.729 328.726C355.971 328.096 356.092 327.369 356.092 326.545C356.092 325.731 355.973 325.018 355.737 324.408C355.5 323.792 355.149 323.314 354.685 322.973C354.221 322.627 353.648 322.455 352.967 322.455C352.256 322.455 351.665 322.637 351.191 323.001C350.722 323.361 350.37 323.851 350.133 324.472C349.901 325.087 349.785 325.778 349.785 326.545C349.785 327.322 349.903 328.027 350.14 328.662C350.381 329.292 350.737 329.794 351.205 330.168C351.679 330.537 352.266 330.722 352.967 330.722ZM371.099 332.227C370.114 332.227 369.25 331.993 368.506 331.524C367.768 331.055 367.19 330.4 366.773 329.557C366.362 328.714 366.156 327.729 366.156 326.602C366.156 325.466 366.362 324.474 366.773 323.626C367.19 322.779 367.768 322.121 368.506 321.652C369.25 321.183 370.114 320.949 371.099 320.949C372.084 320.949 372.945 321.183 373.684 321.652C374.427 322.121 375.005 322.779 375.417 323.626C375.834 324.474 376.042 325.466 376.042 326.602C376.042 327.729 375.834 328.714 375.417 329.557C375.005 330.4 374.427 331.055 373.684 331.524C372.945 331.993 372.084 332.227 371.099 332.227ZM371.099 330.722C371.847 330.722 372.462 330.53 372.945 330.146C373.428 329.763 373.786 329.259 374.018 328.634C374.25 328.009 374.366 327.331 374.366 326.602C374.366 325.873 374.25 325.194 374.018 324.564C373.786 323.934 373.428 323.425 372.945 323.037C372.462 322.649 371.847 322.455 371.099 322.455C370.351 322.455 369.735 322.649 369.252 323.037C368.769 323.425 368.412 323.934 368.18 324.564C367.948 325.194 367.832 325.873 367.832 326.602C367.832 327.331 367.948 328.009 368.18 328.634C368.412 329.259 368.769 329.763 369.252 330.146C369.735 330.53 370.351 330.722 371.099 330.722ZM383.458 321.091V322.511H377.578V321.091H383.458ZM379.339 332V319.585C379.339 318.96 379.486 318.439 379.779 318.023C380.073 317.606 380.454 317.294 380.923 317.085C381.392 316.877 381.886 316.773 382.407 316.773C382.819 316.773 383.155 316.806 383.416 316.872C383.676 316.938 383.87 317 383.998 317.057L383.515 318.506C383.43 318.477 383.312 318.442 383.16 318.399C383.013 318.357 382.819 318.335 382.578 318.335C382.024 318.335 381.624 318.475 381.377 318.754C381.136 319.034 381.015 319.443 381.015 319.983V332H379.339ZM396.177 321.091V322.511H390.523V321.091H396.177ZM392.171 318.477H393.847V328.875C393.847 329.348 393.916 329.704 394.053 329.94C394.195 330.172 394.375 330.329 394.593 330.409C394.816 330.485 395.05 330.523 395.296 330.523C395.481 330.523 395.632 330.513 395.751 330.494C395.869 330.471 395.964 330.452 396.035 330.438L396.376 331.943C396.262 331.986 396.103 332.028 395.9 332.071C395.696 332.118 395.438 332.142 395.126 332.142C394.652 332.142 394.188 332.04 393.734 331.837C393.284 331.633 392.91 331.323 392.612 330.906C392.318 330.49 392.171 329.964 392.171 329.33V318.477ZM398.698 332V321.091H400.374V332H398.698ZM399.55 319.273C399.224 319.273 398.942 319.161 398.705 318.939C398.473 318.716 398.357 318.449 398.357 318.136C398.357 317.824 398.473 317.556 398.705 317.334C398.942 317.111 399.224 317 399.55 317C399.877 317 400.156 317.111 400.388 317.334C400.625 317.556 400.744 317.824 400.744 318.136C400.744 318.449 400.625 318.716 400.388 318.939C400.156 319.161 399.877 319.273 399.55 319.273ZM403.444 332V321.091H405.064V322.795H405.206C405.433 322.213 405.8 321.761 406.306 321.439C406.813 321.112 407.422 320.949 408.132 320.949C408.851 320.949 409.45 321.112 409.929 321.439C410.412 321.761 410.788 322.213 411.058 322.795H411.172C411.451 322.232 411.87 321.785 412.429 321.453C412.987 321.117 413.657 320.949 414.439 320.949C415.414 320.949 416.212 321.254 416.832 321.865C417.452 322.471 417.762 323.416 417.762 324.699V332H416.086V324.699C416.086 323.894 415.866 323.319 415.426 322.973C414.985 322.627 414.467 322.455 413.87 322.455C413.103 322.455 412.509 322.687 412.088 323.151C411.666 323.61 411.456 324.192 411.456 324.898V332H409.751V324.528C409.751 323.908 409.55 323.409 409.147 323.03C408.745 322.646 408.226 322.455 407.592 322.455C407.156 322.455 406.749 322.571 406.37 322.803C405.996 323.035 405.693 323.357 405.461 323.768C405.234 324.176 405.12 324.647 405.12 325.182V332H403.444ZM425.401 332.227C424.35 332.227 423.443 331.995 422.681 331.531C421.923 331.062 421.338 330.409 420.926 329.571C420.519 328.728 420.316 327.748 420.316 326.631C420.316 325.513 420.519 324.528 420.926 323.676C421.338 322.819 421.911 322.152 422.645 321.673C423.384 321.19 424.246 320.949 425.23 320.949C425.799 320.949 426.36 321.044 426.914 321.233C427.468 321.422 427.972 321.73 428.426 322.156C428.881 322.578 429.243 323.136 429.513 323.832C429.783 324.528 429.918 325.385 429.918 326.403V327.114H421.509V325.665H428.213C428.213 325.049 428.09 324.5 427.844 324.017C427.603 323.534 427.257 323.153 426.807 322.874C426.362 322.594 425.837 322.455 425.23 322.455C424.563 322.455 423.985 322.62 423.498 322.952C423.015 323.278 422.643 323.705 422.382 324.23C422.122 324.756 421.992 325.319 421.992 325.92V326.886C421.992 327.71 422.134 328.409 422.418 328.982C422.707 329.55 423.107 329.983 423.618 330.281C424.13 330.575 424.724 330.722 425.401 330.722C425.841 330.722 426.239 330.66 426.594 330.537C426.954 330.409 427.264 330.22 427.525 329.969C427.785 329.713 427.986 329.396 428.128 329.017L429.748 329.472C429.577 330.021 429.291 330.504 428.888 330.92C428.486 331.332 427.989 331.654 427.397 331.886C426.805 332.114 426.14 332.227 425.401 332.227ZM438.093 336.091V321.091H439.712V322.824H439.911C440.034 322.634 440.204 322.393 440.422 322.099C440.645 321.801 440.962 321.536 441.374 321.304C441.791 321.067 442.354 320.949 443.064 320.949C443.983 320.949 444.792 321.179 445.493 321.638C446.194 322.097 446.741 322.748 447.134 323.591C447.527 324.434 447.723 325.428 447.723 326.574C447.723 327.729 447.527 328.731 447.134 329.578C446.741 330.421 446.196 331.074 445.5 331.538C444.804 331.998 444.002 332.227 443.093 332.227C442.392 332.227 441.831 332.111 441.409 331.879C440.988 331.643 440.664 331.375 440.436 331.077C440.209 330.774 440.034 330.523 439.911 330.324H439.769V336.091H438.093ZM439.74 326.545C439.74 327.369 439.861 328.096 440.103 328.726C440.344 329.351 440.697 329.841 441.161 330.196C441.625 330.546 442.193 330.722 442.865 330.722C443.566 330.722 444.151 330.537 444.62 330.168C445.093 329.794 445.448 329.292 445.685 328.662C445.926 328.027 446.047 327.322 446.047 326.545C446.047 325.778 445.929 325.087 445.692 324.472C445.46 323.851 445.107 323.361 444.634 323.001C444.165 322.637 443.576 322.455 442.865 322.455C442.184 322.455 441.611 322.627 441.147 322.973C440.683 323.314 440.332 323.792 440.096 324.408C439.859 325.018 439.74 325.731 439.74 326.545ZM453.49 332.256C452.799 332.256 452.172 332.125 451.608 331.865C451.045 331.6 450.597 331.219 450.266 330.722C449.935 330.22 449.769 329.614 449.769 328.903C449.769 328.278 449.892 327.772 450.138 327.384C450.384 326.991 450.713 326.683 451.125 326.46C451.537 326.238 451.992 326.072 452.489 325.963C452.991 325.849 453.495 325.759 454.002 325.693C454.665 325.608 455.202 325.544 455.614 325.501C456.031 325.454 456.334 325.376 456.523 325.267C456.717 325.158 456.814 324.969 456.814 324.699V324.642C456.814 323.941 456.623 323.397 456.239 323.009C455.86 322.62 455.285 322.426 454.513 322.426C453.713 322.426 453.086 322.601 452.631 322.952C452.176 323.302 451.857 323.676 451.672 324.074L450.081 323.506C450.365 322.843 450.744 322.327 451.218 321.957C451.696 321.583 452.217 321.323 452.78 321.176C453.348 321.025 453.907 320.949 454.456 320.949C454.807 320.949 455.209 320.991 455.664 321.077C456.123 321.157 456.566 321.325 456.992 321.581C457.423 321.837 457.78 322.223 458.064 322.739C458.348 323.255 458.49 323.946 458.49 324.812V332H456.814V330.523H456.729C456.615 330.759 456.426 331.013 456.161 331.283C455.896 331.553 455.543 331.782 455.103 331.972C454.662 332.161 454.125 332.256 453.49 332.256ZM453.746 330.75C454.409 330.75 454.968 330.62 455.422 330.359C455.882 330.099 456.227 329.763 456.459 329.351C456.696 328.939 456.814 328.506 456.814 328.051V326.517C456.743 326.602 456.587 326.68 456.346 326.751C456.109 326.818 455.834 326.877 455.522 326.929C455.214 326.976 454.913 327.019 454.62 327.057C454.331 327.09 454.096 327.118 453.917 327.142C453.481 327.199 453.074 327.291 452.695 327.419C452.321 327.542 452.018 327.729 451.786 327.98C451.559 328.226 451.445 328.562 451.445 328.989C451.445 329.571 451.66 330.011 452.091 330.31C452.527 330.603 453.078 330.75 453.746 330.75ZM469.277 323.534L467.771 323.96C467.677 323.709 467.537 323.465 467.352 323.229C467.172 322.987 466.926 322.788 466.614 322.632C466.301 322.476 465.901 322.398 465.413 322.398C464.746 322.398 464.189 322.552 463.744 322.859C463.304 323.162 463.084 323.548 463.084 324.017C463.084 324.434 463.235 324.763 463.538 325.004C463.841 325.246 464.315 325.447 464.959 325.608L466.578 326.006C467.554 326.242 468.28 326.605 468.759 327.092C469.237 327.575 469.476 328.198 469.476 328.96C469.476 329.585 469.296 330.144 468.936 330.636C468.581 331.129 468.084 331.517 467.445 331.801C466.805 332.085 466.062 332.227 465.214 332.227C464.102 332.227 463.181 331.986 462.452 331.503C461.723 331.02 461.261 330.314 461.067 329.386L462.658 328.989C462.809 329.576 463.096 330.016 463.517 330.31C463.943 330.603 464.5 330.75 465.186 330.75C465.967 330.75 466.588 330.584 467.047 330.253C467.511 329.917 467.743 329.514 467.743 329.045C467.743 328.667 467.61 328.349 467.345 328.094C467.08 327.833 466.673 327.639 466.124 327.511L464.305 327.085C463.306 326.848 462.572 326.482 462.104 325.984C461.64 325.482 461.408 324.855 461.408 324.102C461.408 323.487 461.58 322.942 461.926 322.469C462.277 321.995 462.752 321.624 463.354 321.354C463.96 321.084 464.646 320.949 465.413 320.949C466.493 320.949 467.34 321.186 467.956 321.659C468.576 322.133 469.017 322.758 469.277 323.534ZM479.726 323.534L478.221 323.96C478.126 323.709 477.986 323.465 477.801 323.229C477.622 322.987 477.375 322.788 477.063 322.632C476.75 322.476 476.35 322.398 475.863 322.398C475.195 322.398 474.639 322.552 474.194 322.859C473.753 323.162 473.533 323.548 473.533 324.017C473.533 324.434 473.685 324.763 473.988 325.004C474.291 325.246 474.764 325.447 475.408 325.608L477.027 326.006C478.003 326.242 478.73 326.605 479.208 327.092C479.686 327.575 479.925 328.198 479.925 328.96C479.925 329.585 479.745 330.144 479.385 330.636C479.03 331.129 478.533 331.517 477.894 331.801C477.255 332.085 476.511 332.227 475.664 332.227C474.551 332.227 473.63 331.986 472.901 331.503C472.172 331.02 471.71 330.314 471.516 329.386L473.107 328.989C473.258 329.576 473.545 330.016 473.966 330.31C474.392 330.603 474.949 330.75 475.635 330.75C476.417 330.75 477.037 330.584 477.496 330.253C477.96 329.917 478.192 329.514 478.192 329.045C478.192 328.667 478.06 328.349 477.794 328.094C477.529 327.833 477.122 327.639 476.573 327.511L474.755 327.085C473.756 326.848 473.022 326.482 472.553 325.984C472.089 325.482 471.857 324.855 471.857 324.102C471.857 323.487 472.03 322.942 472.375 322.469C472.726 321.995 473.202 321.624 473.803 321.354C474.409 321.084 475.096 320.949 475.863 320.949C476.942 320.949 477.79 321.186 478.405 321.659C479.025 322.133 479.466 322.758 479.726 323.534ZM482.448 332V321.091H484.124V332H482.448ZM483.3 319.273C482.974 319.273 482.692 319.161 482.455 318.939C482.223 318.716 482.107 318.449 482.107 318.136C482.107 317.824 482.223 317.556 482.455 317.334C482.692 317.111 482.974 317 483.3 317C483.627 317 483.906 317.111 484.138 317.334C484.375 317.556 484.494 317.824 484.494 318.136C484.494 318.449 484.375 318.716 484.138 318.939C483.906 319.161 483.627 319.273 483.3 319.273ZM488.87 325.438V332H487.194V321.091H488.814V322.795H488.956C489.211 322.241 489.6 321.796 490.12 321.46C490.641 321.119 491.314 320.949 492.137 320.949C492.876 320.949 493.522 321.1 494.076 321.403C494.63 321.702 495.061 322.156 495.369 322.767C495.677 323.373 495.831 324.14 495.831 325.068V332H494.154V325.182C494.154 324.325 493.932 323.657 493.487 323.179C493.042 322.696 492.431 322.455 491.654 322.455C491.119 322.455 490.641 322.571 490.22 322.803C489.803 323.035 489.474 323.373 489.233 323.818C488.991 324.263 488.87 324.803 488.87 325.438ZM503.297 336.318C502.487 336.318 501.791 336.214 501.209 336.006C500.626 335.802 500.141 335.532 499.753 335.196C499.369 334.865 499.064 334.509 498.837 334.131L500.172 333.193C500.323 333.392 500.515 333.619 500.747 333.875C500.979 334.135 501.296 334.36 501.699 334.55C502.106 334.744 502.639 334.841 503.297 334.841C504.178 334.841 504.904 334.628 505.477 334.202C506.05 333.776 506.337 333.108 506.337 332.199V329.983H506.195C506.071 330.182 505.896 330.428 505.669 330.722C505.446 331.01 505.125 331.268 504.703 331.496C504.286 331.718 503.723 331.83 503.013 331.83C502.132 331.83 501.341 331.621 500.641 331.205C499.945 330.788 499.393 330.182 498.986 329.386C498.583 328.591 498.382 327.625 498.382 326.489C498.382 325.371 498.579 324.398 498.972 323.57C499.365 322.736 499.911 322.092 500.612 321.638C501.313 321.179 502.123 320.949 503.041 320.949C503.751 320.949 504.315 321.067 504.732 321.304C505.153 321.536 505.475 321.801 505.697 322.099C505.925 322.393 506.1 322.634 506.223 322.824H506.393V321.091H508.013V332.312C508.013 333.25 507.8 334.012 507.374 334.599C506.952 335.191 506.384 335.625 505.669 335.899C504.959 336.179 504.168 336.318 503.297 336.318ZM503.24 330.324C503.912 330.324 504.481 330.17 504.945 329.862C505.409 329.554 505.761 329.112 506.003 328.534C506.244 327.956 506.365 327.265 506.365 326.46C506.365 325.674 506.247 324.981 506.01 324.379C505.773 323.778 505.423 323.307 504.959 322.966C504.495 322.625 503.922 322.455 503.24 322.455C502.53 322.455 501.938 322.634 501.464 322.994C500.996 323.354 500.643 323.837 500.406 324.443C500.174 325.049 500.058 325.722 500.058 326.46C500.058 327.218 500.177 327.888 500.413 328.47C500.655 329.048 501.01 329.502 501.479 329.834C501.952 330.161 502.539 330.324 503.24 330.324Z" fill="black"/>
<path d="M604.302 467.091V468.511H598.648V467.091H604.302ZM600.296 464.477H601.972V474.875C601.972 475.348 602.041 475.704 602.178 475.94C602.32 476.172 602.5 476.329 602.718 476.409C602.941 476.485 603.175 476.523 603.421 476.523C603.606 476.523 603.757 476.513 603.876 476.494C603.994 476.471 604.089 476.452 604.16 476.438L604.501 477.943C604.387 477.986 604.228 478.028 604.025 478.071C603.821 478.118 603.563 478.142 603.251 478.142C602.777 478.142 602.313 478.04 601.859 477.837C601.409 477.633 601.035 477.323 600.737 476.906C600.443 476.49 600.296 475.964 600.296 475.33V464.477ZM608.734 471.438V478H607.058V463.455H608.734V468.795H608.876C609.131 468.232 609.515 467.785 610.026 467.453C610.542 467.117 611.229 466.949 612.086 466.949C612.829 466.949 613.48 467.098 614.039 467.396C614.598 467.69 615.031 468.142 615.339 468.753C615.651 469.359 615.808 470.131 615.808 471.068V478H614.131V471.182C614.131 470.315 613.906 469.645 613.457 469.172C613.012 468.694 612.394 468.455 611.603 468.455C611.054 468.455 610.561 468.571 610.126 468.803C609.695 469.035 609.354 469.373 609.103 469.818C608.857 470.263 608.734 470.803 608.734 471.438ZM623.448 478.227C622.397 478.227 621.49 477.995 620.728 477.531C619.97 477.062 619.385 476.409 618.973 475.571C618.566 474.728 618.363 473.748 618.363 472.631C618.363 471.513 618.566 470.528 618.973 469.676C619.385 468.819 619.958 468.152 620.692 467.673C621.431 467.19 622.292 466.949 623.277 466.949C623.846 466.949 624.407 467.044 624.961 467.233C625.515 467.422 626.019 467.73 626.473 468.156C626.928 468.578 627.29 469.136 627.56 469.832C627.83 470.528 627.965 471.385 627.965 472.403V473.114H619.556V471.665H626.26C626.26 471.049 626.137 470.5 625.891 470.017C625.65 469.534 625.304 469.153 624.854 468.874C624.409 468.594 623.883 468.455 623.277 468.455C622.61 468.455 622.032 468.62 621.544 468.952C621.061 469.278 620.69 469.705 620.429 470.23C620.169 470.756 620.039 471.319 620.039 471.92V472.886C620.039 473.71 620.181 474.409 620.465 474.982C620.754 475.55 621.154 475.983 621.665 476.281C622.176 476.575 622.771 476.722 623.448 476.722C623.888 476.722 624.286 476.66 624.641 476.537C625.001 476.409 625.311 476.22 625.571 475.969C625.832 475.713 626.033 475.396 626.175 475.017L627.794 475.472C627.624 476.021 627.337 476.504 626.935 476.92C626.533 477.332 626.035 477.654 625.444 477.886C624.852 478.114 624.186 478.227 623.448 478.227ZM640.571 478.227C639.549 478.227 638.668 477.986 637.929 477.503C637.191 477.02 636.623 476.355 636.225 475.507C635.827 474.66 635.628 473.691 635.628 472.602C635.628 471.494 635.832 470.517 636.239 469.669C636.651 468.817 637.224 468.152 637.958 467.673C638.696 467.19 639.558 466.949 640.543 466.949C641.31 466.949 642.001 467.091 642.617 467.375C643.232 467.659 643.737 468.057 644.13 468.568C644.523 469.08 644.766 469.676 644.861 470.358H643.185C643.057 469.861 642.773 469.42 642.333 469.037C641.897 468.649 641.31 468.455 640.571 468.455C639.918 468.455 639.345 468.625 638.853 468.966C638.365 469.302 637.984 469.778 637.709 470.393C637.439 471.004 637.304 471.722 637.304 472.545C637.304 473.388 637.437 474.122 637.702 474.747C637.972 475.372 638.351 475.857 638.838 476.203C639.331 476.549 639.908 476.722 640.571 476.722C641.007 476.722 641.402 476.646 641.757 476.494C642.113 476.343 642.413 476.125 642.659 475.841C642.906 475.557 643.081 475.216 643.185 474.818H644.861C644.766 475.462 644.532 476.042 644.158 476.558C643.789 477.07 643.299 477.477 642.688 477.78C642.082 478.078 641.376 478.227 640.571 478.227ZM651.743 478.227C650.758 478.227 649.894 477.993 649.151 477.524C648.412 477.055 647.835 476.4 647.418 475.557C647.006 474.714 646.8 473.729 646.8 472.602C646.8 471.466 647.006 470.474 647.418 469.626C647.835 468.779 648.412 468.121 649.151 467.652C649.894 467.183 650.758 466.949 651.743 466.949C652.728 466.949 653.59 467.183 654.328 467.652C655.072 468.121 655.65 468.779 656.061 469.626C656.478 470.474 656.686 471.466 656.686 472.602C656.686 473.729 656.478 474.714 656.061 475.557C655.65 476.4 655.072 477.055 654.328 477.524C653.59 477.993 652.728 478.227 651.743 478.227ZM651.743 476.722C652.491 476.722 653.107 476.53 653.59 476.146C654.073 475.763 654.43 475.259 654.662 474.634C654.894 474.009 655.01 473.331 655.01 472.602C655.01 471.873 654.894 471.194 654.662 470.564C654.43 469.934 654.073 469.425 653.59 469.037C653.107 468.649 652.491 468.455 651.743 468.455C650.995 468.455 650.38 468.649 649.897 469.037C649.414 469.425 649.056 469.934 648.824 470.564C648.592 471.194 648.476 471.873 648.476 472.602C648.476 473.331 648.592 474.009 648.824 474.634C649.056 475.259 649.414 475.763 649.897 476.146C650.38 476.53 650.995 476.722 651.743 476.722ZM660.921 471.438V478H659.245V467.091H660.864V468.795H661.006C661.262 468.241 661.65 467.796 662.171 467.46C662.692 467.119 663.364 466.949 664.188 466.949C664.927 466.949 665.573 467.1 666.127 467.403C666.681 467.702 667.112 468.156 667.42 468.767C667.728 469.373 667.881 470.14 667.881 471.068V478H666.205V471.182C666.205 470.325 665.983 469.657 665.538 469.179C665.093 468.696 664.482 468.455 663.705 468.455C663.17 468.455 662.692 468.571 662.271 468.803C661.854 469.035 661.525 469.373 661.283 469.818C661.042 470.263 660.921 470.803 660.921 471.438ZM675.689 467.091V468.511H670.035V467.091H675.689ZM671.683 464.477H673.359V474.875C673.359 475.348 673.428 475.704 673.565 475.94C673.707 476.172 673.887 476.329 674.105 476.409C674.327 476.485 674.562 476.523 674.808 476.523C674.993 476.523 675.144 476.513 675.262 476.494C675.381 476.471 675.475 476.452 675.547 476.438L675.887 477.943C675.774 477.986 675.615 478.028 675.412 478.071C675.208 478.118 674.95 478.142 674.637 478.142C674.164 478.142 673.7 478.04 673.245 477.837C672.796 477.633 672.422 477.323 672.123 476.906C671.83 476.49 671.683 475.964 671.683 475.33V464.477ZM678.21 478V467.091H679.829V468.739H679.943C680.142 468.199 680.502 467.761 681.022 467.425C681.543 467.089 682.13 466.92 682.784 466.92C682.907 466.92 683.061 466.923 683.245 466.928C683.43 466.932 683.57 466.939 683.664 466.949V468.653C683.608 468.639 683.477 468.618 683.274 468.589C683.075 468.556 682.864 468.54 682.642 468.54C682.111 468.54 681.638 468.651 681.221 468.874C680.809 469.091 680.483 469.394 680.241 469.783C680.004 470.166 679.886 470.604 679.886 471.097V478H678.21ZM688.862 478.256C688.17 478.256 687.543 478.125 686.979 477.865C686.416 477.6 685.969 477.219 685.637 476.722C685.306 476.22 685.14 475.614 685.14 474.903C685.14 474.278 685.263 473.772 685.509 473.384C685.755 472.991 686.085 472.683 686.496 472.46C686.908 472.238 687.363 472.072 687.86 471.963C688.362 471.849 688.866 471.759 689.373 471.693C690.036 471.608 690.573 471.544 690.985 471.501C691.402 471.454 691.705 471.376 691.894 471.267C692.088 471.158 692.185 470.969 692.185 470.699V470.642C692.185 469.941 691.994 469.397 691.61 469.009C691.231 468.62 690.656 468.426 689.884 468.426C689.084 468.426 688.457 468.601 688.002 468.952C687.548 469.302 687.228 469.676 687.043 470.074L685.452 469.506C685.737 468.843 686.115 468.327 686.589 467.957C687.067 467.583 687.588 467.323 688.151 467.176C688.719 467.025 689.278 466.949 689.827 466.949C690.178 466.949 690.58 466.991 691.035 467.077C691.494 467.157 691.937 467.325 692.363 467.581C692.794 467.837 693.151 468.223 693.435 468.739C693.719 469.255 693.862 469.946 693.862 470.812V478H692.185V476.523H692.1C691.987 476.759 691.797 477.013 691.532 477.283C691.267 477.553 690.914 477.782 690.474 477.972C690.033 478.161 689.496 478.256 688.862 478.256ZM689.117 476.75C689.78 476.75 690.339 476.62 690.793 476.359C691.253 476.099 691.598 475.763 691.83 475.351C692.067 474.939 692.185 474.506 692.185 474.051V472.517C692.114 472.602 691.958 472.68 691.717 472.751C691.48 472.818 691.205 472.877 690.893 472.929C690.585 472.976 690.284 473.019 689.991 473.057C689.702 473.09 689.468 473.118 689.288 473.142C688.852 473.199 688.445 473.291 688.066 473.419C687.692 473.542 687.389 473.729 687.157 473.98C686.93 474.226 686.816 474.562 686.816 474.989C686.816 475.571 687.031 476.011 687.462 476.31C687.898 476.603 688.45 476.75 689.117 476.75ZM701.353 478.227C700.33 478.227 699.449 477.986 698.711 477.503C697.972 477.02 697.404 476.355 697.006 475.507C696.608 474.66 696.409 473.691 696.409 472.602C696.409 471.494 696.613 470.517 697.02 469.669C697.432 468.817 698.005 468.152 698.739 467.673C699.478 467.19 700.339 466.949 701.324 466.949C702.091 466.949 702.783 467.091 703.398 467.375C704.014 467.659 704.518 468.057 704.911 468.568C705.304 469.08 705.548 469.676 705.642 470.358H703.966C703.838 469.861 703.554 469.42 703.114 469.037C702.678 468.649 702.091 468.455 701.353 468.455C700.699 468.455 700.126 468.625 699.634 468.966C699.146 469.302 698.765 469.778 698.49 470.393C698.221 471.004 698.086 471.722 698.086 472.545C698.086 473.388 698.218 474.122 698.483 474.747C698.753 475.372 699.132 475.857 699.62 476.203C700.112 476.549 700.69 476.722 701.353 476.722C701.788 476.722 702.184 476.646 702.539 476.494C702.894 476.343 703.194 476.125 703.441 475.841C703.687 475.557 703.862 475.216 703.966 474.818H705.642C705.548 475.462 705.313 476.042 704.939 476.558C704.57 477.07 704.08 477.477 703.469 477.78C702.863 478.078 702.158 478.227 701.353 478.227ZM712.837 467.091V468.511H707.184V467.091H712.837ZM708.831 464.477H710.507V474.875C710.507 475.348 710.576 475.704 710.713 475.94C710.855 476.172 711.035 476.329 711.253 476.409C711.476 476.485 711.71 476.523 711.956 476.523C712.141 476.523 712.292 476.513 712.411 476.494C712.529 476.471 712.624 476.452 712.695 476.438L713.036 477.943C712.922 477.986 712.764 478.028 712.56 478.071C712.356 478.118 712.098 478.142 711.786 478.142C711.312 478.142 710.848 478.04 710.394 477.837C709.944 477.633 709.57 477.323 709.272 476.906C708.978 476.49 708.831 475.964 708.831 475.33V464.477ZM722.659 471.438V478H720.983V463.455H722.659V468.795H722.801C723.057 468.232 723.441 467.785 723.952 467.453C724.468 467.117 725.155 466.949 726.012 466.949C726.755 466.949 727.406 467.098 727.965 467.396C728.524 467.69 728.957 468.142 729.265 468.753C729.577 469.359 729.733 470.131 729.733 471.068V478H728.057V471.182C728.057 470.315 727.832 469.645 727.382 469.172C726.937 468.694 726.319 468.455 725.529 468.455C724.98 468.455 724.487 468.571 724.051 468.803C723.621 469.035 723.28 469.373 723.029 469.818C722.783 470.263 722.659 470.803 722.659 471.438ZM737.232 478.227C736.247 478.227 735.383 477.993 734.639 477.524C733.901 477.055 733.323 476.4 732.906 475.557C732.494 474.714 732.288 473.729 732.288 472.602C732.288 471.466 732.494 470.474 732.906 469.626C733.323 468.779 733.901 468.121 734.639 467.652C735.383 467.183 736.247 466.949 737.232 466.949C738.216 466.949 739.078 467.183 739.817 467.652C740.56 468.121 741.138 468.779 741.55 469.626C741.966 470.474 742.175 471.466 742.175 472.602C742.175 473.729 741.966 474.714 741.55 475.557C741.138 476.4 740.56 477.055 739.817 477.524C739.078 477.993 738.216 478.227 737.232 478.227ZM737.232 476.722C737.98 476.722 738.595 476.53 739.078 476.146C739.561 475.763 739.919 475.259 740.151 474.634C740.383 474.009 740.499 473.331 740.499 472.602C740.499 471.873 740.383 471.194 740.151 470.564C739.919 469.934 739.561 469.425 739.078 469.037C738.595 468.649 737.98 468.455 737.232 468.455C736.483 468.455 735.868 468.649 735.385 469.037C734.902 469.425 734.545 469.934 734.312 470.564C734.08 471.194 733.964 471.873 733.964 472.602C733.964 473.331 734.08 474.009 734.312 474.634C734.545 475.259 734.902 475.763 735.385 476.146C735.868 476.53 736.483 476.722 737.232 476.722ZM746.409 463.455V478H744.733V463.455H746.409ZM753.599 478.227C752.69 478.227 751.887 477.998 751.191 477.538C750.495 477.074 749.951 476.421 749.558 475.578C749.165 474.731 748.968 473.729 748.968 472.574C748.968 471.428 749.165 470.434 749.558 469.591C749.951 468.748 750.497 468.097 751.198 467.638C751.899 467.179 752.709 466.949 753.627 466.949C754.337 466.949 754.898 467.067 755.31 467.304C755.727 467.536 756.044 467.801 756.262 468.099C756.485 468.393 756.657 468.634 756.781 468.824H756.923V463.455H758.599V478H756.979V476.324H756.781C756.657 476.523 756.482 476.774 756.255 477.077C756.028 477.375 755.703 477.643 755.282 477.879C754.861 478.111 754.299 478.227 753.599 478.227ZM753.826 476.722C754.498 476.722 755.067 476.546 755.531 476.196C755.995 475.841 756.347 475.351 756.589 474.726C756.83 474.096 756.951 473.369 756.951 472.545C756.951 471.731 756.833 471.018 756.596 470.408C756.359 469.792 756.009 469.314 755.545 468.973C755.081 468.627 754.508 468.455 753.826 468.455C753.116 468.455 752.524 468.637 752.05 469.001C751.582 469.361 751.229 469.851 750.992 470.472C750.76 471.087 750.644 471.778 750.644 472.545C750.644 473.322 750.763 474.027 750.999 474.662C751.241 475.292 751.596 475.794 752.065 476.168C752.538 476.537 753.125 476.722 753.826 476.722ZM761.901 478V467.091H763.577V478H761.901ZM762.754 465.273C762.427 465.273 762.145 465.161 761.908 464.939C761.676 464.716 761.56 464.449 761.56 464.136C761.56 463.824 761.676 463.556 761.908 463.334C762.145 463.111 762.427 463 762.754 463C763.08 463 763.36 463.111 763.592 463.334C763.828 463.556 763.947 463.824 763.947 464.136C763.947 464.449 763.828 464.716 763.592 464.939C763.36 465.161 763.08 465.273 762.754 465.273ZM768.324 471.438V478H766.647V467.091H768.267V468.795H768.409C768.664 468.241 769.053 467.796 769.574 467.46C770.094 467.119 770.767 466.949 771.591 466.949C772.329 466.949 772.975 467.1 773.529 467.403C774.083 467.702 774.514 468.156 774.822 468.767C775.13 469.373 775.284 470.14 775.284 471.068V478H773.608V471.182C773.608 470.325 773.385 469.657 772.94 469.179C772.495 468.696 771.884 468.455 771.108 468.455C770.573 468.455 770.094 468.571 769.673 468.803C769.256 469.035 768.927 469.373 768.686 469.818C768.444 470.263 768.324 470.803 768.324 471.438ZM782.75 482.318C781.94 482.318 781.244 482.214 780.662 482.006C780.08 481.802 779.594 481.532 779.206 481.196C778.822 480.865 778.517 480.509 778.29 480.131L779.625 479.193C779.777 479.392 779.968 479.619 780.2 479.875C780.432 480.135 780.75 480.36 781.152 480.55C781.559 480.744 782.092 480.841 782.75 480.841C783.631 480.841 784.357 480.628 784.93 480.202C785.503 479.776 785.79 479.108 785.79 478.199V475.983H785.648C785.525 476.182 785.349 476.428 785.122 476.722C784.9 477.01 784.578 477.268 784.156 477.496C783.74 477.718 783.176 477.83 782.466 477.83C781.585 477.83 780.795 477.621 780.094 477.205C779.398 476.788 778.846 476.182 778.439 475.386C778.036 474.591 777.835 473.625 777.835 472.489C777.835 471.371 778.032 470.398 778.425 469.57C778.818 468.736 779.365 468.092 780.065 467.638C780.766 467.179 781.576 466.949 782.494 466.949C783.205 466.949 783.768 467.067 784.185 467.304C784.606 467.536 784.928 467.801 785.151 468.099C785.378 468.393 785.553 468.634 785.676 468.824H785.847V467.091H787.466V478.312C787.466 479.25 787.253 480.012 786.827 480.599C786.405 481.191 785.837 481.625 785.122 481.899C784.412 482.179 783.621 482.318 782.75 482.318ZM782.693 476.324C783.366 476.324 783.934 476.17 784.398 475.862C784.862 475.554 785.214 475.112 785.456 474.534C785.697 473.956 785.818 473.265 785.818 472.46C785.818 471.674 785.7 470.981 785.463 470.379C785.226 469.778 784.876 469.307 784.412 468.966C783.948 468.625 783.375 468.455 782.693 468.455C781.983 468.455 781.391 468.634 780.918 468.994C780.449 469.354 780.096 469.837 779.859 470.443C779.627 471.049 779.511 471.722 779.511 472.46C779.511 473.218 779.63 473.888 779.866 474.47C780.108 475.048 780.463 475.502 780.932 475.834C781.405 476.161 781.992 476.324 782.693 476.324Z" fill="black"/>
<path d="M556.001 548.091V549.511H550.348V548.091H556.001ZM551.995 545.477H553.672V555.875C553.672 556.348 553.74 556.704 553.877 556.94C554.02 557.172 554.199 557.329 554.417 557.409C554.64 557.485 554.874 557.523 555.12 557.523C555.305 557.523 555.457 557.513 555.575 557.494C555.693 557.471 555.788 557.452 555.859 557.438L556.2 558.943C556.086 558.986 555.928 559.028 555.724 559.071C555.52 559.118 555.262 559.142 554.95 559.142C554.476 559.142 554.012 559.04 553.558 558.837C553.108 558.633 552.734 558.323 552.436 557.906C552.142 557.49 551.995 556.964 551.995 556.33V545.477ZM560.433 552.438V559H558.757V544.455H560.433V549.795H560.575C560.831 549.232 561.214 548.785 561.725 548.453C562.242 548.117 562.928 547.949 563.785 547.949C564.529 547.949 565.18 548.098 565.738 548.396C566.297 548.69 566.73 549.142 567.038 549.753C567.35 550.359 567.507 551.131 567.507 552.068V559H565.831V552.182C565.831 551.315 565.606 550.645 565.156 550.172C564.711 549.694 564.093 549.455 563.302 549.455C562.753 549.455 562.261 549.571 561.825 549.803C561.394 550.035 561.053 550.373 560.802 550.818C560.556 551.263 560.433 551.803 560.433 552.438ZM575.147 559.227C574.096 559.227 573.189 558.995 572.427 558.531C571.669 558.062 571.085 557.409 570.673 556.571C570.265 555.728 570.062 554.748 570.062 553.631C570.062 552.513 570.265 551.528 570.673 550.676C571.085 549.819 571.657 549.152 572.391 548.673C573.13 548.19 573.992 547.949 574.977 547.949C575.545 547.949 576.106 548.044 576.66 548.233C577.214 548.422 577.718 548.73 578.173 549.156C578.627 549.578 578.989 550.136 579.259 550.832C579.529 551.528 579.664 552.385 579.664 553.403V554.114H571.255V552.665H577.96C577.96 552.049 577.836 551.5 577.59 551.017C577.349 550.534 577.003 550.153 576.553 549.874C576.108 549.594 575.583 549.455 574.977 549.455C574.309 549.455 573.731 549.62 573.244 549.952C572.761 550.278 572.389 550.705 572.129 551.23C571.868 551.756 571.738 552.319 571.738 552.92V553.886C571.738 554.71 571.88 555.409 572.164 555.982C572.453 556.55 572.853 556.983 573.364 557.281C573.876 557.575 574.47 557.722 575.147 557.722C575.587 557.722 575.985 557.66 576.34 557.537C576.7 557.409 577.01 557.22 577.271 556.969C577.531 556.713 577.732 556.396 577.874 556.017L579.494 556.472C579.323 557.021 579.037 557.504 578.634 557.92C578.232 558.332 577.735 558.654 577.143 558.886C576.551 559.114 575.886 559.227 575.147 559.227ZM587.839 559V548.091H589.458V549.739H589.572C589.771 549.199 590.13 548.761 590.651 548.425C591.172 548.089 591.759 547.92 592.413 547.92C592.536 547.92 592.69 547.923 592.874 547.928C593.059 547.932 593.199 547.939 593.293 547.949V549.653C593.237 549.639 593.106 549.618 592.903 549.589C592.704 549.556 592.493 549.54 592.271 549.54C591.74 549.54 591.267 549.651 590.85 549.874C590.438 550.091 590.112 550.394 589.87 550.783C589.633 551.166 589.515 551.604 589.515 552.097V559H587.839ZM598.49 559.256C597.799 559.256 597.172 559.125 596.608 558.865C596.045 558.6 595.597 558.219 595.266 557.722C594.935 557.22 594.769 556.614 594.769 555.903C594.769 555.278 594.892 554.772 595.138 554.384C595.384 553.991 595.713 553.683 596.125 553.46C596.537 553.238 596.992 553.072 597.489 552.963C597.991 552.849 598.495 552.759 599.002 552.693C599.665 552.608 600.202 552.544 600.614 552.501C601.031 552.454 601.334 552.376 601.523 552.267C601.717 552.158 601.814 551.969 601.814 551.699V551.642C601.814 550.941 601.623 550.397 601.239 550.009C600.86 549.62 600.285 549.426 599.513 549.426C598.713 549.426 598.086 549.601 597.631 549.952C597.176 550.302 596.857 550.676 596.672 551.074L595.081 550.506C595.365 549.843 595.744 549.327 596.218 548.957C596.696 548.583 597.217 548.323 597.78 548.176C598.348 548.025 598.907 547.949 599.456 547.949C599.807 547.949 600.209 547.991 600.664 548.077C601.123 548.157 601.566 548.325 601.992 548.581C602.423 548.837 602.78 549.223 603.064 549.739C603.348 550.255 603.49 550.946 603.49 551.812V559H601.814V557.523H601.729C601.615 557.759 601.426 558.013 601.161 558.283C600.896 558.553 600.543 558.782 600.103 558.972C599.662 559.161 599.125 559.256 598.49 559.256ZM598.746 557.75C599.409 557.75 599.968 557.62 600.422 557.359C600.882 557.099 601.227 556.763 601.459 556.351C601.696 555.939 601.814 555.506 601.814 555.051V553.517C601.743 553.602 601.587 553.68 601.346 553.751C601.109 553.818 600.834 553.877 600.522 553.929C600.214 553.976 599.913 554.019 599.62 554.057C599.331 554.09 599.096 554.118 598.917 554.142C598.481 554.199 598.074 554.291 597.695 554.419C597.321 554.542 597.018 554.729 596.786 554.98C596.559 555.226 596.445 555.562 596.445 555.989C596.445 556.571 596.66 557.011 597.091 557.31C597.527 557.603 598.078 557.75 598.746 557.75ZM611.294 548.091V549.511H605.641V548.091H611.294ZM607.288 545.477H608.964V555.875C608.964 556.348 609.033 556.704 609.17 556.94C609.313 557.172 609.492 557.329 609.71 557.409C609.933 557.485 610.167 557.523 610.413 557.523C610.598 557.523 610.75 557.513 610.868 557.494C610.986 557.471 611.081 557.452 611.152 557.438L611.493 558.943C611.379 558.986 611.221 559.028 611.017 559.071C610.813 559.118 610.555 559.142 610.243 559.142C609.769 559.142 609.305 559.04 608.851 558.837C608.401 558.633 608.027 558.323 607.729 557.906C607.435 557.49 607.288 556.964 607.288 556.33V545.477ZM619.44 559V548.091H621.06V549.739H621.173C621.372 549.199 621.732 548.761 622.253 548.425C622.774 548.089 623.361 547.92 624.014 547.92C624.137 547.92 624.291 547.923 624.476 547.928C624.661 547.932 624.8 547.939 624.895 547.949V549.653C624.838 549.639 624.708 549.618 624.504 549.589C624.305 549.556 624.095 549.54 623.872 549.54C623.342 549.54 622.868 549.651 622.452 549.874C622.04 550.091 621.713 550.394 621.472 550.783C621.235 551.166 621.116 551.604 621.116 552.097V559H619.44ZM633.757 554.54V548.091H635.433V559H633.757V557.153H633.643C633.387 557.707 632.99 558.179 632.45 558.567C631.91 558.95 631.228 559.142 630.404 559.142C629.723 559.142 629.117 558.993 628.586 558.695C628.056 558.392 627.639 557.937 627.336 557.331C627.033 556.72 626.882 555.951 626.882 555.023V548.091H628.558V554.909C628.558 555.705 628.78 556.339 629.225 556.812C629.675 557.286 630.248 557.523 630.944 557.523C631.361 557.523 631.785 557.416 632.216 557.203C632.651 556.99 633.016 556.663 633.309 556.223C633.608 555.783 633.757 555.222 633.757 554.54ZM640.179 552.438V559H638.503V548.091H640.122V549.795H640.264C640.52 549.241 640.908 548.796 641.429 548.46C641.95 548.119 642.622 547.949 643.446 547.949C644.185 547.949 644.831 548.1 645.385 548.403C645.939 548.702 646.37 549.156 646.678 549.767C646.985 550.373 647.139 551.14 647.139 552.068V559H645.463V552.182C645.463 551.325 645.241 550.657 644.795 550.179C644.35 549.696 643.74 549.455 642.963 549.455C642.428 549.455 641.95 549.571 641.528 549.803C641.112 550.035 640.783 550.373 640.541 550.818C640.3 551.263 640.179 551.803 640.179 552.438ZM651.878 552.438V559H650.202V548.091H651.821V549.795H651.963C652.219 549.241 652.607 548.796 653.128 548.46C653.649 548.119 654.321 547.949 655.145 547.949C655.884 547.949 656.53 548.1 657.084 548.403C657.638 548.702 658.069 549.156 658.377 549.767C658.685 550.373 658.838 551.14 658.838 552.068V559H657.162V552.182C657.162 551.325 656.94 550.657 656.495 550.179C656.05 549.696 655.439 549.455 654.662 549.455C654.127 549.455 653.649 549.571 653.228 549.803C652.811 550.035 652.482 550.373 652.24 550.818C651.999 551.263 651.878 551.803 651.878 552.438ZM661.901 559V548.091H663.577V559H661.901ZM662.754 546.273C662.427 546.273 662.145 546.161 661.908 545.939C661.676 545.716 661.56 545.449 661.56 545.136C661.56 544.824 661.676 544.556 661.908 544.334C662.145 544.111 662.427 544 662.754 544C663.08 544 663.36 544.111 663.592 544.334C663.828 544.556 663.947 544.824 663.947 545.136C663.947 545.449 663.828 545.716 663.592 545.939C663.36 546.161 663.08 546.273 662.754 546.273ZM668.324 552.438V559H666.647V548.091H668.267V549.795H668.409C668.664 549.241 669.053 548.796 669.574 548.46C670.094 548.119 670.767 547.949 671.591 547.949C672.329 547.949 672.975 548.1 673.529 548.403C674.083 548.702 674.514 549.156 674.822 549.767C675.13 550.373 675.284 551.14 675.284 552.068V559H673.608V552.182C673.608 551.325 673.385 550.657 672.94 550.179C672.495 549.696 671.884 549.455 671.108 549.455C670.573 549.455 670.094 549.571 669.673 549.803C669.256 550.035 668.927 550.373 668.686 550.818C668.444 551.263 668.324 551.803 668.324 552.438ZM682.75 563.318C681.94 563.318 681.244 563.214 680.662 563.006C680.08 562.802 679.594 562.532 679.206 562.196C678.822 561.865 678.517 561.509 678.29 561.131L679.625 560.193C679.777 560.392 679.968 560.619 680.2 560.875C680.432 561.135 680.75 561.36 681.152 561.55C681.559 561.744 682.092 561.841 682.75 561.841C683.631 561.841 684.357 561.628 684.93 561.202C685.503 560.776 685.79 560.108 685.79 559.199V556.983H685.648C685.525 557.182 685.349 557.428 685.122 557.722C684.9 558.01 684.578 558.268 684.156 558.496C683.74 558.718 683.176 558.83 682.466 558.83C681.585 558.83 680.795 558.621 680.094 558.205C679.398 557.788 678.846 557.182 678.439 556.386C678.036 555.591 677.835 554.625 677.835 553.489C677.835 552.371 678.032 551.398 678.425 550.57C678.818 549.736 679.365 549.092 680.065 548.638C680.766 548.179 681.576 547.949 682.494 547.949C683.205 547.949 683.768 548.067 684.185 548.304C684.606 548.536 684.928 548.801 685.151 549.099C685.378 549.393 685.553 549.634 685.676 549.824H685.847V548.091H687.466V559.312C687.466 560.25 687.253 561.012 686.827 561.599C686.405 562.191 685.837 562.625 685.122 562.899C684.412 563.179 683.621 563.318 682.75 563.318ZM682.693 557.324C683.366 557.324 683.934 557.17 684.398 556.862C684.862 556.554 685.214 556.112 685.456 555.534C685.697 554.956 685.818 554.265 685.818 553.46C685.818 552.674 685.7 551.981 685.463 551.379C685.226 550.778 684.876 550.307 684.412 549.966C683.948 549.625 683.375 549.455 682.693 549.455C681.983 549.455 681.391 549.634 680.918 549.994C680.449 550.354 680.096 550.837 679.859 551.443C679.627 552.049 679.511 552.722 679.511 553.46C679.511 554.218 679.63 554.888 679.866 555.47C680.108 556.048 680.463 556.502 680.932 556.834C681.405 557.161 681.992 557.324 682.693 557.324Z" fill="black"/>
<path d="M267.293 703.03C259.436 701.458 249.897 690.275 244.119 685.251C226.601 670.018 235.046 644.005 245.346 627.011C259.543 603.585 306.518 575.983 323.694 610.336C336.336 635.619 362.847 676.84 327.618 697.39C309.245 708.107 292.597 711.858 271.707 711.858" stroke="black" stroke-opacity="0.5" stroke-width="3" stroke-linecap="round"/>
<path d="M294.37 642.036C293.262 642.036 287.216 642.992 286.973 642.775C283.458 639.651 290.704 621.369 291.305 617.522C292.364 610.745 285.676 616.097 282.747 618.05C282.705 618.078 285.359 612.404 285.811 611.552C287.922 607.564 289.133 602.314 291.992 598.819C294.192 596.131 297.759 600.147 299.547 601.566C307.224 607.658 314.846 613.562 323.005 619.001C324.351 619.899 330.673 626.974 325.541 625.341C321.117 623.933 297.466 616.901 295.796 620.797C293.08 627.134 291.517 634.229 291.517 641.085" stroke="black" stroke-opacity="0.5" stroke-width="3" stroke-linecap="round"/>
<path d="M300.076 646.79C295.045 646.333 290.155 646.035 285.072 645.839C281.365 645.697 289.099 621.009 289.616 619.001C293.664 603.276 295.777 587.276 300.288 571.663C301.185 568.559 305.736 554.901 303.669 551.904C301.358 548.554 286.919 548.79 282.959 547.889C278.514 546.877 274.387 546.155 269.857 545.987C267.96 545.917 271.6 542.942 271.97 542.5C277.996 535.29 283.096 527.229 288.031 519.254C290.281 515.618 293.333 507.429 297.224 505.095C299.395 503.792 306.882 516.325 307.896 517.669C314.802 526.831 323.474 533.938 329.345 543.873C331.705 547.866 332.974 547.731 328.394 547.889C324.93 548.008 320.382 548.492 317.194 550.002C313.86 551.581 314.013 557.457 313.179 560.674C308.944 577.01 301.585 592.715 300.288 609.702C299.567 619.142 296.273 628.983 296.273 638.231C296.273 644.246 292.555 641.992 288.665 643.937" stroke="black" stroke-opacity="0.5" stroke-width="3" stroke-linecap="round"/>
</svg>
