<svg width="1024" height="1024" viewBox="0 0 1024 1024" fill="none" xmlns="http://www.w3.org/2000/svg">
<g clip-path="url(#clip0_33_28)">
<path d="M130.534 23.0909V8.09091H132.153V9.82386H132.352C132.475 9.63447 132.646 9.39299 132.864 9.09943C133.086 8.80114 133.403 8.53598 133.815 8.30398C134.232 8.06723 134.795 7.94886 135.506 7.94886C136.424 7.94886 137.234 8.1785 137.935 8.63778C138.635 9.09706 139.182 9.74811 139.575 10.5909C139.968 11.4337 140.165 12.428 140.165 13.5739C140.165 14.7292 139.968 15.7306 139.575 16.5781C139.182 17.4209 138.638 18.0743 137.942 18.5384C137.246 18.9976 136.443 19.2273 135.534 19.2273C134.833 19.2273 134.272 19.1113 133.851 18.8793C133.429 18.6425 133.105 18.375 132.878 18.0767C132.651 17.7737 132.475 17.5227 132.352 17.3239H132.21V23.0909H130.534ZM132.182 13.5455C132.182 14.3693 132.303 15.0961 132.544 15.7259C132.786 16.3509 133.138 16.8409 133.602 17.196C134.066 17.5464 134.634 17.7216 135.307 17.7216C136.008 17.7216 136.592 17.5369 137.061 17.1676C137.535 16.7936 137.89 16.2917 138.126 15.6619C138.368 15.0275 138.489 14.322 138.489 13.5455C138.489 12.7784 138.37 12.0871 138.134 11.4716C137.902 10.8513 137.549 10.3613 137.075 10.0014C136.607 9.63684 136.017 9.45455 135.307 9.45455C134.625 9.45455 134.052 9.62737 133.588 9.97301C133.124 10.3139 132.774 10.7921 132.537 11.4077C132.3 12.0185 132.182 12.7311 132.182 13.5455ZM144.398 4.45455V19H142.722V4.45455H144.398ZM152.042 19.2273C150.99 19.2273 150.084 18.9953 149.321 18.5312C148.564 18.0625 147.979 17.4091 147.567 16.571C147.16 15.7282 146.956 14.7481 146.956 13.6307C146.956 12.5133 147.16 11.5284 147.567 10.6761C147.979 9.81913 148.552 9.15152 149.286 8.6733C150.025 8.19034 150.886 7.94886 151.871 7.94886C152.439 7.94886 153 8.04356 153.554 8.23295C154.108 8.42235 154.613 8.73011 155.067 9.15625C155.522 9.57765 155.884 10.1364 156.154 10.8324C156.424 11.5284 156.559 12.3854 156.559 13.4034V14.1136H148.15V12.6648H154.854C154.854 12.0492 154.731 11.5 154.485 11.017C154.243 10.5341 153.898 10.1529 153.448 9.87358C153.003 9.59422 152.477 9.45455 151.871 9.45455C151.203 9.45455 150.626 9.62026 150.138 9.9517C149.655 10.2784 149.283 10.7045 149.023 11.2301C148.763 11.7557 148.632 12.3191 148.632 12.9205V13.8864C148.632 14.7102 148.775 15.4086 149.059 15.9815C149.347 16.5497 149.748 16.983 150.259 17.2812C150.77 17.5748 151.364 17.7216 152.042 17.7216C152.482 17.7216 152.88 17.66 153.235 17.5369C153.595 17.4091 153.905 17.2197 154.165 16.9688C154.426 16.7131 154.627 16.3958 154.769 16.017L156.388 16.4716C156.218 17.0208 155.931 17.5038 155.529 17.9205C155.126 18.3324 154.629 18.6544 154.037 18.8864C153.445 19.1136 152.78 19.2273 152.042 19.2273ZM162.319 19.2557C161.627 19.2557 161 19.1255 160.436 18.8651C159.873 18.5999 159.426 18.2188 159.094 17.7216C158.763 17.2197 158.597 16.6136 158.597 15.9034C158.597 15.2784 158.72 14.7718 158.966 14.3835C159.212 13.9905 159.542 13.6828 159.953 13.4602C160.365 13.2377 160.82 13.072 161.317 12.9631C161.819 12.8494 162.323 12.7595 162.83 12.6932C163.493 12.608 164.03 12.544 164.442 12.5014C164.859 12.4541 165.162 12.3759 165.351 12.267C165.545 12.1581 165.642 11.9687 165.642 11.6989V11.642C165.642 10.9413 165.451 10.3968 165.067 10.0085C164.688 9.62027 164.113 9.42614 163.341 9.42614C162.541 9.42614 161.914 9.60133 161.459 9.9517C161.005 10.3021 160.685 10.6761 160.5 11.0739L158.909 10.5057C159.194 9.8428 159.572 9.3267 160.046 8.95739C160.524 8.58333 161.045 8.32292 161.608 8.17614C162.176 8.02462 162.735 7.94886 163.284 7.94886C163.635 7.94886 164.037 7.99148 164.492 8.0767C164.951 8.1572 165.394 8.32528 165.82 8.58097C166.251 8.83665 166.608 9.22254 166.892 9.73864C167.176 10.2547 167.319 10.946 167.319 11.8125V19H165.642V17.5227H165.557C165.444 17.7595 165.254 18.0128 164.989 18.2827C164.724 18.5526 164.371 18.7822 163.931 18.9716C163.49 19.161 162.953 19.2557 162.319 19.2557ZM162.574 17.75C163.237 17.75 163.796 17.6198 164.25 17.3594C164.71 17.099 165.055 16.7628 165.287 16.3509C165.524 15.9389 165.642 15.5057 165.642 15.0511V13.517C165.571 13.6023 165.415 13.6804 165.174 13.7514C164.937 13.8177 164.662 13.8769 164.35 13.929C164.042 13.9763 163.741 14.0189 163.448 14.0568C163.159 14.09 162.925 14.1184 162.745 14.142C162.309 14.1989 161.902 14.2912 161.523 14.419C161.149 14.5421 160.846 14.7292 160.614 14.9801C160.387 15.2263 160.273 15.5625 160.273 15.9886C160.273 16.571 160.489 17.0114 160.919 17.3097C161.355 17.6032 161.907 17.75 162.574 17.75ZM178.105 10.5341L176.599 10.9602C176.505 10.7093 176.365 10.4654 176.18 10.2287C176 9.98722 175.754 9.78835 175.442 9.6321C175.129 9.47585 174.729 9.39773 174.241 9.39773C173.574 9.39773 173.018 9.55161 172.572 9.85938C172.132 10.1624 171.912 10.5483 171.912 11.017C171.912 11.4337 172.063 11.7628 172.366 12.0043C172.67 12.2457 173.143 12.447 173.787 12.608L175.406 13.0057C176.382 13.2424 177.108 13.6046 177.587 14.0923C178.065 14.5753 178.304 15.1979 178.304 15.9602C178.304 16.5852 178.124 17.1439 177.764 17.6364C177.409 18.1288 176.912 18.517 176.273 18.8011C175.634 19.0852 174.89 19.2273 174.043 19.2273C172.93 19.2273 172.009 18.9858 171.28 18.5028C170.551 18.0199 170.089 17.3144 169.895 16.3864L171.486 15.9886C171.637 16.5758 171.924 17.0161 172.345 17.3097C172.771 17.6032 173.328 17.75 174.014 17.75C174.795 17.75 175.416 17.5843 175.875 17.2528C176.339 16.9167 176.571 16.5142 176.571 16.0455C176.571 15.6667 176.438 15.3494 176.173 15.0938C175.908 14.8333 175.501 14.6392 174.952 14.5114L173.134 14.0852C172.134 13.8485 171.401 13.4815 170.932 12.9844C170.468 12.4825 170.236 11.8551 170.236 11.1023C170.236 10.4867 170.409 9.94223 170.754 9.46875C171.105 8.99527 171.58 8.62358 172.182 8.35369C172.788 8.08381 173.474 7.94886 174.241 7.94886C175.321 7.94886 176.169 8.18561 176.784 8.65909C177.404 9.13258 177.845 9.75758 178.105 10.5341ZM185.401 19.2273C184.35 19.2273 183.443 18.9953 182.681 18.5312C181.923 18.0625 181.338 17.4091 180.926 16.571C180.519 15.7282 180.316 14.7481 180.316 13.6307C180.316 12.5133 180.519 11.5284 180.926 10.6761C181.338 9.81913 181.911 9.15152 182.645 8.6733C183.384 8.19034 184.246 7.94886 185.23 7.94886C185.799 7.94886 186.36 8.04356 186.914 8.23295C187.468 8.42235 187.972 8.73011 188.426 9.15625C188.881 9.57765 189.243 10.1364 189.513 10.8324C189.783 11.5284 189.918 12.3854 189.918 13.4034V14.1136H181.509V12.6648H188.213C188.213 12.0492 188.09 11.5 187.844 11.017C187.603 10.5341 187.257 10.1529 186.807 9.87358C186.362 9.59422 185.837 9.45455 185.23 9.45455C184.563 9.45455 183.985 9.62026 183.498 9.9517C183.015 10.2784 182.643 10.7045 182.382 11.2301C182.122 11.7557 181.992 12.3191 181.992 12.9205V13.8864C181.992 14.7102 182.134 15.4086 182.418 15.9815C182.707 16.5497 183.107 16.983 183.618 17.2812C184.13 17.5748 184.724 17.7216 185.401 17.7216C185.841 17.7216 186.239 17.66 186.594 17.5369C186.954 17.4091 187.264 17.2197 187.525 16.9688C187.785 16.7131 187.986 16.3958 188.128 16.017L189.748 16.4716C189.577 17.0208 189.291 17.5038 188.888 17.9205C188.486 18.3324 187.989 18.6544 187.397 18.8864C186.805 19.1136 186.14 19.2273 185.401 19.2273ZM200.564 19L197.24 8.09091H199.002L201.36 16.4432H201.473L203.803 8.09091H205.593L207.894 16.4148H208.007L210.365 8.09091H212.127L208.803 19H207.155L204.769 10.6193H204.598L202.212 19H200.564ZM214.343 19V8.09091H215.962V9.73864H216.076C216.275 9.19886 216.634 8.76089 217.155 8.42472C217.676 8.08854 218.263 7.92045 218.917 7.92045C219.04 7.92045 219.194 7.92282 219.378 7.92756C219.563 7.93229 219.703 7.93939 219.797 7.94886V9.65341C219.74 9.6392 219.61 9.6179 219.407 9.58949C219.208 9.55634 218.997 9.53977 218.775 9.53977C218.244 9.53977 217.771 9.65104 217.354 9.87358C216.942 10.0914 216.615 10.3944 216.374 10.7827C216.137 11.1662 216.019 11.6042 216.019 12.0966V19H214.343ZM221.784 19V8.09091H223.46V19H221.784ZM222.636 6.27273C222.31 6.27273 222.028 6.16146 221.791 5.93892C221.559 5.71638 221.443 5.44886 221.443 5.13636C221.443 4.82386 221.559 4.55634 221.791 4.33381C222.028 4.11127 222.31 4 222.636 4C222.963 4 223.242 4.11127 223.474 4.33381C223.711 4.55634 223.83 4.82386 223.83 5.13636C223.83 5.44886 223.711 5.71638 223.474 5.93892C223.242 6.16146 222.963 6.27273 222.636 6.27273ZM231.275 8.09091V9.51136H225.621V8.09091H231.275ZM227.269 5.47727H228.945V15.875C228.945 16.3485 229.014 16.7036 229.151 16.9403C229.293 17.1723 229.473 17.3286 229.691 17.4091C229.913 17.4848 230.148 17.5227 230.394 17.5227C230.578 17.5227 230.73 17.5133 230.848 17.4943C230.967 17.4706 231.061 17.4517 231.132 17.4375L231.473 18.9432C231.36 18.9858 231.201 19.0284 230.998 19.071C230.794 19.1184 230.536 19.142 230.223 19.142C229.75 19.142 229.286 19.0402 228.831 18.8366C228.382 18.633 228.007 18.3229 227.709 17.9062C227.416 17.4896 227.269 16.964 227.269 16.3295V5.47727ZM238.252 19.2273C237.201 19.2273 236.295 18.9953 235.532 18.5312C234.775 18.0625 234.19 17.4091 233.778 16.571C233.371 15.7282 233.167 14.7481 233.167 13.6307C233.167 12.5133 233.371 11.5284 233.778 10.6761C234.19 9.81913 234.763 9.15152 235.497 8.6733C236.235 8.19034 237.097 7.94886 238.082 7.94886C238.65 7.94886 239.211 8.04356 239.765 8.23295C240.319 8.42235 240.824 8.73011 241.278 9.15625C241.733 9.57765 242.095 10.1364 242.365 10.8324C242.635 11.5284 242.77 12.3854 242.77 13.4034V14.1136H234.36V12.6648H241.065C241.065 12.0492 240.942 11.5 240.696 11.017C240.454 10.5341 240.109 10.1529 239.659 9.87358C239.214 9.59422 238.688 9.45455 238.082 9.45455C237.414 9.45455 236.837 9.62026 236.349 9.9517C235.866 10.2784 235.494 10.7045 235.234 11.2301C234.974 11.7557 234.843 12.3191 234.843 12.9205V13.8864C234.843 14.7102 234.985 15.4086 235.27 15.9815C235.558 16.5497 235.958 16.983 236.47 17.2812C236.981 17.5748 237.575 17.7216 238.252 17.7216C238.693 17.7216 239.091 17.66 239.446 17.5369C239.806 17.4091 240.116 17.2197 240.376 16.9688C240.636 16.7131 240.838 16.3958 240.98 16.017L242.599 16.4716C242.429 17.0208 242.142 17.5038 241.74 17.9205C241.337 18.3324 240.84 18.6544 240.248 18.8864C239.656 19.1136 238.991 19.2273 238.252 19.2273ZM254.154 19.2557C253.463 19.2557 252.836 19.1255 252.272 18.8651C251.709 18.5999 251.261 18.2188 250.93 17.7216C250.599 17.2197 250.433 16.6136 250.433 15.9034C250.433 15.2784 250.556 14.7718 250.802 14.3835C251.048 13.9905 251.377 13.6828 251.789 13.4602C252.201 13.2377 252.656 13.072 253.153 12.9631C253.655 12.8494 254.159 12.7595 254.666 12.6932C255.329 12.608 255.866 12.544 256.278 12.5014C256.695 12.4541 256.998 12.3759 257.187 12.267C257.381 12.1581 257.478 11.9687 257.478 11.6989V11.642C257.478 10.9413 257.287 10.3968 256.903 10.0085C256.524 9.62027 255.949 9.42614 255.177 9.42614C254.377 9.42614 253.75 9.60133 253.295 9.9517C252.841 10.3021 252.521 10.6761 252.336 11.0739L250.745 10.5057C251.029 9.8428 251.408 9.3267 251.882 8.95739C252.36 8.58333 252.881 8.32292 253.444 8.17614C254.012 8.02462 254.571 7.94886 255.12 7.94886C255.471 7.94886 255.873 7.99148 256.328 8.0767C256.787 8.1572 257.23 8.32528 257.656 8.58097C258.087 8.83665 258.444 9.22254 258.728 9.73864C259.012 10.2547 259.154 10.946 259.154 11.8125V19H257.478V17.5227H257.393C257.279 17.7595 257.09 18.0128 256.825 18.2827C256.56 18.5526 256.207 18.7822 255.767 18.9716C255.326 19.161 254.789 19.2557 254.154 19.2557ZM254.41 17.75C255.073 17.75 255.632 17.6198 256.086 17.3594C256.546 17.099 256.891 16.7628 257.123 16.3509C257.36 15.9389 257.478 15.5057 257.478 15.0511V13.517C257.407 13.6023 257.251 13.6804 257.01 13.7514C256.773 13.8177 256.498 13.8769 256.186 13.929C255.878 13.9763 255.577 14.0189 255.284 14.0568C254.995 14.09 254.761 14.1184 254.581 14.142C254.145 14.1989 253.738 14.2912 253.359 14.419C252.985 14.5421 252.682 14.7292 252.45 14.9801C252.223 15.2263 252.109 15.5625 252.109 15.9886C252.109 16.571 252.324 17.0114 252.755 17.3097C253.191 17.6032 253.743 17.75 254.41 17.75ZM269.941 10.5341L268.435 10.9602C268.341 10.7093 268.201 10.4654 268.016 10.2287C267.836 9.98722 267.59 9.78835 267.278 9.6321C266.965 9.47585 266.565 9.39773 266.077 9.39773C265.41 9.39773 264.853 9.55161 264.408 9.85938C263.968 10.1624 263.748 10.5483 263.748 11.017C263.748 11.4337 263.899 11.7628 264.202 12.0043C264.505 12.2457 264.979 12.447 265.623 12.608L267.242 13.0057C268.218 13.2424 268.944 13.6046 269.423 14.0923C269.901 14.5753 270.14 15.1979 270.14 15.9602C270.14 16.5852 269.96 17.1439 269.6 17.6364C269.245 18.1288 268.748 18.517 268.109 18.8011C267.469 19.0852 266.726 19.2273 265.879 19.2273C264.766 19.2273 263.845 18.9858 263.116 18.5028C262.387 18.0199 261.925 17.3144 261.731 16.3864L263.322 15.9886C263.473 16.5758 263.76 17.0161 264.181 17.3097C264.607 17.6032 265.164 17.75 265.85 17.75C266.631 17.75 267.252 17.5843 267.711 17.2528C268.175 16.9167 268.407 16.5142 268.407 16.0455C268.407 15.6667 268.274 15.3494 268.009 15.0938C267.744 14.8333 267.337 14.6392 266.788 14.5114L264.969 14.0852C263.97 13.8485 263.237 13.4815 262.768 12.9844C262.304 12.4825 262.072 11.8551 262.072 11.1023C262.072 10.4867 262.245 9.94223 262.59 9.46875C262.941 8.99527 263.416 8.62358 264.018 8.35369C264.624 8.08381 265.31 7.94886 266.077 7.94886C267.157 7.94886 268.004 8.18561 268.62 8.65909C269.24 9.13258 269.681 9.75758 269.941 10.5341ZM278.288 19V8.09091H279.907V9.79545H280.049C280.277 9.21307 280.644 8.76089 281.15 8.43892C281.657 8.11222 282.265 7.94886 282.975 7.94886C283.695 7.94886 284.294 8.11222 284.772 8.43892C285.255 8.76089 285.632 9.21307 285.902 9.79545H286.015C286.295 9.23201 286.714 8.78456 287.272 8.45312C287.831 8.11695 288.501 7.94886 289.282 7.94886C290.258 7.94886 291.056 8.25426 291.676 8.86506C292.296 9.47112 292.606 10.4157 292.606 11.6989V19H290.93V11.6989C290.93 10.8939 290.71 10.3187 290.27 9.97301C289.829 9.62737 289.311 9.45455 288.714 9.45455C287.947 9.45455 287.353 9.68655 286.931 10.1506C286.51 10.6098 286.299 11.1922 286.299 11.8977V19H284.595V11.5284C284.595 10.9081 284.394 10.4086 283.991 10.0298C283.589 9.64631 283.07 9.45455 282.436 9.45455C282 9.45455 281.593 9.57055 281.214 9.80256C280.84 10.0346 280.537 10.3565 280.305 10.7685C280.078 11.1757 279.964 11.6468 279.964 12.1818V19H278.288ZM298.881 19.2557C298.19 19.2557 297.562 19.1255 296.999 18.8651C296.435 18.5999 295.988 18.2188 295.657 17.7216C295.325 17.2197 295.159 16.6136 295.159 15.9034C295.159 15.2784 295.283 14.7718 295.529 14.3835C295.775 13.9905 296.104 13.6828 296.516 13.4602C296.928 13.2377 297.382 13.072 297.88 12.9631C298.382 12.8494 298.886 12.7595 299.392 12.6932C300.055 12.608 300.593 12.544 301.005 12.5014C301.421 12.4541 301.724 12.3759 301.914 12.267C302.108 12.1581 302.205 11.9687 302.205 11.6989V11.642C302.205 10.9413 302.013 10.3968 301.63 10.0085C301.251 9.62027 300.676 9.42614 299.904 9.42614C299.104 9.42614 298.476 9.60133 298.022 9.9517C297.567 10.3021 297.248 10.6761 297.063 11.0739L295.472 10.5057C295.756 9.8428 296.135 9.3267 296.608 8.95739C297.087 8.58333 297.607 8.32292 298.171 8.17614C298.739 8.02462 299.298 7.94886 299.847 7.94886C300.197 7.94886 300.6 7.99148 301.054 8.0767C301.514 8.1572 301.956 8.32528 302.382 8.58097C302.813 8.83665 303.171 9.22254 303.455 9.73864C303.739 10.2547 303.881 10.946 303.881 11.8125V19H302.205V17.5227H302.12C302.006 17.7595 301.817 18.0128 301.551 18.2827C301.286 18.5526 300.934 18.7822 300.493 18.9716C300.053 19.161 299.516 19.2557 298.881 19.2557ZM299.137 17.75C299.8 17.75 300.358 17.6198 300.813 17.3594C301.272 17.099 301.618 16.7628 301.85 16.3509C302.087 15.9389 302.205 15.5057 302.205 15.0511V13.517C302.134 13.6023 301.978 13.6804 301.736 13.7514C301.499 13.8177 301.225 13.8769 300.912 13.929C300.605 13.9763 300.304 14.0189 300.01 14.0568C299.721 14.09 299.487 14.1184 299.307 14.142C298.872 14.1989 298.464 14.2912 298.086 14.419C297.712 14.5421 297.408 14.7292 297.176 14.9801C296.949 15.2263 296.836 15.5625 296.836 15.9886C296.836 16.571 297.051 17.0114 297.482 17.3097C297.917 17.6032 298.469 17.75 299.137 17.75ZM308.616 12.4375V19H306.94V8.09091H308.56V9.79545H308.702C308.957 9.24148 309.346 8.7964 309.866 8.46023C310.387 8.11932 311.06 7.94886 311.884 7.94886C312.622 7.94886 313.268 8.10038 313.822 8.40341C314.376 8.7017 314.807 9.15625 315.115 9.76705C315.423 10.3731 315.577 11.1402 315.577 12.0682V19H313.901V12.1818C313.901 11.3248 313.678 10.6572 313.233 10.179C312.788 9.69602 312.177 9.45455 311.401 9.45455C310.866 9.45455 310.387 9.57055 309.966 9.80256C309.549 10.0346 309.22 10.3731 308.979 10.8182C308.737 11.2633 308.616 11.803 308.616 12.4375ZM319.328 23.0909C319.044 23.0909 318.791 23.0672 318.569 23.0199C318.346 22.9773 318.192 22.9347 318.107 22.892L318.533 21.4148C318.94 21.5189 319.3 21.5568 319.613 21.5284C319.925 21.5 320.202 21.3603 320.444 21.1094C320.69 20.8632 320.915 20.4631 321.118 19.9091L321.431 19.0568L317.397 8.09091H319.215L322.226 16.7841H322.34L325.351 8.09091H327.169L322.539 20.5909C322.33 21.1544 322.072 21.6207 321.765 21.9901C321.457 22.3641 321.099 22.6411 320.692 22.821C320.29 23.0009 319.835 23.0909 319.328 23.0909ZM334.751 19V17.7216L342.592 6.01705H334.666V4.45455H344.694V5.73295L336.853 17.4375H344.779V19H334.751ZM347.251 19V17.7216L355.092 6.01705H347.166V4.45455H357.194V5.73295L349.353 17.4375H357.279V19H347.251ZM359.751 19V17.7216L367.592 6.01705H359.666V4.45455H369.694V5.73295L361.853 17.4375H369.779V19H359.751ZM380.234 10.5341L378.728 10.9602C378.634 10.7093 378.494 10.4654 378.309 10.2287C378.129 9.98722 377.883 9.78835 377.571 9.6321C377.258 9.47585 376.858 9.39773 376.37 9.39773C375.703 9.39773 375.146 9.55161 374.701 9.85938C374.261 10.1624 374.041 10.5483 374.041 11.017C374.041 11.4337 374.192 11.7628 374.495 12.0043C374.798 12.2457 375.272 12.447 375.916 12.608L377.535 13.0057C378.511 13.2424 379.237 13.6046 379.716 14.0923C380.194 14.5753 380.433 15.1979 380.433 15.9602C380.433 16.5852 380.253 17.1439 379.893 17.6364C379.538 18.1288 379.041 18.517 378.402 18.8011C377.762 19.0852 377.019 19.2273 376.172 19.2273C375.059 19.2273 374.138 18.9858 373.409 18.5028C372.68 18.0199 372.218 17.3144 372.024 16.3864L373.615 15.9886C373.766 16.5758 374.053 17.0161 374.474 17.3097C374.9 17.6032 375.457 17.75 376.143 17.75C376.924 17.75 377.545 17.5843 378.004 17.2528C378.468 16.9167 378.7 16.5142 378.7 16.0455C378.7 15.6667 378.567 15.3494 378.302 15.0938C378.037 14.8333 377.63 14.6392 377.081 14.5114L375.262 14.0852C374.263 13.8485 373.529 13.4815 373.061 12.9844C372.597 12.4825 372.365 11.8551 372.365 11.1023C372.365 10.4867 372.538 9.94223 372.883 9.46875C373.234 8.99527 373.709 8.62358 374.311 8.35369C374.917 8.08381 375.603 7.94886 376.37 7.94886C377.45 7.94886 378.297 8.18561 378.913 8.65909C379.533 9.13258 379.974 9.75758 380.234 10.5341ZM391.791 19.2557C391.1 19.2557 390.473 19.1255 389.909 18.8651C389.346 18.5999 388.898 18.2188 388.567 17.7216C388.235 17.2197 388.07 16.6136 388.07 15.9034C388.07 15.2784 388.193 14.7718 388.439 14.3835C388.685 13.9905 389.014 13.6828 389.426 13.4602C389.838 13.2377 390.293 13.072 390.79 12.9631C391.292 12.8494 391.796 12.7595 392.303 12.6932C392.965 12.608 393.503 12.544 393.915 12.5014C394.331 12.4541 394.634 12.3759 394.824 12.267C395.018 12.1581 395.115 11.9687 395.115 11.6989V11.642C395.115 10.9413 394.923 10.3968 394.54 10.0085C394.161 9.62027 393.586 9.42614 392.814 9.42614C392.014 9.42614 391.386 9.60133 390.932 9.9517C390.477 10.3021 390.158 10.6761 389.973 11.0739L388.382 10.5057C388.666 9.8428 389.045 9.3267 389.518 8.95739C389.997 8.58333 390.518 8.32292 391.081 8.17614C391.649 8.02462 392.208 7.94886 392.757 7.94886C393.107 7.94886 393.51 7.99148 393.964 8.0767C394.424 8.1572 394.866 8.32528 395.293 8.58097C395.723 8.83665 396.081 9.22254 396.365 9.73864C396.649 10.2547 396.791 10.946 396.791 11.8125V19H395.115V17.5227H395.03C394.916 17.7595 394.727 18.0128 394.462 18.2827C394.196 18.5526 393.844 18.7822 393.403 18.9716C392.963 19.161 392.426 19.2557 391.791 19.2557ZM392.047 17.75C392.71 17.75 393.268 17.6198 393.723 17.3594C394.182 17.099 394.528 16.7628 394.76 16.3509C394.997 15.9389 395.115 15.5057 395.115 15.0511V13.517C395.044 13.6023 394.888 13.6804 394.646 13.7514C394.41 13.8177 394.135 13.8769 393.822 13.929C393.515 13.9763 393.214 14.0189 392.92 14.0568C392.632 14.09 392.397 14.1184 392.217 14.142C391.782 14.1989 391.375 14.2912 390.996 14.419C390.622 14.5421 390.319 14.7292 390.087 14.9801C389.859 15.2263 389.746 15.5625 389.746 15.9886C389.746 16.571 389.961 17.0114 390.392 17.3097C390.828 17.6032 391.379 17.75 392.047 17.75ZM407.578 10.5341L406.072 10.9602C405.977 10.7093 405.838 10.4654 405.653 10.2287C405.473 9.98722 405.227 9.78835 404.914 9.6321C404.602 9.47585 404.202 9.39773 403.714 9.39773C403.047 9.39773 402.49 9.55161 402.045 9.85938C401.605 10.1624 401.385 10.5483 401.385 11.017C401.385 11.4337 401.536 11.7628 401.839 12.0043C402.142 12.2457 402.616 12.447 403.26 12.608L404.879 13.0057C405.854 13.2424 406.581 13.6046 407.059 14.0923C407.538 14.5753 407.777 15.1979 407.777 15.9602C407.777 16.5852 407.597 17.1439 407.237 17.6364C406.882 18.1288 406.385 18.517 405.745 18.8011C405.106 19.0852 404.363 19.2273 403.515 19.2273C402.403 19.2273 401.482 18.9858 400.752 18.5028C400.023 18.0199 399.562 17.3144 399.368 16.3864L400.958 15.9886C401.11 16.5758 401.396 17.0161 401.818 17.3097C402.244 17.6032 402.8 17.75 403.487 17.75C404.268 17.75 404.888 17.5843 405.348 17.2528C405.812 16.9167 406.044 16.5142 406.044 16.0455C406.044 15.6667 405.911 15.3494 405.646 15.0938C405.381 14.8333 404.974 14.6392 404.424 14.5114L402.606 14.0852C401.607 13.8485 400.873 13.4815 400.404 12.9844C399.94 12.4825 399.708 11.8551 399.708 11.1023C399.708 10.4867 399.881 9.94223 400.227 9.46875C400.577 8.99527 401.053 8.62358 401.654 8.35369C402.261 8.08381 402.947 7.94886 403.714 7.94886C404.794 7.94886 405.641 8.18561 406.257 8.65909C406.877 9.13258 407.317 9.75758 407.578 10.5341ZM417.004 23.0909C416.72 23.0909 416.467 23.0672 416.244 23.0199C416.022 22.9773 415.868 22.9347 415.783 22.892L416.209 21.4148C416.616 21.5189 416.976 21.5568 417.288 21.5284C417.601 21.5 417.878 21.3603 418.119 21.1094C418.366 20.8632 418.59 20.4631 418.794 19.9091L419.107 19.0568L415.072 8.09091H416.891L419.902 16.7841H420.016L423.027 8.09091H424.845L420.214 20.5909C420.006 21.1544 419.748 21.6207 419.44 21.9901C419.133 22.3641 418.775 22.6411 418.368 22.821C417.965 23.0009 417.511 23.0909 417.004 23.0909ZM431.099 19.2273C430.114 19.2273 429.25 18.9929 428.506 18.5241C427.768 18.0554 427.19 17.3996 426.773 16.5568C426.362 15.714 426.156 14.7292 426.156 13.6023C426.156 12.4659 426.362 11.474 426.773 10.6264C427.19 9.77888 427.768 9.12074 428.506 8.65199C429.25 8.18324 430.114 7.94886 431.099 7.94886C432.084 7.94886 432.945 8.18324 433.684 8.65199C434.427 9.12074 435.005 9.77888 435.417 10.6264C435.834 11.474 436.042 12.4659 436.042 13.6023C436.042 14.7292 435.834 15.714 435.417 16.5568C435.005 17.3996 434.427 18.0554 433.684 18.5241C432.945 18.9929 432.084 19.2273 431.099 19.2273ZM431.099 17.7216C431.847 17.7216 432.462 17.5298 432.945 17.1463C433.428 16.7628 433.786 16.2585 434.018 15.6335C434.25 15.0085 434.366 14.3314 434.366 13.6023C434.366 12.8731 434.25 12.1937 434.018 11.5639C433.786 10.9342 433.428 10.4252 432.945 10.0369C432.462 9.64867 431.847 9.45455 431.099 9.45455C430.351 9.45455 429.735 9.64867 429.252 10.0369C428.769 10.4252 428.412 10.9342 428.18 11.5639C427.948 12.1937 427.832 12.8731 427.832 13.6023C427.832 14.3314 427.948 15.0085 428.18 15.6335C428.412 16.2585 428.769 16.7628 429.252 17.1463C429.735 17.5298 430.351 17.7216 431.099 17.7216ZM445.475 14.5398V8.09091H447.152V19H445.475V17.1534H445.362C445.106 17.7074 444.708 18.1785 444.169 18.5668C443.629 18.9503 442.947 19.142 442.123 19.142C441.441 19.142 440.835 18.9929 440.305 18.6946C439.775 18.3916 439.358 17.937 439.055 17.331C438.752 16.7202 438.6 15.9508 438.6 15.0227V8.09091H440.277V14.9091C440.277 15.7045 440.499 16.339 440.944 16.8125C441.394 17.286 441.967 17.5227 442.663 17.5227C443.08 17.5227 443.503 17.4162 443.934 17.2031C444.37 16.9901 444.734 16.6634 445.028 16.223C445.326 15.7827 445.475 15.2216 445.475 14.5398ZM459.057 19.2557C458.366 19.2557 457.738 19.1255 457.175 18.8651C456.611 18.5999 456.164 18.2188 455.832 17.7216C455.501 17.2197 455.335 16.6136 455.335 15.9034C455.335 15.2784 455.458 14.7718 455.705 14.3835C455.951 13.9905 456.28 13.6828 456.692 13.4602C457.104 13.2377 457.558 13.072 458.055 12.9631C458.557 12.8494 459.062 12.7595 459.568 12.6932C460.231 12.608 460.768 12.544 461.18 12.5014C461.597 12.4541 461.9 12.3759 462.089 12.267C462.284 12.1581 462.381 11.9687 462.381 11.6989V11.642C462.381 10.9413 462.189 10.3968 461.805 10.0085C461.427 9.62027 460.851 9.42614 460.08 9.42614C459.279 9.42614 458.652 9.60133 458.197 9.9517C457.743 10.3021 457.423 10.6761 457.239 11.0739L455.648 10.5057C455.932 9.8428 456.311 9.3267 456.784 8.95739C457.262 8.58333 457.783 8.32292 458.347 8.17614C458.915 8.02462 459.473 7.94886 460.023 7.94886C460.373 7.94886 460.776 7.99148 461.23 8.0767C461.689 8.1572 462.132 8.32528 462.558 8.58097C462.989 8.83665 463.347 9.22254 463.631 9.73864C463.915 10.2547 464.057 10.946 464.057 11.8125V19H462.381V17.5227H462.295C462.182 17.7595 461.992 18.0128 461.727 18.2827C461.462 18.5526 461.109 18.7822 460.669 18.9716C460.229 19.161 459.691 19.2557 459.057 19.2557ZM459.312 17.75C459.975 17.75 460.534 17.6198 460.989 17.3594C461.448 17.099 461.794 16.7628 462.026 16.3509C462.262 15.9389 462.381 15.5057 462.381 15.0511V13.517C462.31 13.6023 462.153 13.6804 461.912 13.7514C461.675 13.8177 461.401 13.8769 461.088 13.929C460.78 13.9763 460.48 14.0189 460.186 14.0568C459.897 14.09 459.663 14.1184 459.483 14.142C459.047 14.1989 458.64 14.2912 458.261 14.419C457.887 14.5421 457.584 14.7292 457.352 14.9801C457.125 15.2263 457.011 15.5625 457.011 15.9886C457.011 16.571 457.227 17.0114 457.658 17.3097C458.093 17.6032 458.645 17.75 459.312 17.75ZM467.116 19V8.09091H468.735V9.73864H468.849C469.048 9.19886 469.408 8.76089 469.929 8.42472C470.449 8.08854 471.037 7.92045 471.69 7.92045C471.813 7.92045 471.967 7.92282 472.152 7.92756C472.336 7.93229 472.476 7.93939 472.571 7.94886V9.65341C472.514 9.6392 472.384 9.6179 472.18 9.58949C471.981 9.55634 471.77 9.53977 471.548 9.53977C471.018 9.53977 470.544 9.65104 470.127 9.87358C469.716 10.0914 469.389 10.3944 469.147 10.7827C468.911 11.1662 468.792 11.6042 468.792 12.0966V19H467.116ZM478.799 19.2273C477.748 19.2273 476.842 18.9953 476.079 18.5312C475.322 18.0625 474.737 17.4091 474.325 16.571C473.918 15.7282 473.714 14.7481 473.714 13.6307C473.714 12.5133 473.918 11.5284 474.325 10.6761C474.737 9.81913 475.31 9.15152 476.044 8.6733C476.782 8.19034 477.644 7.94886 478.629 7.94886C479.197 7.94886 479.758 8.04356 480.312 8.23295C480.866 8.42235 481.37 8.73011 481.825 9.15625C482.279 9.57765 482.642 10.1364 482.912 10.8324C483.181 11.5284 483.316 12.3854 483.316 13.4034V14.1136H474.907V12.6648H481.612C481.612 12.0492 481.489 11.5 481.243 11.017C481.001 10.5341 480.655 10.1529 480.206 9.87358C479.761 9.59422 479.235 9.45455 478.629 9.45455C477.961 9.45455 477.384 9.62026 476.896 9.9517C476.413 10.2784 476.041 10.7045 475.781 11.2301C475.52 11.7557 475.39 12.3191 475.39 12.9205V13.8864C475.39 14.7102 475.532 15.4086 475.816 15.9815C476.105 16.5497 476.505 16.983 477.017 17.2812C477.528 17.5748 478.122 17.7216 478.799 17.7216C479.24 17.7216 479.637 17.66 479.993 17.5369C480.352 17.4091 480.663 17.2197 480.923 16.9688C481.183 16.7131 481.385 16.3958 481.527 16.017L483.146 16.4716C482.975 17.0208 482.689 17.5038 482.287 17.9205C481.884 18.3324 481.387 18.6544 480.795 18.8864C480.203 19.1136 479.538 19.2273 478.799 19.2273ZM491.491 23.0909V8.09091H493.11V9.82386H493.309C493.432 9.63447 493.603 9.39299 493.821 9.09943C494.043 8.80114 494.36 8.53598 494.772 8.30398C495.189 8.06723 495.752 7.94886 496.463 7.94886C497.381 7.94886 498.191 8.1785 498.892 8.63778C499.592 9.09706 500.139 9.74811 500.532 10.5909C500.925 11.4337 501.122 12.428 501.122 13.5739C501.122 14.7292 500.925 15.7306 500.532 16.5781C500.139 17.4209 499.595 18.0743 498.899 18.5384C498.203 18.9976 497.4 19.2273 496.491 19.2273C495.79 19.2273 495.229 19.1113 494.808 18.8793C494.386 18.6425 494.062 18.375 493.835 18.0767C493.608 17.7737 493.432 17.5227 493.309 17.3239H493.167V23.0909H491.491ZM493.139 13.5455C493.139 14.3693 493.26 15.0961 493.501 15.7259C493.743 16.3509 494.095 16.8409 494.559 17.196C495.023 17.5464 495.592 17.7216 496.264 17.7216C496.965 17.7216 497.549 17.5369 498.018 17.1676C498.492 16.7936 498.847 16.2917 499.083 15.6619C499.325 15.0275 499.446 14.322 499.446 13.5455C499.446 12.7784 499.327 12.0871 499.091 11.4716C498.859 10.8513 498.506 10.3613 498.032 10.0014C497.564 9.63684 496.974 9.45455 496.264 9.45455C495.582 9.45455 495.009 9.62737 494.545 9.97301C494.081 10.3139 493.731 10.7921 493.494 11.4077C493.257 12.0185 493.139 12.7311 493.139 13.5455ZM505.355 12.4375V19H503.679V4.45455H505.355V9.79545H505.497C505.752 9.23201 506.136 8.78456 506.647 8.45312C507.163 8.11695 507.85 7.94886 508.707 7.94886C509.45 7.94886 510.101 8.09801 510.66 8.39631C511.219 8.68987 511.652 9.14205 511.96 9.75284C512.272 10.3589 512.429 11.1307 512.429 12.0682V19H510.752V12.1818C510.752 11.3153 510.528 10.6454 510.078 10.1719C509.633 9.69366 509.015 9.45455 508.224 9.45455C507.675 9.45455 507.182 9.57055 506.747 9.80256C506.316 10.0346 505.975 10.3731 505.724 10.8182C505.478 11.2633 505.355 11.803 505.355 12.4375ZM516.184 23.0909C515.9 23.0909 515.647 23.0672 515.424 23.0199C515.201 22.9773 515.048 22.9347 514.962 22.892L515.388 21.4148C515.796 21.5189 516.156 21.5568 516.468 21.5284C516.781 21.5 517.058 21.3603 517.299 21.1094C517.545 20.8632 517.77 20.4631 517.974 19.9091L518.286 19.0568L514.252 8.09091H516.07L519.082 16.7841H519.195L522.207 8.09091H524.025L519.394 20.5909C519.186 21.1544 518.928 21.6207 518.62 21.9901C518.312 22.3641 517.955 22.6411 517.548 22.821C517.145 23.0009 516.691 23.0909 516.184 23.0909ZM533.964 10.5341L532.459 10.9602C532.364 10.7093 532.224 10.4654 532.04 10.2287C531.86 9.98722 531.614 9.78835 531.301 9.6321C530.989 9.47585 530.589 9.39773 530.101 9.39773C529.433 9.39773 528.877 9.55161 528.432 9.85938C527.991 10.1624 527.771 10.5483 527.771 11.017C527.771 11.4337 527.923 11.7628 528.226 12.0043C528.529 12.2457 529.002 12.447 529.646 12.608L531.266 13.0057C532.241 13.2424 532.968 13.6046 533.446 14.0923C533.924 14.5753 534.163 15.1979 534.163 15.9602C534.163 16.5852 533.983 17.1439 533.624 17.6364C533.268 18.1288 532.771 18.517 532.132 18.8011C531.493 19.0852 530.75 19.2273 529.902 19.2273C528.789 19.2273 527.868 18.9858 527.139 18.5028C526.41 18.0199 525.948 17.3144 525.754 16.3864L527.345 15.9886C527.497 16.5758 527.783 17.0161 528.205 17.3097C528.631 17.6032 529.187 17.75 529.874 17.75C530.655 17.75 531.275 17.5843 531.734 17.2528C532.198 16.9167 532.43 16.5142 532.43 16.0455C532.43 15.6667 532.298 15.3494 532.033 15.0938C531.768 14.8333 531.36 14.6392 530.811 14.5114L528.993 14.0852C527.994 13.8485 527.26 13.4815 526.791 12.9844C526.327 12.4825 526.095 11.8551 526.095 11.1023C526.095 10.4867 526.268 9.94223 526.614 9.46875C526.964 8.99527 527.44 8.62358 528.041 8.35369C528.647 8.08381 529.334 7.94886 530.101 7.94886C531.18 7.94886 532.028 8.18561 532.643 8.65909C533.264 9.13258 533.704 9.75758 533.964 10.5341ZM536.686 19V8.09091H538.363V19H536.686ZM537.539 6.27273C537.212 6.27273 536.93 6.16146 536.694 5.93892C536.462 5.71638 536.346 5.44886 536.346 5.13636C536.346 4.82386 536.462 4.55634 536.694 4.33381C536.93 4.11127 537.212 4 537.539 4C537.865 4 538.145 4.11127 538.377 4.33381C538.614 4.55634 538.732 4.82386 538.732 5.13636C538.732 5.44886 538.614 5.71638 538.377 5.93892C538.145 6.16146 537.865 6.27273 537.539 6.27273ZM545.864 19.2273C544.842 19.2273 543.961 18.9858 543.222 18.5028C542.484 18.0199 541.915 17.3546 541.518 16.5071C541.12 15.6596 540.921 14.6913 540.921 13.6023C540.921 12.4943 541.125 11.5166 541.532 10.669C541.944 9.81676 542.517 9.15152 543.251 8.6733C543.989 8.19034 544.851 7.94886 545.836 7.94886C546.603 7.94886 547.294 8.09091 547.91 8.375C548.525 8.65909 549.03 9.05682 549.423 9.56818C549.816 10.0795 550.059 10.6761 550.154 11.358H548.478C548.35 10.8608 548.066 10.4205 547.626 10.0369C547.19 9.64867 546.603 9.45455 545.864 9.45455C545.211 9.45455 544.638 9.625 544.146 9.96591C543.658 10.3021 543.277 10.7779 543.002 11.3935C542.732 12.0043 542.597 12.7216 542.597 13.5455C542.597 14.3883 542.73 15.1222 542.995 15.7472C543.265 16.3722 543.644 16.8575 544.131 17.2031C544.624 17.5488 545.201 17.7216 545.864 17.7216C546.3 17.7216 546.695 17.6458 547.05 17.4943C547.406 17.3428 547.706 17.125 547.952 16.8409C548.199 16.5568 548.374 16.2159 548.478 15.8182H550.154C550.059 16.4621 549.825 17.0421 549.451 17.5582C549.082 18.0696 548.592 18.4768 547.981 18.7798C547.375 19.0781 546.669 19.2273 545.864 19.2273ZM555.815 19.2557C555.123 19.2557 554.496 19.1255 553.933 18.8651C553.369 18.5999 552.922 18.2188 552.59 17.7216C552.259 17.2197 552.093 16.6136 552.093 15.9034C552.093 15.2784 552.216 14.7718 552.462 14.3835C552.709 13.9905 553.038 13.6828 553.45 13.4602C553.862 13.2377 554.316 13.072 554.813 12.9631C555.315 12.8494 555.819 12.7595 556.326 12.6932C556.989 12.608 557.526 12.544 557.938 12.5014C558.355 12.4541 558.658 12.3759 558.847 12.267C559.041 12.1581 559.138 11.9687 559.138 11.6989V11.642C559.138 10.9413 558.947 10.3968 558.563 10.0085C558.184 9.62027 557.609 9.42614 556.837 9.42614C556.037 9.42614 555.41 9.60133 554.955 9.9517C554.501 10.3021 554.181 10.6761 553.996 11.0739L552.406 10.5057C552.69 9.8428 553.068 9.3267 553.542 8.95739C554.02 8.58333 554.541 8.32292 555.104 8.17614C555.673 8.02462 556.231 7.94886 556.781 7.94886C557.131 7.94886 557.533 7.99148 557.988 8.0767C558.447 8.1572 558.89 8.32528 559.316 8.58097C559.747 8.83665 560.104 9.22254 560.388 9.73864C560.673 10.2547 560.815 10.946 560.815 11.8125V19H559.138V17.5227H559.053C558.94 17.7595 558.75 18.0128 558.485 18.2827C558.22 18.5526 557.867 18.7822 557.427 18.9716C556.987 19.161 556.449 19.2557 555.815 19.2557ZM556.07 17.75C556.733 17.75 557.292 17.6198 557.746 17.3594C558.206 17.099 558.551 16.7628 558.783 16.3509C559.02 15.9389 559.138 15.5057 559.138 15.0511V13.517C559.067 13.6023 558.911 13.6804 558.67 13.7514C558.433 13.8177 558.158 13.8769 557.846 13.929C557.538 13.9763 557.237 14.0189 556.944 14.0568C556.655 14.09 556.421 14.1184 556.241 14.142C555.805 14.1989 555.398 14.2912 555.019 14.419C554.645 14.5421 554.342 14.7292 554.11 14.9801C553.883 15.2263 553.769 15.5625 553.769 15.9886C553.769 16.571 553.985 17.0114 554.415 17.3097C554.851 17.6032 555.403 17.75 556.07 17.75ZM565.55 4.45455V19H563.874V4.45455H565.55ZM570.296 4.45455V19H568.62V4.45455H570.296ZM574.446 23.0909C574.162 23.0909 573.908 23.0672 573.686 23.0199C573.463 22.9773 573.309 22.9347 573.224 22.892L573.65 21.4148C574.057 21.5189 574.417 21.5568 574.73 21.5284C575.042 21.5 575.319 21.3603 575.561 21.1094C575.807 20.8632 576.032 20.4631 576.235 19.9091L576.548 19.0568L572.514 8.09091H574.332L577.343 16.7841H577.457L580.468 8.09091H582.287L577.656 20.5909C577.448 21.1544 577.19 21.6207 576.882 21.9901C576.574 22.3641 576.217 22.6411 575.809 22.821C575.407 23.0009 574.952 23.0909 574.446 23.0909ZM594.556 19.2273C593.533 19.2273 592.652 18.9858 591.914 18.5028C591.175 18.0199 590.607 17.3546 590.209 16.5071C589.811 15.6596 589.613 14.6913 589.613 13.6023C589.613 12.4943 589.816 11.5166 590.223 10.669C590.635 9.81676 591.208 9.15152 591.942 8.6733C592.681 8.19034 593.542 7.94886 594.527 7.94886C595.294 7.94886 595.986 8.09091 596.601 8.375C597.217 8.65909 597.721 9.05682 598.114 9.56818C598.507 10.0795 598.751 10.6761 598.846 11.358H597.169C597.042 10.8608 596.757 10.4205 596.317 10.0369C595.882 9.64867 595.294 9.45455 594.556 9.45455C593.902 9.45455 593.329 9.625 592.837 9.96591C592.349 10.3021 591.968 10.7779 591.694 11.3935C591.424 12.0043 591.289 12.7216 591.289 13.5455C591.289 14.3883 591.421 15.1222 591.686 15.7472C591.956 16.3722 592.335 16.8575 592.823 17.2031C593.315 17.5488 593.893 17.7216 594.556 17.7216C594.991 17.7216 595.387 17.6458 595.742 17.4943C596.097 17.3428 596.398 17.125 596.644 16.8409C596.89 16.5568 597.065 16.2159 597.169 15.8182H598.846C598.751 16.4621 598.516 17.0421 598.142 17.5582C597.773 18.0696 597.283 18.4768 596.672 18.7798C596.066 19.0781 595.361 19.2273 594.556 19.2273ZM604.506 19.2557C603.815 19.2557 603.187 19.1255 602.624 18.8651C602.06 18.5999 601.613 18.2188 601.282 17.7216C600.95 17.2197 600.784 16.6136 600.784 15.9034C600.784 15.2784 600.908 14.7718 601.154 14.3835C601.4 13.9905 601.729 13.6828 602.141 13.4602C602.553 13.2377 603.007 13.072 603.505 12.9631C604.007 12.8494 604.511 12.7595 605.017 12.6932C605.68 12.608 606.218 12.544 606.63 12.5014C607.046 12.4541 607.349 12.3759 607.539 12.267C607.733 12.1581 607.83 11.9687 607.83 11.6989V11.642C607.83 10.9413 607.638 10.3968 607.255 10.0085C606.876 9.62027 606.301 9.42614 605.529 9.42614C604.729 9.42614 604.101 9.60133 603.647 9.9517C603.192 10.3021 602.873 10.6761 602.688 11.0739L601.097 10.5057C601.381 9.8428 601.76 9.3267 602.233 8.95739C602.712 8.58333 603.232 8.32292 603.796 8.17614C604.364 8.02462 604.923 7.94886 605.472 7.94886C605.822 7.94886 606.225 7.99148 606.679 8.0767C607.139 8.1572 607.581 8.32528 608.007 8.58097C608.438 8.83665 608.796 9.22254 609.08 9.73864C609.364 10.2547 609.506 10.946 609.506 11.8125V19H607.83V17.5227H607.745C607.631 17.7595 607.442 18.0128 607.176 18.2827C606.911 18.5526 606.559 18.7822 606.118 18.9716C605.678 19.161 605.141 19.2557 604.506 19.2557ZM604.762 17.75C605.425 17.75 605.983 17.6198 606.438 17.3594C606.897 17.099 607.243 16.7628 607.475 16.3509C607.712 15.9389 607.83 15.5057 607.83 15.0511V13.517C607.759 13.6023 607.603 13.6804 607.361 13.7514C607.124 13.8177 606.85 13.8769 606.537 13.929C606.23 13.9763 605.929 14.0189 605.635 14.0568C605.346 14.09 605.112 14.1184 604.932 14.142C604.497 14.1989 604.089 14.2912 603.711 14.419C603.337 14.5421 603.033 14.7292 602.801 14.9801C602.574 15.2263 602.461 15.5625 602.461 15.9886C602.461 16.571 602.676 17.0114 603.107 17.3097C603.542 17.6032 604.094 17.75 604.762 17.75ZM612.565 23.0909V8.09091H614.185V9.82386H614.384C614.507 9.63447 614.677 9.39299 614.895 9.09943C615.117 8.80114 615.435 8.53598 615.847 8.30398C616.263 8.06723 616.827 7.94886 617.537 7.94886C618.455 7.94886 619.265 8.1785 619.966 8.63778C620.667 9.09706 621.214 9.74811 621.607 10.5909C622 11.4337 622.196 12.428 622.196 13.5739C622.196 14.7292 622 15.7306 621.607 16.5781C621.214 17.4209 620.669 18.0743 619.973 18.5384C619.277 18.9976 618.474 19.2273 617.565 19.2273C616.865 19.2273 616.304 19.1113 615.882 18.8793C615.461 18.6425 615.136 18.375 614.909 18.0767C614.682 17.7737 614.507 17.5227 614.384 17.3239H614.241V23.0909H612.565ZM614.213 13.5455C614.213 14.3693 614.334 15.0961 614.575 15.7259C614.817 16.3509 615.17 16.8409 615.634 17.196C616.098 17.5464 616.666 17.7216 617.338 17.7216C618.039 17.7216 618.624 17.5369 619.092 17.1676C619.566 16.7936 619.921 16.2917 620.158 15.6619C620.399 15.0275 620.52 14.322 620.52 13.5455C620.52 12.7784 620.402 12.0871 620.165 11.4716C619.933 10.8513 619.58 10.3613 619.107 10.0014C618.638 9.63684 618.048 9.45455 617.338 9.45455C616.656 9.45455 616.083 9.62737 615.619 9.97301C615.155 10.3139 614.805 10.7921 614.568 11.4077C614.331 12.0185 614.213 12.7311 614.213 13.5455ZM627.963 19.2557C627.272 19.2557 626.644 19.1255 626.081 18.8651C625.518 18.5999 625.07 18.2188 624.739 17.7216C624.407 17.2197 624.241 16.6136 624.241 15.9034C624.241 15.2784 624.365 14.7718 624.611 14.3835C624.857 13.9905 625.186 13.6828 625.598 13.4602C626.01 13.2377 626.464 13.072 626.962 12.9631C627.464 12.8494 627.968 12.7595 628.474 12.6932C629.137 12.608 629.675 12.544 630.087 12.5014C630.503 12.4541 630.806 12.3759 630.996 12.267C631.19 12.1581 631.287 11.9687 631.287 11.6989V11.642C631.287 10.9413 631.095 10.3968 630.712 10.0085C630.333 9.62027 629.758 9.42614 628.986 9.42614C628.186 9.42614 627.558 9.60133 627.104 9.9517C626.649 10.3021 626.33 10.6761 626.145 11.0739L624.554 10.5057C624.838 9.8428 625.217 9.3267 625.69 8.95739C626.169 8.58333 626.689 8.32292 627.253 8.17614C627.821 8.02462 628.38 7.94886 628.929 7.94886C629.279 7.94886 629.682 7.99148 630.136 8.0767C630.596 8.1572 631.038 8.32528 631.464 8.58097C631.895 8.83665 632.253 9.22254 632.537 9.73864C632.821 10.2547 632.963 10.946 632.963 11.8125V19H631.287V17.5227H631.202C631.088 17.7595 630.899 18.0128 630.634 18.2827C630.368 18.5526 630.016 18.7822 629.575 18.9716C629.135 19.161 628.598 19.2557 627.963 19.2557ZM628.219 17.75C628.882 17.75 629.44 17.6198 629.895 17.3594C630.354 17.099 630.7 16.7628 630.932 16.3509C631.169 15.9389 631.287 15.5057 631.287 15.0511V13.517C631.216 13.6023 631.06 13.6804 630.818 13.7514C630.581 13.8177 630.307 13.8769 629.994 13.929C629.687 13.9763 629.386 14.0189 629.092 14.0568C628.804 14.09 628.569 14.1184 628.389 14.142C627.954 14.1989 627.546 14.2912 627.168 14.419C626.794 14.5421 626.491 14.7292 626.259 14.9801C626.031 15.2263 625.918 15.5625 625.918 15.9886C625.918 16.571 626.133 17.0114 626.564 17.3097C627 17.6032 627.551 17.75 628.219 17.75ZM636.25 19V4.45455H637.926V9.82386H638.068C638.191 9.63447 638.361 9.39299 638.579 9.09943C638.802 8.80114 639.119 8.53598 639.531 8.30398C639.948 8.06723 640.511 7.94886 641.221 7.94886C642.14 7.94886 642.949 8.1785 643.65 8.63778C644.351 9.09706 644.898 9.74811 645.291 10.5909C645.684 11.4337 645.88 12.428 645.88 13.5739C645.88 14.7292 645.684 15.7306 645.291 16.5781C644.898 17.4209 644.353 18.0743 643.657 18.5384C642.961 18.9976 642.159 19.2273 641.25 19.2273C640.549 19.2273 639.988 19.1113 639.566 18.8793C639.145 18.6425 638.821 18.375 638.593 18.0767C638.366 17.7737 638.191 17.5227 638.068 17.3239H637.869V19H636.25ZM637.897 13.5455C637.897 14.3693 638.018 15.0961 638.26 15.7259C638.501 16.3509 638.854 16.8409 639.318 17.196C639.782 17.5464 640.35 17.7216 641.022 17.7216C641.723 17.7216 642.308 17.5369 642.777 17.1676C643.25 16.7936 643.605 16.2917 643.842 15.6619C644.083 15.0275 644.204 14.322 644.204 13.5455C644.204 12.7784 644.086 12.0871 643.849 11.4716C643.617 10.8513 643.264 10.3613 642.791 10.0014C642.322 9.63684 641.733 9.45455 641.022 9.45455C640.341 9.45455 639.768 9.62737 639.304 9.97301C638.84 10.3139 638.489 10.7921 638.252 11.4077C638.016 12.0185 637.897 12.7311 637.897 13.5455ZM650.12 4.45455V19H648.444V4.45455H650.12ZM657.764 19.2273C656.713 19.2273 655.806 18.9953 655.044 18.5312C654.286 18.0625 653.702 17.4091 653.29 16.571C652.883 15.7282 652.679 14.7481 652.679 13.6307C652.679 12.5133 652.883 11.5284 653.29 10.6761C653.702 9.81913 654.275 9.15152 655.009 8.6733C655.747 8.19034 656.609 7.94886 657.594 7.94886C658.162 7.94886 658.723 8.04356 659.277 8.23295C659.831 8.42235 660.335 8.73011 660.79 9.15625C661.244 9.57765 661.607 10.1364 661.876 10.8324C662.146 11.5284 662.281 12.3854 662.281 13.4034V14.1136H653.872V12.6648H660.577C660.577 12.0492 660.454 11.5 660.207 11.017C659.966 10.5341 659.62 10.1529 659.17 9.87358C658.725 9.59422 658.2 9.45455 657.594 9.45455C656.926 9.45455 656.348 9.62026 655.861 9.9517C655.378 10.2784 655.006 10.7045 654.746 11.2301C654.485 11.7557 654.355 12.3191 654.355 12.9205V13.8864C654.355 14.7102 654.497 15.4086 654.781 15.9815C655.07 16.5497 655.47 16.983 655.982 17.2812C656.493 17.5748 657.087 17.7216 657.764 17.7216C658.205 17.7216 658.602 17.66 658.957 17.5369C659.317 17.4091 659.627 17.2197 659.888 16.9688C660.148 16.7131 660.349 16.3958 660.491 16.017L662.111 16.4716C661.94 17.0208 661.654 17.5038 661.251 17.9205C660.849 18.3324 660.352 18.6544 659.76 18.8864C659.168 19.1136 658.503 19.2273 657.764 19.2273ZM674.888 19.2273C673.903 19.2273 673.039 18.9929 672.295 18.5241C671.557 18.0554 670.979 17.3996 670.562 16.5568C670.151 15.714 669.945 14.7292 669.945 13.6023C669.945 12.4659 670.151 11.474 670.562 10.6264C670.979 9.77888 671.557 9.12074 672.295 8.65199C673.039 8.18324 673.903 7.94886 674.888 7.94886C675.873 7.94886 676.734 8.18324 677.473 8.65199C678.216 9.12074 678.794 9.77888 679.206 10.6264C679.623 11.474 679.831 12.4659 679.831 13.6023C679.831 14.7292 679.623 15.714 679.206 16.5568C678.794 17.3996 678.216 18.0554 677.473 18.5241C676.734 18.9929 675.873 19.2273 674.888 19.2273ZM674.888 17.7216C675.636 17.7216 676.251 17.5298 676.734 17.1463C677.217 16.7628 677.575 16.2585 677.807 15.6335C678.039 15.0085 678.155 14.3314 678.155 13.6023C678.155 12.8731 678.039 12.1937 677.807 11.5639C677.575 10.9342 677.217 10.4252 676.734 10.0369C676.251 9.64867 675.636 9.45455 674.888 9.45455C674.14 9.45455 673.524 9.64867 673.041 10.0369C672.558 10.4252 672.201 10.9342 671.969 11.5639C671.737 12.1937 671.621 12.8731 671.621 13.6023C671.621 14.3314 671.737 15.0085 671.969 15.6335C672.201 16.2585 672.558 16.7628 673.041 17.1463C673.524 17.5298 674.14 17.7216 674.888 17.7216ZM687.248 8.09091V9.51136H681.367V8.09091H687.248ZM683.128 19V6.58523C683.128 5.96023 683.275 5.43939 683.569 5.02273C683.862 4.60606 684.243 4.29356 684.712 4.08523C685.181 3.87689 685.676 3.77273 686.196 3.77273C686.608 3.77273 686.944 3.80587 687.205 3.87216C687.465 3.93845 687.659 4 687.787 4.05682L687.304 5.50568C687.219 5.47727 687.101 5.44176 686.949 5.39915C686.802 5.35653 686.608 5.33523 686.367 5.33523C685.813 5.33523 685.413 5.4749 685.167 5.75426C684.925 6.03362 684.804 6.44318 684.804 6.98295V19H683.128ZM690.964 17.0114L690.85 17.7784C690.77 18.3182 690.647 18.8958 690.481 19.5114C690.32 20.1269 690.152 20.7069 689.977 21.2514C689.801 21.7959 689.657 22.2292 689.543 22.5511H688.265C688.326 22.2481 688.407 21.848 688.506 21.3509C688.606 20.8537 688.705 20.2973 688.805 19.6818C688.909 19.071 688.994 18.446 689.06 17.8068L689.146 17.0114H690.964ZM706.569 14.5398V8.09091H708.245V19H706.569V17.1534H706.456C706.2 17.7074 705.802 18.1785 705.262 18.5668C704.723 18.9503 704.041 19.142 703.217 19.142C702.535 19.142 701.929 18.9929 701.399 18.6946C700.868 18.3916 700.452 17.937 700.149 17.331C699.846 16.7202 699.694 15.9508 699.694 15.0227V8.09091H701.37V14.9091C701.37 15.7045 701.593 16.339 702.038 16.8125C702.488 17.286 703.061 17.5227 703.757 17.5227C704.173 17.5227 704.597 17.4162 705.028 17.2031C705.464 16.9901 705.828 16.6634 706.122 16.223C706.42 15.7827 706.569 15.2216 706.569 14.5398ZM712.991 12.4375V19H711.315V8.09091H712.935V9.79545H713.077C713.332 9.24148 713.721 8.7964 714.241 8.46023C714.762 8.11932 715.435 7.94886 716.259 7.94886C716.997 7.94886 717.643 8.10038 718.197 8.40341C718.751 8.7017 719.182 9.15625 719.49 9.76705C719.798 10.3731 719.952 11.1402 719.952 12.0682V19H718.276V12.1818C718.276 11.3248 718.053 10.6572 717.608 10.179C717.163 9.69602 716.552 9.45455 715.776 9.45455C715.241 9.45455 714.762 9.57055 714.341 9.80256C713.924 10.0346 713.595 10.3731 713.354 10.8182C713.112 11.2633 712.991 11.803 712.991 12.4375ZM727.759 8.09091V9.51136H722.105V8.09091H727.759ZM723.753 5.47727H725.429V15.875C725.429 16.3485 725.498 16.7036 725.635 16.9403C725.777 17.1723 725.957 17.3286 726.175 17.4091C726.398 17.4848 726.632 17.5227 726.878 17.5227C727.063 17.5227 727.214 17.5133 727.333 17.4943C727.451 17.4706 727.546 17.4517 727.617 17.4375L727.958 18.9432C727.844 18.9858 727.685 19.0284 727.482 19.071C727.278 19.1184 727.02 19.142 726.708 19.142C726.234 19.142 725.77 19.0402 725.316 18.8366C724.866 18.633 724.492 18.3229 724.194 17.9062C723.9 17.4896 723.753 16.964 723.753 16.3295V5.47727ZM730.28 19V8.09091H731.956V19H730.28ZM731.132 6.27273C730.806 6.27273 730.524 6.16146 730.287 5.93892C730.055 5.71638 729.939 5.44886 729.939 5.13636C729.939 4.82386 730.055 4.55634 730.287 4.33381C730.524 4.11127 730.806 4 731.132 4C731.459 4 731.739 4.11127 731.971 4.33381C732.207 4.55634 732.326 4.82386 732.326 5.13636C732.326 5.44886 732.207 5.71638 731.971 5.93892C731.739 6.16146 731.459 6.27273 731.132 6.27273ZM736.702 4.45455V19H735.026V4.45455H736.702ZM750.142 8.09091V9.51136H744.488V8.09091H750.142ZM746.136 5.47727H747.812V15.875C747.812 16.3485 747.881 16.7036 748.018 16.9403C748.16 17.1723 748.34 17.3286 748.558 17.4091C748.78 17.4848 749.015 17.5227 749.261 17.5227C749.446 17.5227 749.597 17.5133 749.716 17.4943C749.834 17.4706 749.929 17.4517 750 17.4375L750.341 18.9432C750.227 18.9858 750.068 19.0284 749.865 19.071C749.661 19.1184 749.403 19.142 749.091 19.142C748.617 19.142 748.153 19.0402 747.699 18.8366C747.249 18.633 746.875 18.3229 746.576 17.9062C746.283 17.4896 746.136 16.964 746.136 16.3295V5.47727ZM754.574 12.4375V19H752.897V4.45455H754.574V9.79545H754.716C754.971 9.23201 755.355 8.78456 755.866 8.45312C756.382 8.11695 757.069 7.94886 757.926 7.94886C758.669 7.94886 759.32 8.09801 759.879 8.39631C760.438 8.68987 760.871 9.14205 761.179 9.75284C761.491 10.3589 761.647 11.1307 761.647 12.0682V19H759.971V12.1818C759.971 11.3153 759.746 10.6454 759.297 10.1719C758.851 9.69366 758.234 9.45455 757.443 9.45455C756.894 9.45455 756.401 9.57055 755.966 9.80256C755.535 10.0346 755.194 10.3731 754.943 10.8182C754.697 11.2633 754.574 11.803 754.574 12.4375ZM769.288 19.2273C768.237 19.2273 767.33 18.9953 766.567 18.5312C765.81 18.0625 765.225 17.4091 764.813 16.571C764.406 15.7282 764.202 14.7481 764.202 13.6307C764.202 12.5133 764.406 11.5284 764.813 10.6761C765.225 9.81913 765.798 9.15152 766.532 8.6733C767.271 8.19034 768.132 7.94886 769.117 7.94886C769.685 7.94886 770.246 8.04356 770.8 8.23295C771.354 8.42235 771.859 8.73011 772.313 9.15625C772.768 9.57765 773.13 10.1364 773.4 10.8324C773.67 11.5284 773.805 12.3854 773.805 13.4034V14.1136H765.396V12.6648H772.1C772.1 12.0492 771.977 11.5 771.731 11.017C771.489 10.5341 771.144 10.1529 770.694 9.87358C770.249 9.59422 769.723 9.45455 769.117 9.45455C768.45 9.45455 767.872 9.62026 767.384 9.9517C766.901 10.2784 766.53 10.7045 766.269 11.2301C766.009 11.7557 765.879 12.3191 765.879 12.9205V13.8864C765.879 14.7102 766.021 15.4086 766.305 15.9815C766.594 16.5497 766.994 16.983 767.505 17.2812C768.016 17.5748 768.611 17.7216 769.288 17.7216C769.728 17.7216 770.126 17.66 770.481 17.5369C770.841 17.4091 771.151 17.2197 771.411 16.9688C771.672 16.7131 771.873 16.3958 772.015 16.017L773.634 16.4716C773.464 17.0208 773.177 17.5038 772.775 17.9205C772.372 18.3324 771.875 18.6544 771.283 18.8864C770.692 19.1136 770.026 19.2273 769.288 19.2273ZM786.553 19.2273C785.502 19.2273 784.595 18.9953 783.833 18.5312C783.076 18.0625 782.491 17.4091 782.079 16.571C781.672 15.7282 781.468 14.7481 781.468 13.6307C781.468 12.5133 781.672 11.5284 782.079 10.6761C782.491 9.81913 783.064 9.15152 783.798 8.6733C784.536 8.19034 785.398 7.94886 786.383 7.94886C786.951 7.94886 787.512 8.04356 788.066 8.23295C788.62 8.42235 789.124 8.73011 789.579 9.15625C790.033 9.57765 790.396 10.1364 790.665 10.8324C790.935 11.5284 791.07 12.3854 791.07 13.4034V14.1136H782.661V12.6648H789.366C789.366 12.0492 789.243 11.5 788.996 11.017C788.755 10.5341 788.409 10.1529 787.96 9.87358C787.514 9.59422 786.989 9.45455 786.383 9.45455C785.715 9.45455 785.138 9.62026 784.65 9.9517C784.167 10.2784 783.795 10.7045 783.535 11.2301C783.274 11.7557 783.144 12.3191 783.144 12.9205V13.8864C783.144 14.7102 783.286 15.4086 783.57 15.9815C783.859 16.5497 784.259 16.983 784.771 17.2812C785.282 17.5748 785.876 17.7216 786.553 17.7216C786.994 17.7216 787.391 17.66 787.746 17.5369C788.106 17.4091 788.416 17.2197 788.677 16.9688C788.937 16.7131 789.138 16.3958 789.281 16.017L790.9 16.4716C790.729 17.0208 790.443 17.5038 790.04 17.9205C789.638 18.3324 789.141 18.6544 788.549 18.8864C787.957 19.1136 787.292 19.2273 786.553 19.2273ZM795.296 12.4375V19H793.62V8.09091H795.239V9.79545H795.381C795.637 9.24148 796.025 8.7964 796.546 8.46023C797.067 8.11932 797.739 7.94886 798.563 7.94886C799.302 7.94886 799.948 8.10038 800.502 8.40341C801.056 8.7017 801.487 9.15625 801.795 9.76705C802.103 10.3731 802.256 11.1402 802.256 12.0682V19H800.58V12.1818C800.58 11.3248 800.358 10.6572 799.913 10.179C799.468 9.69602 798.857 9.45455 798.08 9.45455C797.545 9.45455 797.067 9.57055 796.646 9.80256C796.229 10.0346 795.9 10.3731 795.658 10.8182C795.417 11.2633 795.296 11.803 795.296 12.4375ZM809.439 19.2273C808.529 19.2273 807.727 18.9976 807.031 18.5384C806.335 18.0743 805.79 17.4209 805.397 16.5781C805.004 15.7306 804.808 14.7292 804.808 13.5739C804.808 12.428 805.004 11.4337 805.397 10.5909C805.79 9.74811 806.337 9.09706 807.038 8.63778C807.739 8.1785 808.548 7.94886 809.467 7.94886C810.177 7.94886 810.738 8.06723 811.15 8.30398C811.567 8.53598 811.884 8.80114 812.102 9.09943C812.324 9.39299 812.497 9.63447 812.62 9.82386H812.762V4.45455H814.439V19H812.819V17.3239H812.62C812.497 17.5227 812.322 17.7737 812.095 18.0767C811.868 18.375 811.543 18.6425 811.122 18.8793C810.7 19.1113 810.139 19.2273 809.439 19.2273ZM809.666 17.7216C810.338 17.7216 810.906 17.5464 811.37 17.196C811.834 16.8409 812.187 16.3509 812.429 15.7259C812.67 15.0961 812.791 14.3693 812.791 13.5455C812.791 12.7311 812.672 12.0185 812.436 11.4077C812.199 10.7921 811.849 10.3139 811.385 9.97301C810.921 9.62737 810.348 9.45455 809.666 9.45455C808.956 9.45455 808.364 9.63684 807.89 10.0014C807.422 10.3613 807.069 10.8513 806.832 11.4716C806.6 12.0871 806.484 12.7784 806.484 13.5455C806.484 14.322 806.602 15.0275 806.839 15.6619C807.081 16.2917 807.436 16.7936 807.904 17.1676C808.378 17.5369 808.965 17.7216 809.666 17.7216ZM827.798 19.2273C826.813 19.2273 825.949 18.9929 825.206 18.5241C824.467 18.0554 823.889 17.3996 823.473 16.5568C823.061 15.714 822.855 14.7292 822.855 13.6023C822.855 12.4659 823.061 11.474 823.473 10.6264C823.889 9.77888 824.467 9.12074 825.206 8.65199C825.949 8.18324 826.813 7.94886 827.798 7.94886C828.783 7.94886 829.645 8.18324 830.383 8.65199C831.127 9.12074 831.704 9.77888 832.116 10.6264C832.533 11.474 832.741 12.4659 832.741 13.6023C832.741 14.7292 832.533 15.714 832.116 16.5568C831.704 17.3996 831.127 18.0554 830.383 18.5241C829.645 18.9929 828.783 19.2273 827.798 19.2273ZM827.798 17.7216C828.546 17.7216 829.162 17.5298 829.645 17.1463C830.127 16.7628 830.485 16.2585 830.717 15.6335C830.949 15.0085 831.065 14.3314 831.065 13.6023C831.065 12.8731 830.949 12.1937 830.717 11.5639C830.485 10.9342 830.127 10.4252 829.645 10.0369C829.162 9.64867 828.546 9.45455 827.798 9.45455C827.05 9.45455 826.434 9.64867 825.951 10.0369C825.468 10.4252 825.111 10.9342 824.879 11.5639C824.647 12.1937 824.531 12.8731 824.531 13.6023C824.531 14.3314 824.647 15.0085 824.879 15.6335C825.111 16.2585 825.468 16.7628 825.951 17.1463C826.434 17.5298 827.05 17.7216 827.798 17.7216ZM840.158 8.09091V9.51136H834.277V8.09091H840.158ZM836.038 19V6.58523C836.038 5.96023 836.185 5.43939 836.479 5.02273C836.772 4.60606 837.153 4.29356 837.622 4.08523C838.091 3.87689 838.586 3.77273 839.107 3.77273C839.518 3.77273 839.855 3.80587 840.115 3.87216C840.375 3.93845 840.57 4 840.697 4.05682L840.214 5.50568C840.129 5.47727 840.011 5.44176 839.859 5.39915C839.713 5.35653 839.518 5.33523 839.277 5.33523C838.723 5.33523 838.323 5.4749 838.077 5.75426C837.835 6.03362 837.714 6.44318 837.714 6.98295V19H836.038ZM852.876 8.09091V9.51136H847.223V8.09091H852.876ZM848.87 5.47727H850.547V15.875C850.547 16.3485 850.615 16.7036 850.752 16.9403C850.895 17.1723 851.074 17.3286 851.292 17.4091C851.515 17.4848 851.749 17.5227 851.995 17.5227C852.18 17.5227 852.332 17.5133 852.45 17.4943C852.568 17.4706 852.663 17.4517 852.734 17.4375L853.075 18.9432C852.961 18.9858 852.803 19.0284 852.599 19.071C852.395 19.1184 852.137 19.142 851.825 19.142C851.351 19.142 850.887 19.0402 850.433 18.8366C849.983 18.633 849.609 18.3229 849.311 17.9062C849.017 17.4896 848.87 16.964 848.87 16.3295V5.47727ZM855.397 19V8.09091H857.074V19H855.397ZM856.25 6.27273C855.923 6.27273 855.641 6.16146 855.404 5.93892C855.172 5.71638 855.056 5.44886 855.056 5.13636C855.056 4.82386 855.172 4.55634 855.404 4.33381C855.641 4.11127 855.923 4 856.25 4C856.576 4 856.856 4.11127 857.088 4.33381C857.324 4.55634 857.443 4.82386 857.443 5.13636C857.443 5.44886 857.324 5.71638 857.088 5.93892C856.856 6.16146 856.576 6.27273 856.25 6.27273ZM860.143 19V8.09091H861.763V9.79545H861.905C862.132 9.21307 862.499 8.76089 863.006 8.43892C863.512 8.11222 864.121 7.94886 864.831 7.94886C865.551 7.94886 866.15 8.11222 866.628 8.43892C867.111 8.76089 867.487 9.21307 867.757 9.79545H867.871C868.15 9.23201 868.569 8.78456 869.128 8.45312C869.687 8.11695 870.357 7.94886 871.138 7.94886C872.113 7.94886 872.911 8.25426 873.531 8.86506C874.152 9.47112 874.462 10.4157 874.462 11.6989V19H872.786V11.6989C872.786 10.8939 872.565 10.3187 872.125 9.97301C871.685 9.62737 871.166 9.45455 870.57 9.45455C869.803 9.45455 869.208 9.68655 868.787 10.1506C868.366 10.6098 868.155 11.1922 868.155 11.8977V19H866.45V11.5284C866.45 10.9081 866.249 10.4086 865.847 10.0298C865.444 9.64631 864.926 9.45455 864.291 9.45455C863.856 9.45455 863.448 9.57055 863.07 9.80256C862.696 10.0346 862.393 10.3565 862.161 10.7685C861.933 11.1757 861.82 11.6468 861.82 12.1818V19H860.143ZM882.1 19.2273C881.049 19.2273 880.142 18.9953 879.38 18.5312C878.622 18.0625 878.038 17.4091 877.626 16.571C877.219 15.7282 877.015 14.7481 877.015 13.6307C877.015 12.5133 877.219 11.5284 877.626 10.6761C878.038 9.81913 878.611 9.15152 879.344 8.6733C880.083 8.19034 880.945 7.94886 881.93 7.94886C882.498 7.94886 883.059 8.04356 883.613 8.23295C884.167 8.42235 884.671 8.73011 885.126 9.15625C885.58 9.57765 885.942 10.1364 886.212 10.8324C886.482 11.5284 886.617 12.3854 886.617 13.4034V14.1136H878.208V12.6648H884.913C884.913 12.0492 884.79 11.5 884.543 11.017C884.302 10.5341 883.956 10.1529 883.506 9.87358C883.061 9.59422 882.536 9.45455 881.93 9.45455C881.262 9.45455 880.684 9.62026 880.197 9.9517C879.714 10.2784 879.342 10.7045 879.082 11.2301C878.821 11.7557 878.691 12.3191 878.691 12.9205V13.8864C878.691 14.7102 878.833 15.4086 879.117 15.9815C879.406 16.5497 879.806 16.983 880.317 17.2812C880.829 17.5748 881.423 17.7216 882.1 17.7216C882.54 17.7216 882.938 17.66 883.293 17.5369C883.653 17.4091 883.963 17.2197 884.224 16.9688C884.484 16.7131 884.685 16.3958 884.827 16.017L886.447 16.4716C886.276 17.0208 885.99 17.5038 885.587 17.9205C885.185 18.3324 884.688 18.6544 884.096 18.8864C883.504 19.1136 882.839 19.2273 882.1 19.2273ZM890.388 19.1136C890.038 19.1136 889.737 18.9882 889.487 18.7372C889.236 18.4863 889.11 18.1856 889.11 17.8352C889.11 17.4848 889.236 17.1842 889.487 16.9332C889.737 16.6823 890.038 16.5568 890.388 16.5568C890.739 16.5568 891.04 16.6823 891.29 16.9332C891.541 17.1842 891.667 17.4848 891.667 17.8352C891.667 18.0672 891.608 18.2803 891.489 18.4744C891.376 18.6686 891.222 18.8248 891.028 18.9432C890.838 19.0568 890.625 19.1136 890.388 19.1136ZM890.388 11.017C890.038 11.017 889.737 10.8916 889.487 10.6406C889.236 10.3897 889.11 10.089 889.11 9.73864C889.11 9.38826 889.236 9.08759 889.487 8.83665C889.737 8.5857 890.038 8.46023 890.388 8.46023C890.739 8.46023 891.04 8.5857 891.29 8.83665C891.541 9.08759 891.667 9.38826 891.667 9.73864C891.667 9.97064 891.608 10.1837 891.489 10.3778C891.376 10.572 891.222 10.7282 891.028 10.8466C890.838 10.9602 890.625 11.017 890.388 11.017Z" fill="black"/>
<path d="M821.545 977C820.324 978.085 818.113 978.475 820.725 978.475C833.51 978.475 846.321 978.216 859.078 979.213C863.471 979.556 868.062 978.497 864.979 982.982C859.345 991.177 850.365 997.822 842.196 1003.22C840.3 1004.48 814.001 1022.15 817.283 1023.38C823.176 1025.59 836.614 1021.47 842.934 1021.34C851.535 1021.15 860.145 1021.25 868.749 1021.25" stroke="black" stroke-opacity="0.5" stroke-width="3" stroke-linecap="round"/>
<path d="M883.5 990.276C884.742 984.685 915.58 981.509 920.87 981.425C926.684 981.333 921.524 985.619 919.395 987.981C912.358 995.788 903.68 1001.73 896.284 1009.12C895.362 1010.05 887.49 1021.25 890.876 1021.25C907.978 1021.25 925.248 1018.3 942.505 1018.3" stroke="black" stroke-opacity="0.5" stroke-width="3" stroke-linecap="round"/>
<path d="M949.879 984.376C963.244 984.376 977.315 982.861 990.527 983.556C990.73 983.567 974.478 1008.04 972.334 1010.93C970.419 1013.5 966.061 1021.15 971.842 1021.25C989.095 1021.57 1006.38 1021.25 1023.63 1021.25" stroke="black" stroke-opacity="0.5" stroke-width="3" stroke-linecap="round"/>
</g>
<defs>
<clipPath id="clip0_33_28">
<rect width="1024" height="1024" fill="white"/>
</clipPath>
</defs>
</svg>
