<svg width="1024" height="1024" viewBox="0 0 1024 1024" fill="none" xmlns="http://www.w3.org/2000/svg">
<g clip-path="url(#clip0_27_51)">
<path d="M115.295 99.4545V114H113.591L105.665 102.58H105.523V114H103.761V99.4545H105.466L113.42 110.903H113.562V99.4545H115.295ZM123.025 114.227C122.04 114.227 121.176 113.993 120.432 113.524C119.694 113.055 119.116 112.4 118.699 111.557C118.287 110.714 118.081 109.729 118.081 108.602C118.081 107.466 118.287 106.474 118.699 105.626C119.116 104.779 119.694 104.121 120.432 103.652C121.176 103.183 122.04 102.949 123.025 102.949C124.009 102.949 124.871 103.183 125.61 103.652C126.353 104.121 126.931 104.779 127.343 105.626C127.759 106.474 127.968 107.466 127.968 108.602C127.968 109.729 127.759 110.714 127.343 111.557C126.931 112.4 126.353 113.055 125.61 113.524C124.871 113.993 124.009 114.227 123.025 114.227ZM123.025 112.722C123.773 112.722 124.388 112.53 124.871 112.146C125.354 111.763 125.712 111.259 125.944 110.634C126.176 110.009 126.292 109.331 126.292 108.602C126.292 107.873 126.176 107.194 125.944 106.564C125.712 105.934 125.354 105.425 124.871 105.037C124.388 104.649 123.773 104.455 123.025 104.455C122.276 104.455 121.661 104.649 121.178 105.037C120.695 105.425 120.337 105.934 120.105 106.564C119.873 107.194 119.757 107.873 119.757 108.602C119.757 109.331 119.873 110.009 120.105 110.634C120.337 111.259 120.695 111.763 121.178 112.146C121.661 112.53 122.276 112.722 123.025 112.722ZM132.627 114L129.303 103.091H131.064L133.422 111.443H133.536L135.865 103.091H137.655L139.956 111.415H140.07L142.428 103.091H144.189L140.865 114H139.218L136.831 105.619H136.661L134.275 114H132.627ZM154.502 114L151.178 103.091H152.939L155.297 111.443H155.411L157.74 103.091H159.53L161.831 111.415H161.945L164.303 103.091H166.064L162.74 114H161.093L158.706 105.619H158.536L156.15 114H154.502ZM172.483 114.227C171.432 114.227 170.525 113.995 169.763 113.531C169.005 113.062 168.42 112.409 168.009 111.571C167.601 110.728 167.398 109.748 167.398 108.631C167.398 107.513 167.601 106.528 168.009 105.676C168.42 104.819 168.993 104.152 169.727 103.673C170.466 103.19 171.328 102.949 172.312 102.949C172.881 102.949 173.442 103.044 173.996 103.233C174.55 103.422 175.054 103.73 175.509 104.156C175.963 104.578 176.325 105.136 176.595 105.832C176.865 106.528 177 107.385 177 108.403V109.114H168.591V107.665H175.295C175.295 107.049 175.172 106.5 174.926 106.017C174.685 105.534 174.339 105.153 173.889 104.874C173.444 104.594 172.919 104.455 172.312 104.455C171.645 104.455 171.067 104.62 170.58 104.952C170.097 105.278 169.725 105.705 169.464 106.23C169.204 106.756 169.074 107.319 169.074 107.92V108.886C169.074 109.71 169.216 110.409 169.5 110.982C169.789 111.55 170.189 111.983 170.7 112.281C171.212 112.575 171.806 112.722 172.483 112.722C172.923 112.722 173.321 112.66 173.676 112.537C174.036 112.409 174.346 112.22 174.607 111.969C174.867 111.713 175.068 111.396 175.21 111.017L176.83 111.472C176.659 112.021 176.373 112.504 175.97 112.92C175.568 113.332 175.071 113.654 174.479 113.886C173.887 114.114 173.222 114.227 172.483 114.227ZM187.646 114L184.322 103.091H186.084L188.442 111.443H188.555L190.885 103.091H192.675L194.976 111.415H195.089L197.447 103.091H199.209L195.885 114H194.237L191.851 105.619H191.68L189.294 114H187.646ZM204.635 114.256C203.944 114.256 203.316 114.125 202.753 113.865C202.189 113.6 201.742 113.219 201.411 112.722C201.079 112.22 200.913 111.614 200.913 110.903C200.913 110.278 201.036 109.772 201.283 109.384C201.529 108.991 201.858 108.683 202.27 108.46C202.682 108.238 203.136 108.072 203.634 107.963C204.135 107.849 204.64 107.759 205.146 107.693C205.809 107.608 206.347 107.544 206.759 107.501C207.175 107.454 207.478 107.376 207.668 107.267C207.862 107.158 207.959 106.969 207.959 106.699V106.642C207.959 105.941 207.767 105.397 207.384 105.009C207.005 104.62 206.429 104.426 205.658 104.426C204.857 104.426 204.23 104.601 203.776 104.952C203.321 105.302 203.001 105.676 202.817 106.074L201.226 105.506C201.51 104.843 201.889 104.327 202.362 103.957C202.84 103.583 203.361 103.323 203.925 103.176C204.493 103.025 205.052 102.949 205.601 102.949C205.951 102.949 206.354 102.991 206.808 103.077C207.268 103.157 207.71 103.325 208.136 103.581C208.567 103.837 208.925 104.223 209.209 104.739C209.493 105.255 209.635 105.946 209.635 106.812V114H207.959V112.523H207.874C207.76 112.759 207.571 113.013 207.305 113.283C207.04 113.553 206.688 113.782 206.247 113.972C205.807 114.161 205.269 114.256 204.635 114.256ZM204.891 112.75C205.554 112.75 206.112 112.62 206.567 112.359C207.026 112.099 207.372 111.763 207.604 111.351C207.84 110.939 207.959 110.506 207.959 110.051V108.517C207.888 108.602 207.732 108.68 207.49 108.751C207.253 108.818 206.979 108.877 206.666 108.929C206.358 108.976 206.058 109.019 205.764 109.057C205.475 109.09 205.241 109.118 205.061 109.142C204.625 109.199 204.218 109.291 203.839 109.419C203.465 109.542 203.162 109.729 202.93 109.98C202.703 110.226 202.589 110.562 202.589 110.989C202.589 111.571 202.805 112.011 203.236 112.31C203.671 112.603 204.223 112.75 204.891 112.75ZM212.694 114V103.091H214.37V114H212.694ZM213.547 101.273C213.22 101.273 212.938 101.161 212.701 100.939C212.469 100.716 212.353 100.449 212.353 100.136C212.353 99.8239 212.469 99.5563 212.701 99.3338C212.938 99.1113 213.22 99 213.547 99C213.873 99 214.153 99.1113 214.385 99.3338C214.621 99.5563 214.74 99.8239 214.74 100.136C214.74 100.449 214.621 100.716 214.385 100.939C214.153 101.161 213.873 101.273 213.547 101.273ZM222.185 103.091V104.511H216.531V103.091H222.185ZM218.179 100.477H219.855V110.875C219.855 111.348 219.924 111.704 220.061 111.94C220.203 112.172 220.383 112.329 220.601 112.409C220.823 112.485 221.058 112.523 221.304 112.523C221.489 112.523 221.64 112.513 221.759 112.494C221.877 112.471 221.972 112.452 222.043 112.438L222.384 113.943C222.27 113.986 222.111 114.028 221.908 114.071C221.704 114.118 221.446 114.142 221.134 114.142C220.66 114.142 220.196 114.04 219.741 113.837C219.292 113.633 218.918 113.323 218.619 112.906C218.326 112.49 218.179 111.964 218.179 111.33V100.477ZM225.928 114.114C225.577 114.114 225.277 113.988 225.026 113.737C224.775 113.486 224.649 113.186 224.649 112.835C224.649 112.485 224.775 112.184 225.026 111.933C225.277 111.682 225.577 111.557 225.928 111.557C226.278 111.557 226.579 111.682 226.83 111.933C227.08 112.184 227.206 112.485 227.206 112.835C227.206 113.067 227.147 113.28 227.028 113.474C226.915 113.669 226.761 113.825 226.567 113.943C226.377 114.057 226.164 114.114 225.928 114.114Z" fill="black"/>
<path d="M200.597 873.47C203.225 873.845 194.151 877.02 194.151 870.123C194.151 860.904 209.274 874.593 209.274 882.147C209.274 890.337 203.089 887.812 201.093 882.395C198.108 874.292 210.846 876.137 202.828 884.626C198.14 889.59 192.931 885.199 194.027 879.172C195.362 871.828 201.6 877.187 200.473 883.387C199.165 890.581 193.733 884.099 193.903 879.668C194.112 874.236 202.828 867.153 202.828 875.701" stroke="black" stroke-opacity="0.5" stroke-width="3" stroke-linecap="round"/>
<path d="M334.475 933.715C334.475 923.131 350.121 910.961 358.028 923.054C364.095 932.334 335.45 936.529 341.665 924.79C346.716 915.248 351.544 934.906 339.929 928.757C330.961 924.009 353.465 923.105 341.169 929.252" stroke="black" stroke-opacity="0.5" stroke-width="3" stroke-linecap="round"/>
<path d="M316.625 828.844C335.459 827.274 353.837 819.694 372.903 817.687C394.271 815.438 415.665 815.456 437.115 815.456" stroke="black" stroke-opacity="0.5" stroke-width="3" stroke-linecap="round"/>
<path d="M229.604 810.993C206.257 787.646 168.354 785.586 138.121 777.524" stroke="black" stroke-opacity="0.5" stroke-width="3" stroke-linecap="round"/>
<path d="M809.323 854.32C819.123 855.409 829.165 859.307 839.241 859.307" stroke="black" stroke-opacity="0.5" stroke-width="3" stroke-linecap="round"/>
<path d="M882.456 867.617C892.868 867.617 902.243 869.253 912.374 870.942" stroke="black" stroke-opacity="0.5" stroke-width="3" stroke-linecap="round"/>
<path d="M815.492 100.394C815.277 98.6698 808.682 95.2015 816.358 95.2015C820.607 95.2015 823.941 97.9012 818.954 100.394" stroke="black" stroke-opacity="0.5" stroke-width="3" stroke-linecap="round"/>
<path d="M896.847 128.089C883.235 115.989 911.547 120.882 900.309 124.627" stroke="black" stroke-opacity="0.5" stroke-width="3" stroke-linecap="round"/>
<path d="M889.923 126.358C883.464 129.018 886.856 123.627 890.693 124.724C893.18 125.434 888.754 127.809 888.192 128.089" stroke="black" stroke-opacity="0.5" stroke-width="3" stroke-linecap="round"/>
<path d="M730.677 140.206C730.296 137.158 724.652 136.536 729.908 134.148C732.609 132.92 740.396 134.481 735.87 136.744" stroke="black" stroke-opacity="0.5" stroke-width="3" stroke-linecap="round"/>
<path d="M751.448 141.937C750.05 141.937 740.293 142.899 743.755 139.437C745.298 137.894 751.885 138.256 747.986 140.206" stroke="black" stroke-opacity="0.5" stroke-width="3" stroke-linecap="round"/>
<path d="M741.062 148.861C737.208 145.434 733.602 152.465 731.061 150.207C730.005 149.268 734.048 145.218 735.87 148.861" stroke="black" stroke-opacity="0.5" stroke-width="3" stroke-linecap="round"/>
<path d="M687.404 147.13C679.092 146.091 696.416 141.579 690.866 147.13" stroke="black" stroke-opacity="0.5" stroke-width="3" stroke-linecap="round"/>
<path d="M860.497 190.403C851.679 190.403 862.784 186.941 862.228 186.941" stroke="black" stroke-opacity="0.5" stroke-width="3" stroke-linecap="round"/>
<path d="M938.39 385.999C935.127 385.999 928.773 382.617 928.773 378.691C928.773 367.312 954.982 365.742 961.469 366.959C975.793 369.644 976.129 392.923 960.892 392.923" stroke="black" stroke-opacity="0.5" stroke-width="3" stroke-linecap="round"/>
<path d="M857.036 413.694C856.615 410.325 854.042 406.77 860.882 406.77C867.081 406.77 872.07 415.425 863.959 415.425" stroke="black" stroke-opacity="0.5" stroke-width="3" stroke-linecap="round"/>
<path d="M524.695 372.151C519.747 372.646 508.939 375.741 507.482 367.728C506.178 360.558 511.655 354.678 518.156 353.496C526.974 351.892 533.385 353.496 535.85 362.535C536.976 366.662 529.308 374.462 526.426 377.344" stroke="black" stroke-opacity="0.5" stroke-width="3" stroke-linecap="round"/>
<path d="M498.731 344.456C488.336 352.773 467.05 336.839 486.711 328.974C496.723 324.97 504.03 325.388 507.001 335.417C508.689 341.112 505.187 342.881 500.462 344.456" stroke="black" stroke-opacity="0.5" stroke-width="3" stroke-linecap="round"/>
<path d="M557.584 356.573C550.713 357.26 542.648 358.798 543.736 347.918C544.892 336.36 571.595 337.038 577.97 340.995C586.893 346.533 582.116 357.814 573.547 359.65C570.062 360.397 559.19 361.517 557.584 358.304" stroke="black" stroke-opacity="0.5" stroke-width="3" stroke-linecap="round"/>
<path d="M647.592 415.425C631.873 415.425 635.817 401.764 648.938 402.347C656.367 402.677 670.778 415.425 656.247 415.425" stroke="black" stroke-opacity="0.5" stroke-width="3" stroke-linecap="round"/>
<path d="M173.315 384.268C178.337 379.748 197.61 377.786 193.702 389.076C190.731 397.66 177.846 397.861 175.046 389.461" stroke="black" stroke-opacity="0.5" stroke-width="3" stroke-linecap="round"/>
<path d="M226.974 401.577C221.706 401.577 215.542 402.043 211.396 398.115C208.578 395.446 208.85 388.901 212.454 386.961C217.266 384.37 223.399 385.885 226.974 389.461C232.836 395.322 227.691 396.892 221.782 399.846" stroke="black" stroke-opacity="0.5" stroke-width="3" stroke-linecap="round"/>
<path d="M168.123 424.08C155.859 433.891 143.217 411.809 158.025 410.328C174.864 408.644 180.765 424.561 164.661 431.003" stroke="black" stroke-opacity="0.5" stroke-width="3" stroke-linecap="round"/>
<path d="M62.5352 456.967C53.8583 456.967 50.6133 455.034 43.4949 450.428C39.8615 448.077 49.3131 440.121 52.2457 439.754C68.8939 437.673 67.73 450.908 57.3424 458.698" stroke="black" stroke-opacity="0.5" stroke-width="3" stroke-linecap="round"/>
<path d="M86.7682 469.084C81.6746 469.084 76.7819 469.698 72.9207 465.622C65.5377 457.829 82.5171 447.862 88.4992 446.774C91.9709 446.143 106.63 449.604 103.02 456.102C98.9693 463.393 94.2786 461.769 88.4992 465.622" stroke="black" stroke-opacity="0.5" stroke-width="3" stroke-linecap="round"/>
<path d="M156.006 470.815C147.21 478.634 131.41 464.341 149.467 458.698C158.43 455.897 167.179 454.941 173.315 462.16C176.38 465.766 173.534 469.588 169.854 470.815" stroke="black" stroke-opacity="0.5" stroke-width="3" stroke-linecap="round"/>
<path d="M299.674 495.048C287.114 500.336 263.263 499.766 253.323 489.47C246.549 482.454 263.369 465.61 270.44 464.853C282.845 463.524 294.505 469.148 298.808 480.335C301.385 487.034 294.796 489.54 291.019 493.317" stroke="black" stroke-opacity="0.5" stroke-width="3" stroke-linecap="round"/>
<path d="M341.216 503.703C331.215 503.703 322.9 496.008 324.003 485.528C325.813 468.329 363.944 473.854 374.008 476.873C384.22 479.937 387.065 490.959 381.028 499.856C375.219 508.416 358.628 505.434 349.871 505.434" stroke="black" stroke-opacity="0.5" stroke-width="3" stroke-linecap="round"/>
<path d="M270.248 529.667C265.522 529.404 248.711 528.23 246.014 523.512C238.404 510.193 264.534 506.45 271.979 505.818C276.621 505.424 319.658 503.455 309.098 520.05C303.8 528.375 284.31 522.313 280.633 529.667" stroke="black" stroke-opacity="0.5" stroke-width="3" stroke-linecap="round"/>
<path d="M657.977 569.478C645.232 569.478 635.714 564.926 637.302 550.63C638.857 536.635 676.649 535.688 686.057 539.091C701.026 544.505 701.341 560.985 689.904 570.344C677.629 580.387 663.062 578.079 649.323 571.209" stroke="black" stroke-opacity="0.5" stroke-width="3" stroke-linecap="round"/>
<path d="M754.91 574.671C746.55 574.179 729.019 571.62 725.869 562.17C720.311 545.497 743.327 539.425 754.718 540.437C762.643 541.141 786.143 546.793 778.758 560.824C773.89 570.073 762.26 571.643 753.179 572.94" stroke="black" stroke-opacity="0.5" stroke-width="3" stroke-linecap="round"/>
<path d="M573.162 643.909C553.1 645.089 531.301 642.397 520.464 622.272C511.697 605.99 546.096 597.173 555.083 597.173C581.323 597.173 589.155 634.031 561.045 638.716" stroke="black" stroke-opacity="0.5" stroke-width="3" stroke-linecap="round"/>
<path d="M540.274 611.021V612.752" stroke="black" stroke-opacity="0.5" stroke-width="3" stroke-linecap="round"/>
<path d="M550.66 612.752C551.764 613.994 551.9 614.741 552.391 616.214" stroke="black" stroke-opacity="0.5" stroke-width="3" stroke-linecap="round"/>
<path d="M607.78 666.411C598.535 666.411 577.38 667.916 576.624 654.294C575.345 631.289 611.85 623.457 629.513 621.791C648.057 620.042 654.935 626.364 654.516 645.255C654.23 658.111 633.214 665.952 623.359 668.142" stroke="black" stroke-opacity="0.5" stroke-width="3" stroke-linecap="round"/>
<path d="M621.628 638.716V642.178" stroke="black" stroke-opacity="0.5" stroke-width="3" stroke-linecap="round"/>
<path d="M607.78 638.716V640.447" stroke="black" stroke-opacity="0.5" stroke-width="3" stroke-linecap="round"/>
<path d="M928.004 630.061C920.986 634.919 893.37 637.732 891.75 624.772C889.779 609 907.952 604.357 920.696 604.097C936.875 603.767 955.491 601.567 951.372 623.81C948.653 638.492 929.783 635.879 917.618 636.985" stroke="black" stroke-opacity="0.5" stroke-width="3" stroke-linecap="round"/>
<path d="M908.964 612.752C909.159 614.507 910.141 616.284 910.695 617.944" stroke="black" stroke-opacity="0.5" stroke-width="3" stroke-linecap="round"/>
<path d="M921.08 609.29V612.752" stroke="black" stroke-opacity="0.5" stroke-width="3" stroke-linecap="round"/>
<path d="M973.009 662.949C962.166 671.081 943.543 667.909 934.255 658.621C918.49 642.857 956.34 634.485 964.354 633.908C968.815 633.586 1009.82 632.521 999.55 647.467C991.966 658.497 973.401 662.949 960.892 662.949" stroke="black" stroke-opacity="0.5" stroke-width="3" stroke-linecap="round"/>
<path d="M953.968 645.639C954.167 647.234 954.53 646.786 955.699 647.37" stroke="black" stroke-opacity="0.5" stroke-width="3" stroke-linecap="round"/>
<path d="M967.815 643.909C967.995 645.524 968.686 646.08 969.546 647.37" stroke="black" stroke-opacity="0.5" stroke-width="3" stroke-linecap="round"/>
<path d="M600.856 619.675C605.212 621.981 609.04 625.38 612.973 628.33" stroke="black" stroke-opacity="0.5" stroke-width="3" stroke-linecap="round"/>
<path d="M628.552 630.061C631.933 626.257 635.078 617.944 640.668 617.944" stroke="black" stroke-opacity="0.5" stroke-width="3" stroke-linecap="round"/>
<path d="M170.249 748.165C164.37 735.671 169.529 718.012 176.372 707.291C185.114 693.595 196.411 685.576 211.814 680.213C226.171 675.215 241.59 669.213 256.656 666.761C281.955 662.642 317.546 675.743 331.679 696.943" stroke="black" stroke-opacity="0.5" stroke-width="3" stroke-linecap="round"/>
<path d="M191.98 658.137C169.651 658.137 135.809 649.871 148.001 620.022C155.964 600.526 192.867 594.233 210.952 592.341C234.319 589.895 268.756 586.152 286.579 604.5C293.98 612.119 299.88 620.227 293.392 630.887C286.556 642.117 277.378 649.929 264.934 654.171C244.48 661.144 214.655 660.313 193.533 655.033" stroke="black" stroke-opacity="0.5" stroke-width="3" stroke-linecap="round"/>
<path d="M213.711 623.989H224.577" stroke="black" stroke-opacity="0.5" stroke-width="3" stroke-linecap="round"/>
<path d="M241.651 622.436C246.871 621.914 250.33 619.332 255.621 619.332" stroke="black" stroke-opacity="0.5" stroke-width="3" stroke-linecap="round"/>
<path d="M100.509 691.735C101.186 685.637 104.985 688.52 98.5547 691.735" stroke="black" stroke-opacity="0.5" stroke-width="3" stroke-linecap="round"/>
<path d="M79.0141 701.505C74.233 700.908 75.2471 696.899 79.0141 695.643" stroke="black" stroke-opacity="0.5" stroke-width="3" stroke-linecap="round"/>
<path d="M457.197 1007.35C446.01 1014.54 426.949 1015.67 414.306 1018.01C380.126 1024.32 343.686 1024.88 309.187 1020.98C250.651 1014.37 178.415 998.829 142.087 947.971C107.909 900.121 117.536 815.96 154.731 771.326C208.761 706.489 306.545 693.934 385.299 697.569C443.662 700.262 507.03 721.68 544.094 768.723C558.22 786.652 570.601 806.007 574.712 828.844C579.542 855.679 569.805 879.825 559.837 904.212C549.198 930.239 531.813 955.06 512.979 975.986C503.981 985.984 490.494 991.1 479.51 998.423" stroke="black" stroke-opacity="0.5" stroke-width="3" stroke-linecap="round"/>
<path d="M964.017 946.073C948.015 947.406 935.961 946.394 919.639 942.354C898.359 937.087 877.11 931.497 855.923 925.867C833.95 920.028 809.774 914.216 792.455 898.472C744.457 854.837 853.311 834.51 874.765 831.037C912.818 824.876 960.286 821.336 991.785 848.144C1003.76 858.335 1035.46 883.455 1033.93 900.951C1032.4 918.406 999.261 930.842 986.082 935.784C966.309 943.199 944.438 946.185 923.854 941.61" stroke="black" stroke-opacity="0.5" stroke-width="3" stroke-linecap="round"/>
<path d="M1139.63 1022.89C1141.27 1022.65 1140.31 1021.4 1139.63 1020.31C1134.68 1012.44 1122.83 1008.67 1114.98 1004.87C1077.07 986.513 1033.04 971.079 990.931 967.052C956.294 963.739 920.771 965.864 885.989 965.864C868.09 965.864 850.413 964.915 832.825 968.636C820.136 971.32 804.534 972.112 792.531 976.952C782.683 980.923 773.487 986.611 763.622 990.416C755.081 993.71 739.625 997.819 735.11 1006.85" stroke="black" stroke-opacity="0.5" stroke-width="3" stroke-linecap="round"/>
<path d="M313.214 998.475C295.88 998.475 277.976 991.852 261.413 987.214C260.881 987.065 248.427 985.071 250.434 983.836C252.705 982.439 259.578 983.273 261.413 983.273C278.302 983.273 295.201 983.11 312.087 983.414C329.97 983.736 357.885 980.84 374.445 989.607C379.45 992.257 374.955 996.95 371.489 997.912C349.784 1003.94 325.338 1001.01 303.079 1001.01" stroke="black" stroke-opacity="0.5" stroke-width="3" stroke-linecap="round"/>
<path d="M1011.09 605.828C1006.15 606.534 978.032 615.438 980.893 603.039C983.598 591.32 990.414 584.679 1003.01 583.71C1011.42 583.063 1038.91 582.756 1032.63 598.904C1029.61 606.665 1022.19 609.29 1014.55 609.29" stroke="black" stroke-opacity="0.5" stroke-width="3" stroke-linecap="round"/>
<path d="M83.3255 779.21C70.892 785.426 54.6043 784.201 41.3296 782.055C4.8857 776.165 -39.2868 763.832 -63.6171 733.419C-75.7454 718.259 -69.7915 691.236 -56.8908 678.661C-40.1468 662.339 -14.1894 656.277 8.12953 653.308C35.8848 649.617 66.5503 648.132 94.3634 652.618C120.433 656.823 140.52 671.798 157.573 691.337C164.671 699.47 168.29 705.193 165.938 716.173C162.843 730.614 155.064 743.243 146.276 754.892C135.787 768.796 117.783 778.044 100.917 781.969C89.1453 784.709 77.4105 786.382 65.7338 789.73C60.9029 791.115 55.833 793.18 50.7291 793.18" stroke="black" stroke-opacity="0.5" stroke-width="3" stroke-linecap="round"/>
<path d="M746.255 221.56C739.03 221.56 735.673 215.798 744.14 213.29C749.381 211.737 760.369 216.766 753.179 221.56" stroke="black" stroke-opacity="0.5" stroke-width="3" stroke-linecap="round"/>
<path d="M831.071 230.215C818.908 230.215 833.028 215.089 837.995 225.022" stroke="black" stroke-opacity="0.5" stroke-width="3" stroke-linecap="round"/>
<path d="M874.345 280.412C878.21 261.084 907.69 287.336 882.999 287.336" stroke="black" stroke-opacity="0.5" stroke-width="3" stroke-linecap="round"/>
<path d="M791.259 276.95C790.513 276.287 786.259 274.969 786.259 274.353C786.259 273.828 787.797 271.502 787.797 273.488" stroke="black" stroke-opacity="0.5" stroke-width="3" stroke-linecap="round"/>
<path d="M709.906 270.026C709.525 266.983 703.76 268.171 709.04 264.064C711.937 261.811 716.829 265.085 716.829 268.295" stroke="black" stroke-opacity="0.5" stroke-width="3" stroke-linecap="round"/>
<path d="M978.201 268.295C973.008 268.295 960.039 270.61 956.853 265.603C950.931 256.297 991.479 254.64 993.875 254.64C1000.76 254.64 1008.86 260.138 1002.43 266.564C998.583 270.416 995.549 270.026 990.317 270.026" stroke="black" stroke-opacity="0.5" stroke-width="3" stroke-linecap="round"/>
<path d="M710.392 786.091V787.511H704.511V786.091H710.392ZM706.273 797V784.585C706.273 783.96 706.42 783.439 706.713 783.023C707.007 782.606 707.388 782.294 707.857 782.085C708.325 781.877 708.82 781.773 709.341 781.773C709.753 781.773 710.089 781.806 710.349 781.872C710.61 781.938 710.804 782 710.932 782.057L710.449 783.506C710.364 783.477 710.245 783.442 710.094 783.399C709.947 783.357 709.753 783.335 709.511 783.335C708.957 783.335 708.557 783.475 708.311 783.754C708.07 784.034 707.949 784.443 707.949 784.983V797H706.273ZM716.724 797.227C715.739 797.227 714.875 796.993 714.131 796.524C713.393 796.055 712.815 795.4 712.398 794.557C711.987 793.714 711.781 792.729 711.781 791.602C711.781 790.466 711.987 789.474 712.398 788.626C712.815 787.779 713.393 787.121 714.131 786.652C714.875 786.183 715.739 785.949 716.724 785.949C717.709 785.949 718.57 786.183 719.309 786.652C720.052 787.121 720.63 787.779 721.042 788.626C721.459 789.474 721.667 790.466 721.667 791.602C721.667 792.729 721.459 793.714 721.042 794.557C720.63 795.4 720.052 796.055 719.309 796.524C718.57 796.993 717.709 797.227 716.724 797.227ZM716.724 795.722C717.472 795.722 718.087 795.53 718.57 795.146C719.053 794.763 719.411 794.259 719.643 793.634C719.875 793.009 719.991 792.331 719.991 791.602C719.991 790.873 719.875 790.194 719.643 789.564C719.411 788.934 719.053 788.425 718.57 788.037C718.087 787.649 717.472 787.455 716.724 787.455C715.976 787.455 715.36 787.649 714.877 788.037C714.394 788.425 714.037 788.934 713.805 789.564C713.573 790.194 713.457 790.873 713.457 791.602C713.457 792.331 713.573 793.009 713.805 793.634C714.037 794.259 714.394 794.763 714.877 795.146C715.36 795.53 715.976 795.722 716.724 795.722ZM724.225 797V786.091H725.845V787.739H725.958C726.157 787.199 726.517 786.761 727.038 786.425C727.559 786.089 728.146 785.92 728.799 785.92C728.922 785.92 729.076 785.923 729.261 785.928C729.446 785.932 729.585 785.939 729.68 785.949V787.653C729.623 787.639 729.493 787.618 729.289 787.589C729.091 787.556 728.88 787.54 728.657 787.54C728.127 787.54 727.654 787.651 727.237 787.874C726.825 788.091 726.498 788.394 726.257 788.783C726.02 789.166 725.902 789.604 725.902 790.097V797H724.225ZM738.968 790.438V797H737.292V782.455H738.968V787.795H739.11C739.366 787.232 739.749 786.785 740.261 786.453C740.777 786.117 741.463 785.949 742.32 785.949C743.064 785.949 743.715 786.098 744.273 786.396C744.832 786.69 745.265 787.142 745.573 787.753C745.886 788.359 746.042 789.131 746.042 790.068V797H744.366V790.182C744.366 789.315 744.141 788.645 743.691 788.172C743.246 787.694 742.628 787.455 741.837 787.455C741.288 787.455 740.796 787.571 740.36 787.803C739.929 788.035 739.588 788.373 739.337 788.818C739.091 789.263 738.968 789.803 738.968 790.438ZM753.54 797.227C752.555 797.227 751.691 796.993 750.948 796.524C750.209 796.055 749.632 795.4 749.215 794.557C748.803 793.714 748.597 792.729 748.597 791.602C748.597 790.466 748.803 789.474 749.215 788.626C749.632 787.779 750.209 787.121 750.948 786.652C751.691 786.183 752.555 785.949 753.54 785.949C754.525 785.949 755.387 786.183 756.125 786.652C756.869 787.121 757.446 787.779 757.858 788.626C758.275 789.474 758.483 790.466 758.483 791.602C758.483 792.729 758.275 793.714 757.858 794.557C757.446 795.4 756.869 796.055 756.125 796.524C755.387 796.993 754.525 797.227 753.54 797.227ZM753.54 795.722C754.288 795.722 754.904 795.53 755.387 795.146C755.87 794.763 756.227 794.259 756.459 793.634C756.691 793.009 756.807 792.331 756.807 791.602C756.807 790.873 756.691 790.194 756.459 789.564C756.227 788.934 755.87 788.425 755.387 788.037C754.904 787.649 754.288 787.455 753.54 787.455C752.792 787.455 752.176 787.649 751.694 788.037C751.211 788.425 750.853 788.934 750.621 789.564C750.389 790.194 750.273 790.873 750.273 791.602C750.273 792.331 750.389 793.009 750.621 793.634C750.853 794.259 751.211 794.763 751.694 795.146C752.176 795.53 752.792 795.722 753.54 795.722ZM763.142 797L759.819 786.091H761.58L763.938 794.443H764.051L766.381 786.091H768.171L770.472 794.415H770.586L772.944 786.091H774.705L771.381 797H769.733L767.347 788.619H767.176L764.79 797H763.142ZM784.222 782.455V797H782.546V782.455H784.222ZM791.724 797.227C790.739 797.227 789.875 796.993 789.131 796.524C788.393 796.055 787.815 795.4 787.398 794.557C786.987 793.714 786.781 792.729 786.781 791.602C786.781 790.466 786.987 789.474 787.398 788.626C787.815 787.779 788.393 787.121 789.131 786.652C789.875 786.183 790.739 785.949 791.724 785.949C792.709 785.949 793.57 786.183 794.309 786.652C795.052 787.121 795.63 787.779 796.042 788.626C796.459 789.474 796.667 790.466 796.667 791.602C796.667 792.729 796.459 793.714 796.042 794.557C795.63 795.4 795.052 796.055 794.309 796.524C793.57 796.993 792.709 797.227 791.724 797.227ZM791.724 795.722C792.472 795.722 793.087 795.53 793.57 795.146C794.053 794.763 794.411 794.259 794.643 793.634C794.875 793.009 794.991 792.331 794.991 791.602C794.991 790.873 794.875 790.194 794.643 789.564C794.411 788.934 794.053 788.425 793.57 788.037C793.087 787.649 792.472 787.455 791.724 787.455C790.976 787.455 790.36 787.649 789.877 788.037C789.394 788.425 789.037 788.934 788.805 789.564C788.573 790.194 788.457 790.873 788.457 791.602C788.457 792.331 788.573 793.009 788.805 793.634C789.037 794.259 789.394 794.763 789.877 795.146C790.36 795.53 790.976 795.722 791.724 795.722ZM800.902 790.438V797H799.225V786.091H800.845V787.795H800.987C801.243 787.241 801.631 786.796 802.152 786.46C802.672 786.119 803.345 785.949 804.169 785.949C804.907 785.949 805.554 786.1 806.108 786.403C806.662 786.702 807.092 787.156 807.4 787.767C807.708 788.373 807.862 789.14 807.862 790.068V797H806.186V790.182C806.186 789.325 805.963 788.657 805.518 788.179C805.073 787.696 804.462 787.455 803.686 787.455C803.151 787.455 802.672 787.571 802.251 787.803C801.834 788.035 801.505 788.373 801.264 788.818C801.022 789.263 800.902 789.803 800.902 790.438ZM815.328 801.318C814.518 801.318 813.822 801.214 813.24 801.006C812.658 800.802 812.172 800.532 811.784 800.196C811.401 799.865 811.095 799.509 810.868 799.131L812.203 798.193C812.355 798.392 812.546 798.619 812.778 798.875C813.01 799.135 813.328 799.36 813.73 799.55C814.137 799.744 814.67 799.841 815.328 799.841C816.209 799.841 816.936 799.628 817.509 799.202C818.081 798.776 818.368 798.108 818.368 797.199V794.983H818.226C818.103 795.182 817.928 795.428 817.7 795.722C817.478 796.01 817.156 796.268 816.734 796.496C816.318 796.718 815.754 796.83 815.044 796.83C814.163 796.83 813.373 796.621 812.672 796.205C811.976 795.788 811.424 795.182 811.017 794.386C810.615 793.591 810.413 792.625 810.413 791.489C810.413 790.371 810.61 789.398 811.003 788.57C811.396 787.736 811.943 787.092 812.643 786.638C813.344 786.179 814.154 785.949 815.072 785.949C815.783 785.949 816.346 786.067 816.763 786.304C817.184 786.536 817.506 786.801 817.729 787.099C817.956 787.393 818.131 787.634 818.254 787.824H818.425V786.091H820.044V797.312C820.044 798.25 819.831 799.012 819.405 799.599C818.983 800.191 818.415 800.625 817.7 800.899C816.99 801.179 816.199 801.318 815.328 801.318ZM815.271 795.324C815.944 795.324 816.512 795.17 816.976 794.862C817.44 794.554 817.793 794.112 818.034 793.534C818.276 792.956 818.396 792.265 818.396 791.46C818.396 790.674 818.278 789.981 818.041 789.379C817.804 788.778 817.454 788.307 816.99 787.966C816.526 787.625 815.953 787.455 815.271 787.455C814.561 787.455 813.969 787.634 813.496 787.994C813.027 788.354 812.674 788.837 812.438 789.443C812.205 790.049 812.089 790.722 812.089 791.46C812.089 792.218 812.208 792.888 812.445 793.47C812.686 794.048 813.041 794.502 813.51 794.834C813.983 795.161 814.571 795.324 815.271 795.324ZM825.3 792.909V792.824C825.309 791.92 825.404 791.2 825.584 790.665C825.764 790.13 826.019 789.696 826.351 789.365C826.682 789.034 827.08 788.728 827.544 788.449C827.823 788.278 828.074 788.077 828.297 787.845C828.519 787.608 828.695 787.336 828.822 787.028C828.955 786.721 829.021 786.38 829.021 786.006C829.021 785.542 828.912 785.139 828.695 784.798C828.477 784.457 828.186 784.195 827.821 784.01C827.456 783.825 827.052 783.733 826.607 783.733C826.218 783.733 825.844 783.813 825.484 783.974C825.125 784.135 824.824 784.389 824.582 784.734C824.341 785.08 824.201 785.532 824.163 786.091H822.374C822.411 785.286 822.62 784.597 822.999 784.024C823.382 783.451 823.886 783.013 824.511 782.71C825.141 782.407 825.839 782.256 826.607 782.256C827.44 782.256 828.164 782.421 828.78 782.753C829.4 783.084 829.878 783.539 830.214 784.116C830.555 784.694 830.726 785.352 830.726 786.091C830.726 786.612 830.645 787.083 830.484 787.504C830.328 787.926 830.101 788.302 829.803 788.634C829.509 788.965 829.154 789.259 828.737 789.514C828.321 789.775 827.987 790.049 827.736 790.338C827.485 790.622 827.303 790.961 827.189 791.354C827.075 791.747 827.014 792.237 827.004 792.824V792.909H825.3ZM826.209 797.114C825.858 797.114 825.558 796.988 825.307 796.737C825.056 796.486 824.93 796.186 824.93 795.835C824.93 795.485 825.056 795.184 825.307 794.933C825.558 794.682 825.858 794.557 826.209 794.557C826.559 794.557 826.86 794.682 827.111 794.933C827.362 795.184 827.487 795.485 827.487 795.835C827.487 796.067 827.428 796.28 827.31 796.474C827.196 796.669 827.042 796.825 826.848 796.943C826.659 797.057 826.446 797.114 826.209 797.114Z" fill="black"/>
</g>
<defs>
<clipPath id="clip0_27_51">
<rect width="1024" height="1024" fill="white"/>
</clipPath>
</defs>
</svg>
